# OBJ
# COMPAS
# version: 2.1.0
# precision: 3
# V F E: 406 808 1212

o Mesh 0
v 52.540 -12.353 0.267
v 51.493 -11.829 0.172
v 48.316 -6.311 -0.106
v 51.464 -12.095 0.188
v 48.332 -6.843 -0.094
v 53.277 -12.439 0.360
v 49.765 -10.451 0.041
v 48.480 -4.289 -0.072
v 48.166 -7.019 -0.088
v 53.013 -12.515 0.356
v 48.492 -7.903 -0.055
v 49.731 -10.639 0.063
v 55.069 -12.303 0.554
v 48.232 -4.460 -0.061
v 50.488 -11.982 0.174
v 50.730 -12.171 0.197
v 56.731 -12.574 0.757
v 50.301 -11.874 0.190
v 50.899 -12.284 0.250
v 48.118 -8.442 0.004
v 48.381 2.065 0.035
v 48.025 -6.839 0.008
v 52.490 -12.523 0.434
v 58.247 -12.695 0.971
v 50.486 -12.236 0.277
v 60.428 -12.500 1.192
v 50.791 -12.372 0.318
v 48.002 -6.924 0.064
v 57.031 -12.693 0.891
v 60.331 -12.703 1.202
v 53.538 -12.669 0.623
v 47.983 -6.863 0.119
v 48.028 -8.358 0.131
v 48.284 7.544 0.158
v 48.375 8.865 0.169
v 48.040 -8.649 0.144
v 48.647 9.864 0.208
v 48.435 9.485 0.192
v 64.125 -12.374 1.650
v 48.673 10.354 0.247
v 48.143 5.602 0.202
v 48.297 9.417 0.218
v 49.497 10.714 0.332
v 48.457 10.009 0.244
v 48.223 8.335 0.233
v 48.313 9.659 0.246
v 53.475 -12.682 0.718
v 49.509 10.939 0.358
v 59.938 -12.752 1.320
v 60.210 -12.750 1.354
v 49.908 11.168 0.412
v 48.213 8.748 0.257
v 64.572 -12.568 1.756
v 66.993 -11.771 1.980
v 67.527 -11.635 2.041
v 48.177 8.057 0.276
v 66.652 -12.138 1.969
v 66.955 -12.062 2.000
v 67.589 -10.970 2.060
v 49.510 11.168 0.410
v 48.471 10.249 0.316
v 53.650 -12.697 0.792
v 67.586 -10.436 2.069
v 67.615 -10.709 2.073
v 57.825 -12.747 1.180
v 57.345 -12.744 1.144
v 52.518 12.168 0.705
v 48.210 9.387 0.335
v 48.079 5.571 0.329
v 63.881 -12.639 1.775
v 66.357 -12.344 2.011
v 59.001 6.774 1.353
v 55.337 11.840 1.019
v 48.188 9.026 0.371
v 48.373 10.116 0.393
v 55.199 12.126 1.019
v 67.885 -10.346 2.187
v 48.214 9.609 0.391
v 67.834 -10.808 2.196
v 52.461 12.443 0.795
v 48.161 8.524 0.415
v 67.182 -12.102 2.157
v 64.223 2.515 1.893
v 67.838 -5.125 2.236
v 64.223 -12.654 1.913
v 57.949 11.970 1.342
v 66.539 -12.361 2.136
v 67.820 -11.095 2.253
v 56.703 12.174 1.237
v 67.677 -1.534 2.244
v 51.357 12.349 0.773
v 67.944 -9.317 2.294
v 63.721 -12.684 1.910
v 52.422 12.569 0.889
v 56.461 12.251 1.260
v 48.168 9.330 0.513
v 63.266 9.097 1.906
v 51.178 12.424 0.818
v 58.011 12.189 1.454
v 67.633 -11.939 2.337
v 62.104 11.561 1.832
v 48.045 5.425 0.555
v 48.719 -12.211 0.622
v 66.973 5.796 2.297
v 64.864 9.443 2.106
v 64.080 10.704 2.049
v 54.163 -12.724 1.157
v 67.876 -11.399 2.420
v 50.459 12.322 0.827
v 51.333 12.524 0.912
v 67.593 7.725 2.421
v 48.163 9.777 0.649
v 62.703 11.839 1.986
v 65.278 11.352 2.221
v 67.921 5.092 2.465
v 67.832 7.171 2.458
v 64.610 11.581 2.183
v 67.835 8.031 2.479
v 67.375 10.050 2.441
v 50.030 12.165 0.857
v 50.212 12.287 0.878
v 67.564 9.637 2.465
v 66.525 11.286 2.391
v 67.678 9.874 2.503
v 67.143 11.121 2.458
v 67.897 8.475 2.528
v 67.423 10.893 2.492
v 65.453 11.598 2.313
v 68.025 5.633 2.557
v 51.234 12.613 1.030
v 50.517 12.514 0.972
v 67.683 10.323 2.545
v 66.955 11.329 2.479
v 63.589 -12.722 2.190
v 68.035 4.482 2.602
v 68.011 -6.714 2.605
v 68.002 7.651 2.622
v 64.049 11.800 2.262
v 68.052 -2.521 2.628
v 67.399 -12.253 2.577
v 67.989 8.218 2.632
v 67.410 11.329 2.588
v 65.891 11.611 2.453
v 48.659 -12.395 0.880
v 66.366 -12.605 2.508
v 67.959 -9.081 2.657
v 68.037 6.680 2.671
v 63.059 11.928 2.215
v 62.321 12.016 2.198
v 48.145 -11.949 0.907
v 67.754 10.879 2.716
v 65.278 11.753 2.512
v 48.228 -12.252 0.957
v 67.531 11.442 2.750
v 67.249 11.505 2.730
v 48.339 -12.365 1.018
v 67.706 11.275 2.850
v 48.058 -12.199 1.058
v 67.996 9.151 2.885
v 68.023 8.787 2.897
v 50.605 12.700 1.310
v 68.037 8.408 2.910
v 48.719 -12.497 1.156
v 49.915 12.589 1.278
v 67.445 11.519 2.882
v 48.153 -12.316 1.118
v 68.071 -1.409 2.943
v 62.368 -12.797 2.471
v 47.864 -7.385 1.159
v 65.767 -12.712 2.799
v 68.090 5.066 3.020
v 66.493 -12.669 2.882
v 50.048 12.719 1.389
v 67.826 -11.808 3.016
v 67.477 -12.433 2.988
v 47.973 -12.209 1.223
v 68.068 7.226 3.071
v 61.223 -12.816 2.462
v 48.549 -12.503 1.339
v 60.377 -12.830 2.444
v 48.977 12.334 1.439
v 47.909 -12.032 1.355
v 48.432 -12.478 1.406
v 48.834 -12.550 1.470
v 63.726 11.917 2.858
v 68.052 -1.938 3.262
v 67.752 11.458 3.243
v 67.281 -12.615 3.289
v 65.770 -12.748 3.210
v 67.055 -12.707 3.356
v 49.139 12.704 1.744
v 67.464 -12.505 3.471
v 48.493 12.378 1.749
v 67.986 11.243 3.566
v 67.702 -12.224 3.542
v 67.806 11.528 3.653
v 67.561 11.567 3.650
v 48.739 -12.610 1.969
v 61.789 -12.857 3.177
v 47.798 -11.712 1.928
v 48.408 12.605 2.008
v 48.263 12.397 2.013
v 67.181 -12.716 3.826
v 48.416 12.765 2.122
v 48.288 12.595 2.128
v 68.094 10.772 3.944
v 60.048 -12.872 3.244
v 67.944 11.417 3.988
v 66.750 -12.765 3.978
v 48.232 12.722 2.303
v 68.001 -3.172 4.155
v 48.445 12.897 2.378
v 48.415 -12.636 2.498
v 66.952 -12.767 4.226
v 48.661 -12.674 2.567
v 68.035 11.304 4.379
v 47.768 -12.236 2.588
v 65.585 -12.795 4.220
v 47.706 -11.674 2.665
v 50.167 -12.739 2.906
v 68.059 10.751 4.609
v 48.009 12.426 2.781
v 47.799 -12.421 2.856
v 67.939 -6.056 4.706
v 47.720 -12.241 2.926
v 47.953 12.432 3.004
v 47.852 -12.478 3.080
v 47.887 12.424 3.277
v 48.668 -12.657 3.413
v 47.986 12.695 3.393
v 47.743 -12.399 3.398
v 47.882 -12.488 3.484
v 67.631 11.630 5.301
v 67.877 11.560 5.411
v 47.818 12.335 3.581
v 47.723 -12.389 3.643
v 47.604 -3.361 3.653
v 48.043 12.816 3.732
v 47.918 -12.477 3.740
v 52.678 -12.872 4.405
v 67.906 11.109 5.810
v 47.588 -11.624 4.055
v 47.784 12.633 4.172
v 47.746 12.561 4.380
v 47.839 12.735 4.404
v 47.525 -3.335 4.391
v 60.733 12.215 5.618
v 67.723 11.551 6.271
v 47.744 12.571 4.534
v 67.833 9.918 6.772
v 48.051 12.876 4.975
v 67.455 -12.306 6.770
v 67.778 11.424 6.812
v 47.618 5.527 5.008
v 47.988 12.857 5.116
v 67.774 11.049 7.001
v 48.077 12.871 5.258
v 47.884 12.788 5.345
v 47.746 12.506 5.395
v 47.822 12.642 5.466
v 47.507 -12.054 5.458
v 67.551 -11.714 7.316
v 67.250 -12.581 7.297
v 47.665 -12.141 5.534
v 50.745 -12.841 5.860
v 47.514 -3.241 5.606
v 47.481 -11.918 5.605
v 47.706 11.952 5.649
v 49.881 -12.763 5.870
v 67.622 11.430 7.494
v 67.726 -6.495 7.506
v 47.617 -12.011 5.736
v 47.781 12.255 5.783
v 47.463 -10.390 5.757
v 56.162 12.566 6.568
v 47.456 -11.787 5.822
v 48.650 -12.521 5.932
v 47.676 9.807 5.876
v 47.592 -11.891 5.896
v 47.469 -10.481 5.903
v 66.908 -12.790 7.686
v 51.110 -12.853 6.257
v 47.736 11.921 5.951
v 67.217 -12.477 7.748
v 48.035 -12.172 5.997
v 49.170 -12.579 6.104
v 47.469 -11.485 5.949
v 49.962 -12.729 6.202
v 53.389 -12.897 6.544
v 47.587 -11.717 6.033
v 57.541 -12.887 6.966
v 48.573 -12.405 6.162
v 48.027 -12.029 6.114
v 47.564 -11.510 6.077
v 48.235 -12.115 6.145
v 49.714 -12.627 6.288
v 47.535 -10.529 6.089
v 53.653 -12.874 6.652
v 48.975 -12.483 6.230
v 56.024 12.571 6.879
v 47.788 11.936 6.127
v 51.135 -12.834 6.434
v 67.610 10.940 7.941
v 47.743 -11.507 6.139
v 48.873 12.818 6.244
v 53.168 -12.861 6.642
v 49.336 -12.543 6.294
v 48.841 -12.194 6.257
v 47.754 11.156 6.162
v 49.866 -12.473 6.372
v 67.689 -5.548 8.018
v 52.710 -12.821 6.648
v 47.695 8.214 6.193
v 58.327 -12.859 7.165
v 47.710 -7.465 6.196
v 47.971 12.227 6.225
v 47.619 -1.261 6.199
v 47.664 6.453 6.203
v 51.587 -12.668 6.574
v 48.776 12.745 6.335
v 66.163 -12.813 7.926
v 67.388 11.535 8.042
v 47.666 2.562 6.250
v 49.121 12.815 6.385
v 66.885 -12.664 8.013
v 54.314 -12.752 6.863
v 48.127 12.341 6.307
v 47.796 11.768 6.292
v 47.728 1.992 6.300
v 66.605 -12.787 8.031
v 47.751 9.090 6.314
v 67.113 -12.107 8.085
v 67.748 -0.014 8.144
v 47.878 2.155 6.339
v 54.107 12.645 6.913
v 67.667 -6.151 8.165
v 55.560 12.588 7.063
v 50.967 12.761 6.659
v 48.092 12.163 6.402
v 47.924 11.303 6.391
v 47.839 9.803 6.384
v 47.993 11.728 6.412
v 48.667 12.505 6.487
v 48.059 10.922 6.433
v 65.862 -12.809 8.070
v 58.823 -12.520 7.431
v 55.245 12.594 7.105
v 63.452 -12.784 7.861
v 66.298 -12.785 8.124
v 48.516 11.655 6.501
v 62.463 -12.735 7.806
v 67.726 0.690 8.289
v 67.532 -6.974 8.274
v 65.519 -12.758 8.092
v 49.294 12.758 6.614
v 63.140 -12.724 7.888
v 61.876 -12.686 7.775
v 65.028 -12.728 8.082
v 67.530 -6.511 8.326
v 66.665 -12.533 8.250
v 66.777 -12.158 8.284
v 67.579 8.430 8.365
v 54.141 12.592 7.145
v 66.922 -11.716 8.315
v 66.011 -12.630 8.237
v 67.487 -5.952 8.373
v 67.201 -10.276 8.352
v 66.473 -12.036 8.299
v 67.089 -9.717 8.376
v 55.027 12.499 7.275
v 67.119 -9.302 8.387
v 67.527 10.645 8.433
v 64.229 12.023 8.136
v 67.587 -2.023 8.445
v 67.614 -0.902 8.452
v 65.742 11.916 8.295
v 67.640 1.218 8.485
v 67.252 11.543 8.475
v 60.469 12.271 7.864
v 67.377 -3.763 8.511
v 67.579 -0.060 8.533
v 57.692 11.977 7.650
v 65.375 11.938 8.354
v 67.209 -4.005 8.537
v 67.461 11.101 8.588
v 67.460 0.729 8.594
v 66.962 11.700 8.555
v 62.210 5.821 8.129
v 62.271 6.184 8.142
v 60.743 12.038 8.010
v 66.774 11.732 8.587
v 65.804 3.439 8.524
v 65.741 11.826 8.527
v 67.040 11.598 8.655
v 65.288 11.823 8.499
v 67.365 10.504 8.699
v 67.422 9.393 8.724
v 67.156 11.327 8.717
v 67.296 9.956 8.734
v 66.449 11.650 8.661
v 67.374 8.585 8.752
v 65.910 11.443 8.620
v 66.822 11.465 8.707
v 66.437 11.406 8.680
v 67.193 8.512 8.765
v 66.981 10.431 8.766
f 172 145 190
f 333 250 352
f 333 352 336
f 174 146 262
f 284 262 332
f 367 332 262
f 367 262 336
f 83 105 104
f 67 80 76
f 73 37 67
f 73 67 76
f 338 257 324
f 401 399 406
f 371 369 367
f 8 37 73
f 8 73 72
f 66 207 107
f 53 71 145
f 372 385 352
f 221 250 333
f 224 262 146
f 108 146 174
f 353 359 367
f 353 367 336
f 353 336 359
f 366 380 367
f 366 367 359
f 366 359 381
f 366 381 380
f 364 332 367
f 364 367 369
f 364 369 368
f 304 293 295
f 242 246 219
f 161 173 212
f 13 1 8
f 13 8 72
f 13 72 83
f 13 83 55
f 13 55 26
f 90 83 104
f 125 142 127
f 97 72 73
f 97 73 105
f 97 105 83
f 97 83 72
f 194 206 159
f 196 233 234
f 89 76 80
f 160 159 206
f 275 149 212
f 275 212 300
f 404 400 390
f 398 406 399
f 355 338 324
f 251 257 338
f 251 338 212
f 377 336 352
f 377 352 385
f 374 381 359
f 374 359 336
f 386 381 401
f 386 380 381
f 396 385 398
f 396 398 399
f 292 295 293
f 252 262 284
f 252 284 263
f 392 304 319
f 392 319 346
f 357 392 346
f 357 346 319
f 302 282 289
f 302 289 306
f 302 306 312
f 302 312 319
f 302 319 307
f 240 107 207
f 240 207 289
f 240 289 282
f 240 282 265
f 16 103 15
f 12 7 15
f 4 15 7
f 4 1 16
f 4 16 15
f 3 8 1
f 65 66 31
f 62 31 66
f 62 66 107
f 62 107 240
f 62 240 220
f 144 163 156
f 144 156 103
f 179 156 163
f 170 145 172
f 170 172 190
f 180 49 50
f 180 207 66
f 180 66 65
f 180 65 49
f 29 49 65
f 29 65 31
f 24 49 29
f 24 31 10
f 87 71 82
f 87 82 140
f 87 140 175
f 87 175 145
f 87 145 71
f 85 53 145
f 85 145 170
f 85 170 93
f 30 50 49
f 30 49 24
f 256 250 221
f 256 352 250
f 271 336 262
f 271 262 224
f 271 224 333
f 361 360 332
f 361 332 364
f 361 364 368
f 361 368 360
f 308 319 304
f 308 304 295
f 308 295 292
f 308 292 307
f 169 219 246
f 283 278 309
f 268 278 283
f 268 283 259
f 305 257 258
f 305 258 320
f 305 320 355
f 305 355 324
f 305 324 257
f 130 131 173
f 130 173 161
f 63 83 90
f 111 116 90
f 111 90 104
f 101 105 73
f 133 142 125
f 151 126 132
f 151 132 127
f 151 127 142
f 151 157 194
f 151 194 159
f 43 67 37
f 51 67 43
f 51 43 48
f 51 48 60
f 51 60 67
f 216 206 194
f 216 234 253
f 216 253 221
f 216 221 206
f 270 385 253
f 270 378 385
f 185 233 152
f 185 152 149
f 155 152 165
f 148 149 152
f 197 152 233
f 197 233 196
f 197 196 165
f 197 165 152
f 187 165 196
f 187 196 194
f 187 194 157
f 387 234 233
f 376 233 185
f 376 185 149
f 376 387 233
f 95 89 80
f 402 406 404
f 402 404 390
f 402 390 406
f 343 339 355
f 343 355 320
f 334 389 406
f 238 251 212
f 238 212 210
f 397 401 381
f 397 381 377
f 397 377 385
f 397 385 396
f 397 396 399
f 397 399 401
f 375 336 377
f 375 377 381
f 375 381 374
f 375 374 336
f 299 307 292
f 299 292 277
f 299 277 286
f 285 292 293
f 195 192 175
f 195 174 262
f 195 262 252
f 195 252 263
f 195 263 192
f 281 263 284
f 281 321 214
f 199 207 180
f 199 321 207
f 203 192 263
f 203 263 281
f 203 281 214
f 203 214 190
f 291 314 289
f 291 289 207
f 291 207 321
f 384 368 369
f 384 369 371
f 384 371 367
f 384 367 380
f 384 380 386
f 384 386 401
f 388 304 392
f 388 406 389
f 351 357 312
f 365 354 349
f 365 349 360
f 365 360 368
f 365 368 384
f 365 384 392
f 365 392 357
f 326 312 357
f 326 357 319
f 326 319 312
f 298 306 289
f 298 289 314
f 288 286 277
f 288 307 299
f 288 299 286
f 345 306 298
f 345 314 291
f 345 291 321
f 345 349 354
f 153 150 103
f 153 103 156
f 18 103 12
f 18 12 15
f 18 15 103
f 2 1 4
f 2 4 7
f 2 7 3
f 2 3 1
f 215 62 220
f 215 220 240
f 215 240 265
f 215 229 213
f 27 31 163
f 27 163 144
f 27 144 103
f 183 156 179
f 183 179 213
f 134 50 93
f 134 93 170
f 134 170 168
f 134 168 50
f 189 199 168
f 189 168 170
f 189 170 190
f 178 168 199
f 178 199 180
f 178 180 50
f 178 50 168
f 17 1 13
f 17 13 26
f 17 26 30
f 17 30 24
f 17 24 10
f 58 55 82
f 58 82 71
f 100 140 82
f 100 82 55
f 100 55 108
f 100 108 174
f 100 174 195
f 100 195 175
f 100 175 140
f 70 85 93
f 70 93 50
f 70 50 30
f 70 30 53
f 70 53 85
f 303 385 372
f 303 256 253
f 303 253 385
f 241 253 256
f 241 256 221
f 136 224 146
f 211 221 333
f 211 333 224
f 211 224 136
f 211 206 221
f 311 336 271
f 311 271 333
f 311 333 336
f 79 55 77
f 79 77 108
f 92 108 77
f 92 136 146
f 92 146 108
f 310 319 308
f 310 308 307
f 310 307 319
f 226 228 210
f 226 210 222
f 243 210 228
f 32 200 219
f 32 219 169
f 20 7 12
f 20 12 103
f 20 103 150
f 235 102 246
f 235 246 244
f 235 244 243
f 235 243 228
f 344 341 334
f 274 266 246
f 280 266 274
f 254 246 266
f 254 266 278
f 254 278 268
f 254 268 244
f 254 244 246
f 260 258 259
f 255 251 238
f 255 238 245
f 255 245 258
f 255 258 257
f 255 257 251
f 328 283 309
f 328 331 341
f 328 341 340
f 249 244 268
f 249 268 259
f 249 259 258
f 249 258 245
f 249 245 243
f 249 243 244
f 120 60 181
f 120 181 121
f 40 61 193
f 40 193 181
f 40 181 60
f 40 60 48
f 40 48 43
f 40 43 37
f 40 37 38
f 164 131 121
f 164 121 181
f 164 191 173
f 164 173 131
f 94 161 212
f 94 212 149
f 94 95 80
f 94 80 98
f 94 130 161
f 91 80 67
f 91 67 60
f 91 98 80
f 109 121 131
f 109 131 98
f 109 98 91
f 109 91 60
f 109 60 120
f 109 120 121
f 110 130 94
f 110 94 98
f 110 98 131
f 110 131 130
f 84 90 116
f 119 125 127
f 119 111 104
f 119 104 105
f 129 137 147
f 129 147 135
f 129 92 77
f 86 76 89
f 86 89 113
f 86 101 73
f 86 73 76
f 114 101 86
f 114 125 119
f 141 126 151
f 141 151 159
f 141 159 160
f 141 147 137
f 141 137 129
f 141 129 126
f 208 196 234
f 208 234 216
f 208 216 194
f 208 194 196
f 154 142 155
f 154 155 165
f 154 165 187
f 154 187 157
f 154 157 151
f 154 151 142
f 394 398 385
f 394 385 378
f 394 378 387
f 322 387 378
f 322 378 270
f 322 270 253
f 247 149 275
f 379 275 300
f 99 148 113
f 99 113 89
f 99 89 95
f 99 95 94
f 99 94 149
f 99 149 148
f 171 135 147
f 171 206 167
f 382 355 334
f 382 334 406
f 382 406 390
f 382 390 355
f 279 285 293
f 264 292 285
f 264 236 239
f 264 239 277
f 264 277 292
f 325 281 284
f 325 284 332
f 325 332 360
f 218 321 199
f 218 199 214
f 218 214 321
f 188 175 192
f 188 192 203
f 188 203 190
f 188 190 145
f 188 145 175
f 405 406 388
f 405 388 392
f 405 392 384
f 405 384 401
f 405 401 406
f 358 345 354
f 358 354 365
f 296 307 288
f 296 288 302
f 296 302 307
f 232 239 236
f 232 213 229
f 232 229 277
f 232 277 239
f 21 8 3
f 21 37 8
f 44 61 40
f 44 40 38
f 198 179 163
f 198 163 184
f 198 215 213
f 198 213 179
f 269 265 282
f 269 282 302
f 269 302 288
f 269 288 277
f 269 277 229
f 269 229 215
f 269 215 265
f 19 1 10
f 19 10 27
f 19 27 16
f 19 16 1
f 25 16 27
f 25 27 103
f 25 103 16
f 23 31 27
f 23 27 10
f 23 10 31
f 209 199 189
f 209 189 190
f 209 190 214
f 209 214 199
f 6 1 17
f 6 17 10
f 6 10 1
f 57 58 71
f 57 71 53
f 54 55 58
f 362 352 256
f 362 256 303
f 362 303 372
f 362 372 352
f 186 167 206
f 186 206 211
f 186 211 136
f 186 136 167
f 88 55 79
f 88 79 108
f 88 108 55
f 139 136 92
f 139 92 129
f 139 129 135
f 139 135 171
f 139 171 167
f 139 167 136
f 230 238 210
f 230 210 243
f 230 243 245
f 230 245 238
f 182 200 32
f 237 246 102
f 237 102 32
f 237 32 169
f 237 169 246
f 11 7 20
f 9 11 20
f 112 96 235
f 112 235 228
f 112 228 226
f 112 226 222
f 112 222 210
f 112 210 78
f 315 297 304
f 315 304 388
f 315 388 389
f 315 389 334
f 294 304 297
f 294 297 287
f 294 293 304
f 317 287 297
f 318 278 266
f 318 266 280
f 318 280 287
f 318 287 317
f 318 317 323
f 318 323 331
f 318 331 328
f 342 339 328
f 342 328 340
f 342 340 341
f 342 341 344
f 342 355 339
f 276 246 242
f 276 242 267
f 276 294 287
f 276 287 280
f 276 280 274
f 276 274 246
f 327 258 260
f 327 339 343
f 327 343 320
f 327 320 258
f 204 212 173
f 204 173 191
f 204 191 164
f 204 164 181
f 204 181 193
f 204 210 212
f 202 193 61
f 202 61 75
f 202 75 78
f 202 78 210
f 64 84 77
f 124 127 132
f 124 132 126
f 115 84 116
f 115 116 126
f 115 126 129
f 115 129 77
f 115 77 84
f 117 114 86
f 117 86 113
f 106 105 101
f 106 101 114
f 106 114 119
f 106 119 105
f 138 113 148
f 138 148 152
f 128 142 133
f 128 114 117
f 128 117 113
f 128 113 138
f 128 138 152
f 162 147 141
f 162 141 160
f 162 160 206
f 403 398 394
f 403 394 400
f 403 400 404
f 403 404 406
f 403 406 398
f 248 387 322
f 248 322 253
f 248 253 234
f 248 234 387
f 363 379 347
f 363 347 338
f 363 338 355
f 335 338 347
f 335 300 212
f 335 212 338
f 373 376 149
f 373 149 247
f 373 247 275
f 373 275 379
f 337 347 379
f 337 379 300
f 337 300 335
f 337 335 347
f 395 390 400
f 395 379 390
f 330 349 345
f 330 345 321
f 330 321 281
f 330 281 325
f 330 325 360
f 330 360 349
f 356 357 351
f 356 358 365
f 356 365 357
f 348 345 358
f 348 358 356
f 348 356 351
f 348 351 312
f 348 312 306
f 348 306 345
f 261 236 264
f 261 279 276
f 261 276 267
f 225 219 200
f 225 200 182
f 225 182 217
f 225 236 261
f 225 261 267
f 225 267 242
f 225 242 219
f 231 236 225
f 35 38 37
f 35 37 21
f 47 62 215
f 47 215 198
f 47 198 184
f 47 184 163
f 47 163 31
f 47 31 62
f 39 30 26
f 39 26 55
f 39 55 54
f 39 54 58
f 39 58 57
f 39 57 53
f 39 53 30
f 176 217 182
f 36 176 182
f 22 41 9
f 22 9 20
f 14 21 3
f 14 3 9
f 5 7 11
f 5 11 9
f 5 9 3
f 5 3 7
f 68 96 112
f 68 112 78
f 69 235 96
f 69 41 22
f 69 32 102
f 69 102 235
f 329 341 331
f 329 331 323
f 329 323 317
f 329 317 297
f 329 297 315
f 329 315 334
f 329 334 341
f 313 309 278
f 313 278 318
f 313 318 328
f 313 328 309
f 350 355 342
f 350 342 344
f 350 344 334
f 350 334 355
f 290 294 276
f 290 276 279
f 290 279 293
f 290 293 294
f 316 328 339
f 316 339 327
f 316 327 260
f 205 193 202
f 205 202 210
f 205 210 204
f 59 90 84
f 59 84 64
f 59 64 77
f 59 77 55
f 59 55 83
f 59 83 63
f 118 116 111
f 118 124 126
f 118 126 116
f 123 114 128
f 123 128 133
f 123 133 125
f 123 125 114
f 143 142 128
f 143 128 152
f 143 152 155
f 143 155 142
f 177 171 147
f 177 147 162
f 177 162 206
f 177 206 171
f 370 390 379
f 370 379 363
f 370 363 355
f 370 355 390
f 393 379 395
f 393 395 400
f 272 279 261
f 272 261 264
f 272 264 285
f 272 285 279
f 34 21 14
f 34 14 9
f 34 9 41
f 34 35 21
f 158 150 153
f 158 176 36
f 158 36 20
f 158 20 150
f 33 22 20
f 33 20 36
f 33 36 182
f 33 182 32
f 46 68 78
f 46 78 75
f 46 75 61
f 46 61 44
f 74 96 68
f 301 328 316
f 301 283 328
f 201 193 205
f 201 205 204
f 201 204 193
f 122 119 127
f 122 127 124
f 122 124 118
f 122 118 111
f 122 111 119
f 383 376 373
f 383 373 379
f 383 379 393
f 391 387 376
f 391 376 383
f 391 383 393
f 391 393 400
f 391 400 394
f 391 394 387
f 166 156 183
f 166 183 213
f 166 176 158
f 166 158 153
f 166 153 156
f 28 22 33
f 28 33 32
f 28 32 69
f 28 69 22
f 45 41 52
f 45 34 41
f 42 34 45
f 42 45 52
f 42 52 68
f 42 68 46
f 42 46 44
f 42 44 38
f 42 38 35
f 42 35 34
f 56 69 74
f 56 74 68
f 56 68 52
f 56 52 41
f 56 41 69
f 81 96 74
f 81 74 69
f 81 69 96
f 273 260 259
f 273 259 283
f 273 283 301
f 273 301 316
f 273 316 260
f 227 213 232
f 227 232 236
f 227 236 231
f 227 166 213
f 223 176 166
f 223 166 227
f 223 227 231
f 223 231 225
f 223 225 217
f 223 217 176
f 29 31 24
f 90 59 63
f 253 241 221
f 314 345 298
