# OBJ
# COMPAS
# version: 2.1.0
# precision: 3
# V F E: 297 590 885

o Mesh 0
v 81.067 7.006 15.957
v 80.994 7.034 15.697
v 81.013 3.041 15.899
v 81.058 3.635 16.154
v 80.993 7.297 15.851
v 81.046 2.984 16.144
v 80.989 7.276 16.080
v 81.022 2.623 16.317
v 81.022 2.910 16.415
v 80.955 6.963 16.205
v 80.967 2.748 16.529
v 80.928 1.844 16.402
v 80.475 2.019 14.047
v 80.346 2.134 13.411
v 80.925 3.332 16.559
v 80.890 1.745 16.562
v 80.234 2.270 13.095
v 80.835 7.261 16.320
v 80.176 2.993 13.074
v 80.178 1.930 13.094
v 80.093 2.847 12.908
v 80.574 8.253 15.537
v 80.068 2.165 12.898
v 80.773 1.064 16.730
v 80.262 8.318 14.018
v 80.551 8.419 15.869
v 80.598 8.177 16.181
v 80.068 7.628 13.549
v 80.634 7.378 16.577
v 80.188 8.758 14.301
v 80.657 0.727 16.860
v 79.887 2.297 12.840
v 79.884 3.094 12.844
v 79.883 2.070 12.869
v 79.870 2.818 12.835
v 80.042 8.500 13.769
v 80.612 1.173 16.913
v 80.416 8.609 16.162
v 80.555 1.867 16.909
v 79.846 7.626 13.224
v 80.412 8.318 16.516
v 80.244 8.925 15.754
v 79.699 2.377 12.857
v 79.672 2.981 12.824
v 80.392 7.693 16.713
v 80.057 9.041 15.018
v 79.645 6.722 12.958
v 79.862 9.148 14.212
v 79.515 7.478 13.026
v 80.112 9.067 16.275
v 79.518 8.454 13.352
v 80.128 8.366 16.723
v 79.540 9.148 13.745
v 79.403 7.689 13.022
v 79.364 2.800 12.871
v 79.617 9.468 14.616
v 79.711 9.495 15.496
v 79.864 9.352 16.642
v 79.644 9.630 16.202
v 79.790 -0.972 17.297
v 79.184 9.812 14.139
v 79.249 9.884 14.860
v 78.807 9.211 13.205
v 79.422 9.800 16.561
v 79.344 9.786 16.909
v 78.598 9.166 13.129
v 78.599 9.421 13.159
v 78.689 10.283 14.297
v 78.980 10.088 16.780
v 78.353 10.453 13.576
v 78.967 9.864 17.055
v 78.255 10.277 13.327
v 78.208 9.191 13.116
v 78.219 10.590 13.961
v 77.969 10.431 13.270
v 78.602 -10.213 16.842
v 77.918 10.145 13.226
v 78.640 10.092 17.114
v 78.340 -10.863 15.967
v 77.798 9.071 13.171
v 77.834 10.737 13.667
v 78.184 -10.775 15.555
v 78.591 -10.272 17.727
v 78.502 -10.562 17.300
v 78.544 -10.477 17.635
v 78.382 -10.829 16.818
v 77.944 10.680 14.511
v 78.150 -11.001 15.630
v 78.173 -11.021 15.836
v 77.884 -9.802 14.301
v 78.528 -10.029 17.840
v 77.835 -9.596 14.160
v 78.380 -10.854 17.068
v 78.056 -10.998 15.467
v 77.630 10.527 13.305
v 78.424 -10.664 17.636
v 77.826 -10.249 14.516
v 78.141 -10.988 16.262
v 77.850 -10.732 15.042
v 77.971 -11.032 15.708
v 77.764 -10.445 14.730
v 77.628 -9.429 14.035
v 78.346 -10.469 17.942
v 77.621 -9.594 14.082
v 78.313 -10.722 17.785
v 77.680 -10.194 14.491
v 78.112 10.443 16.827
v 77.435 10.739 13.499
v 78.120 -10.734 17.845
v 77.414 -9.559 14.090
v 77.998 10.328 17.258
v 78.077 -10.467 18.034
v 77.756 -10.951 16.462
v 78.002 -10.615 18.016
v 77.350 -10.351 14.650
v 77.204 -9.313 14.092
v 77.157 10.907 13.989
v 77.172 -10.183 14.587
v 77.563 10.488 17.336
v 76.722 9.549 13.362
v 76.616 10.949 13.713
v 77.039 10.809 17.000
v 77.110 10.580 17.446
v 76.435 -9.351 14.292
v 76.214 10.865 13.648
v 76.290 10.972 14.157
v 76.720 10.718 17.516
v 75.953 -9.351 14.431
v 75.910 -9.469 14.501
v 75.706 10.978 13.765
v 76.218 10.969 16.703
v 75.686 -9.222 14.459
v 75.446 10.750 13.730
v 76.101 10.885 17.275
v 75.288 10.979 13.849
v 75.012 10.444 18.094
v 73.399 11.026 15.011
v 73.190 2.796 13.933
v 73.252 10.957 14.408
v 72.825 3.160 14.035
v 73.619 10.686 18.351
v 72.773 10.985 14.654
v 73.171 10.794 18.280
v 72.325 3.326 14.179
v 72.914 10.865 17.651
v 72.354 11.032 14.950
v 72.523 10.780 18.383
v 71.971 11.019 15.924
v 71.669 11.030 15.171
v 71.787 -9.809 16.509
v 71.668 -9.667 16.433
v 71.769 10.228 18.927
v 70.918 -7.800 15.373
v 71.400 10.763 18.219
v 71.362 10.623 18.828
v 71.375 10.372 18.980
v 70.586 10.830 15.063
v 70.683 10.931 15.707
v 70.534 -7.758 15.457
v 71.321 -10.206 19.657
v 70.773 10.888 16.776
v 70.525 -7.927 15.478
v 71.133 10.577 18.949
v 70.718 -10.019 17.333
v 71.113 -10.278 19.460
v 70.246 10.709 15.058
v 70.315 -7.962 15.565
v 70.580 -10.169 17.825
v 70.943 -10.150 19.791
v 70.786 10.453 19.068
v 70.294 -9.110 16.555
v 70.074 10.873 15.389
v 70.580 -10.293 18.143
v 70.252 -8.951 16.404
v 70.073 -8.065 15.742
v 70.765 -10.215 19.664
v 70.465 -10.299 18.687
v 69.784 10.421 15.127
v 69.770 10.300 15.118
v 69.919 10.818 16.356
v 69.817 -8.038 15.833
v 69.682 10.615 15.285
v 70.332 10.554 18.773
v 70.261 -10.251 18.636
v 70.080 10.698 17.751
v 70.331 10.151 19.266
v 69.593 10.752 15.693
v 69.511 10.342 15.278
v 70.152 -10.216 18.864
v 69.323 8.908 15.146
v 69.358 10.500 15.538
v 70.016 9.985 19.370
v 69.250 10.217 15.404
v 69.214 9.715 15.300
v 69.928 10.271 19.148
v 69.177 9.018 15.198
v 69.746 10.456 18.621
v 69.285 10.549 16.176
v 69.879 9.765 19.441
v 69.112 10.095 15.494
v 69.758 10.028 19.363
v 69.504 10.512 18.066
v 69.344 10.575 17.266
v 69.694 9.848 19.459
v 68.899 9.383 15.415
v 69.474 10.154 19.042
v 69.225 10.363 17.965
v 68.970 10.334 16.798
v 69.016 10.376 17.320
v 69.498 -9.968 20.025
v 69.230 -9.957 19.763
v 69.089 -9.888 20.019
v 68.944 -9.830 20.179
v 68.372 -9.684 20.356
v 68.207 -9.571 20.510
v 68.056 -9.484 20.577
v 67.995 -9.575 20.433
v 67.969 -3.777 20.407
v 67.501 -7.741 20.663
v 67.323 6.589 20.129
v 67.373 -9.280 20.628
v 67.386 -9.125 20.703
v 67.357 -8.162 20.711
v 67.317 -8.904 20.731
v 66.871 6.999 18.877
v 66.292 3.710 15.947
v 67.010 6.733 19.968
v 66.876 6.942 19.255
v 67.141 -9.136 20.701
v 66.919 6.895 19.612
v 67.012 -8.776 20.787
v 66.932 -9.259 20.545
v 66.723 6.599 19.748
v 66.870 -8.958 20.755
v 66.795 -8.706 20.789
v 66.713 5.425 20.360
v 66.646 -9.158 20.220
v 66.713 -9.080 20.650
v 66.674 -8.887 20.735
v 66.604 -9.224 20.454
v 66.630 -5.021 20.792
v 66.477 -8.961 20.561
v 66.427 -9.072 20.307
v 65.063 3.787 16.438
v 63.688 2.123 16.870
v 63.125 1.605 17.223
v 62.735 -6.145 18.207
v 62.775 -6.226 18.446
v 62.609 0.917 18.113
v 62.603 -5.991 18.333
v 62.447 0.686 17.813
v 62.973 -0.698 21.545
v 62.170 -4.615 17.525
v 62.421 -5.544 18.898
v 62.140 -4.430 17.438
v 62.913 -1.028 21.595
v 62.241 -5.414 18.773
v 62.737 -0.858 21.565
v 62.746 -1.439 21.642
v 62.719 -0.614 21.496
v 61.945 -4.507 17.651
v 62.554 -1.122 21.597
v 62.452 -3.077 21.221
v 62.502 -1.621 21.666
v 61.642 -3.493 17.293
v 62.377 -1.467 21.636
v 62.315 -1.772 21.620
v 62.236 -1.272 21.484
v 62.156 -2.741 21.159
v 62.185 -2.298 21.396
v 62.090 -1.956 21.452
v 62.015 -1.810 21.422
v 61.259 -3.316 17.434
v 61.221 -3.089 17.389
v 61.865 -1.667 21.308
v 61.827 -1.508 21.241
v 61.565 -1.229 19.932
v 61.043 -2.940 17.463
v 61.736 -1.649 21.182
v 61.712 -1.905 21.120
v 61.620 -1.631 20.859
v 61.586 -1.925 20.963
v 61.508 -1.886 20.769
v 61.442 -2.083 20.628
v 61.111 -2.249 19.848
v 60.696 -2.000 17.907
v 60.664 -2.958 17.739
v 60.743 -1.971 18.245
v 60.945 -2.534 19.406
v 60.598 -2.646 17.721
v 60.553 -2.861 18.224
v 60.523 -2.290 18.063
v 60.479 -2.757 17.896
v 60.471 -2.543 17.906
v 60.550 -2.462 18.351
v 60.527 -2.728 18.439
v 60.431 -2.633 18.153
f 289 257 269
f 254 269 257
f 296 257 289
f 272 271 267
f 263 269 254
f 233 249 277
f 14 1 3
f 113 109 165
f 37 60 103
f 224 259 231
f 224 231 216
f 224 216 259
f 92 102 23
f 104 102 92
f 291 257 296
f 291 296 297
f 283 282 279
f 284 289 269
f 284 269 282
f 284 296 289
f 280 271 272
f 280 279 282
f 280 282 269
f 288 277 249
f 208 249 209
f 270 271 280
f 270 280 269
f 270 269 263
f 270 267 271
f 239 267 270
f 239 270 263
f 228 249 233
f 228 233 209
f 281 283 279
f 266 272 267
f 276 260 233
f 276 233 277
f 276 277 281
f 276 281 279
f 12 3 6
f 12 83 76
f 20 90 92
f 20 92 23
f 2 1 14
f 4 6 3
f 4 3 1
f 248 247 240
f 248 240 254
f 248 254 257
f 237 173 240
f 261 253 247
f 261 247 287
f 184 173 177
f 184 240 173
f 98 109 113
f 136 199 60
f 256 259 216
f 31 11 37
f 39 60 37
f 15 29 37
f 15 37 11
f 15 11 10
f 15 10 29
f 45 60 39
f 45 39 37
f 45 37 29
f 222 216 231
f 114 169 109
f 160 109 169
f 176 165 109
f 176 109 160
f 176 160 169
f 176 169 210
f 176 210 177
f 176 177 165
f 213 210 214
f 217 240 214
f 215 169 216
f 215 217 214
f 215 214 210
f 215 210 169
f 40 36 25
f 40 25 28
f 17 14 20
f 17 20 23
f 17 25 2
f 17 2 14
f 151 115 150
f 151 150 174
f 151 174 115
f 100 89 98
f 100 98 113
f 100 113 165
f 100 165 177
f 100 177 173
f 94 89 100
f 94 100 173
f 106 115 104
f 97 94 99
f 97 115 106
f 97 106 104
f 97 104 92
f 97 92 90
f 285 296 284
f 285 284 282
f 285 282 283
f 285 283 297
f 285 297 296
f 286 288 249
f 198 191 208
f 198 208 209
f 234 267 239
f 234 222 231
f 242 239 263
f 242 263 254
f 242 254 240
f 225 249 228
f 225 228 209
f 225 209 249
f 292 288 286
f 292 281 277
f 292 277 288
f 264 259 256
f 264 266 267
f 264 267 234
f 264 231 259
f 268 260 276
f 268 276 266
f 268 266 260
f 275 272 266
f 275 266 276
f 275 276 279
f 275 279 280
f 275 280 272
f 8 12 6
f 79 12 76
f 79 90 20
f 79 20 14
f 7 10 1
f 9 1 10
f 9 10 11
f 9 8 6
f 9 6 4
f 9 4 1
f 250 247 248
f 250 248 257
f 250 257 291
f 243 247 237
f 243 237 240
f 243 240 247
f 211 214 240
f 211 240 184
f 211 177 210
f 93 109 98
f 93 98 89
f 93 89 79
f 262 266 264
f 262 264 256
f 262 260 266
f 230 209 233
f 91 103 83
f 91 83 31
f 91 31 37
f 91 37 103
f 24 11 31
f 24 31 83
f 24 83 12
f 71 136 60
f 71 60 45
f 112 216 169
f 112 169 114
f 112 114 103
f 112 103 60
f 112 60 216
f 44 73 47
f 21 40 28
f 21 17 23
f 21 47 40
f 164 99 94
f 164 94 173
f 164 237 247
f 164 150 115
f 164 115 99
f 101 115 97
f 101 97 99
f 101 99 115
f 196 190 226
f 196 226 274
f 196 274 278
f 140 138 274
f 265 274 138
f 251 286 249
f 251 249 208
f 290 278 287
f 290 286 245
f 290 245 278
f 182 193 191
f 194 193 178
f 194 178 196
f 206 230 233
f 152 199 136
f 232 240 217
f 232 217 215
f 232 215 216
f 232 216 221
f 238 239 242
f 238 242 240
f 238 240 232
f 238 234 239
f 295 281 292
f 295 292 297
f 295 297 283
f 295 283 281
f 235 231 264
f 235 264 234
f 235 234 231
f 13 12 79
f 13 79 14
f 13 14 3
f 13 3 12
f 82 90 79
f 88 94 97
f 88 97 90
f 88 90 82
f 88 82 79
f 88 79 89
f 88 89 94
f 18 10 7
f 18 7 29
f 18 29 10
f 41 29 7
f 41 58 45
f 41 45 29
f 5 7 1
f 5 1 2
f 5 2 25
f 212 213 214
f 212 214 211
f 212 211 210
f 212 210 213
f 189 177 211
f 189 211 184
f 189 184 177
f 105 109 93
f 105 93 96
f 105 103 114
f 105 114 109
f 85 76 83
f 85 83 103
f 85 103 105
f 85 105 96
f 85 96 93
f 122 87 117
f 227 260 220
f 227 206 233
f 227 233 260
f 219 216 60
f 219 60 241
f 219 241 256
f 218 199 256
f 218 256 241
f 218 241 60
f 218 60 199
f 252 256 236
f 252 236 220
f 16 8 9
f 16 9 11
f 16 11 24
f 16 24 12
f 16 12 8
f 65 71 45
f 54 47 73
f 54 67 40
f 51 36 40
f 34 23 102
f 19 25 17
f 19 17 21
f 19 21 28
f 19 28 25
f 35 21 23
f 168 237 164
f 168 164 173
f 168 173 237
f 171 174 150
f 171 150 164
f 171 164 247
f 171 247 174
f 244 245 194
f 244 194 196
f 244 196 278
f 244 278 245
f 144 226 190
f 144 190 140
f 144 140 274
f 144 274 226
f 273 287 278
f 273 278 274
f 273 274 265
f 273 253 261
f 273 261 287
f 159 162 265
f 159 265 138
f 159 138 153
f 159 153 162
f 255 253 273
f 255 273 265
f 110 102 104
f 110 104 115
f 110 115 118
f 246 193 245
f 246 245 286
f 246 286 251
f 246 251 208
f 246 208 191
f 293 287 247
f 293 247 250
f 293 250 291
f 293 291 297
f 293 290 287
f 188 193 182
f 188 182 178
f 188 178 193
f 187 198 209
f 187 182 191
f 187 191 198
f 205 193 194
f 205 194 245
f 205 245 193
f 156 152 136
f 229 221 216
f 229 216 222
f 229 222 234
f 229 234 238
f 229 238 232
f 229 232 221
f 26 7 5
f 53 70 48
f 53 48 36
f 74 87 69
f 81 108 121
f 81 121 117
f 81 117 87
f 81 87 74
f 81 74 70
f 81 70 75
f 81 75 108
f 84 79 76
f 84 76 85
f 84 85 93
f 131 122 117
f 204 227 220
f 204 220 236
f 204 236 256
f 204 256 199
f 223 216 219
f 223 219 256
f 223 256 216
f 258 262 256
f 258 256 252
f 258 252 220
f 258 220 260
f 258 260 262
f 107 69 87
f 107 87 122
f 52 58 65
f 52 65 45
f 52 45 58
f 49 47 54
f 49 54 40
f 49 40 47
f 66 67 54
f 66 54 73
f 66 73 67
f 63 51 40
f 63 40 67
f 166 133 178
f 166 178 182
f 77 75 67
f 77 67 73
f 120 138 140
f 120 140 190
f 120 190 133
f 120 77 73
f 95 75 77
f 95 77 120
f 95 120 133
f 95 108 75
f 179 178 133
f 179 133 190
f 179 190 196
f 179 196 178
f 116 138 55
f 116 55 102
f 116 102 110
f 116 162 153
f 116 153 138
f 43 55 44
f 43 102 55
f 33 47 21
f 33 21 35
f 33 35 44
f 33 44 47
f 32 34 102
f 32 102 43
f 32 43 44
f 32 44 35
f 32 35 23
f 32 23 34
f 181 247 253
f 181 253 255
f 181 175 174
f 181 174 247
f 124 162 116
f 124 116 110
f 124 132 162
f 129 110 118
f 129 118 115
f 129 115 174
f 129 174 175
f 200 193 246
f 200 246 191
f 200 191 193
f 294 292 286
f 294 286 290
f 294 290 293
f 294 293 297
f 294 297 292
f 203 180 187
f 203 187 209
f 38 58 41
f 72 67 75
f 72 75 70
f 72 70 53
f 72 53 36
f 72 36 51
f 72 51 63
f 72 63 67
f 30 5 25
f 30 25 36
f 30 36 48
f 86 79 84
f 86 84 93
f 86 93 79
f 141 163 156
f 141 156 136
f 141 136 127
f 145 131 148
f 145 148 147
f 134 127 122
f 134 122 131
f 155 163 147
f 201 195 206
f 201 206 227
f 201 227 204
f 186 152 156
f 80 55 138
f 80 138 120
f 80 120 73
f 80 73 44
f 80 44 55
f 125 108 95
f 126 131 117
f 126 117 121
f 137 131 126
f 137 146 148
f 137 148 131
f 158 180 161
f 158 161 148
f 167 255 265
f 167 265 162
f 167 162 129
f 167 129 175
f 167 175 181
f 167 181 255
f 128 124 110
f 128 110 129
f 128 129 162
f 128 162 132
f 128 132 124
f 183 195 163
f 183 163 155
f 207 209 230
f 207 230 206
f 27 7 26
f 27 26 38
f 27 38 41
f 27 41 7
f 42 38 26
f 42 26 30
f 68 74 69
f 68 62 70
f 68 70 74
f 61 70 62
f 61 62 48
f 61 48 70
f 56 48 62
f 56 62 57
f 56 57 48
f 22 5 30
f 22 30 26
f 22 26 5
f 78 69 111
f 78 111 136
f 78 136 71
f 78 71 65
f 78 65 69
f 123 136 111
f 123 127 136
f 119 107 122
f 119 122 127
f 119 127 123
f 119 123 111
f 119 111 69
f 119 69 107
f 143 147 163
f 143 163 141
f 143 141 127
f 143 127 134
f 143 134 131
f 143 131 145
f 143 145 147
f 192 204 199
f 192 199 152
f 192 152 186
f 192 186 201
f 192 201 204
f 170 163 195
f 170 195 201
f 170 201 186
f 170 186 156
f 170 156 163
f 135 133 166
f 135 142 146
f 130 108 125
f 130 125 95
f 130 95 133
f 130 133 135
f 130 135 146
f 130 146 137
f 130 137 126
f 130 126 121
f 130 121 108
f 149 146 142
f 149 142 157
f 149 158 148
f 149 148 146
f 154 147 148
f 154 148 161
f 154 183 155
f 154 155 147
f 197 206 195
f 197 195 183
f 50 38 42
f 50 58 38
f 46 48 57
f 46 57 42
f 46 42 30
f 46 30 48
f 64 68 69
f 64 69 65
f 64 65 58
f 139 157 142
f 139 142 135
f 139 135 166
f 139 166 157
f 172 187 180
f 172 180 158
f 172 158 149
f 172 149 157
f 172 157 166
f 172 166 182
f 172 182 187
f 185 183 154
f 185 154 161
f 185 161 180
f 185 180 203
f 59 68 64
f 59 64 58
f 59 58 50
f 59 50 42
f 59 42 57
f 59 57 62
f 59 62 68
f 202 197 183
f 202 183 185
f 202 185 203
f 202 203 209
f 202 209 207
f 202 207 206
f 202 206 197
