# OBJ
# COMPAS
# version: 2.1.0
# precision: 3
# V F E: 341 678 1017

o Mesh 0
v 98.026 -12.901 19.807
v 93.349 -13.287 19.836
v 93.153 -13.260 19.843
v 93.648 -13.344 19.843
v 98.130 -12.807 19.828
v 92.983 -13.107 19.849
v 98.311 -12.927 19.840
v 93.208 -13.417 19.865
v 93.371 -13.464 19.877
v 98.351 -12.602 19.875
v 98.197 -13.400 19.883
v 98.378 -13.234 19.885
v 98.403 -13.544 19.940
v 98.416 -12.295 19.969
v 88.111 -10.905 20.024
v 98.351 -13.755 20.019
v 87.847 -10.881 20.067
v 87.420 -10.651 20.079
v 87.450 -10.383 20.081
v 98.481 -12.484 20.049
v 98.491 -13.328 20.059
v 98.500 -12.937 20.091
v 87.555 -10.900 20.140
v 98.495 -13.680 20.208
v 98.263 -7.000 20.425
v 84.743 -5.854 20.514
v 95.275 -14.620 20.495
v 95.660 -14.647 20.512
v 98.500 -6.999 20.549
v 95.642 -14.748 20.610
v 83.980 -5.396 20.664
v 95.343 -14.770 20.646
v 83.420 -4.166 20.694
v 95.881 -14.805 20.688
v 89.293 -13.410 20.716
v 96.389 -14.792 20.753
v 92.299 -14.487 20.792
v 92.897 -14.583 20.796
v 96.100 -14.854 20.808
v 82.633 -2.792 20.883
v 82.546 -2.389 20.883
v 96.344 -14.888 20.969
v 82.375 -2.261 21.033
v 85.840 -11.618 21.063
v 91.023 -14.503 21.058
v 97.446 -14.969 21.115
v 97.618 -14.932 21.115
v 98.590 -2.089 21.199
v 98.525 -0.475 21.202
v 88.251 -14.212 21.292
v 98.057 -15.013 21.326
v 88.132 -14.309 21.405
v 80.984 3.625 21.459
v 98.303 -14.972 21.504
v 98.495 -14.622 21.507
v 87.964 -14.324 21.574
v 85.950 -13.689 21.601
v 79.975 5.828 21.680
v 85.717 -13.609 21.705
v 98.186 -15.092 21.696
v 98.461 -14.975 21.726
v 79.744 6.128 21.796
v 98.607 2.834 21.731
v 85.861 -13.843 21.779
v 79.609 6.471 21.856
v 79.370 7.926 21.892
v 79.578 6.259 21.929
v 85.712 -13.771 21.909
v 98.398 -15.064 21.883
v 98.625 3.650 21.903
v 79.191 8.438 21.995
v 79.303 7.477 22.003
v 79.385 6.988 22.014
v 79.724 9.731 22.069
v 85.845 -13.937 22.053
v 79.474 10.101 22.107
v 85.741 -13.720 22.091
v 78.898 9.927 22.121
v 79.536 6.059 22.126
v 79.625 5.733 22.127
v 78.992 10.430 22.144
v 79.318 6.988 22.153
v 79.355 6.785 22.164
v 86.598 -14.266 22.154
v 98.507 -14.930 22.116
v 80.542 10.987 22.196
v 78.792 9.738 22.214
v 79.447 6.126 22.279
v 78.776 10.635 22.291
v 78.734 10.400 22.326
v 78.891 11.757 22.346
v 86.487 -14.256 22.339
v 79.055 12.878 22.431
v 98.559 10.596 22.394
v 79.351 13.508 22.483
v 79.067 13.280 22.485
v 78.821 12.688 22.509
v 98.492 -15.040 22.450
v 78.861 13.094 22.568
v 98.371 12.471 22.512
v 78.809 12.880 22.586
v 98.612 11.223 22.533
v 86.499 -14.265 22.578
v 98.510 12.488 22.543
v 81.246 14.554 22.623
v 78.847 8.400 22.646
v 80.682 14.378 22.645
v 82.324 14.940 22.647
v 79.092 13.577 22.660
v 81.725 14.819 22.658
v 87.557 14.739 22.656
v 97.580 13.489 22.628
v 80.032 14.214 22.724
v 78.838 13.396 22.731
v 98.459 -15.125 22.662
v 94.133 14.278 22.682
v 80.910 14.670 22.746
v 98.329 -15.168 22.684
v 78.732 13.056 22.771
v 78.759 9.701 22.801
v 82.733 15.059 22.794
v 94.156 14.706 22.755
v 81.890 14.937 22.809
v 88.505 15.013 22.786
v 90.060 14.957 22.782
v 96.911 14.517 22.761
v 98.049 14.224 22.761
v 98.381 14.104 22.770
v 97.832 14.419 22.786
v 86.543 -14.278 22.841
v 94.804 14.838 22.815
v 79.241 6.072 22.877
v 81.326 14.855 22.880
v 98.650 11.686 22.842
v 98.330 14.432 22.848
v 98.018 14.604 22.854
v 78.780 13.465 22.926
v 89.251 15.209 22.929
v 98.596 13.974 22.910
v 78.699 13.139 23.000
v 98.627 13.763 22.943
v 78.936 13.764 23.027
v 98.577 14.360 22.963
v 96.633 14.889 22.983
v 97.581 14.836 22.990
v 79.466 14.230 23.117
v 80.295 14.638 23.152
v 97.931 14.866 23.119
v 98.300 14.778 23.131
v 86.800 -14.366 23.185
v 90.084 15.215 23.201
v 78.667 13.052 23.286
v 79.157 5.773 23.373
v 98.633 14.530 23.308
v 80.853 14.878 23.440
v 93.590 15.130 23.394
v 98.405 -15.198 23.382
v 78.977 14.159 23.515
v 98.745 3.512 23.444
v 81.949 15.036 23.506
v 78.764 13.891 23.519
v 98.421 14.841 23.553
v 98.539 -15.030 23.562
v 79.080 6.129 23.697
v 79.123 5.844 23.701
v 79.381 14.498 23.703
v 88.549 15.240 23.710
v 97.475 15.001 23.702
v 86.349 -13.522 23.794
v 98.544 -14.824 23.764
v 86.442 -13.703 23.810
v 78.731 10.710 23.853
v 98.738 7.341 23.800
v 98.559 -14.310 23.844
v 98.458 -15.189 23.851
v 78.757 14.080 23.976
v 98.762 3.697 23.916
v 98.397 14.887 23.919
v 78.930 14.340 24.005
v 98.529 -14.968 23.938
v 98.541 -14.655 23.940
v 86.541 -13.675 24.004
v 98.743 0.882 24.005
v 92.017 15.162 24.041
v 98.492 -15.160 24.084
v 98.303 -15.238 24.100
v 98.541 14.805 24.131
v 79.196 5.273 24.227
v 83.595 15.135 24.258
v 98.497 -15.035 24.230
v 86.841 -13.494 24.325
v 98.575 14.689 24.292
v 98.434 -15.211 24.329
v 79.823 14.846 24.404
v 98.355 14.930 24.354
v 98.224 -15.240 24.369
v 98.444 -15.036 24.424
v 78.762 14.323 24.533
v 79.199 5.561 24.598
v 98.296 -15.185 24.619
v 98.742 0.923 24.663
v 85.901 15.225 24.758
v 98.710 11.228 24.830
v 98.070 -15.223 24.869
v 98.518 14.865 24.885
v 97.816 14.994 24.913
v 78.995 14.798 25.083
v 98.713 11.003 25.017
v 98.031 -15.033 25.038
v 87.712 -13.096 25.158
v 97.930 -15.085 25.146
v 97.849 -15.192 25.157
v 96.779 -15.187 25.212
v 98.352 14.837 25.345
v 97.237 -15.167 25.354
v 78.728 11.172 25.423
v 78.665 14.031 25.456
v 98.669 11.805 25.389
v 98.760 6.303 25.391
v 78.759 14.404 25.492
v 96.889 -15.167 25.446
v 78.807 14.584 25.606
v 91.958 -14.876 25.661
v 89.726 -14.641 25.716
v 98.393 14.669 25.689
v 89.544 -14.513 25.730
v 90.535 -14.752 25.753
v 92.278 -14.841 25.753
v 90.075 -14.675 25.794
v 91.979 -14.751 25.830
v 96.029 -14.975 25.837
v 89.647 -14.448 25.869
v 96.423 -14.939 25.881
v 94.034 -14.673 25.893
v 96.341 -14.620 25.918
v 97.688 14.889 25.928
v 98.315 14.647 25.944
v 96.305 -13.688 26.026
v 97.244 -12.674 26.084
v 97.033 -12.536 26.141
v 98.707 9.482 26.240
v 98.701 0.724 26.323
v 98.263 14.511 26.343
v 84.854 -5.904 26.461
v 85.305 -6.652 26.462
v 98.744 6.423 26.610
v 97.590 14.794 26.644
v 85.207 -5.835 26.699
v 78.712 12.711 26.741
v 84.644 -4.902 26.747
v 87.989 15.164 26.806
v 84.690 -4.303 26.903
v 78.817 14.588 26.949
v 98.582 11.878 27.026
v 98.131 13.913 27.054
v 98.538 11.657 27.163
v 78.775 14.475 27.344
v 78.727 12.860 27.375
v 98.576 -0.358 27.354
v 78.713 14.031 27.439
v 82.489 0.869 27.467
v 98.440 -0.279 27.438
v 98.685 1.505 27.442
v 98.722 6.509 27.577
v 98.614 1.356 27.597
v 98.685 2.981 27.600
v 78.823 9.907 27.697
v 79.626 6.257 27.699
v 78.784 10.682 27.741
v 78.796 10.258 27.746
v 78.818 14.545 27.802
v 79.796 5.983 27.888
v 80.548 15.082 27.890
v 98.636 3.839 27.836
v 79.059 14.718 27.912
v 79.631 14.909 27.944
v 78.842 9.966 27.990
v 79.803 6.347 28.020
v 98.682 6.523 27.988
v 98.666 5.715 27.990
v 78.790 10.862 28.081
v 79.986 7.377 28.140
v 98.600 5.886 28.102
v 78.994 9.781 28.178
v 98.451 5.436 28.113
v 98.592 6.965 28.144
v 96.573 14.776 28.172
v 78.782 12.110 28.241
v 78.794 14.381 28.248
v 79.041 10.072 28.257
v 98.581 6.611 28.189
v 98.501 7.117 28.207
v 97.061 6.214 28.220
v 78.880 11.143 28.303
v 98.477 6.837 28.248
v 79.250 9.782 28.344
v 78.802 12.628 28.408
v 98.086 7.464 28.347
v 98.126 7.704 28.373
v 78.842 14.521 28.445
v 88.145 15.087 28.412
v 79.162 14.714 28.486
v 96.918 14.594 28.434
v 78.806 14.183 28.515
v 79.785 14.843 28.517
v 78.800 13.691 28.532
v 80.744 14.931 28.533
v 79.066 12.361 28.594
v 97.193 14.060 28.575
v 97.026 14.447 28.586
v 96.349 14.687 28.641
v 97.131 13.819 28.650
v 78.990 14.388 28.717
v 90.809 15.068 28.678
v 78.945 14.160 28.748
v 96.735 14.503 28.695
v 93.750 14.902 28.735
v 96.962 14.285 28.726
v 92.479 14.969 28.743
v 79.341 14.541 28.791
v 96.927 13.974 28.762
v 79.289 14.188 28.832
v 86.651 15.055 28.806
v 79.849 14.559 28.840
v 96.855 13.131 28.782
v 96.517 12.219 28.794
v 96.669 14.383 28.806
v 96.606 12.775 28.814
v 91.458 14.998 28.840
v 80.444 14.506 28.882
v 94.456 14.747 28.842
v 93.200 14.834 28.870
v 82.810 14.815 28.917
v 85.420 14.984 28.922
v 91.990 14.854 28.938
v 95.568 14.098 28.926
v 83.337 14.766 28.987
v 94.902 14.501 28.959
v 93.203 14.475 28.980
v 92.034 14.447 28.986
v 94.905 14.210 28.992
f 234 232 233
f 239 211 259
f 239 240 233
f 272 77 169
f 272 169 182
f 248 245 232
f 210 232 245
f 284 272 278
f 262 240 239
f 262 239 259
f 262 259 265
f 328 341 326
f 293 261 232
f 293 232 234
f 108 110 123
f 108 111 86
f 108 86 95
f 97 90 119
f 140 119 90
f 152 216 217
f 152 140 90
f 338 341 327
f 317 287 206
f 317 206 314
f 184 314 206
f 137 119 140
f 137 140 161
f 16 9 11
f 16 11 13
f 171 150 182
f 171 182 169
f 171 169 77
f 171 77 75
f 224 182 150
f 118 223 150
f 230 233 232
f 25 1 86
f 25 86 111
f 25 111 100
f 7 11 1
f 159 177 183
f 263 265 259
f 263 259 197
f 263 197 190
f 201 183 177
f 209 259 211
f 231 223 221
f 231 221 233
f 231 233 230
f 231 228 223
f 244 272 182
f 244 182 245
f 252 278 248
f 252 248 232
f 252 232 261
f 252 261 278
f 250 272 244
f 250 244 245
f 250 245 248
f 250 248 278
f 250 278 272
f 191 182 232
f 191 232 210
f 191 210 245
f 191 245 182
f 282 278 261
f 296 284 278
f 249 260 217
f 249 217 216
f 257 217 260
f 313 300 315
f 313 315 320
f 322 308 296
f 322 296 278
f 322 278 282
f 322 320 315
f 322 315 308
f 336 341 328
f 336 328 327
f 336 327 341
f 238 233 240
f 238 293 234
f 299 328 326
f 299 326 341
f 53 1 26
f 53 26 58
f 105 110 108
f 105 108 95
f 172 216 152
f 172 152 90
f 81 95 86
f 339 341 338
f 339 338 335
f 241 264 208
f 241 254 264
f 219 201 177
f 256 254 309
f 256 309 286
f 256 286 254
f 311 287 317
f 311 338 327
f 331 338 311
f 331 311 317
f 331 335 338
f 329 334 335
f 318 309 310
f 144 138 148
f 131 138 144
f 131 136 126
f 116 111 126
f 116 100 111
f 303 310 243
f 303 287 311
f 236 287 214
f 236 206 287
f 333 334 307
f 323 334 329
f 323 329 314
f 323 273 307
f 323 307 334
f 305 333 307
f 305 307 273
f 50 57 35
f 23 35 57
f 23 57 18
f 68 188 153
f 68 153 59
f 68 75 77
f 15 1 6
f 15 26 1
f 3 15 6
f 34 28 16
f 130 150 171
f 130 171 75
f 227 223 228
f 227 228 231
f 227 231 230
f 227 224 150
f 227 150 223
f 226 182 224
f 226 224 232
f 226 232 182
f 60 118 150
f 5 10 7
f 5 7 1
f 5 1 25
f 5 25 10
f 70 134 159
f 70 159 48
f 70 102 134
f 173 177 159
f 173 159 134
f 173 134 154
f 173 219 177
f 104 10 25
f 104 25 100
f 49 102 48
f 22 48 159
f 22 159 183
f 22 20 48
f 12 13 11
f 12 11 7
f 12 7 10
f 174 183 201
f 279 264 254
f 279 254 286
f 290 284 296
f 290 296 308
f 268 188 68
f 268 68 77
f 268 77 272
f 304 260 306
f 304 306 315
f 304 315 300
f 288 306 260
f 288 260 281
f 294 284 290
f 294 290 308
f 294 308 315
f 258 260 249
f 258 249 281
f 258 281 260
f 235 233 238
f 235 238 234
f 235 234 233
f 298 238 240
f 298 299 293
f 298 293 238
f 285 240 262
f 285 262 265
f 285 295 299
f 285 299 298
f 285 298 240
f 44 18 57
f 44 57 59
f 43 59 153
f 33 58 26
f 33 44 59
f 164 106 153
f 120 216 172
f 120 172 90
f 120 90 106
f 109 113 95
f 109 95 96
f 107 110 95
f 121 108 123
f 121 138 108
f 89 90 97
f 74 86 1
f 74 1 53
f 74 53 58
f 340 341 339
f 141 154 134
f 141 134 102
f 187 154 162
f 218 208 154
f 218 254 241
f 218 241 208
f 149 148 162
f 149 162 154
f 149 136 148
f 246 264 263
f 246 263 201
f 246 201 219
f 246 219 208
f 246 208 264
f 316 310 303
f 316 303 311
f 316 311 327
f 316 327 318
f 316 318 310
f 319 314 329
f 319 329 317
f 319 317 314
f 332 331 317
f 332 317 329
f 332 329 335
f 332 335 331
f 325 328 299
f 325 327 328
f 145 136 131
f 145 131 144
f 145 144 148
f 145 148 136
f 156 138 151
f 156 151 184
f 156 184 206
f 156 206 168
f 156 168 148
f 156 148 138
f 124 108 138
f 125 108 124
f 125 124 138
f 125 138 131
f 125 131 111
f 125 111 108
f 122 111 131
f 122 131 126
f 122 126 111
f 129 136 127
f 129 127 126
f 129 126 136
f 112 126 127
f 112 127 100
f 112 100 116
f 112 116 126
f 255 310 309
f 255 309 254
f 255 254 243
f 255 243 310
f 205 154 187
f 205 206 236
f 205 236 214
f 247 287 303
f 247 303 214
f 247 214 287
f 301 251 273
f 301 273 323
f 301 323 314
f 301 314 251
f 220 217 257
f 220 257 222
f 99 96 97
f 93 97 96
f 93 96 95
f 93 95 81
f 8 9 37
f 8 37 50
f 8 50 35
f 8 15 3
f 64 75 68
f 64 68 59
f 64 59 57
f 19 26 15
f 19 15 18
f 19 18 33
f 19 33 26
f 2 8 3
f 2 3 6
f 2 6 1
f 38 45 37
f 36 46 34
f 36 34 16
f 36 16 46
f 47 46 16
f 103 92 150
f 103 150 130
f 103 130 75
f 103 75 92
f 229 230 232
f 229 232 224
f 229 224 227
f 229 227 230
f 32 45 38
f 212 221 204
f 212 204 211
f 212 211 239
f 212 239 233
f 213 204 221
f 213 221 223
f 193 190 197
f 98 163 115
f 98 115 61
f 69 61 115
f 69 115 118
f 69 118 60
f 63 102 70
f 63 70 48
f 203 208 219
f 203 219 173
f 203 173 154
f 203 154 208
f 128 127 136
f 128 104 100
f 128 100 127
f 29 10 49
f 29 49 48
f 29 48 20
f 94 102 49
f 94 49 104
f 94 104 102
f 24 183 174
f 24 174 163
f 24 61 16
f 24 16 13
f 24 22 183
f 170 163 174
f 181 174 263
f 181 263 190
f 242 263 174
f 242 174 201
f 242 201 263
f 266 263 264
f 266 264 279
f 280 265 263
f 280 263 266
f 280 266 279
f 199 188 268
f 289 260 304
f 289 304 300
f 289 300 257
f 289 257 260
f 297 306 288
f 297 288 281
f 297 281 294
f 297 294 315
f 297 315 306
f 324 320 322
f 324 322 330
f 324 333 305
f 324 305 320
f 337 293 299
f 337 299 341
f 337 341 340
f 337 340 339
f 337 339 335
f 337 335 334
f 337 334 333
f 337 333 324
f 337 324 330
f 337 330 322
f 337 322 282
f 337 282 261
f 337 261 293
f 292 286 309
f 283 285 265
f 41 58 33
f 40 59 43
f 40 41 33
f 40 33 59
f 31 44 33
f 31 33 18
f 31 18 44
f 87 90 89
f 87 106 90
f 67 40 43
f 165 188 164
f 165 164 153
f 165 153 188
f 267 106 164
f 267 164 188
f 142 137 161
f 202 273 251
f 91 89 97
f 91 97 93
f 91 93 81
f 76 81 86
f 76 86 74
f 76 74 58
f 139 141 102
f 139 102 104
f 321 318 327
f 321 327 325
f 321 325 299
f 321 299 295
f 321 295 318
f 237 205 214
f 237 214 303
f 237 303 243
f 192 154 205
f 192 205 254
f 192 254 218
f 192 218 154
f 178 162 148
f 178 148 168
f 178 205 187
f 178 187 162
f 253 275 207
f 253 207 222
f 253 222 257
f 160 194 207
f 160 207 273
f 160 273 121
f 198 222 207
f 198 217 220
f 198 220 222
f 117 110 107
f 117 107 95
f 117 95 113
f 155 194 160
f 155 160 121
f 155 121 123
f 155 147 207
f 155 207 194
f 101 119 99
f 101 99 97
f 101 97 119
f 17 23 18
f 17 18 15
f 17 15 8
f 17 8 35
f 17 35 23
f 52 50 37
f 52 37 45
f 52 64 57
f 52 57 50
f 4 11 9
f 4 9 8
f 4 8 2
f 4 2 1
f 4 1 11
f 56 60 150
f 56 52 45
f 27 37 9
f 27 9 16
f 27 16 28
f 27 32 38
f 27 38 37
f 54 16 61
f 54 61 69
f 54 69 60
f 51 16 54
f 51 54 60
f 51 60 46
f 51 46 47
f 51 47 16
f 39 46 60
f 39 45 32
f 39 32 34
f 39 34 46
f 30 34 32
f 30 32 27
f 30 27 28
f 30 28 34
f 215 221 212
f 215 212 233
f 215 233 221
f 200 204 193
f 200 193 197
f 200 197 259
f 200 259 209
f 200 209 211
f 200 211 204
f 135 128 136
f 135 136 149
f 14 10 29
f 14 29 20
f 14 20 12
f 14 12 10
f 85 98 61
f 85 24 163
f 85 163 98
f 21 22 24
f 21 24 13
f 21 13 12
f 21 12 20
f 21 20 22
f 180 170 174
f 180 174 181
f 180 181 190
f 180 163 170
f 312 318 295
f 312 295 292
f 312 292 309
f 312 309 318
f 291 286 292
f 291 292 295
f 291 295 285
f 291 285 283
f 291 283 280
f 291 280 279
f 291 279 286
f 274 280 283
f 274 283 265
f 66 81 76
f 66 76 58
f 78 81 66
f 78 66 87
f 78 87 89
f 78 89 91
f 78 91 81
f 277 199 268
f 277 268 272
f 277 272 284
f 277 284 294
f 277 294 281
f 277 267 188
f 277 188 199
f 270 216 120
f 270 120 106
f 270 106 267
f 270 267 277
f 270 277 281
f 114 137 142
f 114 142 109
f 114 109 96
f 114 96 99
f 114 99 119
f 114 119 137
f 158 142 161
f 167 121 202
f 167 202 251
f 167 251 314
f 167 314 184
f 167 184 151
f 167 151 138
f 167 138 121
f 189 273 202
f 189 202 121
f 189 121 273
f 225 205 237
f 225 237 243
f 225 243 254
f 225 254 205
f 195 206 205
f 195 205 178
f 195 178 168
f 195 168 206
f 276 273 207
f 276 207 275
f 276 305 273
f 271 275 253
f 271 253 257
f 271 257 300
f 271 300 275
f 133 117 147
f 133 147 155
f 133 155 123
f 133 123 110
f 133 110 117
f 84 92 75
f 84 75 64
f 84 64 52
f 84 52 56
f 84 56 150
f 84 150 92
f 42 45 39
f 42 39 60
f 42 60 56
f 42 56 45
f 196 193 204
f 196 204 213
f 185 163 180
f 185 180 190
f 185 190 193
f 185 193 175
f 185 175 115
f 185 115 163
f 143 154 141
f 143 141 139
f 143 139 104
f 143 104 128
f 143 128 135
f 143 135 149
f 143 149 154
f 55 24 85
f 55 85 61
f 55 61 24
f 65 67 72
f 65 72 66
f 132 106 88
f 132 88 43
f 132 43 153
f 132 153 106
f 80 43 88
f 80 67 43
f 82 106 87
f 71 66 72
f 71 72 87
f 71 87 66
f 269 249 216
f 269 216 270
f 269 270 281
f 269 281 249
f 166 207 147
f 146 113 109
f 146 109 142
f 146 142 158
f 146 158 166
f 146 166 147
f 146 147 117
f 146 117 113
f 176 161 140
f 176 140 152
f 176 152 217
f 176 217 198
f 302 305 276
f 302 276 275
f 302 275 300
f 302 300 313
f 302 313 320
f 302 320 305
f 186 213 223
f 186 223 118
f 186 193 196
f 186 196 213
f 62 58 41
f 62 41 40
f 62 40 67
f 62 67 65
f 62 65 66
f 62 66 58
f 79 67 80
f 79 80 88
f 79 88 67
f 73 72 67
f 73 67 82
f 73 82 87
f 73 87 72
f 83 106 82
f 83 82 67
f 83 67 88
f 83 88 106
f 179 207 166
f 179 166 158
f 179 158 161
f 179 161 176
f 179 176 198
f 179 198 207
f 157 175 193
f 157 193 186
f 157 186 118
f 157 118 115
f 157 115 175
f 49 10 104
f 102 63 48
f 110 105 95
f 280 274 265
