# Rhino

mtllib 19.06_sbe_l_03.mtl
usemtl diffuse_0_0_0_255
v 88.188754109275209 31.16046679607539 15.441487121582034
v 87.972515987941321 30.970091782564115 15.428807067871096
v 87.977663873623996 31.435647556373333 15.416612243652347
v 88.131374560742088 31.54744533928698 15.38968658447266
v 91.696156352174512 30.525810238783247 15.306504821777347
v 91.789448123244668 30.312710519472876 15.275244140625002
v 81.204911593724006 28.243823157099957 15.246383666992191
v 81.118507180464974 28.461670662838813 15.242512512207034
v 87.714465326800948 31.694355912919828 15.229270935058597
v 80.740927412999909 28.014393264296992 15.223143005371096
v 83.420563561271322 31.682630104471137 15.217106628417971
v 80.679249269149807 27.770706163138641 15.21006011962891
v 87.96898825773134 31.729467557526899 15.162393188476566
v 83.31139034107575 31.769468132345459 15.161042785644534
v 80.350480052545834 27.708702848839078 15.158708190917972
v 83.568408345937215 31.796233557759514 15.158206176757815
v 80.37342136408185 27.482961587529516 15.124212646484377
v 79.945538379139037 28.177513490573652 15.103280639648441
v 87.236060556025123 31.768496797043198 15.099249267578127
v 95.373940085293185 30.939864772305281 15.087681579589846
v 79.944360076370344 28.659450130484423 15.084579467773441
v 84.281649283445688 27.606531205031644 15.08196716308594
v 95.393124471954849 30.802843674081824 15.081727600097659
v 81.45480095728594 27.456596726820464 15.071084594726566
v 95.592447937572587 30.870573850411411 15.068855285644535
v 80.59819584427926 30.995643833900665 15.064082336425784
v 84.653937087379916 27.564463533352814 15.048208618164065
v 86.401954656021047 27.698068638107213 15.044458007812503
v 87.694964134151064 31.779209268345195 15.043003845214846
v 95.571511674823952 31.070286342163673 15.040994262695316
v 80.041991827735899 27.736495548689476 15.03743591308594
v 79.800829948441901 28.465854357170418 15.032743835449221
v 88.168465018527655 31.770155731153015 15.029637145996096
v 84.221702111754354 27.496833464986466 15.020756530761721
v 79.991083334877658 30.85580982816991 15.008900451660159
v 79.902036265560582 30.573629616627464 14.996685791015627
v 80.216157690009993 31.415269595855669 14.991084289550784
v 80.586301350710528 31.501653957736107 14.99094390869141
v 83.739828442072323 31.815550186247133 14.966343688964846
v 89.736876385133002 27.753338770934025 14.954338073730472
v 79.686980959494008 28.859592651514568 14.953416442871097
v 79.741804943760712 30.228294355225774 14.938691711425784
v 79.694736064485241 28.124722194706042 14.900447082519534
v 79.684918644614896 30.661558592203512 14.89371490478516
v 95.230179527966413 31.510518590291081 14.888116455078128
v 79.764096391677754 31.116415306775139 14.881971740722658
v 82.035899480746352 31.819338368907282 14.86136169433594
v 80.280979130153199 27.367909241063259 14.847169494628909
v 79.995569813017255 31.389990641900365 14.846687316894535
v 80.777922360534916 31.693763109302445 14.835932922363284
v 89.417492856934473 27.518681778599678 14.834306335449222
v 92.256862864349486 27.769994075138214 14.830714416503909
v 80.025821878789344 27.469220864333842 14.828845214843753
v 80.458123376677662 31.662501273035822 14.816162109375004
v 92.677832593324936 27.848396656535932 14.815466308593752
v 91.45809079320469 27.59847316548602 14.80926208496094
v 95.399734683808788 31.581372755429761 14.766929626464847
v 92.68939771859587 27.606390166186074 14.763929748535158
v 95.214326237076861 31.661003164955307 14.741883850097659
v 96.663576476803627 31.091514727458655 14.733142089843753
v 86.502430014573221 27.469883494151972 14.724346923828127
v 94.5979468913213 28.069300809002939 14.701794433593752
v 94.818803631378046 28.130616873140461 14.683952331542972
v 92.837835788304503 31.757005830254339 14.665263366699222
v 91.900326439595389 27.562560551030479 14.643273925781253
v 95.838961818131224 28.557526457764016 14.636143493652346
v 80.859248094515635 31.805320916601655 14.633819580078129
v 83.761130524247136 31.824752132645585 14.621897888183597
v 94.495861030504358 27.86423002002303 14.619990539550784
v 94.85271149341456 27.961525412387985 14.617984008789065
v 94.210410892223408 27.798231572573286 14.595903015136722
v 79.423196098219904 29.51916068082248 14.59311676025391
v 80.129100082257807 27.396852866060989 14.588648986816409
v 80.979281320468573 31.831862361389987 14.576509094238284
v 96.148341927283354 28.571181581732247 14.571997070312502
v 79.702122736884903 27.737645038655039 14.563552856445316
v 97.497795894238692 30.447953515633632 14.561871337890626
v 96.356917864561765 28.69050395707545 14.558377075195315
v 95.100080314160806 31.726895983506516 14.548048400878908
v 97.587724789315828 30.895375417895014 14.546528625488282
v 97.740830964565191 30.812386538391181 14.504692077636721
v 95.884659728130543 28.293044826673622 14.500917053222659
v 96.105043625976293 28.387934429731089 14.473713684082034
v 93.232933802444734 27.594745396380915 14.471350097656252
v 79.567247517474812 31.30230212861607 14.465176391601565
v 96.310011550057069 28.519609756358086 14.456526184082033
v 97.699592990148716 30.970016922853969 14.439880371093752
v 97.644787869561114 30.410112998085687 14.424488830566407
v 95.732765306600868 31.718085263348513 14.386477661132815
v 80.430127775825511 27.374666229297354 14.383975219726565
v 79.91691262097774 27.486890869421313 14.377288818359379
v 80.915068315882465 31.837874555639011 14.359922790527346
v 95.022336386806799 31.743003915018686 14.336218261718752
v 79.423385562335596 30.354051593357557 14.306863403320316
v 89.6383848474633 31.795197116466458 14.284698486328129
v 79.628511703475283 31.644176633259001 14.260588073730471
v 96.911049347556272 31.606899726237053 14.240263366699221
v 97.367462255116578 31.415992470827508 14.225387573242189
v 79.414041654242411 28.266527482146653 14.18143463134766
v 80.061233218920293 31.832885783657424 14.180325317382815
v 79.386831787300906 29.494630570105173 14.17447204589844
v 79.786699131230193 31.812800713758474 14.110459899902347
v 96.965820836120997 31.696502589970983 14.073980712890627
v 96.458933396236134 31.729267412220317 14.067619323730472
v 79.582767135005128 31.768811354818105 14.02746276855469
v 79.909319644433907 31.846748180902143 13.921247863769533
v 79.674670336120826 31.835799143147536 13.829154968261722
v 81.528486244242259 31.851665266970585 13.788786315917971
v 98.072990495425444 31.457300799367882 13.787712097167971
v 79.427268460432359 31.522161872457662 13.77157897949219
v 98.014486779563242 31.64073732104637 13.680285644531251
v 97.396398366010089 31.736822957998349 13.64070281982422
v 98.220394746538361 31.497188788025227 13.608209228515626
v 97.908058082248814 31.709062232949272 13.592782592773439
v 80.043024776264446 27.395222032868215 13.548811340332033
v 98.161684929463604 31.636844392639766 13.521516418457033
v 79.624370394123588 31.850349793532128 13.490313720703128
v 97.105358291083249 27.727139866921213 13.380824279785159
v 96.908736801322434 27.673033753729364 13.300755310058596
v 97.291251234351535 27.820410073860259 13.18900299072266
v 97.089521487112023 27.684856890616107 13.161605834960941
v 98.352412809018318 31.705382318937332 13.119715881347657
v 79.512008153875868 31.759531954427953 13.114143371582035
v 79.681817892806862 27.571195275740308 13.045579528808597
v 97.204934635185083 27.672599396669561 12.926956176757816
v 96.744626785966318 27.644837974713155 12.874514770507815
v 79.912679363963093 31.865831042817586 12.813674926757816
v 89.742662719704754 31.837306726788917 12.809414672851565
v 97.449912241798387 27.702438183434875 12.702667999267579
v 79.653816835488044 27.54602117697722 12.594120788574221
v 97.427685519440857 27.66660253084801 12.506856536865236
v 97.575585792159231 27.739241616446385 12.462921142578127
v 98.680231211323886 31.758965741583509 12.425778198242188
v 99.117694334844771 31.027730720744298 12.414086151123048
v 99.06772954217638 30.660246829052749 12.36680145263672
v 99.174760467390072 31.514252067226348 12.31242141723633
v 99.238914219737381 31.286107556265627 12.26279296875
v 99.224835829284885 31.031604364269015 12.2424072265625
v 99.26057330765444 31.639707532176271 12.141200256347657
v 99.100593438454382 31.741576156972098 12.139186859130861
v 99.337416170831929 31.500570438850986 12.094479370117188
v 99.254897694647667 30.927227170685704 12.062776184082033
v 99.383503047040932 31.239510594891065 11.980138397216798
v 99.358493365608979 31.723195047882889 11.874089050292969
v 99.465594080801893 31.535324521431466 11.815364074707032
v 79.713828872308085 27.478294330468628 11.750877380371097
v 99.476978775500669 31.647937086348517 11.590030670166017
v 99.329904298450316 31.750344991022114 11.515832519531251
v 99.497609978617049 31.389187210278973 11.50001678466797
v 79.774444257920322 27.458195863553222 11.285609436035159
v 99.327783880631202 31.767344565466296 11.213220977783203
v 79.539250189013671 27.549657277628029 10.815273284912113
v 79.081446433394106 30.564940738425811 9.7750091552734411
v 79.376044333531112 31.76101333532964 9.666968536376956
v 97.937805285288661 31.841965594091096 9.608418273925782
v 99.505285461640199 31.747829993256957 8.8299514770507823
v 99.540718929479141 31.594143817288835 8.3115661621093757
v 98.854708637770088 27.875930763616534 8.1900382995605483
v 99.550954740058103 31.141165501497074 8.0956481933593754
v 99.416165615149694 28.549187746462682 8.0786064147949226
v 99.334626362080613 28.28526152545329 7.951739501953127
v 82.530879680045203 31.959807249326882 7.9103004455566435
v 99.476098653415931 28.701742596602219 7.90109100341797
v 98.564158149558395 27.736864867583293 7.8422706604003922
v 99.458460141287688 28.53718563692544 7.8413894653320328
v 99.249484528538815 28.160350482086926 7.8061820983886738
v 99.543357146412234 31.679707838345713 7.595650482177736
v 99.565808821178948 30.375370464016331 7.2212364196777363
v 99.493875647042898 31.826365953123574 7.0334709167480485
v 99.3949925483371 31.870834385813058 6.9496192932128924
v 99.074795858603323 27.767783484462406 6.8632621765136737
v 99.559590552859746 28.688352680532883 6.5012138366699235
v 99.2628943973465 27.803092024273013 6.3630676269531268
v 99.412429991421661 27.933678219106309 6.3133922576904311
v 99.256367133756982 27.790596666290128 6.0599506378173844
v 99.433634022140211 27.822714877873782 5.5376087188720717
v 99.570666816855365 28.040495905828358 5.4766414642334
v 99.520431147403357 27.924189973434828 5.2104694366455098
v 99.495413093641758 27.883177946272362 5.0340209960937514
v 98.852237853126127 31.933894548000502 4.6793132781982436
v 79.317888156277178 31.913991463035202 4.5078956604003926
v 99.379719712261121 27.798225803273418 4.4570549011230485
v 79.86790735848092 27.507232815427521 3.6479316711425804
v 79.321704267249487 31.947571501366539 3.5206531524658224
v 99.504539269880382 27.895392744451723 2.2425653457641617
v 99.534579629054079 28.075607857501112 1.1025708198547377
v 79.397857160986149 27.712311096290065 0.99598951339721908
v 79.403202205056516 32.03155873491874 0.92562084197998273
v 79.239136744713704 31.94749519744056 0.61177120208740465
v 79.493761012781718 27.633095311140053 0.44079270362854223
v 99.528618596510455 28.014685158175354 0.33889076709747434
v 99.447901030507495 27.897824184847018 0.0017675276845705431
v 99.520555187220609 27.967639466446585 -0.20590665340423467
v 99.486360670653937 27.939730782016174 -0.72001094818115119
v 79.316057537504577 27.870280438523526 -0.90735940933227321
v 79.252723121845406 31.991421847550367 -1.2017870903015115
v 79.595330383019757 27.601715613551349 -1.3639628410339335
v 99.181811080378608 27.883602431644206 -1.5089007377624499
v 99.468143890855146 27.941131842654055 -1.620035171508788
v 99.322950497250801 27.905222172025134 -2.0738056182861317
v 99.475950401712751 28.077071013805273 -2.1381509780883778
v 78.976999700562004 31.723575899679929 -2.7604417800903303
v 99.253275233066688 27.915709961269943 -2.8885883331298818
v 79.317224683689233 27.903092575898881 -3.3756961822509748
v 79.475796477665284 32.120515717604214 -3.5335262298583965
v 87.808361401236823 32.158850328055401 -3.907152175903319
v 99.059955151140315 27.91621643686188 -3.9644737243652335
v 99.384974701827389 31.990679060811384 -4.6165760040283192
v 79.186075094807194 28.65006221305066 -4.91465492248535
v 99.235399017524031 32.079965284698083 -5.0247837066650378
v 79.383052194780092 27.838348763716009 -5.6003376007080057
v 98.93871543348601 27.939097421986894 -5.7541576385498034
v 99.414811026953487 28.414240782923123 -5.772614669799804
v 99.343147489935149 32.055969863056397 -5.8568698883056634
v 99.422871897382947 28.545702592861982 -6.0334278106689441
v 99.18423973052991 28.022586762997712 -6.04080352783203
v 99.230604423975265 28.087008911597692 -6.1491069793701163
v 99.196701520341648 32.095272188364582 -6.2804618835449206
v 99.212085683888418 28.075839808132649 -6.2923477172851552
v 99.279712892217404 28.198145868230746 -6.3523612976074206
v 99.109365751951472 27.995136000294089 -6.4818412780761712
v 99.087090814685283 32.103920615810509 -6.5059478759765614
v 99.232383586339026 28.157347618969805 -6.5207885742187495
v 99.43815699535817 28.959584579277912 -6.5757286071777337
v 99.161368176724991 32.103832055820135 -6.9674613952636708
v 99.377930799979282 31.914192893547014 -7.1565338134765613
v 99.434473707053854 29.535589610206721 -7.3107551574707026
v 99.343446387511406 32.067376540254017 -7.4270416259765613
v 99.15084583240575 32.08942349009601 -7.482860565185546
v 99.231020819145158 32.072751082312472 -7.6245353698730458
v 99.335095963670852 32.045569930951295 -7.6442176818847649
v 99.367821645745167 31.914006053128901 -7.656423950195312
v 99.371628092945755 31.784320293258304 -7.8692466735839837
v 79.589389687701726 27.731969509234645 -7.9162368774414045
v 85.697198965248219 32.23002932670078 -8.1101570129394513
v 99.387244668893857 31.286808220366201 -8.3638252258300785
v 98.354039885167566 32.143359169513815 -8.3793449401855469
v 99.359961574233694 31.447775027342164 -8.4036994934082028
v 99.041632918347148 31.929954651310567 -8.4582801818847653
v 99.173089427450961 31.757562791576646 -8.497293853759766
v 99.387508146061833 31.032494080805165 -8.5235298156738288
v 99.024180071380854 31.821633719703382 -8.6683464050292969
v 99.385395362527746 30.777023445311951 -8.6831291198730476
v 80.242591489968419 27.633400854069009 -8.7024490356445288
v 81.379359044899573 32.249704336831648 -8.7262168884277322
v 79.151239293223526 32.016478126888522 -8.7412467956542947
v 79.652416683291534 32.220283882568246 -8.7741516113281239
v 79.381702005137441 32.173500549369528 -8.8581779479980458
v 98.249714976328988 32.059046915084011 -8.9927703857421868
v 79.736853345760238 27.664189306674476 -9.0197181701660138
v 79.890061035368703 27.642652481815343 -9.1023399353027319
v 79.196820863955651 32.099118879749135 -9.1436935424804666
v 97.019851720251324 32.171857945738168 -9.1642524719238256
v 80.704592765065968 32.255365391155813 -9.4459205627441385
v 99.307519216825924 29.197298057233713 -9.5423294067382809
v 99.312691374507509 29.432723014129035 -9.5734611511230465
v 79.47737018236046 32.172583123645332 -9.6861885070800771
v 99.210557064948205 29.035347169603913 -9.7255371093750007
v 79.604474984596862 32.217065056071696 -9.7683692932128885
v 99.255869642061384 29.215178568594869 -9.8784645080566413
v 99.249660783300669 29.448407259100502 -9.8936790466308597
v 98.025106354026576 27.950446680779599 -9.9121971130371094
v 99.111534895302043 28.991937959748324 -9.945516204833984
v 98.436257899011082 28.169289468232883 -9.9730583190917965
v 98.274632155321783 28.017181340282701 -10.01493148803711
v 99.153674586429304 29.482637370268726 -10.015814971923829
v 99.108534493738901 29.347630829165812 -10.110403442382813
v 98.889153805586588 28.847166363933027 -10.112606811523438
v 79.130634328402579 31.320730956687168 -10.150564575195311
v 79.600081606024474 27.785968705274168 -10.153853607177734
v 99.036181058634384 29.108758069651397 -10.177849578857423
v 98.081119323756525 28.162920828847056 -10.479179382324219
v 97.930183328530518 28.023309936708781 -10.486615753173828
v 79.29618251451268 32.004745180656478 -10.582047271728515
v 96.568421482369232 27.900670750791896 -10.591275024414061
v 79.228868906870474 31.914955564522003 -10.730837249755858
v 79.160858344593123 31.447529449890705 -10.872024536132811
v 79.203103203323664 31.496375160133958 -11.402658843994139
v 79.195561607346804 31.186378091686802 -11.49683151245117
v 80.713139078946639 27.665737386415568 -11.57076187133789
v 83.691201007278963 32.283832920389692 -11.638653564453124
v 80.698983820822008 32.295389491451367 -12.167497253417967
v 79.309563654968628 31.160586693517132 -12.264913177490232
v 79.589614358244518 31.757220802010163 -12.544418334960936
v 84.194748511482715 32.295882316696535 -12.691921997070311
v 89.566322800427457 32.283032307402358 -12.765875244140624
v 80.489359183544082 32.279205181947923 -12.939064025878904
v 80.060015700061612 32.144996057976982 -13.047358703613281
v 80.244750983491898 32.234497137252539 -13.072473144531248
v 79.844511875838208 27.725315579280675 -13.101383972167968
v 79.615879016049604 31.536470207990334 -13.15605010986328
v 79.88614429807545 31.95104471253298 -13.185615539550779
v 79.634854012451171 27.955161172709055 -13.222349548339842
v 80.338772891829791 32.169938065184397 -13.30287628173828
v 80.080752835242734 32.091920636186366 -13.32143096923828
v 79.465841581314763 28.34015286850109 -13.483776855468749
v 79.924624685969562 31.687191264389519 -13.544065856933592
v 80.258040266051012 27.702057625857424 -13.55429992675781
v 80.193024495176402 31.99764385383709 -13.554408264160156
v 79.32647811667033 29.000762865204624 -13.606135559082031
v 82.105907141896736 32.294002793376315 -13.619100952148436
v 81.423228014541635 32.261038517300307 -13.69901428222656
v 80.014216608613481 27.760092535793216 -13.719047546386717
v 79.507621677791633 30.608574155228247 -13.734666442871092
v 79.756577950858087 31.241889927889037 -13.736582946777343
v 79.456089695308719 29.727852417356374 -13.794061279296873
v 81.574681217002905 32.244070850679051 -13.900683593749999
v 80.544315736333004 27.699186177839596 -13.953820800781248
v 79.70922826782062 28.107224146964615 -14.002861022949217
v 79.566968558676422 29.409501774455055 -14.13828430175781
v 79.570606717698638 28.630617837058587 -14.140661621093749
v 80.003466615237926 27.898541791105149 -14.151130676269529
v 80.568715946996008 27.717728613324212 -14.164538574218749
v 79.812595610150339 28.385516068842552 -14.257872009277342
v 79.835436672018886 30.70302362363384 -14.266088867187499
v 80.868323078090214 27.753248543032647 -14.279321289062498
v 79.99576656585964 28.10935879855133 -14.291508483886718
v 80.177975349757673 27.969309500656443 -14.308969116210935
v 79.738458643231198 29.89802233807287 -14.311845397949217
v 79.948084262603373 28.635567150194543 -14.329849243164061
v 80.103036730061248 28.370360607315583 -14.340048217773436
v 79.970019198747593 28.965462952707057 -14.349192810058593
v 93.257030513990628 32.260262321873505 -14.378048706054686
v 80.582135452217784 27.883603530104139 -14.382536315917967
v 80.037991514464466 30.39712690312971 -14.405661010742186
v 82.363777292829937 27.764985431468826 -14.45817413330078
v 81.534979383505487 27.900048784625859 -14.506480407714843
v 87.896400382715456 32.297753992913648 -14.526527404785154
v 93.096914985268739 32.26116212938264 -14.541252136230467
v 92.94306570485918 32.276360464282085 -14.58378448486328
v 93.212134011047752 32.220458903455572 -14.59848937988281
v 88.542644928762925 32.286095687460282 -14.611425781249999
v 82.070652724301652 32.079006154978501 -14.636781311035154
v 82.852859838943147 27.866381146243164 -14.646183776855468
v 93.254498498558675 27.958650921512493 -14.646862792968749
v 81.827817025562339 32.04445910880149 -14.657376098632811
v 88.197696328004085 32.277609405923378 -14.661033630371092
v 82.549917914966926 28.03464594369456 -14.666108703613279
v 93.378287561396007 27.979769241069221 -14.698893737792968
v 81.674398455451339 31.885006991619257 -14.774226379394531
v 82.015370084257768 31.952379882939336 -14.775265502929686
v 84.402008803569061 27.900067970580174 -14.805499267578124
v 92.677271759195847 27.93444277163557 -14.833007812499998
v 81.468871761936967 31.436812966558264 -14.842372131347656
v 93.265194436948576 28.025880816866213 -14.851895141601561
v 81.844252101333097 31.844080067449852 -14.855456542968749
v 92.901725360525148 32.194627987038011 -14.862408447265624
v 81.678402775981908 31.758768863736368 -14.86747131347656
v 81.766004712893931 31.548641353879468 -14.88144836425781
v 88.649419027312177 32.211201857707948 -14.894816589355468
v 92.96268436651107 28.014108008845334 -14.920623779296873
v 82.350158918292294 31.425601186189052 -14.920973205566405
v 88.911707449045622 32.190053357882803 -14.949829101562498
v 92.396405742357743 27.993119432470166 -15.019047546386718
v 92.974463285401498 31.790735978967739 -15.144808959960937
v 90.02192823526228 27.905846850272184 -15.146810913085936
v 92.256647076834042 28.0974525746465 -15.198858642578124
v 92.556037761000141 31.928296588044706 -15.20359191894531
v 89.069288032589355 31.999531936738677 -15.205162048339842
v 93.093897876206782 31.539732501330032 -15.209443664550779
v 93.243013957384306 31.320229893748444 -15.218635559082029
v 93.314161627103729 31.139347578747305 -15.23648986816406
v 92.754286125701014 31.74009209273688 -15.255152893066406
v 87.384672166884229 30.316372213723014 -15.259233093261717
v 92.938826113524513 31.593798435768111 -15.274737548828124
v 89.113501796361049 31.829369411240467 -15.276841735839842
v 92.604236962093964 31.773001256575672 -15.278041076660156
v 93.264466105969461 30.987378319816447 -15.287992858886717
v 89.372561627241836 31.76517780073112 -15.295460510253905
v 93.160205947159952 29.796917045936631 -15.308464050292967
v 93.169059742807207 31.258094730686249 -15.308912658691405
v 92.275331951360286 31.841070560664335 -15.317874145507812
v 93.196077794473396 31.14337855906663 -15.319555664062499
v 88.803861956297254 29.695907728455779 -15.337194824218749
v 91.664402665540308 28.130742608325246 -15.342529296874998
v 92.828514851227823 31.498626668388976 -15.345288085937499
v 89.1189001513102 29.320584461339763 -15.353002929687499
v 93.100539552451792 29.919335571308046 -15.364041137695311
v 92.202345682350483 28.247420540091671 -15.375050354003905
v 92.993727145480236 29.944453932164993 -15.376763916015623
v 92.663105529836216 31.456943708445817 -15.382647705078124
v 92.30951048421818 31.638381452763344 -15.389990234374999
v 90.509289737323655 28.127244340043458 -15.390936279296874
v 90.304344311580579 28.441885122128067 -15.403056335449218
v 90.988868753188783 28.511768490712591 -15.415621948242187
v 91.65301799396417 28.328360263633904 -15.418522644042968
v 91.944498568032188 28.479460586257396 -15.430950927734374
v 92.089823864922849 31.617944119064667 -15.432704162597656
v 92.540501382225813 31.249510952971576 -15.44148712158203
vn 0.0017251513199880719 0.021109117195010185 0.99977570772171021
vn 0.012014713138341904 -0.088429324328899384 0.99601000547409058
vn 0.0098991794511675835 0.1558297872543335 0.98773431777954102
vn 0.031399756669998169 0.4900067150592804 0.87115293741226196
vn 0.041678763926029205 -0.06948312371969223 0.9967120885848999
vn 0.048437871038913727 -0.14574186503887177 0.9881361722946167
vn -0.019899677485227585 -0.03872917965054512 0.99905157089233398
vn -0.066372841596603394 0.03245137631893158 0.99726706743240356
vn 0.026162924244999886 0.80527108907699585 0.59232926368713379
vn -0.10474269092082977 0.0010836160508915782 0.99449878931045532
vn -0.05858510360121727 0.2699851393699646 0.96108055114746094
vn -0.019757743924856186 -0.13400839269161224 0.9907832145690918
vn 0.02405172772705555 0.90760898590087891 0.419126957654953
vn -0.092997148633003235 0.68793857097625732 0.71978610754013062
vn -0.19020973145961761 -0.092208631336688995 0.97740364074707031
vn -0.011467986740171909 0.86211270093917847 0.50658673048019409
vn -0.18095323443412781 -0.50906705856323242 0.84149074554443359
vn -0.35416200757026672 -0.070767775177955627 0.9325026273727417
vn 0.015194466337561607 0.93875110149383545 0.34426087141036987
vn 0.07050776481628418 0.10041817277669907 0.99244385957717896
vn -0.25902655720710754 0.037437420338392258 0.96514439582824707
vn 0.0270034559071064 -0.35201722383499146 0.93560391664505005
vn 0.085617855191230774 -0.12009844183921814 0.98906314373016357
vn 0.014777431264519691 -0.8633846640586853 0.5043298602104187
vn 0.17917275428771973 -0.031657762825489044 0.98330813646316528
vn -0.088790290057659149 0.070335648953914642 0.99356389045715332
vn 0.029638264328241348 -0.486530601978302 0.87316066026687622
vn 0.028288541361689568 -0.20517444610595703 0.9783165454864502
vn 0.017049061134457588 0.97090572118759155 0.2388543039560318
vn 0.16702793538570404 0.29075580835342407 0.94210547208786011
vn -0.56761431694030762 -0.349140465259552 0.74559700489044189
vn -0.51569098234176636 -0.0073688244447112083 0.8567429780960083
vn 0.027570094913244247 0.945731520652771 0.32377731800079346
vn 0.027295831590890884 -0.6305854320526123 0.77563971281051636
vn -0.2268395721912384 0.070272132754325867 0.9713936448097229
vn -0.36679533123970032 0.045025508850812912 0.92921143770217896
vn -0.28233239054679871 0.45089802145957947 0.84674638509750366
vn -0.11792609840631485 0.56390434503555298 0.81737709045410156
vn 0.003957333043217659 0.99875056743621826 0.049816370010375977
vn 0.037540502846240997 -0.32258811593055725 0.94579470157623291
vn -0.72180145978927612 -0.014893916435539722 0.69193994998931885
vn -0.4265645444393158 0.035699404776096344 0.90375232696533203
vn -0.78055107593536377 -0.21994885802268982 0.58511751890182495
vn -0.61937570571899414 0.073696337640285492 0.78162813186645508
vn 0.17792427539825439 0.59089404344558716 0.78688448667526245
vn -0.59495526552200317 0.34195008873939514 0.72739148139953613
vn -0.059523493051528931 0.94234776496887207 0.32929879426956177
vn -0.078591153025627136 -0.99233531951904297 0.095362529158592224
vn -0.51424533128738403 0.58763742446899414 0.6246870756149292
vn -0.10550530999898911 0.83425444364547729 0.54119139909744263
vn 0.024794325232505798 -0.93681949377059937 0.34893336892127991
vn 0.059392668306827545 -0.19804041087627411 0.9783928394317627
vn -0.59036749601364136 -0.70954108238220215 0.38473066687583923
vn -0.20334692299365997 0.78668850660324097 0.58289897441864014
vn 0.07420811802148819 -0.17693860828876495 0.98142033815383911
vn 0.033443216234445572 -0.52267628908157349 0.85187500715255737
vn 0.22071462869644165 0.68883800506591797 0.69049781560897827
vn 0.097937740385532379 -0.71208429336547852 0.69522953033447266
vn 0.092683017253875732 0.86550611257553101 0.49224889278411865
vn 0.260234534740448 0.51828104257583618 0.81465500593185425
vn 0.016536332666873932 -0.99986326694488525 7.270913920365274E-05
vn 0.11933774501085281 -0.2508791983127594 0.96063423156738281
vn 0.16303925216197968 -0.29604271054267883 0.94115722179412842
vn 0.01563674584031105 0.99240529537200928 0.12201326340436935
vn 0.028580337762832642 -0.99665117263793945 0.07661302387714386
vn 0.16636583209037781 -0.24087244272232056 0.95619183778762817
vn -0.11684613674879074 0.92868262529373169 0.35198795795440674
vn 0.0036655825097113848 0.99967241287231445 0.025329707190394402
vn 0.17658239603042603 -0.78116440773010254 0.59883290529251099
vn 0.20164008438587189 -0.49263724684715271 0.84655171632766724
vn 0.16225342452526093 -0.8786359429359436 0.44907978177070618
vn -0.93915987014770508 0.010764217004179955 0.34331157803535461
vn -0.36816504597663879 -0.92769473791122437 0.061943225562572479
vn -0.033782940357923508 0.99238139390945435 0.1184815838932991
vn 0.26430335640907288 -0.41935765743255615 0.86849462985992432
vn -0.81084185838699341 -0.55049872398376465 0.19871245324611664
vn 0.39738059043884277 -0.17628279328346252 0.90056264400482178
vn 0.383392333984375 -0.37773698568344116 0.84280788898468018
vn 0.041307680308818817 0.9834398627281189 0.17646437883377075
vn 0.303985595703125 0.30475878715515137 0.90261554718017578
vn 0.72232681512832642 0.080827288329601288 0.68681210279464722
vn 0.30438452959060669 -0.56945669651031494 0.76358962059020996
vn 0.36927482485771179 -0.54852014780044556 0.75017446279525757
vn 0.046437852084636688 -0.99431169033050537 0.095852740108966827
vn -0.89814138412475586 0.23014630377292633 0.37466621398925781
vn 0.41962629556655884 -0.549996018409729 0.72209286689758301
vn 0.44707873463630676 0.53007066249847412 0.72051763534545898
vn 0.69547939300537109 -0.34861508011817932 0.62831199169158936
vn 0.071962408721446991 0.97219395637512207 0.22284592688083649
vn 0.014387913979589939 -0.99983954429626465 -0.010673434473574162
vn -0.56524944305419922 -0.82181388139724731 0.0715193971991539
vn 0.00029042299138382077 0.99965035915374756 0.026439599692821503
vn 0.01662973128259182 0.998485267162323 0.052446380257606506
vn -0.98664206266403198 0.06114467978477478 0.15099264681339264
vn 0.0076318285427987576 0.99947667121887207 0.0314345583319664
vn -0.54531681537628174 0.64603084325790405 0.53411024808883667
vn 0.24731476604938507 0.70910298824310303 0.6603093147277832
vn 0.31043526530265808 0.61640053987503052 0.72365760803222656
vn -0.97022122144699097 -0.21041448414325714 0.11998533457517624
vn -0.094632826745510101 0.98060059547424316 0.1716599315404892
vn -0.99691992998123169 0.0041450080461800098 0.078316844999790192
vn -0.2423022985458374 0.90971451997756958 0.33720779418945313
vn 0.13155907392501831 0.93672996759414673 0.32439056038856506
vn 0.044272191822528839 0.991324782371521 0.12375454604625702
vn -0.68558585643768311 0.68820452690124512 0.2373744398355484
vn -0.023941271007061005 0.99895858764648438 0.038840733468532562
vn -0.19610947370529175 0.97378307580947876 0.11527179926633835
vn 0.0015442123403772712 0.99976766109466553 0.02149917371571064
vn 0.59042006731033325 0.47438475489616394 0.65296494960784912
vn -0.95598793029785156 0.27296075224876404 0.10760793834924698
vn 0.39995020627975464 0.73748254776000977 0.54420524835586548
vn 0.045123495161533356 0.99410641193389893 0.098571114242076874
vn 0.6888313889503479 0.42951655387878418 0.58397501707077026
vn 0.17432105541229248 0.95919090509414673 0.22263182699680328
vn -0.26217469573020935 -0.96492910385131836 0.013274228200316429
vn 0.50025737285614014 0.7571985125541687 0.41999170184135437
vn -0.29567492008209229 0.95466881990432739 0.03440643846988678
vn 0.37497237324714661 -0.77371233701705933 0.51065146923065186
vn 0.11111171543598175 -0.98191523551940918 0.15328602492809296
vn 0.78661441802978516 -0.43466705083847046 0.43852287530899048
vn 0.20018181204795837 -0.96702241897583008 0.15746374428272247
vn 0.3357354998588562 0.89434951543807983 0.29566973447799683
vn -0.79021871089935303 0.61142301559448242 0.041427977383136749
vn -0.72766155004501343 -0.68081974983215332 0.083625108003616333
vn 0.17433057725429535 -0.9774930477142334 0.11881162971258163
vn 0.027780709788203239 -0.99954766035079956 0.011519871652126312
vn -0.011530677787959576 0.99978673458099365 0.017133265733718872
vn 0.0063298558816313744 0.9997096061706543 0.023251825943589211
vn 0.52391207218170166 -0.82028073072433472 0.22946818172931671
vn -0.72843080759048462 -0.68233954906463623 0.061655197292566299
vn 0.16941720247268677 -0.98373293876647949 0.05972730740904808
vn 0.71919184923171997 -0.65332192182540894 0.23650272190570831
vn 0.043682996183633804 0.99785864353179932 0.048681613057851791
vn 0.8381686806678772 -0.13125412166118622 0.52938228845596313
vn 0.86302250623703003 -0.31970477104187012 0.39112791419029236
vn 0.78528457880020142 0.22454555332660675 0.5769813060760498
vn 0.85703945159912109 -0.046195410192012787 0.51317578554153442
vn 0.87223130464553833 -0.15759316086769104 0.46300861239433289
vn 0.75477641820907593 0.42478597164154053 0.49986940622329712
vn 0.21793894469738007 0.96053683757781982 0.17283402383327484
vn 0.85104846954345703 0.12713593244552612 0.50946336984634399
vn 0.91083896160125732 -0.32192489504814148 0.25833463668823242
vn 0.9330441951751709 -0.18893454968929291 0.30615732073783875
vn 0.55948162078857422 0.80519205331802368 0.19658617675304413
vn 0.93804574012756348 0.16417461633682251 0.30515053868293762
vn -0.40776774287223816 -0.91283673048019409 0.021320777013897896
vn 0.9526018500328064 0.29522338509559631 0.073436111211776733
vn 0.16953103244304657 0.98386102914810181 0.057242836803197861
vn 0.99641436338424683 -0.051433596760034561 0.067178450524806976
vn -0.26585188508033752 -0.96400356292724609 -0.0044623138383030891
vn 0.23538914322853088 0.97105711698532104 0.040497351437807083
vn -0.67930752038955688 -0.73375892639160156 0.011795594356954098
vn -0.99924588203430176 -0.005516453180462122 0.038434788584709167
vn -0.86727786064147949 0.49689853191375732 0.030348025262355804
vn 0.014293298125267029 0.99961161613464355 0.023923380300402641
vn 0.80946332216262817 0.58662182092666626 0.025376852601766586
vn 0.9983333945274353 0.055972263216972351 0.014054895378649235
vn 0.6817471981048584 -0.70881766080856323 0.18110290169715881
vn 0.99986380338668823 0.013375448063015938 0.0096671963110566139
vn 0.91427749395370483 -0.33911022543907166 0.22158737480640411
vn 0.83884680271148682 -0.50310695171356201 0.20789270102977753
vn 0.0010226855520159006 0.99983417987823486 0.018180670216679573
vn 0.98917782306671143 -0.12311521172523499 0.079811267554759979
vn 0.036203250288963318 -0.99931502342224121 -0.0076699270866811275
vn 0.95254665613174438 -0.27199637889862061 0.1366485059261322
vn 0.69204282760620117 -0.69818657636642456 0.18333642184734344
vn 0.99159884452819824 0.12934747338294983 0.00095719378441572189
vn 0.99998140335083008 0.0056611453182995319 0.0022637825459241867
vn 0.69760197401046753 0.71628916263580322 0.016771897673606873
vn 0.17745405435562134 0.98391884565353394 0.020340325310826302
vn 0.28980281949043274 -0.95522725582122803 0.059626080095767975
vn 0.99972027540206909 -0.013428765349090099 0.019470378756523132
vn 0.52782940864562988 -0.84129703044891357 0.11668507009744644
vn 0.78767585754394531 -0.59823590517044067 0.14724299311637878
vn 0.22830699384212494 -0.97334820032119751 0.021660281345248222
vn 0.64031660556793213 -0.76676326990127563 0.045483201742172241
vn 0.97683727741241455 -0.21073366701602936 0.037151064723730087
vn 0.85942220687866211 -0.51075631380081177 0.022834787145256996
vn 0.78702610731124878 -0.61685961484909058 0.0086137959733605385
vn 0.016146810725331306 0.99970942735671997 0.017897531390190125
vn -0.72939032316207886 0.68363398313522339 0.025184636935591698
vn 0.1778954416513443 -0.98400479555130005 -0.0093657216057181358
vn -0.12358148396015167 -0.99228501319885254 -0.0099016828462481499
vn -0.52918422222137451 0.84829765558242798 0.018846077844500542
vn 0.73451149463653564 -0.67854887247085571 -0.0080211767926812172
vn 0.99993765354156494 0.0074609578587114811 -0.0083087058737874031
vn -0.79759353399276733 -0.60317361354827881 -0.0051153041422367096
vn -0.32616713643074036 0.94517356157302856 0.016183875501155853
vn -0.6883699893951416 0.72515064477920532 0.017417652532458305
vn -0.57553893327713013 -0.81770199537277222 -0.010879049077630043
vn 0.9998740553855896 -0.012587777338922024 -0.0096675986424088478
vn 0.39644089341163635 -0.91790241003036499 -0.017022892832756042
vn 0.97183483839035034 -0.23485706746578217 -0.019472554326057434
vn 0.73847103118896484 -0.67410951852798462 -0.01538916677236557
vn -0.96392542123794556 -0.26613301038742065 0.0045787282288074493
vn -0.54838532209396362 0.83608341217041016 0.015430064871907234
vn -0.35988765954971313 -0.93293428421020508 -0.010700896382331848
vn 0.0766410231590271 -0.99691510200500488 -0.016923092305660248
vn 0.75687533617019653 -0.65226560831069946 -0.041100908070802689
vn 0.19375531375408173 -0.98076659440994263 -0.023574056103825569
vn 0.98325914144515991 -0.17919567227363586 -0.033020839095115662
vn -0.94686400890350342 0.32151427865028381 0.0087850382551550865
vn 0.19515505433082581 -0.98033303022384644 -0.029353171586990356
vn -0.92672616243362427 -0.37558940052986145 -0.010548518039286137
vn -0.17350207269191742 0.98471492528915405 0.015280917286872864
vn 0.004719066433608532 0.99984943866729736 0.016698351129889488
vn 0.073875680565834045 -0.99711728096008301 -0.017307199537754059
vn 0.92864108085632324 0.37096220254898071 -0.0035669547505676746
vn -0.98991870880126953 -0.1410897970199585 -0.012436456046998501
vn 0.13438853621482849 0.99085879325866699 0.011772043071687222
vn -0.83959114551544189 -0.54272758960723877 -0.02309681661427021
vn 0.14240172505378723 -0.98944991827011108 -0.026656955480575562
vn 0.97017592191696167 -0.23650865256786346 -0.053126215934753418
vn 0.55224001407623291 0.8336520791053772 0.0074255154468119144
vn 0.99165266752243042 -0.12150577455759048 -0.043143350630998611
vn 0.68308341503143311 -0.72765052318572998 -0.062623895704746246
vn 0.84832215309143066 -0.52551406621932983 -0.064687825739383698
vn 0.13587197661399841 0.99070388078689575 0.0066775339655578136
vn 0.79203623533248901 -0.60397535562515259 -0.088839158415794373
vn 0.88816052675247192 -0.44997879862785339 -0.093220025300979614
vn 0.51720881462097168 -0.85056835412979126 -0.095018789172172546
vn 0.043012827634811401 0.99902379512786865 0.010068315081298351
vn 0.81648749113082886 -0.5591854453086853 -0.14373518526554108
vn 0.9975847601890564 -0.060155801475048065 -0.03472631424665451
vn 0.10458720475435257 0.99447870254516602 -0.0085839545354247093
vn 0.99267709255218506 0.11994843930006027 -0.014301027171313763
vn 0.99964624643325806 -0.0047627575695514679 -0.026165865361690521
vn 0.56796711683273315 0.82252705097198486 -0.029370568692684174
vn 0.11774107813835144 0.9923052191734314 -0.038305804133415222
vn 0.17544904351234436 0.98023796081542969 -0.091385073959827423
vn 0.67328709363937378 0.70636451244354248 -0.21848031878471375
vn 0.98050487041473389 0.18720181286334991 -0.059713717550039291
vn 0.98088991641998291 0.16580095887184143 -0.10180877894163132
vn -0.57114768028259277 -0.82063430547714233 -0.018700281158089638
vn 0.0029548448510468006 0.99989026784896851 0.014517210423946381
vn 0.99621540307998657 0.063197478652000427 -0.059674136340618134
vn 0.098007827997207642 0.99377149343490601 -0.053034279495477676
vn 0.93635517358779907 0.23296767473220825 -0.26261186599731445
vn 0.52107614278793335 0.78230077028274536 -0.34129926562309265
vn 0.77806401252746582 0.45220863819122314 -0.43603184819221497
vn 0.99125272035598755 0.067458629608154297 -0.11343436688184738
vn 0.67001265287399292 0.52341991662979126 -0.52641677856445313
vn 0.98607242107391357 0.067850247025489807 -0.15184710919857025
vn -0.0082736555486917496 -0.99989515542984009 -0.011885463260114193
vn -0.0026812267024070024 0.99987131357192993 0.015816653147339821
vn -0.97560369968414307 0.2173534631729126 -0.030900664627552032
vn -0.089849814772605896 0.99589437246322632 0.011016350239515305
vn -0.27051886916160583 0.9627116322517395 0.0024150011595338583
vn 0.27449706196784973 0.93694615364074707 -0.21629449725151062
vn -0.34776878356933594 -0.93740558624267578 -0.018100818619132042
vn -0.061021529138088226 -0.99803531169891357 -0.014210168272256851
vn -0.57589370012283325 0.81683450937271118 -0.033582665026187897
vn 0.010838082060217857 0.99985504150390625 0.01312934048473835
vn -0.01552773080766201 0.99975079298019409 0.016040105372667313
vn 0.97640460729598999 -0.19392359256744385 -0.095014393329620361
vn 0.99170297384262085 -0.00079514231765642762 -0.1285480409860611
vn -0.36887118220329285 0.92714607715606689 -0.065834522247314453
vn 0.83851146697998047 -0.51299703121185303 -0.18366436660289764
vn -0.22208140790462494 0.97465556859970093 -0.026952382177114487
vn 0.91592627763748169 -0.19781875610351563 -0.34920883178710938
vn 0.89903277158737183 0.15191918611526489 -0.41068312525749207
vn 0.12131346762180328 -0.99005395174026489 -0.071247659623622894
vn 0.76905632019042969 -0.51157432794570923 -0.38320231437683105
vn 0.71907174587249756 -0.61250835657119751 -0.32828235626220703
vn 0.50948762893676758 -0.81509137153625488 -0.27576866745948792
vn 0.73552483320236206 0.30471217632293701 -0.60510635375976563
vn 0.75474530458450317 0.057157833129167557 -0.65352314710617065
vn 0.69087225198745728 -0.53600358963012695 -0.48517590761184692
vn -0.99962002038955688 0.0069521772675216198 -0.026674527674913406
vn -0.67711848020553589 -0.73521113395690918 -0.031226638704538345
vn 0.71883088350296021 -0.27098432183265686 -0.64019501209259033
vn 0.64119642972946167 -0.54962992668151855 -0.53551292419433594
vn 0.43826767802238464 -0.79839146137237549 -0.41290736198425293
vn -0.61050063371658325 0.78359031677246094 -0.11521793901920319
vn 0.031163400039076805 -0.99918115139007568 -0.025803897529840469
vn -0.86600381135940552 0.48036104440689087 -0.1388908177614212
vn -0.99616873264312744 0.070715963840484619 -0.051450155675411224
vn -0.97558063268661499 0.16809940338134766 -0.14136849343776703
vn -0.99590879678726196 0.032986890524625778 -0.084127850830554962
vn 0.0031938576139509678 -0.99991697072982788 -0.012485192157328129
vn 0.0022370638325810432 0.99991214275360107 0.013066309504210949
vn -0.021058108657598495 0.99976998567581177 0.0040593384765088558
vn -0.96623343229293823 0.17302347719669342 -0.19093407690525055
vn -0.82808899879455566 0.51792758703231812 -0.21452184021472931
vn 0.0016888892278075218 0.99996662139892578 0.0079964343458414078
vn 0.0046392837539315224 0.99992448091506958 0.011378621682524681
vn -0.079172633588314056 0.99546051025390625 -0.052820783108472824
vn -0.55897748470306396 0.81532007455825806 -0.15098783373832703
vn -0.2744719386100769 0.9444238543510437 -0.18091078102588654
vn -0.44276216626167297 -0.89162808656692505 -0.09466264396905899
vn -0.87991362810134888 0.3898719847202301 -0.27157282829284668
vn -0.7551388144493103 0.57930088043212891 -0.30688092112541199
vn -0.81714797019958496 -0.56745868921279907 -0.10129087418317795
vn -0.24646836519241333 0.90220844745635986 -0.35393959283828735
vn -0.49168777465820313 0.78125828504562378 -0.38454985618591309
vn -0.93721282482147217 -0.32132309675216675 -0.135586217045784
vn -0.675010085105896 0.51230037212371826 -0.53095167875289917
vn -0.11872576922178268 -0.99047172069549561 -0.069784857332706451
vn -0.51132595539093018 0.6341545581817627 -0.57999461889266968
vn -0.98319905996322632 -0.013444992713630199 -0.18204070627689362
vn -0.022740459069609642 0.99747979640960693 -0.067207962274551392
vn -0.071206569671630859 0.98977494239807129 -0.1235930323600769
vn -0.39255237579345703 -0.89939159154891968 -0.19234718382358551
vn -0.91057485342025757 0.17985236644744873 -0.37216463685035706
vn -0.77816247940063477 0.42504009604454041 -0.4623894989490509
vn -0.929840087890625 0.076103843748569489 -0.36000785231590271
vn -0.07753918319940567 0.97468912601470947 -0.20968733727931976
vn -0.019940504804253578 -0.99884980916976929 -0.043605893850326538
vn -0.73976558446884155 -0.54256433248519897 -0.39795836806297302
vn -0.87756174802780151 0.054898902773857117 -0.47631028294563293
vn -0.81051301956176758 -0.17017537355422974 -0.56045430898666382
vn -0.44556152820587158 -0.71435254812240601 -0.53960663080215454
vn -0.1331009566783905 -0.94650781154632568 -0.2939508855342865
vn -0.51957780122756958 -0.18784701824188232 -0.83351808786392212
vn -0.60241872072219849 0.33909451961517334 -0.72256946563720703
vn -0.082815155386924744 -0.81466025114059448 -0.57399499416351318
vn -0.40173745155334473 -0.26093566417694092 -0.87779247760772705
vn -0.32640886306762695 -0.48406726121902466 -0.81187200546264648
vn -0.53524821996688843 0.021004965528845787 -0.84443360567092896
vn -0.27989956736564636 -0.065333522856235504 -0.95780360698699951
vn -0.19374834001064301 -0.088085390627384186 -0.9770888090133667
vn -0.27373853325843811 -0.034806493669748306 -0.9611741304397583
vn 0.19043457508087158 0.96876370906829834 -0.15884429216384888
vn -0.17922617495059967 -0.44197499752044678 -0.87894028425216675
vn -0.3781760036945343 0.084564417600631714 -0.92186319828033447
vn -0.033520728349685669 -0.89776557683944702 -0.43919622898101807
vn -0.11215835809707642 -0.34297606348991394 -0.9326242208480835
vn -0.0055878083221614361 0.99710655212402344 -0.075810715556144714
vn 0.17918246984481812 0.95480537414550781 -0.23715056478977203
vn 0.04452846571803093 0.99024289846420288 -0.13204623758792877
vn 0.46299722790718079 0.75239604711532593 -0.46854430437088013
vn 0.0013337858254089952 0.98822760581970215 -0.15298514068126678
vn -0.050800886005163193 0.87495249509811401 -0.48153653740882874
vn -0.085641220211982727 -0.5955967903137207 -0.79870522022247314
vn 0.085641980171203613 -0.99066632986068726 -0.10604551434516907
vn -0.21278329193592072 0.83795082569122314 -0.50255519151687622
vn -0.014678212814033031 0.97256368398666382 -0.23217326402664185
vn -0.10322856903076172 -0.16959655284881592 -0.98009228706359863
vn 0.21670258045196533 -0.93166238069534302 -0.29162520170211792
vn -0.3719247579574585 0.61740046739578247 -0.69317293167114258
vn -0.063249289989471436 0.70961588621139526 -0.70174413919448853
vn -0.061957769095897675 -0.60805511474609375 -0.79147344827651978
vn 0.078234642744064331 -0.96708214282989502 -0.24213944375514984
vn -0.23575824499130249 -0.0055015948601067066 -0.97179615497589111
vn 0.4338470995426178 -0.56450903415679932 -0.70221525430679321
vn -0.1152525395154953 0.54835569858551025 -0.82826495170593262
vn 0.15782448649406433 0.84934169054031372 -0.5036965012550354
vn -0.18156693875789642 0.19908075034618378 -0.96301627159118652
vn -0.089521527290344238 -0.033339217305183411 -0.9954267144203186
vn -0.010537491180002689 0.93845903873443604 -0.34522968530654907
vn 0.14669796824455261 -0.81655019521713257 -0.55832380056381226
vn -0.066625334322452545 0.0029898341745138168 -0.99777358770370483
vn -0.015079005621373653 0.85630273818969727 -0.5162540078163147
vn 0.088188983500003815 -0.86716526746749878 -0.49015006422996521
vn 0.42029353976249695 0.51054233312606812 -0.750133216381073
vn 0.013572964817285538 -0.92206877470016479 -0.38678792119026184
vn 0.12893591821193695 -0.77757489681243896 -0.61542892456054688
vn 0.17855535447597504 0.61382824182510376 -0.7689816951751709
vn -0.019922610372304916 0.65614944696426392 -0.75436794757843018
vn 0.55251085758209229 0.43132123351097107 -0.71322768926620483
vn 0.63643527030944824 0.39236354827880859 -0.66407907009124756
vn 0.63748073577880859 0.20612476766109467 -0.74238187074661255
vn 0.26068961620330811 0.47251227498054504 -0.84188663959503174
vn -0.056241609156131744 0.019925987347960472 -0.9982183575630188
vn 0.3363286554813385 0.40673783421516418 -0.84938061237335205
vn -0.04628898948431015 0.23792262375354767 -0.9701804518699646
vn 0.21430093050003052 0.4263242781162262 -0.87881892919540405
vn 0.60641396045684814 0.0074611855670809746 -0.79511409997940063
vn -0.050862781703472137 0.066786192357540131 -0.99647003412246704
vn 0.58908659219741821 -0.11303314566612244 -0.80012530088424683
vn 0.42788979411125183 0.27992266416549683 -0.85939145088195801
vn 0.12224657088518143 0.47556254267692566 -0.87114638090133667
vn 0.39831319451332092 0.092741668224334717 -0.91254895925521851
vn -0.045805435627698898 0.010287248529493809 -0.99889743328094482
vn 0.0681619793176651 -0.74303328990936279 -0.66577434539794922
vn 0.1994730681180954 0.28661969304084778 -0.93704837560653687
vn -0.059647481888532639 -0.018182715401053429 -0.9980539083480835
vn 0.30890375375747681 -0.071115337312221527 -0.94843083620071411
vn 0.15046752989292145 -0.44350200891494751 -0.88355278968811035
vn 0.10201507061719894 -0.023744786158204079 -0.99449944496154785
vn 0.15619988739490509 0.20447206497192383 -0.96632951498031616
vn 0.15989571809768677 0.33102720975875854 -0.92997545003890991
vn -0.019760238006711006 -0.33857047557830811 -0.94073349237442017
vn -0.045350473374128342 -0.035108286887407303 -0.99835401773452759
vn -0.017040511593222618 -0.0054576215334236622 -0.9998399019241333
vn 0.022531256079673767 -0.18033702671527863 -0.98334676027297974
vn 0.040884431451559067 -0.054585438221693039 -0.99767172336578369
vn 0.028999119997024536 0.18008933961391449 -0.98322272300720215
vn 0.10581578314304352 0.063961222767829895 -0.99232655763626099
f 267//267 271//271 368//368
f 370//370 368//368 271//271
f 128//128 64//64 155//155
f 335//335 343//343 339//339
f 356//356 343//343 308//308
f 309//309 290//290 293//293
f 296//296 309//309 293//293
f 296//296 293//293 211//211
f 195//195 152//152 99//99
f 209//209 300//300 296//296
f 209//209 296//296 211//211
f 275//275 308//308 343//343
f 275//275 343//343 335//335
f 275//275 280//280 308//308
f 119//119 118//118 58//58
f 161//161 160//160 135//135
f 165//165 160//160 161//161
f 51//51 126//126 65//65
f 51//51 65//65 58//58
f 269//269 300//300 209//209
f 269//269 209//209 202//202
f 269//269 277//277 300//300
f 299//299 295//295 336//336
f 305//305 315//315 304//304
f 294//294 336//336 295//295
f 273//273 272//272 265//265
f 345//345 339//339 343//343
f 345//345 343//343 351//351
f 345//345 351//351 379//379
f 345//345 370//370 271//271
f 345//345 271//271 272//272
f 345//345 272//272 273//273
f 345//345 273//273 339//339
f 8//8 1//1 11//11
f 54//54 96//96 37//37
f 95//95 64//64 128//128
f 386//386 383//383 387//387
f 386//386 387//387 379//379
f 386//386 379//379 383//383
f 378//378 370//370 345//345
f 378//378 345//345 379//379
f 378//378 379//379 387//387
f 378//378 368//368 370//370
f 375//375 356//356 383//383
f 375//375 383//383 379//379
f 190//190 197//197 152//152
f 150//150 152//152 197//197
f 150//150 197//197 183//183
f 251//251 308//308 280//280
f 251//251 48//48 183//183
f 250//250 290//290 251//251
f 250//250 251//251 183//183
f 250//250 183//183 197//197
f 303//303 290//290 309//309
f 204//204 195//195 209//209
f 204//204 209//209 211//211
f 153//153 99//99 101//101
f 153//153 202//202 209//209
f 153//153 209//209 195//195
f 153//153 195//195 99//99
f 311//311 309//309 296//296
f 311//311 296//296 300//300
f 311//311 300//300 310//310
f 306//306 300//300 304//304
f 306//306 304//304 310//310
f 306//306 310//310 300//300
f 342//342 383//383 356//356
f 326//326 334//334 342//342
f 326//326 342//342 356//356
f 90//90 48//48 280//280
f 90//90 280//280 275//275
f 90//90 275//275 126//126
f 90//90 126//126 48//48
f 125//125 119//119 126//126
f 125//125 126//126 131//131
f 84//84 65//65 126//126
f 84//84 126//126 119//119
f 84//84 119//119 58//58
f 84//84 58//58 65//65
f 132//132 161//161 135//135
f 132//132 135//135 120//120
f 22//22 12//12 17//17
f 61//61 126//126 51//51
f 61//61 51//51 48//48
f 61//61 48//48 126//126
f 24//24 48//48 51//51
f 24//24 17//17 48//48
f 52//52 40//40 58//58
f 279//279 277//277 278//278
f 279//279 278//278 300//300
f 279//279 300//300 277//277
f 276//276 278//278 277//277
f 289//289 259//259 287//287
f 289//289 307//307 336//336
f 289//289 336//336 294//294
f 289//289 294//294 295//295
f 247//247 259//259 248//248
f 247//247 248//248 205//205
f 247//247 205//205 117//117
f 297//297 295//295 299//299
f 297//297 299//299 315//315
f 297//297 315//315 305//305
f 297//297 305//305 292//292
f 297//297 292//292 295//295
f 291//291 278//278 276//276
f 291//291 292//292 305//305
f 291//291 305//305 304//304
f 133//133 155//155 64//64
f 180//180 128//128 155//155
f 210//210 222//222 237//237
f 210//210 237//237 180//180
f 149//149 165//165 163//163
f 301//301 328//328 307//307
f 333//333 336//336 307//307
f 333//333 353//353 359//359
f 164//164 131//131 126//126
f 164//164 126//126 275//275
f 164//164 275//275 182//182
f 164//164 182//182 171//171
f 164//164 171//171 131//131
f 242//242 361//361 331//331
f 208//208 167//167 226//226
f 208//208 226//226 228//228
f 236//236 226//226 167//167
f 236//236 167//167 227//227
f 168//168 149//149 172//172
f 168//168 191//191 227//227
f 168//168 227//227 167//167
f 177//177 168//168 172//172
f 177//177 172//172 149//149
f 177//177 149//149 163//163
f 177//177 163//163 165//165
f 177//177 176//176 178//178
f 185//185 177//177 178//178
f 185//185 176//176 182//182
f 262//262 275//275 335//335
f 262//262 335//335 339//339
f 262//262 339//339 273//273
f 262//262 273//273 265//265
f 262//262 265//265 221//221
f 262//262 221//221 212//212
f 262//262 212//212 207//207
f 262//262 207//207 182//182
f 262//262 182//182 275//275
f 217//217 220//220 199//199
f 362//362 267//267 368//368
f 360//360 331//331 361//361
f 360//360 355//355 331//331
f 381//381 376//376 389//389
f 388//388 376//376 381//381
f 388//388 381//381 389//389
f 388//388 369//369 366//366
f 388//388 366//366 359//359
f 347//347 329//329 331//331
f 347//347 331//331 355//355
f 347//347 359//359 353//353
f 26//26 8//8 11//11
f 26//26 11//11 37//37
f 7//7 1//1 8//8
f 7//7 12//12 2//2
f 7//7 2//2 1//1
f 380//380 389//389 378//378
f 380//380 378//378 387//387
f 380//380 387//387 389//389
f 357//357 375//375 379//379
f 357//357 379//379 351//351
f 130//130 99//99 152//152
f 187//187 195//195 204//204
f 187//187 204//204 211//211
f 187//187 211//211 190//190
f 187//187 190//190 152//152
f 187//187 152//152 195//195
f 115//115 48//48 73//73
f 115//115 73//73 91//91
f 115//115 150//150 183//183
f 115//115 183//183 48//48
f 244//244 48//48 251//251
f 244//244 251//251 280//280
f 244//244 280//280 48//48
f 298//298 308//308 251//251
f 298//298 251//251 290//290
f 298//298 290//290 303//303
f 270//270 290//290 250//250
f 270//270 211//211 293//293
f 270//270 293//293 290//290
f 313//313 308//308 298//298
f 313//313 298//298 303//303
f 313//313 326//326 356//356
f 313//313 356//356 308//308
f 110//110 154//154 202//202
f 110//110 202//202 153//153
f 319//319 322//322 320//320
f 319//319 311//311 310//310
f 319//319 310//310 304//304
f 319//319 304//304 315//315
f 319//319 315//315 325//325
f 348//348 366//366 369//369
f 121//121 119//119 125//125
f 121//121 125//125 118//118
f 121//121 118//118 119//119
f 173//173 132//132 171//171
f 129//129 118//118 125//125
f 129//129 125//125 131//131
f 129//129 131//131 171//171
f 129//129 171//171 132//132
f 129//129 132//132 120//120
f 129//129 120//120 118//118
f 175//175 182//182 176//176
f 175//175 176//176 173//173
f 175//175 173//173 171//171
f 175//175 171//171 182//182
f 85//85 96//96 105//105
f 85//85 105//105 110//110
f 72//72 101//101 99//99
f 15//15 18//18 17//17
f 15//15 17//17 12//12
f 44//44 85//85 72//72
f 53//53 91//91 73//73
f 53//53 73//73 48//48
f 53//53 48//48 17//17
f 43//43 72//72 99//99
f 5//5 1//1 2//2
f 5//5 2//2 12//12
f 56//56 58//58 40//40
f 56//56 51//51 58//58
f 34//34 17//17 24//24
f 34//34 24//24 51//51
f 34//34 51//51 56//56
f 71//71 58//58 118//118
f 79//79 64//64 59//59
f 246//246 276//276 277//277
f 246//246 277//277 269//269
f 246//246 269//269 202//202
f 288//288 289//289 295//295
f 288//288 295//295 292//292
f 288//288 292//292 276//276
f 288//288 276//276 274//274
f 257//257 259//259 289//289
f 107//107 117//117 105//105
f 106//106 117//117 107//107
f 106//106 107//107 100//100
f 106//106 100//100 74//74
f 106//106 74//74 92//92
f 106//106 92//92 108//108
f 106//106 127//127 117//117
f 188//188 205//205 248//248
f 188//188 117//117 205//205
f 283//283 278//278 291//291
f 283//283 291//291 304//304
f 283//283 304//304 300//300
f 283//283 300//300 278//278
f 284//284 292//292 291//291
f 284//284 291//291 276//276
f 284//284 276//276 292//292
f 156//156 147//147 167//167
f 156//156 144//144 147//147
f 151//151 133//133 140//140
f 225//225 228//228 229//229
f 225//225 229//229 237//237
f 225//225 237//237 222//222
f 214//214 228//228 210//210
f 157//157 147//147 149//149
f 157//157 167//167 147//147
f 145//145 149//149 147//147
f 145//145 147//147 144//144
f 145//145 144//144 139//139
f 302//302 287//287 301//301
f 302//302 301//301 307//307
f 302//302 307//307 289//289
f 302//302 289//289 287//287
f 200//200 221//221 199//199
f 200//200 207//207 212//212
f 266//266 267//267 362//362
f 266//266 362//362 361//361
f 266//266 361//361 242//242
f 266//266 261//261 267//267
f 241//241 236//236 227//227
f 241//241 227//227 243//243
f 240//240 261//261 266//266
f 240//240 266//266 242//242
f 186//186 168//168 177//177
f 186//186 177//177 191//191
f 186//186 191//191 168//168
f 193//193 191//191 177//177
f 193//193 177//177 185//185
f 193//193 199//199 201//201
f 193//193 215//215 224//224
f 193//193 224//224 227//227
f 193//193 227//227 191//191
f 179//179 176//176 185//185
f 179//179 185//185 178//178
f 179//179 178//178 176//176
f 260//260 271//271 267//267
f 260//260 267//267 261//261
f 268//268 272//272 271//271
f 264//264 265//265 272//272
f 264//264 272//272 268//268
f 264//264 258//258 221//221
f 264//264 221//221 265//265
f 223//223 221//221 258//258
f 223//223 258//258 220//220
f 216//216 199//199 221//221
f 213//213 215//215 193//193
f 213//213 193//193 201//201
f 213//213 201//201 199//199
f 213//213 199//199 220//220
f 371//371 360//360 361//361
f 371//371 361//361 362//362
f 371//371 389//389 376//376
f 372//372 367//367 376//376
f 372//372 388//388 359//359
f 385//385 389//389 387//387
f 358//358 363//363 367//367
f 358//358 367//367 372//372
f 358//358 372//372 359//359
f 358//358 359//359 347//347
f 358//358 347//347 355//355
f 358//358 355//355 363//363
f 337//337 333//333 307//307
f 337//337 307//307 328//328
f 282//282 301//301 287//287
f 282//282 287//287 259//259
f 282//282 259//259 247//247
f 282//282 328//328 301//301
f 253//253 180//180 237//237
f 181//181 189//189 202//202
f 181//181 202//202 154//154
f 20//20 1//1 5//5
f 10//10 12//12 7//7
f 10//10 7//7 8//8
f 10//10 18//18 15//15
f 10//10 15//15 12//12
f 16//16 14//14 11//11
f 33//33 59//59 64//64
f 33//33 64//64 29//29
f 33//33 29//29 13//13
f 33//33 13//13 59//59
f 39//39 95//95 128//128
f 39//39 92//92 74//74
f 39//39 16//16 29//29
f 39//39 29//29 64//64
f 39//39 64//64 95//95
f 38//38 37//37 11//11
f 38//38 11//11 14//14
f 38//38 14//14 54//54
f 38//38 54//54 37//37
f 116//116 139//139 144//144
f 116//116 144//144 140//140
f 116//116 140//140 122//122
f 354//354 343//343 356//356
f 354//354 356//356 375//375
f 354//354 375//375 357//357
f 354//354 357//357 351//351
f 354//354 351//351 343//343
f 124//124 130//130 91//91
f 146//146 130//130 152//152
f 146//146 152//152 150//150
f 146//146 150//150 115//115
f 146//146 115//115 91//91
f 146//146 91//91 130//130
f 234//234 211//211 270//270
f 234//234 270//270 250//250
f 234//234 250//250 197//197
f 234//234 197//197 190//190
f 234//234 190//190 211//211
f 314//314 311//311 319//319
f 314//314 319//319 320//320
f 314//314 320//320 317//317
f 314//314 317//317 309//309
f 314//314 309//309 311//311
f 123//123 154//154 110//110
f 123//123 110//110 105//105
f 123//123 105//105 117//117
f 123//123 117//117 181//181
f 123//123 181//181 154//154
f 94//94 101//101 72//72
f 94//94 72//72 85//85
f 94//94 85//85 110//110
f 94//94 110//110 153//153
f 94//94 153//153 101//101
f 384//384 388//388 389//389
f 384//384 389//389 385//385
f 384//384 385//385 387//387
f 384//384 387//387 383//383
f 340//340 299//299 336//336
f 340//340 348//348 315//315
f 340//340 315//315 299//299
f 364//364 369//369 388//388
f 364//364 388//388 374//374
f 364//364 348//348 369//369
f 166//166 161//161 132//132
f 46//46 85//85 44//44
f 46//46 96//96 85//85
f 76//76 53//53 43//43
f 76//76 43//43 99//99
f 76//76 99//99 130//130
f 76//76 130//130 124//124
f 76//76 124//124 91//91
f 76//76 91//91 53//53
f 31//31 17//17 18//18
f 31//31 18//18 43//43
f 31//31 43//43 53//53
f 31//31 53//53 17//17
f 41//41 44//44 72//72
f 41//41 72//72 43//43
f 6//6 5//5 12//12
f 6//6 40//40 52//52
f 28//28 22//22 40//40
f 28//28 40//40 6//6
f 28//28 6//6 12//12
f 28//28 12//12 22//22
f 27//27 17//17 34//34
f 27//27 34//34 56//56
f 27//27 56//56 40//40
f 27//27 40//40 22//22
f 27//27 22//22 17//17
f 77//77 25//25 78//78
f 66//66 78//78 25//25
f 70//70 118//118 82//82
f 70//70 62//62 58//58
f 102//102 100//100 107//107
f 102//102 107//107 105//105
f 102//102 105//105 96//96
f 102//102 96//96 54//54
f 252//252 248//248 259//259
f 252//252 259//259 257//257
f 252//252 257//257 289//289
f 252//252 289//289 288//288
f 252//252 288//288 274//274
f 252//252 274//274 276//276
f 252//252 276//276 246//246
f 252//252 246//246 202//202
f 252//252 202//202 189//189
f 252//252 189//189 196//196
f 252//252 188//188 248//248
f 169//169 156//156 167//167
f 169//169 167//167 208//208
f 169//169 151//151 144//144
f 169//169 144//144 156//156
f 148//148 144//144 151//151
f 148//148 151//151 140//140
f 148//148 140//140 144//144
f 218//218 210//210 228//228
f 218//218 228//228 225//225
f 218//218 225//225 222//222
f 218//218 222//222 210//210
f 159//159 168//168 167//167
f 159//159 167//167 157//157
f 159//159 157//157 149//149
f 159//159 149//149 168//168
f 142//142 135//135 160//160
f 134//134 81//81 135//135
f 134//134 135//135 138//138
f 134//134 138//138 137//137
f 134//134 137//137 81//81
f 143//143 138//138 135//135
f 143//143 135//135 142//142
f 143//143 142//142 160//160
f 143//143 160//160 165//165
f 143//143 165//165 149//149
f 143//143 149//149 145//145
f 143//143 137//137 138//138
f 203//203 221//221 200//200
f 203//203 200//200 212//212
f 203//203 212//212 221//221
f 192//192 199//199 185//185
f 192//192 185//185 182//182
f 192//192 182//182 200//200
f 192//192 200//200 199//199
f 198//198 207//207 200//200
f 198//198 200//200 182//182
f 238//238 261//261 240//240
f 238//238 236//236 241//241
f 238//238 241//241 243//243
f 238//238 243//243 261//261
f 194//194 199//199 193//193
f 194//194 193//193 185//185
f 194//194 185//185 199//199
f 263//263 271//271 260//260
f 263//263 260//260 258//258
f 263//263 258//258 264//264
f 263//263 264//264 268//268
f 263//263 268//268 271//271
f 256//256 243//243 227//227
f 256//256 260//260 261//261
f 256//256 261//261 243//243
f 219//219 217//217 199//199
f 219//219 199//199 216//216
f 219//219 216//216 221//221
f 219//219 221//221 223//223
f 219//219 223//223 220//220
f 219//219 220//220 217//217
f 373//373 368//368 378//378
f 373//373 378//378 389//389
f 373//373 389//389 371//371
f 373//373 371//371 362//362
f 373//373 362//362 368//368
f 365//365 355//355 360//360
f 365//365 360//360 371//371
f 365//365 371//371 376//376
f 365//365 376//376 367//367
f 365//365 367//367 363//363
f 365//365 363//363 355//355
f 382//382 388//388 372//372
f 382//382 372//372 376//376
f 382//382 376//376 388//388
f 330//330 329//329 347//347
f 330//330 328//328 286//286
f 330//330 286//286 253//253
f 330//330 253//253 237//237
f 245//245 127//127 106//106
f 254//254 247//247 117//117
f 254//254 117//117 127//127
f 254//254 127//127 245//245
f 254//254 245//245 282//282
f 254//254 282//282 247//247
f 206//206 128//128 180//180
f 206//206 180//180 253//253
f 206//206 253//253 286//286
f 231//231 238//238 240//240
f 231//231 249//249 237//237
f 184//184 188//188 252//252
f 184//184 196//196 189//189
f 184//184 189//189 181//181
f 184//184 181//181 117//117
f 184//184 117//117 188//188
f 9//9 13//13 16//16
f 9//9 59//59 13//13
f 4//4 45//45 59//59
f 4//4 59//59 9//9
f 4//4 9//9 16//16
f 4//4 16//16 11//11
f 30//30 45//45 4//4
f 30//30 4//4 20//20
f 30//30 20//20 25//25
f 35//35 26//26 37//37
f 35//35 37//37 46//46
f 35//35 46//46 44//44
f 35//35 44//44 36//36
f 35//35 18//18 10//10
f 35//35 10//10 8//8
f 35//35 8//8 26//26
f 19//19 29//29 16//16
f 19//19 16//16 13//13
f 19//19 13//13 29//29
f 47//47 14//14 16//16
f 47//47 16//16 39//39
f 47//47 39//39 74//74
f 68//68 108//108 92//92
f 68//68 92//92 39//39
f 68//68 39//39 128//128
f 68//68 128//128 108//108
f 114//114 122//122 140//140
f 114//114 140//140 133//133
f 113//113 139//139 116//116
f 113//113 81//81 136//136
f 113//113 136//136 139//139
f 312//312 324//324 313//313
f 312//312 313//313 303//303
f 312//312 303//303 309//309
f 312//312 309//309 317//317
f 316//316 326//326 313//313
f 316//316 313//313 324//324
f 316//316 324//324 334//334
f 316//316 334//334 326//326
f 321//321 324//324 317//317
f 321//321 317//317 320//320
f 377//377 388//388 384//384
f 377//377 364//364 374//374
f 377//377 374//374 388//388
f 344//344 324//324 321//321
f 344//344 321//321 320//320
f 344//344 320//320 322//322
f 344//344 322//322 319//319
f 344//344 319//319 325//325
f 344//344 325//325 315//315
f 344//344 315//315 348//348
f 338//338 342//342 334//334
f 338//338 324//324 344//344
f 338//338 384//384 383//383
f 338//338 383//383 342//342
f 346//346 359//359 366//366
f 346//346 366//366 348//348
f 346//346 348//348 340//340
f 346//346 340//340 336//336
f 158//158 166//166 132//132
f 158//158 132//132 173//173
f 42//42 36//36 44//44
f 49//49 96//96 46//46
f 49//49 46//46 37//37
f 49//49 37//37 96//96
f 32//32 18//18 36//36
f 32//32 36//36 42//42
f 32//32 42//42 44//44
f 32//32 44//44 41//41
f 32//32 41//41 43//43
f 32//32 43//43 18//18
f 55//55 6//6 52//52
f 55//55 52//52 58//58
f 55//55 58//58 62//62
f 88//88 118//118 120//120
f 88//88 120//120 135//135
f 88//88 135//135 81//81
f 88//88 81//81 77//77
f 88//88 77//77 78//78
f 88//88 78//78 118//118
f 83//83 82//82 118//118
f 69//69 118//118 70//70
f 69//69 70//70 58//58
f 69//69 58//58 71//71
f 69//69 71//71 118//118
f 63//63 62//62 70//70
f 63//63 70//70 66//66
f 63//63 66//66 62//62
f 75//75 66//66 70//70
f 75//75 70//70 82//82
f 75//75 82//82 83//83
f 75//75 83//83 78//78
f 75//75 78//78 66//66
f 93//93 64//64 79//79
f 93//93 79//79 104//104
f 93//93 133//133 64//64
f 170//170 210//210 180//180
f 170//170 180//180 155//155
f 170//170 155//155 133//133
f 170//170 133//133 151//151
f 170//170 151//151 169//169
f 170//170 169//169 214//214
f 170//170 214//214 210//210
f 141//141 137//137 143//143
f 141//141 143//143 145//145
f 141//141 145//145 139//139
f 141//141 139//139 136//136
f 141//141 136//136 81//81
f 141//141 81//81 137//137
f 255//255 224//224 215//215
f 255//255 215//215 213//213
f 255//255 213//213 220//220
f 255//255 220//220 258//258
f 255//255 258//258 260//260
f 255//255 260//260 256//256
f 255//255 256//256 227//227
f 255//255 227//227 224//224
f 332//332 328//328 330//330
f 332//332 330//330 337//337
f 332//332 337//337 328//328
f 350//350 353//353 333//333
f 350//350 333//333 337//337
f 350//350 337//337 330//330
f 350//350 330//330 347//347
f 350//350 347//347 353//353
f 323//323 329//329 330//330
f 323//323 330//330 237//237
f 323//323 237//237 249//249
f 323//323 249//249 331//331
f 323//323 331//331 329//329
f 162//162 108//108 128//128
f 162//162 128//128 206//206
f 162//162 206//206 245//245
f 162//162 245//245 106//106
f 162//162 106//106 108//108
f 281//281 282//282 245//245
f 235//235 245//245 206//206
f 235//235 206//206 286//286
f 235//235 286//286 281//281
f 235//235 281//281 245//245
f 230//230 228//228 231//231
f 230//230 231//231 237//237
f 230//230 237//237 229//229
f 230//230 229//229 228//228
f 239//239 242//242 331//331
f 239//239 331//331 249//249
f 239//239 249//249 231//231
f 239//239 231//231 240//240
f 239//239 240//240 242//242
f 232//232 231//231 228//228
f 232//232 228//228 226//226
f 3//3 1//1 20//20
f 3//3 20//20 4//4
f 3//3 4//4 11//11
f 3//3 11//11 1//1
f 21//21 18//18 35//35
f 21//21 35//35 36//36
f 21//21 36//36 18//18
f 67//67 47//47 74//74
f 67//67 74//74 100//100
f 67//67 100//100 102//102
f 67//67 102//102 54//54
f 50//50 14//14 47//47
f 50//50 47//47 67//67
f 50//50 67//67 54//54
f 50//50 54//54 14//14
f 112//112 104//104 103//103
f 112//112 103//103 114//114
f 112//112 114//114 133//133
f 112//112 133//133 93//93
f 112//112 93//93 104//104
f 318//318 324//324 312//312
f 318//318 312//312 317//317
f 318//318 317//317 324//324
f 349//349 377//377 384//384
f 349//349 384//384 338//338
f 349//349 338//338 344//344
f 349//349 344//344 348//348
f 327//327 324//324 338//338
f 327//327 338//338 334//334
f 327//327 334//334 324//324
f 341//341 359//359 346//346
f 341//341 346//346 336//336
f 341//341 336//336 333//333
f 341//341 333//333 359//359
f 174//174 166//166 158//158
f 174//174 158//158 173//173
f 174//174 173//173 176//176
f 174//174 176//176 177//177
f 174//174 177//177 165//165
f 174//174 165//165 161//161
f 174//174 161//161 166//166
f 23//23 6//6 55//55
f 23//23 55//55 62//62
f 23//23 62//62 66//66
f 23//23 66//66 25//25
f 23//23 25//25 20//20
f 23//23 20//20 5//5
f 23//23 5//5 6//6
f 86//86 78//78 83//83
f 86//86 83//83 118//118
f 86//86 118//118 78//78
f 89//89 79//79 59//59
f 89//89 59//59 103//103
f 89//89 103//103 104//104
f 89//89 104//104 79//79
f 80//80 30//30 25//25
f 80//80 25//25 77//77
f 80//80 77//77 81//81
f 97//97 103//103 59//59
f 285//285 282//282 281//281
f 285//285 281//281 286//286
f 285//285 286//286 328//328
f 285//285 328//328 282//282
f 233//233 236//236 238//238
f 233//233 238//238 231//231
f 233//233 231//231 232//232
f 233//233 232//232 226//226
f 233//233 226//226 236//236
f 352//352 377//377 349//349
f 352//352 349//349 348//348
f 352//352 348//348 364//364
f 352//352 364//364 377//377
f 109//109 81//81 113//113
f 57//57 45//45 97//97
f 57//57 97//97 59//59
f 57//57 59//59 45//45
f 60//60 97//97 45//45
f 60//60 45//45 30//30
f 60//60 30//30 80//80
f 111//111 116//116 122//122
f 111//111 122//122 114//114
f 111//111 114//114 103//103
f 111//111 103//103 97//97
f 111//111 109//109 113//113
f 111//111 113//113 116//116
f 98//98 111//111 97//97
f 98//98 97//97 60//60
f 98//98 60//60 80//80
f 87//87 111//111 98//98
f 87//87 98//98 80//80
f 87//87 80//80 81//81
f 87//87 81//81 109//109
f 87//87 109//109 111//111
f 214//214 169//169 208//208
f 208//208 228//228 214//214
f 198//198 182//182 207//207
f 184//184 252//252 196//196
