# OBJ
# COMPAS
# version: 2.1.0
# precision: 3
# V F E: 258 512 768

o Mesh 0
v 48.714 -9.348 9.157
v 50.369 -9.304 9.117
v 50.336 -9.297 9.302
v 48.001 -9.288 9.253
v 47.952 -9.287 9.110
v 50.554 -9.284 9.235
v 48.572 -9.281 9.066
v 50.504 -9.265 9.052
v 48.747 -9.230 9.028
v 47.743 -9.215 9.203
v 47.792 -9.206 9.026
v 47.690 -9.099 9.412
v 50.060 -9.074 8.931
v 47.881 -9.072 8.932
v 47.693 -9.056 9.044
v 48.112 -8.969 8.894
v 47.622 -8.887 9.397
v 54.631 -8.808 9.933
v 47.630 -8.802 8.943
v 47.943 -8.730 8.898
v 48.375 -8.663 16.708
v 47.940 -8.574 16.955
v 47.842 -8.573 16.655
v 48.339 -8.542 17.781
v 47.812 -8.519 16.895
v 48.890 -8.517 18.016
v 48.709 -8.486 18.215
v 47.847 -8.476 17.464
v 58.040 -8.439 9.104
v 47.784 -8.427 17.173
v 58.245 -8.418 9.180
v 57.919 -8.410 8.975
v 47.581 -8.376 9.142
v 57.795 -8.363 8.904
v 51.351 -8.199 19.833
v 59.807 -8.173 10.392
v 59.029 -8.162 8.906
v 50.935 -8.156 20.038
v 58.796 -8.140 8.868
v 59.262 -8.128 8.918
v 59.852 -8.111 10.649
v 60.005 -8.087 10.520
v 59.945 -8.051 9.889
v 59.694 -7.998 9.024
v 47.827 -7.977 20.043
v 47.768 -7.977 19.732
v 60.071 -7.963 10.058
v 52.186 -7.962 20.257
v 51.770 -7.948 20.726
v 60.024 -7.936 9.324
v 59.909 -7.895 9.046
v 60.134 -7.887 10.229
v 60.124 -7.855 10.494
v 47.748 -7.811 20.028
v 60.127 -7.796 9.524
v 60.080 -7.767 9.075
v 59.963 -7.746 8.964
v 60.120 -7.738 9.263
v 59.826 -7.737 8.898
v 49.175 -7.735 20.921
v 52.609 -7.690 21.019
v 48.817 -7.673 20.935
v 47.822 -7.630 20.656
v 60.105 -7.583 9.162
v 47.716 -7.522 20.279
v 60.013 -7.520 8.954
v 49.417 -7.481 21.075
v 52.933 -7.478 21.151
v 59.762 -7.454 8.868
v 47.730 -7.432 20.611
v 47.797 -7.398 20.834
v 48.025 -7.378 20.895
v 47.719 -7.236 20.745
v 48.639 -7.151 21.089
v 47.733 -6.987 20.914
v 58.055 -6.798 20.614
v 49.633 -6.765 21.172
v 60.022 -6.742 8.880
v 47.966 -6.699 21.068
v 58.224 -6.685 20.789
v 58.785 -6.544 20.730
v 57.662 -6.529 20.933
v 58.617 -6.363 20.859
v 59.193 -6.361 20.709
v 47.717 -6.318 20.885
v 47.746 -6.296 8.898
v 59.759 -6.218 20.249
v 59.975 -6.102 20.121
v 59.706 -6.084 20.555
v 59.915 -6.068 20.391
v 47.865 -5.983 21.149
v 47.700 -5.953 20.711
v 59.164 -5.931 20.833
v 60.018 -5.931 20.302
v 60.052 -5.742 20.278
v 59.825 -5.704 20.614
v 57.785 -5.514 21.105
v 60.084 -5.483 20.393
v 47.718 -5.180 20.975
v 60.108 -5.175 20.081
v 59.983 -5.153 20.692
v 60.093 -5.108 8.914
v 59.031 -4.843 21.062
v 48.043 -4.809 8.876
v 47.934 -4.722 21.201
v 59.800 -4.564 20.882
v 47.859 -3.916 21.119
v 47.534 -3.902 9.023
v 47.702 -3.877 20.584
v 47.601 -3.673 8.954
v 60.090 -2.877 20.602
v 60.056 -1.502 20.826
v 47.542 -1.066 9.135
v 60.115 -0.556 8.839
v 60.115 -0.503 20.643
v 60.067 0.814 8.796
v 47.753 1.448 20.493
v 47.607 1.980 8.946
v 58.654 2.084 8.543
v 47.580 2.695 9.072
v 47.593 2.894 8.995
v 59.417 3.837 21.103
v 58.802 3.983 21.123
v 47.792 4.489 20.806
v 60.444 4.828 9.060
v 60.416 4.875 8.967
v 60.446 4.934 9.063
v 60.412 5.022 8.950
v 60.176 5.131 20.633
v 60.143 5.509 20.816
v 59.753 5.643 21.075
v 47.835 5.762 20.863
v 60.424 5.866 9.493
v 47.831 5.991 20.768
v 60.032 6.071 21.013
v 47.863 6.122 20.924
v 47.968 6.382 21.076
v 47.868 6.677 20.850
v 60.017 6.769 21.001
v 47.896 6.888 20.950
v 60.124 6.942 8.826
v 47.862 6.992 20.738
v 60.226 7.128 19.953
v 48.039 7.504 21.116
v 47.763 7.550 10.528
v 59.899 7.569 20.969
v 47.922 7.825 8.844
v 48.352 7.986 21.177
v 47.777 8.025 8.924
v 47.957 8.027 20.928
v 47.972 8.065 8.837
v 59.561 8.098 8.729
v 60.200 8.154 20.667
v 59.675 8.363 20.990
v 48.349 8.369 21.120
v 47.899 8.437 19.962
v 60.171 8.443 8.870
v 59.964 8.466 8.759
v 60.216 8.486 20.201
v 48.226 8.537 20.898
v 60.234 8.581 18.871
v 47.797 8.582 9.032
v 47.946 8.605 20.623
v 60.219 8.610 10.067
v 60.063 8.661 8.814
v 60.203 8.693 8.992
v 60.202 8.709 20.328
v 58.790 8.722 20.940
v 59.792 8.735 8.753
v 48.072 8.744 8.854
v 60.023 8.762 20.707
v 60.185 8.779 9.736
v 60.218 8.784 17.310
v 47.887 8.797 8.916
v 47.898 8.798 18.756
v 60.173 8.808 9.240
v 47.832 8.831 9.077
v 47.988 8.840 20.475
v 48.355 8.862 8.856
v 60.046 8.883 8.818
v 60.147 8.886 9.486
v 58.137 8.909 8.774
v 59.503 8.913 20.788
v 60.080 8.934 9.063
v 60.193 8.960 18.587
v 60.191 8.961 19.613
v 58.123 8.967 20.816
v 60.078 8.969 9.292
v 60.128 8.969 10.062
v 60.096 8.974 20.370
v 47.932 8.977 20.174
v 48.308 8.978 20.535
v 60.153 8.979 20.088
v 59.555 8.987 8.777
v 60.162 8.994 19.239
v 59.965 8.994 8.957
v 59.812 8.995 20.480
v 51.175 8.995 21.031
v 47.906 9.002 9.039
v 60.095 9.003 9.713
v 59.295 9.013 8.791
v 47.916 9.016 19.164
v 59.035 9.022 20.671
v 60.125 9.025 17.377
v 52.800 9.036 20.928
v 47.925 9.036 19.646
v 47.863 9.037 10.460
v 59.416 9.041 20.454
v 60.104 9.045 17.985
v 60.060 9.048 12.986
v 59.809 9.052 20.181
v 58.493 9.058 20.626
v 59.868 9.059 9.036
v 47.875 9.061 9.450
v 59.995 9.066 19.793
v 59.648 9.070 19.892
v 60.006 9.074 11.984
v 60.023 9.077 17.237
v 58.297 9.085 20.204
v 48.080 9.086 8.907
v 47.861 9.088 12.832
v 59.905 9.089 9.660
v 59.792 9.095 9.218
v 59.909 9.095 9.913
v 49.527 9.098 8.867
v 59.936 9.099 10.873
v 50.733 9.101 20.901
v 59.726 9.108 11.559
v 48.522 9.108 8.884
v 48.029 9.114 9.147
v 55.937 9.115 8.877
v 59.667 9.117 9.006
v 55.803 9.123 20.209
v 53.169 9.131 20.746
v 49.190 9.133 20.813
v 49.532 9.142 20.824
v 49.454 9.154 8.882
v 48.162 9.165 20.199
v 47.985 9.187 9.589
v 47.926 9.196 12.487
v 47.925 9.196 10.555
v 52.281 9.197 19.650
v 48.005 9.201 19.666
v 49.385 9.201 20.490
v 48.888 9.205 20.515
v 48.229 9.210 9.145
v 48.147 9.211 19.906
v 48.413 9.219 20.128
v 48.671 9.231 8.936
v 47.984 9.234 9.909
v 48.468 9.243 9.047
v 48.082 9.249 9.969
v 48.235 9.258 19.632
v 48.123 9.259 10.306
v 48.803 9.263 9.127
v 49.232 9.267 9.164
v 48.277 9.269 19.239
v 48.128 9.348 15.393
f 228 232 258
f 228 258 215
f 256 258 232
f 256 255 258
f 254 258 255
f 100 127 143
f 126 128 127
f 257 258 253
f 243 253 258
f 243 221 206
f 191 243 206
f 198 148 154
f 183 154 171
f 131 154 148
f 131 148 123
f 105 123 148
f 7 8 1
f 7 1 5
f 2 6 3
f 2 3 1
f 2 1 8
f 13 14 16
f 34 8 13
f 249 255 256
f 249 256 232
f 249 201 237
f 252 250 258
f 252 258 254
f 252 254 255
f 139 154 131
f 94 101 90
f 55 56 58
f 64 58 56
f 102 78 128
f 102 128 126
f 102 126 56
f 102 56 78
f 240 221 243
f 240 243 258
f 211 219 212
f 242 257 253
f 242 258 257
f 109 117 113
f 109 99 124
f 109 124 117
f 106 131 103
f 106 103 93
f 106 93 101
f 122 103 131
f 122 131 123
f 68 123 105
f 68 105 77
f 68 77 67
f 144 105 148
f 91 77 105
f 92 99 109
f 28 24 45
f 21 1 3
f 21 3 26
f 21 26 24
f 27 38 45
f 27 45 24
f 27 24 26
f 35 38 27
f 35 27 26
f 35 26 3
f 35 3 6
f 35 6 18
f 35 18 36
f 35 36 76
f 35 49 38
f 9 8 7
f 9 14 13
f 9 13 8
f 11 14 9
f 11 9 7
f 11 7 5
f 39 34 13
f 39 13 16
f 39 16 119
f 50 56 55
f 50 55 52
f 31 40 36
f 31 36 18
f 31 18 6
f 31 6 2
f 59 40 39
f 226 232 228
f 229 220 249
f 229 249 237
f 231 201 249
f 231 249 232
f 231 232 201
f 170 220 229
f 170 229 179
f 170 119 151
f 170 151 174
f 170 174 220
f 129 100 143
f 146 154 139
f 146 139 171
f 146 171 154
f 166 157 180
f 166 133 127
f 166 127 128
f 166 128 157
f 161 133 173
f 153 171 139
f 153 130 129
f 153 129 143
f 153 167 171
f 96 89 90
f 96 90 101
f 41 76 36
f 41 36 42
f 41 42 81
f 41 81 76
f 88 94 90
f 88 52 94
f 125 127 100
f 125 100 52
f 125 52 55
f 125 55 58
f 125 58 64
f 125 64 56
f 125 56 126
f 125 126 127
f 114 128 78
f 208 197 211
f 208 211 212
f 216 219 211
f 216 211 215
f 216 215 258
f 216 258 242
f 216 242 219
f 233 219 242
f 233 242 253
f 233 253 244
f 233 244 234
f 233 234 212
f 233 212 219
f 163 191 142
f 163 160 178
f 163 178 191
f 156 142 191
f 156 191 206
f 120 142 156
f 120 113 117
f 120 117 124
f 207 221 214
f 207 214 177
f 207 177 221
f 241 240 258
f 241 258 250
f 241 250 214
f 241 214 221
f 241 221 240
f 239 214 250
f 239 250 246
f 238 191 178
f 238 243 191
f 112 106 101
f 155 148 198
f 155 198 235
f 155 160 163
f 155 144 148
f 203 212 234
f 203 234 187
f 203 187 183
f 203 183 197
f 203 197 208
f 203 208 212
f 168 154 183
f 168 183 187
f 168 187 198
f 168 198 154
f 83 93 103
f 61 49 76
f 97 103 122
f 97 122 123
f 97 123 68
f 97 68 82
f 97 82 83
f 97 83 103
f 60 45 38
f 60 38 49
f 60 49 61
f 60 61 68
f 60 68 67
f 60 67 62
f 60 62 45
f 63 45 62
f 63 62 71
f 136 124 99
f 74 67 77
f 74 77 91
f 74 62 67
f 107 99 91
f 107 91 105
f 75 91 99
f 4 1 21
f 4 5 1
f 22 23 5
f 22 5 4
f 22 4 21
f 22 21 24
f 22 24 28
f 22 28 23
f 48 49 35
f 48 35 76
f 48 76 49
f 104 16 20
f 104 151 119
f 104 119 16
f 147 174 151
f 86 118 147
f 86 147 151
f 86 151 104
f 86 104 20
f 19 14 11
f 19 17 33
f 19 118 86
f 19 86 20
f 19 20 16
f 19 16 14
f 10 11 5
f 10 5 23
f 37 34 39
f 37 39 40
f 43 40 50
f 43 50 42
f 43 42 36
f 43 36 40
f 51 56 50
f 47 42 50
f 47 50 52
f 47 52 42
f 66 59 78
f 66 78 56
f 69 119 78
f 69 78 59
f 69 59 39
f 69 39 119
f 223 222 213
f 223 213 232
f 223 232 222
f 196 180 232
f 196 232 213
f 224 222 232
f 224 232 226
f 251 252 255
f 251 255 249
f 251 249 220
f 251 220 246
f 251 246 250
f 251 250 252
f 152 169 119
f 152 119 170
f 152 170 179
f 152 179 182
f 152 182 169
f 194 201 232
f 194 232 180
f 194 180 169
f 194 169 182
f 194 237 201
f 98 100 129
f 98 111 112
f 98 112 101
f 98 101 94
f 98 52 100
f 115 129 130
f 115 130 112
f 115 112 111
f 115 111 98
f 115 98 129
f 209 215 195
f 193 195 215
f 185 173 166
f 184 166 180
f 184 180 196
f 164 133 166
f 164 166 173
f 164 173 133
f 159 167 153
f 159 153 143
f 159 143 127
f 159 127 133
f 159 133 161
f 159 161 167
f 53 52 88
f 53 88 42
f 53 42 52
f 87 81 42
f 87 42 88
f 87 88 90
f 158 169 180
f 158 119 169
f 116 119 158
f 116 128 114
f 116 114 78
f 116 78 119
f 134 142 120
f 134 120 124
f 199 214 239
f 199 220 174
f 199 174 177
f 199 177 214
f 247 253 243
f 247 243 238
f 247 238 248
f 247 248 253
f 192 235 238
f 192 238 178
f 192 178 160
f 192 160 155
f 192 155 235
f 245 234 244
f 245 244 253
f 245 253 248
f 245 248 238
f 245 238 235
f 135 106 112
f 135 112 130
f 135 130 153
f 135 153 139
f 135 139 131
f 135 131 106
f 236 235 198
f 236 198 227
f 236 227 234
f 236 234 245
f 236 245 235
f 205 187 234
f 205 234 227
f 205 227 198
f 205 198 187
f 150 144 155
f 150 155 163
f 150 163 142
f 80 81 83
f 80 83 82
f 80 82 68
f 80 68 61
f 80 61 76
f 80 76 81
f 137 136 99
f 137 99 107
f 137 107 105
f 137 105 144
f 73 71 75
f 85 92 73
f 85 73 75
f 85 75 99
f 85 99 92
f 79 74 91
f 79 91 75
f 79 75 71
f 108 113 120
f 108 120 121
f 108 121 118
f 108 19 33
f 108 33 92
f 108 92 109
f 108 109 113
f 46 17 30
f 46 28 45
f 15 19 11
f 15 11 10
f 15 17 19
f 25 10 23
f 25 23 28
f 25 28 46
f 25 46 30
f 12 17 15
f 12 15 10
f 12 10 25
f 12 25 30
f 12 30 17
f 32 2 8
f 32 8 34
f 32 34 37
f 32 37 40
f 44 40 51
f 44 51 50
f 44 50 40
f 57 59 66
f 57 66 56
f 57 56 51
f 57 51 40
f 57 40 59
f 225 237 194
f 225 194 182
f 225 182 179
f 225 179 229
f 225 229 237
f 95 52 98
f 95 98 94
f 95 94 52
f 210 217 209
f 218 226 228
f 218 228 215
f 218 215 209
f 218 209 217
f 218 217 226
f 190 211 197
f 190 197 183
f 190 183 171
f 190 171 167
f 190 167 193
f 190 193 215
f 190 215 211
f 172 185 166
f 204 209 195
f 204 195 185
f 186 193 167
f 186 167 161
f 186 161 173
f 186 173 185
f 186 185 195
f 186 195 193
f 176 166 184
f 176 189 185
f 176 185 172
f 176 172 166
f 84 81 87
f 84 87 90
f 84 90 89
f 84 89 96
f 84 96 101
f 84 101 93
f 84 93 83
f 84 83 81
f 165 157 128
f 165 128 158
f 165 158 180
f 165 180 157
f 141 128 116
f 141 116 158
f 141 158 128
f 202 206 221
f 202 221 175
f 202 175 156
f 202 156 206
f 132 138 142
f 132 142 134
f 132 134 124
f 132 124 136
f 162 175 221
f 162 221 177
f 162 177 174
f 230 220 199
f 230 199 239
f 230 239 246
f 230 246 220
f 140 136 137
f 140 137 144
f 140 144 150
f 140 150 142
f 140 142 138
f 140 138 132
f 140 132 136
f 70 63 71
f 70 71 73
f 65 33 17
f 65 70 73
f 65 73 92
f 65 92 33
f 72 74 79
f 72 79 71
f 72 71 62
f 72 62 74
f 110 19 108
f 110 108 118
f 29 2 32
f 29 32 40
f 29 40 31
f 29 31 2
f 200 213 222
f 200 222 224
f 200 224 226
f 200 226 217
f 200 217 210
f 200 210 209
f 200 209 204
f 200 204 185
f 200 185 189
f 145 175 162
f 145 162 120
f 145 120 156
f 145 156 175
f 149 121 120
f 149 120 162
f 149 162 174
f 149 174 147
f 149 147 118
f 149 118 121
f 54 46 45
f 54 45 63
f 54 63 70
f 54 70 65
f 54 65 17
f 54 17 46
f 188 196 213
f 188 213 200
f 188 200 184
f 188 184 196
f 181 176 184
f 181 184 200
f 181 200 189
f 181 189 176
f 118 19 110
