# Rhino

mtllib 19.06_sbe_l_12.mtl
usemtl diffuse_0_0_0_255
v 28.416673417062924 24.126865360333035 -8.9492633581161485
v 28.257207159357932 23.770712448663939 -10.085184836387635
v 28.201652884742401 23.647840862426275 -10.307170367240905
v 29.224984812480869 25.935559859355426 -5.3463651418685902
v 29.315423128279605 26.138797146246368 -5.4314985036849972
v 29.571215301276339 26.710779982704906 -6.0551061391830441
v 29.715131080117658 27.032699311518169 -6.4679933309555047
v 28.886411959289404 25.181497147226594 -6.2516225576400748
v 29.149205139715974 25.768830733681281 -5.4050401449203482
v 28.427124515581454 24.155932769753889 -10.945542073249817
v 29.843495390494951 27.32021665111149 -10.74201009273529
v 29.725780071463305 27.05735179197303 -6.7170930624008172
v 28.787882909931369 24.962125423175703 -11.251373505592346
v 29.840412909507052 27.313541426879109 -10.890962100028991
v 29.589175203179622 26.752722934862408 -11.215360379219055
v 29.816106460665708 27.259907674161028 -9.2930152654647813
v 28.30083999031865 23.874934621083515 -9.0858354330062863
v 29.430102188803431 26.398389678127039 -5.696566176414489
v 28.270018132266841 23.809031155341049 -9.2188253164291378
v 28.897294744984293 25.21278567972697 -6.1374974966049187
v 28.248125059549182 23.763545097341957 -10.692395186424255
v 29.802640953820429 27.23646433237483 -11.00746533870697
v 29.603221430582863 27.102420826548332 -6.4242196798324578
v 28.056036671444758 23.729673616084618 -8.9908136129379272
v 27.975250283721977 23.611406947244429 -10.36798493862152
v 27.969587746304938 23.68002653719369 -10.56038281917572
v 29.604692480673094 27.422647761397908 -10.955013251304626
v 27.892949220668328 23.624778297822917 -10.165335154533386
v 27.775029179604218 23.695974232153503 -10.425640559196472
v 28.366137726191766 25.079499495628802 -4.7938714742660515
v 27.84862516178211 23.94401890743621 -10.857291436195373
v 27.672422288629235 23.786860841752805 -10.627640700340271
v 27.593043996294597 23.679797531984839 -9.5415845632553093
v 27.515838251966102 23.814767478562576 -10.491843438148498
v 27.674461773336873 24.353595142919346 -4.7605584859848014
v 27.357894782014597 23.82033605422216 -5.852521681785583
v 28.725574321819892 26.952312554096849 -3.4965829610824581
v 27.21812254478499 23.767123376013696 -5.6269002676010125
v 27.260874733330894 24.016391285083376 -10.765184378623962
v 27.504441421488139 24.607974468592985 -11.179430699348449
v 27.048379621430513 23.689470766510993 -5.4767205953598017
v 27.032775881127804 23.70632791917717 -5.8816625356674184
v 27.922879508775424 26.065138703219134 -2.4791131734848015
v 27.497439387545455 25.365199436350842 -2.4572984457015981
v 27.622212859899406 25.69871684882197 -2.2765710592269883
v 26.994443849152191 24.311063556517457 -10.975040411949157
v 28.329915863370672 27.393331849107931 -2.9852998495101915
v 26.708540971286141 24.248295794063871 -10.788722252845764
v 26.464351583251641 23.855075550203484 -2.9620065450668331
v 26.419769965350014 23.81101699932038 -3.1081269979476929
v 28.218206979044453 27.83982100846643 -11.112506604194641
v 26.401107482589197 23.804545566370152 -3.3718782186508172
v 27.397594367742812 26.036895088070729 -1.6178445577621456
v 28.061079334764116 27.641896135201122 -2.605094313621521
v 27.359018119094287 26.219035142621205 -1.4181863546371449
v 26.225525609017666 23.842498194846943 -2.795066237449646
v 27.376985043102735 26.449633263524337 -1.2869012594223008
v 27.985954120997718 27.833504249839539 -4.2934434652328486
v 27.813753628428259 27.456577106487359 -1.8793420553207394
v 27.426331906569601 26.729061801756274 -1.3065828084945661
v 26.392363550933595 24.437152980989865 -10.856057620048523
v 28.082861946479284 28.221884723064505 -10.754449582099914
v 27.27003990571535 26.429166975565106 -1.1311425924301144
v 26.352060170200474 24.379883178079389 -10.63512704372406
v 27.840341876437805 27.754455452180256 -2.3951486349105835
v 27.75482213140188 27.630395894410849 -1.8260614156723012
v 28.00295242391141 28.256880322211419 -10.584039902687072
v 27.96092594746645 28.172590856272532 -11.036522603034973
v 26.128795188195284 24.271321558824198 -1.2678819417953484
v 27.928293300963674 28.301956385511357 -10.80079219341278
v 26.02582737796007 24.075553839950548 -1.3681184530258168
v 25.869891519936004 23.964877500774968 -1.3476091146469109
v 25.842246208354226 23.959316497294612 -1.7979097127914425
v 27.607959780546992 28.184979899058021 -6.1248018026351918
v 25.588670471816641 24.133803267722119 -0.70409944057464458
v 25.758589893759478 24.655070510705194 -10.603667712211609
v 26.400397802568364 26.186979149773137 0.042699265480042214
v 25.706410648525122 24.65682164828111 -10.374368643760681
v 25.484437235321423 24.242418372466076 -0.38753907680511368
v 26.298315876418258 26.067916887774995 0.11162016391754292
v 26.44235726916682 26.532004000774162 0.16437590122223078
v 27.167643506956978 28.42524777164472 -11.097438549995422
v 25.252585535583677 24.226188548007869 -0.21819016933441127
v 26.093221373708928 26.106489620089604 0.45646879673004292
v 25.086881138521534 24.224344329860422 -0.10177628993987931
v 25.136809911953208 24.874984118970133 -9.8548486471176133
v 26.475299177083087 28.297338359449025 -0.22485978603362966
v 24.413861511695785 24.499619435482558 1.0530752420425422
v 26.37892483347818 29.000844753337624 -10.920049166679382
v 24.404531306474638 24.633996928606983 1.2489362955093402
v 24.287421202145026 24.567620162985531 1.2623892068862919
v 25.964290714219686 28.37425484217318 1.0516866922378547
v 25.987271411937371 28.45544151156237 0.85496733188629292
v 24.168567696625445 24.551033568980287 1.175390458106996
v 25.463585527863131 27.918471269321714 2.2890081644058231
v 24.829949440233065 26.7887325924438 2.4673025369644179
v 25.340839958448868 27.943678754992053 2.4783056497573863
v 25.260081187213274 28.227173694293786 2.5300482034683238
v 22.997625087424439 25.913096580091782 4.0057409524917613
v 23.567157578179007 27.631183600237009 4.3630163431167617
v 22.325427737656355 25.333809227692424 3.9738287210464485
v 24.037868851469767 29.160622384931205 3.9408010721206672
v 23.910778492451982 28.965764594257024 4.3710104227066058
v 22.693117362904076 26.337710570451911 -10.903401589393615
v 23.910685012248194 29.131399366957833 4.333554673194886
v 22.169115334518096 25.318644058879251 3.9351629495620735
v 23.300931084550598 28.204762711100429 4.9529241800308252
v 23.661718030282771 29.011686498120056 4.7201147317886356
v 23.645965139806009 29.170672996579913 4.7027044534683231
v 23.525140060896774 29.147746865804624 4.8740606546401981
v 23.242841443481126 28.849720041281799 5.2011175394058231
v 22.285472893036143 26.733391244990699 -10.961778378486633
v 22.115590771671833 26.548646291669343 -10.839469647407531
v 21.935253571161894 26.523606554214417 -10.646356558799743
v 21.085672482134527 25.746071603555357 4.8832220315933252
v 21.160543348914473 26.956314916743729 -10.758633828163147
v 21.095644027317121 26.867067878513726 -10.313339400291442
v 20.663000561122686 27.026793870851179 -10.020650839805603
v 21.540225429884572 30.131764508318465 7.1911382913589481
v 19.574166262850923 26.331730610547201 7.1472921609878544
v 21.058308374329016 30.216650685610592 7.9386160135269161
v 21.556046560397306 31.333917939940299 -8.6908712148666378
v 20.980061387371194 30.362098569130165 7.8692297220230127
v 20.982319122448359 30.386958355200854 7.7609472513198856
v 20.75139250739258 30.197270194612248 8.3797674417495731
v 20.937098173129016 31.008699280530081 1.0328756570816058
v 19.06321612797376 27.851792681621973 -10.301794028282165
v 19.92369608343617 29.792680302362946 9.2619756937027002
v 19.267720066089367 28.726156195841156 9.5928350687026995
v 19.33162019910435 28.919756475050328 9.6312032938003558
v 20.091670680221881 30.791061687013883 8.104263901710512
v 18.795574458818152 28.091513493294006 -10.473640179634094
v 18.098576548639102 26.935653953949622 8.9103384256362919
v 18.93168218787406 28.809165050695277 9.8950079202651988
v 18.708770573929172 28.376643839014157 9.8549474954605127
v 18.258636765370426 27.529288383318971 9.6996649026870738
v 18.224438249225074 27.689481701197586 9.8357305765151981
v 18.17663655040792 27.673151134734034 -2.4235856771469102
v 20.153751894153032 32.101897856482317 -10.635240292549133
v 19.451072143158655 30.675553340355727 10.00983946323395
v 19.508142699479919 30.854482288801229 9.8075674295425426
v 20.024081884973697 32.158952464179251 -10.753227686882019
v 19.482431992128767 30.949717856398866 9.5874288797378551
v 17.77694548750577 27.235070677130082 9.8595846414566051
v 17.689961761325463 27.135533544870064 9.8164602518081683
v 18.213278245905087 28.380262384707734 -10.392333483695984
v 19.336755039238994 30.899530302405985 9.993036484718326
v 19.344151369775318 30.950523358160151 9.8731085062026995
v 17.587775616611026 27.152608489362922 9.7559911966323885
v 19.232544330800351 30.850051279413904 10.164447617530824
v 18.590285856157948 29.452234433462277 10.299973130226137
v 17.556481458794138 27.154319506425352 9.353856492042544
v 18.541798431113136 29.423741043730267 -11.014856314659118
v 17.547133555437142 27.21162206429787 9.9032690286636385
v 19.098563510265052 30.796304462905074 10.314034104347231
v 19.175831658329599 31.044470764359982 9.9270803689956697
v 17.350219771650103 27.2441452061835 9.7561819314956697
v 19.004764649085331 31.026216188982637 10.3187872171402
v 18.677523076997659 30.56466891482086 10.612074875831604
v 19.306254916336258 32.003947162215461 -1.8329095602035519
v 17.23240297003116 27.446621679721108 10.135344529151917
v 18.698848235422389 30.73345359792674 10.632063889503479
v 18.564846527288523 30.494456591362397 10.681923508644106
v 18.745080149844171 30.906417015410561 10.608910202980043
v 17.127693599758516 27.335238406187649 9.8689245462417627
v 18.755778690442526 31.079990612998834 10.50988829135895
v 17.168514775060089 27.647816319248072 10.269061875343324
v 18.534784031162275 30.864526119760104 10.744757676124573
v 19.082410155605231 32.460772519260559 -11.009557461738586
v 18.44312579215412 31.050866393489517 10.749631333351138
v 17.891279589830276 29.95811216162895 10.806355881690981
v 17.138570318942669 28.83787202359197 -10.023887419700623
v 16.775316411397995 28.211258456786055 10.69524748325348
v 17.282732000501056 29.381989613419439 -10.728837466239929
v 18.730326200838647 32.720181300739625 -10.865004277229309
v 16.790333721113228 28.409494707444136 10.77338926792145
v 18.038084245014943 31.421203450733209 10.793118882179263
v 16.704321392955364 28.639675866069446 10.894508957862856
v 17.944759432248958 31.520570619707474 10.787390732765198
v 16.568317633820556 28.453715575903693 10.861171555519105
v 16.804900602733909 29.056754394039171 -10.065378165245056
v 17.281181961646269 30.192811544383943 10.966025376319886
v 16.463271254821876 28.707795178603995 -5.2692369222640982
v 17.771834240613543 31.638128656910272 10.808115220069888
v 18.316841213798966 32.965608049102599 -10.307986998558045
v 16.014658735116456 27.841933128444765 10.05517179965973
v 17.560875265544269 31.551448985244548 10.97222502231598
v 16.612779298743419 29.521181447582165 -10.48714063167572
v 17.584335718514637 31.693517300697046 10.882054734230044
v 16.053285168329012 28.323388853483131 10.910622239112856
v 18.002685987586858 32.815617078208049 -11.106295800209045
v 17.475808361609978 31.863052063623314 10.104826951026917
v 17.406645849404697 31.730851150842987 10.930245041847231
v 15.959817337201258 28.607638180608099 11.091635727882386
v 16.806868790495059 30.5551125487139 11.082918381690982
v 16.122712580349543 29.053200981067985 11.140363144874575
v 16.160410353922344 29.244036639701154 -9.5043077230453488
v 17.819399634099767 33.172546463251912 -10.804147934913635
v 17.225397351500533 31.930705994668557 10.585863327980045
v 17.168957488763397 31.924334804885511 10.817210984230043
v 16.111121482387091 29.642452521613301 -10.136748766899109
v 16.995218217279103 31.61876273314283 11.053919053077701
v 17.212232457500136 32.105613621379668 -11.281938767433166
v 16.893246077625491 31.399815682143231 11.104414963722229
v 15.517962179048112 28.327591462539903 6.3075521707534801
v 17.646084676139537 33.160623576743554 -10.977639174461364
v 15.613133339269098 28.700787204273485 0.43624479770660507
v 16.944517579150869 31.858460985419082 11.007224106788636
v 17.348770096446401 32.826144312789928 -11.198957180976867
v 15.612919892256315 28.987994958124233 11.227513718605044
v 16.935326593851869 31.977359044815028 10.821416306495669
v 15.481187513184381 28.764501523105665 11.209799790382386
v 16.69042159982547 31.624009681422848 11.041487717628479
v 17.443370998712908 33.329695823450002 -9.4051435232162461
v 15.744341230779384 29.546512388503242 -9.6450759649276723
v 17.448795512976147 33.360413111597964 -10.657228446006775
v 15.885686127896605 29.881171581286846 11.226268601417543
v 15.690849593369393 29.468264509991535 -9.3289449453353868
v 16.640973668771068 31.714317046846158 -11.151255583763122
v 15.086484992367502 28.242778844311275 10.7535528421402
v 16.08791252736205 30.482230261663553 11.190228867530825
v 16.708482714520727 31.917537457163384 10.862509751319886
v 15.103075741593557 28.335071665898283 10.96643126010895
v 16.308107914293117 31.132363122332727 -11.027856087684631
v 15.081640514430603 28.429603977999712 8.061914658546451
v 15.096866073040474 28.518184060164899 11.102951645851137
v 15.684490842055368 29.848411406369493 -9.9293306112289415
v 14.998488548675766 28.316984190329137 10.542749619483951
v 15.180409776382476 28.745847897653977 11.215781235694886
v 16.737396619386345 32.236004935249454 9.237645554542544
v 15.257333251779357 28.966313045749484 11.279324936866763
v 16.558142328133016 31.883797631608296 10.732756638526917
v 16.414436728930553 31.578930055540258 10.960281968116762
v 14.971035981423114 28.363686263868203 10.227499985694886
v 16.484913899720794 31.762660511742808 10.840506577491761
v 17.24108737309308 33.472815384744599 -10.303194785118103
v 15.722316154695079 30.09342791383208 11.227394700050356
v 15.098825253060966 28.703689785828654 4.1008749246597294
v 15.48104206533128 29.564828590521383 -9.1450168371200551
v 15.030456105171112 28.571651572469079 6.5431341409683252
v 17.163563484487184 33.339873148500544 -10.975779509544372
v 16.721474104024395 32.391788801797169 7.241623520851137
v 15.25146498913216 29.107963250010478 -2.7685777425765981
v 14.955538393856017 28.508531761348607 8.2000189065933231
v 14.923552074949356 28.451666194305737 9.7758154153823877
v 14.913913250681418 28.459071718213004 9.9651495218276995
v 15.252027330286154 29.218759225579646 11.28193876743317
v 14.921342240064746 28.499292069789846 10.902379441261294
v 14.983172491116676 28.64903348252188 11.161275315284731
v 16.582906625969116 32.243938543876951 9.3430273294448885
v 15.428506214457997 29.697709705751603 -9.4575956106185899
v 15.061682750589483 28.892912270887653 11.254422593116763
v 14.918946530203073 28.5746084330871 10.56402189731598
v 16.278893419618214 31.618852657161312 10.792716050148011
v 14.916094042786852 28.584205717198508 8.5329275369644169
v 14.950265087492255 28.672354636159398 10.931276535987857
v 14.905139196964171 28.574184231856943 9.2692129373550447
v 17.05464043761981 33.390207611368751 -7.5846090078353878
v 14.984251127983356 28.773415783541193 11.039899277687075
v 16.605274103369226 32.400477898129836 7.3737554788589481
v 15.277244402868916 29.435797634682267 -6.86167619228363
v 16.301200766730943 31.728995546875193 10.423038315773011
v 15.671102382698848 30.340451136809989 11.211647629737856
v 16.620787407945755 32.467916106515197 -11.088563418388366
v 14.963394969317051 28.768773685377312 9.6776113748550419
v 15.140444153873375 29.187855035382896 -2.9632043600082394
v 15.557807620143592 30.16285481276061 11.1864141702652
v 16.325226890541643 31.879178933374853 9.8090627908706676
v 16.252316180804286 31.721135366583137 10.198314499855043
v 15.297475450110966 29.598452835104084 -8.5673703908920285
v 15.878206469022103 30.906728880333851 10.976691269874573
v 15.260779879475791 29.528377831718114 11.239154648780824
v 17.044952981337701 33.51910925591482 -10.18431327342987
v 15.249567336054724 29.528340608822205 -7.5819387197494503
v 16.948971975927151 33.331871748167359 -6.4239278554916375
v 15.789088742479862 30.779248525410214 10.969362473487857
v 15.882063993021603 30.995045752405368 10.867731308937076
v 16.148965178091032 31.599530241038771 10.218395066261293
v 16.811918246614454 33.084477693680611 -11.049421048164367
v 17.004856707899279 33.529468495560302 -10.729904389381408
v 15.281937401892122 29.697140015946772 -9.0971305608749375
v 15.788400382440841 30.839165761480864 10.876921677589417
v 15.875248921310174 31.039328302968119 10.705037522315981
v 15.202931053975192 29.539332835632099 -7.2066140890121453
v 15.086363545661413 29.290178485743915 -3.457959151268005
v 16.046583386163036 31.45136089293441 10.206569504737855
v 16.445115505121237 32.342335611448604 7.2380651712417627
v 16.355999618585741 32.193801076743263 8.3575048685073856
v 15.098857328923657 29.407231960090019 -4.8126592397689816
v 15.944504314837815 31.301152669438881 9.3758871316909822
v 16.280266859188998 32.072473460718086 8.5062490701675433
v 16.320496400309366 32.186108154417681 8.0363973855972315
v 16.920341473010865 33.526571562675173 -9.2554523229598988
v 16.224527874552564 31.979364006712881 8.268295884132387
v 15.763424430795197 30.99786659862076 -10.776628470420837
v 16.850692756593702 33.434835242448642 -7.7356950521469106
v 15.323592651863635 30.072726288612952 -9.7845210790634152
v 15.136904120257412 29.660795332800351 -7.6457990407943726
v 15.037700621998738 29.439545289667866 -3.6838723897933949
v 16.866821175831063 33.547009725857407 -9.4523742437362657
v 15.105696595781154 29.643444539888549 -3.6489618062973017
v 16.270018331459369 32.245806794143803 5.3022787332534786
v 15.177435038740185 29.810226594693432 -8.8523223638534532
v 16.035135124806459 31.745129495044925 -10.915030455589294
v 16.806098827028308 33.485395717234411 -8.5700586080551133
v 15.528039995074153 30.634620671780837 -10.432900404930114
v 15.13785667861049 29.781370387808629 -8.1415666341781616
v 15.194511985435554 29.969938164865965 -9.2978967428207397
v 16.752975358639787 33.509119958363598 -10.538466191291809
v 16.70040210467792 33.394695016819703 -10.8408047914505
v 15.195066548453838 30.054461593248806 -8.9885665655136098
v 16.402064210269941 32.762497380715537 -0.85628755092620779
v 15.204830469346348 30.097313727170743 -8.3108678579330437
v 15.345423528521252 30.417836119379455 -10.046227240562439
v 15.226736846003007 30.17361677508832 -8.6962476491928093
v 16.324466432562105 32.653297968231669 -0.76636216640472377
v 15.297468245251821 30.361717133422317 -9.6496357679367062
v 15.268605595109506 30.312276116714035 -9.174706053733825
v 15.597821117922138 31.061925343636993 -3.574557662010192
v 16.206757115560322 32.458278600281176 -0.70770509243011404
v 16.66963383768902 33.496964907828719 -9.4994737386703481
v 16.656395100750046 33.476478152760698 -10.078902411460875
v 15.448257986708825 30.818536028667069 -10.331739401817321
v 16.57783263477458 33.356453452823438 -8.4539785146713253
v 15.663824994439921 31.35112736160395 -10.729969954490661
v 16.505675298079836 33.247951647291956 -7.8789369344711293
v 15.530030939939536 31.081412034498435 -10.489316201210022
v 16.52829876259753 33.371961938675277 -9.874327445030211
v 15.6999888474611 31.553742218808765 -10.5317547082901
v 16.349041388623988 33.02203527204324 -10.895754313468933
v 16.462226471423378 33.329342198911533 -10.582025265693664
v 15.888231781046557 32.067729567357617 -10.674996590614318
v 16.385352145812504 33.200110594226054 -9.8050430059432969
v 16.304208521682739 33.04280780148239 -10.590912318229675
vn 0.91022294759750366 -0.41411018371582031 0.00263758166693151
vn 0.91224944591522217 -0.40963482856750488 -0.00055100023746490479
vn 0.72784489393234253 -0.68573904037475586 -0.0019367907661944628
vn 0.90123111009597778 -0.40333390235900879 0.15844336152076721
vn 0.94133991003036499 -0.27353048324584961 0.19763657450675964
vn 0.95637208223342896 -0.25301763415336609 0.14606326818466187
vn 0.9809841513633728 0.12636278569698334 0.14731790125370026
vn 0.89602077007293701 -0.44343346357345581 0.022660167887806892
vn 0.82479327917098999 -0.51561731100082397 0.23206639289855957
vn 0.49451389908790588 -0.5530780553817749 -0.67049288749694824
vn 0.97263693809509277 0.23222926259040833 0.0068527017720043659
vn 0.83212971687316895 0.54862761497497559 0.081042498350143433
vn 0.63467937707901001 -0.3794063925743103 -0.67322570085525513
vn 0.941020667552948 0.28012260794639587 -0.18976670503616333
vn 0.55034917593002319 -0.048404626548290253 -0.83353030681610107
vn 0.72376972436904907 0.68704360723495483 0.064252816140651703
vn 0.87990432977676392 -0.47388193011283875 0.034702334553003311
vn 0.95616275072097778 -0.16471293568611145 0.24212078750133514
vn 0.6432424783706665 -0.7553287148475647 0.12537027895450592
vn 0.79106146097183228 -0.59614723920822144 0.13722336292266846
vn 0.28675276041030884 -0.83147275447845459 -0.47584235668182373
vn 0.49478203058242798 0.35686925053596497 -0.79236042499542236
vn 0.53150928020477295 0.84175896644592285 0.094550162553787231
vn 0.42720872163772583 -0.89765924215316772 0.10816915333271027
vn -0.12394693493843079 -0.97808694839477539 -0.1672816127538681
vn -0.088929258286952972 -0.86495214700698853 -0.49391227960586548
vn 0.41056284308433533 0.77945035696029663 -0.47317573428153992
vn -0.25005441904067993 -0.96754348278045654 -0.036501456052064896
vn -0.35865598917007446 -0.91830211877822876 -0.16759210824966431
vn 0.736411452293396 -0.6083294153213501 0.29602944850921631
vn -0.083985172212123871 -0.64172732830047607 -0.76232051849365234
vn -0.28795066475868225 -0.87076795101165771 -0.39855682849884033
vn -0.35788387060165405 -0.93134832382202148 -0.067152172327041626
vn -0.39948669075965881 -0.90216439962387085 -0.16281822323799133
vn 0.66781938076019287 -0.71112531423568726 0.21981365978717804
vn 0.60523676872253418 -0.77625137567520142 0.17641504108905792
vn 0.91165071725845337 -0.018865551799535751 0.41053268313407898
vn 0.56635057926177979 -0.80560189485549927 0.17393262684345245
vn -0.25187370181083679 -0.75151759386062622 -0.60973840951919556
vn -0.075301967561244965 -0.2915785014629364 -0.95357829332351685
vn 0.13249844312667847 -0.98921126127243042 0.062491882592439651
vn -0.27425244450569153 -0.9610709547996521 -0.033588767051696777
vn 0.8232194185256958 -0.34745693206787109 0.44898051023483276
vn 0.76393318176269531 -0.52883970737457275 0.36977654695510864
vn 0.78212583065032959 -0.46314531564712524 0.41686397790908813
vn -0.21482132375240326 -0.58352982997894287 -0.78316330909729004
vn 0.85217946767807007 0.41486555337905884 0.31886789202690125
vn -0.37656512856483459 -0.84104758501052856 -0.38837826251983643
vn 0.5302155613899231 -0.820762038230896 0.2126525491476059
vn 0.10024411231279373 -0.99027520418167114 0.096468336880207062
vn 0.17209410667419434 0.32000336050987244 -0.93165522813796997
vn -0.23032836616039276 -0.97303211688995361 -0.012543843127787113
vn 0.77603858709335327 -0.40381532907485962 0.48445567488670349
vn 0.69641029834747314 0.6843644380569458 0.21600468456745148
vn 0.79124867916107178 -0.35960248112678528 0.49458223581314087
vn -0.32443082332611084 -0.9455680251121521 -0.025410700589418411
vn 0.83530968427658081 -0.23094548285007477 0.49892079830169678
vn 0.47092440724372864 0.879203200340271 0.072332501411437988
vn 0.87577593326568604 0.1040300652384758 0.47137489914894104
vn 0.85839980840682983 -0.10879766196012497 0.50131112337112427
vn -0.32689598202705383 -0.68864846229553223 -0.64722657203674316
vn 0.45464843511581421 0.89028996229171753 0.026049381121993065
vn 0.80082321166992188 -0.29438740015029907 0.521553635597229
vn -0.41814735531806946 -0.89166927337646484 -0.17343209683895111
vn 0.49885076284408569 0.86200714111328125 0.089953623712062836
vn 0.84561461210250854 0.35555738210678101 0.39813920855522156
vn 0.44822788238525391 0.89298057556152344 0.040956292301416397
vn 0.29435825347900391 0.59400004148483276 -0.74867695569992065
vn 0.73936748504638672 -0.50559419393539429 0.44464617967605591
vn 0.44662681221961975 0.89157211780548096 -0.074991025030612946
vn 0.66217637062072754 -0.66348057985305786 0.34830433130264282
vn 0.23504462838172913 -0.93821543455123901 0.25398004055023193
vn -0.31602999567985535 -0.94874858856201172 -0.0010803943732753396
vn 0.4543144702911377 0.88854789733886719 0.063883125782012939
vn 0.38847294449806213 -0.83112150430679321 0.3979017436504364
vn -0.42719137668609619 -0.8925473690032959 -0.14445306360721588
vn 0.78731280565261841 -0.33656466007232666 0.51658761501312256
vn -0.42659932374954224 -0.89994817972183228 -0.090034835040569305
vn 0.55952709913253784 -0.67959630489349365 0.47442412376403809
vn 0.76646244525909424 -0.40600824356079102 0.49768725037574768
vn 0.79791122674942017 -0.27416899800300598 0.53681373596191406
vn 0.15286044776439667 0.30891022086143494 -0.93872690200805664
vn 0.30055493116378784 -0.87526625394821167 0.37891381978988647
vn 0.74427270889282227 -0.38616117835044861 0.54491990804672241
vn -0.045482106506824493 -0.98092013597488403 0.18901608884334564
vn -0.42857551574707031 -0.89990699291229248 -0.080563388764858246
vn 0.46832934021949768 0.87996256351470947 0.079583562910556793
vn 0.22110337018966675 -0.89880979061126709 0.37848943471908569
vn 0.39080631732940674 0.80926990509033203 -0.43858030438423157
vn 0.55837368965148926 -0.62471812963485718 0.54584437608718872
vn 0.41109246015548706 -0.75981640815734863 0.50366854667663574
vn 0.79548555612564087 0.47094923257827759 0.38132604956626892
vn 0.60711580514907837 0.77039694786071777 0.19467659294605255
vn -0.30255264043807983 -0.95240038633346558 0.037355437874794006
vn 0.85029399394989014 -0.076098427176475525 0.52077740430831909
vn 0.7122490406036377 -0.36175826191902161 0.6015249490737915
vn 0.79535061120986938 -0.10737360268831253 0.59656375646591187
vn 0.84188014268875122 0.24050220847129822 0.48311132192611694
vn 0.62306028604507446 -0.49236589670181274 0.60775953531265259
vn 0.69829100370407104 -0.33973625302314758 0.63005471229553223
vn 0.34212183952331543 -0.79975378513336182 0.49330168962478638
vn 0.58528685569763184 0.78430753946304321 0.20567198097705841
vn 0.81840163469314575 0.11273254454135895 0.5634804368019104
vn -0.2335614413022995 -0.43035709857940674 -0.87191849946975708
vn 0.79460352659225464 0.39288789033889771 0.46286538243293762
vn -0.16410242021083832 -0.97291678190231323 0.16279849410057068
vn 0.72726917266845703 -0.24511517584323883 0.64109134674072266
vn 0.79798835515975952 0.045723423361778259 0.60093587636947632
vn 0.80027890205383301 0.19436256587505341 0.56725382804870605
vn 0.79763883352279663 0.14408119022846222 0.58567303419113159
vn 0.75512421131134033 -0.14200383424758911 0.64001739025115967
vn -0.19072967767715454 -0.30577695369720459 -0.93280363082885742
vn -0.30523180961608887 -0.57998561859130859 -0.75528156757354736
vn -0.42344421148300171 -0.86058121919631958 -0.28301060199737549
vn -0.41820555925369263 -0.90697544813156128 -0.049996916204690933
vn -0.36272099614143372 -0.66683816909790039 -0.65096879005432129
vn -0.43138140439987183 -0.88880676031112671 -0.15470165014266968
vn -0.43456363677978516 -0.89650571346282959 -0.086208552122116089
vn 0.66419458389282227 0.67732328176498413 0.31635227799415588
vn -0.31508633494377136 -0.94761866331100464 0.052339430898427963
vn 0.76946502923965454 0.40957954525947571 0.49006956815719604
vn 0.43549630045890808 0.89882981777191162 0.049476053565740585
vn 0.6254192590713501 0.72933948040008545 0.27733504772186279
vn 0.48832505941390991 0.8638196587562561 0.1239122748374939
vn 0.79525870084762573 0.13918428122997284 0.59007740020751953
vn 0.44062089920043945 0.89466142654418945 0.073716789484024048
vn -0.4475252628326416 -0.86175411939620972 -0.23895817995071411
vn 0.73182284832000732 -0.18546512722969055 0.655772864818573
vn 0.61921101808547974 -0.39409154653549194 0.67916828393936157
vn 0.65372592210769653 -0.26346796751022339 0.7093849778175354
vn 0.43373212218284607 0.89740020036697388 0.080927848815917969
vn -0.41193050146102905 -0.68353021144866943 -0.6025775671005249
vn -0.35570913553237915 -0.93430632352828979 0.023294894024729729
vn 0.52405470609664917 -0.30968454480171204 0.79338651895523071
vn 0.50498896837234497 -0.35564926266670227 0.78644752502441406
vn 0.57259625196456909 -0.48813813924789429 0.65867650508880615
vn 0.49094796180725098 -0.39063778519630432 0.77869904041290283
vn -0.43280896544456482 -0.89913558959960938 -0.06505092978477478
vn 0.43325874209403992 0.90123093128204346 0.0083490284159779549
vn 0.73457109928131104 0.024262676015496254 0.67809778451919556
vn 0.68767827749252319 0.57894611358642578 0.43808680772781372
vn 0.41797429323196411 0.87977588176727295 -0.22647698223590851
vn 0.49893459677696228 0.84899812936782837 0.17397238314151764
vn 0.3797089159488678 -0.51508712768554688 0.76844412088394165
vn -0.032874554395675659 -0.91112750768661499 0.41081124544143677
vn -0.45487657189369202 -0.74966049194335938 -0.48072487115859985
vn 0.70998179912567139 0.43838465213775635 0.55113041400909424
vn 0.55024039745330811 0.78833508491516113 0.27525126934051514
vn -0.32556149363517761 -0.93966424465179443 0.10507534444332123
vn 0.70359742641448975 0.35355159640312195 0.61640238761901855
vn 0.4184633195400238 -0.30598422884941101 0.85513865947723389
vn -0.39246505498886108 -0.91970086097717285 -0.011024584993720055
vn -0.14576449990272522 -0.21033605933189392 -0.96670132875442505
vn -0.018079193308949471 -0.75328248739242554 0.65744858980178833
vn 0.66427087783813477 0.11880048364400864 0.73799091577529907
vn 0.51601511240005493 0.82010799646377563 0.24728778004646301
vn -0.36339828372001648 -0.93120193481445313 0.028366776183247566
vn 0.63027983903884888 0.57525306940078735 0.52137434482574463
vn 0.61031335592269897 -0.18936027586460114 0.76919454336166382
vn 0.42201364040374756 0.90446579456329346 0.062017206102609634
vn 0.13930992782115936 -0.56952190399169922 0.81008487939834595
vn 0.58875399827957153 -0.10757118463516235 0.80112242698669434
vn 0.47318997979164124 -0.23289234936237335 0.84961897134780884
vn 0.59294712543487549 0.19308818876743317 0.78174847364425659
vn -0.36586841940879822 -0.9282224178314209 0.067404814064502716
vn 0.54855227470397949 0.48851624131202698 0.67855900526046753
vn 0.23332440853118896 -0.48090997338294983 0.8451540470123291
vn 0.32380375266075134 -0.022210210561752319 0.94586354494094849
vn 0.31753110885620117 0.67176032066345215 -0.6692623496055603
vn 0.45925003290176392 0.31782650947570801 0.82950329780578613
vn 0.29956895112991333 -0.1817045658826828 0.93661189079284668
vn -0.48062664270401001 -0.81966525316238403 -0.31168389320373535
vn 0.24094210565090179 -0.44451165199279785 0.86276084184646606
vn -0.30305269360542297 -0.40740638971328735 -0.86149817705154419
vn 0.38373476266860962 0.80833327770233154 -0.44648057222366333
vn 0.36031609773635864 -0.33768543601036072 0.86956357955932617
vn 0.45686593651771545 0.44665709137916565 0.76926648616790771
vn 0.31263312697410583 -0.28438347578048706 0.9063037633895874
vn 0.49730005860328674 0.57969582080841064 0.64548075199127197
vn 0.26049846410751343 -0.37223714590072632 0.8908311128616333
vn -0.49020570516586304 -0.75036406517028809 -0.44345474243164063
vn 0.201300248503685 -0.054380051791667938 0.97801893949508667
vn -0.44248113036155701 -0.8938102126121521 -0.072895288467407227
vn 0.47648555040359497 0.81214064359664917 0.33673301339149475
vn 0.42832547426223755 0.90284115076065063 0.037618670612573624
vn -0.42874741554260254 -0.90184468030929565 -0.053402718156576157
vn 0.28747466206550598 0.27449452877044678 0.91761159896850586
vn -0.48183029890060425 -0.57735776901245117 -0.65916430950164795
vn 0.39610928297042847 0.58681678771972656 0.70621770620346069
vn 0.099075429141521454 -0.55209821462631226 0.82787173986434937
vn 0.19290854036808014 0.45326977968215942 -0.87024873495101929
vn 0.41400986909866333 0.9068259596824646 0.079136066138744354
vn 0.30657356977462769 0.60204696655273438 0.73725986480712891
vn 0.17942546308040619 -0.35342463850975037 0.91809451580047607
vn 0.19466598331928253 -0.04872223362326622 0.97965878248214722
vn 0.21517856419086456 -0.10828396677970886 0.97055280208587646
vn -0.476063072681427 -0.85757964849472046 -0.19473329186439514
vn 0.38506141304969788 0.8730778694152832 -0.2991032600402832
vn 0.3958381712436676 0.91325682401657104 0.096302486956119537
vn 0.32051655650138855 0.8738599419593811 0.36556524038314819
vn -0.55339610576629639 -0.61361092329025269 -0.56323564052581787
vn 0.12550784647464752 0.19190210103988647 0.97335571050643921
vn -0.11459474265575409 -0.0023238984867930412 -0.99340963363647461
vn 0.077639110386371613 0.081782206892967224 0.9936215877532959
vn -0.44190725684165955 -0.89493465423583984 -0.061724744737148285
vn 0.31455260515213013 0.7471848726272583 -0.58546680212020874
vn -0.43459469079971313 -0.89829659461975098 -0.064735643565654755
vn 0.015344296582043171 0.53349018096923828 0.84566706418991089
vn 0.027458660304546356 0.26831924915313721 -0.96293860673904419
vn 0.16836366057395935 -0.12399991601705551 0.97789454460144043
vn 0.048375800251960754 0.94543957710266113 0.32218596339225769
vn 0.096054017543792725 -0.31763523817062378 0.94333529472351074
vn -0.20000162720680237 0.31629174947738647 0.92733967304229736
vn 0.41944554448127747 0.90623539686203003 0.052941497415304184
vn -0.54356908798217773 -0.72325849533081055 -0.42594572901725769
vn 0.39638769626617432 0.91188526153564453 -0.10649900138378143
vn 0.12060015648603439 -0.01029104832559824 0.99264782667160034
vn -0.50739544630050659 -0.84192079305648804 -0.18362800776958466
vn -0.28389918804168701 0.004861130379140377 -0.95884180068969727
vn -0.45969289541244507 -0.87693309783935547 0.14025256037712097
vn 0.051221054047346115 0.047795511782169342 0.99754297733306885
vn -0.36472991108894348 0.78822106122970581 0.49566084146499634
vn -0.28041768074035645 -0.70655268430709839 0.6497301459312439
vn -0.26306208968162537 -0.15206773579120636 -0.95271915197372437
vn -0.52345472574234009 -0.84997409582138062 -0.059491418302059174
vn -0.016804879531264305 -0.51589781045913696 0.85648530721664429
vn -0.57382827997207642 -0.56531161069869995 -0.59257400035858154
vn -0.74713134765625 -0.66467475891113281 -0.0014867647551000118
vn -0.014831613749265671 -0.35685819387435913 0.93404084444046021
vn 0.23794522881507874 0.96649682521820068 0.096260100603103638
vn 0.048750534653663635 -0.13324415683746338 0.98988354206085205
vn -0.57421469688415527 0.7666354775428772 0.28731086850166321
vn -0.46564489603042603 0.51361268758773804 0.72067803144454956
vn -0.79508113861083984 -0.6059035062789917 -0.026960387825965881
vn -0.54296332597732544 0.65970134735107422 0.51960080862045288
vn 0.35362175107002258 0.93536430597305298 0.0067308414727449417
vn 0.033821661025285721 0.054284535348415375 0.99795252084732056
vn -0.52358776330947876 -0.84977048635482788 -0.061204042285680771
vn -0.55373531579971313 -0.81323933601379395 -0.1789383739233017
vn -0.5703243613243103 -0.81929641962051392 -0.059021018445491791
vn 0.04604826495051384 0.59510046243667603 -0.80233097076416016
vn 0.22191557288169861 0.97240191698074341 0.072027832269668579
vn -0.46537366509437561 -0.88262921571731567 -0.066279470920562744
vn -0.79781967401504517 -0.60118889808654785 -0.045339442789554596
vn -0.85314995050430298 -0.52076458930969238 -0.03065011091530323
vn -0.93540394306182861 -0.35343563556671143 -0.010136150754988194
vn -0.094014726579189301 0.05987292155623436 0.99376881122589111
vn -0.95200103521347046 -0.2608942985534668 0.1600881814956665
vn -0.71742653846740723 -0.24789048731327057 0.65103721618652344
vn -0.39483022689819336 0.9066740870475769 0.14849632978439331
vn -0.62837857007980347 -0.70669299364089966 -0.32515439391136169
vn -0.51073664426803589 0.0098036099225282669 0.85968130826950073
vn -0.98377436399459839 0.17845478653907776 0.018491385504603386
vn -0.7242119312286377 0.60902166366577148 0.32343432307243347
vn -0.97031062841415405 -0.24059478938579559 -0.024727122858166695
vn -0.97541213035583496 0.20704242587089539 0.075528658926486969
vn -0.99898332357406616 0.045074112713336945 0.00083069148240610957
vn 0.33911454677581787 0.93850517272949219 0.064879894256591797
vn -0.95520317554473877 0.27903062105178833 0.098634898662567139
vn -0.088469251990318298 0.99357783794403076 0.070543006062507629
vn -0.49187546968460083 -0.86691927909851074 -0.08068123459815979
vn -0.70952558517456055 0.68782603740692139 0.1531950980424881
vn -0.41838076710700989 0.32165360450744629 0.84940952062606812
vn -0.32128286361694336 0.11024671047925949 -0.94054394960403442
vn -0.95259588956832886 0.30403551459312439 0.011113268323242664
vn -0.62890464067459106 -0.77480983734130859 -0.064410068094730377
vn -0.79950857162475586 0.42302605509757996 0.42642113566398621
vn -0.73203837871551514 0.66840827465057373 0.13172027468681335
vn -0.73958003520965576 0.65971624851226807 0.13340097665786743
vn -0.60563349723815918 -0.78945475816726685 -0.099846072494983673
vn -0.69258385896682739 0.50396955013275146 0.51608365774154663
vn -0.85691952705383301 0.36557897925376892 0.36337432265281677
vn 0.21684145927429199 0.97615838050842285 0.0097267646342515945
vn -0.687031090259552 -0.7226938009262085 -0.075511284172534943
vn 0.16649699211120605 0.98365300893783569 0.068596601486206055
vn -0.80268245935440063 0.46579495072364807 0.37247273325920105
vn -0.79949969053268433 0.52222263813018799 0.29678910970687866
vn -0.77242368459701538 0.62164771556854248 0.13006070256233215
vn -0.23091252148151398 0.29800501465797424 -0.92621403932571411
vn 0.15352414548397064 0.95730394124984741 -0.24494786560535431
vn -0.76504373550415039 -0.61130452156066895 -0.20252127945423126
vn -0.88081681728363037 0.44921311736106873 0.14956362545490265
vn -0.84789329767227173 0.51031571626663208 0.14371801912784576
vn -0.73802918195724487 -0.67109251022338867 -0.070340044796466827
vn -0.84814649820327759 -0.52746385335922241 -0.04928913339972496
vn -0.87066751718521118 0.48477056622505188 0.083280116319656372
vn -0.54574805498123169 0.83601903915405273 0.056844461709260941
vn -0.70495426654815674 0.70274257659912109 0.095877021551132202
vn -0.80776739120483398 -0.58638399839401245 -0.060545004904270172
vn -0.91442763805389404 0.40388476848602295 0.026441391557455063
vn -0.84156763553619385 0.53558367490768433 0.070100553333759308
vn -0.79769396781921387 0.6017490029335022 0.039780259132385254
vn 0.20994038879871368 0.97611546516418457 0.055889327079057693
vn -0.90011698007583618 0.43462815880775452 0.029796598479151726
vn -0.47870194911956787 -0.22148354351520538 -0.84958195686340332
vn 0.041352760046720505 0.99690461158752441 0.066866204142570496
vn -0.74310702085494995 -0.48205840587615967 -0.46412459015846252
vn -0.86468243598937988 -0.49728825688362122 -0.070913277566432953
vn -0.9995114803314209 -0.026352610439062119 -0.01680373027920723
vn 0.017723070457577705 0.99950152635574341 0.026127101853489876
vn -0.94892549514770508 0.31532412767410278 0.010541870258748531
vn -0.88740575313568115 0.46025672554969788 0.025975652039051056
vn -0.93890005350112915 -0.32842844724655151 -0.10296312719583511
vn -0.42763489484786987 0.053570982068777084 -0.90236276388168335
vn -0.19422435760498047 0.97909808158874512 0.060364734381437302
vn -0.70975762605667114 -0.31697231531143188 -0.6291046142578125
vn -0.99886196851730347 -0.027719238772988319 -0.038813240826129913
vn -0.98378676176071167 -0.093786604702472687 -0.15286487340927124
vn -0.349913090467453 0.93063044548034668 -0.10718093067407608
vn -0.36155080795288086 0.7294539213180542 -0.58067023754119873
vn -0.97561341524124146 0.2186414897441864 -0.019347812980413437
vn -0.76188123226165771 0.64680987596511841 0.034262713044881821
vn -0.9550940990447998 0.29623672366142273 0.0062485146336257458
vn -0.94678843021392822 -0.060978032648563385 -0.31602743268013
vn -0.95896667242050171 0.28351891040802002 5.6776258134050295E-05
vn -0.8282286524772644 0.55964964628219604 0.028802439570426941
vn -0.97395360469818115 0.21844829618930817 -0.060783848166465759
vn -0.95435494184494019 0.29860565066337585 -0.0064276782795786858
vn -0.93790954351425171 0.34664562344551086 0.01274633314460516
vn -0.90182989835739136 0.43158420920372009 0.020926991477608681
vn -0.48477789759635925 0.87428593635559082 0.02478904090821743
vn -0.5059170126914978 0.86209118366241455 -0.029099693521857262
vn -0.95107728242874146 0.087676718831062317 -0.29625117778778076
vn -0.70038151741027832 0.7127564549446106 0.037999812513589859
vn -0.78594225645065308 0.075401552021503448 -0.61368513107299805
vn -0.75430434942245483 0.65569204092025757 0.033058203756809235
vn -0.95554530620574951 0.26550215482711792 -0.12822552025318146
vn -0.72658133506774902 0.68643766641616821 0.029714867472648621
vn -0.94018185138702393 0.34065303206443787 -0.0036888273898512125
vn -0.6700594425201416 0.37114527821540833 -0.64286196231842041
vn -0.70553821325302124 0.70282185077667236 -0.090869776904582977
vn -0.92780095338821411 0.35509577393531799 -0.11442174762487411
vn -0.83508026599884033 0.54970341920852661 0.021613312885165215
vn -0.89956307411193848 0.43269184231758118 -0.059700023382902145
f 74//74 122//122 160//160
f 7//7 37//37 6//6
f 34//34 76//76 64//64
f 99//99 100//100 129//129
f 96//96 100//100 99//99
f 96//96 99//99 84//84
f 130//130 129//129 100//100
f 130//130 100//100 107//107
f 97//97 107//107 100//100
f 97//97 100//100 96//96
f 97//97 96//96 84//84
f 97//97 84//84 95//95
f 259//259 319//319 265//265
f 214//214 160//160 122//122
f 126//126 74//74 160//160
f 126//126 160//160 192//192
f 67//67 122//122 74//74
f 67//67 139//139 122//122
f 16//16 67//67 74//74
f 11//11 67//67 16//16
f 11//11 16//16 7//7
f 47//47 37//37 7//7
f 47//47 7//7 54//54
f 47//47 54//54 66//66
f 47//47 66//66 37//37
f 40//40 13//13 10//10
f 333//333 326//326 331//331
f 333//333 331//331 334//334
f 313//313 315//315 311//311
f 313//313 301//301 265//265
f 320//320 333//333 334//334
f 320//320 334//334 332//332
f 320//320 332//332 319//319
f 329//329 319//319 332//332
f 318//318 315//315 313//313
f 318//318 313//313 265//265
f 318//318 265//265 319//319
f 318//318 311//311 315//315
f 308//308 307//307 311//311
f 120//120 152//152 115//115
f 90//90 88//88 79//79
f 90//90 79//79 84//84
f 90//90 84//84 99//99
f 90//90 99//99 101//101
f 171//171 196//196 178//178
f 171//171 178//178 163//163
f 171//171 163//163 168//168
f 171//171 168//168 196//196
f 195//195 168//168 204//204
f 195//195 204//204 217//217
f 195//195 217//217 196//196
f 93//93 66//66 54//54
f 93//93 54//54 65//65
f 98//98 95//95 66//66
f 98//98 97//97 95//95
f 105//105 97//97 98//98
f 105//105 93//93 102//102
f 105//105 102//102 119//119
f 59//59 37//37 66//66
f 59//59 66//66 95//95
f 59//59 95//95 37//37
f 128//128 140//140 130//130
f 128//128 130//130 107//107
f 108//108 105//105 109//109
f 83//83 79//79 88//88
f 165//165 220//220 152//152
f 186//186 115//115 152//152
f 186//186 152//152 220//220
f 69//69 84//84 79//79
f 256//256 259//259 265//265
f 249//249 252//252 259//259
f 249//249 259//259 256//256
f 249//249 256//256 248//248
f 154//154 220//220 145//145
f 136//136 99//99 129//129
f 136//136 129//129 137//137
f 194//194 212//212 226//226
f 194//194 180//180 178//178
f 194//194 178//178 196//196
f 144//144 145//145 101//101
f 144//144 101//101 99//99
f 144//144 99//99 136//136
f 144//144 136//136 137//137
f 144//144 154//154 145//145
f 278//278 286//286 254//254
f 283//283 254//254 286//286
f 283//283 277//277 254//254
f 294//294 290//290 286//286
f 294//294 320//320 290//290
f 142//142 236//236 139//139
f 185//185 236//236 214//214
f 185//185 214//214 122//122
f 185//185 122//122 139//139
f 185//185 139//139 236//236
f 258//258 214//214 236//236
f 258//258 192//192 160//160
f 258//258 160//160 214//214
f 322//322 331//331 321//321
f 328//328 321//321 331//331
f 328//328 331//331 326//326
f 131//131 126//126 192//192
f 131//131 192//192 143//143
f 23//23 16//16 65//65
f 23//23 65//65 54//54
f 23//23 54//54 7//7
f 58//58 65//65 16//16
f 58//58 16//16 74//74
f 58//58 74//74 65//65
f 3//3 10//10 13//13
f 33//33 76//76 34//34
f 48//48 64//64 76//76
f 48//48 32//32 34//34
f 48//48 34//34 64//64
f 118//118 76//76 86//86
f 205//205 115//115 186//186
f 205//205 186//186 220//220
f 312//312 326//326 333//333
f 316//316 333//333 320//320
f 316//316 320//320 292//292
f 316//316 292//292 312//312
f 316//316 312//312 333//333
f 174//174 295//295 224//224
f 174//174 224//224 153//153
f 112//112 116//116 174//174
f 112//112 174//174 153//153
f 112//112 153//153 40//40
f 317//317 311//311 318//318
f 317//317 318//318 323//323
f 317//317 308//308 311//311
f 327//327 329//329 332//332
f 327//327 323//323 318//318
f 327//327 318//318 319//319
f 327//327 319//319 329//329
f 303//303 307//307 308//308
f 303//303 308//308 281//281
f 303//303 281//281 298//298
f 303//303 298//298 307//307
f 314//314 308//308 317//317
f 314//314 317//317 323//323
f 314//314 323//323 306//306
f 149//149 120//120 145//145
f 149//149 145//145 220//220
f 149//149 220//220 165//165
f 91//91 88//88 90//90
f 91//91 90//90 101//101
f 91//91 101//101 88//88
f 235//235 232//232 254//254
f 235//235 254//254 233//233
f 222//222 232//232 235//235
f 222//222 235//235 233//233
f 162//162 168//168 163//163
f 159//159 140//140 162//162
f 159//159 162//162 163//163
f 159//159 163//163 130//130
f 159//159 130//130 140//140
f 184//184 179//179 158//158
f 182//182 168//168 195//195
f 182//182 195//195 196//196
f 182//182 196//196 168//168
f 87//87 74//74 126//126
f 87//87 126//126 93//93
f 87//87 93//93 65//65
f 87//87 65//65 74//74
f 92//92 66//66 93//93
f 92//92 93//93 105//105
f 92//92 105//105 98//98
f 92//92 98//98 66//66
f 81//81 95//95 84//84
f 60//60 95//95 57//57
f 60//60 57//57 37//37
f 60//60 37//37 95//95
f 43//43 37//37 57//57
f 55//55 53//53 43//43
f 55//55 43//43 57//57
f 125//125 140//140 108//108
f 111//111 128//128 107//107
f 111//111 107//107 97//97
f 111//111 97//97 108//108
f 111//111 108//108 140//140
f 111//111 140//140 128//128
f 103//103 105//105 108//108
f 103//103 108//108 97//97
f 103//103 97//97 105//105
f 80//80 84//84 69//69
f 80//80 69//69 53//53
f 80//80 53//53 55//55
f 253//253 248//248 256//256
f 253//253 256//256 265//265
f 253//253 265//265 257//257
f 253//253 257//257 248//248
f 221//221 217//217 204//204
f 272//272 290//290 320//320
f 272//272 320//320 319//319
f 272//272 319//319 259//259
f 272//272 259//259 252//252
f 213//213 233//233 263//263
f 213//213 263//263 204//204
f 271//271 254//254 277//277
f 271//271 277//277 276//276
f 271//271 276//276 263//263
f 271//271 263//263 233//233
f 271//271 233//233 254//254
f 223//223 220//220 154//154
f 223//223 226//226 249//249
f 223//223 249//249 248//248
f 223//223 248//248 220//220
f 229//229 212//212 231//231
f 229//229 231//231 252//252
f 229//229 252//252 249//249
f 229//229 249//249 226//226
f 229//229 226//226 212//212
f 134//134 163//163 151//151
f 134//134 129//129 130//130
f 134//134 130//130 163//163
f 247//247 263//263 272//272
f 247//247 272//272 252//252
f 247//247 252//252 231//231
f 247//247 231//231 217//217
f 210//210 196//196 217//217
f 210//210 217//217 231//231
f 210//210 231//231 212//212
f 210//210 212//212 194//194
f 210//210 194//194 196//196
f 190//190 226//226 223//223
f 190//190 194//194 226//226
f 176//176 178//178 180//180
f 176//176 144//144 137//137
f 176//176 137//137 151//151
f 176//176 151//151 163//163
f 176//176 163//163 178//178
f 291//291 286//286 278//278
f 291//291 292//292 294//294
f 291//291 294//294 286//286
f 282//282 290//290 272//272
f 282//282 272//272 276//276
f 282//282 276//276 277//277
f 282//282 277//277 283//283
f 282//282 283//283 286//286
f 282//282 286//286 290//290
f 302//302 320//320 294//294
f 302//302 294//294 292//292
f 198//198 142//142 175//175
f 198//198 175//175 206//206
f 198//198 206//206 280//280
f 70//70 11//11 14//14
f 70//70 142//142 139//139
f 70//70 139//139 67//67
f 250//250 230//230 260//260
f 250//250 232//232 222//222
f 250//250 222//222 211//211
f 250//250 211//211 230//230
f 305//305 321//321 260//260
f 305//305 260//260 296//296
f 305//305 296//296 300//300
f 305//305 300//300 321//321
f 275//275 296//296 260//260
f 169//169 206//206 175//175
f 169//169 175//175 68//68
f 273//273 280//280 300//300
f 273//273 300//300 236//236
f 273//273 236//236 280//280
f 309//309 322//322 321//321
f 309//309 321//321 300//300
f 309//309 300//300 280//280
f 309//309 280//280 310//310
f 309//309 310//310 331//331
f 309//309 331//331 322//322
f 324//324 321//321 328//328
f 324//324 328//328 326//326
f 324//324 326//326 312//312
f 324//324 312//312 292//292
f 241//241 310//310 280//280
f 241//241 280//280 206//206
f 22//22 14//14 15//15
f 82//82 15//15 209//209
f 124//124 102//102 93//93
f 124//124 93//93 126//126
f 124//124 126//126 131//131
f 124//124 131//131 143//143
f 12//12 16//16 23//23
f 12//12 23//23 7//7
f 12//12 7//7 16//16
f 18//18 37//37 5//5
f 18//18 5//5 6//6
f 18//18 6//6 37//37
f 2//2 15//15 14//14
f 2//2 14//14 11//11
f 2//2 11//11 1//1
f 2//2 1//1 3//3
f 2//2 3//3 13//13
f 2//2 13//13 15//15
f 29//29 25//25 33//33
f 29//29 33//33 34//34
f 29//29 34//34 32//32
f 29//29 32//32 25//25
f 28//28 33//33 25//25
f 56//56 73//73 94//94
f 56//56 94//94 115//115
f 56//56 115//115 118//118
f 56//56 118//118 86//86
f 56//56 86//86 33//33
f 78//78 76//76 33//33
f 78//78 33//33 86//86
f 78//78 86//86 76//76
f 31//31 46//46 40//40
f 31//31 40//40 10//10
f 61//61 46//46 48//48
f 61//61 48//48 116//116
f 114//114 116//116 48//48
f 114//114 48//48 76//76
f 39//39 32//32 48//48
f 39//39 48//48 46//46
f 39//39 46//46 31//31
f 39//39 31//31 32//32
f 106//106 101//101 145//145
f 106//106 145//145 120//120
f 106//106 120//120 115//115
f 106//106 115//115 94//94
f 106//106 94//94 88//88
f 106//106 88//88 101//101
f 85//85 83//83 88//88
f 85//85 88//88 94//94
f 85//85 94//94 73//73
f 138//138 118//118 115//115
f 299//299 257//257 265//265
f 299//299 265//265 301//301
f 299//299 301//301 313//313
f 299//299 313//313 311//311
f 299//299 311//311 307//307
f 299//299 307//307 298//298
f 225//225 243//243 205//205
f 225//225 205//205 220//220
f 270//270 298//298 281//281
f 270//270 281//281 239//239
f 183//183 243//243 261//261
f 183//183 261//261 118//118
f 183//183 118//118 243//243
f 325//325 295//295 306//306
f 325//325 306//306 323//323
f 325//325 323//323 327//327
f 325//325 327//327 332//332
f 330//330 325//325 332//332
f 330//330 332//332 334//334
f 330//330 334//334 331//331
f 330//330 331//331 310//310
f 203//203 209//209 15//15
f 203//203 15//15 13//13
f 203//203 13//13 40//40
f 203//203 40//40 153//153
f 203//203 153//153 224//224
f 251//251 239//239 281//281
f 132//132 174//174 116//116
f 104//104 46//46 61//61
f 104//104 116//116 112//112
f 104//104 112//112 40//40
f 104//104 40//40 46//46
f 297//297 215//215 251//251
f 297//297 251//251 281//281
f 297//297 281//281 308//308
f 297//297 308//308 314//314
f 297//297 314//314 306//306
f 157//157 152//152 149//149
f 157//157 149//149 165//165
f 157//157 165//165 152//152
f 133//133 120//120 149//149
f 133//133 149//149 152//152
f 133//133 152//152 120//120
f 155//155 162//162 140//140
f 166//166 158//158 179//179
f 150//150 158//158 155//155
f 150//150 155//155 140//140
f 150//150 140//140 141//141
f 148//148 158//158 141//141
f 148//148 141//141 143//143
f 200//200 230//230 211//211
f 63//63 57//57 95//95
f 63//63 95//95 81//81
f 63//63 55//55 57//57
f 4//4 1//1 11//11
f 4//4 11//11 7//7
f 4//4 7//7 6//6
f 4//4 6//6 5//5
f 4//4 5//5 37//37
f 4//4 37//37 43//43
f 45//45 9//9 4//4
f 45//45 4//4 43//43
f 45//45 43//43 53//53
f 45//45 53//53 69//69
f 110//110 109//109 125//125
f 110//110 125//125 108//108
f 110//110 108//108 109//109
f 121//121 105//105 119//119
f 121//121 141//141 140//140
f 121//121 140//140 125//125
f 121//121 125//125 109//109
f 121//121 109//109 105//105
f 71//71 69//69 79//79
f 75//75 79//79 83//83
f 267//267 263//263 276//276
f 267//267 276//276 272//272
f 267//267 272//272 263//263
f 135//135 137//137 129//129
f 135//135 129//129 134//134
f 135//135 134//134 151//151
f 135//135 151//151 137//137
f 237//237 221//221 204//204
f 237//237 204//204 263//263
f 237//237 263//263 247//247
f 237//237 247//247 217//217
f 237//237 217//217 221//221
f 161//161 144//144 167//167
f 161//161 190//190 223//223
f 161//161 223//223 154//154
f 161//161 154//154 144//144
f 173//173 176//176 180//180
f 173//173 180//180 194//194
f 173//173 194//194 190//190
f 173//173 190//190 161//161
f 173//173 161//161 167//167
f 173//173 167//167 144//144
f 173//173 144//144 176//176
f 262//262 254//254 232//232
f 262//262 232//232 250//250
f 262//262 250//250 268//268
f 262//262 278//278 254//254
f 288//288 268//268 250//250
f 288//288 292//292 291//291
f 288//288 291//291 278//278
f 288//288 278//278 268//268
f 216//216 236//236 142//142
f 216//216 142//142 198//198
f 216//216 198//198 280//280
f 216//216 280//280 236//236
f 27//27 142//142 70//70
f 27//27 70//70 14//14
f 27//27 14//14 22//22
f 27//27 22//22 68//68
f 62//62 11//11 70//70
f 62//62 70//70 67//67
f 62//62 67//67 11//11
f 242//242 230//230 258//258
f 242//242 258//258 275//275
f 242//242 275//275 260//260
f 242//242 260//260 230//230
f 293//293 300//300 296//296
f 293//293 296//296 275//275
f 293//293 275//275 258//258
f 293//293 258//258 236//236
f 293//293 236//236 300//300
f 51//51 15//15 82//82
f 51//51 82//82 68//68
f 51//51 68//68 22//22
f 51//51 22//22 15//15
f 191//191 169//169 68//68
f 191//191 68//68 82//82
f 191//191 82//82 209//209
f 191//191 209//209 241//241
f 191//191 241//241 206//206
f 191//191 206//206 169//169
f 123//123 102//102 124//124
f 123//123 124//124 143//143
f 123//123 143//143 141//141
f 123//123 141//141 121//121
f 123//123 121//121 119//119
f 123//123 119//119 102//102
f 8//8 1//1 4//4
f 8//8 4//4 9//9
f 8//8 9//9 20//20
f 35//35 19//19 20//20
f 52//52 56//56 33//33
f 52//52 33//33 42//42
f 21//21 31//31 10//10
f 21//21 10//10 3//3
f 21//21 3//3 25//25
f 117//117 76//76 118//118
f 207//207 118//118 138//138
f 207//207 138//138 115//115
f 207//207 115//115 205//205
f 207//207 205//205 243//243
f 207//207 243//243 118//118
f 285//285 244//244 299//299
f 255//255 257//257 299//299
f 255//255 299//299 244//244
f 245//245 244//244 234//234
f 228//228 220//220 248//248
f 228//228 234//234 244//244
f 228//228 244//244 225//225
f 228//228 225//225 220//220
f 238//238 243//243 225//225
f 274//274 298//298 270//270
f 274//274 270//270 261//261
f 304//304 224//224 295//295
f 304//304 295//295 325//325
f 304//304 325//325 330//330
f 304//304 330//330 264//264
f 279//279 241//241 209//209
f 279//279 209//209 203//203
f 279//279 203//203 264//264
f 279//279 264//264 330//330
f 279//279 330//330 310//310
f 279//279 310//310 241//241
f 172//172 197//197 215//215
f 172//172 215//215 181//181
f 172//172 181//181 146//146
f 188//188 306//306 295//295
f 188//188 295//295 174//174
f 188//188 174//174 132//132
f 188//188 132//132 146//146
f 188//188 146//146 181//181
f 188//188 181//181 215//215
f 188//188 215//215 201//201
f 127//127 116//116 114//114
f 127//127 114//114 76//76
f 127//127 76//76 117//117
f 127//127 117//117 118//118
f 127//127 118//118 261//261
f 127//127 261//261 197//197
f 127//127 197//197 172//172
f 127//127 172//172 146//146
f 127//127 146//146 132//132
f 127//127 132//132 116//116
f 113//113 116//116 104//104
f 113//113 104//104 61//61
f 113//113 61//61 116//116
f 227//227 215//215 297//297
f 227//227 297//297 306//306
f 227//227 306//306 188//188
f 227//227 188//188 201//201
f 227//227 201//201 215//215
f 164//164 155//155 158//158
f 164//164 158//158 166//166
f 164//164 166//166 170//170
f 164//164 170//170 168//168
f 164//164 168//168 162//162
f 164//164 162//162 155//155
f 147//147 158//158 150//150
f 147//147 150//150 141//141
f 147//147 141//141 158//158
f 156//156 184//184 158//158
f 156//156 158//158 148//148
f 156//156 148//148 143//143
f 156//156 143//143 184//184
f 189//189 184//184 200//200
f 189//189 179//179 184//184
f 199//199 192//192 258//258
f 199//199 258//258 230//230
f 199//199 230//230 200//200
f 199//199 200//200 184//184
f 199//199 184//184 143//143
f 199//199 143//143 192//192
f 208//208 200//200 211//211
f 208//208 211//211 222//222
f 208//208 222//222 233//233
f 208//208 233//233 213//213
f 208//208 213//213 204//204
f 208//208 204//204 202//202
f 177//177 170//170 166//166
f 177//177 166//166 179//179
f 177//177 179//179 189//189
f 77//77 84//84 80//80
f 77//77 80//80 55//55
f 77//77 55//55 63//63
f 77//77 63//63 81//81
f 77//77 81//81 84//84
f 44//44 9//9 45//45
f 44//44 45//45 69//69
f 50//50 56//56 52//52
f 72//72 85//85 73//73
f 72//72 73//73 56//56
f 72//72 56//56 50//50
f 72//72 71//71 79//79
f 72//72 79//79 75//75
f 72//72 75//75 83//83
f 72//72 83//83 85//85
f 269//269 278//278 262//262
f 269//269 262//262 268//268
f 269//269 268//268 278//278
f 287//287 260//260 321//321
f 287//287 321//321 324//324
f 287//287 324//324 292//292
f 287//287 292//292 288//288
f 287//287 288//288 250//250
f 287//287 250//250 260//260
f 89//89 27//27 68//68
f 89//89 68//68 175//175
f 89//89 175//175 142//142
f 17//17 19//19 3//3
f 17//17 3//3 1//1
f 17//17 1//1 8//8
f 17//17 8//8 20//20
f 17//17 20//20 19//19
f 30//30 9//9 44//44
f 30//30 44//44 69//69
f 30//30 69//69 71//71
f 30//30 71//71 35//35
f 30//30 35//35 20//20
f 30//30 20//20 9//9
f 26//26 32//32 31//31
f 26//26 31//31 21//21
f 26//26 21//21 25//25
f 26//26 25//25 32//32
f 218//218 270//270 239//239
f 218//218 239//239 251//251
f 218//218 251//251 215//215
f 218//218 215//215 197//197
f 218//218 197//197 261//261
f 218//218 261//261 270//270
f 266//266 243//243 238//238
f 266//266 244//244 285//285
f 266//266 274//274 261//261
f 266//266 261//261 243//243
f 246//246 255//255 244//244
f 246//246 244//244 245//245
f 246//246 245//245 234//234
f 246//246 234//234 228//228
f 246//246 228//228 248//248
f 246//246 248//248 257//257
f 246//246 257//257 255//255
f 240//240 244//244 266//266
f 240//240 266//266 238//238
f 240//240 238//238 225//225
f 240//240 225//225 244//244
f 289//289 274//274 266//266
f 289//289 266//266 285//285
f 289//289 285//285 299//299
f 289//289 299//299 298//298
f 219//219 224//224 304//304
f 219//219 304//304 264//264
f 219//219 264//264 203//203
f 219//219 203//203 224//224
f 187//187 202//202 204//204
f 187//187 204//204 168//168
f 187//187 168//168 170//170
f 187//187 170//170 177//177
f 187//187 177//177 189//189
f 187//187 208//208 202//202
f 41//41 42//42 33//33
f 41//41 33//33 28//28
f 41//41 28//28 25//25
f 41//41 25//25 3//3
f 41//41 19//19 38//38
f 41//41 50//50 52//52
f 41//41 52//52 42//42
f 36//36 35//35 38//38
f 36//36 38//38 19//19
f 36//36 19//19 35//35
f 49//49 35//35 71//71
f 49//49 71//71 72//72
f 49//49 72//72 50//50
f 49//49 50//50 41//41
f 49//49 41//41 38//38
f 49//49 38//38 35//35
f 284//284 274//274 289//289
f 284//284 289//289 298//298
f 284//284 298//298 274//274
f 193//193 208//208 187//187
f 193//193 187//187 189//189
f 193//193 189//189 200//200
f 193//193 200//200 208//208
f 24//24 19//19 41//41
f 24//24 41//41 3//3
f 24//24 3//3 19//19
f 89//89 142//142 27//27
f 302//302 292//292 320//320
