# Rhino

mtllib 19.06_sbe_b_05.mtl
usemtl diffuse_0_0_0_255
v 57.307805754510582 20.496455446408753 -6.30854377746582
v 56.868654446593837 20.567999007407479 -6.5454257965087885
v 58.124128679006219 20.492909714671804 -6.3407070159912111
v 58.273296592167526 20.555685189958517 -6.7002758026123042
v 58.49081535619149 20.548976022797433 -6.2824314117431639
v 56.49416688496774 20.849907847008019 -7.0290584564208984
v 58.263879770223184 20.615128472622121 -6.9191257476806642
v 54.745118796099064 21.107013366893945 -6.4976558685302734
v 54.695295235475157 21.119791609891198 -6.6684513092041016
v 54.793432166479704 21.115208420732159 -5.9066913604736326
v 54.708151846371948 21.143532217517855 -6.9808338165283201
v 58.843890189803801 20.611425557061693 -6.0573398590087892
v 58.948427092441932 20.650375165023387 -5.7481258392333983
v 59.214156630230832 20.698923316447551 -6.1993854522705076
v 59.156584152187349 20.726625322375014 -5.3871841430664063
v 52.460926378181284 21.723927650120693 -6.453694534301758
v 52.254131620271551 21.753693639862441 -6.2139675140380861
v 52.411563211600708 21.734503461675768 -5.9566951751708981
v 59.464226934462488 20.790826434018335 -5.7669841766357424
v 51.904249283284912 21.874503836724472 -6.1744861602783203
v 51.957802030647031 21.875378112201666 -6.2853710174560549
v 60.086745950087391 21.139043290345111 -8.3931964874267564
v 60.224293484154032 21.131764692716743 -7.7978595733642573
v 53.108799846757449 22.160199659439641 -8.7165920257568352
v 52.45894040651649 22.273107266799705 -8.4725696563720696
v 54.342667599872925 22.027697380000561 -8.8543933868408189
v 59.415245579487816 21.353029603118241 1.4614176750183112
v 59.236704501162308 21.382384838830401 1.5215991020202642
v 60.567690742575621 21.219678043674129 -7.5702678680419924
v 52.471592916468126 22.336369493461476 -8.7051486968994141
v 60.696706344720894 21.223943235369546 -6.8739406585693361
v 59.283926264528134 21.420377112774528 1.739409255981446
v 60.446992920080675 21.263786900972907 -8.2589572906494126
v 59.510431037570129 21.403446500162286 1.657582092285157
v 60.220595792645724 21.310509607373895 -8.7932460784912116
v 52.981713976684716 22.305498457687186 -8.8530849456787095
v 55.774564251083973 21.941883240436329 2.3986707687377935
v 60.077260640783777 21.397225325095121 -9.1807384490966797
v 52.381869573210906 22.458133742327675 -8.8195583343505852
v 59.857687176801278 21.452607600947253 -9.3204570770263686
v 60.84724271253981 21.355440515402911 -6.3820278167724611
v 51.839907512750699 22.617384365009897 -8.6545024871826186
v 60.302871315811501 21.469653712744577 -9.2321033477783203
v 60.078495053076608 21.509757152523271 -9.4595691680908196
v 60.570157079162982 21.490597192469991 -8.805754470825196
v 60.680309551712526 21.504668723074296 -0.96874170303344687
v 60.514587722746455 21.531862369522401 1.0088370800018316
v 60.837233715002185 21.492848713733693 -7.0879467010498045
v 60.275184274568062 21.617574034999887 -9.5540493011474616
v 49.360978439894723 23.118989776442135 -7.4923168182373043
v 54.187405714631439 22.466993839313695 -9.4019817352294908
v 60.9812533730003 21.547318056144974 -5.4180263519287104
v 49.276064905555984 23.16049892152666 -7.2183605194091793
v 60.088405146334765 21.706281477481273 -9.6043521881103509
v 60.78761007096432 21.618423454113824 -8.0960994720458999
v 53.470382056017172 22.653564564393161 -9.3797809600830071
v 60.54499647183718 21.694138431770618 -9.3586246490478509
v 49.147419247005757 23.282295154627562 -7.6959461212158198
v 61.026535217482149 21.669692986727537 -4.9976898193359371
v 48.970206557677898 23.370509507077937 -6.730510330200195
v 60.263477156113595 21.895589986664678 -9.6737537384033203
v 48.942354402768274 23.442498587689578 -7.6803073883056632
v 61.142766115752977 21.845665245201499 1.3782213211059575
v 53.896271015591651 22.840606115891397 -9.7064334869384759
v 48.745009350364171 23.558294428760338 -6.965332412719726
v 60.854451423657963 21.953004526748884 -8.8813869476318352
v 52.584207101769493 23.145767534342582 -9.4510646820068374
v 53.274452375509384 23.052666108052506 -9.6482021331787102
v 54.06433504542639 22.950942634402622 -9.8517261505126967
v 48.849082575723685 23.694372560721867 -7.7314083099365236
v 53.745979334565732 23.028558504069778 -9.7992839813232422
v 52.283267842527948 23.240664177930562 -9.4037395477294936
v 60.611528209883886 22.108889669986734 -9.5077663421630874
v 48.509719676116845 23.766026283688181 -6.7559215545654299
v 48.254301924352944 23.82182830154067 -4.5274223327636713
v 61.095340948620731 22.084400710665584 -5.4709918975830076
v 52.500873294694657 23.308781889057869 -9.5255916595458991
v 61.234377282115531 22.128222373641659 1.7805796623229986
v 48.581550996227122 23.855183348436174 -7.234172439575195
v 48.635694870557302 23.859285415468321 -7.4200473785400387
v 48.113978513103916 23.95484948700242 -4.2359611511230462
v 61.135107282668628 22.188652790025142 -4.6074645996093748
v 52.398182315569613 23.401226222911305 -9.4942485809326165
v 48.672580029382345 23.920537067620405 -7.608703994750976
v 48.875296712583975 23.901892635096321 -7.7833980560302729
v 48.121451536122152 24.008098029652153 -4.3884181976318359
v 53.328271354917888 23.302962272103208 -9.7407047271728509
v 52.809229781886415 23.384652642455379 -9.6320690155029283
v 53.593810417897885 23.311781682377593 -9.7817295074462898
v 61.291903630807496 22.338129906537464 1.1854245185852057
v 48.55377843361066 24.085866574713151 -7.5053058624267575
v 48.439881004914696 24.206146842485417 1.8507820129394537
v 48.626694380435708 24.267293947714354 -7.6699375152587885
v 48.327922235420885 24.311520166585758 1.8561767578125006
v 48.482780358150933 24.325454165272987 3.1469675064086919
v 47.93582188169438 24.420239705655256 -3.082886123657226
v 48.38719097768535 24.431690726666517 3.0348667144775399
v 47.918920241776391 24.539753483780899 -3.34223518371582
v 48.685267124143252 24.469083670699519 -7.7414058685302729
v 47.932879062630377 24.657824259311219 0.039753985404968772
v 47.901689215600356 24.738572235522746 -0.11892900466918893
v 47.92588549093864 24.812736126419182 0.6311637163162237
v 48.666950025659389 24.909164516332876 -7.796712112426758
v 48.90543207104821 24.903350085659266 6.1795227050781261
v 49.001644444110468 24.946213497761242 6.4550594329833997
v 61.389315077599292 23.289085029852664 5.871519470214845
v 48.787589034233122 25.012145525562786 6.3631690979003919
v 49.918372366912365 24.905747316269089 7.1362941741943366
v 60.503852667525962 23.469695519598531 -9.9915966033935533
v 48.388083808403849 25.153495022875056 5.5409812927246103
v 55.156195234004144 24.262935467908513 8.9279582977294929
v 61.078721321249475 23.512364734240382 7.699553298950196
v 48.498328231940661 25.235306771307368 6.0798152923583997
v 55.206273613750398 24.339228118046883 9.1176364898681648
v 55.058296193858155 24.41093801723316 9.2471271514892592
v 48.356845001102442 25.329606257473522 5.6209545135498056
v 60.990244505572207 23.60870851294063 -9.2465442657470689
v 61.43672506987798 23.55229097193714 6.4182594299316413
v 61.395777399390226 23.558913178102948 7.5785335540771497
v 54.26913911480483 24.547357977242484 9.2096378326416009
v 60.002513696308199 23.781538434568439 -10.14836769104004
v 60.377542039682112 23.75644876994334 -10.140813064575195
v 60.456276384904925 23.748609390297972 8.667895889282228
v 54.201828926464373 24.620154033837338 9.350737380981446
v 60.078817082356863 23.828433018068615 9.0907512664794936
v 54.393756206289993 24.622257645271233 9.4012310028076165
v 61.438531577013464 23.663283437422855 7.0789531707763684
v 60.735073498298391 23.762035676962331 -9.8343395233154283
v 61.066873633284331 23.722833401545127 8.1674724578857436
v 60.701157689384615 23.816601315769475 8.6584644317626953
v 59.530784144584686 23.984675811090852 9.3373554229736335
v 59.821691270094902 23.982644760813159 9.3499790191650405
v 60.114496722009619 23.980264239065772 -10.175992202758788
v 57.607573931273578 24.338756933018082 9.495423507690429
v 61.471839525615906 23.824277842557727 5.2756359100341808
v 48.508171123910813 25.627629949983675 6.8849002838134776
v 59.581335170871967 24.129101971256503 9.4275539398193366
v 61.350421355049889 23.905450038414134 7.8184619903564458
v 58.633648026368633 24.291613855813136 9.4993404388427756
v 48.45061292362891 25.689223712808868 6.7017772674560554
v 60.497705905320856 24.050228152647851 8.9889965057373047
v 48.553815060612067 25.685341604993809 7.1691898345947278
v 60.167959345068596 24.127336453163693 9.3834659576416009
v 61.478979936808344 23.967852691901374 7.4980907440185556
v 60.406045002716098 24.150616343552393 -10.180630111694335
v 48.482831744999771 25.787331520212732 6.912148666381837
v 60.886045232710046 24.145413845594625 -9.5941944122314453
v 52.943793452864156 25.231490211345395 9.8131488800048849
v 59.465508647321826 24.347586975290085 9.4580936431884766
v 60.81043619775653 24.179742255933938 8.6591724395751974
v 51.165678665330688 25.503620495527549 9.847657394409179
v 53.250146578347938 25.226398691629772 9.8222797393798835
v 48.447936868145291 25.885154604621473 6.7187133789062505
v 51.743264339643929 25.438010551432775 9.8790431976318374
v 50.132302326240904 25.658265301736975 9.6824970245361328
v 49.526948385981143 25.751046088651314 9.5508182525634773
v 53.506338397416073 25.24920748878322 9.8424175262451179
v 50.44099038605367 25.68258025708338 9.8797412872314467
v 49.230401406645797 25.868076431291563 9.4586551666259773
v 53.106420826343765 25.365762516542741 9.8775638580322287
v 60.72339442715122 24.332746819989335 -9.8693126678466783
v 60.495250116190107 24.387125139775925 -10.065898513793947
v 50.510275565670725 25.781388209277132 9.9731494903564482
v 50.277530656797524 25.873641791631449 10.008574295043946
v 60.398832309823035 24.516724841985454 -10.058364486694337
v 59.904815889480631 24.644200685812603 9.4250988006591818
v 50.618435613409019 25.920851389778402 10.040449142456055
v 53.829343380143825 25.584957748267442 -9.6988971710205085
v 60.240291855499436 24.785627913377198 9.3591915130615249
v 60.74158884517351 24.73173854733011 8.9198940277099616
v 60.064284171434451 24.828002760392369 9.4143024444580092
v 48.644393363769666 26.396172047222301 -7.9568004608154288
v 49.947638825528145 26.261008780992899 10.058829879760744
v 49.662486511412851 26.350516177313551 10.041180038452151
v 49.289006927414505 26.46519087485839 9.9442508697509773
v 50.025298786185942 26.393367016288387 10.088662338256839
v 60.516697227719646 24.972598642910029 9.2133449554443381
v 49.462941981315169 26.517270217542627 10.054751205444337
v 47.363076388768718 26.867297529900945 -2.9603862762451167
v 60.417369259275972 25.258752441842613 9.2275348663330092
v 49.114390553579426 26.840757355688798 9.7050411224365227
v 61.606776180402335 25.149410088620463 5.8657882690429695
v 49.222437202582228 26.853415529504417 10.040886306762697
v 60.648585086056528 25.323936447040509 9.0964282989501974
v 60.912922967771976 25.331160316408674 8.7604785919189467
v 49.212057879694896 27.01982226271242 9.893278884887696
v 61.605224887333861 25.35849382002765 6.5283851623535165
v 61.092595329986921 25.429063110814965 8.4617366790771484
v 49.172361816801811 27.102890710541544 9.6961971282958999
v 50.306231137314569 26.990399149997984 10.155754470825197
v 49.252016976881805 27.211260011019895 9.8450931549072287
v 49.909090067759905 27.136069671882716 10.13827476501465
v 61.49508278426606 25.581806693635585 7.2892337799072271
v 47.32691986451681 27.553555042809023 -4.8558307647705075
v 60.199089947635798 25.80993080210019 9.1243640899658196
v 61.18833889132253 25.721983375058077 8.1762256622314453
v 61.222428449868687 25.738031311303331 -8.8556674957275376
v 60.692679524639004 25.846675367830876 9.0082004547119148
v 61.566431151290431 25.741327238057995 6.0882068634033208
v 50.21728778572367 27.316288676535763 10.16996879577637
v 60.970256219716475 25.898613970068876 8.6471950531005852
v 61.551445827491875 25.83320436783535 6.5364601135253917
v 61.438598929357113 25.860644008656987 -7.9043964385986323
v 49.810378475190646 27.502830606108468 10.152833175659183
v 61.480910699977755 25.973591651182701 6.8291400909423841
v 60.549683626308536 26.107948914580948 8.9375865936279304
v 49.37678933301919 27.638253409868469 9.8369365692138686
v 61.196209110912775 26.042274379415495 7.8437458038330083
v 48.462723634955466 27.780276570362521 -7.9969249725341802
v 57.888182364803981 26.500929433734889 9.3967189788818359
v 61.335845511856178 26.057943207452308 -8.4227710723876967
v 61.418473435191004 26.074639331483503 6.4801845550537118
v 60.981728360511454 26.134557261870413 8.4058811187744134
v 61.198606486329766 26.130383878643343 7.4619991302490245
v 47.151256664179868 28.049141269622076 -3.6401447296142573
v 60.781851253087893 26.192153446054292 8.5589229583740227
v 60.169915888218497 26.278517367644461 8.9641078948974631
v 47.148125468221053 28.082529004887387 -3.1639858245849606
v 57.943935532991986 26.625937659114857 9.3287090301513693
v 61.412347789512239 26.155082166757541 4.1700366973876957
v 61.042527127737117 26.207195801171348 -9.0026157379150398
v 61.411627440436632 26.161489226319361 -7.4892002105712887
v 58.896217006782024 26.516345133242385 9.1761920928955085
v 50.212331628832089 27.702093573017031 10.180630111694338
v 61.385205438865796 26.185607438273674 4.9897182464599616
v 61.387394293276031 26.223755888160035 2.5133298873901375
v 49.910305997320279 27.853535627161222 10.14192008972168
v 49.437625418385437 27.942497663684339 9.7022090911865249
v 60.876713389730469 26.412402557140755 -9.0080661773681641
v 48.464212882609274 28.121419554870112 -7.9839664459228521
v 61.165482640194625 26.390616064384574 -8.7531345367431648
v 57.534848292179959 26.899727349928842 9.2146610260009787
v 49.627419688669931 27.990863821953035 10.015118026733401
v 47.106886834474722 28.349322002448517 -3.3459552764892573
v 48.64793492730081 28.152898602193702 -8.1337184906005859
v 61.201514031857187 26.450411905722184 2.8164091110229501
v 50.700818181367254 27.890520494750199 10.120350265502932
v 49.516680267323181 28.078094097522833 9.7925128936767578
v 49.954129120683604 28.022932545346542 10.117438125610352
v 49.434561588676445 28.119849823929538 9.4856403350830085
v 60.885723740711967 26.570306172207399 -8.8421665191650405
v 61.158860723361101 26.551845690453863 -8.4520748138427741
v 50.339526702550586 28.04974589385148 10.128491592407229
v 51.661481956242824 27.899645406793365 10.00470771789551
v 49.608376648900673 28.204281665947441 9.8876850128173821
v 47.09915868250323 28.5465224090362 -4.7700481414794922
v 49.433069180191069 28.234789998085816 9.1930141448974609
v 60.623726557541715 26.72695309102988 -8.8597415924072251
v 49.761663334611228 28.216472055005362 10.016503524780276
v 47.059822168461267 28.587849682331232 -4.3615921020507811
v 60.933796381636853 26.719452109015833 -8.6256473541259773
v 60.968765229701376 26.725582815662705 1.3820340156555182
v 49.571234634353686 28.287818379404868 9.6183696746826186
v 50.231512883636071 28.22969325663998 10.080157852172853
v 50.414818836850259 28.209379430957352 10.062524032592776
v 52.351775210171581 27.951704359839397 9.7852817535400405
v 49.5432499424046 28.345076341064303 9.3358654022216818
v 59.901586420450258 26.941930891310143 -8.9533153533935561
v 51.413762171846429 28.102380779873439 9.906434249877929
v 49.713454570508475 28.336389515234639 9.8061176300048842
v 60.297137861855106 26.89770373363924 -8.9102024078369126
v 50.614876763537609 28.228405540718704 9.9553707122802741
v 50.321985777902739 28.280399807807303 9.9223606109619134
v 49.890991752662615 28.347180106012033 9.8644001007080071
v 49.801927674503588 28.379535375952173 9.7414058685302756
v 51.722538408784658 28.133343985637104 9.7963603973388693
v 60.561893803209216 26.94085412543442 -8.6003574371337876
v 47.162225441946816 28.913741971442334 -3.0192481994628904
v 59.972948804759596 27.169283613621332 -8.5838550567626939
v 60.075062084486149 27.164724850973943 -8.1783893585205085
v 59.259376449649665 27.298566939997016 -8.8763973236083977
v 59.63495226962749 27.260379303206062 -8.8062999725341804
v 59.301736093423358 27.317251732959992 7.6821353912353523
v 59.431311127439358 27.348555092050447 7.5260585784912122
v 59.62355672111056 27.332990362073147 -8.3425556182861342
v 46.998295403541135 29.05843975512461 -4.7073104858398436
v 47.112026868985595 29.059517195996456 -3.5596462249755856
v 54.299349107212663 28.091541211888515 7.2373188018798835
v 48.720339830776595 28.862601206724541 -8.195189285278321
v 59.510190984913436 27.414122733631682 7.27762794494629
v 59.24154945295453 27.457077578055078 7.3882617950439462
v 47.052189278978744 29.134174449762916 -5.1847885131835936
v 47.016055487174981 29.144467753938464 -4.3546047210693359
v 59.368829178420469 27.51982822942238 7.0686008453369151
v 59.438120097988815 27.539631468811436 6.9354686737060556
v 59.60557176723222 27.532951725912657 6.7728374481201179
v 47.013947678985062 29.267802294652576 -4.9255733489990234
v 60.254520713477291 27.463919416197058 6.1321739196777356
v 57.92792448976104 27.813180966912199 -8.7250194549560547
v 47.174954470707462 29.288981602349168 -3.4688793182373043
v 60.065047578460565 27.543304178416758 6.2055515289306653
v 57.374158400003068 27.923151227281892 -8.7551525115966804
v 60.075342682932728 27.562222406662023 5.96329689025879
v 47.04740089477815 29.342417699083743 -5.2397750854492182
v 57.936247772279899 27.873815776075165 -8.4728672027587884
v 59.584548386703773 27.660834869522184 4.4999752044677743
v 47.201090543152702 29.368527319478169 -5.7625663757324217
v 55.672740587897977 28.215266723191149 -8.6722469329833984
v 47.162085925238159 29.387716818514846 -3.9325130462646483
v 47.234539221997807 29.384662081470754 -3.6595050811767571
v 56.949103385174226 28.096177817663335 -8.5147563934326165
v 48.729472718797467 29.228432904983791 -8.0795391082763679
v 56.701352360760666 28.145118614303151 -8.6136859893798814
v 47.4134956612113 29.420346931517049 -3.7712051391601555
v 47.122741578369244 29.48222842299619 -5.2905258178710932
v 49.357383683567832 29.192935084304189 -0.90831928253173788
v 47.275377423700206 29.49873661681292 -5.7140060424804684
v 47.360878106896621 29.487747080289658 -5.8620872497558594
v 50.459544841490754 29.067992239758148 -0.51166715621948189
v 48.970633991194291 29.297097701233898 -8.2647640228271477
v 47.407809759059717 29.51029745343396 -5.4641738891601559
v 47.391897846359882 29.517237683878086 -5.742431640625
v 53.419629875923192 28.707476433583452 -8.5200229644775405
v 54.18461563591967 28.685979387985785 -8.4266078948974616
v 54.433789472445483 28.677779005388842 -8.273174667358397
v 54.892346852645517 28.637526291811302 -4.8314010620117189
v 49.340819085641101 29.405007755591821 -8.2624233245849616
v 48.863278989666355 29.473051112170712 -8.1013080596923821
v 54.58374179463101 28.710665753434149 -4.3751243591308588
v 53.23677262592679 28.895514409488747 -8.3211055755615249
v 53.90126117172565 28.826294357192101 -4.9465011596679682
v 51.973645688030672 29.127872684618715 -8.0994670867919929
v 49.279098683117297 29.549871842407249 -8.1621791839599602
v 49.087798707510672 29.615439354198458 -7.509897994995117
v 49.111519746397391 29.615317778916353 -8.1109233856201186
v 49.372778842748403 29.603453727129065 -7.622212600708008
vn -0.10463999956846237 -0.99399477243423462 0.032014030963182449
vn -0.15485295653343201 -0.961800217628479 -0.22574517130851746
vn 0.093242436647415161 -0.99560987949371338 0.0081753628328442574
vn 0.058313671499490738 -0.97933673858642578 -0.19364684820175171
vn 0.18701408803462982 -0.97999870777130127 -0.068031184375286102
vn -0.1319434642791748 -0.89700251817703247 -0.42187371850013733
vn -0.0081036286428570747 -0.95079851150512695 -0.30970385670661926
vn -0.2475237250328064 -0.96873587369918823 0.016817674040794373
vn -0.25099986791610718 -0.96708256006240845 -0.041837375611066818
vn -0.23952914774417877 -0.96711939573287964 0.085474453866481781
vn -0.25717490911483765 -0.94259113073348999 -0.2130330353975296
vn 0.18230821192264557 -0.98283833265304565 0.028150990605354309
vn 0.19777655601501465 -0.97778290510177612 0.069462686777114868
vn 0.26982730627059937 -0.96259349584579468 -0.024638168513774872
vn 0.25812563300132751 -0.96425992250442505 0.05978311225771904
vn -0.31647145748138428 -0.92736989259719849 -0.19957692921161652
vn -0.2866557240486145 -0.95723217725753784 -0.039179500192403793
vn -0.28545987606048584 -0.95080047845840454 0.12037904560565948
vn 0.31143146753311157 -0.94938009977340698 0.041083168238401413
vn -0.38481900095939636 -0.92288428544998169 0.014105665497481823
vn -0.3440755307674408 -0.92102402448654175 -0.18255616724491119
vn 0.24986971914768219 -0.94929713010787964 -0.19078813493251801
vn 0.29184865951538086 -0.95335370302200317 -0.077078178524971008
vn -0.18997195363044739 -0.84938991069793701 -0.49238947033882141
vn -0.3103344738483429 -0.91517829895019531 -0.25717923045158386
vn -0.13873346149921417 -0.85421627759933472 -0.50106650590896606
vn 0.048832714557647705 -0.98841613531112671 0.14369726181030273
vn -0.11061137169599533 -0.97981560230255127 0.16651284694671631
vn 0.45871323347091675 -0.88206702470779419 -0.1074238047003746
vn -0.29752930998802185 -0.85612034797668457 -0.42253309488296509
vn 0.55675065517425537 -0.83010184764862061 -0.030978510156273842
vn -0.046249113976955414 -0.96680289506912231 0.25130301713943481
vn 0.45880508422851563 -0.86414629220962524 -0.20675861835479736
vn 0.15204982459545135 -0.95555269718170166 0.25258639454841614
vn 0.39741888642311096 -0.88404405117034912 -0.2460169643163681
vn -0.21182237565517426 -0.7392507791519165 -0.63924926519393921
vn -0.20277298986911774 -0.95119577646255493 0.23261483013629913
vn 0.088652133941650391 -0.93560534715652466 -0.34173595905303955
vn -0.30326491594314575 -0.66803693771362305 -0.67952710390090942
vn -0.079157792031764984 -0.90613836050033569 -0.4155084490776062
vn 0.85375446081161499 -0.5176316499710083 -0.056220564991235733
vn -0.39227384328842163 -0.61450862884521484 -0.68447083234786987
vn 0.38223400712013245 -0.86657410860061646 -0.32085272669792175
vn -0.0069350949488580227 -0.80073845386505127 -0.59897398948669434
vn 0.70636135339736938 -0.67868906259536743 -0.20108404755592346
vn 0.41586074233055115 -0.90828490257263184 0.045588698238134384
vn 0.30013501644134521 -0.94746637344360352 0.11057326942682266
vn 0.91061365604400635 -0.40278053283691406 -0.092469751834869385
vn 0.35098147392272949 -0.59172189235687256 -0.72572529315948486
vn -0.39280474185943604 -0.90077733993530273 -0.18521508574485779
vn -0.16563546657562256 -0.73721039295196533 -0.65504640340805054
vn 0.94182628393173218 -0.33419892191886902 -0.035697296261787415
vn -0.53673911094665527 -0.84360671043395996 -0.015456832945346832
vn -0.02998608723282814 -0.47811946272850037 -0.87778276205062866
vn 0.85392570495605469 -0.50635570287704468 -0.12006169557571411
vn -0.21693377196788788 -0.70326018333435059 -0.67702645063400269
vn 0.70127183198928833 -0.56841260194778442 -0.43026140332221985
vn -0.51371830701828003 -0.7738194465637207 -0.37053602933883667
vn 0.96806788444519043 -0.24995134770870209 -0.019205955788493156
vn -0.60889625549316406 -0.79237556457519531 -0.037232987582683563
vn 0.2335999608039856 -0.29685741662979126 -0.92590862512588501
vn -0.73934906721115112 -0.54600965976715088 -0.39400053024291992
vn 0.72406589984893799 -0.68740302324295044 0.056618198752403259
vn -0.23675598204135895 -0.64783954620361328 -0.72405147552490234
vn -0.64803820848464966 -0.75981128215789795 -0.0522812120616436
vn 0.934326171875 -0.31093576550483704 -0.17422270774841309
vn -0.29842230677604675 -0.58216559886932373 -0.7563248872756958
vn -0.28846302628517151 -0.55798602104187012 -0.77810072898864746
vn -0.11572302877902985 -0.30835849046707153 -0.94420504570007324
vn -0.59053319692611694 -0.24034030735492706 -0.77039414644241333
vn -0.2560463547706604 -0.36078527569770813 -0.89681339263916016
vn -0.38888174295425415 -0.44896149635314941 -0.80449026823043823
vn 0.74629497528076172 -0.24877449870109558 -0.61737757921218872
vn -0.87394219636917114 -0.4668852686882019 -0.13506720960140228
vn -0.6029544472694397 -0.79776883125305176 -0.0032942951656877995
vn 0.98418134450912476 -0.17140476405620575 -0.044805210083723068
vn -0.32660636305809021 -0.29600325226783752 -0.89761370420455933
vn 0.95869070291519165 -0.28342193365097046 0.024169184267520905
vn -0.87061917781829834 -0.43170669674873352 -0.23590599000453949
vn -0.85564279556274414 -0.43346485495567322 -0.28281378746032715
vn -0.87940537929534912 -0.4753863513469696 -0.025573652237653732
vn 0.98862290382385254 -0.14828971028327942 -0.025197580456733704
vn -0.41119879484176636 -0.097943916916847229 -0.90626847743988037
vn -0.81829386949539185 -0.33808994293212891 -0.46485522389411926
vn -0.51729363203048706 -0.13092155754566193 -0.84573447704315186
vn -0.96252918243408203 -0.23702941834926605 -0.13173681497573853
vn -0.18076413869857788 -0.017267871648073196 -0.98337489366531372
vn -0.26590904593467712 -0.03502967581152916 -0.96336144208908081
vn -0.13931767642498016 0.030860370025038719 -0.98976677656173706
vn 0.98756891489028931 -0.15696601569652557 -0.0083283623680472374
vn -0.91919040679931641 -0.2377200722694397 -0.31397163867950439
vn -0.5683058500289917 -0.8191220760345459 0.077894173562526703
vn -0.69128036499023438 -0.14338739216327667 -0.7082170844078064
vn -0.7697262167930603 -0.6329072117805481 0.083366788923740387
vn -0.54017531871795654 -0.82643860578536987 0.15877613425254822
vn -0.95702201128005981 -0.28997945785522461 -0.0045544151216745377
vn -0.85891091823577881 -0.49901902675628662 0.11511757969856262
vn -0.97177267074584961 -0.22951140999794006 -0.054611753672361374
vn -0.56038272380828857 -0.12652257084846497 -0.81851285696029663
vn -0.90373086929321289 -0.42353317141532898 0.06237151101231575
vn -0.9680633544921875 -0.24812468886375427 0.035881146788597107
vn -0.96319448947906494 -0.25516974925994873 0.084526903927326202
vn -0.54585063457489014 -0.10975608229637146 -0.83066278696060181
vn -0.34791487455368042 -0.90630429983139038 0.23993280529975891
vn -0.31093183159828186 -0.9101557731628418 0.27374774217605591
vn 0.96764880418777466 -0.2498815655708313 0.034856423735618591
vn -0.55541634559631348 -0.7879936695098877 0.26566639542579651
vn -0.24530215561389923 -0.92751771211624146 0.28202447295188904
vn 0.60014361143112183 -0.18381713330745697 -0.7784850001335144
vn -0.87358403205871582 -0.44855424761772156 0.18881224095821381
vn -0.12608753144741058 -0.92361080646514893 0.36200141906738281
vn 0.21984364092350006 -0.91481983661651611 0.33878234028816223
vn -0.77289599180221558 -0.57835996150970459 0.26102009415626526
vn -0.096146486699581146 -0.91384440660476685 0.39451777935028076
vn -0.12260563671588898 -0.86224377155303955 0.4914301335811615
vn -0.97867447137832642 -0.16639742255210876 0.12044994533061981
vn 0.94012820720672607 -0.10489935427904129 -0.32427620887756348
vn 0.98164206743240356 -0.1894562840461731 0.022025872021913528
vn 0.76626813411712646 -0.58940333127975464 0.25580629706382751
vn -0.19591456651687622 -0.918143630027771 0.34442675113677979
vn -0.0083442386239767075 -0.18841798603534698 -0.98205345869064331
vn 0.23890748620033264 -0.17860974371433258 -0.95447462797164917
vn 0.24090541899204254 -0.89376860857009888 0.37834146618843079
vn -0.17084246873855591 -0.87339037656784058 0.45607253909111023
vn 0.098201707005500793 -0.90101206302642822 0.42253249883651733
vn -0.11341817677021027 -0.76945602893829346 0.62854892015457153
vn 0.98021113872528076 -0.19484606385231018 0.034944411367177963
vn 0.7991870641708374 -0.10000915080308914 -0.592704176902771
vn 0.74602299928665161 -0.34354028105735779 0.57046449184417725
vn 0.51001018285751343 -0.66204303503036499 0.54917079210281372
vn -0.074177414178848267 -0.84333944320678711 0.53223705291748047
vn 0.03283378854393959 -0.60939520597457886 0.79218649864196777
vn -0.019603917375206947 -0.048841316252946854 -0.99861413240432739
vn -0.051259022206068039 -0.58951872587203979 0.80612665414810181
vn 0.99406212568283081 -0.10881412774324417 7.4351723014842719E-05
vn -0.92034310102462769 -0.33118951320648193 0.20804348587989807
vn 0.0459640733897686 -0.27366188168525696 0.9607270359992981
vn 0.86988216638565063 -0.11816121637821198 0.47889760136604309
vn 0.017949230968952179 -0.27949255704879761 0.9599800705909729
vn -0.97591942548751831 -0.1461327075958252 0.16194593906402588
vn 0.7341693639755249 -0.23267434537410736 0.63785421848297119
vn -0.91784310340881348 -0.31050169467926025 0.24729089438915253
vn 0.38524264097213745 -0.25943535566329956 0.8855966329574585
vn 0.9836958646774292 -0.071003429591655731 0.16523005068302155
vn 0.40111657977104187 0.058065492659807205 -0.9141848087310791
vn -0.97758352756500244 -0.044472899287939072 0.20579749345779419
vn 0.89640516042709351 -0.026747670024633408 -0.44242781400680542
vn -0.039971735328435898 -0.51044797897338867 0.85897910594940186
vn 0.073084361851215363 -0.051374893635511398 0.99600166082382202
vn 0.76451635360717773 -0.20853711664676666 0.60994023084640503
vn -0.15194693207740784 -0.78209978342056274 0.60434436798095703
vn -0.031577307730913162 -0.47081613540649414 0.88166606426239014
vn -0.98651760816574097 0.031579412519931793 0.1605793833732605
vn -0.064068399369716644 -0.54541558027267456 0.83571350574493408
vn -0.20867630839347839 -0.89432418346405029 0.39577576518058777
vn -0.31720837950706482 -0.83264905214309692 0.45395416021347046
vn -0.013277461752295494 -0.37352600693702698 0.92752468585968018
vn -0.19930976629257202 -0.75275963544845581 0.62739825248718262
vn -0.77989721298217773 -0.48734378814697266 0.39275491237640381
vn 0.029706468805670738 -0.17134891450405121 0.98476243019104004
vn 0.77204239368438721 0.076471664011478424 -0.63095372915267944
vn 0.51562684774398804 0.27049627900123596 -0.81299489736557007
vn -0.11387652158737183 -0.60610860586166382 0.78718769550323486
vn -0.18982623517513275 -0.47963652014732361 0.85668826103210449
vn 0.13868020474910736 0.3836342990398407 -0.91301286220550537
vn 0.093920543789863586 -0.02522055059671402 0.99526017904281616
vn -0.021983925253152847 -0.233363077044487 0.97214114665985107
vn -0.088565714657306671 0.16784268617630005 -0.98182737827301025
vn 0.38050162792205811 0.054891251027584076 0.92314976453781128
vn 0.77598863840103149 -0.1412203460931778 0.6147344708442688
vn 0.16342151165008545 0.099640540778636932 0.98151165246963501
vn -0.47924673557281494 -0.09421548992395401 -0.8726087212562561
vn -0.09947560727596283 -0.20224961638450623 0.97426879405975342
vn -0.2515408992767334 -0.37945130467414856 0.89036166667938232
vn -0.49179604649543762 -0.45417630672454834 0.74287319183349609
vn -0.063439026474952698 -0.12274447828531265 0.99040865898132324
vn 0.5635601282119751 0.011410830542445183 0.82599622011184692
vn -0.19622525572776794 -0.20191800594329834 0.95954406261444092
vn -0.97970068454742432 -0.20037829875946045 -0.0059227640740573406
vn 0.32078194618225098 0.17386986315250397 0.93105757236480713
vn -0.96693581342697144 0.049499228596687317 0.25016984343528748
vn 0.99797093868255615 -0.063658490777015686 -0.0012423438020050526
vn -0.72064822912216187 0.058654304593801498 0.69081532955169678
vn 0.71668094396591187 0.0027173671405762434 0.69739586114883423
vn 0.82211554050445557 -0.020674837753176689 0.56894516944885254
vn -0.91757893562316895 0.24538359045982361 0.31278717517852783
vn 0.99781972169876099 0.048332225531339645 0.044941842555999756
vn 0.90438932180404663 0.012183287180960178 0.42653429508209229
vn -0.93620413541793823 0.25763645768165588 0.23905077576637268
vn 0.017061538994312286 -0.068792954087257385 0.99748504161834717
vn -0.91337263584136963 0.27021533250808716 0.30452284216880798
vn -0.076011501252651215 -0.06818678230047226 0.99477273225784302
vn 0.96594256162643433 0.15584339201450348 0.20656177401542664
vn -0.96898829936981201 -0.22288154065608978 -0.10670284926891327
vn 0.19537010788917542 0.26488015055656433 0.94428229331970215
vn 0.93076968193054199 0.1633361279964447 0.32709196209907532
vn 0.91888076066970825 0.043401800096035004 -0.39214086532592773
vn 0.44352540373802185 0.25120911002159119 0.86033666133880615
vn 0.99242234230041504 0.12283784151077271 -0.0029505044221878052
vn -0.03220575675368309 -0.043723031878471375 0.99852442741394043
vn 0.82151204347610474 0.25233709812164307 0.51131594181060791
vn 0.96283376216888428 0.26737654209136963 0.03822195902466774
vn 0.99687153100967407 -0.018670661374926567 -0.076801873743534088
vn -0.1269470602273941 -0.0046285237185657024 0.99189871549606323
vn 0.85305708646774292 0.51204341650009155 0.10052426159381866
vn 0.51657527685165405 0.59924131631851196 0.61160427331924438
vn -0.89454513788223267 0.29136496782302856 0.33896231651306152
vn 0.84174507856369019 0.49228596687316895 0.22162987291812897
vn -0.72004425525665283 -0.052413228899240494 -0.69194591045379639
vn 0.18257822096347809 0.30917906761169434 0.93331319093704224
vn 0.96240854263305664 0.19569976627826691 -0.18833838403224945
vn 0.77705895900726318 0.62837684154510498 0.036357566714286804
vn 0.73603922128677368 0.56463801860809326 0.37340348958969116
vn 0.7252768874168396 0.66994971036911011 0.1585584282875061
vn -0.985004723072052 -0.17252625524997711 -0.00058164488291367888
vn 0.45880386233329773 0.80144083499908447 0.38365563750267029
vn 0.30698615312576294 0.72156679630279541 0.62056493759155273
vn -0.98961758613586426 -0.13153693079948425 0.057923004031181335
vn 0.1874588280916214 0.43881985545158386 0.87880390882492065
vn 0.88410490751266479 0.46722829341888428 0.0075013074092566967
vn 0.68948322534561157 0.26955997943878174 -0.67227250337600708
vn 0.95328438282012939 0.29952657222747803 -0.039150293916463852
vn 0.21373125910758972 0.53587847948074341 0.81679445505142212
vn 0.015344448387622833 0.053486328572034836 0.99845069646835327
vn 0.80780035257339478 0.5892065167427063 0.017153935506939888
vn 0.85157901048660278 0.52421069145202637 0.0040416503325104713
vn -0.23665361106395721 0.14644499123096466 0.96049410104751587
vn -0.9052203893661499 0.3159395158290863 0.28418004512786865
vn 0.45575916767120361 0.48167812824249268 -0.7485116720199585
vn -0.8000485897064209 0.062060598284006119 -0.59671664237976074
vn 0.76970446109771729 0.43528375029563904 -0.46699362993240356
vn 0.23055203258991241 0.78131198883056641 0.579997718334198
vn -0.52789503335952759 0.25229364633560181 0.81097149848937988
vn -0.99528253078460693 -0.050277262926101685 0.082974866032600403
vn -0.47037333250045776 -0.05738319456577301 -0.88059985637664795
vn 0.7621186375617981 0.64738857746124268 0.0079469652846455574
vn 0.10124967247247696 0.13274188339710236 0.9859655499458313
vn -0.8811262845993042 0.34462231397628784 0.32380855083465576
vn -0.11070531606674194 0.22339601814746857 0.96842062473297119
vn -0.8895566463470459 0.3874298632144928 0.24204754829406738
vn 0.492381751537323 0.64287400245666504 -0.58674800395965576
vn 0.80483716726303101 0.58863431215286255 -0.075807742774486542
vn 0.046543661504983902 0.21214109659194946 0.97613000869750977
vn 0.16096223890781403 0.39926937222480774 0.90259355306625366
vn -0.7604636549949646 0.45782351493835449 0.46053516864776611
vn -0.97188234329223633 -0.1973063200712204 -0.12851065397262573
vn -0.82644611597061157 0.527904212474823 0.19571405649185181
vn 0.44731578230857849 0.68451154232025146 -0.57563227415084839
vn -0.33205020427703857 0.52525597810745239 0.7834850549697876
vn -0.98409068584442139 -0.17565996944904327 -0.026628833264112473
vn 0.55078333616256714 0.74679684638977051 -0.37273603677749634
vn 0.74127840995788574 0.6711844801902771 0.0042082071304321289
vn -0.74786359071731567 0.61863386631011963 0.24081577360630035
vn 0.056460939347743988 0.6910509467124939 0.72059750556945801
vn 0.16531112790107727 0.65193426609039307 0.7400364875793457
vn 0.20736165344715118 0.6553947925567627 0.72626358270645142
vn -0.60440105199813843 0.77619242668151855 0.17951245605945587
vn 0.14201539754867554 0.44061636924743652 -0.88639092445373535
vn 0.19154824316501617 0.63600218296051025 0.747536301612854
vn -0.41825690865516663 0.83601540327072144 0.35516107082366943
vn 0.32599815726280212 0.63290387392044067 -0.70225203037261963
vn 0.12896329164505005 0.91999870538711548 0.37009581923484802
vn 0.1172751858830452 0.94071346521377563 0.31828400492668152
vn -0.027740906924009323 0.92452090978622437 0.38012036681175232
vn -0.018619133159518242 0.99133801460266113 0.13000857830047607
vn 0.16808447241783142 0.89753264188766479 0.40765520930290222
vn 0.41893914341926575 0.8924863338470459 -0.16720674932003021
vn -0.9767804741859436 0.14894512295722961 0.15399770438671112
vn 0.35029083490371704 0.92665255069732666 -0.13642364740371704
vn 0.37544354796409607 0.92601394653320313 -0.039246216416358948
vn 0.157579705119133 0.55126422643661499 -0.81931459903717041
vn 0.30970236659049988 0.87120574712753296 -0.38090020418167114
vn 0.25055554509162903 0.86108726263046265 0.44243717193603516
vn 0.3368743360042572 0.85913598537445068 0.38522860407829285
vn 0.34103572368621826 0.93624091148376465 -0.084543630480766296
vn -0.99600028991699219 -0.074074864387512207 -0.04996311292052269
vn -0.97072452306747437 0.19494657218456268 0.14032018184661865
vn 0.10660944133996964 0.99142545461654663 0.07556421309709549
vn -0.59048330783843994 0.075979143381118774 -0.80346536636352539
vn 0.33378633856773376 0.89176928997039795 0.30550649762153625
vn 0.23126550018787384 0.91637736558914185 0.32675492763519287
vn -0.96923720836639404 -0.13518819212913513 -0.20567789673805237
vn -0.97907054424285889 0.17912663519382477 0.096615172922611237
vn 0.21637700498104095 0.94060564041137695 0.2616143524646759
vn 0.20542989671230316 0.95667874813079834 0.20631134510040283
vn 0.29096031188964844 0.921730637550354 0.25642687082290649
vn -0.95335894823074341 0.30139452219009399 0.016374247148633003
vn 0.64727795124053955 0.75658005475997925 0.09283224493265152
vn 0.22494708001613617 0.84963303804397583 -0.47699326276779175
vn -0.90235865116119385 0.39640358090400696 0.16915388405323029
vn 0.31064906716346741 0.92735356092453003 0.2085966020822525
vn 0.10440517961978912 0.61940056085586548 -0.77810186147689819
vn 0.25447943806648254 0.96676701307296753 0.024531904608011246
vn -0.97804409265518188 0.13965366780757904 -0.15468220412731171
vn 0.253914475440979 0.96314859390258789 -0.088725320994853973
vn 0.22582575678825378 0.97410917282104492 -0.010678853839635849
vn -0.86950284242630005 0.23264937102794647 -0.43570521473884583
vn 0.018644072115421295 0.37217795848846436 -0.92797410488128662
vn -0.73648232221603394 0.66594028472900391 0.11881609261035919
vn -0.2995237410068512 0.9475364089012146 0.11162544786930084
vn 0.22074621915817261 0.9734073281288147 -0.061231516301631927
vn -0.71835696697235107 0.27647587656974792 -0.63837635517120361
vn 0.20053836703300476 0.93542963266372681 -0.29112836718559265
vn -0.053853098303079605 0.99614739418029785 0.069210998713970184
vn -0.51140165328979492 0.85891640186309814 -0.027036737650632858
vn 0.054477687925100327 0.99628692865371704 0.06666748970746994
vn -0.50386327505111694 0.82132071256637573 -0.26749590039253235
vn -0.65125524997711182 0.62392854690551758 -0.43194881081581116
vn 0.10110490024089813 0.9926115870475769 0.06708197295665741
vn -0.34888243675231934 0.28450974822044373 -0.89293628931045532
vn -0.043498758226633072 0.99822831153869629 0.040596514940261841
vn -0.10213639587163925 0.99471092224121094 -0.010878041386604309
vn 0.050636593252420425 0.54885697364807129 -0.83438122272491455
vn 0.13529178500175476 0.84151667356491089 -0.52301603555679321
vn 0.2037079930305481 0.97450602054595947 -0.094026759266853333
vn 0.21958424150943756 0.9754941463470459 -0.013924898579716682
vn -0.039143767207860947 0.45421215891838074 -0.89003318548202515
vn -0.60110867023468018 0.57268911600112915 -0.55740070343017578
vn 0.18988440930843353 0.98178887367248535 -0.0058726891875267029
vn 0.17022217810153961 0.97120183706283569 -0.1667073518037796
vn 0.17729379236698151 0.98406839370727539 -0.013279570266604424
vn 0.17286403477191925 0.98402994871139526 -0.042462531477212906
vn 0.037389602512121201 0.63832217454910278 -0.76886075735092163
vn 0.0073749399743974209 0.99940162897109985 0.033793356269598007
vn -0.049454830586910248 0.88895660638809204 -0.45531347393989563
vn 0.12355968356132507 0.99222123622894287 0.015167982317507267
f 92//92 75//75 20//20
f 88//88 310//310 168//168
f 278//278 293//293 309//309
f 278//278 309//309 265//265
f 278//278 265//265 293//293
f 324//324 325//325 312//312
f 288//288 267//267 293//293
f 285//285 265//265 266//266
f 285//285 266//266 284//284
f 122//122 61//61 121//121
f 133//133 145//145 122//122
f 133//133 122//122 121//121
f 133//133 168//168 145//145
f 53//53 50//50 20//20
f 53//53 20//20 75//75
f 21//21 20//20 50//50
f 21//21 17//17 20//20
f 102//102 100//100 97//97
f 94//94 97//97 100//100
f 317//317 168//168 310//310
f 317//317 310//310 325//325
f 318//318 325//325 310//310
f 318//318 310//310 302//302
f 318//318 302//302 297//297
f 87//87 88//88 168//168
f 326//326 325//325 324//324
f 326//326 309//309 293//293
f 326//326 293//293 319//319
f 296//296 293//293 295//295
f 296//296 319//319 293//293
f 316//316 319//319 296//296
f 316//316 296//296 295//295
f 316//316 295//295 315//315
f 316//316 315//315 319//319
f 306//306 304//304 265//265
f 306//306 265//265 309//309
f 306//306 309//309 326//326
f 306//306 326//326 324//324
f 306//306 324//324 304//304
f 311//311 304//304 324//324
f 311//311 324//324 312//312
f 311//311 312//312 305//305
f 311//311 305//305 304//304
f 275//275 295//295 293//293
f 275//275 272//272 295//295
f 165//165 145//145 168//168
f 165//165 292//292 271//271
f 261//261 229//229 165//165
f 261//261 271//271 272//272
f 261//261 272//272 267//267
f 291//291 288//288 293//293
f 291//291 293//293 265//265
f 291//291 265//265 285//285
f 69//69 168//168 133//133
f 69//69 133//133 121//121
f 69//69 121//121 61//61
f 250//250 246//246 194//194
f 250//250 194//194 179//179
f 91//91 74//74 194//194
f 91//91 194//194 246//246
f 91//91 246//246 282//282
f 91//91 282//282 297//297
f 83//83 88//88 77//77
f 60//60 53//53 75//75
f 81//81 100//100 96//96
f 81//81 74//74 75//75
f 81//81 75//75 92//92
f 81//81 92//92 94//94
f 81//81 94//94 100//100
f 101//101 179//179 96//96
f 101//101 96//96 100//100
f 101//101 100//100 102//102
f 101//101 102//102 179//179
f 227//227 204//204 224//224
f 227//227 233//233 183//183
f 227//227 183//183 204//204
f 313//313 165//165 168//168
f 313//313 168//168 317//317
f 308//308 318//318 297//297
f 322//322 325//325 326//326
f 238//238 240//240 228//228
f 269//269 272//272 275//275
f 269//269 275//275 267//267
f 269//269 267//267 272//272
f 270//270 267//267 275//275
f 270//270 275//275 293//293
f 270//270 293//293 267//267
f 221//221 229//229 231//231
f 221//221 231//231 197//197
f 241//241 229//229 261//261
f 241//241 231//231 229//229
f 258//258 271//271 261//261
f 258//258 261//261 165//165
f 258//258 165//165 271//271
f 226//226 222//222 242//242
f 280//280 285//285 284//284
f 109//109 122//122 145//145
f 109//109 145//145 128//128
f 109//109 128//128 73//73
f 109//109 73//73 61//61
f 109//109 61//61 122//122
f 161//161 221//221 197//197
f 161//161 197//197 147//147
f 161//161 147//147 128//128
f 161//161 128//128 145//145
f 71//71 88//88 87//87
f 71//71 87//87 69//69
f 71//71 77//77 88//88
f 89//89 168//168 69//69
f 89//89 69//69 87//87
f 89//89 87//87 168//168
f 110//110 102//102 97//97
f 181//181 159//159 183//183
f 218//218 234//234 250//250
f 218//218 179//179 102//102
f 72//72 83//83 77//77
f 79//79 74//74 91//91
f 79//79 62//62 74//74
f 209//209 91//91 297//297
f 65//65 60//60 75//75
f 65//65 75//75 74//74
f 65//65 74//74 62//62
f 58//58 62//62 72//72
f 58//58 50//50 53//53
f 58//58 53//53 60//60
f 58//58 60//60 65//65
f 58//58 65//65 62//62
f 16//16 17//17 21//21
f 16//16 21//21 50//50
f 16//16 11//11 17//17
f 86//86 74//74 81//81
f 86//86 81//81 194//194
f 86//86 194//194 74//74
f 98//98 179//179 194//194
f 98//98 194//194 81//81
f 98//98 81//81 96//96
f 98//98 96//96 179//179
f 239//239 227//227 224//224
f 301//301 295//295 303//303
f 301//301 303//303 315//315
f 301//301 315//315 295//295
f 289//289 292//292 303//303
f 289//289 303//303 295//295
f 289//289 295//295 272//272
f 289//289 272//272 271//271
f 289//289 271//271 292//292
f 320//320 325//325 322//322
f 320//320 319//319 315//315
f 298//298 165//165 313//313
f 298//298 313//313 292//292
f 298//298 292//292 165//165
f 323//323 325//325 313//313
f 323//323 313//313 317//317
f 323//323 317//317 325//325
f 307//307 325//325 318//318
f 307//307 318//318 308//308
f 307//307 308//308 297//297
f 307//307 297//297 305//305
f 307//307 305//305 312//312
f 307//307 312//312 325//325
f 321//321 319//319 320//320
f 321//321 320//320 322//322
f 321//321 322//322 326//326
f 321//321 326//326 319//319
f 245//245 240//240 238//238
f 245//245 183//183 233//233
f 300//300 304//304 305//305
f 300//300 257//257 265//265
f 300//300 265//265 304//304
f 247//247 257//257 290//290
f 247//247 290//290 240//240
f 211//211 203//203 197//197
f 211//211 197//197 231//231
f 211//211 231//231 242//242
f 211//211 242//242 222//222
f 211//211 222//222 203//203
f 251//251 267//267 288//288
f 251//251 288//288 242//242
f 251//251 242//242 231//231
f 251//251 231//231 241//241
f 251//251 261//261 267//267
f 252//252 242//242 288//288
f 199//199 203//203 222//222
f 54//54 69//69 61//61
f 2//2 11//11 24//24
f 112//112 125//125 34//34
f 112//112 34//34 119//119
f 178//178 204//204 183//183
f 200//200 190//190 224//224
f 200//200 224//224 204//204
f 130//130 112//112 119//119
f 262//262 266//266 263//263
f 262//262 263//263 254//254
f 262//262 254//254 266//266
f 264//264 254//254 263//263
f 264//264 263//263 266//266
f 264//264 266//266 265//265
f 281//281 280//280 284//284
f 281//281 284//284 266//266
f 286//286 285//285 280//280
f 286//286 280//280 291//291
f 286//286 291//291 285//285
f 217//217 223//223 198//198
f 117//117 128//128 147//147
f 117//117 147//147 197//197
f 117//117 197//197 203//203
f 117//117 203//203 66//66
f 117//117 66//66 73//73
f 117//117 73//73 128//128
f 162//162 221//221 161//161
f 162//162 161//161 145//145
f 162//162 145//145 165//165
f 162//162 165//165 229//229
f 162//162 229//229 221//221
f 142//142 159//159 181//181
f 107//107 105//105 156//156
f 107//107 156//156 159//159
f 189//189 240//240 290//290
f 215//215 179//179 218//218
f 215//215 218//218 250//250
f 215//215 250//250 179//179
f 116//116 218//218 102//102
f 116//116 102//102 110//110
f 36//36 39//39 56//56
f 80//80 62//62 79//79
f 80//80 79//79 91//91
f 279//279 310//310 88//88
f 279//279 88//88 83//83
f 279//279 297//297 302//302
f 279//279 302//302 310//310
f 42//42 39//39 58//58
f 42//42 58//58 72//72
f 42//42 72//72 39//39
f 25//25 11//11 16//16
f 25//25 16//16 50//50
f 314//314 313//313 325//325
f 314//314 325//325 320//320
f 314//314 320//320 315//315
f 314//314 315//315 303//303
f 314//314 303//303 292//292
f 314//314 292//292 313//313
f 253//253 257//257 247//247
f 253//253 247//247 240//240
f 253//253 240//240 245//245
f 249//249 239//239 254//254
f 249//249 254//254 264//264
f 249//249 245//245 233//233
f 249//249 233//233 227//227
f 249//249 227//227 239//239
f 276//276 250//250 234//234
f 276//276 234//234 283//283
f 276//276 282//282 246//246
f 276//276 246//246 250//250
f 268//268 234//234 153//153
f 268//268 153//153 181//181
f 268//268 181//181 189//189
f 268//268 189//189 290//290
f 268//268 283//283 234//234
f 299//299 290//290 257//257
f 299//299 257//257 300//300
f 299//299 300//300 305//305
f 299//299 283//283 290//290
f 248//248 261//261 251//251
f 248//248 251//251 241//241
f 248//248 241//241 261//261
f 236//236 252//252 288//288
f 236//236 288//288 225//225
f 236//236 225//225 226//226
f 236//236 226//226 242//242
f 236//236 242//242 252//252
f 144//144 138//138 119//119
f 216//216 288//288 291//291
f 216//216 291//291 280//280
f 188//188 138//138 144//144
f 187//187 182//182 203//203
f 187//187 203//203 199//199
f 187//187 193//193 144//144
f 187//187 144//144 182//182
f 202//202 193//193 187//187
f 202//202 187//187 199//199
f 202//202 199//199 222//222
f 202//202 222//222 226//226
f 255//255 254//254 244//244
f 255//255 266//266 254//254
f 256//256 244//244 223//223
f 243//243 254//254 239//239
f 243//243 239//239 224//224
f 243//243 244//244 254//254
f 143//143 141//141 170//170
f 143//143 132//132 125//125
f 143//143 125//125 130//130
f 143//143 130//130 141//141
f 49//49 54//54 61//61
f 49//49 61//61 73//73
f 6//6 40//40 2//2
f 9//9 11//11 2//2
f 9//9 17//17 11//11
f 18//18 20//20 17//17
f 108//108 156//156 105//105
f 192//192 204//204 178//178
f 192//192 190//190 200//200
f 192//192 200//200 204//204
f 176//176 167//167 190//190
f 176//176 190//190 192//192
f 176//176 192//192 178//178
f 175//175 159//159 156//156
f 175//175 156//156 164//164
f 175//175 164//164 174//174
f 175//175 174//174 178//178
f 175//175 178//178 183//183
f 175//175 183//183 159//159
f 160//160 190//190 167//167
f 129//129 138//138 170//170
f 129//129 130//130 119//119
f 129//129 119//119 138//138
f 123//123 112//112 130//130
f 123//123 130//130 125//125
f 123//123 125//125 112//112
f 273//273 281//281 266//266
f 47//47 63//63 119//119
f 47//47 119//119 34//34
f 106//106 118//118 119//119
f 90//90 59//59 82//82
f 90//90 82//82 203//203
f 90//90 203//203 182//182
f 76//76 66//66 203//203
f 76//76 203//203 82//82
f 76//76 82//82 59//59
f 68//68 72//72 77//77
f 68//68 77//77 71//71
f 95//95 97//97 94//94
f 95//95 94//94 92//92
f 95//95 92//92 20//20
f 95//95 20//20 18//18
f 95//95 107//107 110//110
f 95//95 110//110 97//97
f 113//113 142//142 110//110
f 113//113 110//110 107//107
f 113//113 107//107 159//159
f 113//113 159//159 142//142
f 207//207 240//240 189//189
f 207//207 189//189 191//191
f 207//207 183//183 245//245
f 207//207 245//245 238//238
f 207//207 238//238 228//228
f 207//207 228//228 240//240
f 186//186 183//183 207//207
f 186//186 207//207 191//191
f 186//186 191//191 189//189
f 186//186 189//189 181//181
f 186//186 181//181 183//183
f 140//140 153//153 234//234
f 140//140 234//234 218//218
f 140//140 218//218 116//116
f 140//140 116//116 110//110
f 26//26 40//40 6//6
f 26//26 6//6 2//2
f 26//26 2//2 24//24
f 235//235 209//209 279//279
f 235//235 279//279 83//83
f 230//230 297//297 279//279
f 230//230 279//279 209//209
f 230//230 209//209 297//297
f 70//70 85//85 83//83
f 70//70 83//83 72//72
f 70//70 72//72 62//62
f 30//30 50//50 58//58
f 30//30 58//58 39//39
f 30//30 39//39 36//36
f 30//30 36//36 24//24
f 30//30 24//24 11//11
f 30//30 11//11 25//25
f 30//30 25//25 50//50
f 260//260 265//265 257//257
f 260//260 257//257 253//253
f 260//260 253//253 245//245
f 260//260 245//245 249//249
f 260//260 249//249 264//264
f 260//260 264//264 265//265
f 287//287 276//276 283//283
f 287//287 283//283 299//299
f 287//287 299//299 305//305
f 277//277 283//283 268//268
f 277//277 268//268 290//290
f 277//277 290//290 283//283
f 150//150 130//130 129//129
f 150//150 129//129 170//170
f 150//150 170//170 141//141
f 150//150 141//141 130//130
f 127//127 118//118 144//144
f 127//127 144//144 119//119
f 127//127 119//119 118//118
f 206//206 216//216 217//217
f 206//206 217//217 198//198
f 213//213 216//216 206//206
f 213//213 288//288 216//216
f 185//185 170//170 138//138
f 185//185 138//138 188//188
f 196//196 188//188 144//144
f 196//196 144//144 193//193
f 220//220 202//202 226//226
f 220//220 226//226 225//225
f 212//212 225//225 288//288
f 259//259 244//244 256//256
f 259//259 256//256 266//266
f 259//259 266//266 255//255
f 259//259 255//255 244//244
f 237//237 244//244 243//243
f 237//237 243//243 224//224
f 237//237 224//224 171//171
f 237//237 171//171 244//244
f 149//149 171//171 224//224
f 149//149 224//224 190//190
f 219//219 223//223 244//244
f 210//210 223//223 219//219
f 210//210 219//219 244//244
f 210//210 244//244 171//171
f 210//210 198//198 223//223
f 177//177 143//143 170//170
f 37//37 156//156 108//108
f 37//37 108//108 105//105
f 37//37 95//95 18//18
f 131//131 125//125 132//132
f 154//154 167//167 164//164
f 8//8 17//17 9//9
f 8//8 9//9 2//2
f 10//10 2//2 1//1
f 10//10 1//1 37//37
f 10//10 37//37 18//18
f 10//10 18//18 17//17
f 10//10 17//17 8//8
f 10//10 8//8 2//2
f 173//173 164//164 167//167
f 173//173 167//167 176//176
f 173//173 176//176 178//178
f 173//173 178//178 174//174
f 173//173 174//174 164//164
f 232//232 217//217 273//273
f 232//232 273//273 266//266
f 232//232 266//266 256//256
f 232//232 256//256 223//223
f 232//232 223//223 217//217
f 274//274 216//216 280//280
f 274//274 280//280 281//281
f 274//274 281//281 273//273
f 274//274 273//273 217//217
f 274//274 217//217 216//216
f 78//78 106//106 119//119
f 78//78 119//119 63//63
f 78//78 63//63 59//59
f 78//78 59//59 90//90
f 78//78 90//90 118//118
f 78//78 118//118 106//106
f 135//135 118//118 90//90
f 135//135 90//90 182//182
f 135//135 182//182 144//144
f 135//135 144//144 118//118
f 67//67 72//72 68//68
f 67//67 68//68 39//39
f 67//67 39//39 72//72
f 64//64 56//56 39//39
f 64//64 39//39 68//68
f 64//64 68//68 71//71
f 64//64 71//71 69//69
f 136//136 142//142 140//140
f 136//136 140//140 110//110
f 136//136 110//110 142//142
f 146//146 153//153 140//140
f 146//146 140//140 142//142
f 146//146 142//142 181//181
f 146//146 181//181 153//153
f 51//51 26//26 24//24
f 51//51 24//24 36//36
f 51//51 36//36 56//56
f 51//51 56//56 64//64
f 51//51 64//64 69//69
f 93//93 85//85 70//70
f 93//93 91//91 209//209
f 294//294 297//297 282//282
f 294//294 282//282 276//276
f 294//294 276//276 287//287
f 294//294 287//287 305//305
f 294//294 305//305 297//297
f 201//201 198//198 185//185
f 201//201 185//185 188//188
f 201//201 188//188 196//196
f 201//201 196//196 213//213
f 201//201 213//213 206//206
f 201//201 206//206 198//198
f 208//208 288//288 213//213
f 208//208 213//213 196//196
f 208//208 196//196 193//193
f 205//205 202//202 220//220
f 205//205 220//220 225//225
f 205//205 225//225 212//212
f 205//205 212//212 288//288
f 205//205 208//208 193//193
f 205//205 193//193 202//202
f 166//166 171//171 149//149
f 166//166 149//149 143//143
f 166//166 143//143 171//171
f 139//139 149//149 190//190
f 139//139 190//190 160//160
f 195//195 198//198 210//210
f 195//195 210//210 171//171
f 180//180 177//177 198//198
f 180//180 198//198 195//195
f 180//180 195//195 171//171
f 184//184 185//185 198//198
f 184//184 198//198 177//177
f 184//184 177//177 170//170
f 184//184 170//170 185//185
f 120//120 156//156 37//37
f 111//111 115//115 120//120
f 111//111 120//120 37//37
f 111//111 37//37 125//125
f 111//111 125//125 131//131
f 104//104 95//95 37//37
f 104//104 37//37 105//105
f 104//104 105//105 107//107
f 104//104 107//107 95//95
f 27//27 13//13 47//47
f 27//27 47//47 34//34
f 158//158 164//164 156//156
f 157//157 160//160 167//167
f 157//157 167//167 154//154
f 157//157 154//154 152//152
f 157//157 139//139 160//160
f 15//15 47//47 13//13
f 15//15 13//13 14//14
f 3//3 13//13 27//27
f 3//3 27//27 1//1
f 44//44 40//40 26//26
f 44//44 26//26 51//51
f 44//44 51//51 69//69
f 44//44 69//69 54//54
f 44//44 54//54 49//49
f 103//103 93//93 209//209
f 103//103 83//83 85//85
f 84//84 91//91 93//93
f 84//84 93//93 70//70
f 84//84 70//70 62//62
f 84//84 62//62 80//80
f 84//84 80//80 91//91
f 214//214 208//208 205//205
f 214//214 205//205 288//288
f 214//214 288//288 208//208
f 134//134 154//154 126//126
f 134//134 126//126 115//115
f 134//134 115//115 131//131
f 134//134 131//131 132//132
f 134//134 132//132 139//139
f 134//134 139//139 157//157
f 134//134 157//157 152//152
f 137//137 143//143 149//149
f 137//137 149//149 139//139
f 137//137 139//139 132//132
f 137//137 132//132 143//143
f 169//169 177//177 180//180
f 169//169 180//180 171//171
f 169//169 171//171 143//143
f 169//169 143//143 177//177
f 114//114 115//115 111//111
f 114//114 111//111 131//131
f 114//114 131//131 115//115
f 32//32 27//27 34//34
f 32//32 34//34 125//125
f 32//32 125//125 37//37
f 163//163 164//164 158//158
f 163//163 154//154 164//164
f 155//155 158//158 156//156
f 155//155 156//156 120//120
f 38//38 40//40 44//44
f 29//29 31//31 14//14
f 41//41 63//63 31//31
f 41//41 48//48 66//66
f 19//19 14//14 31//31
f 19//19 31//31 47//47
f 19//19 47//47 15//15
f 19//19 15//15 14//14
f 46//46 47//47 31//31
f 46//46 31//31 63//63
f 46//46 63//63 47//47
f 7//7 2//2 40//40
f 7//7 40//40 38//38
f 7//7 38//38 22//22
f 5//5 22//22 14//14
f 172//172 235//235 83//83
f 172//172 83//83 103//103
f 172//172 103//103 209//209
f 172//172 209//209 235//235
f 99//99 93//93 103//103
f 99//99 103//103 85//85
f 99//99 85//85 93//93
f 148//148 154//154 134//134
f 148//148 134//134 152//152
f 148//148 152//152 154//154
f 28//28 27//27 32//32
f 28//28 32//32 37//37
f 28//28 37//37 1//1
f 28//28 1//1 27//27
f 151//151 158//158 155//155
f 151//151 126//126 154//154
f 151//151 154//154 163//163
f 151//151 163//163 158//158
f 43//43 22//22 38//38
f 43//43 38//38 44//44
f 43//43 44//44 49//49
f 23//23 22//22 29//29
f 23//23 29//29 14//14
f 23//23 14//14 22//22
f 55//55 66//66 48//48
f 55//55 48//48 41//41
f 55//55 41//41 31//31
f 52//52 63//63 41//41
f 52//52 41//41 66//66
f 52//52 66//66 76//76
f 52//52 76//76 59//59
f 52//52 59//59 63//63
f 4//4 3//3 1//1
f 4//4 1//1 2//2
f 4//4 2//2 7//7
f 4//4 7//7 22//22
f 4//4 22//22 5//5
f 4//4 5//5 3//3
f 12//12 13//13 3//3
f 12//12 3//3 5//5
f 12//12 5//5 14//14
f 12//12 14//14 13//13
f 124//124 120//120 115//115
f 124//124 115//115 126//126
f 124//124 126//126 151//151
f 124//124 151//151 155//155
f 124//124 155//155 120//120
f 35//35 22//22 43//43
f 57//57 43//43 49//49
f 57//57 49//49 73//73
f 57//57 73//73 66//66
f 45//45 55//55 31//31
f 45//45 31//31 29//29
f 45//45 43//43 57//57
f 45//45 57//57 66//66
f 45//45 66//66 55//55
f 33//33 22//22 35//35
f 33//33 35//35 43//43
f 33//33 43//43 45//45
f 33//33 45//45 29//29
f 33//33 29//29 22//22
