# OBJ
# COMPAS
# version: 2.1.0
# precision: 3
# V F E: 306 607 912

o Mesh 0
v 93.930 -8.421 12.358
v 93.638 -8.419 12.307
v 93.392 -8.406 12.675
v 93.835 -8.404 12.684
v 93.983 -8.396 12.619
v 94.172 -8.395 12.160
v 94.149 -8.393 11.640
v 93.407 -8.387 12.844
v 94.257 -8.372 11.066
v 92.972 -8.370 10.498
v 91.409 -8.362 12.868
v 93.134 -8.360 12.914
v 94.172 -8.350 9.489
v 93.731 -8.346 12.917
v 94.172 -8.311 12.417
v 94.325 -8.303 11.518
v 93.748 -8.294 4.914
v 92.339 -8.282 12.930
v 94.344 -8.260 11.777
v 91.508 -8.256 12.923
v 92.119 -8.250 12.933
v 94.342 -8.249 12.186
v 94.278 -8.247 8.504
v 93.850 -8.238 2.263
v 94.033 -8.224 2.547
v 93.950 -8.209 1.230
v 93.610 -8.208 0.944
v 93.555 -8.195 12.959
v 93.995 -8.182 0.958
v 94.221 -8.178 5.267
v 94.084 -8.174 1.200
v 93.283 -8.151 0.611
v 93.793 -8.143 0.670
v 92.552 -8.132 0.522
v 94.432 -8.112 11.586
v 94.152 -8.108 2.259
v 91.373 -8.107 0.575
v 94.301 -8.105 12.684
v 94.140 -8.084 12.872
v 91.913 -8.062 0.444
v 93.853 -8.057 12.968
v 94.037 -7.992 0.672
v 94.167 -7.991 1.150
v 85.315 -7.979 1.090
v 85.332 -7.965 0.915
v 94.312 -7.958 12.801
v 82.302 -7.956 5.404
v 94.394 -7.953 12.662
v 84.625 -7.938 0.851
v 82.362 -7.926 1.599
v 81.722 -7.925 12.630
v 81.485 -7.922 5.769
v 93.462 -7.921 0.301
v 81.487 -7.912 12.402
v 81.442 -7.908 11.222
v 92.989 -7.899 0.249
v 83.091 -7.892 0.952
v 81.461 -7.890 12.750
v 84.754 -7.890 0.674
v 81.558 -7.885 2.810
v 94.176 -7.883 0.872
v 81.360 -7.882 10.720
v 87.417 -7.876 0.444
v 81.455 -7.867 2.247
v 81.732 -7.861 1.228
v 94.210 -7.858 1.789
v 81.504 -7.858 1.646
v 93.851 -7.856 0.395
v 81.364 -7.856 2.981
v 92.297 -7.855 0.212
v 81.324 -7.852 9.518
v 81.291 -7.833 12.372
v 81.590 -7.826 0.970
v 81.852 -7.814 0.831
v 94.279 -7.806 12.935
v 81.263 -7.800 12.621
v 81.380 -7.790 1.139
v 81.268 -7.789 10.418
v 94.143 -7.766 0.587
v 83.414 -7.754 0.627
v 81.523 -7.716 0.736
v 81.339 -7.713 12.842
v 86.009 -7.709 0.379
v 81.266 -7.705 6.987
v 81.301 -7.695 2.934
v 81.478 -7.693 12.873
v 81.305 -7.665 1.466
v 81.340 -7.644 0.891
v 81.219 -7.602 12.801
v 94.177 -7.601 12.984
v 94.362 -7.596 12.896
v 94.439 -7.568 12.717
v 93.554 -7.510 0.068
v 81.402 -7.500 0.692
v 93.946 -7.497 0.272
v 82.034 -7.464 12.909
v 94.289 -7.448 12.962
v 94.126 -7.406 0.496
v 81.305 -7.373 0.823
v 94.396 -7.369 12.887
v 81.947 -7.353 0.394
v 94.152 -7.323 12.986
v 81.811 -7.243 12.903
v 81.385 -7.229 0.597
v 94.206 -7.171 0.801
v 93.950 -7.156 0.217
v 83.253 -7.095 0.259
v 81.456 -6.937 0.441
v 94.137 -6.648 0.460
v 81.599 -6.615 0.259
v 81.331 -6.502 0.564
v 93.856 -6.413 12.978
v 82.208 -6.269 0.101
v 81.483 -6.010 0.291
v 81.370 -5.914 12.868
v 81.456 -5.421 12.896
v 94.143 -5.052 0.421
v 81.366 -4.958 12.852
v 81.422 -4.441 0.438
v 81.362 -4.290 0.798
v 94.239 -3.126 0.515
v 94.102 -2.951 0.321
v 81.387 -2.823 12.762
v 94.269 -2.572 0.590
v 94.293 -0.690 0.514
v 81.488 -0.642 0.595
v 81.795 -0.616 0.259
v 81.596 -0.344 0.379
v 82.805 -0.255 -0.005
v 81.519 -0.178 0.527
v 81.483 0.546 12.695
v 94.061 0.577 0.273
v 81.537 0.582 12.781
v 81.448 0.704 11.818
v 94.315 0.969 0.484
v 94.369 2.011 0.592
v 81.723 2.171 12.842
v 94.338 2.633 0.497
v 82.393 3.313 0.128
v 81.628 3.565 0.528
v 94.142 3.630 12.778
v 81.807 3.712 0.372
v 94.240 3.782 12.647
v 94.303 3.864 12.054
v 82.926 3.953 0.075
v 94.130 3.958 12.767
v 94.623 4.060 2.689
v 94.218 4.128 12.628
v 94.289 4.175 12.213
v 94.284 4.238 0.467
v 82.062 4.423 0.301
v 94.601 4.526 5.022
v 93.751 4.609 0.296
v 94.052 4.615 12.776
v 94.167 4.728 12.630
v 94.517 4.730 1.218
v 81.912 4.802 12.772
v 94.380 4.858 0.534
v 94.037 4.863 12.769
v 94.636 4.899 3.792
v 81.715 4.975 0.491
v 94.453 5.138 0.701
v 94.493 5.141 1.013
v 94.598 5.147 4.136
v 94.585 5.155 2.533
v 93.449 5.195 0.215
v 93.997 5.200 12.762
v 94.581 5.259 3.819
v 94.386 5.329 0.635
v 94.587 5.356 2.960
v 94.471 5.360 0.864
v 94.085 5.364 0.445
v 94.525 5.418 4.062
v 94.087 5.425 12.571
v 94.034 5.437 12.727
v 94.549 5.440 3.308
v 94.418 5.443 0.721
v 94.530 5.485 2.366
v 94.028 5.549 12.691
v 94.514 5.551 2.793
v 94.341 5.571 0.713
v 82.045 5.780 12.838
v 93.715 5.862 12.776
v 94.281 5.920 1.937
v 94.082 6.009 0.976
v 81.733 6.026 11.837
v 81.744 6.026 0.509
v 82.052 6.071 12.772
v 86.074 6.080 12.827
v 92.194 6.085 0.234
v 94.189 6.107 1.939
v 82.162 6.140 0.376
v 94.080 6.171 1.707
v 94.117 6.193 2.203
v 93.898 6.203 0.868
v 81.651 6.275 0.739
v 82.041 6.286 12.664
v 90.878 6.317 12.791
v 93.187 6.322 0.377
v 82.159 6.323 12.835
v 91.056 6.335 0.218
v 87.877 6.350 12.818
v 93.628 6.380 0.692
v 92.641 6.439 0.286
v 93.406 6.457 0.616
v 81.656 6.475 10.474
v 93.015 6.482 0.370
v 81.676 6.485 10.712
v 82.120 6.501 12.759
v 93.499 6.539 0.875
v 81.800 6.595 0.586
v 93.256 6.620 0.703
v 93.674 6.651 2.581
v 85.732 6.667 0.234
v 81.673 6.674 10.424
v 82.145 6.698 12.722
v 81.900 6.722 12.011
v 93.533 6.736 2.447
v 91.920 6.741 0.318
v 93.459 6.822 2.701
v 93.462 6.862 12.733
v 91.500 6.876 12.768
v 82.414 6.893 0.574
v 81.999 6.920 12.012
v 93.745 6.930 12.050
v 82.735 6.938 12.818
v 82.314 6.964 12.818
v 81.899 6.971 0.690
v 91.422 6.973 0.373
v 90.770 6.990 0.368
v 82.078 6.991 12.176
v 91.810 6.993 0.437
v 92.049 7.008 0.507
v 93.345 7.026 12.739
v 93.728 7.066 11.879
v 93.072 7.106 12.741
v 82.420 7.115 12.672
v 93.551 7.122 12.509
v 81.672 7.149 2.245
v 89.346 7.153 0.463
v 84.396 7.162 0.364
v 81.720 7.163 9.947
v 93.469 7.166 12.620
v 87.138 7.173 12.803
v 93.343 7.185 12.680
v 82.613 7.203 12.783
v 92.812 7.209 12.687
v 89.099 7.215 0.506
v 81.921 7.215 0.821
v 93.159 7.229 5.051
v 93.522 7.254 12.396
v 93.599 7.255 11.970
v 81.722 7.263 1.133
v 93.065 7.271 12.627
v 93.231 7.273 12.594
v 93.395 7.273 12.528
v 81.713 7.273 1.339
v 88.773 7.290 0.563
v 93.019 7.306 4.952
v 86.055 7.312 12.802
v 82.849 7.357 12.796
v 93.389 7.376 12.305
v 82.184 7.386 0.864
v 93.134 7.393 12.439
v 81.744 7.397 1.306
v 93.234 7.426 12.178
v 88.497 7.429 0.750
v 92.712 7.470 4.906
v 81.892 7.484 1.104
v 83.106 7.487 12.802
v 87.897 7.625 1.070
v 81.761 7.672 8.869
v 92.195 7.678 4.802
v 92.286 7.681 5.113
v 81.739 7.734 8.339
v 92.086 7.741 5.072
v 92.136 7.751 5.268
v 87.835 7.797 1.386
v 88.132 7.813 1.443
v 81.784 7.840 8.656
v 81.729 7.856 7.344
v 82.094 7.861 9.099
v 81.775 7.884 3.020
v 81.745 7.888 7.836
v 90.865 7.930 4.158
v 81.804 7.944 8.138
v 81.748 7.977 3.687
v 81.699 7.988 4.887
v 90.648 7.993 4.211
v 81.743 8.019 6.578
v 81.697 8.021 5.188
v 88.275 8.034 2.045
v 81.766 8.069 4.052
v 81.954 8.074 7.658
v 81.950 8.087 3.705
v 81.747 8.114 5.816
v 84.015 8.122 3.120
v 81.797 8.147 5.553
v 81.887 8.163 4.110
v 81.846 8.167 4.836
v 81.852 8.183 5.189
v 87.676 8.201 2.324
v 87.935 8.212 2.421
v 82.067 8.306 5.627
v 86.877 8.312 4.143
v 82.783 8.421 6.375
f 99 89 120
f 58 72 54
f 90 96 41
f 305 306 266
f 305 266 289
f 2 11 50
f 2 50 10
f 62 69 52
f 62 54 72
f 47 11 52
f 47 52 50
f 47 50 11
f 51 54 52
f 51 52 11
f 51 11 58
f 51 58 54
f 26 24 27
f 26 27 29
f 30 43 35
f 33 29 27
f 33 42 29
f 76 72 58
f 76 89 78
f 76 69 72
f 3 8 11
f 3 11 2
f 3 2 1
f 75 90 41
f 277 289 266
f 304 306 299
f 86 58 11
f 86 11 20
f 28 96 86
f 28 41 96
f 134 89 131
f 134 196 120
f 134 120 89
f 139 129 113
f 145 129 139
f 145 166 129
f 17 27 24
f 17 24 1
f 17 1 2
f 17 2 10
f 17 10 50
f 17 50 27
f 87 89 99
f 87 99 88
f 77 73 67
f 77 69 87
f 77 87 88
f 77 88 81
f 77 81 73
f 60 50 52
f 65 50 67
f 65 67 73
f 71 69 62
f 71 62 72
f 55 54 62
f 55 62 52
f 55 52 54
f 66 35 43
f 66 43 61
f 66 147 35
f 36 43 30
f 114 139 113
f 93 129 166
f 93 166 132
f 93 113 129
f 44 50 49
f 44 27 50
f 74 73 81
f 32 33 27
f 32 27 34
f 149 164 174
f 149 92 144
f 15 38 5
f 15 22 38
f 226 270 227
f 157 131 133
f 157 133 182
f 157 186 131
f 262 277 266
f 261 227 270
f 294 270 306
f 294 306 304
f 295 299 297
f 82 89 76
f 82 76 58
f 82 58 86
f 82 115 89
f 12 11 8
f 12 20 11
f 21 28 86
f 21 86 20
f 137 182 133
f 123 133 131
f 231 227 237
f 197 217 186
f 302 297 299
f 302 299 306
f 84 89 87
f 84 69 78
f 84 78 89
f 64 67 50
f 64 50 60
f 64 60 52
f 64 52 69
f 64 69 77
f 64 77 67
f 57 49 50
f 57 50 65
f 57 65 73
f 57 73 74
f 57 74 49
f 31 26 29
f 31 29 42
f 31 42 61
f 31 61 43
f 31 43 36
f 31 36 30
f 13 24 26
f 13 26 9
f 6 5 1
f 6 22 15
f 6 15 5
f 16 22 6
f 16 6 9
f 111 99 120
f 111 120 196
f 111 126 119
f 111 119 114
f 108 111 114
f 101 83 81
f 53 33 32
f 53 32 34
f 106 93 132
f 106 132 122
f 45 27 44
f 45 44 49
f 45 49 27
f 80 83 63
f 80 81 83
f 59 63 34
f 59 49 74
f 59 74 81
f 59 81 63
f 152 144 92
f 152 149 144
f 48 38 22
f 48 22 35
f 48 35 92
f 97 90 75
f 183 236 222
f 183 222 198
f 183 198 202
f 183 202 112
f 179 243 175
f 179 175 174
f 156 163 165
f 156 165 147
f 4 8 3
f 4 3 1
f 4 1 5
f 39 5 38
f 116 182 137
f 116 115 82
f 116 82 86
f 200 226 227
f 244 226 200
f 244 200 202
f 244 202 198
f 244 198 222
f 244 222 236
f 276 277 273
f 276 273 289
f 276 289 277
f 168 164 170
f 168 170 173
f 252 268 262
f 171 170 165
f 171 165 163
f 245 243 256
f 246 227 261
f 246 261 237
f 246 237 227
f 14 28 12
f 14 12 8
f 14 8 4
f 14 4 5
f 14 5 39
f 14 39 75
f 14 75 41
f 14 41 28
f 18 12 28
f 18 28 21
f 18 21 20
f 18 20 12
f 118 115 116
f 118 116 137
f 118 137 133
f 118 133 89
f 118 89 115
f 215 217 242
f 215 186 217
f 224 217 231
f 150 158 132
f 138 122 132
f 138 132 158
f 285 273 233
f 285 233 289
f 285 289 273
f 303 289 233
f 303 302 306
f 303 306 305
f 303 305 289
f 279 278 302
f 265 287 283
f 85 69 84
f 85 84 87
f 85 87 69
f 25 26 31
f 25 31 9
f 25 9 26
f 7 9 6
f 7 6 1
f 7 1 24
f 7 24 13
f 7 13 9
f 23 30 35
f 23 35 16
f 23 16 9
f 23 9 31
f 23 31 30
f 19 22 16
f 19 16 35
f 19 35 22
f 94 88 99
f 94 108 101
f 94 101 81
f 94 81 88
f 140 196 187
f 211 187 196
f 110 113 101
f 110 101 108
f 110 108 114
f 110 114 113
f 107 101 113
f 107 113 93
f 70 63 83
f 70 83 101
f 70 101 107
f 70 107 93
f 79 61 42
f 79 109 121
f 117 109 106
f 37 49 59
f 37 59 34
f 37 34 27
f 37 27 49
f 160 147 165
f 160 165 170
f 160 170 164
f 160 164 149
f 160 149 152
f 160 152 92
f 160 92 35
f 160 35 147
f 46 38 48
f 46 48 75
f 46 75 39
f 46 39 38
f 91 97 75
f 91 75 48
f 91 48 92
f 102 90 97
f 102 154 183
f 102 183 112
f 102 112 200
f 102 200 182
f 102 182 116
f 102 116 96
f 102 96 90
f 105 61 79
f 105 79 121
f 105 156 147
f 105 147 66
f 105 66 61
f 103 96 116
f 103 116 86
f 103 86 96
f 189 202 200
f 189 200 112
f 189 112 202
f 216 227 231
f 216 231 217
f 216 217 197
f 260 226 244
f 260 244 236
f 260 236 270
f 260 270 226
f 259 220 268
f 259 268 252
f 259 252 250
f 259 250 220
f 274 277 262
f 274 262 268
f 274 268 273
f 274 273 277
f 225 179 174
f 251 252 262
f 251 262 256
f 251 256 243
f 184 171 177
f 264 256 262
f 264 262 266
f 264 266 306
f 264 306 270
f 234 236 183
f 234 243 245
f 234 245 236
f 280 261 270
f 280 286 284
f 280 242 217
f 280 217 224
f 280 224 231
f 280 231 237
f 280 237 261
f 282 294 286
f 282 286 280
f 282 280 270
f 282 270 294
f 301 298 304
f 301 304 299
f 208 186 215
f 206 215 291
f 206 291 134
f 206 134 131
f 206 131 186
f 206 186 208
f 206 208 215
f 239 196 134
f 239 134 291
f 239 257 196
f 288 257 239
f 288 239 291
f 288 291 287
f 288 287 257
f 281 284 291
f 281 291 215
f 296 298 301
f 296 284 286
f 296 286 294
f 296 294 304
f 296 304 298
f 153 166 150
f 153 150 132
f 153 132 166
f 172 158 150
f 172 150 166
f 172 169 158
f 201 166 145
f 201 145 214
f 292 303 233
f 292 233 279
f 292 279 302
f 292 302 303
f 249 263 228
f 267 278 279
f 104 108 94
f 104 94 99
f 104 99 111
f 104 111 108
f 127 142 139
f 127 139 114
f 151 139 142
f 151 142 187
f 128 187 142
f 128 142 127
f 128 127 114
f 128 114 119
f 128 119 140
f 130 126 196
f 130 196 140
f 130 140 119
f 130 119 126
f 223 211 228
f 40 63 70
f 40 34 63
f 56 53 34
f 56 34 40
f 56 40 70
f 56 70 93
f 56 93 53
f 98 109 79
f 98 106 109
f 68 79 42
f 68 42 33
f 68 33 53
f 68 53 93
f 143 92 149
f 167 175 183
f 124 105 121
f 124 121 125
f 162 156 105
f 162 158 169
f 162 169 177
f 162 177 171
f 162 171 163
f 162 163 156
f 209 182 200
f 209 200 227
f 209 227 216
f 209 216 197
f 235 164 168
f 235 168 173
f 235 252 251
f 235 251 225
f 235 225 174
f 235 174 164
f 238 179 225
f 238 225 251
f 238 251 243
f 238 243 179
f 254 264 270
f 221 175 243
f 221 243 234
f 221 234 183
f 221 183 175
f 275 280 284
f 275 284 281
f 275 281 215
f 275 215 242
f 290 284 296
f 290 296 291
f 290 291 284
f 293 299 283
f 293 283 287
f 293 287 291
f 293 291 296
f 232 229 258
f 232 258 267
f 232 267 279
f 232 279 233
f 241 214 145
f 241 223 228
f 241 228 263
f 241 263 278
f 241 267 258
f 190 166 201
f 190 201 204
f 190 204 166
f 230 214 241
f 269 283 299
f 269 299 295
f 269 295 297
f 269 297 302
f 269 302 278
f 269 278 263
f 269 263 249
f 269 265 283
f 253 211 196
f 253 196 257
f 253 257 287
f 253 287 265
f 253 265 269
f 253 269 249
f 253 249 228
f 253 228 211
f 161 128 140
f 161 140 187
f 95 106 98
f 95 98 79
f 95 79 68
f 95 68 93
f 95 93 106
f 100 97 91
f 100 91 92
f 100 92 143
f 155 174 175
f 155 175 143
f 155 149 174
f 146 143 175
f 159 154 146
f 159 146 175
f 159 175 167
f 159 167 183
f 159 183 154
f 136 124 125
f 136 162 105
f 136 105 124
f 188 182 209
f 188 209 197
f 188 197 186
f 188 186 157
f 188 157 182
f 176 235 173
f 176 173 170
f 210 268 220
f 203 210 195
f 191 194 252
f 191 252 235
f 191 184 177
f 247 270 236
f 247 236 245
f 247 245 254
f 247 254 270
f 255 264 254
f 255 254 245
f 255 245 256
f 255 256 264
f 272 280 275
f 272 275 242
f 272 242 280
f 300 301 299
f 300 299 293
f 300 293 296
f 300 296 301
f 219 229 232
f 219 204 201
f 219 201 214
f 219 214 230
f 219 230 229
f 192 145 139
f 192 139 151
f 192 151 187
f 192 187 211
f 192 211 223
f 192 223 241
f 192 241 145
f 271 267 241
f 271 241 278
f 271 278 267
f 248 258 229
f 248 229 230
f 248 241 258
f 148 149 155
f 148 155 143
f 148 143 149
f 141 97 100
f 141 100 143
f 141 143 146
f 141 146 154
f 141 154 102
f 141 102 97
f 135 158 162
f 135 162 136
f 135 109 117
f 135 117 106
f 135 106 122
f 135 122 138
f 199 172 166
f 212 233 273
f 212 273 268
f 212 268 210
f 212 210 203
f 185 195 191
f 213 220 250
f 213 250 252
f 213 252 194
f 213 194 191
f 213 195 210
f 180 176 170
f 180 191 235
f 180 235 176
f 240 241 248
f 240 248 230
f 240 230 241
f 207 199 166
f 207 166 204
f 207 204 219
f 207 219 232
f 207 232 233
f 207 233 212
f 207 203 199
f 181 177 169
f 181 169 172
f 181 172 199
f 181 199 203
f 181 203 195
f 181 195 185
f 181 185 191
f 181 191 177
f 218 220 213
f 218 213 210
f 218 210 220
f 193 195 213
f 193 213 191
f 193 191 195
f 178 171 184
f 178 184 191
f 178 191 180
f 178 180 170
f 178 170 171
f 205 203 207
f 205 207 212
f 205 212 203
f 80 63 81
f 76 78 69
f 133 123 89
f 131 89 123
f 135 136 125
f 109 135 121
f 125 121 135
f 126 111 196
f 161 187 128
f 138 158 135
