# OBJ
# COMPAS
# version: 2.1.0
# precision: 3
# V F E: 248 492 738

o Mesh 0
v 46.683 -11.423 11.241
v 46.497 -11.421 9.624
v 46.524 -11.414 12.068
v 46.692 -11.411 9.325
v 46.844 -11.402 12.260
v 46.603 -11.398 12.381
v 46.645 -11.392 8.895
v 46.870 -11.386 12.029
v 45.738 -11.384 12.377
v 43.435 -11.375 10.215
v 46.898 -11.364 10.969
v 45.475 -11.339 0.733
v 43.739 -11.310 12.672
v 46.942 -11.306 11.454
v 46.792 -11.305 12.419
v 45.666 -11.253 0.986
v 46.978 -11.249 11.666
v 45.097 -11.214 12.674
v 46.719 -11.214 8.770
v 46.917 -11.199 10.384
v 40.688 -11.187 13.129
v 46.982 -11.173 12.111
v 46.696 -11.172 12.473
v 46.936 -11.168 12.372
v 45.065 -11.165 0.241
v 39.964 -11.162 13.200
v 44.437 -11.135 0.288
v 47.022 -11.118 11.491
v 38.464 -11.101 13.405
v 45.499 -11.098 0.367
v 38.038 -11.080 13.465
v 37.758 -11.077 13.411
v 45.934 -11.066 2.456
v 45.702 -11.056 0.736
v 39.827 -11.002 0.844
v 34.749 -10.985 12.020
v 37.828 -10.983 13.628
v 34.999 -10.975 13.528
v 35.319 -10.968 13.733
v 34.609 -10.968 12.025
v 43.770 -10.955 0.133
v 35.788 -10.945 13.834
v 36.432 -10.941 1.382
v 39.668 -10.935 13.414
v 34.328 -10.935 10.494
v 34.745 -10.934 13.273
v 38.185 -10.933 13.599
v 34.888 -10.928 13.769
v 34.795 -10.921 13.522
v 35.532 -10.912 13.861
v 34.594 -10.912 12.857
v 46.881 -10.904 12.424
v 34.273 -10.898 10.776
v 33.838 -10.882 7.373
v 33.444 -10.875 2.614
v 35.883 -10.869 1.362
v 34.361 -10.868 12.044
v 33.608 -10.867 2.236
v 33.562 -10.865 5.243
v 46.718 -10.862 8.539
v 37.571 -10.862 13.693
v 34.129 -10.845 10.387
v 47.102 -10.829 12.072
v 35.308 -10.829 13.934
v 33.382 -10.828 4.492
v 33.182 -10.821 2.764
v 34.586 -10.820 13.510
v 35.966 -10.818 13.896
v 36.295 -10.817 13.858
v 33.232 -10.816 2.441
v 44.885 -10.806 0.016
v 45.819 -10.798 1.425
v 46.765 -10.789 8.895
v 33.406 -10.781 4.906
v 33.840 -10.780 1.830
v 47.091 -10.775 12.269
v 45.322 -10.762 0.078
v 34.439 -10.761 12.951
v 34.930 -10.754 13.921
v 34.757 -10.749 13.850
v 35.628 -10.721 13.956
v 33.322 -10.669 2.062
v 34.452 -10.667 13.378
v 37.935 -10.637 13.688
v 33.085 -10.635 2.895
v 34.209 -10.625 1.448
v 33.052 -10.622 2.649
v 35.283 -10.608 14.015
v 33.112 -10.594 2.372
v 45.618 -10.575 0.286
v 34.518 -10.558 13.609
v 44.887 -10.553 12.767
v 35.012 -10.548 14.053
v 47.178 -10.516 12.197
v 44.288 -10.500 0.026
v 34.628 -10.459 13.903
v 46.954 -10.458 12.435
v 45.461 -10.396 0.079
v 33.051 -10.370 2.189
v 35.523 -10.272 14.027
v 34.663 -10.263 14.025
v 34.509 -10.256 13.752
v 33.348 -10.165 1.793
v 45.047 -10.154 0.015
v 47.146 -10.153 12.356
v 34.604 -10.118 13.951
v 34.758 -10.064 14.068
v 45.612 -10.028 0.192
v 34.500 -9.988 13.809
v 47.012 -9.940 12.448
v 33.029 -9.921 2.306
v 34.595 -9.892 13.952
v 34.960 -9.850 14.109
v 46.806 -9.576 12.485
v 46.102 -9.452 3.033
v 33.078 -9.357 1.956
v 33.785 -9.227 1.543
v 34.877 -9.205 14.116
v 45.645 -9.202 0.147
v 33.044 -9.056 2.302
v 34.710 -8.963 14.101
v 45.663 -8.879 0.142
v 34.652 -8.792 14.085
v 45.884 -8.780 1.167
v 45.768 -8.712 0.386
v 34.839 -8.584 14.121
v 34.595 -8.571 14.024
v 33.511 -8.447 1.695
v 33.056 -8.192 2.021
v 46.037 -8.061 2.045
v 33.077 -7.587 2.302
v 34.127 -7.366 11.746
v 46.658 -6.605 6.301
v 33.690 -6.167 1.591
v 33.146 -6.144 2.474
v 47.379 -4.719 12.143
v 47.198 -2.033 9.290
v 45.760 -1.660 0.038
v 33.554 -0.518 1.705
v 34.806 1.010 14.014
v 47.459 1.082 10.764
v 35.194 1.167 14.123
v 34.890 1.226 14.106
v 46.215 3.124 1.110
v 34.897 3.269 13.989
v 35.007 3.542 14.110
v 33.442 3.669 1.996
v 45.500 3.677 -0.005
v 47.538 3.902 12.458
v 45.878 4.147 0.008
v 44.629 4.269 0.068
v 46.165 4.785 0.415
v 46.025 5.422 0.083
v 46.116 5.861 0.190
v 47.223 6.055 12.501
v 33.883 6.083 1.569
v 47.786 6.551 12.247
v 33.570 6.644 1.743
v 47.778 6.841 12.182
v 47.763 6.845 12.335
v 47.638 6.950 12.444
v 47.733 7.055 12.288
v 35.328 7.062 14.116
v 47.688 7.185 12.203
v 46.429 7.226 12.603
v 47.584 7.247 12.362
v 47.027 7.292 12.508
v 47.365 7.341 12.413
v 46.111 7.364 0.150
v 46.135 7.406 12.633
v 47.124 7.441 12.387
v 47.666 7.472 11.684
v 46.286 7.481 0.806
v 47.544 7.631 11.771
v 47.639 7.645 11.401
v 33.600 8.040 2.095
v 46.228 8.066 0.316
v 35.396 8.125 14.108
v 47.470 8.254 10.496
v 47.456 8.264 10.229
v 46.991 8.298 11.281
v 46.818 8.318 11.346
v 47.405 8.347 10.422
v 47.141 8.357 11.088
v 46.058 8.375 0.063
v 45.566 8.408 0.043
v 46.874 8.411 11.111
v 47.079 8.438 10.740
v 40.957 8.519 13.168
v 47.153 8.627 8.225
v 46.174 8.644 0.282
v 35.150 8.665 14.027
v 46.944 8.704 8.017
v 44.319 8.742 0.217
v 46.243 8.751 0.610
v 38.318 8.820 13.669
v 46.219 8.843 0.501
v 45.647 8.928 0.258
v 46.105 8.946 0.418
v 46.147 8.947 0.619
v 35.380 9.017 14.107
v 45.974 9.126 0.501
v 45.714 9.133 0.468
v 35.975 9.144 13.979
v 35.122 9.151 13.669
v 45.841 9.174 0.601
v 35.218 9.223 13.954
v 35.504 9.320 14.006
v 35.323 9.352 13.746
v 34.098 9.376 1.646
v 43.308 9.407 10.068
v 33.682 9.545 2.216
v 35.050 9.608 1.492
v 33.745 10.131 2.111
v 37.997 10.171 1.121
v 34.165 10.223 1.707
v 35.536 10.262 1.476
v 35.589 10.262 10.110
v 37.672 10.283 1.188
v 34.082 10.326 5.195
v 38.339 10.448 1.183
v 34.460 10.483 7.962
v 34.565 10.516 1.736
v 33.753 10.552 2.594
v 37.984 10.570 1.258
v 33.969 10.645 2.142
v 34.534 10.671 8.028
v 34.591 10.802 7.707
v 34.813 10.809 1.975
v 34.865 10.812 7.823
v 34.788 10.876 7.548
v 38.360 10.900 2.861
v 34.255 10.901 2.197
v 33.879 10.901 3.252
v 33.909 10.948 2.648
v 34.369 11.065 2.537
v 37.364 11.068 6.599
v 34.239 11.077 5.840
v 34.101 11.112 4.726
v 34.057 11.191 2.986
v 34.218 11.201 5.416
v 34.378 11.202 5.652
v 34.386 11.248 2.940
v 33.975 11.255 3.387
v 37.462 11.267 4.518
v 34.188 11.298 3.205
v 35.556 11.401 5.405
v 35.305 11.423 5.098
f 55 12 10
f 150 186 185
f 245 193 206
f 58 12 55
f 211 193 245
f 211 245 237
f 142 126 113
f 244 241 248
f 192 201 207
f 132 224 176
f 242 248 241
f 228 231 242
f 228 242 241
f 247 248 242
f 247 242 231
f 247 218 237
f 247 237 245
f 247 245 248
f 35 56 41
f 25 30 12
f 194 215 221
f 194 186 151
f 148 151 186
f 148 186 150
f 148 150 104
f 148 95 151
f 190 206 193
f 190 183 180
f 197 190 180
f 105 94 157
f 5 1 4
f 141 137 157
f 141 94 137
f 232 225 243
f 232 243 245
f 232 245 206
f 232 206 225
f 236 225 233
f 236 233 243
f 236 243 225
f 219 215 217
f 219 217 225
f 219 225 221
f 219 221 215
f 156 151 95
f 223 225 217
f 223 217 216
f 223 216 233
f 184 211 187
f 87 83 132
f 36 10 38
f 36 38 40
f 36 40 55
f 36 55 10
f 57 83 62
f 46 40 38
f 46 38 48
f 182 189 171
f 182 184 187
f 196 171 189
f 118 113 126
f 107 101 93
f 107 93 113
f 100 113 93
f 50 48 42
f 167 196 201
f 149 110 105
f 149 155 178
f 149 114 110
f 161 155 149
f 161 201 178
f 161 178 155
f 240 243 233
f 146 126 142
f 146 201 192
f 205 192 207
f 212 224 214
f 212 176 224
f 226 233 216
f 226 216 214
f 109 127 140
f 109 140 132
f 109 132 83
f 227 207 209
f 227 209 228
f 227 228 241
f 227 205 207
f 230 247 231
f 3 1 5
f 3 5 6
f 3 10 1
f 39 38 29
f 39 42 48
f 39 48 38
f 37 6 18
f 43 56 35
f 43 35 25
f 43 25 12
f 43 12 58
f 43 58 75
f 43 75 56
f 27 41 25
f 27 25 35
f 27 35 41
f 71 95 148
f 71 148 104
f 71 104 98
f 71 25 41
f 71 41 95
f 198 185 186
f 198 186 194
f 198 194 221
f 198 221 225
f 202 225 206
f 202 206 190
f 191 197 177
f 191 177 185
f 159 157 177
f 152 137 144
f 153 150 185
f 2 1 10
f 2 10 12
f 2 12 4
f 2 4 1
f 119 98 122
f 90 119 122
f 90 34 30
f 28 20 94
f 11 20 28
f 11 5 4
f 11 4 20
f 136 94 141
f 136 141 157
f 136 157 94
f 86 117 156
f 86 156 95
f 86 95 41
f 86 41 56
f 86 56 75
f 86 75 82
f 86 82 103
f 86 103 117
f 134 156 117
f 229 225 223
f 229 223 233
f 229 233 225
f 174 184 166
f 188 190 193
f 188 193 211
f 188 211 184
f 188 184 183
f 188 183 190
f 99 87 111
f 99 111 129
f 99 103 82
f 59 66 55
f 59 55 40
f 70 82 75
f 70 75 58
f 70 58 55
f 70 55 66
f 70 66 87
f 70 99 82
f 65 66 59
f 65 62 74
f 181 184 182
f 84 18 23
f 168 196 167
f 168 167 161
f 168 161 166
f 168 166 184
f 168 184 181
f 168 181 182
f 168 182 171
f 168 171 196
f 160 157 159
f 160 161 149
f 160 149 105
f 160 105 157
f 92 113 100
f 92 100 84
f 92 84 23
f 92 23 110
f 92 110 114
f 92 114 149
f 92 149 142
f 92 142 113
f 163 142 149
f 163 149 178
f 163 178 201
f 163 201 146
f 163 146 142
f 170 161 167
f 170 167 201
f 246 243 240
f 246 240 244
f 246 244 248
f 246 248 245
f 246 245 243
f 123 127 101
f 235 224 244
f 235 244 240
f 235 240 233
f 235 233 226
f 235 226 214
f 235 214 224
f 145 205 224
f 145 224 132
f 145 132 140
f 145 140 192
f 145 192 205
f 102 96 101
f 102 101 109
f 102 109 83
f 112 127 109
f 112 101 127
f 135 176 131
f 135 131 132
f 135 132 176
f 147 129 131
f 147 131 176
f 120 87 132
f 120 132 131
f 120 131 129
f 120 129 111
f 120 111 87
f 13 26 10
f 32 38 10
f 32 10 26
f 32 26 29
f 32 29 38
f 31 42 39
f 31 39 29
f 31 29 42
f 64 93 79
f 64 79 48
f 64 48 50
f 64 50 42
f 80 96 67
f 80 67 48
f 80 48 79
f 80 79 93
f 80 93 101
f 80 101 96
f 49 48 67
f 49 67 46
f 49 46 48
f 78 57 67
f 78 67 83
f 78 83 57
f 51 46 67
f 51 67 57
f 51 57 40
f 51 40 46
f 77 30 25
f 77 25 71
f 77 71 98
f 77 98 90
f 77 90 30
f 200 197 202
f 200 202 190
f 200 190 197
f 203 225 202
f 203 202 198
f 203 198 225
f 199 202 197
f 199 197 191
f 199 191 185
f 199 185 198
f 199 198 202
f 175 174 172
f 195 197 180
f 195 180 175
f 195 175 159
f 195 159 177
f 195 177 197
f 133 137 94
f 173 137 152
f 173 152 177
f 173 177 157
f 173 157 137
f 138 150 153
f 138 153 122
f 138 122 98
f 138 98 104
f 138 104 150
f 154 122 153
f 97 110 23
f 97 23 52
f 97 105 110
f 15 52 23
f 15 23 18
f 15 18 6
f 15 6 5
f 16 12 30
f 16 30 34
f 16 4 12
f 130 144 137
f 130 137 133
f 130 152 144
f 125 34 90
f 125 90 122
f 125 122 154
f 125 154 177
f 125 177 152
f 108 119 90
f 108 90 98
f 108 98 119
f 213 217 215
f 213 215 194
f 213 194 151
f 213 151 156
f 213 156 210
f 213 210 216
f 213 216 217
f 158 129 147
f 158 147 176
f 158 176 212
f 158 212 214
f 158 214 216
f 158 216 210
f 158 210 156
f 158 156 134
f 89 99 70
f 89 70 87
f 89 87 99
f 45 40 57
f 45 59 40
f 85 87 66
f 85 66 65
f 85 65 74
f 85 74 62
f 85 62 83
f 85 83 87
f 208 196 189
f 208 189 182
f 208 182 187
f 208 187 211
f 208 211 237
f 208 237 218
f 208 218 247
f 208 247 230
f 208 230 231
f 208 231 228
f 208 228 209
f 208 209 207
f 208 207 201
f 44 18 84
f 88 84 100
f 88 100 93
f 162 166 161
f 162 161 160
f 162 160 159
f 162 159 175
f 162 175 172
f 165 161 170
f 165 170 201
f 165 201 161
f 143 146 192
f 143 192 140
f 143 140 127
f 143 127 123
f 143 126 146
f 220 205 222
f 220 222 224
f 220 224 205
f 239 241 244
f 238 227 241
f 238 241 239
f 238 224 222
f 238 222 205
f 238 205 227
f 91 96 102
f 91 102 83
f 91 83 67
f 91 67 96
f 106 101 112
f 106 112 109
f 106 109 101
f 9 6 13
f 9 13 10
f 9 10 3
f 9 3 6
f 21 26 13
f 21 13 6
f 21 6 37
f 21 37 42
f 21 42 29
f 21 29 26
f 179 183 184
f 179 184 174
f 179 174 175
f 179 175 180
f 179 180 183
f 60 94 20
f 169 185 177
f 169 177 154
f 169 154 153
f 169 153 185
f 7 4 16
f 124 34 125
f 124 125 152
f 124 152 130
f 63 28 94
f 17 11 28
f 17 28 63
f 17 63 22
f 17 22 5
f 164 174 166
f 164 166 162
f 164 162 172
f 164 172 174
f 116 103 99
f 116 99 129
f 116 129 158
f 53 45 57
f 53 57 65
f 204 196 208
f 204 208 201
f 204 201 196
f 61 44 84
f 61 84 69
f 81 69 84
f 81 84 88
f 81 88 93
f 81 93 64
f 121 126 143
f 121 143 123
f 121 123 101
f 121 101 107
f 121 107 113
f 121 113 118
f 121 118 126
f 234 224 238
f 234 238 239
f 234 239 244
f 234 244 224
f 73 94 60
f 73 60 133
f 73 133 94
f 33 16 34
f 24 105 97
f 24 97 52
f 24 52 15
f 24 15 5
f 24 5 22
f 8 17 5
f 8 5 11
f 128 103 116
f 128 116 134
f 128 134 117
f 128 117 103
f 139 134 116
f 139 116 158
f 139 158 134
f 54 45 53
f 54 53 65
f 54 65 59
f 54 59 45
f 47 37 18
f 47 18 61
f 47 61 69
f 47 69 37
f 68 69 81
f 68 81 64
f 68 64 42
f 68 42 37
f 68 37 69
f 72 33 34
f 72 34 124
f 19 20 4
f 19 4 7
f 19 7 16
f 19 16 33
f 19 33 60
f 19 60 20
f 76 63 94
f 76 94 105
f 76 105 24
f 76 24 22
f 76 22 63
f 14 17 8
f 14 8 11
f 14 11 17
f 115 130 133
f 115 133 60
f 115 60 33
f 115 33 72
f 115 72 124
f 115 124 130
f 44 61 18
f 57 62 65
