# Rhino

mtllib 19.06_sbe_l_00.mtl
usemtl diffuse_0_0_0_255
v 96.651554229760393 31.991715906669818 13.761170196533206
v 96.928657082704561 32.009680209283857 13.891941070556642
v 93.845457212722778 32.032727395168216 14.443801116943362
v 96.668628452899625 32.039562134896201 14.042156219482424
v 93.153901971592063 32.050506924956998 14.612209320068361
v 90.488560673962979 32.062048376595804 14.705248260498049
v 90.221119586785861 32.062444014536212 14.610474395751956
v 97.386824802680181 32.079736648160157 7.3659187316894537
v 90.268803941838996 32.091826302258099 14.762178802490237
v 97.289858318315353 32.109642893718316 13.575965118408206
v 95.766257611791559 32.110116416238512 -1.6198650360107416
v 96.906061422031996 32.117656186572624 14.202446746826174
v 97.422061052559812 32.122326852321791 -1.8476018905639642
v 94.142112054703702 32.130721239869487 14.670545196533205
v 97.446485639408024 32.13777810882172 13.128205108642581
v 96.492780606015572 32.137087855527234 -5.1236392974853517
v 97.230452926689736 32.142867866006469 -5.2418708801269531
v 97.149459489852433 32.154886186692728 -6.6486267089843745
v 97.144770759252353 32.155467804745115 13.997382354736331
v 97.470785914052513 32.160743928360709 -6.8701507568359377
v 85.938392973454455 32.145013422079394 14.544039154052737
v 84.224814408146898 32.150630002587889 14.387134552001955
v 90.651891564476784 32.163472909857731 14.861592864990236
v 79.084297322002854 32.145624538095596 5.0096271514892594
v 97.782890447934705 32.179970501877293 -1.4600358009338372
v 78.515647849313495 32.14975235132826 5.3906974792480487
v 95.292479824890478 32.181770907193631 -9.509664154052734
v 96.540760415612581 32.190557249159596 -10.858512878417969
v 97.535817202609152 32.198328798868033 -9.8767555236816396
v 95.83168739663347 32.204450242847876 -11.957778167724609
v 97.313441547641062 32.208046678284703 -11.50798110961914
v 97.522546445854005 32.213119186042775 -11.145881652832031
v 93.582505991844897 32.206958061256159 14.765744781494142
v 97.795590019078247 32.215622868623306 -8.6084419250488278
v 96.698314455282897 32.215352736298989 -12.234083557128905
v 80.25298419570197 32.213591216442637 14.071199798583987
v 94.042255899870753 32.23756228263462 -13.425016021728515
v 97.517203707436011 32.246136304133316 -11.673454284667969
v 97.804640851572742 32.248379606611195 -9.6550697326660142
v 96.111833189697151 32.246026989119827 -12.670656585693358
v 97.146686349149633 32.251948888147822 -12.198179626464842
v 78.235966084437308 32.220878731998191 5.5811004638671893
v 93.131173848756987 32.252535318305021 14.820035552978517
v 78.351795043494263 32.230282913938623 13.862042999267581
v 97.930427595813953 32.273108680954358 -0.656147909164428
v 93.916864238463873 32.268462352620318 14.779419708251956
v 97.02986654068971 32.274813314485272 -12.475804901123047
v 78.220816953870113 32.245302447917638 13.536603546142581
v 97.481983046041449 32.279295823125537 -12.037854003906249
v 96.671175214134394 32.284650229165834 -12.625644683837891
v 78.095367218474706 32.259370043661526 12.51643447875977
v 91.344410782971067 32.28303079704061 -14.315128326416016
v 84.670862864351761 32.274102644902001 14.581278228759768
v 94.13157570840491 32.290655399640841 -13.543854522705077
v 78.04253573814421 32.273409425719585 12.76122207641602
v 84.09250516097967 32.285774559287368 14.547982025146487
v 78.120634134539387 32.275668446942717 13.774848175048833
v 78.057279722709268 32.27736850982982 13.631697845458989
v 87.723048462509453 32.29798383589516 -13.571498870849609
v 82.063644234716804 32.291527572219621 14.386032867431643
v 78.099202370484448 32.292329851303514 5.674161529541017
v 91.452867819847981 32.317431488949019 -14.455364227294922
v 78.003912797251118 32.296729257931659 10.866701507568363
v 78.01628524636638 32.307179046030512 13.402103424072269
v 78.46230481759352 32.310811417644786 14.055423736572269
v 97.314065606331695 32.348327897632764 -12.365834808349609
v 94.110470923886126 32.34983412741429 14.777439117431642
v 78.138604875908214 32.328543209438998 13.921486663818364
v 97.06549831223019 32.367985811992732 14.094899749755861
v 97.940693942269249 32.374316215589381 -10.06602325439453
v 77.979666589634078 32.346235824881816 13.036975860595707
v 97.689146316340967 32.384904965100915 -11.397616577148437
v 78.166687731222964 32.364247961991623 14.031751251220706
v 91.33546125056705 32.398896956835031 -14.621006011962891
v 78.312737343207402 32.379615183259766 14.132463836669926
v 81.383796646250772 32.390840079012186 -14.122113800048828
v 78.272864758017477 32.391196583708776 -5.4772815704345685
v 80.754103485878474 32.396349146408966 14.326096343994143
v 91.604878621510906 32.417705782883644 14.850084686279299
v 96.89251469635613 32.429736190480142 -12.726777648925781
v 77.869501302928583 32.398306209192732 10.757182312011723
v 81.416643003152188 32.406008057954772 -14.442534637451171
v 77.971347472529516 32.402980310168594 13.714113616943363
v 78.33936629753498 32.405257910560991 -7.057304382324217
v 79.803960434673442 32.409728402147913 -14.025130462646484
v 98.066350176112721 32.441995188437751 -1.7610589981079094
v 94.481137491670509 32.443995999768831 14.753987884521486
v 77.921435619327582 32.419357520499418 12.623048400878909
v 96.682570049409179 32.454447077443334 -12.832971954345702
v 98.109260925700241 32.468932365251177 -9.2203636169433576
v 78.497872400794549 32.438209510124764 -9.1753723144531225
v 91.601653842662699 32.465110589122389 -14.582079315185545
v 79.622409703459383 32.446576953697594 -13.947960662841796
v 78.399147205124592 32.451224133135099 -8.9931121826171854
v 78.253495187373602 32.453357915818032 -8.0088783264160135
v 98.051283875901262 32.487854813077355 -9.7050285339355469
v 83.932156472878788 32.478467706526949 14.577780914306643
v 98.105926543318532 32.505010942611761 -1.0149986267089837
v 97.332388551180827 32.51154544101702 13.846477508544924
v 79.730884341017415 32.48995214509619 -14.125559234619139
v 79.458007792990941 32.498163482570767 -13.83952407836914
v 78.338888059430019 32.506499120282854 -9.1387924194335906
v 78.231198485656236 32.517610276822829 -8.530571746826169
v 81.46210769548172 32.550372978827149 -14.574739837646483
v 78.193241754277793 32.549389768936663 -7.8111503601074199
v 79.603683458982232 32.554118888887153 -14.062722015380858
v 79.51794417804409 32.556833691643554 -13.944472503662109
v 97.578101714832513 32.591777930030801 -12.326792907714843
v 81.27463156260454 32.570349741735441 -14.556212615966796
v 97.301032230048918 32.620396735741835 -12.704660034179687
v 91.417270419888979 32.612892763335729 -14.714598846435546
v 97.715395085598431 32.6292424305122 13.062599945068362
v 96.862424124924203 32.642220225938793 -12.942629241943358
v 77.856311728098376 32.617063930372112 10.692993927001957
v 77.896985954556214 32.635775488959617 13.769092559814457
v 97.747152516819511 32.682639896797568 -11.757597351074217
v 78.096222450063522 32.653388800974341 14.089948272705081
v 78.772362695044706 32.667226303070279 14.246762847900392
v 78.188630929733549 32.694154217246158 -8.1406639099121065
v 78.262059824088325 32.696593773107971 -9.2525924682617156
v 97.147679515145782 32.797836821978713 -12.954056549072265
v 77.940946004250705 32.772108292671206 13.989101409912113
v 78.232570489305459 32.773235641398848 -9.0139831542968718
v 81.043429949638323 32.816272793729766 -14.699964141845703
v 78.808896697344551 32.820424676886248 14.290142059326174
v 81.298717935821685 32.844826179984295 -14.776871490478515
v 91.575041051735056 32.871212798320798 -14.705898284912109
v 83.795852194379236 32.942486371818553 14.620009613037112
v 97.354900561639852 32.972096882889268 -12.973267364501952
v 79.728333842141609 32.994721020629576 -14.187764739990234
v 81.389570725634428 33.065289402210034 -14.822464752197265
v 77.986408860706689 33.073357247570918 14.0669059753418
v 98.079187195439545 33.151225968190111 -9.5897987365722646
v 78.272976030551618 33.208092380674231 -9.6335853576660124
v 97.667298074441618 33.336134647478552 -12.631549835205078
v 81.466954973749637 33.318831696584603 -14.861592864990234
v 97.093344022367361 33.35904612922041 -13.323770904541014
v 77.945694927464814 33.339249244483504 14.072536468505863
v 79.585646598721212 33.363398686631257 -14.005324554443359
v 78.217848806865177 33.373011668814563 -9.4250450134277308
v 78.18486108938805 33.38093632560949 -8.5682693481445291
v 97.309286279941304 33.489268064227737 13.859725189208987
v 79.526338082889126 33.469102698302947 -13.800189971923828
v 78.238409798131428 33.496542643414699 -9.6179306030273413
v 97.677153220287551 33.598890617891733 12.923169708251955
v 97.342310277685414 33.612297684047704 -13.395714569091796
v 79.747715969384899 33.59518091923573 -14.177799224853516
v 80.689489132677807 33.604570031326745 -14.85870132446289
v 79.638607349105911 33.653108757963352 -13.979261016845703
v 80.434611271462188 33.723910837992982 -14.805828094482422
v 80.253694269149861 33.751465415538028 -14.73559341430664
v 79.805840738301129 33.795475621511947 -14.133251190185547
v 77.799598079803943 34.030798694070711 12.445771026611332
v 77.804640082178111 34.053923870580348 13.1080680847168
v 80.548406470469132 34.105113603299976 -14.757862091064453
v 78.170555073482475 34.166762612863344 -8.5057655334472635
v 80.895490805326048 34.184487926459632 -14.794228363037108
v 78.207199672948178 34.240276819692106 -9.1736427307128885
v 80.339944000979827 34.248096946385068 -14.598639678955077
v 96.460253275115775 34.31403366103001 14.624892425537112
v 77.792928810309377 34.282750772180691 13.211693572998051
v 97.927607122227911 34.407092329649814 -12.580786132812499
v 80.813172477092166 34.403385059487348 -14.751456451416015
v 78.16019821084555 34.416641169131864 -8.0644752502441381
v 80.571440496095747 34.443230064924407 -14.63857192993164
v 95.964814243326586 34.517583243017427 14.696193695068361
v 77.873642700406961 34.496567509113113 13.824294281005864
v 96.636824294281027 34.530810666540816 14.610762786865237
v 77.993899816503927 34.503240380295452 14.0814323425293
v 97.167182194422452 34.53752716628501 14.000649261474612
v 77.785143258105535 34.630674141330793 12.713896179199223
v 81.900252026773302 34.650656584372527 -14.747103118896483
v 96.331094918575531 34.695350007836247 14.676601409912111
v 96.624218058241169 34.802379477105909 14.576909637451173
v 81.676371757157085 34.796517272477537 -14.700157928466796
v 96.848701210755252 34.830123975838461 14.357605743408206
v 98.14687036917276 34.844958465657101 -2.3470499038696282
v 97.280723751996362 34.860761755823098 -13.846617889404296
v 78.095178828414731 34.925506573677808 14.125360870361332
v 81.850880344297877 34.953413313892682 -14.659082794189452
v 77.802750921654123 35.03742886824439 12.330100250244145
v 97.906487094000482 35.080796909950386 -13.229064178466796
v 96.24931773417201 35.081400797819363 14.6517936706543
v 97.578821704380758 35.098565852049276 -13.786270904541015
v 77.917477056680525 35.097036579780976 13.952162933349614
v 78.097365512874191 35.09836094483871 14.124594879150395
v 82.030695058725598 35.156762589930139 -14.528658294677733
v 97.195126782175677 35.224089519006178 -13.997098541259765
v 96.977026792006882 35.271221999359362 14.16558303833008
v 96.03239500974793 35.30465265973757 -14.230321502685547
v 98.106816966377664 35.334087366249001 -0.31354732513427597
v 82.167282595841812 35.308168395082717 -14.408602142333983
v 83.148705711431305 35.405854565501578 14.468619537353518
v 78.04914690167854 35.450041092610697 -2.9082103729248026
v 78.310321621619167 35.494873111081752 14.143183135986332
v 77.87388242114406 35.502423465007162 13.399813079833988
v 95.673426843305464 35.545143676090106 -14.317208099365233
v 77.870091622803642 35.524338231446357 9.0367935180664105
v 96.553324119856569 35.602644457520832 14.433937835693362
v 77.996993491155337 35.607831925245513 13.835474395751957
v 97.901222630851194 35.652345950962911 -12.224203491210936
v 78.185873949207846 35.623574698860253 -8.599053192138669
v 78.284056438357197 35.627371791084684 14.073154449462894
v 97.410489492913214 35.660479706169248 -13.976639556884765
v 96.156675728715584 35.6863908222942 -14.24794692993164
v 96.966771399326078 35.693112177025952 13.873149871826174
v 77.907345235095221 35.667987811574122 13.535239410400395
v 96.726263813842891 35.70505611311301 14.259983062744142
v 96.034714650503048 35.758705207707038 14.621480560302736
v 77.881226753377661 35.746323587900093 9.1352043151855504
v 77.968486851850116 35.767310679527476 13.690006256103519
v 77.890593891574227 35.777088442572477 8.8566062927246136
v 97.843441494449934 35.817656708644215 -13.565686798095703
v 91.527151754696177 35.833164508464478 14.706655120849611
v 98.025540282277646 35.849245234329707 -7.4401062011718739
v 97.092653171393692 35.858585156114998 13.101291656494142
v 96.448006796367153 35.863339707404741 14.39293899536133
v 78.205451148644073 35.836926809319415 -8.7368461608886694
v 78.916214286532792 35.86388890311045 14.1777946472168
v 98.080447684250089 35.90028915200736 -1.2655570983886704
v 96.955203037207284 35.904517612086792 13.503855133056643
v 84.829414163319285 35.884504295497521 14.524217987060549
v 78.61963836552674 35.891551691155925 14.102242279052739
v 78.18988627589593 35.892384907190511 -8.423668670654294
v 94.969183306164084 35.925870578172869 14.666776275634767
v 78.127159798842428 35.899017681710006 13.788356781005863
v 96.600498994590339 35.964019175474498 14.16554641723633
v 77.910759632124439 35.934869532886779 13.17112197875977
v 77.884882449068712 35.935631735092066 12.986554718017581
v 95.882090515678982 35.967851095086004 -14.317568206787108
v 78.27997689069403 35.947590005223475 -9.0480392456054659
v 91.783036709195343 35.985567045374403 14.699051666259768
v 97.499664264121947 35.996880059586999 -13.92455825805664
v 89.628382769234165 35.994329012117817 14.693535614013674
v 78.525286285914376 35.985653513814263 14.006276702880863
v 91.254827733347668 36.009691385268141 14.691931915283206
v 96.732571605520775 36.028933442067697 13.895923614501955
v 79.226340109779002 36.018997939202642 14.129914093017581
v 78.753669244970752 36.027223237733949 14.052080535888674
v 89.395361193103099 36.045482847050181 14.670523834228518
v 95.621360064836409 36.062581396711266 14.640964508056642
v 78.252944605774161 36.035714381747844 -8.8708763122558558
v 83.756591216535057 36.045921906012289 14.473624420166018
v 78.047638818500559 36.037522405276427 13.576702117919925
v 97.208578360813334 36.072446696124203 -14.085363006591797
v 77.935377284583907 36.042577604211722 12.250444793701176
v 77.963338266883454 36.053850123625026 13.354692840576176
v 96.247192642129249 36.085952243250375 14.392238616943361
v 84.307521375612765 36.071974990246296 14.464656829833986
v 77.94729125347169 36.061555146412225 10.762056732177738
v 97.832865819679881 36.09570315393271 -13.145911407470702
v 94.429753434367797 36.09450736362421 14.637113189697267
v 78.529558096651925 36.086005362865855 13.870903778076176
v 97.911413460792204 36.120392625501992 0.19140310287475751
v 77.973820700910267 36.088290045245884 12.964795684814456
v 86.610192249381015 36.103299227858173 14.526140594482424
v 96.946333063257953 36.122249058387204 12.85164260864258
v 78.065151875433941 36.094852918781648 13.201145172119144
v 90.920287564086607 36.119950070846784 14.648880767822268
v 95.221292729523455 36.132266124210254 14.604012298583987
v 78.366733871466849 36.107016861360954 -9.2630653381347621
v 79.023670140741189 36.108696029984138 14.069300079345705
v 89.832361494399407 36.127790197395939 14.634957122802737
v 95.910370467829182 36.139053469275609 14.571036529541018
v 83.592072148370789 36.121626312992326 14.350635528564455
v 78.195107238027987 36.113383106984912 13.385773468017582
v 78.639235171260196 36.122150678132776 13.7188835144043
v 96.62277676967949 36.15279963918978 13.660781097412112
v 77.999080306960238 36.123312141605879 8.3502716064453164
v 94.634235991226177 36.155300078281073 14.597512054443362
v 78.221042542505714 36.12874994791634 -8.4786895751953093
v 87.972987245463571 36.146485080804617 14.531186676025392
v 78.590491625533161 36.13342980113206 13.44379806518555
v 97.999890914709482 36.167810326424444 -6.9549400329589837
v 81.742007945278615 36.146244419354609 14.118404388427736
v 78.068335500752411 36.149412186059116 12.108655548095706
v 97.938065641464704 36.187365407535012 -0.60509629249572594
v 89.618142140613259 36.17335435280053 14.507865142822268
v 95.490135713477414 36.184558293308832 14.399011993408205
v 92.560786875310967 36.180662363932257 14.598467254638674
v 87.248752378940537 36.172944909805551 14.41334915161133
v 96.351456592042481 36.189283422008153 14.026737213134767
v 78.195287390508938 36.161055752378786 12.220630645751957
v 78.065117035790479 36.161345035881396 10.1975212097168
v 94.788642228621001 36.193213190904899 14.360727691650393
v 92.748178653617515 36.203042200720979 14.389640045166018
v 78.589655403951156 36.182984615401722 12.407087707519535
v 96.185597557460909 36.213629169314672 13.858538055419924
v 78.083525884163791 36.18439490582351 -1.9097480773925757
v 85.253809811286345 36.201479385119455 -14.458783721923828
v 78.312315093196645 36.1942285171394 -8.9951194763183562
v 86.277718943005269 36.212173435791954 -14.585108184814452
v 78.241935215111468 36.205117167375491 -8.6107139587402308
v 78.474063661706921 36.213690336621497 -9.4235351562499972
v 96.916822175380759 36.252588076457982 -14.157308197021484
v 96.698513395287478 36.267064249501416 12.636891174316409
v 95.84337085201588 36.274528027441185 -14.283089447021483
v 80.060737971687004 36.252070189538216 -11.749713897705078
v 78.121950521282528 36.262804848850124 -2.1491140365600563
v 94.792931315222972 36.293838011208635 10.525910186767581
v 91.839883802072308 36.298962610410193 -14.431920623779297
v 78.379774607779339 36.280500547509995 -9.1551208496093714
v 85.164008036857652 36.293704645076737 -14.308971405029297
v 97.926410634061767 36.317495688230494 -7.5323684692382793
v 78.307403411408586 36.286911940421234 -8.5953277587890593
v 93.066923161155501 36.318676227666082 -14.387424468994141
v 78.39217255290113 36.29751643590069 -2.8814426422119119
v 78.476704041976305 36.299788454991351 -9.2626502990722628
v 97.54112861269482 36.344654365202224 -13.888103485107422
v 96.914927597553415 36.346195573599488 5.1733818054199245
v 94.600585595143244 36.344279704072193 -14.318007659912109
v 78.382322419830288 36.317665981832064 -8.8125198364257784
v 97.718256362576824 36.365436189260329 -13.472408294677734
v 97.619062377703301 36.366038501148509 -0.059914726018903956
v 78.41960898099039 36.335600467702847 -8.4456024169921839
v 78.499055505682222 36.337401910684562 -9.05279846191406
v 97.577124058159853 36.380463123482706 0.2377327680587786
v 80.361662237618447 36.381354119351037 -11.788594818115234
v 97.410107382567674 36.417148426406797 -1.988041496276854
v 92.413952877490445 36.409626668637202 -14.372110748291014
v 94.138573939878569 36.413645854106797 -14.313636016845702
v 86.321400277679487 36.405835790354274 -14.506809234619141
v 80.126095293958471 36.395700915425678 -11.628019714355467
v 97.735616686367891 36.446175939561698 -7.3345703124999977
v 97.176019399411743 36.452433579912359 -14.087982940673827
v 97.441929768649388 36.453485507677883 -5.3644874572753887
v 97.136410640403057 36.454620005253631 -5.1632915496826151
v 96.807236193427229 36.463980120816053 -14.177278900146483
v 86.785601146376692 36.472258456581102 -14.338683319091796
v 86.457218756464115 36.476648021331783 -14.282482147216797
v 97.48988118497563 36.497286298370099 -10.602530670166015
v 97.265923337369372 36.513630115248695 -13.828820037841796
v 91.381594655038114 36.508747790508686 -14.322850799560547
v 97.372160997873323 36.528967456760711 -13.439617156982422
v 93.176349418765753 36.526494948366761 -14.241788482666015
v 97.120102517315075 36.538251284583922 -13.927147674560546
v 92.767575784641224 36.536630384723694 -14.199304962158202
v 96.57149348249655 36.55313427498286 -14.010266876220703
vn 0.0069870948791503906 -0.99988716840744019 0.013299213722348213
vn 0.1955208033323288 -0.96907699108123779 0.15053701400756836
vn 0.017144452780485153 -0.98764210939407349 0.15578538179397583
vn 0.055366054177284241 -0.94684058427810669 0.31690299510955811
vn 0.025684833526611328 -0.9131198525428772 0.40688139200210571
vn -0.010789196006953716 -0.98105710744857788 0.1934179812669754
vn -0.013078023679554462 -0.9997292160987854 0.019247850403189659
vn 0.21752262115478516 -0.9760546088218689 0.001159647130407393
vn -0.010994649492204189 -0.8467831015586853 0.53182470798492432
vn 0.66776394844055176 -0.7031933069229126 0.24415256083011627
vn -0.0039627444930374622 -0.99995887279510498 -0.0081547163426876068
vn 0.32849758863449097 -0.5066186785697937 0.79713666439056396
vn 0.094872757792472839 -0.99547386169433594 -0.0055579938925802708
vn 0.0671367347240448 -0.74950540065765381 0.65858513116836548
vn 0.604575514793396 -0.79429113864898682 0.059916991740465164
vn 0.0017199012218043208 -0.99996131658554077 -0.0086264237761497498
vn 0.014177796430885792 -0.9998665452003479 -0.0081177810207009315
vn 0.0087745198979973793 -0.99991750717163086 -0.0093786865472793579
vn 0.72660136222839355 -0.46576833724975586 0.50508445501327515
vn 0.05017239972949028 -0.99869704246520996 -0.0093271695077419281
vn -0.045312415808439255 -0.81480056047439575 0.57796788215637207
vn -0.037018146365880966 -0.949177086353302 0.31255793571472168
vn -0.0082033099606633186 -0.40376746654510498 0.91482484340667725
vn -0.0093186860904097557 -0.9999043345451355 -0.010221468284726143
vn 0.35146689414978027 -0.93620014190673828 0.00057825312251225114
vn -0.11380575597286224 -0.99349415302276611 -0.0041954889893531799
vn -0.0050604133866727352 -0.99994128942489624 -0.0095829861238598824
vn 0.0055573945865035057 -0.99991291761398315 -0.011970920488238335
vn 0.082631923258304596 -0.99651205539703369 -0.011646849103271961
vn -0.0018294921610504389 -0.99987798929214478 -0.015511912293732166
vn 0.063207224011421204 -0.99714326858520508 -0.041354529559612274
vn 0.20372800529003143 -0.97837579250335693 -0.035717692226171494
vn 0.047914531081914902 -0.58101475238800049 0.81248140335083008
vn 0.33160051703453064 -0.94335001707077026 -0.011484351009130478
vn 0.045610308647155762 -0.99565631151199341 -0.08116757869720459
vn -0.04640115424990654 -0.92658334970474243 0.37321603298187256
vn 0.042051121592521667 -0.98893946409225464 -0.14223374426364899
vn 0.35536307096481323 -0.93034493923187256 -0.090417936444282532
vn 0.4989486038684845 -0.86548686027526855 -0.044528983533382416
vn 0.063139855861663818 -0.98523092269897461 -0.15916474163532257
vn 0.11354567855596542 -0.98766285181045532 -0.10783983767032623
vn -0.34863075613975525 -0.93723410367965698 -0.0069924048148095608
vn 0.03919629380106926 -0.2058311253786087 0.97780221700668335
vn -0.1531110405921936 -0.96234732866287231 0.2245987206697464
vn 0.68900901079177856 -0.72473025321960449 0.0057165166363120079
vn 0.10398454964160919 -0.38399255275726318 0.91746222972869873
vn 0.20551319420337677 -0.90940976142883301 -0.3615773618221283
vn -0.1635267585515976 -0.98646485805511475 0.012084966525435448
vn 0.55655556917190552 -0.79583865404129028 -0.23850937187671661
vn 0.20415361225605011 -0.80323398113250732 -0.55958598852157593
vn -0.21393886208534241 -0.97683519124984741 0.0048150899820029736
vn 0.0017689963569864631 -0.99377679824829102 -0.11137595027685165
vn -0.055094551295042038 -0.46161875128746033 0.88536584377288818
vn 0.16745826601982117 -0.85640561580657959 -0.48839247226715088
vn -0.47259446978569031 -0.88126176595687866 0.0056673693470656872
vn -0.067081652581691742 -0.43511927127838135 0.89787042140960693
vn -0.49509158730506897 -0.82408285140991211 0.27526667714118958
vn -0.44223517179489136 -0.89363569021224976 0.076441645622253418
vn -0.011229011230170727 -0.9997173547744751 -0.020955478772521019
vn -0.05949363112449646 -0.75279581546783447 0.65556001663208008
vn -0.56075555086135864 -0.82787621021270752 -0.01319627370685339
vn 0.062805376946926117 -0.93305617570877075 -0.35420560836791992
vn -0.51599782705307007 -0.85657632350921631 -0.0048185903578996658
vn -0.77275311946868896 -0.6339489221572876 0.031007083132863045
vn -0.077203273773193359 -0.86251175403594971 0.50011312961578369
vn 0.51674646139144897 -0.70562523603439331 -0.48483622074127197
vn 0.072927787899971008 -0.088645316660404205 0.99338990449905396
vn -0.52053308486938477 -0.77262282371520996 0.36345461010932922
vn 0.6683279275894165 -0.065433159470558167 0.74098330736160278
vn 0.78563261032104492 -0.60559666156768799 -0.12662571668624878
vn -0.85753059387207031 -0.51351940631866455 0.030644677579402924
vn 0.86445081233978271 -0.46811544895172119 -0.18328306078910828
vn -0.58022618293762207 -0.5943029522895813 0.55690354108810425
vn 0.12727925181388855 -0.66172218322753906 -0.73886656761169434
vn -0.18303287029266357 -0.50668776035308838 0.84247636795043945
vn -0.012817583046853542 -0.99920094013214111 -0.037857145071029663
vn -0.36188659071922302 -0.93206250667572021 -0.017249122262001038
vn -0.073435716331005096 -0.26865780353546143 0.96043229103088379
vn 0.012543362565338612 0.027693422511219978 0.99953776597976685
vn 0.2923179566860199 -0.70110327005386353 -0.65038794279098511
vn -0.90600496530532837 -0.4232390820980072 0.0048650773242115974
vn -0.068200871348381042 -0.88009858131408691 -0.46986716985702515
vn -0.82222223281860352 -0.52177363634109497 0.22738279402256012
vn -0.18369175493717194 -0.98270535469055176 -0.023398248478770256
vn -0.11067892611026764 -0.98496723175048828 -0.13262617588043213
vn 0.80744248628616333 -0.58993089199066162 0.0042671519331634045
vn 0.14297887682914734 -0.18743307888507843 0.97181576490402222
vn -0.91463375091552734 -0.40295445919036865 0.032754220068454742
vn 0.23860575258731842 -0.70971620082855225 -0.662850022315979
vn 0.92889219522476196 -0.36813187599182129 -0.040474977344274521
vn -0.18653197586536407 -0.98160439729690552 -0.040726587176322937
vn 0.26211467385292053 -0.50906980037689209 -0.81984376907348633
vn -0.34920087456703186 -0.90860086679458618 -0.22913582623004913
vn -0.37469199299812317 -0.92452514171600342 -0.069707997143268585
vn -0.60603618621826172 -0.794841468334198 -0.030775804072618484
vn 0.94822448492050171 -0.28225436806678772 -0.14561191201210022
vn -0.057657387107610703 -0.1568145751953125 0.98594361543655396
vn 0.94259977340698242 -0.33351290225982666 0.016576258465647697
vn 0.79926568269729614 -0.076836757361888885 0.59604567289352417
vn -0.36927983164787292 -0.56218671798706055 -0.73998546600341797
vn -0.84534645080566406 -0.39008209109306335 -0.36500048637390137
vn -0.72542113065719604 -0.67321902513504028 -0.14331886172294617
vn -0.88715004920959473 -0.45469784736633301 -0.078832827508449554
vn -0.078105747699737549 -0.62701094150543213 -0.7750849723815918
vn -0.95076209306716919 -0.30870711803436279 -0.027411846444010735
vn -0.72417634725570679 -0.16610343754291534 -0.66931182146072388
vn -0.83337754011154175 -0.050080180168151855 -0.55043059587478638
vn 0.8261561393737793 -0.42694059014320374 -0.36767882108688354
vn -0.16061431169509888 -0.62808042764663696 -0.76139217615127563
vn 0.47911646962165833 -0.63294541835784912 -0.60813444852828979
vn 0.12872163951396942 -0.21435721218585968 -0.96823638677597046
vn 0.95138150453567505 -0.15849673748016357 0.26410612463951111
vn 0.27472236752510071 -0.6224709153175354 -0.73284214735031128
vn -0.99886798858642578 -0.047406196594238281 -0.0039302813820540905
vn -0.98101210594177246 -0.14211802184581757 0.13197618722915649
vn 0.93086123466491699 -0.31157976388931274 -0.19082833826541901
vn -0.49295690655708313 -0.15283603966236115 0.8565247654914856
vn -0.076331369578838348 -0.25743064284324646 0.96327722072601318
vn -0.99805068969726563 -0.054309725761413574 -0.030745983123779297
vn -0.95788609981536865 -0.23913803696632385 -0.15895675122737885
vn 0.3266414999961853 -0.56975644826889038 -0.75411069393157959
vn -0.78548765182495117 -0.22775723040103912 0.57544398307800293
vn -0.99241799116134644 -0.099860899150371552 -0.071654327213764191
vn -0.22960372269153595 -0.46818792819976807 -0.85327732563018799
vn -0.13654407858848572 -0.089124143123626709 0.98661673069000244
vn -0.094726547598838806 -0.41846230626106262 -0.90328079462051392
vn 0.038431420922279358 0.04417969286441803 -0.99828410148620605
vn -0.050718490034341812 0.005560094490647316 0.99869751930236816
vn 0.65249073505401611 -0.45394089818000793 -0.60678946971893311
vn -0.74632161855697632 0.028144652023911476 -0.66499018669128418
vn -0.03224632516503334 -0.16591349244117737 -0.98561292886734009
vn -0.59457176923751831 -0.10955476015806198 0.79654389619827271
vn 0.99910223484039307 0.033513721078634262 -0.025913503021001816
vn -0.97014588117599487 -0.11956720054149628 -0.21099908649921417
vn 0.88794296979904175 -0.25843513011932373 -0.38048470020294189
vn -0.003925809171050787 -0.052056126296520233 -0.99863642454147339
vn 0.2741209864616394 -0.50638866424560547 -0.81757462024688721
vn -0.68543827533721924 -0.026620840653777122 0.72764396667480469
vn -0.85144078731536865 0.087220951914787292 -0.51714712381362915
vn -0.99466419219970703 -0.049221936613321304 -0.090666115283966064
vn -0.9992944598197937 -0.020387744531035423 -0.031542245298624039
vn 0.83945351839065552 0.027839601039886475 0.54271793365478516
vn -0.93833553791046143 0.12659423053264618 -0.32171472907066345
vn -0.97811567783355713 0.0098043279722332954 -0.20783068239688873
vn 0.96973639726638794 0.16137006878852844 0.18322394788265228
vn 0.48742765188217163 -0.39164379239082336 -0.78040337562561035
vn -0.77856284379959106 0.21051204204559326 -0.59120607376098633
vn -0.11528915166854858 -0.054281909018754959 -0.9918476939201355
vn -0.85429537296295166 0.28249472379684448 -0.43632122874259949
vn -0.27726241946220398 -0.0073082554154098034 -0.96076643466949463
vn -0.57990235090255737 0.06019795686006546 -0.81245887279510498
vn -0.7759401798248291 0.39394289255142212 -0.49267211556434631
vn -0.99964773654937744 -0.02485019713640213 -0.0093214726075530052
vn -0.99823635816574097 -0.057749394327402115 0.013753002509474754
vn -0.34396910667419434 0.27306103706359863 -0.89840018749237061
vn -0.99944031238555908 -0.0049488539807498455 -0.033084746450185776
vn -0.051848370581865311 0.14693722128868103 -0.98778599500656128
vn -0.99614256620407104 0.017152391374111176 -0.086057074368000031
vn -0.65385156869888306 0.42748013138771057 -0.62429070472717285
vn 0.19005049765110016 -0.11039254069328308 0.97554820775985718
vn -0.99857968091964722 -0.011894402094185352 0.051933743059635162
vn 0.96802067756652832 -0.16659584641456604 -0.18756824731826782
vn -0.15564335882663727 0.27924120426177979 -0.94752281904220581
vn -0.99969637393951416 0.0047288946807384491 -0.024182330816984177
vn -0.3999657928943634 0.61322897672653198 -0.68115895986557007
vn 0.034712508320808411 0.022045355290174484 0.99915415048599243
vn -0.98207551240921021 0.0047290408983826637 0.18842850625514984
vn 0.56041759252548218 0.020131895318627357 0.82796543836593628
vn -0.65529948472976685 0.036580879241228104 0.7544829249382019
vn 0.85854250192642212 0.07281406968832016 0.50754600763320923
vn -0.99940639734268188 0.030656086280941963 0.015717502683401108
vn -0.028560161590576172 0.17477627098560333 -0.98419386148452759
vn 0.13002851605415344 0.018525132909417152 0.99133718013763428
vn 0.46290868520736694 0.15768006443977356 0.87226861715316772
vn -0.072614617645740509 0.29409345984458923 -0.95301425457000732
vn 0.74081623554229736 0.060584552586078644 0.66896998882293701
vn 0.99960649013519287 0.028050336986780167 0.00018599629402160645
vn 0.35485354065895081 -0.29405656456947327 -0.88747376203536987
vn -0.29294469952583313 0.0025189700536429882 0.95612609386444092
vn -0.16722095012664795 0.51249599456787109 -0.84224998950958252
vn -0.99838274717330933 0.05673874169588089 -0.0035571432672441006
vn 0.97150522470474243 -0.087432950735092163 -0.22030213475227356
vn 0.25723451375961304 0.12150692194700241 0.95867955684661865
vn 0.63259637355804443 -0.18597373366355896 -0.75182151794433594
vn -0.91396093368530273 0.11036128550767899 0.39050707221031189
vn -0.48879861831665039 0.12413708120584488 0.86351948976516724
vn -0.25545641779899597 0.70183724164962769 -0.66495597362518311
vn 0.27786114811897278 -0.19327715039253235 -0.94097667932510376
vn 0.78406995534896851 0.18194761872291565 0.59340494871139526
vn 0.17726902663707733 -0.1142200380563736 -0.97751188278198242
vn 0.99864691495895386 0.043520513921976089 0.028466146439313889
vn -0.28119730949401855 0.76829403638839722 -0.57502377033233643
vn -0.061178658157587051 0.047591295093297958 0.99699157476425171
vn -0.99957722425460815 0.022557497024536133 -0.018346088007092476
vn -0.28819787502288818 0.20450639724731445 0.93547803163528442
vn -0.99303734302520752 0.075430884957313538 0.09048190712928772
vn 0.16024017333984375 -0.090098477900028229 -0.98295742273330688
vn -0.99868470430374146 0.049254685640335083 -0.014242959208786488
vn 0.51040053367614746 0.25039517879486084 0.82267463207244873
vn -0.70318001508712769 0.31981474161148071 0.63502472639083862
vn 0.99656283855438232 0.076760135591030121 -0.031151685863733292
vn -0.99858278036117554 0.022720016539096832 -0.048127215355634689
vn -0.51959139108657837 0.3743455708026886 0.76804310083389282
vn 0.47426915168762207 -0.082438208162784576 -0.87651169300079346
vn 0.17835238575935364 -0.093317732214927673 -0.97953164577484131
vn 0.86309564113616943 0.38628607988357544 0.32534429430961609
vn -0.97089588642120361 0.17140230536460876 0.16727946698665619
vn 0.68549817800521851 0.41184952855110168 0.60039335489273071
vn 0.25879749655723572 0.15897132456302643 0.95276021957397461
vn -0.99313461780548096 0.11645980924367905 -0.010987087152898312
vn -0.85449278354644775 0.32165881991386414 0.40789422392845154
vn -0.97728562355041504 0.21171365678310394 -0.0094953998923301697
vn 0.9237288236618042 0.068056762218475342 -0.37695276737213135
vn -2.2950755010242574E-05 0.045186050236225128 0.99897861480712891
vn 0.99741828441619873 0.06872810423374176 -0.020814364776015282
vn 0.90490341186523438 0.40511590242385864 0.13050253689289093
vn 0.53317952156066895 0.42883789539337158 0.72925829887390137
vn -0.98895102739334106 0.082934051752090454 -0.12287319451570511
vn -0.1040571853518486 0.22398756444454193 0.96902096271514893
vn 0.97759461402893066 0.20837274193763733 0.029825791716575623
vn 0.79028356075286865 0.56744539737701416 0.23120902478694916
vn -0.037688851356506348 0.05337866023182869 0.99786287546157837
vn -0.27469033002853394 0.4355664849281311 0.85722053050994873
vn -0.99609249830245972 0.079417623579502106 -0.038634095340967178
vn 0.018206577748060226 0.06162499263882637 0.99793332815170288
vn -0.6035454273223877 0.47559669613838196 0.63995367288589478
vn 0.60923433303833008 0.57714402675628662 0.54381823539733887
vn -0.968303382396698 0.20771440863609314 0.13872024416923523
vn -0.9673953652381897 0.25041604042053223 0.037920858711004257
vn 0.10541542619466782 0.013318760320544243 -0.99433904886245728
vn -0.96127688884735107 0.11841178685426712 -0.24884818494319916
vn 0.0052494159899652004 0.20769545435905457 0.9781794548034668
vn 0.61774617433547974 -0.015445622615516186 -0.78622585535049438
vn -0.017177816480398178 0.17109039425849915 0.98510557413101196
vn -0.37234809994697571 0.63150811195373535 0.68011355400085449
vn 0.00026241174782626331 0.32956144213676453 0.94413411617279053
vn 0.63569557666778564 0.694091796875 0.33782792091369629
vn -0.072982743382453918 0.4326450526714325 0.89860546588897705
vn -0.24440149962902069 0.6015465259552002 0.76053249835968018
vn -0.019446460530161858 0.40845808386802673 0.91256988048553467
vn 0.053332582116127014 0.25290524959564209 0.96601998805999756
vn -0.96935230493545532 0.15898364782333374 -0.18729746341705322
vn -0.045388907194137573 0.48619168996810913 0.87267261743545532
vn -0.52065616846084595 0.73644357919692993 0.43193525075912476
vn 0.34470477700233459 -0.030265156179666519 -0.93822312355041504
vn -0.85493206977844238 0.51871895790100098 0.0046674185432493687
vn -0.76062685251235962 0.62646472454071045 0.17026060819625854
vn 0.48999848961830139 0.69800359010696411 0.52219969034194946
vn -0.028170177713036537 0.8218422532081604 0.56901824474334717
vn -0.85274237394332886 0.52232742309570313 -0.0021066826302558184
vn 0.97649002075195313 0.21015051007270813 -0.047999519854784012
vn 0.0080591551959514618 0.47486528754234314 0.88002157211303711
vn -0.2313838005065918 0.91444063186645508 0.33205404877662659
vn 0.93463337421417236 0.34980785846710205 0.063991956412792206
vn -0.594379723072052 0.80380600690841675 0.024669619277119637
vn -0.027137748897075653 0.78024905920028687 0.62487995624542236
vn 0.63186377286911011 0.76465153694152832 0.12671306729316711
vn -0.25032889842987061 0.96532785892486572 0.074010878801345825
vn -0.0005137402331456542 0.4564490020275116 0.88974940776824951
vn 0.019468899816274643 0.60832250118255615 0.79345113039016724
vn -0.9188685417175293 0.22235754132270813 -0.32594126462936401
vn -0.13388451933860779 0.77371025085449219 0.61923128366470337
vn -0.018680181354284286 0.70908921957015991 0.70487129688262939
vn 0.24183359742164612 0.67419284582138062 0.69783991575241089
vn -0.025056570768356323 0.90902900695800781 0.41597890853881836
vn -0.16225063800811768 0.98266470432281494 0.089692987501621246
vn -0.059943437576293945 0.99472391605377197 0.083253391087055206
vn 0.42623603343963623 0.88795185089111328 0.17281316220760345
vn -0.7369810938835144 0.67591303586959839 0.00064775545615702868
vn 0.014948680996894836 0.8074953556060791 0.58968442678451538
vn -0.98763740062713623 0.14880041778087616 -0.049302767962217331
vn -0.020617716014385223 0.88339114189147949 0.46818259358406067
vn -0.051364611834287643 0.99748325347900391 0.048875711858272552
vn 0.9552885890007019 0.29548364877700806 -0.010638498701155186
vn -0.014235220849514008 0.99199360609054565 0.12548305094242096
vn -0.22519972920417786 0.97411608695983887 0.019568037241697311
vn 0.76744985580444336 0.64007246494293213 0.036441538482904434
vn -0.011004946194589138 0.96119558811187744 0.27564820647239685
vn 0.020397763699293137 0.99075090885162354 0.13415119051933289
vn -0.0013196191284805536 0.8959077000617981 0.44423824548721313
vn -0.010825184173882008 0.98313921689987183 0.18253789842128754
vn 0.24775998294353485 0.94734448194503784 0.20286305248737335
vn -0.089742191135883331 0.99566799402236938 0.024322977289557457
vn -0.45016476511955261 0.89292699098587036 0.0057532140053808689
vn 0.0069022523239254951 0.99703425168991089 0.076648600399494171
vn 0.00098105287179350853 0.99766254425048828 0.068325959146022797
vn -0.024886628612875938 0.99933040142059326 0.026822587475180626
vn 0.025920260697603226 0.99728262424468994 0.06896054744720459
vn -0.97238278388977051 0.23292835056781769 -0.014698974788188934
vn -0.1929028183221817 0.69079047441482544 -0.69684791564941406
vn -0.9452243447303772 0.23856163024902344 -0.22279873490333557
vn -0.0233149453997612 0.22881487011909485 -0.97319072484970093
vn -0.93134689331054688 0.35138499736785889 -0.09550679475069046
vn -0.75786751508712769 0.49398410320281982 -0.4261648952960968
vn 0.19992263615131378 -0.026659732684493065 -0.97944891452789307
vn 0.12288175523281097 0.99131208658218384 0.046909168362617493
vn 0.052157387137413025 0.19440740346908569 -0.97953325510025024
vn -0.61639469861984253 0.62770915031433105 -0.47543531656265259
vn -0.57317185401916504 0.81942784786224365 -0.0034721037372946739
vn -0.0032958665397018194 0.99992167949676514 0.012072410434484482
vn 0.027569923549890518 0.22900135815143585 -0.97303557395935059
vn -0.69651079177856445 0.6784854531288147 -0.23351690173149109
vn -0.20315016806125641 0.83648055791854858 -0.50895017385482788
vn 0.80786794424057007 0.58927160501480103 -0.010412148199975491
vn -0.6437067985534668 0.76323968172073364 -0.055737573653459549
vn 0.035334587097167969 0.24706427752971649 -0.96835464239120483
vn -0.069368399679660797 0.99756389856338501 0.0073667378164827824
vn -0.37956967949867249 0.90165948867797852 -0.20721247792243958
vn 0.6603124737739563 0.37985426187515259 -0.64784115552902222
vn 0.010778320953249931 0.99988341331481934 0.010816613212227821
vn 0.040942929685115814 0.29651954770088196 -0.95414876937866211
vn -0.3891928493976593 0.92006045579910278 -0.044918332248926163
vn 0.71982783079147339 0.67754435539245605 -0.15093542635440826
vn 0.49172204732894897 0.87045258283615112 0.022840458899736404
vn -0.15466514229774475 0.98795711994171143 -0.0044054067693650723
vn -0.24381573498249054 0.96644192934036255 -0.080894321203231812
vn 0.32299897074699402 0.94606363773345947 0.025203755125403404
vn -0.21438811719417572 0.88501131534576416 -0.41327068209648132
vn 0.037355650216341019 0.99923563003540039 0.011518422514200211
vn 0.024394875392317772 0.47453799843788147 -0.87989693880081177
vn 0.03254188597202301 0.47336781024932861 -0.8802635669708252
vn -0.076515577733516693 0.76695841550827026 -0.6371186375617981
vn -0.26866438984870911 0.92853134870529175 -0.25622045993804932
vn 0.35793644189834595 0.93372517824172974 0.0062249382026493549
vn 0.3734346330165863 0.52210903167724609 -0.76677817106246948
vn 0.045570757240056992 0.99890947341918945 0.010156602598726749
vn 0.0096487551927566528 0.99989718198776245 0.010608980432152748
vn 0.094329096376895905 0.54040366411209106 -0.83610159158706665
vn -0.014253035187721252 0.97412806749343872 -0.22554691135883331
vn -0.041416160762310028 0.98630613088607788 -0.15964004397392273
vn 0.09098382294178009 0.99582129716873169 0.0078649483621120453
vn 0.38730451464653015 0.89107370376586914 -0.23660698533058167
vn 0.011923776008188725 0.8264014720916748 -0.56295514106750488
vn 0.1895262748003006 0.98129260540008545 -0.03383186087012291
vn 0.013791702687740326 0.91584396362304688 -0.40129747986793518
vn 0.17268145084381104 0.95189160108566284 -0.25314724445343018
vn -0.004916192963719368 0.99674999713897705 -0.080406986176967621
vn 0.018261982128024101 0.99525874853134155 -0.095532722771167755
f 182//182 135//135 146//146
f 111//111 136//136 127//127
f 111//111 188//188 146//146
f 192//192 165//165 323//323
f 290//290 192//192 303//303
f 184//184 213//213 182//182
f 184//184 182//182 146//146
f 296//296 338//338 300//300
f 296//296 300//300 287//287
f 219//219 195//195 125//125
f 219//219 125//125 128//128
f 232//232 225//225 241//241
f 90//90 182//182 133//133
f 307//307 323//323 315//315
f 307//307 287//287 323//323
f 163//163 165//165 180//180
f 6//6 7//7 1//1
f 62//62 74//74 54//54
f 62//62 54//54 37//37
f 92//92 74//74 111//111
f 92//92 111//111 146//146
f 190//190 188//188 111//111
f 190//190 111//111 197//197
f 129//129 121//121 146//146
f 129//129 146//146 135//135
f 129//129 135//135 108//108
f 113//113 74//74 92//92
f 113//113 92//92 121//121
f 113//113 121//121 80//80
f 318//318 303//303 192//192
f 318//318 192//192 323//323
f 187//187 192//192 290//290
f 187//187 290//290 180//180
f 187//187 180//180 165//165
f 187//187 165//165 192//192
f 178//178 188//188 184//184
f 178//178 184//184 146//146
f 178//178 146//146 188//188
f 230//230 197//197 111//111
f 230//230 111//111 127//127
f 204//204 184//184 188//188
f 112//112 15//15 98//98
f 215//215 90//90 133//133
f 215//215 133//133 182//182
f 334//334 324//324 313//313
f 304//304 313//313 324//324
f 222//222 243//243 128//128
f 234//234 240//240 243//243
f 234//234 243//243 222//222
f 234//234 222//222 128//128
f 234//234 128//128 23//23
f 22//22 7//7 6//6
f 97//97 128//128 125//125
f 97//97 23//23 128//128
f 53//53 23//23 97//97
f 186//186 125//125 195//195
f 193//193 243//243 219//219
f 193//193 219//219 128//128
f 193//193 128//128 243//243
f 235//235 239//239 262//262
f 264//264 241//241 209//209
f 263//263 243//243 240//240
f 288//288 282//282 296//296
f 26//26 1//1 7//7
f 166//166 241//241 225//225
f 268//268 296//296 282//282
f 252//252 232//232 241//241
f 79//79 225//225 232//232
f 79//79 166//166 225//225
f 45//45 25//25 34//34
f 45//45 34//34 90//90
f 45//45 98//98 15//15
f 45//45 15//15 25//25
f 162//162 182//182 90//90
f 162//162 108//108 135//135
f 162//162 135//135 182//182
f 316//316 315//315 323//323
f 181//181 229//229 210//210
f 181//181 210//210 198//198
f 181//181 171//171 229//229
f 126//126 111//111 74//74
f 126//126 74//74 104//104
f 175//175 292//292 172//172
f 175//175 172//172 163//163
f 175//175 163//163 180//180
f 175//175 180//180 292//292
f 148//148 100//100 150//150
f 148//148 150//150 163//163
f 148//148 172//172 292//292
f 148//148 292//292 127//127
f 148//148 127//127 136//136
f 49//49 66//66 108//108
f 49//49 108//108 72//72
f 110//110 121//121 129//129
f 110//110 129//129 108//108
f 110//110 108//108 66//66
f 110//110 80//80 121//121
f 137//137 121//121 92//92
f 137//137 92//92 146//146
f 137//137 146//146 121//121
f 205//205 188//188 190//190
f 205//205 190//190 197//197
f 205//205 197//197 230//230
f 205//205 230//230 295//295
f 89//89 74//74 113//113
f 89//89 113//113 80//80
f 89//89 80//80 50//50
f 89//89 50//50 54//54
f 89//89 54//54 74//74
f 337//337 330//330 323//323
f 337//337 323//323 287//287
f 337//337 287//287 300//300
f 337//337 300//300 338//338
f 245//245 204//204 188//188
f 245//245 188//188 205//205
f 245//245 205//205 295//295
f 191//191 112//112 98//98
f 10//10 15//15 112//112
f 10//10 2//2 15//15
f 201//201 215//215 182//182
f 201//201 182//182 213//213
f 325//325 245//245 295//295
f 326//326 334//334 338//338
f 251//251 213//213 313//313
f 251//251 313//313 304//304
f 251//251 215//215 201//201
f 251//251 201//201 213//213
f 274//274 215//215 251//251
f 274//274 251//251 304//304
f 274//274 220//220 215//215
f 214//214 232//232 234//234
f 214//214 234//234 23//23
f 214//214 23//23 79//79
f 214//214 79//79 232//232
f 56//56 75//75 60//60
f 56//56 53//53 97//97
f 56//56 97//97 125//125
f 117//117 75//75 125//125
f 117//117 125//125 138//138
f 179//179 125//125 186//186
f 179//179 186//186 138//138
f 179//179 138//138 125//125
f 238//238 243//243 262//262
f 238//238 262//262 219//219
f 238//238 219//219 243//243
f 265//265 262//262 243//243
f 273//273 287//287 266//266
f 223//223 219//219 262//262
f 223//223 262//262 239//239
f 223//223 239//239 235//235
f 223//223 195//195 219//219
f 253//253 244//244 235//235
f 253//253 235//235 262//262
f 253//253 266//266 244//244
f 259//259 232//232 252//252
f 259//259 252//252 280//280
f 259//259 280//280 263//263
f 259//259 263//263 240//240
f 259//259 240//240 234//234
f 275//275 262//262 265//265
f 275//275 265//265 281//281
f 275//275 281//281 287//287
f 272//272 263//263 280//280
f 272//272 280//280 278//278
f 272//272 278//278 281//281
f 272//272 281//281 265//265
f 286//286 288//288 296//296
f 286//286 296//296 287//287
f 286//286 287//287 281//281
f 286//286 281//281 280//280
f 8//8 25//25 15//15
f 8//8 15//15 2//2
f 43//43 166//166 79//79
f 43//43 79//79 23//23
f 46//46 14//14 12//12
f 46//46 12//12 87//87
f 5//5 9//9 6//6
f 5//5 14//14 23//23
f 5//5 23//23 9//9
f 160//160 87//87 12//12
f 216//216 220//220 254//254
f 277//277 304//304 324//324
f 277//277 324//324 314//314
f 277//277 216//216 254//254
f 277//277 254//254 220//220
f 277//277 220//220 274//274
f 277//277 274//274 304//304
f 260//260 252//252 241//241
f 260//260 241//241 264//264
f 116//116 72//72 108//108
f 116//116 108//108 162//162
f 39//39 90//90 34//34
f 86//86 98//98 45//45
f 86//86 45//45 90//90
f 86//86 90//90 98//98
f 298//298 323//323 165//165
f 298//298 165//165 159//159
f 298//298 159//159 294//294
f 298//298 294//294 323//323
f 261//261 294//294 149//149
f 156//156 164//164 202//202
f 218//218 202//202 224//224
f 218//218 231//231 144//144
f 212//212 229//229 289//289
f 212//212 289//289 210//210
f 212//212 210//210 229//229
f 109//109 126//126 104//104
f 157//157 172//172 148//148
f 157//157 148//148 163//163
f 157//157 163//163 172//172
f 131//131 126//126 148//148
f 131//131 148//148 136//136
f 131//131 136//136 111//111
f 131//131 111//111 126//126
f 85//85 26//26 84//84
f 103//103 102//102 94//94
f 114//114 81//81 161//161
f 47//47 80//80 110//110
f 47//47 110//110 66//66
f 47//47 66//66 49//49
f 47//47 37//37 54//54
f 47//47 54//54 50//50
f 47//47 50//50 80//80
f 301//301 230//230 127//127
f 301//301 127//127 292//292
f 329//329 330//330 337//337
f 329//329 337//337 333//333
f 335//335 333//333 337//337
f 335//335 337//337 338//338
f 177//177 90//90 215//215
f 177//177 215//215 220//220
f 177//177 220//220 191//191
f 177//177 191//191 98//98
f 177//177 98//98 90//90
f 99//99 112//112 142//142
f 336//336 338//338 334//334
f 328//328 297//297 311//311
f 328//328 333//333 335//335
f 328//328 335//335 338//338
f 328//328 338//338 336//336
f 328//328 336//336 325//325
f 328//328 325//325 295//295
f 328//328 295//295 230//230
f 328//328 230//230 297//297
f 233//233 213//213 184//184
f 233//233 184//184 204//204
f 233//233 204//204 245//245
f 310//310 338//338 296//296
f 331//331 334//334 326//326
f 331//331 326//326 324//324
f 331//331 324//324 334//334
f 65//65 22//22 60//60
f 65//65 60//60 75//75
f 44//44 65//65 75//75
f 44//44 58//58 48//48
f 44//44 48//48 26//26
f 44//44 26//26 7//7
f 44//44 7//7 22//22
f 51//51 26//26 48//48
f 51//51 48//48 58//58
f 51//51 42//42 26//26
f 78//78 75//75 56//56
f 78//78 56//56 125//125
f 21//21 22//22 6//6
f 21//21 6//6 9//9
f 21//21 9//9 23//23
f 21//21 23//23 53//53
f 21//21 53//53 56//56
f 21//21 56//56 60//60
f 21//21 60//60 22//22
f 73//73 75//75 117//117
f 73//73 117//117 122//122
f 73//73 44//44 75//75
f 115//115 122//122 138//138
f 132//132 122//122 117//117
f 132//132 117//117 138//138
f 132//132 138//138 122//122
f 228//228 229//229 207//207
f 196//196 207//207 229//229
f 196//196 229//229 171//171
f 196//196 171//171 161//161
f 167//167 161//161 115//115
f 167//167 115//115 138//138
f 226//226 235//235 244//244
f 226//226 244//244 211//211
f 226//226 211//211 200//200
f 203//203 195//195 223//223
f 203//203 223//223 235//235
f 203//203 235//235 226//226
f 203//203 226//226 200//200
f 203//203 200//200 186//186
f 203//203 186//186 195//195
f 227//227 217//217 208//208
f 236//236 232//232 259//259
f 236//236 259//259 234//234
f 236//236 234//234 232//232
f 267//267 273//273 266//266
f 267//267 266//266 253//253
f 267//267 253//253 262//262
f 267//267 262//262 275//275
f 267//267 275//275 287//287
f 267//267 287//287 273//273
f 249//249 243//243 272//272
f 249//249 272//272 265//265
f 249//249 265//265 243//243
f 256//256 263//263 272//272
f 256//256 272//272 243//243
f 256//256 243//243 263//263
f 279//279 264//264 282//282
f 279//279 282//282 288//288
f 279//279 286//286 280//280
f 13//13 20//20 34//34
f 13//13 34//34 25//25
f 13//13 25//25 8//8
f 13//13 8//8 2//2
f 13//13 2//2 1//1
f 28//28 31//31 20//20
f 32//32 31//31 38//38
f 32//32 38//38 39//39
f 32//32 39//39 34//34
f 24//24 26//26 85//85
f 24//24 85//85 59//59
f 24//24 59//59 37//37
f 24//24 11//11 1//1
f 24//24 1//1 26//26
f 33//33 14//14 46//46
f 33//33 46//46 43//43
f 33//33 43//43 23//23
f 33//33 23//23 14//14
f 67//67 43//43 46//46
f 67//67 46//46 87//87
f 67//67 166//166 43//43
f 3//3 1//1 2//2
f 3//3 5//5 6//6
f 3//3 6//6 1//1
f 4//4 12//12 14//14
f 4//4 14//14 5//5
f 4//4 5//5 3//3
f 4//4 3//3 2//2
f 4//4 2//2 12//12
f 199//199 217//217 264//264
f 199//199 264//264 209//209
f 199//199 209//209 174//174
f 199//199 208//208 217//217
f 183//183 174//174 209//209
f 189//189 208//208 199//199
f 189//189 199//199 174//174
f 168//168 174//174 183//183
f 168//168 160//160 12//12
f 168//168 99//99 142//142
f 168//168 189//189 174//174
f 237//237 268//268 282//282
f 237//237 227//227 208//208
f 317//317 277//277 314//314
f 317//317 314//314 324//324
f 317//317 324//324 326//326
f 96//96 116//116 162//162
f 96//96 162//162 90//90
f 70//70 90//90 39//39
f 70//70 39//39 38//38
f 70//70 38//38 49//49
f 70//70 49//49 72//72
f 70//70 72//72 116//116
f 70//70 116//116 96//96
f 70//70 96//96 90//90
f 152//152 149//149 294//294
f 152//152 294//294 159//159
f 143//143 144//144 231//231
f 143//143 231//231 261//261
f 143//143 261//261 149//149
f 143//143 149//149 139//139
f 276//276 284//284 255//255
f 276//276 255//255 266//266
f 250//250 289//289 229//229
f 258//258 266//266 255//255
f 299//299 289//289 250//250
f 299//299 255//255 284//284
f 299//299 276//276 307//307
f 299//299 307//307 315//315
f 299//299 293//293 289//289
f 194//194 164//164 156//156
f 194//194 171//171 181//181
f 194//194 181//181 198//198
f 194//194 198//198 210//210
f 194//194 210//210 289//289
f 194//194 289//289 224//224
f 194//194 224//224 202//202
f 194//194 202//202 164//164
f 101//101 94//94 102//102
f 101//101 144//144 143//143
f 101//101 143//143 139//139
f 158//158 202//202 218//218
f 158//158 218//218 144//144
f 158//158 156//156 202//202
f 242//242 231//231 218//218
f 242//242 218//218 293//293
f 308//308 316//316 323//323
f 302//302 316//316 308//308
f 302//302 308//308 323//323
f 302//302 323//323 294//294
f 302//302 294//294 261//261
f 271//271 289//289 293//293
f 271//271 293//293 218//218
f 271//271 218//218 224//224
f 271//271 224//224 289//289
f 151//151 150//150 100//100
f 124//124 126//126 109//109
f 124//124 109//109 100//100
f 124//124 100//100 148//148
f 124//124 148//148 126//126
f 91//91 85//85 84//84
f 91//91 84//84 94//94
f 52//52 62//62 37//37
f 52//52 37//37 59//59
f 82//82 104//104 74//74
f 82//82 74//74 62//62
f 82//82 62//62 52//52
f 82//82 85//85 100//100
f 82//82 100//100 109//109
f 82//82 109//109 104//104
f 140//140 156//156 158//158
f 140//140 158//158 144//144
f 95//95 103//103 94//94
f 95//95 94//94 84//84
f 119//119 81//81 114//114
f 119//119 194//194 156//156
f 41//41 38//38 31//31
f 41//41 47//47 49//49
f 41//41 49//49 38//38
f 306//306 297//297 230//230
f 306//306 230//230 301//301
f 306//306 301//301 320//320
f 306//306 311//311 297//297
f 322//322 333//333 320//320
f 322//322 320//320 301//301
f 322//322 301//301 292//292
f 322//322 292//292 180//180
f 322//322 180//180 290//290
f 322//322 290//290 303//303
f 322//322 303//303 318//318
f 322//322 318//318 323//323
f 322//322 323//323 330//330
f 322//322 330//330 329//329
f 322//322 329//329 333//333
f 332//332 325//325 336//336
f 332//332 336//336 334//334
f 332//332 334//334 313//313
f 321//321 320//320 333//333
f 321//321 333//333 328//328
f 321//321 328//328 311//311
f 321//321 311//311 306//306
f 321//321 306//306 320//320
f 327//327 338//338 310//310
f 327//327 310//310 326//326
f 327//327 326//326 338//338
f 36//36 65//65 44//44
f 36//36 44//44 22//22
f 36//36 22//22 65//65
f 118//118 75//75 78//78
f 118//118 78//78 125//125
f 118//118 125//125 75//75
f 57//57 58//58 44//44
f 154//154 81//81 115//115
f 154//154 115//115 161//161
f 154//154 161//161 81//81
f 83//83 58//58 57//57
f 83//83 73//73 122//122
f 83//83 122//122 115//115
f 185//185 186//186 200//200
f 185//185 200//200 211//211
f 185//185 211//211 207//207
f 185//185 207//207 196//196
f 185//185 196//196 161//161
f 185//185 161//161 167//167
f 185//185 167//167 138//138
f 247//247 228//228 207//207
f 247//247 207//207 211//211
f 247//247 211//211 244//244
f 247//247 244//244 266//266
f 247//247 266//266 258//258
f 247//247 258//258 255//255
f 247//247 255//255 229//229
f 247//247 229//229 228//228
f 248//248 264//264 217//217
f 248//248 217//217 227//227
f 248//248 227//227 237//237
f 248//248 237//237 282//282
f 248//248 282//282 264//264
f 270//270 264//264 279//279
f 270//270 279//279 280//280
f 270//270 280//280 252//252
f 270//270 252//252 260//260
f 270//270 260//260 264//264
f 285//285 286//286 279//279
f 285//285 279//279 288//288
f 285//285 288//288 286//286
f 17//17 20//20 13//13
f 17//17 13//13 1//1
f 35//35 31//31 28//28
f 35//35 47//47 41//41
f 35//35 41//41 31//31
f 29//29 20//20 31//31
f 29//29 31//31 32//32
f 29//29 32//32 34//34
f 29//29 34//34 20//20
f 30//30 24//24 37//37
f 30//30 37//37 35//35
f 30//30 35//35 28//28
f 145//145 112//112 191//191
f 145//145 191//191 220//220
f 145//145 220//220 216//216
f 173//173 166//166 67//67
f 173//173 67//67 87//87
f 173//173 87//87 160//160
f 173//173 160//160 168//168
f 173//173 168//168 183//183
f 173//173 183//183 209//209
f 173//173 209//209 241//241
f 173//173 241//241 166//166
f 69//69 99//99 168//168
f 69//69 168//168 12//12
f 170//170 168//168 142//142
f 170//170 142//142 112//112
f 170//170 112//112 145//145
f 170//170 145//145 189//189
f 319//319 296//296 317//317
f 319//319 317//317 326//326
f 319//319 326//326 310//310
f 319//319 310//310 296//296
f 257//257 277//277 317//317
f 257//257 317//317 296//296
f 257//257 296//296 268//268
f 257//257 268//268 237//237
f 257//257 237//237 221//221
f 257//257 221//221 216//216
f 257//257 216//216 277//277
f 283//283 287//287 307//307
f 283//283 307//307 276//276
f 283//283 276//276 266//266
f 283//283 266//266 287//287
f 246//246 255//255 250//250
f 246//246 250//250 229//229
f 246//246 229//229 255//255
f 269//269 250//250 255//255
f 305//305 293//293 299//299
f 305//305 302//302 293//293
f 93//93 85//85 91//91
f 93//93 91//91 94//94
f 93//93 94//94 101//101
f 93//93 101//101 100//100
f 93//93 100//100 85//85
f 106//106 130//130 151//151
f 106//106 151//151 100//100
f 106//106 100//100 101//101
f 106//106 139//139 130//130
f 291//291 242//242 293//293
f 291//291 293//293 302//302
f 291//291 302//302 261//261
f 291//291 261//261 231//231
f 291//291 231//231 242//242
f 147//147 149//149 152//152
f 147//147 152//152 159//159
f 147//147 159//159 151//151
f 147//147 151//151 130//130
f 147//147 130//130 139//139
f 147//147 139//139 149//149
f 155//155 165//165 163//163
f 155//155 163//163 150//150
f 155//155 150//150 151//151
f 155//155 151//151 159//159
f 155//155 159//159 165//165
f 76//76 59//59 85//85
f 76//76 85//85 82//82
f 76//76 82//82 52//52
f 76//76 52//52 59//59
f 120//120 101//101 102//102
f 120//120 102//102 103//103
f 77//77 95//95 84//84
f 77//77 84//84 26//26
f 77//77 26//26 42//42
f 141//141 140//140 119//119
f 141//141 119//119 156//156
f 141//141 156//156 140//140
f 153//153 171//171 194//194
f 153//153 194//194 119//119
f 153//153 119//119 114//114
f 153//153 114//114 161//161
f 153//153 161//161 171//171
f 105//105 81//81 119//119
f 105//105 119//119 103//103
f 105//105 103//103 95//95
f 105//105 95//95 81//81
f 309//309 325//325 332//332
f 309//309 332//332 313//313
f 309//309 313//313 213//213
f 309//309 213//213 233//233
f 309//309 233//233 245//245
f 309//309 245//245 325//325
f 55//55 51//51 58//58
f 55//55 81//81 63//63
f 55//55 63//63 42//42
f 55//55 42//42 51//51
f 64//64 58//58 83//83
f 64//64 81//81 55//55
f 64//64 55//55 58//58
f 88//88 83//83 115//115
f 88//88 115//115 81//81
f 68//68 73//73 83//83
f 68//68 83//83 57//57
f 68//68 57//57 44//44
f 68//68 44//44 73//73
f 169//169 186//186 185//185
f 169//169 185//185 138//138
f 169//169 138//138 186//186
f 18//18 28//28 20//20
f 18//18 20//20 17//17
f 40//40 47//47 35//35
f 40//40 35//35 37//37
f 40//40 37//37 47//47
f 27//27 11//11 24//24
f 27//27 24//24 30//30
f 27//27 30//30 28//28
f 206//206 189//189 145//145
f 206//206 145//145 216//216
f 206//206 216//216 221//221
f 206//206 221//221 237//237
f 206//206 237//237 208//208
f 206//206 208//208 189//189
f 19//19 99//99 69//69
f 19//19 69//69 12//12
f 19//19 12//12 2//2
f 19//19 2//2 10//10
f 19//19 10//10 112//112
f 19//19 112//112 99//99
f 176//176 168//168 170//170
f 176//176 170//170 189//189
f 176//176 189//189 168//168
f 312//312 315//315 316//316
f 312//312 316//316 302//302
f 312//312 302//302 305//305
f 312//312 305//305 299//299
f 312//312 299//299 315//315
f 107//107 139//139 106//106
f 107//107 106//106 101//101
f 107//107 101//101 139//139
f 134//134 144//144 101//101
f 134//134 101//101 120//120
f 134//134 120//120 140//140
f 134//134 140//140 144//144
f 123//123 119//119 140//140
f 123//123 140//140 120//120
f 123//123 120//120 103//103
f 123//123 103//103 119//119
f 61//61 63//63 81//81
f 61//61 81//81 95//95
f 61//61 95//95 77//77
f 61//61 77//77 42//42
f 61//61 42//42 63//63
f 71//71 64//64 83//83
f 71//71 83//83 88//88
f 71//71 88//88 81//81
f 71//71 81//81 64//64
f 16//16 11//11 27//27
f 16//16 27//27 28//28
f 16//16 28//28 18//18
f 16//16 18//18 17//17
f 16//16 17//17 1//1
f 16//16 1//1 11//11
f 255//255 299//299 269//269
f 250//250 269//269 299//299
f 299//299 284//284 276//276
f 278//278 280//280 281//281
