# Rhino

mtllib 19.06_sbe_b_01.mtl
usemtl diffuse_0_0_0_255
v 16.296990010738512 33.70610807370106 12.266590118408205
v 5.1747039971264712 37.250952618208458 12.258242034912113
v 5.5348390803509915 37.516075934768267 12.235317993164067
v 5.2635328794505085 37.555439736518821 12.230107116699223
v 16.481896208016678 33.538307144969721 12.213892364501955
v 13.028290468433113 37.147949960633738 12.212014007568362
v 5.1101718765276019 37.460269548360912 12.208693695068362
v 5.1410726197166809 37.036270624577796 12.201785278320315
v 7.7989468171774092 33.931755302059329 12.186702728271488
v 27.293721251063175 34.791909205080238 12.185203552246096
v 5.4184339828696011 37.604571304065225 12.174768829345707
v 6.8289691871264608 33.89475496635643 12.166656494140629
v 6.6199101272519556 34.172587323056788 12.166167449951175
v 27.161627650016726 35.782269753094219 12.165224456787112
v 6.4259782517989947 34.468942290933427 12.162239074707035
v 26.386117941993291 33.298756460427953 12.160684204101564
v 22.921978122963992 36.777491536962003 12.15740661621094
v 16.11955543842771 33.434471392900825 12.157058715820314
v 22.217159739710723 36.87994010807153 12.153371429443361
v 26.960678109397861 33.837202861631056 12.153366851806643
v 6.654955974567315 34.007750473623716 12.150588226318362
v 7.1497219975030362 33.791767206302424 12.149723815917973
v 24.197891717394612 36.689772424703136 12.14839782714844
v 6.8109838969255634 37.584503760960843 12.147740173339848
v 26.898974474053375 36.101825491649876 12.146064758300783
v 27.035671725810118 35.963460370988123 12.143652343750002
v 19.893182898409464 37.091822240382342 12.142070770263674
v 10.99030093327957 33.549608559314095 12.138620758056645
v 8.8980717128815172 33.597359700063471 12.131344604492192
v 25.184076460942379 36.752952220029812 12.127329254150393
v 4.9879207109377148 37.277218314406056 12.126544189453128
v 27.294495400990343 35.353026940498822 12.123551177978518
v 25.960800924845216 33.193103509503068 12.11883010864258
v 24.310994493966859 36.872056727667335 12.112096405029298
v 14.339901009948051 33.3951531476228 12.111293029785157
v 26.422350317272389 36.642109398221102 12.102542114257814
v 25.427079567987732 36.818525150558486 12.098535919189455
v 6.5447552898876893 34.103469040420983 12.095546722412113
v 21.193001374694859 33.155242232929851 12.082879638671876
v 27.238779480786491 34.357181953170247 12.08243865966797
v 10.581254653626445 33.473730708396729 12.081967926025394
v 14.919001671619981 37.333387854406986 12.068043518066409
v 5.2151417488670972 37.617920913943465 12.067903137207034
v 25.200674047839073 33.11687992451256 12.065433502197267
v 26.760397991310754 36.374737434145565 12.065000152587892
v 6.8463829196294341 33.640628896003598 12.060309600830081
v 6.1943879980452721 37.611256763973678 12.04634170532227
v 27.115932689254691 33.911108950398585 12.044670104980471
v 20.351224107501196 33.112712506309009 12.035102081298829
v 26.205785050676297 36.873020637130487 12.026013946533205
v 5.0210655826404036 37.073606804887284 12.025202941894534
v 24.489743662731598 37.008210669423505 12.024739074707034
v 19.815874429870121 37.171700207950991 11.999417114257815
v 26.56019685487496 33.003672470325725 11.989935302734377
v 4.9861634476054633 37.565487408812579 11.98166885375977
v 26.160634217058885 32.991017191650933 11.971089935302736
v 15.519949084512916 37.318576351579139 11.944448089599611
v 26.47540160023101 36.880279923736559 11.928952789306642
v 27.025014436082927 33.455533970350913 11.918058776855471
v 6.6656987424034355 33.618747482783185 11.861489105224614
v 10.035670689576477 33.364231385086086 11.847492218017582
v 4.919360559045856 37.338158259521251 11.833472442626956
v 26.717812875912216 36.737602186016957 11.826706695556643
v 6.9050320277233936 33.495624019776919 11.819571685791018
v 20.752828703531861 33.013424678131905 11.777083587646485
v 5.0378893053346019 37.637959161999241 11.774812316894534
v 27.217588338375663 35.97264650281496 11.756887054443361
v 26.316114706719645 32.936990590891774 11.751427459716799
v 26.280932199958386 36.947103639752655 11.733298492431642
v 26.570701965680314 32.927522023411413 11.685509490966799
v 4.9149642639204671 37.60177071896716 11.678073883056644
v 6.6940222300056007 33.451548565756106 11.659432983398441
v 26.898217297638382 33.015404864945701 11.605519866943361
v 26.633355679039198 36.92940572533756 11.589362335205079
v 26.973980209156707 36.527458547401942 11.582883453369142
v 13.201572861171201 33.231803504593636 11.553778839111329
v 4.8950184463945448 37.50439550214513 11.50998916625977
v 25.954594263513968 32.880349556930383 11.50874481201172
v 6.7285071484878358 33.4296193445076 11.457260131835941
v 26.423502952959154 32.858565520266822 11.422411346435549
v 4.9983728374027692 37.671044692143859 11.421193695068363
v 26.676446520228751 32.874352566671277 11.405326843261721
v 17.005032726507352 33.10144103183309 11.401451110839846
v 4.9263645020698732 37.430774980195849 11.360075378417973
v 26.885117842427235 36.829941176002919 11.358390808105471
v 26.758128860321335 36.912365917380306 11.293110656738284
v 4.9218777848946047 37.595125209650057 11.234181976318363
v 4.964656401789 37.452671714033883 11.196919250488286
v 25.89869364825006 36.991189697900772 11.084500885009767
v 27.073855989166077 33.474731517284958 11.084138488769533
v 6.4863266525641166 33.651904926364672 10.913571166992192
v 7.7860274651336567 33.385385390914664 10.909330749511723
v 27.159933826095823 36.643221932731585 10.780034637451173
v 6.622404032590623 33.464934468902449 10.735148620605472
v 6.5182906787044885 33.633091038709452 10.611829376220706
v 26.466666702871294 32.831510546426763 10.548534393310549
v 26.343383918617405 32.826848421882303 10.393340301513673
v 25.393188972320218 32.828360622415381 10.38071975708008
v 26.888357879881823 36.954262595695198 10.297436523437502
v 26.589923071414717 32.836877922081037 10.213108825683596
v 27.079045166905473 36.926268240236354 10.186567687988283
v 6.7697181437572453 33.457601633966306 10.171739196777347
v 25.887409448754454 32.826276210382218 10.115948486328127
v 22.157215333311854 32.915241256194655 10.033560943603517
v 26.0644750608256 32.825992136033094 9.8936111450195323
v 27.20801071511454 36.835707344621028 9.8376754760742209
v 27.293903503276738 36.321579231042456 9.8272621154785167
v 26.83211933168252 32.927549189460962 9.3471275329589858
v 9.1507911871753436 33.33019152328486 9.3373558044433622
v 13.291447718030781 33.174728781857006 9.2192604064941417
v 26.729654140596608 32.866339076553892 9.2186370849609389
v 26.821688018651912 32.918569587673687 9.0293212890625014
v 7.3772311964841037 33.446995218990295 7.2772834777832056
v 21.476157455459202 32.928527110802598 7.2497993469238295
v 7.2883659320531251 33.474310865687656 7.0279098510742211
v 7.2738717164107243 33.566264013947624 6.8644805908203148
v 7.1273473710045891 34.046747306202136 6.7102706909179712
v 7.3404492412986997 33.5246706081778 6.6766334533691429
v 7.191284908793989 34.018526060880184 6.5863372802734395
v 7.4971584922744796 33.456486769762783 6.5597236633300806
v 7.3111006563154319 34.170950963647364 6.3982769012451195
v 7.5906791269057976 33.461863002047359 6.2363079071044947
v 7.5385956030268062 33.569202673376161 6.1402400970459006
v 7.6405136190751364 33.466657002903659 6.102270889282229
v 7.5550580836395511 33.685417353831191 6.0174568176269556
v 8.1021630691867017 33.430650059263932 5.8317001342773462
v 27.164959901482916 33.168088708081925 5.5616149902343768
v 8.1989454553943801 37.604598147846097 5.4852447509765652
v 8.1383365066852207 37.466321105995988 5.3874774932861351
v 8.2419168241225975 37.478044207839176 5.2300270080566431
v 26.84998467427431 32.941139234766077 5.1415904998779309
v 27.280499854470975 33.591067292654628 4.9809211730957044
v 13.114913196063071 33.180266389683347 4.7091243743896509
v 27.117055289692416 33.101508323792245 4.5570934295654313
v 26.827082713578818 36.996417235695837 4.4073493957519547
v 26.84774675689107 32.949203428179828 4.2319946289062509
v 17.411428754842404 33.042733112653096 3.8477729797363298
v 26.874249361606758 32.963917982595085 3.6743076324462902
v 9.4138240720242834 37.539037403209477 3.5271259307861351
v 10.257205098865484 37.566579266090869 3.1254083633422871
v 26.98157239624976 33.025399046606175 2.9599464416503918
v 10.191401550290379 37.546194281342444 2.6135860443115257
v 27.201115831496168 36.924050542449784 2.455056190490724
v 10.10564879618596 37.152678513473504 2.2771102905273457
v 11.862002594492139 37.503510718259406 0.84366779327392782
v 11.856029347531262 37.351770207868789 0.26037435531616404
v 12.087241595664352 37.465543826655896 0.25140904188156321
v 11.739459007994412 36.94345662217394 -0.12149575948715016
v 11.703207735788908 36.753342314060006 -0.234788203239439
v 11.215126612508243 33.677643531634409 -0.35642104148864551
v 11.551949816004367 35.803313640969257 -0.51058397293090629
v 11.298489174079123 33.762357995023358 -0.51617155075073051
v 11.673470066837524 33.365650073778795 -0.53053951263427546
v 11.403511536238568 33.479723759863738 -0.59102206230163379
v 11.537466964835971 33.403666957871913 -0.68785457611083789
v 11.48228141803088 33.548127239604334 -0.74821634292602346
v 12.347381371992753 37.039832441931303 -0.75899229049682426
v 12.502564810182946 37.22250757971355 -0.75955476760864071
v 11.855532395295768 36.044153529665181 -0.83242311477660946
v 13.085886053657475 37.44707222426478 -0.83958568572997871
v 11.932055146800622 35.903233471039186 -0.99035387039184375
v 12.030110702137279 36.119655499023175 -1.0115571975707989
v 13.189533991802989 37.388858851519572 -1.1343345642089824
v 27.461096917141163 35.941246597434201 -1.1443943023681631
v 26.315755821514642 32.916489013221423 -1.4004077911376944
v 12.508363921013711 36.436522190001924 -1.4363807678222638
v 12.438022954821861 33.350794986120746 -1.6928964614868145
v 12.372213378462789 33.390109862456896 -1.8370262145996075
v 13.990499227562623 37.36602694818869 -1.9848804473876935
v 12.466754321928363 33.419554238272283 -2.021344566345213
v 14.239891336889229 37.421260788241462 -2.0753326416015607
v 12.449991831984903 33.489564020015571 -2.124870300292967
v 14.046831147597459 37.308149040030393 -2.1659656524658186
v 14.154187780894688 37.322720517666738 -2.2541257858276347
v 26.972364581203351 37.022210475208226 -2.3911964416503899
v 13.162470699607638 35.556441981982836 -2.6012575149536117
v 27.058125400444453 37.006474035499963 -2.6585916519165029
v 12.834792369855961 33.934075610415384 -2.7184486389160138
v 13.362369875161392 35.57324991701531 -2.8007385253906234
v 12.913744653529761 34.391712976675173 -2.8593244552612287
v 12.917349578260598 34.26909388680253 -2.880994224548338
v 13.432667750949179 33.356027848465352 -3.0147983551025375
v 13.161679731156767 34.271280928057237 -3.1585887908935528
v 13.394636692949518 33.436090955556907 -3.1876537322998031
v 13.265385028883543 34.558985926217403 -3.2351570129394513
v 13.380147946984891 33.534074554888193 -3.2741558074951156
v 13.507416508284052 33.743463903870207 -3.4838352203369123
v 13.931552267434597 33.343870751004509 -3.5211399078369121
v 13.622330245426213 33.548794895203329 -3.5523738861083967
v 13.677995081132906 33.762206621829272 -3.6110958099365216
v 13.793946540357581 33.421563326029499 -3.6380592346191389
v 13.788357442828215 33.684033968061911 -3.6963043212890607
v 15.930457836021219 37.318514125686086 -3.8114921569824207
v 15.433514783751434 36.902255804053659 -3.8201244354248027
v 20.065751344138448 37.482074175019633 -3.9548938751220692
v 15.503250174925938 36.541810742594272 -4.0932262420654277
v 20.235586548898482 37.474025970476127 -4.1370697021484366
v 27.426381461068331 36.598612174003549 -4.2025333404541003
v 15.967172067414538 33.299998115066266 -4.9560417175292955
v 16.271199604697529 33.281782591587969 -5.0952735900878894
v 16.043988466552719 33.41571748206718 -5.1969894409179673
v 16.202364869530186 33.363184048838406 -5.2745330810546855
v 16.120090196576825 33.519279806484001 -5.2978080749511705
v 17.94318728974082 37.327364712561639 -5.3771434783935534
v 18.294204383725628 37.303351751525064 -5.8271366119384753
v 19.24702141737265 33.167765233092531 -6.6670211791992173
v 19.339844736545786 37.147091935244028 -7.0366210937499982
v 27.264142178705583 36.933122172122715 -7.1243843078613276
v 19.625848505232454 37.189441037483974 -7.2033653259277335
v 19.993910605800977 33.222213165966437 -7.3973129272460927
v 22.673070437463537 33.046235996072696 -8.0773780822753896
v 27.008210303731232 33.191919314409745 -8.195345306396483
v 26.514560226655703 32.997025977543871 -8.2716896057128899
v 22.54107208707444 33.068000283976396 -8.2722442626953114
v 26.149794735796206 32.981274196252706 -8.4509719848632798
v 26.757519247268419 33.050547791901693 -8.9072486877441399
v 26.09027954627868 32.989135155403964 -8.9469383239746083
v 26.538616810799112 33.006668995207264 -8.9670509338378892
v 27.390849486409195 36.37767542013556 -8.9806549072265618
v 27.112481053230908 33.338486273444957 -9.1612991333007798
v 27.356582255449041 36.87696266851416 -9.3158340454101563
v 26.675050024233258 33.085039356220825 -9.484712982177733
v 26.776168361562895 37.071150500973594 -9.5194465637207024
v 25.512620417453888 33.00125423090509 -9.6372749328613274
v 26.36599011449681 33.016049769019936 -9.662608337402343
v 26.068846399553763 33.003521257996965 -9.7611053466796864
v 27.097697033291411 36.988386146283688 -9.8165008544921868
v 25.535170460247343 33.133502573705321 -9.8751571655273427
v 26.564773651883911 33.08333400155496 -9.9213317871093754
v 26.278450916567294 33.02735813499644 -9.9544296264648438
v 26.934072860846584 33.304074978832851 -9.9666671752929688
v 27.375748417832483 33.906875868097735 -9.9688705444335941
v 26.071764541396306 33.040127235387686 -10.010148620605468
v 27.357706528239305 36.543447758852778 -10.075341033935546
v 26.409001866963536 33.16212987071701 -10.175286865234375
v 26.652397014953181 33.273487643444156 -10.274893188476563
v 26.561381411640639 33.478224663559224 -10.449481201171874
v 26.939819192077152 37.012560953930802 -10.475393676757813
v 27.17268529251885 36.868444381934012 -10.536034393310546
v 26.920245767010442 33.674151831156564 -10.576602172851562
v 26.628106809183464 33.673943038475549 -10.611886596679687
v 27.170596981420147 34.384695361825528 -10.776588439941406
v 24.533660200028464 37.179003977324285 -11.025160980224609
v 27.293884283985221 36.505940437202639 -11.058319854736327
v 24.732470651862343 37.035614069561284 -11.454486846923828
v 26.870006029204148 36.905415520650578 -11.532225799560546
v 27.270909678277235 36.065937583658993 -11.571802520751953
v 26.295410493250188 37.092288498643526 -11.678389739990234
v 25.288925284838569 37.139144002544654 -11.678629302978516
v 25.507633165688276 37.152535443720339 -11.679070281982421
v 26.564062656505598 37.0464740945025 -11.730245208740234
v 27.019108735396458 36.580921887125221 -11.784621429443359
v 26.974465838932304 35.513316859310528 -11.83589630126953
v 25.827898951470047 37.135565395807966 -11.846170043945312
v 25.481768464137645 37.078005827575211 -11.876397705078125
v 27.064447516773555 35.692901846645057 -11.935334777832031
v 26.290341716832813 37.076704747971647 -11.952320861816405
v 26.70670225335482 36.87911229411155 -11.969835662841797
v 27.058580322677869 35.920741884019733 -12.008041381835938
v 27.002418643248461 36.28611547750662 -12.068109130859375
v 26.795357445218372 36.608714436791473 -12.126018524169922
v 26.059391095447552 36.996504813343037 -12.16481704711914
v 26.88197044253252 36.130616207137656 -12.17159423828125
v 26.180796247349349 36.692583642465898 -12.184069061279297
v 26.455411167458351 36.754293531768155 -12.201739501953124
v 26.495669318445607 36.237441867165813 -12.208316040039062
v 26.687433521763239 36.354996282844361 -12.240183258056641
v 26.405030876651153 36.500290567031264 -12.266590118408203
vn -0.0066565899178385735 -0.1570391058921814 0.98756992816925049
vn -0.16496162116527557 -0.01391189731657505 0.98620188236236572
vn 0.007380255963653326 0.1463295966386795 0.98920834064483643
vn -0.16004657745361328 0.58762961626052856 0.79314345121383667
vn -0.0086803631857037544 -0.38261979818344116 0.92386507987976074
vn 0.0081017827615141869 0.082172609865665436 0.9965851902961731
vn -0.55573368072509766 0.29563549160957336 0.77701973915100098
vn -0.66036456823348999 -0.29183587431907654 0.69191795587539673
vn -0.014445905573666096 -0.079464562237262726 0.99673300981521606
vn 0.61719506978988647 -0.078163690865039825 0.78291803598403931
vn -0.025191450491547585 0.93558573722839355 0.35219979286193848
vn -0.10702217370271683 -0.20279733836650848 0.9733547568321228
vn -0.18649353086948395 -0.12177473306655884 0.97488003969192505
vn 0.39858835935592651 0.23788531124591827 0.88574141263961792
vn -0.4317348301410675 -0.23359464108943939 0.87122821807861328
vn 0.071796715259552002 -0.26371043920516968 0.96192622184753418
vn 0.011223463341593742 0.088376462459564209 0.99602389335632324
vn -0.012642192654311657 -0.4502723217010498 0.89280176162719727
vn 0.014495703391730785 0.18821063637733459 0.98202168941497803
vn 0.44777792692184448 -0.27860134840011597 0.84963297843933105
vn -0.46704775094985962 -0.33388566970825195 0.81877148151397705
vn -0.036711830645799637 -0.31845402717590332 0.94722718000411987
vn 0.013920429162681103 0.077837467193603516 0.99686884880065918
vn 0.027916828170418739 0.87659066915512085 0.48042628169059753
vn 0.28603446483612061 0.3079247772693634 0.90739548206329346
vn 0.52067399024963379 0.46820256114006042 0.71392220258712769
vn 0.022828448563814163 0.4595102071762085 0.88787907361984253
vn -0.013227755203843117 -0.44445988535881042 0.89570111036300659
vn -0.021977625787258148 -0.46939197182655334 0.88271635770797729
vn 0.022838970646262169 0.1695961207151413 0.98524898290634155
vn -0.83389812707901001 -0.056396991014480591 0.54902935028076172
vn 0.96031093597412109 0.11842156946659088 0.25254544615745544
vn 0.0047932500019669533 -0.46978101134300232 0.88277000188827515
vn 0.026738764718174934 0.37772554159164429 0.92553144693374634
vn -0.015633087605237961 -0.52344751358032227 0.85191446542739868
vn 0.22420130670070648 0.37423038482666016 0.89982521533966064
vn 0.041639022529125214 0.40000367164611816 0.91556715965270996
vn -0.72186154127120972 -0.38835904002189636 0.57279419898986816
vn -0.0079927900806069374 -0.52887684106826782 0.84866094589233398
vn 0.94387233257293701 -0.2312929630279541 0.23581473529338837
vn -0.031872283667325974 -0.7749672532081604 0.63119721412658691
vn 0.032923754304647446 0.99077671766281128 0.13144409656524658
vn -0.14241465926170349 0.96265429258346558 0.23024944961071014
vn -0.0016409341478720307 -0.56583374738693237 0.82451772689819336
vn 0.47506049275398254 0.46618172526359558 0.74631905555725098
vn -0.24064509570598602 -0.65045547485351563 0.72041487693786621
vn 0.019657066091895103 0.99578744173049927 0.089559808373451233
vn 0.72785121202468872 -0.27764967083930969 0.62701141834259033
vn -0.018521983176469803 -0.79315429925918579 0.60873901844024658
vn 0.12091033905744553 0.63512927293777466 0.76288366317749023
vn -0.88253718614578247 -0.38553255796432495 0.2692447304725647
vn 0.046417389065027237 0.87901973724365234 0.47452056407928467
vn 0.034108191728591919 0.99809455871582031 0.051418639719486237
vn 0.1831081211566925 -0.73921811580657959 0.64809566736221313
vn -0.68373751640319824 0.61077189445495605 0.39932537078857422
vn -0.0047799227759242058 -0.93565493822097778 0.35288390517234802
vn 0.032958101481199265 0.99903476238250732 0.029040457680821419
vn 0.3621247410774231 0.75498652458190918 0.54668182134628296
vn 0.81742739677429199 -0.37422460317611694 0.43791362643241882
vn -0.71244990825653076 -0.50616878271102905 0.48601269721984863
vn -0.034829035401344299 -0.95063120126724243 0.30836215615272522
vn -0.9824826717376709 -0.17517635226249695 0.063569575548171997
vn 0.66571110486984253 0.58244341611862183 0.46646374464035034
vn -0.07672940194606781 -0.88858872652053833 0.45224180817604065
vn -0.023798761889338493 -0.98571163415908813 0.16675204038619995
vn -0.29033225774765015 0.94144052267074585 0.1714552640914917
vn 0.92759507894515991 0.31744566559791565 0.19696617126464844
vn 0.012712964788079262 -0.97064512968063354 0.24017991125583649
vn 0.074712291359901428 0.99075895547866821 0.11320222914218903
vn 0.07421044260263443 -0.96898525953292847 0.23571239411830902
vn -0.82599419355392456 0.55122333765029907 0.11784091591835022
vn -0.4662708044052124 -0.85090959072113037 0.24195952713489532
vn 0.72382426261901855 -0.67530012130737305 0.14159150421619415
vn 0.37196210026741028 0.90742087364196777 0.19552886486053467
vn 0.80492043495178223 0.4827721118927002 0.3450133204460144
vn -0.031642023473978043 -0.99532800912857056 0.091219320893287659
vn -0.99885475635528564 -0.034350164234638214 -0.033305775374174118
vn -0.0095114940777420998 -0.97654938697814941 0.21508334577083588
vn -0.10179410874843597 -0.99468910694122314 0.01521824486553669
vn 0.014917897991836071 -0.99215602874755859 0.12411239743232727
vn -0.15802626311779022 0.98728233575820923 0.017358643934130669
vn 0.26192238926887512 -0.95930510759353638 0.10550053417682648
vn -0.030412975698709488 -0.99867117404937744 0.041604727506637573
vn -0.94557994604110718 -0.27913624048233032 -0.16721707582473755
vn 0.70979452133178711 0.65498900413513184 0.25919309258460999
vn 0.47674185037612915 0.86614513397216797 0.15003260970115662
vn -0.9234045147895813 0.25428697466850281 -0.28751051425933838
vn -0.93679684400558472 -0.2263578474521637 -0.26678413152694702
vn 0.042206112295389175 0.99870669841766357 0.028347356244921684
vn 0.96408277750015259 -0.26283466815948486 0.038239993155002594
vn -0.87950396537780762 -0.47587516903877258 0.0039533865638077259
vn -0.037809945642948151 -0.99926835298538208 0.0057542654685676098
vn 0.86811178922653198 0.46456021070480347 0.17483046650886536
vn -0.51459795236587524 -0.85676431655883789 -0.033820267766714096
vn -0.88481664657592773 -0.45058238506317139 -0.1186380609869957
vn 0.052596509456634521 -0.99837863445281982 0.02176523394882679
vn 0.012427814304828644 -0.99989575147628784 0.0073469891212880611
vn -0.016197385266423225 -0.99978858232498169 0.012668231502175331
vn 0.090635932981967926 0.99568653106689453 0.019836625084280968
vn 0.11840370297431946 -0.9929654598236084 -0.00038698312710039318
vn 0.46557474136352539 0.88114577531814575 0.08259698748588562
vn -0.15657010674476624 -0.98724859952926636 -0.028740379959344864
vn -0.0024984343908727169 -0.99999648332595825 0.00089583155931904912
vn -0.029259193688631058 -0.99949860572814941 0.012102819047868252
vn 0.00035515049239620566 -0.99998986721038818 -0.0044897277839481831
vn 0.896320641040802 0.44023019075393677 0.05297822505235672
vn 0.99138379096984863 0.1262190192937851 0.035027172416448593
vn 0.55105406045913696 -0.83439427614212036 0.011207256466150284
vn -0.042130354791879654 -0.99910873174667358 -0.0025971627328544855
vn -0.03274179995059967 -0.9994320273399353 0.0079713454470038414
vn 0.33822929859161377 -0.94106346368789673 -0.00069350498961284757
vn 0.52107483148574829 -0.85350775718688965 0.002348203444853425
vn -0.12516960501670837 -0.99174755811691284 -0.027736309915781021
vn -0.025024838745594025 -0.99968403577804565 -0.0023606515023857355
vn -0.58036744594573975 -0.80260133743286133 -0.13785755634307861
vn -0.89790743589401245 -0.39446154236793518 -0.19535180926322937
vn -0.91494780778884888 -0.25169354677200317 -0.31546926498413086
vn -0.78027403354644775 -0.5646061897277832 -0.26905801892280579
vn -0.8802868127822876 -0.066316992044448853 -0.46978417038917542
vn -0.15521146357059479 -0.98643523454666138 -0.053431626409292221
vn -0.86349141597747803 0.062266938388347626 -0.50050514936447144
vn -0.34518572688102722 -0.92783242464065552 -0.14132870733737946
vn -0.82260775566101074 -0.41446667909622192 -0.38927343487739563
vn -0.61202400922775269 -0.7299426794052124 -0.30431938171386719
vn -0.85262840986251831 -0.24762377142906189 -0.46011653542518616
vn -0.068545334041118622 -0.99731302261352539 -0.025850355625152588
vn 0.9099239706993103 -0.41465398669242859 0.010022662580013275
vn -0.35535508394241333 0.90734899044036865 -0.2245897650718689
vn -0.83480966091156006 0.24636377394199371 -0.49233901500701904
vn -0.7693331241607666 0.40095943212509155 -0.4973510205745697
vn 0.43493187427520752 -0.90044981241226196 -0.0049421596340835094
vn 0.98704928159713745 -0.1596989631652832 0.015165927819907665
vn -0.04555085301399231 -0.99887639284133911 -0.01308140903711319
vn 0.65725451707839966 -0.75366830825805664 -0.00074955751188099384
vn 0.078262403607368469 0.99691534042358398 0.0058965231291949749
vn 0.30497238039970398 -0.95231568813323975 -0.0093101216480135918
vn -0.027658980339765549 -0.9995959997177124 -0.0065468763932585716
vn 0.39263361692428589 -0.91965311765670776 -0.008774150162935257
vn -0.63050508499145508 0.62359285354614258 -0.46216365694999695
vn -0.016740782186388969 0.99933284521102905 -0.032459504902362823
vn 0.50498491525650024 -0.86308914422988892 -0.0082081295549869537
vn -0.19458012282848358 0.96427977085113525 -0.17973075807094574
vn 0.54656040668487549 0.83739781379699707 0.0060560326091945171
vn -0.78461366891860962 0.3050571084022522 -0.539742112159729
vn -0.027810104191303253 0.99833488464355469 -0.050537515431642532
vn -0.43876102566719055 0.81453031301498413 -0.37951174378395081
vn -0.34144866466522217 0.88663029670715332 -0.31192874908447266
vn -0.66902011632919312 0.51579904556274414 -0.5351293683052063
vn -0.72680765390396118 0.39424425363540649 -0.56242519617080688
vn -0.85137170553207397 -0.15342727303504944 -0.50162369012832642
vn -0.81351244449615479 0.19153742492198944 -0.54910010099411011
vn -0.84549856185913086 0.0018155423458665609 -0.53397464752197266
vn -0.10549000650644302 -0.99304628372192383 -0.052258025854825974
vn -0.77207165956497192 -0.43024080991744995 -0.46775868535041809
vn -0.39876833558082581 -0.88173758983612061 -0.25203704833984375
vn -0.82239061594009399 -0.19237937033176422 -0.53540992736816406
vn -0.65125447511672974 0.49956688284873962 -0.57122725248336792
vn -0.53098154067993164 0.69523221254348755 -0.48446953296661377
vn -0.76667279005050659 0.27886325120925903 -0.57831490039825439
vn -0.20195084810256958 0.95777469873428345 -0.20465441048145294
vn -0.7699163556098938 0.23834152519702911 -0.59196460247039795
vn -0.74060767889022827 0.30842462182044983 -0.59697109460830688
vn -0.34391441941261292 0.87675654888153076 -0.33618566393852234
vn 0.99997806549072266 0.0045681274496018887 0.0047941245138645172
vn 0.021705020219087601 -0.99972712993621826 -0.0086376331746578217
vn -0.66026067733764648 0.42240172624588013 -0.62099325656890869
vn -0.11663289368152618 -0.99007081985473633 -0.078463606536388397
vn -0.40538701415061951 -0.85990285873413086 -0.31020703911781311
vn -0.32705596089363098 0.88329339027404785 -0.33589759469032288
vn -0.50175905227661133 -0.77062392234802246 -0.39290785789489746
vn -0.16094228625297546 0.96910303831100464 -0.18691414594650269
vn -0.72669357061386108 -0.42928630113601685 -0.53631126880645752
vn -0.57581412792205811 0.55147320032119751 -0.60358542203903198
vn -0.44417950510978699 0.75982540845870972 -0.47473147511482239
vn 0.12829034030437469 0.99172401428222656 0.0050030774436891079
vn -0.68088787794113159 0.34470570087432861 -0.64619630575180054
vn 0.28580120205879211 0.95828580856323242 0.002434049267321825
vn -0.77299213409423828 -0.13686230778694153 -0.61947709321975708
vn -0.62764376401901245 0.38332495093345642 -0.67758786678314209
vn -0.78712135553359985 0.13756451010704041 -0.60126197338104248
vn -0.78856664896011353 -0.03200564906001091 -0.61411583423614502
vn -0.25031587481498718 -0.94529217481613159 -0.20919995009899139
vn -0.72775459289550781 0.035247184336185455 -0.68493127822875977
vn -0.53352272510528564 -0.7189670205116272 -0.44546598196029663
vn -0.68667834997177124 0.22950702905654907 -0.68978208303451538
vn -0.70739990472793579 -0.36554476618766785 -0.60494828224182129
vn -0.69025713205337524 -0.067543111741542816 -0.72040474414825439
vn -0.15565088391304016 -0.97459781169891357 -0.16103389859199524
vn -0.63384109735488892 -0.23349466919898987 -0.7373775839805603
vn -0.59510886669158936 0.053221702575683594 -0.80188083648681641
vn -0.478952556848526 -0.69306164979934692 -0.53876709938049316
vn -0.58866804838180542 -0.044425070285797119 -0.80715322494506836
vn -0.33943381905555725 0.8528861403465271 -0.39669874310493469
vn -0.58501940965652466 0.48816469311714172 -0.6476476788520813
vn 0.0057332194410264492 0.99976569414138794 -0.020873866975307465
vn -0.59795695543289185 0.40127101540565491 -0.69385087490081787
vn 0.05296122282743454 0.9985930323600769 -0.0026623071171343327
vn 0.98921620845794678 0.14643660187721252 0.0027510116342455149
vn -0.21314333379268646 -0.93163520097732544 -0.29432252049446106
vn -0.13720747828483582 -0.97347021102905273 -0.18311157822608948
vn -0.51623636484146118 -0.39709427952766418 -0.75882548093795776
vn -0.42272117733955383 -0.63480103015899658 -0.64678776264190674
vn -0.52335244417190552 -0.26455625891685486 -0.81000751256942749
vn -0.063189193606376648 0.99303483963012695 -0.09944336861371994
vn -0.18922500312328339 0.95200759172439575 -0.24057319760322571
vn -0.090559892356395721 -0.98970621824264526 -0.1108173131942749
vn -0.53428345918655396 0.56189501285552979 -0.63151818513870239
vn 0.43533185124397278 0.90026998519897461 0.00032529325108043849
vn -0.33934754133224487 0.84134304523468018 -0.42069607973098755
vn -0.30421510338783264 -0.77642089128494263 -0.55192732810974121
vn -0.044293899089097977 -0.99837011098861694 -0.035988956689834595
vn 0.62607723474502563 -0.77944064140319824 -0.022351875901222229
vn 0.080766893923282623 -0.99668127298355103 -0.010155210271477699
vn -0.10336916893720627 -0.98095148801803589 -0.16446569561958313
vn 0.023163141682744026 -0.99963259696960449 -0.014077985659241676
vn 0.4050891101360321 -0.91267472505569458 -0.054107610136270523
vn 0.0057281726039946079 -0.99983674287796021 -0.017136739566922188
vn 0.11869177967309952 -0.99269354343414307 -0.021719889715313911
vn 0.99951845407485962 0.026701267808675766 -0.015806460753083229
vn 0.77099710702896118 -0.63436448574066162 -0.056081529706716537
vn 0.84988772869110107 0.52565234899520874 -0.037154216319322586
vn 0.49800765514373779 -0.85848915576934814 -0.12241239100694656
vn 0.15514278411865234 0.98784202337265015 -0.0099447863176465034
vn -0.048760324716567993 -0.99469882249832153 -0.090535543859004974
vn 0.1520143449306488 -0.98625612258911133 -0.064733915030956268
vn 0.017236491665244102 -0.9979591965675354 -0.061484489589929581
vn 0.37763461470603943 0.92532187700271606 -0.03422696515917778
vn -0.31618571281433105 -0.58930015563964844 -0.7434728741645813
vn 0.34040051698684692 -0.91177123785018921 -0.22978402674198151
vn 0.11000245809555054 -0.96341252326965332 -0.2444089949131012
vn 0.60611826181411743 -0.75939446687698364 -0.23651781678199768
vn 0.95074337720870972 -0.26145344972610474 -0.16652064025402069
vn -0.16120895743370056 -0.79522943496704102 -0.58448421955108643
vn 0.99750691652297974 0.050369903445243835 -0.049424555152654648
vn 0.072635255753993988 -0.80402594804763794 -0.59014099836349487
vn 0.23529432713985443 -0.75881338119506836 -0.60732102394104004
vn -0.083273842930793762 -0.62434238195419312 -0.7766994833946228
vn 0.38521197438240051 0.91963952779769897 -0.07664799690246582
vn 0.6552506685256958 0.7436097264289856 -0.13300794363021851
vn 0.50044864416122437 -0.58707821369171143 -0.6363099217414856
vn -0.066311493515968323 -0.58768916130065918 -0.80636483430862427
vn 0.8128427267074585 -0.3635006844997406 -0.45514166355133057
vn -0.14228165149688721 0.96852070093154907 -0.20426355302333832
vn 0.91462761163711548 0.3628542423248291 -0.17830616235733032
vn -0.53690177202224731 0.29775595664978027 -0.78935283422470093
vn 0.65428537130355835 0.72501152753829956 -0.21510222554206848
vn 0.95551168918609619 0.05731876939535141 -0.2893301248550415
vn 0.13231648504734039 0.99044042825698853 -0.038989130407571793
vn -0.1928771436214447 0.91225129365921021 -0.36138066649436951
vn -0.013807013630867004 0.99606168270111084 -0.087581515312194824
vn 0.3245888352394104 0.93485015630722046 -0.14386564493179321
vn 0.81787866353988647 0.44819256663322449 -0.36082947254180908
vn 0.022100701928138733 -0.52688062191009521 -0.84965187311172485
vn 0.008610771968960762 0.98066878318786621 -0.19548538327217102
vn -0.36619874835014343 0.53117603063583374 -0.76403570175170898
vn 0.65768033266067505 -0.36056932806968689 -0.66139727830886841
vn 0.20838601887226105 0.92869538068771362 -0.30675742030143738
vn 0.51297390460968018 0.69244658946990967 -0.50732183456420898
vn 0.76569473743438721 -0.08358408510684967 -0.63775020837783813
vn 0.77734082937240601 0.19115565717220306 -0.59933358430862427
vn 0.56436854600906372 0.36290627717971802 -0.74147635698318481
vn -0.045332122594118118 0.5412900447845459 -0.83961308002471924
vn 0.32406017184257507 -0.18229496479034424 -0.92830681800842285
vn -0.45982015132904053 -0.1509091705083847 -0.87509530782699585
vn 0.26704740524291992 0.39353692531585693 -0.87966716289520264
vn -0.2047894299030304 -0.43117833137512207 -0.87871867418289185
vn 0.21029770374298096 0.030209209769964218 -0.97717052698135376
vn -0.27861109375953674 -0.13191762566566467 -0.9513009786605835
f 245//245 243//243 249//249
f 254//254 197//197 223//223
f 137//137 114//114 110//110
f 128//128 140//140 142//142
f 128//128 129//129 87//87
f 128//128 87//87 81//81
f 135//135 197//197 99//99
f 207//207 245//245 185//185
f 248//248 254//254 223//223
f 248//248 223//223 251//251
f 250//250 197//197 254//254
f 250//250 254//254 249//249
f 250//250 249//249 243//243
f 33//33 54//54 16//16
f 71//71 66//66 81//81
f 71//71 81//81 87//87
f 61//61 65//65 49//49
f 188//188 206//206 167//167
f 203//203 192//192 245//245
f 203//203 245//245 268//268
f 211//211 167//167 206//206
f 170//170 168//168 172//172
f 171//171 142//142 145//145
f 158//158 142//142 146//146
f 179//179 166//166 194//194
f 179//179 207//207 185//185
f 162//162 166//166 185//185
f 162//162 149//149 166//166
f 159//159 149//149 162//162
f 159//159 162//162 185//185
f 144//144 149//149 159//159
f 144//144 159//159 151//151
f 119//119 87//87 129//129
f 20//20 16//16 54//54
f 10//10 16//16 20//20
f 10//10 132//132 164//164
f 10//10 1//1 16//16
f 27//27 4//4 3//3
f 195//195 197//197 250//250
f 195//195 250//250 243//243
f 195//195 243//243 171//171
f 195//195 171//171 145//145
f 195//195 145//145 142//142
f 195//195 142//142 140//140
f 195//195 140//140 128//128
f 195//195 128//128 81//81
f 195//195 89//89 99//99
f 195//195 99//99 197//197
f 130//130 129//129 128//128
f 130//130 144//144 151//151
f 130//130 151//151 129//129
f 139//139 142//142 158//158
f 139//139 149//149 144//144
f 139//139 144//144 130//130
f 139//139 130//130 128//128
f 139//139 128//128 142//142
f 24//24 11//11 4//4
f 24//24 4//4 27//27
f 24//24 47//47 11//11
f 43//43 11//11 47//47
f 43//43 47//47 81//81
f 43//43 81//81 66//66
f 43//43 4//4 11//11
f 257//257 254//254 248//248
f 257//257 248//248 251//251
f 257//257 262//262 254//254
f 255//255 245//245 249//249
f 255//255 249//249 254//254
f 255//255 254//254 262//262
f 5//5 33//33 16//16
f 5//5 16//16 1//1
f 39//39 49//49 54//54
f 39//39 33//33 5//5
f 39//39 5//5 18//18
f 39//39 18//18 35//35
f 39//39 35//35 49//49
f 70//70 82//82 54//54
f 56//56 65//65 78//78
f 56//56 54//54 49//49
f 56//56 49//49 65//65
f 98//98 65//65 83//83
f 133//133 137//137 110//110
f 133//133 110//110 109//109
f 133//133 167//167 211//211
f 133//133 211//211 137//137
f 182//182 168//168 191//191
f 182//182 191//191 188//188
f 182//182 188//188 167//167
f 182//182 167//167 168//168
f 266//266 233//233 228//228
f 201//201 191//191 203//203
f 214//214 211//211 206//206
f 175//175 135//135 99//99
f 175//175 223//223 197//197
f 175//175 197//197 135//135
f 198//198 164//164 219//219
f 198//198 219//219 221//221
f 239//239 221//221 244//244
f 234//234 244//244 221//221
f 234//234 221//221 219//219
f 147//147 163//163 158//158
f 147//147 158//158 146//146
f 147//147 146//146 142//142
f 174//174 158//158 163//163
f 174//174 207//207 194//194
f 157//157 158//158 166//166
f 157//157 166//166 149//149
f 176//176 166//166 179//179
f 176//176 179//179 185//185
f 176//176 185//185 166//166
f 196//196 207//207 179//179
f 196//196 179//179 194//194
f 196//196 194//194 207//207
f 156//156 172//172 154//154
f 156//156 154//154 150//150
f 161//161 159//159 185//185
f 161//161 185//185 180//180
f 161//161 180//180 151//151
f 161//161 151//151 159//159
f 152//152 150//150 119//119
f 152//152 129//129 151//151
f 152//152 151//151 180//180
f 152//152 172//172 156//156
f 152//152 156//156 150//150
f 73//73 54//54 82//82
f 107//107 164//164 198//198
f 86//86 74//74 85//85
f 63//63 85//85 74//74
f 63//63 74//74 58//58
f 52//52 24//24 27//27
f 204//204 171//171 243//243
f 209//209 243//243 245//245
f 209//209 245//245 207//207
f 264//264 268//268 245//245
f 264//264 245//245 255//255
f 264//264 255//255 262//262
f 264//264 262//262 268//268
f 28//28 35//35 18//18
f 28//28 18//18 5//5
f 44//44 33//33 39//39
f 44//44 39//39 54//54
f 44//44 54//54 33//33
f 68//68 70//70 54//54
f 68//68 54//54 56//56
f 68//68 56//56 78//78
f 104//104 110//110 114//114
f 104//104 114//114 98//98
f 104//104 98//98 83//83
f 104//104 83//83 110//110
f 91//91 72//72 51//51
f 91//91 51//51 62//62
f 91//91 62//62 95//95
f 117//117 88//88 87//87
f 117//117 87//87 119//119
f 84//84 88//88 117//117
f 84//84 95//95 62//62
f 84//84 87//87 88//88
f 77//77 87//87 84//84
f 77//77 84//84 62//62
f 77//77 62//62 71//71
f 77//77 71//71 87//87
f 31//31 62//62 51//51
f 31//31 51//51 8//8
f 181//181 172//172 152//152
f 181//181 152//152 180//180
f 190//190 192//192 187//187
f 190//190 187//187 185//185
f 190//190 185//185 245//245
f 190//190 245//245 192//192
f 189//189 191//191 186//186
f 189//189 186//186 187//187
f 189//189 187//187 192//192
f 189//189 192//192 203//203
f 189//189 203//203 191//191
f 210//210 228//228 233//233
f 210//210 214//214 206//206
f 210//210 203//203 268//268
f 210//210 268//268 266//266
f 210//210 266//266 228//228
f 253//253 256//256 240//240
f 165//165 100//100 97//97
f 165//165 97//97 105//105
f 165//165 105//105 98//98
f 224//224 114//114 137//137
f 224//224 137//137 211//211
f 224//224 211//211 214//214
f 224//224 214//214 210//210
f 224//224 210//210 233//233
f 224//224 215//215 165//165
f 224//224 165//165 98//98
f 224//224 98//98 114//114
f 258//258 262//262 257//257
f 258//258 257//257 251//251
f 177//177 223//223 175//175
f 238//238 251//251 223//223
f 232//232 234//234 219//219
f 232//232 219//219 164//164
f 232//232 164//164 132//132
f 160//160 171//171 163//163
f 160//160 163//163 147//147
f 160//160 147//147 142//142
f 160//160 142//142 171//171
f 173//173 166//166 158//158
f 173//173 158//158 174//174
f 173//173 174//174 194//194
f 173//173 194//194 166//166
f 169//169 171//171 174//174
f 169//169 174//174 163//163
f 169//169 163//163 171//171
f 193//193 209//209 207//207
f 193//193 207//207 174//174
f 193//193 174//174 171//171
f 148//148 139//139 158//158
f 148//148 158//158 157//157
f 148//148 157//157 149//149
f 148//148 149//149 139//139
f 121//121 129//129 152//152
f 121//121 152//152 119//119
f 121//121 119//119 129//129
f 125//125 119//119 150//150
f 125//125 150//150 154//154
f 155//155 168//168 167//167
f 155//155 124//124 154//154
f 155//155 154//154 172//172
f 155//155 172//172 168//168
f 17//17 6//6 14//14
f 32//32 10//10 164//164
f 32//32 164//164 107//107
f 32//32 14//14 10//10
f 106//106 107//107 198//198
f 106//106 198//198 221//221
f 106//106 221//221 143//143
f 75//75 85//85 63//63
f 75//75 63//63 14//14
f 50//50 58//58 52//52
f 50//50 52//52 37//37
f 50//50 37//37 36//36
f 50//50 36//36 58//58
f 53//53 52//52 89//89
f 69//69 74//74 99//99
f 69//69 99//99 89//89
f 69//69 89//89 52//52
f 69//69 52//52 58//58
f 69//69 58//58 74//74
f 29//29 35//35 28//28
f 29//29 28//28 5//5
f 29//29 5//5 1//1
f 96//96 97//97 100//100
f 96//96 100//100 82//82
f 103//103 105//105 97//97
f 103//103 97//97 98//98
f 103//103 98//98 105//105
f 76//76 83//83 65//65
f 76//76 65//65 61//61
f 76//76 61//61 72//72
f 2//2 31//31 8//8
f 2//2 8//8 15//15
f 2//2 1//1 10//10
f 2//2 10//10 14//14
f 2//2 14//14 6//6
f 2//2 6//6 3//3
f 2//2 3//3 4//4
f 55//55 71//71 62//62
f 55//55 62//62 31//31
f 55//55 4//4 43//43
f 55//55 43//43 66//66
f 55//55 66//66 71//71
f 184//184 172//172 186//186
f 184//184 186//186 191//191
f 184//184 191//191 168//168
f 184//184 168//168 170//170
f 184//184 170//170 172//172
f 183//183 185//185 187//187
f 183//183 187//187 181//181
f 183//183 181//181 180//180
f 183//183 180//180 185//185
f 178//178 172//172 181//181
f 178//178 181//181 187//187
f 178//178 187//187 186//186
f 178//178 186//186 172//172
f 199//199 188//188 191//191
f 241//241 233//233 266//266
f 241//241 266//266 253//253
f 241//241 253//253 240//240
f 226//226 218//218 215//215
f 226//226 224//224 233//233
f 226//226 233//233 230//230
f 252//252 260//260 261//261
f 252//252 261//261 258//258
f 246//246 239//239 244//244
f 246//246 244//244 252//252
f 246//246 252//252 258//258
f 246//246 258//258 251//251
f 246//246 251//251 238//238
f 246//246 238//238 239//239
f 263//263 261//261 260//260
f 263//263 260//260 259//259
f 263//263 259//259 256//256
f 263//263 256//256 253//253
f 263//263 253//253 266//266
f 208//208 177//177 143//143
f 208//208 143//143 221//221
f 227//227 239//239 238//238
f 227//227 238//238 223//223
f 227//227 223//223 177//177
f 227//227 177//177 208//208
f 227//227 208//208 221//221
f 227//227 221//221 239//239
f 212//212 141//141 216//216
f 212//212 216//216 220//220
f 111//111 100//100 218//218
f 111//111 218//218 216//216
f 111//111 82//82 100//100
f 231//231 216//216 222//222
f 231//231 240//240 232//232
f 231//231 232//232 220//220
f 231//231 220//220 216//216
f 229//229 231//231 222//222
f 229//229 222//222 216//216
f 242//242 256//256 232//232
f 242//242 232//232 240//240
f 242//242 240//240 256//256
f 247//247 256//256 259//259
f 247//247 259//259 260//260
f 247//247 260//260 252//252
f 247//247 252//252 244//244
f 247//247 244//244 234//234
f 247//247 234//234 232//232
f 247//247 232//232 256//256
f 205//205 209//209 193//193
f 205//205 193//193 171//171
f 205//205 171//171 204//204
f 205//205 204//204 243//243
f 205//205 243//243 209//209
f 123//123 117//117 119//119
f 123//123 119//119 125//125
f 123//123 125//125 154//154
f 123//123 154//154 124//124
f 153//153 167//167 133//133
f 153//153 133//133 126//126
f 153//153 155//155 167//167
f 113//113 126//126 133//133
f 19//19 6//6 17//17
f 19//19 27//27 3//3
f 19//19 3//3 6//6
f 59//59 73//73 90//90
f 59//59 20//20 54//54
f 59//59 54//54 73//73
f 101//101 99//99 74//74
f 101//101 74//74 86//86
f 101//101 86//86 85//85
f 101//101 106//106 143//143
f 101//101 143//143 177//177
f 101//101 177//177 175//175
f 101//101 175//175 99//99
f 26//26 25//25 14//14
f 26//26 14//14 63//63
f 26//26 63//63 58//58
f 45//45 36//36 25//25
f 45//45 25//25 26//26
f 45//45 26//26 58//58
f 45//45 58//58 36//36
f 30//30 14//14 25//25
f 30//30 25//25 36//36
f 30//30 36//36 37//37
f 30//30 19//19 17//17
f 93//93 106//106 101//101
f 93//93 101//101 85//85
f 57//57 53//53 89//89
f 57//57 89//89 195//195
f 57//57 195//195 81//81
f 9//9 1//1 2//2
f 41//41 49//49 35//35
f 41//41 35//35 29//29
f 41//41 61//61 49//49
f 80//80 78//78 65//65
f 80//80 65//65 98//98
f 80//80 98//98 97//97
f 80//80 97//97 96//96
f 80//80 96//96 82//82
f 80//80 82//82 70//70
f 80//80 70//70 68//68
f 80//80 68//68 78//78
f 7//7 31//31 2//2
f 7//7 2//2 4//4
f 7//7 4//4 55//55
f 7//7 55//55 31//31
f 200//200 206//206 188//188
f 200//200 188//188 199//199
f 200//200 199//199 210//210
f 200//200 210//210 206//206
f 202//202 201//201 203//203
f 202//202 203//203 210//210
f 202//202 210//210 199//199
f 202//202 199//199 191//191
f 202//202 191//191 201//201
f 237//237 233//233 241//241
f 213//213 165//165 215//215
f 213//213 215//215 218//218
f 213//213 218//218 100//100
f 213//213 100//100 165//165
f 217//217 224//224 226//226
f 217//217 226//226 215//215
f 217//217 215//215 224//224
f 225//225 218//218 226//226
f 225//225 226//226 230//230
f 225//225 230//230 229//229
f 225//225 229//229 216//216
f 225//225 216//216 218//218
f 265//265 262//262 258//258
f 265//265 258//258 261//261
f 265//265 268//268 262//262
f 267//267 268//268 265//265
f 267//267 265//265 261//261
f 267//267 261//261 263//263
f 267//267 263//263 266//266
f 267//267 266//266 268//268
f 127//127 232//232 132//132
f 127//127 132//132 90//90
f 127//127 90//90 73//73
f 127//127 220//220 232//232
f 134//134 220//220 127//127
f 134//134 127//127 73//73
f 134//134 141//141 212//212
f 134//134 212//212 220//220
f 138//138 216//216 141//141
f 108//108 73//73 82//82
f 108//108 82//82 111//111
f 108//108 134//134 73//73
f 236//236 237//237 241//241
f 236//236 241//241 240//240
f 236//236 240//240 231//231
f 236//236 231//231 229//229
f 79//79 113//113 133//133
f 79//79 133//133 109//109
f 79//79 110//110 83//83
f 79//79 83//83 76//76
f 79//79 76//76 72//72
f 40//40 59//59 90//90
f 40//40 90//90 132//132
f 40//40 132//132 10//10
f 23//23 14//14 30//30
f 23//23 30//30 17//17
f 23//23 17//17 14//14
f 34//34 27//27 19//19
f 34//34 19//19 30//30
f 34//34 30//30 37//37
f 34//34 37//37 52//52
f 34//34 52//52 27//27
f 67//67 75//75 14//14
f 67//67 14//14 32//32
f 67//67 32//32 107//107
f 67//67 107//107 106//106
f 67//67 106//106 93//93
f 67//67 93//93 85//85
f 67//67 85//85 75//75
f 42//42 47//47 24//24
f 42//42 52//52 53//53
f 42//42 53//53 57//57
f 42//42 57//57 81//81
f 42//42 81//81 47//47
f 46//46 41//41 29//29
f 136//136 216//216 138//138
f 136//136 111//111 216//216
f 131//131 111//111 136//136
f 131//131 136//136 138//138
f 131//131 138//138 141//141
f 131//131 141//141 134//134
f 235//235 237//237 236//236
f 235//235 236//236 229//229
f 235//235 229//229 230//230
f 235//235 230//230 233//233
f 235//235 233//233 237//237
f 92//92 110//110 79//79
f 92//92 79//79 109//109
f 92//92 109//109 110//110
f 94//94 72//72 91//91
f 94//94 91//91 95//95
f 94//94 95//95 115//115
f 94//94 115//115 113//113
f 94//94 79//79 72//72
f 116//116 115//115 95//95
f 116//116 95//95 84//84
f 116//116 84//84 117//117
f 120//120 113//113 115//115
f 120//120 153//153 126//126
f 120//120 126//126 113//113
f 122//122 124//124 155//155
f 122//122 155//155 153//153
f 122//122 153//153 120//120
f 122//122 120//120 115//115
f 48//48 20//20 59//59
f 48//48 59//59 40//40
f 48//48 40//40 10//10
f 48//48 10//10 20//20
f 22//22 46//46 29//29
f 22//22 29//29 1//1
f 60//60 72//72 46//46
f 60//60 51//51 72//72
f 64//64 61//61 41//41
f 64//64 41//41 46//46
f 64//64 46//46 72//72
f 64//64 72//72 61//61
f 112//112 108//108 111//111
f 112//112 111//111 131//131
f 112//112 131//131 134//134
f 112//112 134//134 108//108
f 102//102 79//79 94//94
f 102//102 94//94 113//113
f 102//102 113//113 79//79
f 118//118 123//123 124//124
f 118//118 124//124 122//122
f 118//118 122//122 115//115
f 118//118 115//115 116//116
f 118//118 116//116 117//117
f 118//118 117//117 123//123
f 12//12 9//9 2//2
f 12//12 46//46 22//22
f 12//12 22//22 1//1
f 12//12 1//1 9//9
f 38//38 15//15 8//8
f 38//38 8//8 51//51
f 38//38 51//51 60//60
f 13//13 12//12 2//2
f 13//13 2//2 15//15
f 21//21 38//38 60//60
f 21//21 60//60 46//46
f 21//21 46//46 12//12
f 21//21 12//12 13//13
f 21//21 13//13 15//15
f 21//21 15//15 38//38
f 52//52 42//42 24//24
