# OBJ
# COMPAS
# version: 2.1.0
# precision: 3
# V F E: 324 644 966

o Mesh 0
v 69.595 -4.949 -0.061
v 69.646 -6.572 -0.054
v 69.791 -6.928 -0.045
v 69.656 -4.391 -0.049
v 69.476 -4.715 -0.044
v 69.527 -5.992 -0.040
v 70.070 -6.239 -0.021
v 70.469 -6.792 0.013
v 69.462 -5.402 -0.015
v 69.439 -3.920 -0.005
v 70.116 -7.126 0.020
v 69.482 -6.688 0.019
v 69.823 -7.080 0.033
v 69.492 4.946 0.060
v 69.410 0.095 0.060
v 69.445 4.214 0.062
v 69.712 5.719 0.076
v 69.425 -6.335 0.068
v 69.924 5.570 0.094
v 69.597 7.642 0.093
v 69.418 4.364 0.098
v 69.397 -5.525 0.100
v 71.988 -7.120 0.190
v 69.600 7.829 0.116
v 69.380 -2.166 0.118
v 72.349 -7.042 0.214
v 69.758 8.309 0.133
v 69.485 7.605 0.127
v 73.260 -6.777 0.256
v 69.445 -6.880 0.135
v 69.478 -7.022 0.137
v 69.906 8.533 0.152
v 69.381 4.072 0.156
v 72.231 -7.137 0.248
v 69.586 8.365 0.193
v 69.917 -7.211 0.224
v 69.365 3.665 0.212
v 72.049 -7.234 0.308
v 69.714 8.658 0.234
v 69.359 4.648 0.248
v 69.551 8.490 0.262
v 69.386 7.485 0.267
v 69.427 -7.131 0.287
v 69.384 -6.965 0.294
v 72.209 -7.246 0.387
v 73.063 8.865 0.456
v 73.414 8.899 0.491
v 72.074 -7.273 0.458
v 71.674 9.080 0.446
v 73.873 8.805 0.526
v 74.474 8.488 0.566
v 69.402 8.436 0.431
v 72.403 9.114 0.548
v 69.378 -7.136 0.477
v 69.944 -7.326 0.498
v 69.323 7.522 0.505
v 69.319 -4.827 0.515
v 69.792 8.927 0.538
v 69.509 8.727 0.540
v 76.405 8.788 0.764
v 69.330 -6.969 0.538
v 70.635 9.096 0.589
v 75.878 8.990 0.770
v 77.796 7.559 0.863
v 76.868 8.966 0.866
v 69.305 8.376 0.634
v 80.711 -5.223 1.010
v 71.254 9.218 0.726
v 81.017 -5.859 1.051
v 81.172 -5.717 1.065
v 80.766 -6.037 1.055
v 81.250 -5.461 1.076
v 71.888 9.215 0.777
v 81.333 -5.603 1.100
v 81.401 -5.331 1.110
v 81.359 -2.359 1.116
v 76.915 9.112 0.974
v 81.291 -5.846 1.122
v 79.059 8.903 1.085
v 69.286 8.135 0.769
v 80.062 8.752 1.133
v 80.676 -6.121 1.161
v 80.866 8.421 1.173
v 81.157 6.803 1.189
v 77.367 9.164 1.067
v 81.265 5.243 1.194
v 81.119 7.539 1.193
v 81.305 3.977 1.206
v 81.196 7.351 1.216
v 69.291 -7.021 0.833
v 81.467 -2.274 1.232
v 79.383 8.960 1.165
v 81.470 -3.242 1.234
v 81.170 7.629 1.227
v 80.485 8.738 1.206
v 80.024 8.865 1.192
v 81.104 8.208 1.246
v 81.285 6.689 1.256
v 81.486 -5.489 1.263
v 69.319 8.646 0.876
v 81.452 -5.722 1.280
v 81.287 6.952 1.279
v 80.807 8.658 1.265
v 70.085 9.211 0.919
v 69.276 8.417 0.911
v 81.386 -5.921 1.306
v 81.076 8.631 1.340
v 81.240 7.550 1.365
v 81.476 -3.413 1.381
v 81.461 -2.205 1.395
v 81.483 -5.237 1.404
v 81.465 -5.827 1.448
v 69.433 -7.347 1.068
v 70.698 9.266 1.125
v 81.338 5.367 1.484
v 81.300 7.207 1.493
v 81.472 -5.610 1.540
v 81.312 6.618 1.537
v 81.265 7.612 1.539
v 69.551 9.017 1.165
v 80.713 8.905 1.628
v 70.186 -7.542 1.300
v 81.261 7.853 1.738
v 80.099 9.049 1.725
v 81.300 6.788 1.777
v 81.444 -3.788 1.810
v 81.284 7.485 1.829
v 81.383 -6.171 2.071
v 81.037 8.900 2.189
v 69.190 -7.356 1.859
v 81.244 8.396 2.347
v 69.355 8.936 1.984
v 80.448 9.229 2.518
v 81.162 8.797 2.544
v 81.058 9.002 2.713
v 81.170 8.824 2.902
v 81.130 8.960 3.000
v 81.013 9.060 3.131
v 81.139 -6.805 3.156
v 81.193 8.600 3.281
v 81.249 -6.802 3.415
v 81.094 -6.990 3.594
v 81.110 8.926 3.612
v 80.748 9.238 3.674
v 79.602 9.374 3.973
v 81.215 -6.844 4.142
v 80.629 9.291 4.584
v 81.203 -6.630 4.613
v 69.002 -8.179 4.618
v 68.926 8.797 4.668
v 80.889 9.084 5.070
v 68.919 -8.170 4.730
v 80.953 9.013 5.174
v 69.463 9.184 4.849
v 68.881 -8.161 4.890
v 68.933 8.904 5.009
v 70.351 -8.569 5.088
v 70.515 -8.599 5.171
v 68.879 8.819 5.188
v 68.820 -8.120 5.286
v 68.736 -6.388 5.527
v 69.167 9.103 5.582
v 80.880 9.037 5.974
v 80.879 9.014 6.348
v 80.872 8.969 6.683
v 80.748 9.037 7.239
v 69.658 9.167 8.299
v 69.920 -9.061 8.335
v 68.430 -7.977 8.322
v 68.387 -3.805 8.465
v 68.542 8.765 8.664
v 79.594 -8.199 9.095
v 68.433 8.635 9.065
v 68.314 -8.705 9.763
v 68.444 8.780 10.213
v 68.171 6.314 10.208
v 68.183 -7.852 10.314
v 68.298 -9.024 10.381
v 68.208 -8.550 10.465
v 68.904 9.003 10.732
v 79.320 9.293 11.072
v 68.268 8.594 10.739
v 80.196 9.114 11.131
v 69.348 9.057 10.808
v 68.165 -8.333 10.771
v 68.204 -9.020 10.895
v 68.164 -8.590 10.938
v 68.306 -9.161 10.943
v 80.512 -8.297 11.352
v 68.200 8.480 10.999
v 68.138 -7.500 11.024
v 80.525 -8.080 11.449
v 68.319 8.714 11.079
v 68.556 8.900 11.112
v 68.245 -9.091 11.108
v 68.445 -9.151 11.121
v 80.505 -8.272 11.521
v 80.389 8.936 11.546
v 68.077 -2.669 11.186
v 80.450 -8.460 11.609
v 79.339 9.250 11.683
v 69.082 8.999 11.357
v 68.467 -9.077 11.346
v 68.209 -8.873 11.342
v 79.668 9.227 11.771
v 80.655 -2.484 11.824
v 68.222 8.504 11.437
v 68.201 -8.703 11.453
v 68.108 8.234 11.453
v 80.336 8.882 11.852
v 68.374 8.706 11.470
v 68.170 -8.455 11.472
v 68.070 4.346 11.469
v 68.319 -8.901 11.496
v 73.937 -9.374 11.679
v 80.142 9.038 11.903
v 80.450 -8.367 11.913
v 68.158 -8.223 11.525
v 68.094 -6.561 11.589
v 68.079 -3.937 11.590
v 73.760 -9.344 11.775
v 68.076 7.522 11.596
v 68.220 -8.383 11.607
v 69.431 -9.234 11.664
v 68.275 -8.591 11.633
v 68.609 8.826 11.671
v 68.271 -8.396 11.673
v 80.267 8.855 12.075
v 68.195 -6.960 11.704
v 68.480 -8.584 11.718
v 68.347 -8.422 11.725
v 69.672 -9.198 11.768
v 69.108 -9.079 11.765
v 68.192 -6.087 11.750
v 68.178 -4.960 11.761
v 68.302 -6.469 11.772
v 68.367 -6.934 11.777
v 69.135 -8.848 11.809
v 68.103 1.932 11.778
v 69.560 -9.092 11.848
v 68.245 -4.146 11.807
v 68.398 8.656 11.814
v 68.245 8.266 11.813
v 68.277 -4.487 11.815
v 78.798 9.191 12.158
v 68.122 7.555 11.852
v 68.200 1.478 11.882
v 68.572 8.731 11.904
v 80.577 -2.299 12.312
v 68.689 8.792 11.938
v 68.307 7.716 11.926
v 70.390 -8.862 11.995
v 69.003 8.898 11.966
v 80.381 -8.416 12.337
v 80.128 8.862 12.329
v 68.403 8.379 11.963
v 68.617 5.107 11.979
v 71.317 -6.953 12.144
v 69.400 8.890 12.096
v 79.707 9.004 12.452
v 80.317 -8.618 12.475
v 74.246 -9.082 12.284
v 73.628 9.322 12.269
v 74.415 -9.011 12.339
v 80.518 -2.216 12.552
v 74.140 9.327 12.353
v 80.330 -8.260 12.591
v 77.276 -8.975 12.518
v 75.067 -8.910 12.452
v 80.010 -8.722 12.623
v 80.298 -8.608 12.641
v 79.226 9.009 12.636
v 80.322 -7.939 12.694
v 80.467 -2.159 12.708
v 75.301 -7.117 12.597
v 77.455 -8.890 12.673
v 80.260 -8.454 12.804
v 80.040 8.612 12.798
v 78.143 8.985 12.748
v 79.859 -8.762 12.804
v 80.132 -8.710 12.837
v 80.257 -8.049 12.845
v 77.462 -8.742 12.761
v 76.915 8.932 12.757
v 77.423 -8.543 12.792
v 80.086 8.437 12.892
v 79.492 8.849 12.880
v 78.885 8.884 12.862
v 76.548 7.095 12.788
v 79.895 8.728 12.907
v 79.669 -8.766 12.900
v 80.214 -7.584 12.933
v 77.987 -8.351 12.881
v 80.113 -8.556 12.964
v 79.922 -8.689 12.977
v 78.368 -8.232 12.932
v 80.161 -0.113 13.003
v 80.105 6.919 13.003
v 78.391 8.756 12.949
v 80.062 -7.911 13.013
v 79.989 -8.332 13.011
v 80.149 -7.170 13.018
v 79.691 -8.618 13.004
v 79.968 -8.157 13.017
v 79.772 -8.160 13.015
v 78.846 -6.121 12.989
v 80.149 -4.691 13.032
v 78.660 8.099 12.987
v 78.781 8.420 12.994
v 79.122 -6.274 13.008
v 80.063 7.809 13.042
v 80.104 0.167 13.056
v 79.048 8.237 13.022
v 79.663 8.596 13.042
v 80.087 -4.471 13.058
v 79.075 7.928 13.027
v 80.068 -5.016 13.060
v 80.041 7.428 13.060
v 80.034 4.407 13.071
v 80.009 8.210 13.072
v 79.415 8.047 13.056
v 79.917 8.483 13.074
v 79.940 6.857 13.081
v 79.976 4.634 13.087
f 168 158 215
f 168 215 188
f 168 188 149
f 199 176 177
f 122 158 55
f 122 55 38
f 122 38 158
f 45 38 82
f 45 82 142
f 45 142 158
f 152 149 188
f 172 215 158
f 172 158 142
f 274 302 292
f 280 291 215
f 254 271 217
f 254 217 206
f 157 168 149
f 157 149 55
f 157 55 158
f 157 158 168
f 113 55 149
f 71 26 29
f 71 106 82
f 71 82 38
f 71 38 34
f 139 142 82
f 139 82 106
f 139 106 141
f 139 141 142
f 48 38 45
f 48 45 158
f 48 158 38
f 169 177 90
f 169 90 160
f 186 174 160
f 161 90 177
f 43 36 55
f 43 55 113
f 43 113 149
f 43 149 152
f 209 222 246
f 209 190 150
f 209 66 176
f 209 176 222
f 80 176 66
f 219 199 177
f 219 177 191
f 309 322 299
f 309 299 259
f 319 320 324
f 268 291 276
f 268 215 291
f 224 196 188
f 224 188 215
f 283 276 303
f 192 148 206
f 192 206 217
f 249 206 198
f 249 254 206
f 126 206 111
f 294 292 302
f 307 302 274
f 307 274 297
f 311 297 274
f 282 274 292
f 282 292 294
f 270 172 142
f 270 280 215
f 270 215 172
f 64 83 29
f 67 29 83
f 67 76 72
f 75 74 72
f 75 72 76
f 101 74 75
f 101 75 99
f 117 99 111
f 117 111 206
f 117 206 148
f 23 34 38
f 23 29 26
f 23 26 71
f 23 71 34
f 11 23 38
f 11 38 55
f 11 55 36
f 78 106 71
f 78 74 101
f 78 101 106
f 69 78 71
f 69 71 29
f 178 188 186
f 178 152 188
f 155 152 178
f 155 178 186
f 155 186 160
f 195 204 186
f 195 186 188
f 195 188 196
f 212 186 204
f 185 191 177
f 185 219 191
f 170 161 177
f 170 177 176
f 105 66 209
f 105 209 150
f 44 31 43
f 57 80 66
f 57 90 161
f 57 161 170
f 57 170 176
f 57 176 80
f 5 16 14
f 5 14 1
f 15 21 16
f 256 259 250
f 289 259 306
f 289 306 316
f 252 240 283
f 239 247 246
f 239 246 222
f 213 222 176
f 213 176 199
f 286 322 320
f 286 320 311
f 323 324 320
f 323 320 322
f 308 259 289
f 308 289 316
f 321 316 306
f 321 324 323
f 321 323 322
f 310 324 321
f 310 321 306
f 221 215 268
f 221 224 215
f 233 230 225
f 262 276 283
f 262 221 268
f 262 268 276
f 285 252 283
f 285 283 303
f 273 254 249
f 273 249 265
f 273 265 274
f 273 274 282
f 110 115 140
f 300 294 302
f 295 303 276
f 295 276 291
f 315 302 307
f 312 319 324
f 312 324 315
f 312 315 307
f 312 307 297
f 312 297 311
f 200 142 141
f 200 141 146
f 200 270 142
f 4 29 1
f 4 1 17
f 41 59 39
f 56 66 42
f 33 42 21
f 33 21 15
f 33 15 25
f 97 83 107
f 84 76 67
f 84 67 83
f 19 64 29
f 19 29 4
f 19 4 17
f 20 64 19
f 20 19 17
f 20 17 1
f 20 1 14
f 49 32 39
f 50 47 60
f 165 198 206
f 165 206 140
f 266 263 259
f 266 245 205
f 112 146 141
f 112 106 101
f 112 101 99
f 112 99 117
f 112 117 148
f 112 148 146
f 13 43 31
f 13 11 36
f 13 36 43
f 3 29 23
f 3 23 11
f 3 11 13
f 3 13 31
f 3 31 12
f 3 8 29
f 70 74 78
f 70 78 69
f 70 69 29
f 70 29 67
f 70 67 72
f 70 72 74
f 54 43 152
f 54 152 155
f 54 44 43
f 130 54 155
f 130 155 160
f 130 160 90
f 208 212 204
f 179 169 160
f 179 160 174
f 179 174 186
f 179 185 177
f 179 177 169
f 207 209 242
f 207 242 211
f 207 190 209
f 159 156 150
f 162 154 120
f 162 120 156
f 162 156 175
f 132 156 120
f 100 66 105
f 100 105 150
f 100 150 156
f 100 156 132
f 100 132 120
f 100 120 59
f 30 31 44
f 30 12 31
f 61 44 54
f 61 54 130
f 61 130 90
f 61 90 57
f 22 44 61
f 22 61 57
f 22 57 25
f 10 22 25
f 10 25 15
f 10 15 16
f 10 16 5
f 202 263 184
f 167 184 263
f 167 263 154
f 257 259 256
f 257 256 247
f 251 247 256
f 251 256 246
f 251 246 247
f 248 242 256
f 248 256 250
f 248 250 242
f 243 242 209
f 243 209 246
f 243 246 256
f 243 256 242
f 231 225 230
f 231 230 233
f 220 219 239
f 220 239 222
f 220 222 213
f 220 213 199
f 220 199 219
f 235 247 239
f 235 239 219
f 298 265 286
f 298 286 311
f 298 274 265
f 313 309 259
f 313 259 308
f 313 308 316
f 313 316 321
f 313 321 322
f 313 322 309
f 214 204 195
f 214 233 225
f 214 225 208
f 214 208 204
f 264 240 262
f 264 262 283
f 232 224 221
f 232 221 262
f 232 262 240
f 232 240 233
f 232 233 224
f 314 299 322
f 288 299 314
f 288 314 287
f 288 287 279
f 288 279 266
f 288 266 299
f 290 260 287
f 290 287 314
f 290 314 322
f 290 322 286
f 216 255 228
f 216 198 183
f 216 183 205
f 216 205 260
f 216 260 290
f 216 290 255
f 267 254 273
f 267 273 271
f 267 271 254
f 277 271 273
f 277 273 282
f 277 282 294
f 109 111 99
f 109 110 140
f 109 140 206
f 109 206 126
f 109 126 111
f 136 140 131
f 125 131 140
f 125 140 115
f 281 280 270
f 281 271 277
f 281 277 294
f 281 294 295
f 281 295 291
f 281 291 280
f 301 304 303
f 301 303 295
f 301 295 294
f 301 294 300
f 301 300 304
f 317 304 300
f 317 300 302
f 317 302 315
f 317 315 324
f 317 324 310
f 318 320 312
f 318 312 311
f 318 311 320
f 261 271 281
f 261 281 270
f 261 270 200
f 261 200 217
f 261 217 271
f 189 200 146
f 35 41 39
f 52 66 100
f 52 100 59
f 52 59 41
f 52 42 66
f 40 56 42
f 40 42 33
f 40 25 57
f 40 57 66
f 40 66 56
f 93 99 75
f 108 119 116
f 108 97 107
f 108 107 119
f 87 89 84
f 87 84 83
f 87 83 97
f 86 89 98
f 86 98 88
f 86 88 76
f 86 76 84
f 86 84 89
f 103 83 95
f 103 95 107
f 103 107 83
f 81 83 60
f 81 79 96
f 81 96 95
f 81 95 83
f 27 32 20
f 27 20 24
f 27 24 35
f 27 35 39
f 27 39 32
f 28 16 21
f 28 21 42
f 28 42 52
f 28 52 41
f 28 41 35
f 28 35 24
f 28 24 20
f 28 20 14
f 28 14 16
f 147 181 205
f 147 205 183
f 147 163 151
f 145 263 266
f 145 266 181
f 145 181 147
f 104 120 154
f 46 47 50
f 46 50 32
f 46 32 49
f 46 49 47
f 51 83 64
f 51 64 20
f 51 20 32
f 51 32 50
f 51 50 60
f 51 60 83
f 164 163 147
f 164 198 165
f 201 181 266
f 201 266 205
f 201 205 181
f 272 245 266
f 272 266 279
f 272 279 287
f 272 287 260
f 272 260 205
f 272 205 245
f 284 299 266
f 284 266 259
f 284 259 299
f 128 106 112
f 128 112 141
f 128 141 106
f 7 8 3
f 7 3 1
f 7 1 29
f 7 29 8
f 2 5 1
f 2 1 3
f 2 3 12
f 187 185 179
f 187 179 186
f 187 186 212
f 187 212 218
f 187 218 219
f 187 219 185
f 193 182 190
f 193 190 207
f 193 207 211
f 193 175 156
f 173 159 150
f 173 150 190
f 173 190 182
f 173 156 159
f 18 12 30
f 18 30 44
f 18 44 22
f 253 259 263
f 253 263 202
f 253 250 259
f 194 162 175
f 194 175 193
f 194 193 211
f 194 211 242
f 194 253 202
f 296 258 252
f 296 303 310
f 296 310 306
f 296 306 259
f 296 259 257
f 244 252 258
f 244 258 257
f 244 257 247
f 237 252 244
f 237 231 252
f 238 240 252
f 238 252 231
f 238 231 233
f 238 233 240
f 234 247 235
f 234 235 219
f 234 219 229
f 234 229 231
f 223 218 212
f 223 212 208
f 223 208 225
f 223 229 219
f 223 219 218
f 203 233 214
f 203 214 195
f 203 195 196
f 203 196 224
f 203 224 233
f 269 240 264
f 269 264 283
f 269 283 240
f 278 255 290
f 278 290 286
f 278 286 228
f 278 228 255
f 210 198 216
f 210 216 228
f 210 228 286
f 210 286 265
f 210 265 249
f 210 249 198
f 123 131 116
f 123 116 119
f 123 119 107
f 123 107 131
f 102 98 89
f 102 97 108
f 102 108 116
f 102 116 115
f 134 107 137
f 134 137 136
f 134 136 131
f 134 131 107
f 143 165 140
f 143 140 136
f 143 136 137
f 143 137 164
f 143 164 165
f 127 131 125
f 127 116 131
f 118 116 127
f 118 127 125
f 118 125 115
f 118 115 116
f 305 303 304
f 305 304 317
f 305 317 310
f 305 310 303
f 197 148 192
f 197 192 217
f 197 217 200
f 197 200 189
f 197 189 146
f 197 146 148
f 37 25 40
f 37 40 33
f 37 33 25
f 91 98 102
f 91 102 115
f 91 115 110
f 91 110 109
f 91 109 99
f 91 93 75
f 91 75 76
f 91 76 88
f 91 88 98
f 92 96 79
f 92 79 77
f 92 77 85
f 63 47 49
f 63 49 77
f 63 81 60
f 63 60 47
f 138 151 137
f 62 49 39
f 68 49 62
f 68 62 104
f 114 263 145
f 114 145 85
f 114 68 104
f 114 104 154
f 114 154 263
f 153 163 164
f 153 164 137
f 153 137 151
f 153 151 163
f 166 183 198
f 166 198 164
f 166 164 147
f 166 147 183
f 6 5 2
f 6 2 12
f 171 182 193
f 171 193 156
f 171 156 173
f 171 173 182
f 9 10 5
f 9 5 6
f 9 6 12
f 9 12 18
f 9 18 22
f 9 22 10
f 226 250 253
f 226 253 194
f 226 194 242
f 226 242 250
f 180 167 154
f 180 154 162
f 180 162 194
f 180 194 202
f 180 202 184
f 180 184 167
f 293 285 303
f 293 303 296
f 293 296 252
f 293 252 285
f 275 258 296
f 275 296 257
f 275 257 258
f 236 237 244
f 236 244 234
f 236 234 231
f 236 231 237
f 241 247 234
f 241 234 244
f 241 244 247
f 227 231 229
f 227 229 223
f 227 223 225
f 227 225 231
f 94 97 102
f 94 102 89
f 94 89 87
f 94 87 97
f 65 79 81
f 65 81 63
f 65 63 77
f 65 77 79
f 133 85 145
f 133 145 147
f 135 129 133
f 135 138 137
f 135 137 107
f 135 107 129
f 58 104 62
f 58 62 39
f 58 39 59
f 58 59 120
f 58 120 104
f 53 49 68
f 53 68 85
f 53 85 77
f 53 77 49
f 73 68 114
f 73 114 85
f 73 85 68
f 124 92 85
f 124 85 133
f 124 96 92
f 144 138 135
f 144 135 133
f 144 133 147
f 144 147 151
f 144 151 138
f 121 107 95
f 121 95 96
f 121 96 124
f 121 124 133
f 121 133 129
f 121 129 107
f 99 93 91
f 298 311 274
f 319 312 320
