# OBJ
# COMPAS
# version: 2.1.0
# precision: 3
# V F E: 306 608 912

o Mesh 0
v 40.212 -12.599 15.286
v 40.108 -12.557 15.011
v 40.107 -12.551 15.475
v 40.003 -12.511 14.891
v 40.277 -12.493 14.889
v 40.082 -12.472 14.801
v 39.962 -12.373 14.601
v 39.583 -12.310 14.666
v 39.275 -12.256 15.085
v 39.090 -12.223 15.426
v 39.127 -12.218 15.223
v 39.016 -12.180 15.273
v 40.561 -12.162 14.344
v 38.790 -12.105 15.442
v 40.399 -12.087 14.259
v 41.241 -12.025 14.202
v 40.689 -12.010 14.199
v 38.427 -11.932 15.218
v 38.306 -11.892 16.793
v 39.622 -11.858 19.238
v 38.220 -11.830 17.033
v 39.192 -11.810 19.389
v 39.709 -11.780 19.586
v 38.738 -11.776 19.007
v 38.488 -11.765 18.602
v 40.523 -11.754 14.164
v 40.359 -11.742 14.198
v 39.288 -11.724 19.910
v 40.012 -11.704 19.672
v 38.632 -11.694 19.339
v 38.984 -11.686 19.874
v 38.095 -11.683 17.999
v 39.096 -11.553 20.043
v 40.904 -11.552 19.485
v 43.226 -11.551 14.869
v 40.488 -11.551 14.147
v 38.275 -11.513 19.626
v 41.300 -11.482 19.366
v 43.382 -11.469 15.141
v 38.088 -11.450 19.422
v 39.143 -11.425 20.129
v 38.109 -11.404 19.660
v 43.732 -11.365 14.067
v 41.335 -11.355 19.528
v 43.778 -11.353 14.563
v 43.707 -11.339 15.093
v 43.477 -11.311 13.822
v 38.193 -11.287 20.095
v 38.252 -11.188 20.330
v 43.761 -11.126 13.798
v 36.519 -11.034 15.774
v 36.489 -11.017 15.532
v 36.605 -10.979 15.182
v 36.661 -10.899 15.069
v 37.657 -10.892 20.386
v 44.099 -10.875 13.766
v 43.830 -10.746 18.743
v 37.730 -10.742 20.579
v 36.846 -10.742 14.964
v 37.465 -10.681 20.612
v 35.959 -10.604 15.281
v 35.537 -10.477 15.463
v 36.707 -10.471 14.966
v 35.480 -10.425 16.613
v 35.211 -10.390 15.773
v 35.306 -10.360 15.572
v 35.572 -10.292 15.345
v 35.391 -10.285 15.453
v 35.058 -10.206 15.802
v 35.118 -10.191 15.624
v 34.997 -10.087 15.720
v 34.982 -10.046 16.425
v 46.189 -10.000 18.374
v 35.017 -9.999 15.637
v 35.126 -9.945 15.545
v 46.543 -9.913 18.144
v 34.864 -9.864 15.863
v 36.109 -9.854 20.841
v 45.605 -9.828 14.257
v 46.581 -9.805 18.382
v 35.958 -9.780 20.778
v 46.837 -9.778 18.198
v 35.236 -9.764 15.450
v 46.933 -9.744 17.836
v 36.108 -9.705 21.078
v 45.560 -9.704 18.776
v 35.940 -9.699 20.922
v 34.794 -9.676 15.843
v 46.940 -9.637 18.358
v 45.941 -9.627 18.684
v 45.509 -9.624 13.777
v 47.108 -9.618 18.074
v 46.682 -9.590 18.480
v 35.007 -9.587 15.593
v 47.075 -9.569 17.349
v 35.364 -9.566 15.378
v 35.174 -9.503 15.459
v 34.744 -9.491 15.858
v 35.991 -9.478 21.227
v 46.032 -9.450 18.695
v 45.428 -9.396 13.504
v 35.747 -9.379 21.214
v 45.966 -9.306 13.907
v 45.708 -9.301 13.640
v 47.239 -9.295 18.217
v 45.150 -9.244 13.415
v 35.658 -9.213 21.350
v 47.327 -9.121 17.653
v 45.413 -9.097 13.402
v 34.523 -9.076 16.179
v 45.902 -9.046 13.667
v 45.693 -9.018 13.487
v 46.854 -9.013 15.733
v 35.085 -8.959 20.766
v 47.241 -8.958 18.370
v 35.299 -8.933 21.420
v 46.134 -8.871 13.799
v 46.431 -8.823 14.199
v 45.515 -8.808 13.382
v 47.135 -8.803 18.472
v 47.237 -8.792 18.445
v 34.967 -8.617 21.527
v 34.965 -8.565 21.622
v 47.336 -8.559 17.984
v 35.106 -8.514 21.698
v 46.344 -8.474 13.769
v 47.299 -8.435 18.408
v 38.273 -8.385 14.790
v 33.696 -8.173 18.150
v 46.756 -8.101 14.164
v 33.621 -8.002 18.275
v 46.462 -7.999 13.671
v 33.496 -7.890 18.756
v 34.246 -7.804 21.772
v 33.453 -7.760 18.715
v 34.555 -7.757 21.915
v 33.405 -7.745 18.988
v 33.386 -7.673 19.335
v 46.338 -7.620 13.538
v 46.633 -7.542 13.879
v 44.158 -7.488 13.718
v 33.271 -7.474 19.413
v 33.994 -7.406 22.023
v 33.281 -7.366 19.795
v 44.405 -7.362 13.684
v 46.492 -7.312 13.640
v 33.891 -7.292 21.874
v 33.406 -7.232 20.475
v 33.360 -7.136 20.479
v 33.074 -6.894 19.321
v 33.066 -6.893 19.435
v 33.026 -6.768 19.802
v 33.687 -6.762 21.968
v 33.676 -6.595 22.087
v 33.810 -6.217 22.276
v 33.996 -6.157 22.262
v 33.627 -6.152 22.279
v 33.555 -5.850 22.326
v 46.218 -5.841 18.976
v 35.067 -5.240 15.693
v 36.452 -4.894 15.426
v 33.211 -4.781 22.412
v 36.342 -4.764 15.459
v 33.115 -4.479 22.390
v 33.150 -4.235 22.506
v 34.225 -3.769 22.442
v 33.173 -3.712 22.602
v 32.950 -3.614 22.492
v 34.172 -3.565 22.473
v 33.069 -3.527 17.173
v 40.372 -3.423 14.750
v 32.752 -3.216 22.060
v 32.976 -3.188 22.657
v 32.579 -3.145 20.950
v 32.612 -3.070 21.318
v 32.849 -3.026 22.515
v 33.046 -2.987 22.681
v 33.103 -2.847 16.922
v 33.154 -2.724 22.688
v 32.835 -2.684 22.592
v 32.664 -2.651 21.988
v 32.704 -2.592 22.179
v 33.101 -2.586 16.866
v 33.107 -2.583 22.675
v 33.400 -2.528 16.414
v 32.785 -2.500 22.358
v 33.368 -2.486 22.696
v 44.583 -2.485 14.045
v 33.009 -2.449 22.555
v 32.673 -2.425 22.010
v 33.255 -2.349 22.613
v 33.496 -2.337 16.320
v 33.340 -2.328 16.450
v 33.422 -2.059 16.395
v 33.526 -1.988 16.327
v 32.271 -1.819 19.493
v 32.271 -1.725 19.824
v 32.454 -1.649 20.495
v 32.613 -1.610 20.713
v 32.262 -1.584 19.439
v 32.372 -1.566 20.198
v 32.537 -1.556 18.195
v 32.336 -1.551 19.916
v 32.340 -1.536 18.975
v 32.371 -1.422 19.561
v 32.360 -1.375 19.224
v 33.368 -1.252 16.533
v 32.429 -1.252 18.587
v 33.461 -1.233 16.440
v 33.406 -1.068 16.510
v 33.560 -1.043 16.424
v 33.490 -0.864 16.488
v 34.015 -0.689 21.353
v 33.918 -0.610 21.080
v 34.290 -0.377 21.257
v 34.546 -0.279 21.464
v 35.493 -0.256 22.261
v 33.905 -0.250 16.422
v 33.885 0.513 16.528
v 34.228 0.666 16.446
v 33.826 0.668 16.689
v 33.996 0.668 16.512
v 33.998 0.810 16.642
v 33.948 0.876 16.825
v 40.859 2.055 15.125
v 46.703 3.367 19.586
v 39.342 3.499 15.570
v 47.019 3.724 19.522
v 47.276 3.920 19.454
v 47.132 4.730 19.566
v 46.460 6.404 14.685
v 46.627 6.790 14.725
v 46.852 6.907 15.052
v 46.059 7.104 20.041
v 46.699 7.262 14.803
v 46.388 7.429 14.771
v 46.875 7.577 15.273
v 47.310 7.667 19.741
v 46.643 7.785 14.896
v 46.366 7.848 14.823
v 47.526 8.195 19.583
v 46.414 8.199 14.946
v 46.672 8.452 19.968
v 45.911 8.696 14.881
v 47.302 8.751 19.820
v 45.595 8.782 14.862
v 47.593 8.830 19.314
v 47.502 8.870 19.680
v 42.284 8.929 16.036
v 45.659 8.956 14.886
v 42.342 8.973 15.867
v 45.772 9.074 15.014
v 42.605 9.083 15.679
v 46.919 9.091 19.942
v 42.801 9.111 15.584
v 47.398 9.185 19.805
v 47.396 9.483 19.814
v 44.674 9.566 15.121
v 47.522 9.732 19.373
v 44.887 9.990 15.142
v 47.142 10.024 19.934
v 46.551 10.063 20.070
v 44.581 10.167 15.245
v 44.913 10.181 15.206
v 44.546 10.305 15.332
v 45.795 10.306 20.169
v 47.652 10.350 18.345
v 47.409 10.364 19.591
v 44.766 10.380 15.302
v 46.786 10.485 20.000
v 46.724 10.648 19.997
v 47.091 10.688 19.930
v 45.985 10.700 20.102
v 47.252 10.744 19.690
v 46.203 10.905 20.062
v 46.146 11.136 19.978
v 46.814 11.182 19.912
v 47.471 11.197 17.823
v 47.557 11.204 18.331
v 47.197 11.266 19.604
v 46.190 11.299 19.796
v 46.529 11.336 19.923
v 46.774 11.433 19.870
v 46.969 11.454 19.828
v 47.430 11.650 18.015
v 47.317 11.659 19.119
v 46.744 11.699 19.771
v 47.463 11.732 18.482
v 47.089 11.773 19.547
v 46.601 11.800 19.551
v 46.794 11.970 19.507
v 47.302 12.023 18.017
v 47.142 12.048 19.128
v 46.974 12.050 19.316
v 47.274 12.180 18.686
v 47.288 12.240 18.258
v 47.176 12.297 17.990
v 47.088 12.374 18.865
v 46.956 12.418 17.930
v 46.909 12.431 18.751
v 47.195 12.439 18.358
v 47.136 12.480 18.114
v 47.012 12.520 18.683
v 46.893 12.547 18.120
v 47.125 12.549 18.541
v 47.067 12.599 18.273
f 169 261 187
f 73 44 38
f 251 221 224
f 268 288 286
f 233 267 130
f 146 235 233
f 57 1 73
f 57 73 38
f 57 38 1
f 186 276 216
f 186 216 213
f 281 216 276
f 128 36 63
f 210 221 219
f 249 304 251
f 249 251 224
f 247 241 127
f 278 267 233
f 177 187 179
f 177 180 173
f 262 266 187
f 262 187 261
f 189 191 276
f 189 276 186
f 189 186 180
f 184 187 191
f 184 191 189
f 184 189 180
f 184 180 177
f 184 177 179
f 184 179 187
f 234 169 226
f 159 121 226
f 31 28 49
f 41 28 44
f 29 44 28
f 29 28 23
f 29 23 1
f 22 1 28
f 22 28 31
f 22 31 24
f 20 23 28
f 20 28 1
f 20 1 23
f 232 235 146
f 232 146 139
f 250 246 260
f 258 260 246
f 258 246 225
f 132 139 146
f 140 130 132
f 140 132 146
f 140 146 233
f 140 233 130
f 35 39 1
f 35 1 43
f 115 127 121
f 150 204 170
f 202 170 204
f 199 186 213
f 208 221 210
f 208 210 202
f 208 202 204
f 208 206 224
f 208 224 221
f 205 206 203
f 205 224 206
f 200 203 206
f 200 206 208
f 200 208 204
f 194 193 210
f 259 247 267
f 259 267 268
f 124 247 127
f 124 267 247
f 295 288 296
f 295 286 288
f 303 305 306
f 303 306 304
f 279 267 278
f 279 288 268
f 279 268 267
f 239 278 235
f 237 235 278
f 237 278 233
f 237 233 235
f 248 247 259
f 248 259 268
f 248 268 257
f 248 121 127
f 248 127 241
f 248 241 247
f 289 286 295
f 287 284 289
f 287 289 291
f 287 291 276
f 201 249 224
f 201 224 205
f 201 205 203
f 201 199 281
f 217 273 276
f 217 276 191
f 217 191 187
f 272 262 261
f 272 261 257
f 272 257 268
f 156 169 187
f 100 156 125
f 78 37 55
f 25 32 19
f 25 37 32
f 48 37 31
f 48 31 49
f 48 49 55
f 48 55 37
f 30 24 31
f 30 31 37
f 30 37 25
f 30 25 24
f 33 28 41
f 33 41 49
f 33 49 28
f 86 90 100
f 86 100 125
f 86 125 41
f 86 41 44
f 34 44 29
f 34 29 1
f 34 1 38
f 34 38 44
f 119 232 139
f 264 250 260
f 141 128 171
f 141 119 106
f 141 106 36
f 141 36 128
f 47 43 16
f 227 220 258
f 227 258 225
f 45 39 35
f 45 35 43
f 76 45 82
f 76 82 73
f 76 73 1
f 76 1 39
f 84 82 45
f 84 45 43
f 84 43 95
f 79 103 95
f 79 95 43
f 118 130 113
f 118 113 95
f 118 95 103
f 89 115 121
f 51 19 65
f 64 81 72
f 64 72 65
f 64 65 32
f 21 32 65
f 21 65 19
f 21 19 32
f 131 129 150
f 131 150 170
f 131 170 129
f 110 170 98
f 110 129 170
f 88 129 110
f 88 110 98
f 183 170 202
f 183 193 98
f 214 281 199
f 214 199 213
f 196 150 151
f 196 151 152
f 196 200 204
f 196 204 150
f 10 19 14
f 10 1 19
f 18 14 19
f 192 185 193
f 192 193 194
f 192 194 195
f 67 54 61
f 94 98 193
f 94 193 185
f 94 185 192
f 94 192 97
f 222 211 219
f 222 219 221
f 222 253 255
f 96 97 192
f 96 192 195
f 96 195 160
f 96 160 63
f 96 63 67
f 209 211 195
f 209 195 194
f 209 194 210
f 223 251 253
f 223 253 222
f 223 222 221
f 223 221 251
f 265 255 253
f 265 253 251
f 265 251 304
f 105 115 89
f 105 127 115
f 301 305 295
f 301 295 296
f 301 306 305
f 285 296 288
f 285 288 279
f 285 279 278
f 300 249 201
f 300 291 303
f 300 303 304
f 300 304 249
f 297 239 242
f 240 239 235
f 240 235 232
f 238 234 226
f 228 230 238
f 228 238 226
f 228 226 121
f 298 305 303
f 298 303 291
f 298 295 305
f 282 287 276
f 290 281 276
f 290 276 291
f 290 291 300
f 290 300 201
f 290 201 281
f 198 199 201
f 198 186 199
f 275 273 217
f 275 217 266
f 275 266 262
f 275 282 276
f 275 276 273
f 280 289 284
f 280 284 272
f 280 268 286
f 280 286 289
f 114 72 81
f 114 81 122
f 114 122 138
f 114 138 72
f 167 155 156
f 167 156 187
f 167 187 177
f 167 177 173
f 166 169 156
f 166 121 159
f 166 159 226
f 166 226 169
f 120 156 100
f 120 100 121
f 120 121 166
f 120 166 156
f 60 85 78
f 60 78 55
f 60 55 49
f 60 99 85
f 3 1 22
f 3 22 24
f 3 24 25
f 3 25 19
f 3 19 1
f 231 232 119
f 231 119 246
f 112 119 139
f 112 139 132
f 188 225 246
f 188 246 119
f 188 141 171
f 188 171 225
f 218 220 227
f 218 227 195
f 218 195 211
f 218 211 222
f 218 222 220
f 163 160 195
f 163 195 227
f 163 227 225
f 163 225 171
f 46 45 76
f 46 76 39
f 46 39 45
f 126 111 112
f 126 112 132
f 126 132 130
f 126 130 118
f 126 118 103
f 93 100 90
f 93 90 86
f 93 86 44
f 93 44 89
f 93 89 121
f 93 121 100
f 80 73 82
f 80 82 89
f 80 89 44
f 80 44 73
f 92 84 95
f 92 105 89
f 92 89 82
f 92 82 84
f 52 18 19
f 52 19 51
f 52 51 65
f 70 66 65
f 70 65 71
f 40 81 64
f 40 64 32
f 40 32 37
f 149 152 144
f 142 138 144
f 142 144 152
f 142 152 151
f 142 151 150
f 142 150 137
f 142 137 138
f 135 137 150
f 135 150 129
f 69 71 65
f 69 65 72
f 69 129 71
f 77 129 88
f 77 88 71
f 77 71 129
f 178 170 183
f 178 183 98
f 178 98 170
f 207 210 193
f 207 193 183
f 207 183 202
f 207 202 210
f 215 281 214
f 215 214 213
f 215 213 216
f 215 216 281
f 68 66 70
f 59 54 67
f 59 67 63
f 9 18 8
f 212 219 211
f 212 211 209
f 212 209 210
f 212 210 219
f 263 260 258
f 263 258 220
f 263 220 222
f 263 222 255
f 263 255 265
f 263 264 260
f 269 264 263
f 269 263 265
f 269 265 304
f 108 267 124
f 108 124 127
f 108 127 105
f 108 105 92
f 108 92 95
f 108 95 113
f 108 113 130
f 108 130 267
f 292 285 278
f 292 278 239
f 292 239 297
f 292 297 296
f 292 296 285
f 302 301 296
f 302 296 297
f 302 306 301
f 252 250 264
f 244 239 240
f 244 240 250
f 244 250 252
f 244 252 297
f 244 297 242
f 244 242 239
f 245 234 238
f 229 238 230
f 229 230 228
f 229 228 121
f 293 295 298
f 293 298 289
f 293 289 295
f 294 289 298
f 294 298 291
f 294 291 289
f 283 287 282
f 283 282 275
f 283 284 287
f 271 272 275
f 274 268 280
f 274 280 272
f 274 272 268
f 158 155 167
f 158 167 173
f 134 122 123
f 134 138 122
f 87 81 78
f 87 78 85
f 87 85 102
f 87 123 122
f 87 122 81
f 107 99 125
f 107 125 123
f 107 123 102
f 107 102 85
f 107 85 99
f 58 125 99
f 58 99 60
f 58 60 49
f 58 49 41
f 58 41 125
f 236 232 231
f 236 231 246
f 236 246 250
f 236 250 240
f 236 240 232
f 109 106 119
f 109 119 112
f 104 112 111
f 104 111 103
f 145 141 188
f 145 188 119
f 145 119 141
f 161 128 63
f 161 63 160
f 161 160 163
f 161 163 171
f 161 171 128
f 117 111 126
f 117 126 103
f 117 103 111
f 53 61 54
f 53 54 8
f 53 8 18
f 53 18 52
f 53 52 65
f 83 97 96
f 83 96 67
f 42 81 40
f 42 40 37
f 42 37 78
f 42 78 81
f 148 149 144
f 133 137 135
f 133 135 129
f 133 129 69
f 133 69 72
f 133 72 138
f 133 138 137
f 75 94 97
f 75 97 83
f 75 83 67
f 75 67 68
f 74 98 94
f 74 94 75
f 74 75 68
f 74 68 70
f 74 70 71
f 74 71 88
f 74 88 98
f 5 6 16
f 5 16 43
f 5 43 1
f 4 9 8
f 7 16 6
f 7 6 4
f 7 4 8
f 27 59 63
f 27 63 36
f 17 47 16
f 12 14 18
f 12 10 14
f 299 264 269
f 299 269 304
f 299 304 306
f 299 306 302
f 299 302 297
f 299 297 252
f 299 252 264
f 256 257 261
f 256 261 245
f 256 245 238
f 256 238 121
f 256 121 248
f 256 248 257
f 254 245 261
f 254 261 169
f 277 272 284
f 277 284 283
f 277 283 275
f 277 275 272
f 153 152 149
f 190 186 198
f 190 198 201
f 190 180 186
f 182 180 190
f 172 175 152
f 172 152 164
f 172 164 168
f 197 190 201
f 197 201 203
f 197 203 200
f 197 200 196
f 197 196 152
f 270 262 272
f 270 272 271
f 270 271 275
f 270 275 262
f 165 158 173
f 136 125 156
f 136 156 155
f 116 123 87
f 116 87 102
f 116 102 123
f 56 103 79
f 56 79 43
f 62 61 53
f 62 53 65
f 62 65 66
f 62 66 68
f 62 68 67
f 62 67 61
f 2 5 1
f 2 1 10
f 2 10 4
f 2 4 6
f 2 6 5
f 26 27 36
f 26 36 106
f 26 106 47
f 26 47 17
f 15 7 8
f 15 8 54
f 15 54 59
f 15 59 27
f 15 27 26
f 15 26 17
f 15 17 16
f 11 9 4
f 11 4 10
f 11 10 12
f 11 12 18
f 11 18 9
f 243 234 245
f 243 245 254
f 243 254 169
f 243 169 234
f 157 155 158
f 143 148 144
f 143 144 138
f 143 138 134
f 143 134 123
f 143 123 125
f 143 125 136
f 143 136 155
f 143 155 157
f 143 149 148
f 181 175 172
f 181 172 182
f 181 182 190
f 181 190 197
f 181 197 175
f 176 180 182
f 176 182 172
f 176 172 168
f 176 168 173
f 176 173 180
f 174 175 197
f 174 197 152
f 174 152 175
f 50 47 106
f 50 106 109
f 50 109 56
f 50 56 43
f 50 43 47
f 91 103 56
f 91 56 104
f 91 104 103
f 101 104 56
f 101 56 109
f 101 109 112
f 101 112 104
f 13 7 15
f 13 15 16
f 13 16 7
f 154 153 143
f 154 143 157
f 162 164 152
f 162 152 153
f 162 153 154
f 162 154 157
f 162 157 158
f 162 158 165
f 162 165 173
f 162 173 168
f 162 168 164
f 147 149 143
f 147 143 153
f 147 153 149
f 229 121 238
f 266 217 187
