# Rhino

mtllib 19.06_sbe_l_19.mtl
usemtl diffuse_0_0_0_255
v 27.799535168392083 14.697113712802638 9.0598125040531166
v 27.743168566173637 14.73528990896023 9.1590358316898346
v 27.463312106143434 14.797923572888369 8.9479411661624901
v 27.938983926422765 14.71656598486685 9.1379878580570235
v 27.948212130522762 14.728617853029544 8.8316798746585832
v 28.028888766444794 14.756772711500769 8.9316600382328026
v 27.801504293782102 14.815023517102667 9.2391505777835832
v 28.042160855864267 14.771149129834189 9.0448848307132721
v 26.483678450784396 15.070846648005702 9.1265513956546798
v 26.584400014557417 15.065878119145655 9.322451359033586
v 26.383745815760591 15.122404739639114 9.2800593912601457
v 26.198308919215123 15.174963795995847 9.1360942423343658
v 26.802489151171557 15.111816731301559 9.4331004679203048
v 26.050503874725621 15.273471397374472 8.5292522013187408
v 25.841417613940251 15.317405844443376 8.6878810465335832
v 26.079057941806582 15.280186354079966 9.1700862467288964
v 25.964037333186184 15.307260801929697 8.9867610514163978
v 28.21142126656099 14.883802695909445 8.6694865763187394
v 27.976450292890036 14.929845252190974 9.2637248575687394
v 26.520834829313799 15.213864560724858 9.4719600260257728
v 28.368293729395987 14.955718629102144 7.7221431314945228
v 25.720017627387506 15.481978870093268 8.8059764444828019
v 26.746333884600631 15.287076186466415 9.5749873697757728
v 26.102154060089674 15.466155866567359 9.2266597330570228
v 28.208940806345851 15.077118974844275 9.1850413858890541
v 25.848174282568351 15.531097757806771 9.0172954142093644
v 28.534104227980265 15.032123721144956 7.7151668131351485
v 26.557373945258774 15.487839750158424 9.5947581827640533
v 26.793264573849768 15.452469697600186 9.6443996012210853
v 28.623909213028838 15.17856031600234 7.2174525797367082
v 28.174711827375859 15.365754137359584 9.3351756632328033
v 26.77216514797783 15.693696293576402 9.7213893473148367
v 26.531096443199431 15.955457214108723 9.5849666178226478
v 26.933158529792649 15.895444013812558 9.7371379435062408
v 28.105135488039764 15.672458949030457 9.4186000406742103
v 26.748464128030037 15.936188818629457 9.7474650919437416
v 28.346950630769186 15.643102611705398 9.2398280680179603
v 28.217396062512137 15.892008010814727 9.3287410318851478
v 26.831279453385122 16.193708440390882 9.7329799234867096
v 28.399721790806666 15.899326628461374 9.2275554239749908
v 28.312079269065975 16.062009497840052 9.2472682535648332
v 26.776066910901648 16.42201954449412 9.7024501383304589
v 26.949352905905897 16.48918017889617 9.6854228556156166
v 26.813813944455291 16.758112851401513 9.6462092936038992
v 28.693240191101353 16.478531842631142 8.8746684610843651
v 28.649740320751562 16.631305769071211 8.9448253214359283
v 28.809528041213383 16.69659524981865 8.7294734537601464
v 26.804342174827468 17.199156114570574 9.5122127115726478
v 28.805747568625719 16.900849816074363 8.7473033487796776
v 27.217423616304899 17.206740498910385 9.4180263102054589
v 27.627577768842031 17.130936492906514 9.2747691690921776
v 28.876153052680138 16.911448275348263 8.6386363565921798
v 26.565164687698797 17.37407008631266 9.4339259684085839
v 28.691155817387084 16.96874990735968 8.7609691202640541
v 26.738933716175012 17.385511325550667 9.4622645914554617
v 27.741911870661284 17.197444837999026 9.1607966959476457
v 28.934913891539708 17.032700544230277 8.4995173990726478
v 29.100358814108262 17.028735674855326 8.0905284464359291
v 29.053295663108145 17.03824963937376 8.2185100138187401
v 26.680864198144008 17.517593121115226 9.3886226236820214
v 17.760834264717971 19.319255310458384 -0.36897854208946335
v 17.631133061627338 19.433906709812454 -0.34174541831016647
v 29.409808087253509 17.186482057750304 -8.966584724187852
v 29.228095733663679 17.250312284492839 -9.1559218347072608
v 29.452355279508396 17.277524867044143 -9.2381643235683448
v 29.691593816528666 17.266641068728571 -8.9703875005245219
v 17.591960165759247 19.602619452794276 -0.21641125082969737
v 29.712209399443623 17.289988214824817 -8.7213622510433204
v 29.087663218222986 17.479212165467892 -9.3942927062511448
v 28.708191927615758 17.624249249772888 -9.4481395423412327
v 17.47301743572541 19.873432332726278 -0.23686794638633835
v 29.792572028196957 17.541394756798248 -9.2536972939968116
v 29.86223448374102 17.55176357745097 -8.9203076779842387
v 29.513347745190174 17.664440386451236 -9.5196323096752167
v 29.216021980774741 17.808935536754635 -9.5397906005382538
v 15.696365623175296 20.527418900731575 -4.6455105245113373
v 15.633098475903694 20.572056874985048 -4.5174766957759864
v 15.627304125530628 20.596835444419497 -4.1823315083980566
v 15.550842325895843 20.634158799957099 -4.6976078450679779
v 15.534572327449951 20.664893646965986 -4.4208576619625095
v 17.271314323977066 20.354888006165886 -0.37793697714805674
v 29.998880918559848 17.959805202437153 -9.0807424962520606
v 15.491195961285229 20.820180941847962 -4.9166786611080173
v 15.523519337533543 20.821664126389212 -4.2632805287837989
v 29.849623400630406 18.11280786002731 -9.4465421378612522
v 19.818927732149717 20.122487433239421 -9.6078590929508216
v 29.337211028679889 18.3651310489421 -9.5829592525959022
v 19.453019855702621 20.269260090821156 -9.6341149389743812
v 15.698310780511406 21.013460907835729 -8.7301986157894138
v 26.128430021970644 19.026500687076858 8.4607890665531151
v 16.853689142524615 20.800975598512828 -9.3866871535778049
v 17.119380240255907 20.76321541637224 -9.5135019719600677
v 15.680519454057702 21.068015984994684 -8.8799463689327247
v 15.877155472741919 21.086337048864014 -9.2187570512294776
v 15.567245586114893 21.148266208942101 -8.9479791104793556
v 19.719462919848752 20.369953526938026 -9.7308204978704467
v 17.505891906673867 20.813510104544591 -9.6173898756504066
v 29.696675231821104 18.488928191765865 6.3033061563968644
v 26.1172435598927 19.202097882017597 8.3433665812015541
v 29.528754732480849 18.567839850615165 6.4407863199710853
v 25.937553811049497 19.257439241437869 8.3213664591312408
v 19.432452383486037 20.523517806316825 -9.7474650919437416
v 16.961157428447734 21.009165833553805 -9.6217797577381141
v 16.598863750941064 21.098577606996027 -9.5631735026836395
v 17.285243305407477 20.969868518538473 -9.6586154282093055
v 15.645614839304898 21.316551518270266 -9.2500286042690281
v 30.632318634518811 18.45499622176456 4.0940837442874916
v 30.583054964647658 18.464855761442184 4.3958293497562408
v 25.887633292515886 19.369665958141763 8.1661143839359269
v 15.428340985622697 21.380552452109018 -9.0279148995876319
v 15.499104352235605 21.433422578456042 -3.9197193562984474
v 29.210764543589477 18.81807235802049 6.3626887857913985
v 27.590135599542748 19.139698640858427 7.2323817789554603
v 17.762214335679573 21.025381024382821 -9.6955047488212589
v 17.039527121587213 21.169864565068362 -0.55435757040977585
v 26.777087997695645 19.31154667270733 7.6518703043460832
v 26.204000633373738 19.424850394649987 7.8784633219242082
v 16.131931148596436 21.393411025721814 -9.4871626794338226
v 26.050052796461273 19.497375236384386 7.8566722452640541
v 30.07362120794042 18.728051032280259 5.5236720621585853
v 27.340314353273101 19.263997759486578 7.254427677392961
v 30.698069931648519 18.641934857337816 4.1642467081546783
v 15.443601002608091 21.577312484813874 -9.2100070893764503
v 26.162370586635319 19.537985379231909 7.7027858316898339
v 30.662138010865618 18.706589219016454 4.4007548868656166
v 17.0704053876442 21.326351699734936 -0.5137463033199321
v 15.402385306006465 21.667266366636575 -8.9726047933101665
v 25.085534149217239 19.830586732414766 7.5964259684085853
v 15.697035900747977 21.633758268380838 -9.3576745450496688
v 30.449416748482406 18.823983889800846 4.7451030313968658
v 25.300332377995431 19.809916073769045 7.6080791056156158
v 30.369425422200464 18.907052375582026 -8.6756275594234467
v 24.951635755714335 19.944630677726572 7.4330379068851471
v 30.69910883347606 18.845752274683683 4.2304973185062416
v 24.465780483222659 20.06331176338287 6.9884227335453026
v 25.141104812076776 19.937951638410134 7.4395686686038971
v 24.976063672455894 20.038428310648062 7.2861400187015519
v 15.569573520355107 21.841298107802615 -9.315715879201889
v 15.427079748180233 21.875706675253799 -9.140463346242905
v 24.424628580125727 20.184457093618128 6.9194835245609276
v 17.764516105416305 21.473925667283062 -9.7388850033283241
v 30.415009355532987 19.07912613389324 -8.6100088536739356
v 24.549735316960778 20.249295246008124 6.9063411295413957
v 20.016412464367846 21.1343134119921 -9.7301976293325438
v 24.411984711267792 20.318539888640853 6.7691966593265533
v 30.34828327283779 19.189879740054451 -9.217821258306504
v 24.241690540686733 20.359390715262197 6.6555644571781158
v 17.142066574181996 21.769035261454022 -9.6774356007575992
v 30.312917349955171 19.263522398735972 -9.371753162145616
v 17.001981565199259 21.837362252526439 -0.57142300009727443
v 15.512087041971427 22.143656978271274 -9.2936353147029891
v 22.221275011184389 20.97135525662517 4.7461528360843666
v 15.982661277794335 22.179892483813983 -9.4057159364223484
v 30.222746485035998 19.562953577626693 -9.4730274379253387
v 22.381396349528103 21.077585406201909 4.8507609903812412
v 22.497609777716548 21.081946199085031 4.9490962564945224
v 15.618029587530515 22.414520627241519 -9.2995570600032806
v 22.234231095448052 21.177235347516856 4.6834865152835849
v 22.436790675889938 21.204958115541224 4.8268626749515526
v 30.382034669108435 19.687479788929938 -9.32657284140587
v 22.288866013144229 21.343935950401725 4.6017451822757724
v 22.175858640161266 21.455315763157966 4.4223613321781166
v 30.874531995930681 19.845653906220637 1.8193011820316318
v 15.820243766746131 22.801221723545886 -9.2596189916133884
v 30.887567871385244 19.942669117140277 2.4967227518558506
v 15.554235664409532 22.87618079050171 -9.1439800202846531
v 30.672856268394696 20.069787161468877 2.6224231302738197
v 30.847639212512092 20.092533712144643 2.3502383768558506
v 30.34996505654928 20.196171743295839 -9.3614266812801361
v 30.690833108822204 20.13957690215317 -8.1219421803951271
v 15.422389418633031 23.069908486154389 -3.4616520345211033
v 16.943020014778313 22.84801445276063 -0.8624958455562588
v 30.528614718979611 20.250990999516127 -9.1875003755092628
v 30.648865321846273 20.232855346775626 2.2980037271976474
v 30.68117945286329 20.234659700116747 -8.3974467694759376
v 30.655907782468518 20.282628809679927 -8.7359921872615818
v 15.79766306759916 23.199100564829582 -9.1563539445400242
v 29.875116422691832 20.50665435004208 -9.4797120988368988
v 30.613511184138218 20.442615312290908 -9.0003775537014015
v 15.594130941363233 23.323397325283239 -9.041966670751572
v 30.745311023576534 20.558810463202327 -8.0471979558467872
v 15.515498708589291 23.486421729147825 -3.0399998128414154
v 30.737608207863985 20.630962025904005 -8.4511952817440044
v 15.543478260684054 23.553772118767153 -8.8905976712703705
v 15.612697936135731 23.618294326309091 -2.5954143941402439
v 15.78932937851954 23.643244489650339 -2.3083675801753998
v 15.558463951470486 23.701973240668767 -2.8713688313961034
v 30.785779645065247 20.795674636924886 -7.7539938390254974
v 30.701223646398375 20.813531392521632 -8.790494674444199
v 15.847238260552388 23.705703108354861 -9.0342955529689792
v 16.101306062866541 23.697620225700405 -1.8914509236812593
v 15.616271414331436 23.794066387887046 -2.6242367208004005
v 15.625283937020555 23.81836983623819 -8.9113371312618259
v 19.581225773020464 23.122745006106427 1.1931903421878811
v 15.829395989962734 23.869476368357621 -2.2408024251461036
v 16.017057762730417 23.888478714771558 -2.0698177754879001
v 15.717655439777957 23.956007834917816 -2.4877659261226661
v 19.727374973140741 23.204357763229247 1.1810634195804592
v 16.078504386334373 24.011544396522503 -2.0909000813961036
v 15.97052591327801 24.045669166158572 -2.2329143941402441
v 15.740775204647775 24.108966103693362 -8.8426219403743751
v 28.918307152153915 21.630414944048482 1.007339817285537
v 15.632410757447531 24.248381399953715 -8.6125658452510834
v 28.624280724688219 21.766137535818633 0.90770450234413147
v 30.72775353001893 21.493184150657783 -8.82345604300499
v 16.172008379780976 24.309409380715206 -8.8894860684871677
v 27.733635276312953 22.110383969785193 -9.6107588589191444
v 30.542984491188435 21.64449112215792 -8.947287696599961
v 15.82030926075015 24.464409363433816 -8.6276190221309665
v 15.630023118434451 24.517334692027244 -8.3953486859798439
v 28.544669061034028 22.106565071060519 -9.5075057446956635
v 30.804269169672182 21.69631457178123 -8.6548911511898048
v 15.596032653938551 24.649291640467272 -7.774414294958115
v 15.666548251895961 24.705369596408033 -8.059840053319931
v 15.621760409157531 24.863498767427828 -3.5581367909908295
v 30.375595393901165 22.046561927780417 -8.9311438024044048
v 17.985926243813907 24.427037278619903 -9.3319193780422225
v 30.872120749020752 21.971013964116082 -8.4110634267330173
v 27.25767500416822 22.724419264326425 -9.5689789950847626
v 30.952555662467262 22.062786325007291 -5.9417503774166107
v 30.937808898273346 22.082724471021816 -5.7592350423336036
v 15.655360766313407 25.00882935830461 -3.516932338476181
v 15.896006828778894 24.973400523072769 -3.103857082128525
v 30.731913539285557 22.156841393200903 -8.6574511945247661
v 30.880850756727853 22.162217080749272 -5.7368534505367288
v 30.914282182576471 22.175067236382986 -6.8318922460079197
v 30.839679447807612 22.21725215176409 -8.2572775304317485
v 28.549274242569311 22.678817159617878 -9.3220130860805526
v 30.346522128895828 22.349474790609861 -8.755548518896104
v 18.617676800037799 24.593478423751094 -9.3990789592266086
v 27.557081187494958 22.906872276301577 -9.549848884344101
v 28.188712352292697 22.786204130356193 -9.4046698749065403
v 15.667319684256796 25.277483754149223 -3.7408131062984467
v 27.123093605360452 23.098793244611297 -9.5093236863613129
v 15.679140383338989 25.292599235418873 -3.9765705525875097
v 15.740064200752073 25.324249001098533 -3.6039787709712989
v 19.857563963827431 24.551846203086789 -9.4562278926372532
v 27.304670960262484 23.138483615754737 -9.4454692542552952
v 30.186559125595409 22.621763860327071 -5.8499653279781345
v 30.625924065613816 22.544702002491729 -8.4460841596126564
v 30.043977009838301 22.677904751000572 -5.7196545064449316
v 30.370053512357231 22.637103790658543 -8.5201578557491313
v 16.791776286840047 25.238416374040241 -8.5812108457088474
v 15.758281161092725 25.456082075755798 -3.8505127370357517
v 15.869921118823555 25.478115409725437 -3.6884861409664156
v 18.528348065301145 24.98304076710334 -9.2975364625453949
v 15.800137158559835 25.514053676016836 -4.1964847981929783
v 30.445247404355769 22.715922859976473 -8.2945065915584575
v 29.930839984832346 22.842680892100869 -6.1190056264400488
v 30.396641850012401 22.795699312933593 -8.0937670171260834
v 29.914975385622654 22.899483068621876 -6.3657898366451269
v 23.349008513956051 24.160137924343573 -1.0507366597652439
v 15.952128820430715 25.577940514756374 -3.9518734395504005
v 29.975502724633714 22.909034477395412 -6.7738193929195409
v 19.005278230500068 25.024698765389935 -9.3082295358181
v 29.814972605855985 22.977544157712412 -6.5352577626705175
v 16.785709513129746 25.471664898234142 -8.3878742635250099
v 24.832052665901841 23.944315043455624 -1.4827122151851651
v 20.929149294508079 24.699068259048776 -0.77957424521446228
v 17.14503269619081 25.435256956053458 -8.5948364675045017
v 20.94146650731733 24.740229949466627 -0.95189098715782272
v 20.588486294835235 24.822074831011648 -1.2564770162105567
v 19.795880328377109 24.985454033498424 -9.3476311624050155
v 16.600547177317594 25.602619871005725 -8.0936716496944427
v 16.087210322338905 25.740272823733001 -5.2428383290767675
v 16.15636566481075 25.729012554509232 -4.9679657399654396
v 25.934247181826692 23.863089555778657 -2.0647068440914156
v 20.290528000764397 24.950677384167779 -9.3398617208003998
v 25.786594244467125 23.913013799809761 -2.0292629659175878
v 17.979616280608099 25.408886238769245 -3.4562992513179784
v 16.151631569343095 25.759739377999246 -5.8918732106685638
v 18.940551888718147 25.239379856312897 -9.0743409574031837
v 18.367939698457548 25.362311694913437 -3.3064922749996191
v 25.7097103231701 23.96544617386964 -2.4375667989254
v 25.78818528063249 23.95705084585336 -2.5644855916500093
v 19.486543452672066 25.163157954044884 -9.1648506104946144
v 16.903504172344526 25.659290885636999 -8.2564608991146091
v 16.224166749745137 25.81361643094003 -6.1273476064205177
v 22.43231340463231 24.630891513817254 -2.4028080403804779
v 23.615852903228358 24.408318419722846 -3.064875453710556
v 16.545608186942019 25.772928903624404 -7.7435003697872169
v 17.552261275602717 25.586896736593609 -8.5305111348629001
v 16.306602377780791 25.862692395844338 -5.9078175008296974
v 16.383098838633089 25.849514672089473 -7.02544636130333
v 19.637851857388625 25.242309409294116 -9.0183453500270847
v 16.754230337593185 25.796279323082963 -7.9925344884395608
v 17.214151730332873 25.713617559967908 -8.3177195966243751
v 22.136609005853842 24.800728314960161 -8.7847786366939555
v 16.395125164125744 25.913333442310776 -6.6307056844234467
v 16.430310904434009 25.911811665483995 -6.3100593984127045
v 20.531153920960037 25.153650840087323 -9.0951072156429298
v 16.527053576462379 25.924979609464266 -6.8659532964229584
v 16.509521046293145 25.930457377665338 -6.5629352986812597
v 16.86808772654328 25.874945675892825 -7.8891830861568462
v 16.721129298077415 25.907877545407384 -7.7526466786861423
vn -0.14077052474021912 -0.9898332953453064 0.020338721573352814
vn -0.1002342477440834 -0.83925241231918335 0.53442353010177612
vn -0.2686593234539032 -0.95536202192306519 -0.12290454655885696
vn 0.34094265103340149 -0.84423017501831055 0.41356196999549866
vn 0.22479414939880371 -0.97170555591583252 -0.072497904300689697
vn 0.44369515776634216 -0.89617443084716797 -0.0024597959127277136
vn 0.061616890132427216 -0.56811678409576416 0.82063794136047363
vn 0.68725740909576416 -0.7025531530380249 0.18465203046798706
vn -0.30004337430000305 -0.95390892028808594 0.0056357220746576786
vn -0.24956421554088593 -0.88223481178283691 0.39922359585762024
vn -0.42157772183418274 -0.81870293617248535 0.38986882567405701
vn -0.48834413290023804 -0.85040295124053955 0.19579297304153442
vn -0.11044758558273315 -0.70185917615890503 0.7037009596824646
vn -0.28702113032341003 -0.94923418760299683 -0.12873737514019012
vn -0.44311964511871338 -0.89612960815429688 0.024426963180303574
vn -0.65937823057174683 -0.49236372113227844 0.56815338134765625
vn -0.62754267454147339 -0.73266923427581787 0.26341214776039124
vn 0.8086664080619812 -0.55616754293441772 0.19166718423366547
vn 0.30187499523162842 -0.39091697335243225 0.86951446533203125
vn -0.34921705722808838 -0.57249850034713745 0.74181729555130005
vn 0.34101533889770508 -0.93666177988052368 -0.0798330157995224
vn -0.75248408317565918 -0.45113047957420349 0.47984263300895691
vn -0.12190199643373489 -0.48528268933296204 0.86581790447235107
vn -0.63480901718139648 -0.082445390522480011 0.76825797557830811
vn 0.82583534717559814 -0.39444097876548767 0.40300413966178894
vn -0.73364752531051636 -0.094961300492286682 0.67286229133605957
vn 0.75534236431121826 -0.65109521150588989 0.074383944272994995
vn -0.4592316746711731 -0.20386658608913422 0.86460667848587036
vn -0.015224496833980083 -0.34869542717933655 0.93711245059967041
vn 0.8385046124458313 -0.54475975036621094 -0.012116997502744198
vn 0.42108157277107239 -0.2372930645942688 0.87543267011642456
vn -0.0042218840681016445 -0.22816397249698639 0.97361356019973755
vn -0.62642323970794678 0.030448539182543755 0.77888822555541992
vn 0.16712073981761932 -0.060753267258405685 0.98406285047531128
vn 0.42513671517372131 0.00094371475279331207 0.90512865781784058
vn -0.3281770646572113 0.012697079218924046 0.9445309042930603
vn 0.78488701581954956 -0.16893185675144196 0.59616643190383911
vn 0.39997601509094238 0.18296805024147034 0.89807677268981934
vn 0.041316725313663483 0.089926272630691528 0.9950910210609436
vn 0.63890993595123291 0.024281611666083336 0.76889818906784058
vn 0.43763872981071472 0.1918422132730484 0.87844687700271606
vn -0.19308748841285706 0.14454476535320282 0.97047621011734009
vn 0.21517267823219299 0.16176484525203705 0.96308505535125732
vn 0.016414210200309753 0.24679449200630188 0.96892881393432617
vn 0.84300333261489868 -0.10180031508207321 0.52818751335144043
vn 0.65011650323867798 0.10860954225063324 0.75203227996826172
vn 0.88261586427688599 -0.13425324857234955 0.45051676034927368
vn 0.17228412628173828 0.30023500323295593 0.93817752599716187
vn 0.61176121234893799 0.41119596362113953 0.67577075958251953
vn 0.29240491986274719 0.38225781917572021 0.8765718936920166
vn 0.39787009358406067 0.39467981457710266 0.82820725440979004
vn 0.89726412296295166 -0.014382528141140938 0.44125977158546448
vn -0.48790717124938965 0.21899589896202087 0.8449777364730835
vn 0.43679854273796082 0.61436712741851807 0.65708452463150024
vn 0.050160367041826248 0.37963157892227173 0.92377692461013794
vn 0.41523072123527527 0.57995712757110596 0.70088028907775879
vn 0.82035982608795166 0.2697068452835083 0.5042499303817749
vn 0.92944246530532837 -0.1815740168094635 0.32119706273078918
vn 0.9272199273109436 -0.058145768940448761 0.36997613310813904
vn 0.060317322611808777 0.52563917636871338 0.84856659173965454
vn -0.55619555711746216 -0.82859933376312256 0.063793569803237915
vn -0.71029180288314819 -0.63913542032241821 0.2949431836605072
vn 0.09541860967874527 -0.97770637273788452 -0.18704408407211304
vn -0.20128615200519562 -0.92693793773651123 -0.31665423512458801
vn 0.18961142003536224 -0.79729545116424561 -0.57303357124328613
vn 0.64473849534988403 -0.74776250123977661 -0.15863025188446045
vn -0.80855089426040649 -0.38605675101280212 0.44407841563224792
vn 0.85036361217498779 -0.52591657638549805 -0.01713230274617672
vn -0.11884017288684845 -0.67889851331710815 -0.72455078363418579
vn -0.13254360854625702 -0.57207012176513672 -0.80942445993423462
vn -0.84705281257629395 -0.26981893181800842 0.4579293429851532
vn 0.74600023031234741 -0.45480132102966309 -0.48645594716072083
vn 0.89958071708679199 -0.42934569716453552 -0.080105282366275787
vn 0.16437268257141113 -0.31795457005500793 -0.93374866247177124
vn -0.0074556577019393444 -0.12947559356689453 -0.99155455827713013
vn -0.48281249403953552 -0.87387436628341675 -0.056882631033658981
vn -0.59375590085983276 -0.80417895317077637 0.027388609945774078
vn -0.78960293531417847 -0.58057326078414917 0.19865028560161591
vn -0.75389081239700317 -0.65631115436553955 -0.030071770772337914
vn -0.91416805982589722 -0.39585462212562561 0.087154395878314972
vn -0.85882222652435303 -0.18057127296924591 0.47939381003379822
vn 0.92004072666168213 -0.31950616836547852 -0.2268056720495224
vn -0.98857688903808594 -0.14990732073783875 0.015604943037033081
vn -0.94329845905303955 -0.22046855092048645 0.24815650284290314
vn 0.55986392498016357 -0.21319067478179932 -0.80068850517272949
vn -0.15406551957130432 -0.57122188806533813 -0.80620676279067993
vn 0.065936043858528137 -0.025248100981116295 -0.99750435352325439
vn -0.14574022591114044 -0.50577563047409058 -0.85026514530181885
vn -0.38415119051933289 -0.90723305940628052 -0.17133621871471405
vn 0.078986078500747681 0.54850935935974121 0.83240538835525513
vn -0.29180040955543518 -0.91523885726928711 -0.27783152461051941
vn -0.23276317119598389 -0.69598442316055298 -0.67928415536880493
vn -0.42318463325500488 -0.86310273408889771 -0.27562364935874939
vn -0.40369445085525513 -0.7774696946144104 -0.48225685954093933
vn -0.61984294652938843 -0.72718542814254761 -0.29495087265968323
vn -0.093905456364154816 -0.3557535707950592 -0.92985010147094727
vn -0.14940972626209259 -0.47158044576644897 -0.86907345056533813
vn 0.72594982385635376 0.45403310656547546 0.51657605171203613
vn 0.33805102109909058 0.69898712635040283 0.63018929958343506
vn 0.54898780584335327 0.64528119564056396 0.53124809265136719
vn -0.043387927114963531 0.64813351631164551 0.76028972864151001
vn -0.025697100907564163 -0.08511420339345932 -0.9960397481918335
vn -0.16949279606342316 -0.27165156602859497 -0.94735294580459595
vn -0.28859713673591614 -0.35193401575088501 -0.89042359590530396
vn -0.10692605376243591 -0.23865196108818054 -0.96520054340362549
vn -0.5208282470703125 -0.43768793344497681 -0.73291689157485962
vn 0.90177476406097412 -0.43092232942581177 0.033289626240730286
vn 0.91715294122695923 -0.34464359283447266 0.20012810826301575
vn 0.17919999361038208 0.83964639902114868 0.51271951198577881
vn -0.90508365631103516 -0.35996159911155701 -0.22638735175132751
vn -0.96240353584289551 -0.13972531259059906 0.23292967677116394
vn 0.43397176265716553 0.75685042142868042 0.48871871829032898
vn 0.42360353469848633 0.74547463655471802 0.5146140456199646
vn -0.063094891607761383 -0.10050727427005768 -0.99293369054794312
vn -0.80828565359115601 -0.062653824687004089 0.58544754981994629
vn 0.37334561347961426 0.80584025382995605 0.45960253477096558
vn 0.33376744389533997 0.82541251182556152 0.45529493689537048
vn -0.28015527129173279 -0.081015177071094513 -0.95652997493743896
vn 0.25884437561035156 0.85232245922088623 0.45447331666946411
vn 0.73523795604705811 0.49687618017196655 0.46101969480514526
vn 0.39338502287864685 0.80085068941116333 0.45153781771659851
vn 0.97469997406005859 -0.21557353436946869 0.059059623628854752
vn -0.79149335622787476 -0.13595858216285706 -0.5958636999130249
vn 0.28706955909729004 0.86580961942672729 0.4098351001739502
vn 0.93996816873550415 -0.033095359802246094 0.33965358138084412
vn -0.74430215358734131 -0.02522473968565464 0.66736644506454468
vn -0.99843096733093262 0.002297430532053113 -0.055949680507183075
vn -0.34616857767105103 0.56433707475662231 0.74946045875549316
vn -0.38309115171432495 -0.10912401229143143 -0.91724210977554321
vn 0.81044220924377441 0.4024619460105896 0.42568516731262207
vn 0.11663206666707993 0.83794748783111572 0.53314250707626343
vn 0.95584207773208618 -0.28018379211425781 -0.088673286139965057
vn -0.19662442803382874 0.75072956085205078 0.63066947460174561
vn 0.9422803521156311 0.18198402225971222 0.28105080127716064
vn -0.65898370742797852 0.17020593583583832 0.73264616727828979
vn 0.15294520556926727 0.87076354026794434 0.46730998158454895
vn 0.010990777052938938 0.86016470193862915 0.50989788770675659
vn -0.4544125497341156 -0.052191603928804398 -0.88926106691360474
vn -0.96847951412200928 0.056043665856122971 -0.24270676076412201
vn -0.55886256694793701 0.38729077577590942 0.73326563835144043
vn -0.041535306721925735 0.0069749359972774982 -0.99911266565322876
vn 0.97171086072921753 -0.22458416223526001 -0.073074877262115479
vn -0.13124857842922211 0.81582754850387573 0.56320440769195557
vn 0.010267137549817562 0.02622373029589653 -0.99960339069366455
vn -0.1676994264125824 0.80667728185653687 0.56669974327087402
vn 0.94543874263763428 -0.20958012342453003 -0.24944296479225159
vn -0.28735411167144775 0.72045618295669556 0.63116598129272461
vn -0.1339670717716217 0.06926313042640686 -0.98856228590011597
vn 0.81416428089141846 -0.18659622967243195 -0.54983484745025635
vn -0.75609749555587769 0.048624582588672638 0.65265011787414551
vn -0.59501582384109497 0.072955377399921417 -0.80039596557617188
vn -0.67152267694473267 0.17962493002414703 0.71888256072998047
vn -0.20226626098155975 0.1096872091293335 -0.97316855192184448
vn 0.4106566309928894 -0.029976967722177505 -0.91129714250564575
vn -0.63362455368041992 0.26256874203681946 0.72772079706192017
vn -0.58708089590072632 0.36045417189598083 0.72485089302062988
vn -0.31193569302558899 0.19564065337181091 -0.92974233627319336
vn -0.60381203889846802 0.35896366834640503 0.7117275595664978
vn -0.47524553537368774 0.54648017883300781 0.68956583738327026
vn 0.72553187608718872 -0.030479002743959427 -0.68751335144042969
vn -0.36509710550308228 0.66782975196838379 0.64861971139907837
vn -0.31719416379928589 0.71026957035064697 0.62841469049453735
vn 0.99178338050842285 -0.1270802766084671 -0.014708575792610645
vn -0.21265119314193726 0.2188560962677002 -0.95230323076248169
vn 0.94575458765029907 0.25914326310157776 0.1959412693977356
vn -0.71629279851913452 0.20080283284187317 -0.66828352212905884
vn 0.46322831511497498 0.78095608949661255 0.41895958781242371
vn 0.69682502746582031 0.65584069490432739 0.2903582751750946
vn 0.54645276069641113 0.10835032165050507 -0.83045142889022827
vn 0.98401647806167603 -0.16915777325630188 -0.055652149021625519
vn -0.99633818864822388 0.023518748581409454 0.082201622426509857
vn -0.69102019071578979 0.16548793017864227 0.70363682508468628
vn 0.8600347638130188 -0.054067615419626236 -0.50736266374588013
vn 0.48335239291191101 0.82878792285919189 0.28192377090454102
vn 0.98179531097412109 -0.16506099700927734 -0.093983374536037445
vn 0.97449064254760742 -0.16646577417850494 -0.15052288770675659
vn -0.27777549624443054 0.24268828332424164 -0.92948544025421143
vn 0.21252688765525818 0.11545725166797638 -0.97031021118164063
vn 0.95018690824508667 -0.093726880848407745 -0.29725423455238342
vn -0.46699526906013489 0.24484652280807495 -0.84968560934066772
vn 0.99184447526931763 -0.12110282480716705 -0.039732769131660461
vn -0.98536336421966553 0.067666508257389069 0.15646187961101532
vn 0.98875641822814941 -0.12000259011983871 -0.089219540357589722
vn -0.95064115524291992 0.15630239248275757 -0.26805022358894348
vn -0.92949140071868896 -0.039307709783315659 0.36674332618713379
vn -0.84133052825927734 -0.028472159057855606 0.53977060317993164
vn -0.9810028076171875 0.089990183711051941 0.17185822129249573
vn 0.99333322048187256 -0.11061326414346695 -0.032461982220411301
vn 0.97601187229156494 -0.091376632452011108 -0.19761352241039276
vn -0.28582808375358582 0.29823702573776245 -0.91069036722183228
vn -0.67970377206802368 0.23721539974212646 0.69406890869140625
vn -0.93867182731628418 0.15432865917682648 0.3083469569683075
vn -0.67793011665344238 0.29187747836112976 -0.67469871044158936
vn -0.40604996681213379 0.64737671613693237 0.64500141143798828
vn -0.76870477199554443 0.27495884895324707 0.57748645544052124
vn -0.61488616466522217 0.39501246809959412 0.68255418539047241
vn -0.85437643527984619 0.30101406574249268 0.42359346151351929
vn -0.23685483634471893 0.7782636284828186 0.5815543532371521
vn -0.57214325666427612 0.49238952994346619 0.65589988231658936
vn -0.63574659824371338 0.49512764811515808 0.5921781063079834
vn -0.47577089071273804 0.45545381307601929 -0.75246518850326538
vn 0.38347658514976501 0.86161524057388306 0.33251303434371948
vn -0.8109021782875061 0.35334169864654541 -0.46646255254745483
vn 0.27448806166648865 0.88204216957092285 0.38295939564704895
vn 0.79290395975112915 0.081661462783813477 -0.60384988784790039
vn -0.28176707029342651 0.425834059715271 -0.85980969667434692
vn 0.049767311662435532 0.053759612143039703 -0.99731296300888062
vn 0.55639779567718506 0.19544614851474762 -0.80760282278060913
vn -0.49348953366279602 0.57783281803131104 -0.65005946159362793
vn -0.77550208568572998 0.49033653736114502 -0.3977016806602478
vn 0.23641829192638397 0.2161194384098053 -0.94731134176254272
vn 0.93328350782394409 0.01489216648042202 -0.35883155465126038
vn -0.95105034112930298 0.30320587754249573 -0.059744924306869507
vn -0.79219233989715576 0.58755636215209961 -0.16495083272457123
vn -0.98242110013961792 0.14093987643718719 0.12241233140230179
vn 0.38618874549865723 0.31345438957214355 -0.86752790212631226
vn -0.1828569620847702 0.21242202818393707 -0.95991677045822144
vn 0.98781883716583252 0.037431415170431137 -0.1510390043258667
vn 0.0092918844893574715 0.083223424851894379 -0.99648761749267578
vn 0.9968264102935791 0.079566054046154022 -0.0025242003612220287
vn 0.89927685260772705 0.43166506290435791 0.070472866296768188
vn -0.92048704624176025 0.26155659556388855 0.2903304398059845
vn -0.54133802652359009 0.58170515298843384 0.60710150003433228
vn 0.73433762788772583 0.3166675865650177 -0.6003914475440979
vn 0.6266930103302002 0.76544708013534546 0.14610493183135986
vn 0.88673347234725952 0.46227872371673584 -0.0014769444242119789
vn 0.91964387893676758 0.35497346520423889 -0.16807441413402557
vn 0.32180455327033997 0.41530853509902954 -0.85085874795913696
vn 0.38630029559135437 0.53398603200912476 -0.75208443403244019
vn -0.086173146963119507 0.19823117554187775 -0.97635984420776367
vn 0.12684483826160431 0.30278554558753967 -0.94457995891571045
vn 0.31205415725708008 0.51816481351852417 -0.79632121324539185
vn -0.94940787553787231 0.29642713069915771 0.10370965301990509
vn 0.13056550920009613 0.51207262277603149 -0.84896069765090942
vn -0.91189557313919067 0.40910613536834717 -0.032843362540006638
vn -0.73894417285919189 0.51395106315612793 0.435678631067276
vn -0.0088310781866312027 0.17310154438018799 -0.98486441373825073
vn 0.23192311823368073 0.72462141513824463 -0.64894956350326538
vn 0.5161324143409729 0.83315199613571167 0.19865810871124268
vn 0.66560590267181396 0.6540144681930542 -0.35949116945266724
vn 0.50784033536911011 0.83550035953521729 0.20985086262226105
vn 0.35451653599739075 0.71986621618270874 -0.59675008058547974
vn -0.357362300157547 0.53273934125900269 -0.76712512969970703
vn -0.72230380773544312 0.67757773399353027 0.13844007253646851
vn -0.35837557911872864 0.80333399772644043 0.4756273627281189
vn -0.16317050158977509 0.47548913955688477 -0.86445677280426025
vn -0.7426295280456543 0.66955858469009399 -0.013882319442927837
vn 0.36136788129806519 0.87124472856521606 -0.33218356966972351
vn 0.48334363102912903 0.8541419506072998 0.19188664853572845
vn 0.50742155313491821 0.86072534322738647 -0.040929216891527176
vn 0.49319285154342651 0.85927695035934448 0.13566093146800995
vn 0.24201495945453644 0.88918495178222656 0.38830259442329407
vn -0.20346872508525848 0.96380150318145752 0.17229948937892914
vn 0.51226413249969482 0.85383546352386475 0.092468589544296265
vn -0.035372491925954819 0.50298130512237549 -0.86357313394546509
vn 0.36393919587135315 0.92846667766571045 0.074147731065750122
vn -0.41580212116241455 0.63767248392105103 -0.64844614267349243
vn 0.2446218729019165 0.8902965784072876 0.38409909605979919
vn 0.05007132887840271 0.91296690702438354 0.40494969487190247
vn -0.26021146774291992 0.62161880731582642 -0.73883694410324097
vn 0.13212276995182037 0.97552168369293213 0.17578683793544769
vn 0.033587262034416199 0.9745323657989502 0.22171726822853088
vn 0.022895792499184608 0.56290888786315918 -0.82620173692703247
vn -0.54040950536727905 0.65899598598480225 -0.52314609289169312
vn -0.53430229425430298 0.84525221586227417 0.0083556361496448517
vn -0.01981581375002861 0.98990070819854736 0.14037050306797028
vn 0.39352941513061523 0.89882642030715942 0.19299145042896271
vn 0.089172445237636566 0.49316740036010742 -0.8653520941734314
vn 0.2665545642375946 0.93536347150802612 0.23247329890727997
vn 0.046345468610525131 0.98384463787078857 0.17292138934135437
vn -0.77422100305557251 0.62808209657669067 -0.078069061040878296
vn -0.020428309217095375 0.79247242212295532 -0.60956555604934692
vn 0.098878882825374603 0.9855082631111145 0.13782733678817749
vn 0.21073517203330994 0.97461551427841187 0.075599454343318939
vn 0.22318445146083832 0.97411304712295532 0.035950999706983566
vn 0.024184335023164749 0.79129672050476074 -0.61095386743545532
vn -0.31268540024757385 0.7187950611114502 -0.62093597650527954
vn -0.70717126131057739 0.70289582014083862 -0.076460719108581543
vn 0.18655854463577271 0.97994434833526611 0.070035211741924286
vn 0.19794449210166931 0.97991162538528442 0.024314254522323608
vn -0.63431966304779053 0.69640064239501953 -0.33565562963485718
vn -0.063596047461032867 0.78834325075149536 -0.61193996667861938
vn -0.17736797034740448 0.97992157936096191 0.091073252260684967
vn -0.65688902139663696 0.73669451475143433 -0.16055533289909363
vn 0.040577147156000137 0.87854516506195068 -0.47593265771865845
vn -0.3886585533618927 0.77018797397613525 -0.5057222843170166
vn -0.095071345567703247 0.8518061637878418 -0.51515787839889526
vn 0.23339478671550751 0.97081482410430908 -0.055185362696647644
vn -0.37141567468643188 0.92784607410430908 -0.033942755311727524
vn -0.038722611963748932 0.99520140886306763 0.089859180152416229
vn 0.1611698716878891 0.929931640625 -0.33053195476531982
vn -0.10791169106960297 0.99353688955307007 -0.035207480192184448
vn 0.087745770812034607 0.99574226140975952 0.028249030932784081
vn -0.028302235528826714 0.94798332452774048 -0.31705927848815918
vn -0.21725951135158539 0.96047842502593994 -0.17401003837585449
f 163//163 122//122 170//170
f 225//225 226//226 250//250
f 79//79 95//95 89//89
f 108//108 27//27 107//107
f 108//108 107//107 122//122
f 68//68 73//73 107//107
f 132//132 107//107 73//73
f 132//132 122//122 107//107
f 176//176 132//132 146//146
f 188//188 163//163 170//170
f 227//227 226//226 218//218
f 220//220 163//163 188//188
f 220//220 188//188 218//218
f 220//220 218//218 226//226
f 78//78 61//61 62//62
f 78//78 62//62 67//67
f 22//22 26//26 67//67
f 22//22 67//67 62//62
f 71//71 26//26 81//81
f 71//71 81//81 84//84
f 71//71 84//84 78//78
f 71//71 78//78 67//67
f 71//71 67//67 26//26
f 111//111 84//84 81//81
f 15//15 89//89 14//14
f 15//15 62//62 61//61
f 3//3 64//64 1//1
f 3//3 14//14 89//89
f 3//3 89//89 64//64
f 83//83 84//84 111//111
f 83//83 111//111 171//171
f 69//69 92//92 70//70
f 69//69 70//70 74//74
f 69//69 74//74 65//65
f 69//69 65//65 64//64
f 69//69 64//64 92//92
f 86//86 70//70 92//92
f 86//86 92//92 88//88
f 25//25 27//27 108//108
f 21//21 27//27 6//6
f 244//244 233//233 236//236
f 244//244 236//236 245//245
f 99//99 49//49 100//100
f 51//51 99//99 50//50
f 30//30 68//68 107//107
f 30//30 107//107 27//27
f 66//66 27//27 21//21
f 66//66 73//73 68//68
f 66//66 68//68 30//30
f 66//66 30//30 27//27
f 82//82 146//146 132//132
f 82//82 132//132 73//73
f 125//125 122//122 134//134
f 125//125 58//58 25//25
f 125//125 25//25 108//108
f 125//125 108//108 122//122
f 174//174 202//202 167//167
f 174//174 167//167 168//168
f 174//174 168//168 225//225
f 254//254 250//250 256//256
f 275//275 269//269 256//256
f 175//175 170//170 176//176
f 142//142 132//132 176//176
f 142//142 176//176 170//170
f 142//142 170//170 122//122
f 142//142 122//122 132//132
f 183//183 218//218 188//188
f 183//183 170//170 175//175
f 183//183 175//175 176//176
f 183//183 176//176 189//189
f 183//183 189//189 218//218
f 221//221 225//225 168//168
f 221//221 220//220 226//226
f 221//221 226//226 225//225
f 80//80 79//79 78//78
f 80//80 78//78 84//84
f 80//80 84//84 83//83
f 80//80 83//83 79//79
f 16//16 26//26 22//22
f 16//16 22//22 62//62
f 215//215 233//233 171//171
f 76//76 79//79 89//89
f 76//76 89//89 15//15
f 76//76 15//15 61//61
f 91//91 89//89 94//94
f 91//91 94//94 92//92
f 91//91 92//92 64//64
f 91//91 64//64 89//89
f 93//93 95//95 94//94
f 93//93 94//94 89//89
f 93//93 89//89 95//95
f 154//154 85//85 74//74
f 8//8 6//6 27//27
f 4//4 6//6 8//8
f 4//4 8//8 25//25
f 253//253 245//245 259//259
f 253//253 270//270 266//266
f 253//253 244//244 245//245
f 264//264 210//210 281//281
f 214//214 281//281 210//210
f 288//288 275//275 256//256
f 288//288 256//256 250//250
f 284//284 295//295 281//281
f 284//284 281//281 214//214
f 185//185 171//171 111//111
f 185//185 111//111 81//81
f 261//261 279//279 273//273
f 261//261 259//259 269//269
f 261//261 269//269 279//279
f 198//198 259//259 245//245
f 198//198 245//245 194//194
f 223//223 194//194 245//245
f 223//223 245//245 236//236
f 223//223 200//200 199//199
f 223//223 199//199 194//194
f 137//137 259//259 143//143
f 258//258 124//124 269//269
f 258//258 269//269 259//259
f 204//204 269//269 124//124
f 204//204 124//124 202//202
f 204//204 202//202 269//269
f 121//121 167//167 202//202
f 120//120 168//168 167//167
f 120//120 167//167 100//100
f 44//44 43//43 50//50
f 60//60 55//55 50//50
f 60//60 50//50 99//99
f 56//56 99//99 51//51
f 56//56 51//51 49//49
f 63//63 1//1 64//64
f 63//63 64//64 65//65
f 63//63 65//65 66//66
f 63//63 66//66 21//21
f 72//72 74//74 85//85
f 72//72 82//82 73//73
f 72//72 73//73 66//66
f 72//72 66//66 65//65
f 72//72 65//65 74//74
f 59//59 58//58 125//125
f 59//59 52//52 58//58
f 241//241 249//249 202//202
f 241//241 202//202 174//174
f 241//241 174//174 225//225
f 251//251 254//254 256//256
f 251//251 249//249 225//225
f 251//251 225//225 250//250
f 251//251 250//250 254//254
f 274//274 269//269 275//275
f 274//274 275//275 279//279
f 274//274 279//279 269//269
f 280//280 279//279 275//275
f 212//212 218//218 189//189
f 179//179 212//212 189//189
f 179//179 189//189 176//176
f 179//179 176//176 146//146
f 179//179 146//146 173//173
f 181//181 170//170 183//183
f 181//181 183//183 188//188
f 181//181 188//188 170//170
f 211//211 178//178 207//207
f 211//211 207//207 231//231
f 24//24 26//26 16//16
f 24//24 16//16 28//28
f 17//17 15//15 12//12
f 17//17 12//12 16//16
f 17//17 16//16 62//62
f 17//17 62//62 15//15
f 9//9 1//1 10//10
f 9//9 12//12 15//15
f 9//9 15//15 14//14
f 9//9 14//14 3//3
f 9//9 3//3 1//1
f 77//77 78//78 79//79
f 77//77 79//79 76//76
f 77//77 76//76 61//61
f 77//77 61//61 78//78
f 110//110 95//95 79//79
f 110//110 79//79 83//83
f 169//169 173//173 160//160
f 169//169 160//160 154//154
f 169//169 154//154 178//178
f 87//87 154//154 74//74
f 87//87 102//102 207//207
f 87//87 207//207 178//178
f 87//87 178//178 154//154
f 104//104 92//92 94//94
f 96//96 105//105 102//102
f 96//96 74//74 70//70
f 96//96 70//70 86//86
f 96//96 86//86 88//88
f 34//34 35//35 43//43
f 18//18 25//25 8//8
f 18//18 8//8 27//27
f 18//18 27//27 25//25
f 19//19 4//4 25//25
f 289//289 295//295 284//284
f 283//283 253//253 266//266
f 283//283 266//266 270//270
f 213//213 271//271 214//214
f 213//213 214//214 210//210
f 213//213 171//171 233//233
f 291//291 275//275 288//288
f 291//291 288//288 250//250
f 291//291 294//294 295//295
f 286//286 264//264 281//281
f 286//286 281//281 295//295
f 286//286 295//295 294//294
f 286//286 277//277 257//257
f 286//286 257//257 264//264
f 150//150 26//26 152//152
f 192//192 215//215 187//187
f 192//192 187//187 185//185
f 262//262 270//270 253//253
f 262//262 253//253 259//259
f 262//262 259//259 261//261
f 262//262 261//261 273//273
f 262//262 273//273 270//270
f 136//136 124//124 258//258
f 136//136 259//259 137//137
f 116//116 121//121 202//202
f 116//116 202//202 124//124
f 98//98 120//120 100//100
f 130//130 120//120 125//125
f 130//130 125//125 134//134
f 40//40 35//35 37//37
f 45//45 40//40 37//37
f 47//47 58//58 52//52
f 47//47 52//52 49//49
f 47//47 45//45 37//37
f 47//47 37//37 25//25
f 47//47 25//25 58//58
f 48//48 55//55 44//44
f 48//48 44//44 50//50
f 48//48 50//50 55//55
f 33//33 26//26 24//24
f 33//33 24//24 28//28
f 90//90 101//101 60//60
f 90//90 60//60 99//99
f 90//90 99//99 101//101
f 54//54 99//99 56//56
f 54//54 56//56 49//49
f 54//54 49//49 99//99
f 5//5 1//1 63//63
f 5//5 63//63 21//21
f 5//5 21//21 6//6
f 5//5 6//6 4//4
f 5//5 4//4 1//1
f 149//149 146//146 82//82
f 149//149 82//82 72//72
f 149//149 72//72 85//85
f 149//149 85//85 154//154
f 149//149 154//154 160//160
f 149//149 160//160 173//173
f 149//149 173//173 146//146
f 239//239 249//249 241//241
f 239//239 241//241 225//225
f 239//239 225//225 249//249
f 267//267 269//269 202//202
f 267//267 202//202 249//249
f 267//267 249//249 251//251
f 267//267 251//251 256//256
f 267//267 256//256 269//269
f 240//240 229//229 242//242
f 240//240 250//250 226//226
f 240//240 226//226 227//227
f 232//232 242//242 229//229
f 232//232 211//211 231//231
f 182//182 185//185 187//187
f 182//182 187//187 215//215
f 182//182 215//215 171//171
f 182//182 171//171 185//185
f 11//11 12//12 9//9
f 11//11 9//9 10//10
f 11//11 16//16 12//12
f 144//144 102//102 141//141
f 144//144 141//141 207//207
f 144//144 207//207 102//102
f 114//114 105//105 141//141
f 114//114 141//141 102//102
f 114//114 102//102 105//105
f 219//219 207//207 141//141
f 219//219 231//231 207//207
f 260//260 257//257 277//277
f 127//127 171//171 213//213
f 127//127 123//123 110//110
f 127//127 110//110 83//83
f 127//127 83//83 171//171
f 139//139 123//123 127//127
f 216//216 169//169 178//178
f 216//216 178//178 211//211
f 75//75 102//102 87//87
f 75//75 87//87 74//74
f 75//75 74//74 96//96
f 75//75 96//96 102//102
f 106//106 104//104 94//94
f 106//106 94//94 95//95
f 106//106 95//95 110//110
f 106//106 110//110 123//123
f 103//103 92//92 104//104
f 103//103 141//141 105//105
f 148//148 141//141 103//103
f 148//148 103//103 104//104
f 97//97 105//105 96//96
f 97//97 96//96 88//88
f 97//97 88//88 92//92
f 97//97 92//92 103//103
f 97//97 103//103 105//105
f 36//36 33//33 28//28
f 20//20 10//10 13//13
f 20//20 28//28 16//16
f 20//20 16//16 11//11
f 20//20 11//11 10//10
f 2//2 13//13 10//10
f 2//2 10//10 1//1
f 2//2 1//1 4//4
f 31//31 19//19 25//25
f 31//31 25//25 37//37
f 31//31 37//37 35//35
f 31//31 35//35 34//34
f 290//290 289//289 283//283
f 290//290 283//283 270//270
f 290//290 270//270 273//273
f 265//265 253//253 283//283
f 265//265 283//283 289//289
f 235//235 213//213 233//233
f 235//235 233//233 244//244
f 238//238 242//242 232//232
f 238//238 232//232 231//231
f 287//287 282//282 260//260
f 287//287 260//260 277//277
f 287//287 277//277 286//286
f 287//287 286//286 294//294
f 287//287 294//294 291//291
f 287//287 291//291 285//285
f 287//287 285//285 282//282
f 115//115 185//185 81//81
f 115//115 81//81 26//26
f 222//222 233//233 215//215
f 222//222 215//215 192//192
f 222//222 192//192 197//197
f 222//222 197//197 236//236
f 222//222 236//236 233//233
f 195//195 150//150 191//191
f 195//195 199//199 200//200
f 195//195 200//200 223//223
f 195//195 223//223 236//236
f 195//195 236//236 197//197
f 195//195 197//197 192//192
f 195//195 192//192 185//185
f 172//172 152//152 191//191
f 172//172 191//191 150//150
f 172//172 150//150 152//152
f 196//196 199//199 195//195
f 196//196 195//195 191//191
f 252//252 259//259 136//136
f 252//252 136//136 258//258
f 252//252 258//258 259//259
f 109//109 101//101 99//99
f 131//131 101//101 109//109
f 117//117 99//99 116//116
f 117//117 116//116 124//124
f 112//112 100//100 167//167
f 112//112 167//167 121//121
f 112//112 99//99 100//100
f 57//57 120//120 98//98
f 57//57 98//98 100//100
f 57//57 100//100 49//49
f 57//57 49//49 52//52
f 57//57 52//52 59//59
f 57//57 59//59 125//125
f 57//57 125//125 120//120
f 165//165 168//168 120//120
f 165//165 120//120 130//130
f 165//165 130//130 134//134
f 165//165 134//134 122//122
f 165//165 122//122 163//163
f 165//165 163//163 220//220
f 165//165 220//220 221//221
f 165//165 221//221 168//168
f 53//53 60//60 101//101
f 53//53 152//152 26//26
f 53//53 26//26 33//33
f 53//53 33//33 36//36
f 53//53 44//44 55//55
f 53//53 55//55 60//60
f 248//248 250//250 240//240
f 248//248 240//240 242//242
f 248//248 242//242 238//238
f 248//248 238//238 291//291
f 248//248 291//291 250//250
f 224//224 218//218 212//212
f 224//224 216//216 229//229
f 224//224 229//229 240//240
f 224//224 240//240 227//227
f 224//224 227//227 218//218
f 203//203 210//210 201//201
f 184//184 139//139 127//127
f 184//184 127//127 213//213
f 184//184 213//213 210//210
f 184//184 210//210 203//203
f 209//209 201//201 210//210
f 209//209 210//210 264//264
f 209//209 264//264 257//257
f 272//272 282//282 285//285
f 246//246 260//260 282//282
f 246//246 282//282 272//272
f 246//246 272//272 255//255
f 228//228 232//232 229//229
f 228//228 229//229 216//216
f 228//228 216//216 211//211
f 228//228 211//211 232//232
f 118//118 148//148 104//104
f 118//118 104//104 106//106
f 39//39 36//36 34//34
f 39//39 34//34 43//43
f 38//38 40//40 41//41
f 38//38 41//41 51//51
f 38//38 51//51 50//50
f 38//38 50//50 43//43
f 38//38 43//43 35//35
f 38//38 35//35 40//40
f 46//46 49//49 51//51
f 46//46 51//51 41//41
f 46//46 41//41 40//40
f 46//46 40//40 45//45
f 46//46 45//45 47//47
f 46//46 47//47 49//49
f 7//7 2//2 4//4
f 7//7 4//4 19//19
f 7//7 19//19 29//29
f 7//7 13//13 2//2
f 32//32 34//34 36//36
f 32//32 36//36 28//28
f 32//32 28//28 29//29
f 32//32 29//29 19//19
f 32//32 19//19 31//31
f 32//32 31//31 34//34
f 293//293 279//279 280//280
f 293//293 280//280 275//275
f 293//293 275//275 291//291
f 293//293 291//291 295//295
f 293//293 289//289 290//290
f 293//293 290//290 273//273
f 293//293 273//273 279//279
f 278//278 271//271 265//265
f 278//278 265//265 289//289
f 278//278 289//289 284//284
f 278//278 284//284 214//214
f 278//278 214//214 271//271
f 247//247 244//244 253//253
f 247//247 253//253 265//265
f 247//247 265//265 271//271
f 247//247 271//271 213//213
f 247//247 213//213 235//235
f 247//247 235//235 244//244
f 268//268 263//263 291//291
f 268//268 291//291 238//238
f 126//126 150//150 115//115
f 126//126 115//115 26//26
f 126//126 26//26 150//150
f 186//186 115//115 150//150
f 186//186 150//150 195//195
f 186//186 195//195 185//185
f 186//186 185//185 115//115
f 158//158 199//199 196//196
f 158//158 196//196 191//191
f 158//158 191//191 152//152
f 158//158 152//152 155//155
f 158//158 155//155 156//156
f 162//162 147//147 198//198
f 162//162 198//198 194//194
f 145//145 198//198 147//147
f 145//145 147//147 143//143
f 145//145 143//143 259//259
f 145//145 259//259 198//198
f 119//119 124//124 136//136
f 119//119 136//136 131//131
f 119//119 131//131 109//109
f 119//119 109//109 99//99
f 119//119 99//99 117//117
f 119//119 117//117 124//124
f 113//113 116//116 99//99
f 113//113 99//99 112//112
f 113//113 112//112 121//121
f 113//113 121//121 116//116
f 128//128 53//53 101//101
f 128//128 101//101 131//131
f 128//128 131//131 136//136
f 42//42 44//44 53//53
f 42//42 53//53 36//36
f 42//42 36//36 39//39
f 42//42 39//39 43//43
f 42//42 43//43 44//44
f 205//205 173//173 169//169
f 205//205 224//224 212//212
f 205//205 212//212 179//179
f 205//205 179//179 173//173
f 237//237 219//219 141//141
f 237//237 141//141 148//148
f 237//237 255//255 263//263
f 237//237 263//263 268//268
f 237//237 268//268 231//231
f 237//237 231//231 219//219
f 193//193 201//201 190//190
f 193//193 184//184 203//203
f 193//193 203//203 201//201
f 166//166 184//184 193//193
f 243//243 201//201 209//209
f 243//243 209//209 257//257
f 243//243 257//257 260//260
f 276//276 291//291 263//263
f 276//276 263//263 255//255
f 276//276 255//255 272//272
f 276//276 272//272 285//285
f 276//276 285//285 291//291
f 177//177 164//164 157//157
f 217//217 157//157 164//164
f 217//217 164//164 177//177
f 217//217 177//177 190//190
f 217//217 190//190 246//246
f 206//206 201//201 243//243
f 206//206 243//243 260//260
f 206//206 260//260 246//246
f 206//206 246//246 190//190
f 206//206 190//190 201//201
f 129//129 123//123 138//138
f 129//129 118//118 106//106
f 129//129 106//106 123//123
f 153//153 148//148 118//118
f 153//153 157//157 217//217
f 153//153 217//217 148//148
f 151//151 157//157 153//153
f 151//151 153//153 118//118
f 151//151 118//118 129//129
f 151//151 129//129 138//138
f 151//151 138//138 123//123
f 151//151 123//123 139//139
f 151//151 139//139 184//184
f 151//151 184//184 166//166
f 151//151 166//166 157//157
f 23//23 13//13 7//7
f 23//23 7//7 29//29
f 23//23 29//29 28//28
f 23//23 28//28 20//20
f 23//23 20//20 13//13
f 292//292 289//289 293//293
f 292//292 293//293 295//295
f 292//292 295//295 289//289
f 234//234 231//231 268//268
f 234//234 268//268 238//238
f 234//234 238//238 231//231
f 159//159 194//194 199//199
f 159//159 199//199 158//158
f 159//159 158//158 156//156
f 140//140 147//147 159//159
f 140//140 159//159 156//156
f 140//140 156//156 155//155
f 140//140 155//155 152//152
f 208//208 216//216 224//224
f 208//208 224//224 205//205
f 208//208 205//205 169//169
f 208//208 169//169 216//216
f 230//230 246//246 255//255
f 230//230 255//255 237//237
f 230//230 237//237 148//148
f 230//230 148//148 217//217
f 230//230 217//217 246//246
f 180//180 193//193 190//190
f 180//180 190//190 177//177
f 180//180 177//177 157//157
f 180//180 157//157 166//166
f 180//180 166//166 193//193
f 161//161 162//162 194//194
f 161//161 194//194 159//159
f 161//161 159//159 147//147
f 161//161 147//147 162//162
f 133//133 147//147 140//140
f 133//133 140//140 128//128
f 133//133 128//128 136//136
f 133//133 136//136 137//137
f 133//133 137//137 143//143
f 133//133 143//143 147//147
f 135//135 128//128 140//140
f 135//135 140//140 152//152
f 135//135 152//152 53//53
f 135//135 53//53 128//128
