# OBJ
# COMPAS
# version: 2.1.0
# precision: 3
# V F E: 418 832 1248

o Mesh 0
v 3.397 -8.477 15.682
v 2.556 -8.683 15.653
v 2.848 -8.840 15.675
v 1.702 -6.661 15.603
v 3.674 -8.729 15.732
v 5.499 -7.920 15.854
v 3.132 -8.951 15.725
v 1.386 -7.029 15.619
v 4.453 -8.933 15.819
v 1.232 -7.197 15.630
v 4.293 -9.064 15.856
v 0.892 -6.235 15.638
v 1.174 -4.598 15.661
v 0.968 -5.304 15.653
v 1.096 -4.469 15.665
v 1.253 -4.272 15.678
v 0.831 -6.759 15.654
v 3.040 -4.515 15.803
v 0.784 -5.358 15.669
v 0.871 -4.554 15.678
v 2.500 -8.720 15.790
v 0.774 -7.089 15.685
v 0.591 -6.140 15.681
v 0.597 -6.821 15.683
v 0.656 -4.573 15.715
v 3.031 -9.042 15.874
v 2.967 -2.977 15.875
v 0.526 -6.376 15.720
v 4.412 -9.224 16.042
v 0.386 -6.142 15.814
v 3.728 -9.186 16.048
v 12.815 -8.508 16.642
v 11.463 -9.042 16.569
v 5.017 -9.316 16.158
v 0.459 -6.847 15.866
v 7.842 -9.431 16.350
v 13.723 -8.384 16.734
v 1.681 -0.336 15.965
v 13.212 -8.825 16.719
v 0.680 -0.568 15.924
v 0.390 -1.069 15.921
v 0.308 -5.035 15.916
v 13.339 -9.034 16.765
v 3.209 -9.133 16.121
v 11.257 -9.308 16.650
v 16.013 -6.065 16.985
v 16.188 -6.736 17.008
v 3.578 -9.250 16.203
v 7.879 -9.617 16.524
v 2.185 -8.587 16.159
v 17.218 -6.176 17.138
v 14.661 -9.217 16.975
v 2.338 -8.728 16.181
v 16.778 -7.212 17.113
v 0.653 1.769 16.074
v 0.860 2.269 16.092
v 0.475 -6.788 16.069
v 2.646 2.531 16.225
v 17.143 -7.897 17.200
v 0.185 -5.345 16.114
v 17.385 -7.050 17.233
v 2.147 -8.612 16.301
v 17.420 -6.038 17.303
v 15.543 -9.271 17.185
v 17.222 -8.319 17.298
v 0.153 -5.980 16.205
v 10.425 -9.676 16.869
v 0.125 1.455 16.215
v 0.130 1.999 16.224
v 17.465 -7.929 17.347
v 7.788 -9.713 16.740
v 15.022 -9.497 17.208
v 1.220 5.315 16.326
v 0.921 5.351 16.318
v 17.463 -4.959 17.385
v 0.570 5.378 16.308
v 17.387 -3.603 17.395
v 4.758 5.515 16.586
v 0.596 5.744 16.353
v 0.363 5.253 16.370
v 17.487 -8.553 17.474
v 2.234 -8.750 16.496
v 15.729 -9.564 17.378
v 0.044 -1.075 16.375
v 0.045 1.533 16.418
v 0.043 1.877 16.433
v 0.325 5.904 16.461
v 0.107 -5.892 16.466
v 17.153 -9.049 17.568
v 0.195 5.342 16.508
v 3.583 9.466 16.776
v 17.590 -2.787 17.697
v 0.922 7.202 16.634
v 17.648 -4.064 17.723
v 2.360 -8.867 16.739
v 3.394 10.058 16.823
v 0.217 6.114 16.638
v 0.005 -1.158 16.626
v 2.952 10.112 16.822
v 16.942 6.087 17.738
v 12.421 7.967 17.454
v 0.743 7.193 16.708
v 0.062 -5.627 16.667
v 17.137 5.819 17.769
v 2.472 9.641 16.824
v 16.965 -9.510 17.760
v 2.308 9.472 16.823
v 2.696 9.940 16.854
v 0.096 5.082 16.689
v 16.905 6.508 17.791
v 0.750 7.317 16.752
v 16.333 7.245 17.761
v 0.125 5.923 16.718
v 2.807 10.135 16.891
v 12.510 8.567 17.518
v 12.152 8.702 17.498
v 0.018 2.038 16.725
v 11.583 8.893 17.477
v 17.690 -5.240 17.875
v 15.136 7.813 17.711
v 3.409 10.280 16.957
v 17.241 5.645 17.851
v 16.641 7.079 17.814
v 17.134 6.032 17.847
v 17.467 -8.875 17.872
v 10.915 9.090 17.457
v 2.429 -8.898 16.912
v 17.612 -8.139 17.908
v 15.689 7.728 17.784
v 16.645 -9.742 17.848
v 2.890 10.252 16.982
v 11.591 9.063 17.543
v 2.058 9.385 16.932
v 2.678 10.148 16.981
v 4.145 10.254 17.086
v 0.704 7.546 16.888
v 0.125 6.122 16.853
v 17.302 -9.286 17.965
v 17.453 1.057 17.978
v 10.938 9.371 17.576
v 16.836 6.971 17.969
v 16.308 7.558 17.948
v -0.004 -1.064 16.903
v 15.706 7.901 17.919
v 2.326 -8.817 17.078
v 0.008 2.225 16.937
v 2.082 9.523 17.074
v 0.061 5.946 16.959
v 2.715 10.251 17.132
v 0.131 -5.700 17.002
v 2.511 10.059 17.156
v 0.414 7.142 17.028
v 0.021 5.041 17.025
v 4.302 10.355 17.312
v 16.154 -10.001 18.081
v 17.099 -9.599 18.148
v 4.104 10.386 17.316
v 3.570 -9.396 17.299
v 14.612 -10.308 18.028
v 0.055 6.081 17.094
v 16.764 -9.859 18.184
v 15.509 8.015 18.106
v 15.888 7.866 18.137
v 16.953 6.887 18.221
v 4.521 10.360 17.427
v 11.202 9.381 17.871
v -0.003 -1.271 17.161
v 16.627 7.338 18.236
v 0.484 7.313 17.200
v 3.887 -9.469 17.424
v 17.314 4.944 18.303
v 15.729 -10.180 18.204
v 2.408 10.061 17.363
v 14.836 8.259 18.180
v 0.116 6.545 17.243
v 14.403 -10.461 18.169
v 16.199 7.685 18.305
v 16.010 -10.155 18.317
v 2.808 10.440 17.471
v 0.375 -5.968 17.314
v 17.162 6.188 18.410
v 12.184 9.150 18.095
v 11.081 9.461 18.029
v 17.009 -9.732 18.431
v 2.658 10.316 17.525
v 17.661 -3.036 18.494
v 3.021 10.445 17.566
v 16.702 -9.962 18.467
v 14.186 -10.520 18.307
v 2.204 -8.600 17.538
v 0.051 6.370 17.446
v 2.465 10.143 17.605
v 17.706 -4.519 18.610
v 14.426 -10.521 18.408
v 16.371 -10.065 18.547
v 0.030 5.338 17.497
v 4.250 -9.563 17.781
v 0.172 6.648 17.585
v 3.940 -9.540 17.903
v 0.094 6.248 17.707
v 16.743 7.143 18.793
v 14.399 -10.478 18.652
v 16.848 -9.913 18.815
v 2.757 10.439 17.937
v 3.801 -9.487 18.037
v 15.953 7.904 18.833
v 0.192 6.438 17.819
v 4.119 -9.574 18.097
v 0.502 -5.556 17.916
v 14.216 -10.462 18.845
v 0.797 -6.255 17.991
v 0.491 7.001 17.985
v 17.286 4.369 19.071
v 0.440 6.762 18.023
v 16.094 7.841 19.051
v 2.709 10.381 18.191
v 2.262 -8.534 18.185
v 0.049 -1.674 18.047
v 0.559 6.920 18.096
v 2.648 10.294 18.292
v 16.568 -10.022 19.214
v 16.359 7.611 19.214
v 4.353 10.397 18.441
v 2.510 10.122 18.348
v 16.842 6.628 19.315
v 16.894 -9.865 19.365
v 0.094 -1.209 18.300
v 2.396 -8.603 18.456
v 16.022 7.912 19.403
v 2.666 10.216 18.559
v 16.589 7.209 19.492
v 16.560 -10.022 19.499
v 0.126 -1.532 18.442
v 15.330 8.299 19.531
v 2.318 -8.465 18.702
v 4.128 -9.517 18.830
v 2.670 10.091 18.779
v 16.631 -10.001 19.723
v 3.612 10.498 18.888
v 3.200 10.521 18.887
v 17.008 -9.433 19.810
v 17.256 -8.466 19.849
v 14.285 8.678 19.669
v 12.749 -10.339 19.593
v 16.795 -9.887 19.872
v 3.373 10.516 19.030
v 3.776 10.473 19.062
v 3.118 10.472 19.047
v 2.443 -8.492 19.023
v 15.795 7.994 19.887
v 14.576 8.561 19.809
v 2.161 -8.142 19.034
v 16.480 -9.940 20.012
v 12.785 -10.327 19.781
v 3.882 10.448 19.216
v 1.385 -6.462 19.092
v 11.823 -10.235 19.785
v 12.519 -10.291 19.846
v 2.822 10.032 19.221
v 3.013 10.259 19.246
v 12.017 -10.243 19.837
v 4.817 -9.562 19.382
v 16.938 -9.124 20.230
v 5.172 -9.618 19.471
v 15.015 8.360 20.126
v 3.377 10.390 19.379
v 16.679 -9.755 20.251
v 12.961 -10.285 20.045
v 16.781 -9.455 20.299
v 2.982 10.058 19.445
v 5.050 -9.571 19.583
v 10.466 -10.063 19.932
v 4.781 -9.453 19.575
v 2.178 -7.869 19.410
v 2.471 -8.379 19.500
v 16.123 7.639 20.393
v 1.524 6.210 19.455
v 3.221 10.225 19.574
v 16.889 -8.781 20.464
v 12.686 -10.206 20.214
v 10.692 -10.040 20.087
v 16.598 -9.555 20.471
v 0.474 -0.614 19.464
v 15.698 7.971 20.469
v 5.219 -9.548 19.798
v 2.455 -8.126 19.648
v 12.909 -10.163 20.364
v 3.091 9.800 19.745
v 1.843 -6.557 19.680
v 3.303 10.133 19.783
v 10.345 -9.928 20.239
v 12.025 -10.044 20.375
v 2.633 -8.187 19.772
v 0.591 -0.308 19.644
v 0.613 -0.654 19.652
v 1.596 -5.632 19.740
v 3.293 -8.474 19.856
v 5.207 -9.382 19.992
v 16.193 7.338 20.732
v 12.672 -9.992 20.518
v 3.302 9.961 19.917
v 3.852 10.099 19.956
v 2.769 -7.927 19.890
v 3.213 -8.248 19.929
v 3.026 9.245 19.931
v 1.681 -5.411 19.854
v 12.942 -9.926 20.593
v 2.031 -6.255 19.914
v 16.767 -7.842 20.870
v 5.816 -9.397 20.170
v 0.704 0.439 19.842
v 0.898 -1.243 19.863
v 2.772 -7.277 19.999
v 3.740 9.905 20.094
v 0.930 -0.898 19.926
v 3.315 9.444 20.081
v 3.214 9.236 20.079
v 1.712 5.189 20.013
v 13.679 -9.561 20.818
v 15.813 7.627 20.962
v 15.689 -9.062 20.958
v 16.685 -7.649 21.045
v 1.288 -1.893 20.054
v 16.814 -0.734 21.057
v 0.851 0.442 20.029
v 15.444 -9.155 20.970
v 13.831 8.703 20.869
v 5.897 -9.129 20.374
v 15.823 -8.777 21.030
v 8.471 -9.463 20.563
v 1.854 5.311 20.142
v 15.385 -8.968 21.022
v 1.437 -2.092 20.124
v 16.512 -7.605 21.138
v 13.771 -9.291 20.975
v 1.588 -1.916 20.199
v 1.017 0.995 20.189
v 6.737 -9.114 20.565
v 16.183 -7.861 21.192
v 8.326 -9.353 20.687
v 16.108 7.018 21.196
v 15.723 -8.079 21.185
v 6.269 -8.834 20.578
v 1.373 -0.269 20.281
v 16.228 -7.377 21.241
v 13.171 -9.174 21.050
v 12.013 -9.270 20.988
v 6.851 -8.901 20.664
v 15.962 -7.651 21.253
v 8.215 -9.269 20.764
v 13.310 -8.906 21.121
v 12.672 -8.954 21.107
v 14.171 8.477 21.217
v 13.336 -8.684 21.174
v 8.295 -9.093 20.864
v 2.054 4.920 20.468
v 8.975 -9.172 20.938
v 16.237 6.169 21.434
v 16.592 -0.934 21.486
v 12.316 9.209 21.253
v 8.496 -8.540 21.015
v 9.026 -8.955 21.051
v 2.211 4.925 20.628
v 15.735 7.221 21.511
v 16.473 -0.682 21.560
v 9.058 9.545 21.084
v 14.517 8.241 21.439
v 5.270 9.360 20.857
v 16.376 -1.111 21.615
v 16.228 5.569 21.632
v 11.664 9.393 21.341
v 5.436 9.247 20.944
v 14.787 7.995 21.573
v 8.375 9.449 21.176
v 12.365 9.168 21.440
v 5.821 9.253 21.041
v 5.623 9.067 21.049
v 13.897 8.502 21.599
v 15.789 6.635 21.758
v 5.842 9.023 21.121
v 16.111 5.470 21.818
v 11.539 9.328 21.524
v 14.956 7.736 21.745
v 11.268 9.342 21.516
v 16.030 5.782 21.825
v 6.262 8.995 21.225
v 15.374 7.094 21.860
v 11.473 9.131 21.634
v 12.533 8.930 21.722
v 15.086 7.442 21.892
v 12.303 8.960 21.766
v 14.369 8.067 21.904
v 3.754 0.489 21.220
v 4.007 0.309 21.254
v 4.319 0.674 21.362
v 14.685 7.559 22.063
v 13.704 8.331 22.003
v 7.100 8.366 21.582
v 14.939 7.124 22.101
v 6.777 8.111 21.596
v 6.867 7.966 21.626
v 13.911 8.033 22.206
v 13.723 -3.003 22.251
v 13.620 -3.024 22.245
v 3.664 4.178 21.614
v 3.761 3.995 21.629
v 13.385 8.096 22.276
v 14.240 7.235 22.366
v 13.770 7.797 22.382
v 6.645 1.482 21.947
v 13.425 7.723 22.398
v 7.212 1.739 22.061
v 6.799 2.058 22.045
v 13.698 7.363 22.494
v 14.197 3.549 22.905
v 13.899 3.952 22.964
v 13.798 3.470 22.967
v 13.925 3.665 22.998
f 101 112 78
f 91 101 78
f 361 343 362
f 413 361 362
f 303 304 343
f 256 209 180
f 256 296 209
f 48 170 158
f 202 210 194
f 275 285 298
f 165 223 183
f 165 183 140
f 165 140 154
f 165 154 157
f 187 157 179
f 187 179 240
f 187 240 157
f 121 99 131
f 121 131 179
f 121 179 157
f 166 140 183
f 371 183 223
f 58 91 78
f 58 78 27
f 96 99 121
f 96 121 140
f 96 116 91
f 96 91 76
f 96 76 99
f 79 99 76
f 197 170 48
f 221 232 194
f 221 195 188
f 242 128 193
f 328 343 304
f 310 328 298
f 310 298 285
f 338 343 328
f 338 328 310
f 338 310 350
f 404 403 418
f 404 362 403
f 283 233 209
f 283 209 296
f 337 325 344
f 337 344 405
f 337 405 363
f 323 344 325
f 410 343 361
f 410 361 413
f 406 308 393
f 406 410 413
f 406 413 418
f 406 418 405
f 406 405 308
f 293 286 275
f 293 304 303
f 293 303 308
f 313 393 308
f 313 308 303
f 313 303 343
f 289 296 256
f 289 286 293
f 289 293 308
f 289 308 296
f 199 170 197
f 199 236 205
f 199 205 158
f 199 158 170
f 271 264 285
f 190 145 217
f 190 217 35
f 190 35 145
f 127 205 145
f 127 145 95
f 127 95 158
f 127 158 205
f 82 95 145
f 82 145 35
f 26 158 95
f 26 95 82
f 26 82 21
f 281 280 287
f 268 287 280
f 268 280 281
f 352 362 346
f 354 403 362
f 354 362 352
f 89 81 106
f 176 130 172
f 176 194 189
f 71 189 197
f 71 197 48
f 71 48 34
f 71 34 49
f 71 49 176
f 71 176 189
f 228 145 205
f 228 205 236
f 228 217 145
f 274 180 252
f 274 252 275
f 274 275 286
f 274 286 289
f 274 289 256
f 273 285 275
f 273 275 236
f 273 236 285
f 129 140 144
f 115 101 91
f 115 91 116
f 115 112 101
f 61 51 63
f 61 59 51
f 239 371 223
f 239 223 165
f 239 165 157
f 239 157 240
f 200 233 283
f 135 154 140
f 135 140 121
f 135 121 157
f 135 157 154
f 182 144 140
f 182 140 166
f 182 166 183
f 368 376 302
f 374 302 376
f 150 180 209
f 150 209 233
f 113 90 69
f 126 96 140
f 107 99 79
f 212 219 305
f 65 81 89
f 161 130 106
f 324 242 193
f 324 193 213
f 324 213 370
f 327 251 360
f 162 144 182
f 162 182 174
f 375 360 371
f 375 327 360
f 378 284 353
f 378 353 327
f 378 327 375
f 171 181 213
f 100 51 46
f 100 46 27
f 100 27 78
f 100 78 112
f 100 104 51
f 75 63 51
f 75 92 94
f 358 381 370
f 358 370 213
f 291 330 310
f 291 310 285
f 291 285 281
f 291 281 287
f 348 343 338
f 348 338 362
f 348 362 343
f 355 362 338
f 355 338 350
f 355 350 357
f 355 357 362
f 300 357 350
f 300 350 287
f 334 339 282
f 334 282 322
f 342 403 354
f 342 354 332
f 412 413 362
f 412 362 404
f 295 283 296
f 306 296 308
f 395 410 406
f 297 298 328
f 297 328 304
f 297 304 293
f 297 293 275
f 297 275 298
f 208 189 244
f 208 244 264
f 208 264 236
f 208 236 199
f 208 199 197
f 208 197 189
f 257 258 261
f 257 264 244
f 272 264 257
f 272 257 261
f 272 261 258
f 272 258 268
f 272 268 281
f 272 281 285
f 272 285 264
f 262 264 271
f 262 271 285
f 262 285 236
f 262 236 264
f 50 22 21
f 62 22 50
f 62 50 21
f 62 82 35
f 62 35 22
f 44 158 26
f 44 26 48
f 44 48 158
f 31 48 26
f 31 34 48
f 41 69 80
f 41 80 76
f 6 46 37
f 6 27 46
f 54 59 37
f 54 51 59
f 47 51 54
f 47 54 37
f 47 37 46
f 47 46 51
f 203 221 188
f 253 287 268
f 329 282 339
f 329 339 342
f 329 342 332
f 254 244 189
f 254 189 194
f 254 194 210
f 254 210 268
f 254 268 258
f 254 258 257
f 254 257 244
f 351 332 354
f 351 354 352
f 351 352 346
f 67 176 49
f 67 49 72
f 83 89 106
f 83 106 130
f 36 45 72
f 36 72 49
f 36 49 11
f 36 11 9
f 36 9 33
f 36 33 45
f 29 34 31
f 29 31 26
f 29 11 49
f 29 49 34
f 249 228 236
f 249 236 275
f 57 35 252
f 57 252 180
f 57 180 150
f 235 217 228
f 235 228 249
f 235 249 275
f 235 275 252
f 235 252 35
f 235 35 217
f 211 180 274
f 211 274 256
f 211 256 180
f 132 140 129
f 132 129 116
f 132 126 140
f 120 129 112
f 120 112 115
f 120 115 116
f 120 116 129
f 119 128 81
f 119 193 128
f 70 61 75
f 70 75 94
f 70 94 119
f 70 119 81
f 70 81 65
f 70 65 59
f 70 59 61
f 311 325 337
f 311 200 283
f 311 295 325
f 246 239 240
f 366 302 374
f 218 167 103
f 218 103 150
f 218 150 233
f 88 103 66
f 88 66 35
f 88 35 57
f 88 57 150
f 88 150 103
f 87 93 107
f 87 107 79
f 87 79 76
f 87 76 80
f 87 80 69
f 87 69 90
f 118 96 126
f 118 126 132
f 118 132 116
f 118 116 96
f 316 405 368
f 316 363 405
f 277 305 219
f 248 266 246
f 248 246 240
f 255 246 266
f 173 147 136
f 230 248 220
f 207 212 198
f 207 198 200
f 207 200 311
f 207 311 337
f 73 91 58
f 73 58 56
f 38 27 16
f 38 16 56
f 38 56 58
f 38 58 27
f 178 130 161
f 178 161 188
f 178 188 195
f 178 195 221
f 178 221 194
f 178 194 176
f 178 176 172
f 415 418 334
f 359 381 365
f 359 322 324
f 359 324 370
f 359 370 381
f 411 407 398
f 411 398 400
f 243 174 182
f 243 182 183
f 243 183 371
f 243 371 360
f 243 360 251
f 401 418 416
f 401 400 405
f 401 405 418
f 386 400 398
f 386 398 407
f 397 378 375
f 397 391 407
f 122 181 171
f 122 94 92
f 122 92 75
f 186 193 119
f 186 119 94
f 186 94 171
f 186 171 213
f 186 213 193
f 142 168 141
f 142 112 129
f 142 129 144
f 123 112 142
f 123 142 141
f 77 104 122
f 77 122 75
f 77 75 51
f 77 51 104
f 234 162 174
f 234 174 243
f 234 243 251
f 225 358 213
f 225 213 181
f 276 284 320
f 276 231 222
f 276 222 229
f 276 229 284
f 201 168 222
f 201 222 231
f 414 411 400
f 414 400 401
f 414 401 416
f 340 310 330
f 340 330 287
f 340 287 350
f 340 350 310
f 292 330 291
f 292 291 287
f 292 287 330
f 347 346 362
f 347 362 357
f 319 335 346
f 319 346 347
f 345 339 334
f 345 334 418
f 345 418 403
f 345 403 339
f 349 403 342
f 349 342 339
f 349 339 403
f 417 418 413
f 417 413 412
f 417 412 404
f 417 404 418
f 333 344 323
f 333 323 306
f 333 306 308
f 333 405 344
f 312 295 296
f 312 296 306
f 312 306 323
f 312 325 295
f 394 393 313
f 394 313 343
f 394 343 410
f 394 410 395
f 394 395 406
f 394 406 393
f 53 82 62
f 53 62 21
f 53 21 82
f 2 26 21
f 2 21 22
f 15 56 16
f 40 56 15
f 40 41 76
f 30 41 23
f 30 23 28
f 30 35 66
f 18 27 6
f 18 16 27
f 238 232 221
f 238 221 203
f 238 245 253
f 238 253 268
f 238 268 210
f 238 210 202
f 238 202 194
f 238 194 232
f 125 81 128
f 125 128 242
f 125 242 241
f 138 106 81
f 138 81 125
f 138 125 241
f 184 203 188
f 184 188 161
f 263 241 242
f 267 282 287
f 267 287 253
f 267 253 245
f 326 329 332
f 326 332 351
f 326 351 346
f 326 346 335
f 326 335 319
f 32 9 6
f 32 6 37
f 159 176 67
f 159 67 72
f 159 72 83
f 159 83 130
f 159 130 176
f 52 83 72
f 52 72 45
f 52 45 33
f 52 37 59
f 52 59 65
f 7 11 29
f 7 29 26
f 7 9 11
f 196 167 218
f 294 295 311
f 294 311 283
f 294 283 295
f 114 107 134
f 114 134 131
f 114 131 99
f 384 366 374
f 384 374 376
f 384 376 386
f 384 407 391
f 384 371 255
f 384 255 266
f 384 266 302
f 384 302 366
f 84 66 103
f 133 134 107
f 133 136 147
f 133 147 134
f 97 136 87
f 97 87 90
f 97 90 113
f 111 87 136
f 111 136 133
f 111 133 107
f 278 266 248
f 317 363 316
f 317 305 363
f 301 305 317
f 301 317 316
f 301 316 368
f 331 305 277
f 331 363 305
f 247 239 246
f 247 246 255
f 247 255 371
f 247 371 239
f 204 248 240
f 204 240 179
f 169 198 212
f 169 173 136
f 169 175 198
f 151 147 173
f 151 173 134
f 151 134 147
f 149 134 173
f 149 173 179
f 149 179 131
f 149 131 134
f 237 259 230
f 237 212 259
f 74 76 91
f 74 91 73
f 74 73 56
f 74 56 76
f 155 130 178
f 155 178 172
f 155 172 130
f 385 415 381
f 385 381 358
f 369 415 334
f 369 334 322
f 369 322 359
f 369 359 365
f 369 365 381
f 369 381 415
f 372 405 377
f 372 376 368
f 372 368 405
f 380 377 405
f 380 405 400
f 380 400 386
f 380 386 376
f 380 376 372
f 380 372 377
f 389 391 397
f 389 397 375
f 402 397 407
f 139 94 122
f 139 122 171
f 139 171 94
f 124 122 104
f 177 168 142
f 215 168 177
f 215 229 222
f 215 222 168
f 265 327 353
f 265 353 284
f 265 284 234
f 265 234 251
f 265 251 327
f 250 229 234
f 250 234 284
f 250 284 229
f 299 341 358
f 299 358 225
f 299 225 231
f 299 231 276
f 299 276 320
f 299 320 364
f 299 364 341
f 408 416 418
f 408 418 415
f 408 414 416
f 307 300 287
f 307 287 282
f 307 282 326
f 307 326 319
f 307 319 347
f 307 347 357
f 307 357 300
f 336 405 333
f 336 333 308
f 336 308 405
f 315 325 312
f 315 312 323
f 315 323 325
f 4 16 18
f 4 18 6
f 20 41 40
f 20 40 15
f 55 56 40
f 55 76 56
f 24 22 35
f 24 35 30
f 24 30 28
f 24 28 23
f 24 23 12
f 226 245 238
f 226 238 203
f 226 203 184
f 226 184 138
f 226 138 241
f 226 241 245
f 156 138 184
f 156 184 161
f 156 161 106
f 156 106 138
f 279 322 282
f 279 263 242
f 269 241 263
f 269 263 279
f 269 279 282
f 269 282 267
f 269 267 245
f 269 245 241
f 321 329 326
f 321 326 282
f 321 282 329
f 64 83 52
f 64 52 65
f 64 65 89
f 64 89 83
f 43 52 33
f 117 153 86
f 148 86 153
f 148 153 160
f 227 233 200
f 227 200 196
f 227 196 218
f 227 218 233
f 108 107 114
f 108 114 99
f 382 391 389
f 382 389 375
f 382 375 371
f 382 371 384
f 382 384 391
f 388 407 384
f 388 384 386
f 388 386 407
f 68 69 41
f 68 41 30
f 68 86 69
f 98 117 86
f 98 86 84
f 98 84 103
f 191 160 153
f 191 153 196
f 191 196 200
f 191 200 198
f 191 198 175
f 191 175 160
f 137 97 113
f 137 113 148
f 137 148 160
f 137 160 175
f 102 87 111
f 102 111 107
f 102 107 93
f 102 93 87
f 260 278 248
f 260 248 230
f 260 230 259
f 290 302 266
f 290 266 278
f 314 302 290
f 314 290 301
f 314 301 368
f 314 368 302
f 356 363 331
f 356 337 363
f 214 219 212
f 214 212 207
f 214 331 277
f 214 277 219
f 185 204 179
f 185 179 173
f 216 220 248
f 216 248 204
f 152 175 169
f 152 169 136
f 152 136 97
f 152 97 137
f 152 137 175
f 224 230 220
f 224 220 216
f 224 169 212
f 224 212 237
f 224 237 230
f 379 385 358
f 379 358 341
f 379 341 364
f 379 364 387
f 390 387 364
f 409 414 408
f 409 402 407
f 409 407 411
f 409 411 414
f 164 181 122
f 164 122 124
f 164 124 141
f 164 141 168
f 164 168 201
f 164 201 231
f 164 231 225
f 164 225 181
f 110 123 141
f 110 141 124
f 110 124 104
f 110 104 100
f 110 100 112
f 110 112 123
f 163 144 162
f 163 162 234
f 163 215 177
f 163 177 142
f 163 142 144
f 399 385 379
f 399 379 387
f 399 387 390
f 399 409 408
f 399 408 415
f 399 415 385
f 3 7 26
f 3 26 2
f 3 5 9
f 3 9 7
f 1 2 4
f 1 4 6
f 1 6 9
f 1 9 5
f 1 5 3
f 1 3 2
f 13 16 4
f 13 4 15
f 13 15 16
f 8 12 4
f 8 4 2
f 14 12 20
f 14 20 15
f 14 15 4
f 14 4 12
f 19 20 12
f 19 12 23
f 25 41 20
f 25 20 19
f 25 19 23
f 25 23 41
f 17 24 12
f 309 322 279
f 309 279 242
f 309 242 324
f 309 324 322
f 39 37 52
f 39 52 43
f 39 43 33
f 39 33 9
f 39 9 32
f 39 32 37
f 109 86 148
f 109 148 113
f 109 113 69
f 109 69 86
f 105 107 108
f 105 108 99
f 105 99 107
f 85 86 68
f 85 68 84
f 85 84 86
f 60 66 84
f 60 84 68
f 60 30 66
f 143 98 103
f 143 103 167
f 270 278 260
f 270 260 259
f 270 259 212
f 270 301 290
f 270 290 278
f 288 301 270
f 288 270 212
f 288 212 305
f 288 305 301
f 318 331 214
f 318 214 207
f 318 207 337
f 318 337 356
f 318 356 331
f 192 173 169
f 192 169 224
f 192 224 216
f 192 216 204
f 192 204 185
f 192 185 173
f 383 390 364
f 383 364 320
f 206 215 163
f 206 163 234
f 206 234 229
f 206 229 215
f 396 409 399
f 396 399 390
f 396 402 409
f 10 8 2
f 10 2 22
f 10 22 24
f 10 24 17
f 10 17 12
f 10 12 8
f 42 30 60
f 42 60 68
f 42 68 30
f 146 98 143
f 146 143 167
f 146 167 196
f 146 196 153
f 146 153 117
f 146 117 98
f 373 383 320
f 373 320 284
f 367 373 284
f 367 284 378
f 392 397 402
f 392 402 396
f 392 396 390
f 392 390 383
f 392 383 373
f 392 373 367
f 392 367 378
f 392 378 397
f 55 40 76
f 63 75 61
