# Rhino

mtllib 19.06_sbe_l_20.mtl
usemtl diffuse_0_0_0_255
v 32.374646994957345 22.101751137323831 -7.4071369379758831
v 31.841335423007308 22.186332431181253 -5.0456703394651408
v 31.826279781556195 22.190670712881417 -5.320387670397758
v 32.060473531359662 22.17297472508745 -9.1546851366758339
v 32.36690850755059 22.1536251182958 -9.2036026209592823
v 32.21998645901013 22.183532950750291 -9.3752908915281292
v 31.821749618525871 22.222188314717155 0.77532689869403981
v 31.645847775344663 22.252040072512088 -8.588894101977349
v 31.693369031355303 22.251800473915814 -8.9723069399595268
v 31.345528669928086 22.33169353102496 7.6638019353151314
v 30.793720350662142 22.385110395135968 8.2969226628541968
v 31.436834359724827 22.332976411040232 7.5808337956666954
v 33.613332156016611 22.144759980095966 -5.9264805048704146
v 31.882803268818122 22.295796916659775 -9.2924523562192913
v 30.64017574161673 22.406285701273617 8.7615268498659127
v 33.79035078578525 22.148636175665178 -5.9356357783079146
v 30.856296698307005 22.409999899681129 9.315332391858103
v 31.138976001580971 22.388551616578074 9.3604495793581037
v 30.598885832256997 22.442268778453631 9.1523502141237287
v 33.177505368177066 22.223213672371923 0.84498937427997589
v 31.066451396819673 22.41479862560637 9.5963306218385718
v 31.280903755098308 22.397738025708875 9.5369678288698196
v 33.746093800151982 22.189544893692045 -9.516902515292168
v 31.489039073738525 22.390485119482349 9.5394809514284162
v 30.690235516520289 22.463559037947356 9.3634326726198225
v 30.852279786264603 22.453730297960234 9.5423373967409155
v 31.336349740434144 22.421401164808081 9.7134738713502884
v 33.50052999558136 22.244044328983499 -9.6505390852689743
v 31.566743000278223 22.44636904923447 -8.8002312868833545
v 32.203980327506116 22.392516876526528 -9.502332183718682
v 30.564174459322459 22.536865770319512 8.8442752629518502
v 31.168905689234805 22.491865232343187 9.8463535100221655
v 31.538080723946933 22.466993800499445 9.8041721135377884
v 30.723907130396668 22.552834978300403 9.4840289860963836
v 31.373686604040415 22.496295745453796 9.8830951482057579
v 31.57251088914802 22.490588579580233 -9.1497469156980511
v 30.545190539282032 22.582050638073735 9.3230945378541961
v 32.467372175365796 22.41624163023128 9.1092349797487273
v 30.546758669140587 22.615289701646581 9.090936639904978
v 31.486657027599364 22.580905381869208 9.984796503186228
v 34.570687497319966 22.323559324126915 -9.8133014887571335
v 31.720389521553102 22.578334598376948 10.000227716565135
v 32.796201009327632 22.531198749662828 9.370874384045603
v 31.115437151177019 22.687221818059207 9.9366718083620071
v 31.84080627712342 22.645173756591845 -9.4514417380094535
v 33.926168430435297 22.473073514082628 8.5721561223268523
v 33.380598166346942 22.527869199238044 -9.8341064184904106
v 31.332854362172981 22.72096849745796 10.099203851819041
v 30.5398926311982 22.795800020136447 9.1896014958620071
v 31.568895326837037 22.724655508006357 10.112596490979197
v 35.387383722829384 22.403622716982092 4.4391467839479457
v 34.163459404602293 22.527917560722479 8.5962146550416954
v 30.536120725204313 22.85339246244488 9.0017825871706023
v 35.073552870082125 22.461513919489093 -9.9254713982343681
v 31.743432885068785 22.761293593431869 10.12902105152607
v 32.78035258156828 22.67262093072506 9.5880832463502905
v 35.005979489526368 22.488390367013725 7.9255130559206002
v 36.693084627860003 22.352280616889491 -9.830014631152153
v 33.993276891089579 22.60184910541971 8.8384189397096655
v 32.473217780173144 22.764444112505352 -9.7174989432096481
v 35.257465889729673 22.523291840567346 7.9636569768190384
v 37.313774629251668 22.354508925665371 -5.6433017939329142
v 37.24334937591226 22.36098980961976 -4.5679866999387739
v 36.521318415640025 22.424881735883517 -9.9861697643995289
v 34.246813270501917 22.623725024454437 8.7367099553346641
v 34.303677664428903 22.630548295287944 -9.9604712456464775
v 31.300241679674912 22.907161487033669 10.089760187268258
v 31.455492275141438 22.906970238541348 10.188570001721384
v 37.030296159213378 22.461539399197473 -9.9846170634031299
v 31.51383912145991 22.972844016929592 -9.2251587122678753
v 34.158113797059315 22.747168249822536 8.8984775334596655
v 30.562792668691316 23.064543267144259 9.130842950940135
v 33.043065221648249 22.862677564184523 9.4955981999635704
v 34.923574062017764 22.750641614169712 8.4721133977174752
v 35.648699595647173 22.706622856391654 -10.093848523497581
v 31.802444460661036 23.063062169633088 -9.5199363917112354
v 37.626968606339716 22.573166503776584 5.605078485608102
v 37.278885839149751 22.612194786579401 -10.165228047966957
v 31.552794474439935 23.135214154796028 10.208182123303416
v 38.822706682010761 22.5179455401667 -9.8095940798521042
v 37.597301503475478 22.642748373772143 6.546380975842478
v 38.244704032501204 22.592269803717681 4.3972598820924773
v 37.840995791829016 22.627675785450855 -10.138176491856575
v 39.020098548754447 22.525032228236469 -9.6620308607816696
v 30.604338481554777 23.267548789553306 8.7661395817995071
v 36.331498449199131 22.79756535163073 7.7066791325807564
v 30.633454452502491 23.357935050068054 9.0574054509401343
v 40.22198350216118 22.532008041297829 -5.0371914118528363
v 40.305395392573615 22.536602041203089 -4.9151718348264692
v 38.91561072007795 22.66586766795092 -10.056807217001914
v 31.552936088587813 23.310816875410655 -9.372811338305473
v 40.501666410322173 22.553382517484188 -5.4310676783323286
v 38.613264175307791 22.730496659053411 -10.160027548670769
v 31.619139956160694 23.344989483828588 10.181657770276072
v 39.620214542793775 22.675322998377801 2.6261188298463836
v 31.50714267584172 23.391229854138803 -9.2188375681638721
v 31.447188512842303 23.400346790483002 10.13404729664326
v 31.753912278155809 23.386536933546896 -9.470816203951836
v 39.076178293759426 22.794106233151169 6.0566501408815405
v 32.168593746876326 23.43729417543797 -9.5908689230680473
v 37.829359092547037 22.954029257992289 6.9137744694948218
v 39.004963659878626 22.854339288725221 6.2065021306276336
v 39.360694340981581 22.823737416319538 5.9431644231081009
v 30.796368706787206 23.570604113318357 9.2664081364870086
v 35.140283102007402 23.209343524410166 -10.14631550014019
v 33.413864843039647 23.367303273567146 -9.9615232676267631
v 30.916696138236688 23.618549918513175 9.436079767346385
v 39.937249065858538 22.837693830855411 5.5450626164674759
v 30.73347810900043 23.641828381977877 9.0932010442018516
v 40.047589268561325 22.864058157126955 5.5113788396120071
v 39.242363566122236 22.935686784100522 6.1239795476198218
v 35.919140394089936 23.284492925846259 -10.208182123303413
v 42.045187748192973 22.751734558741624 -5.5088783472776415
v 41.385469822058297 22.885994192172138 -9.8144697397947311
v 41.894570922945434 22.933598639502065 2.2735843449831012
v 39.70055043517425 23.127871747327173 5.9111118108034155
v 41.330138420950561 23.057945621593788 4.8946109563112259
v 39.95341125747106 23.187568248620479 -10.08801322877407
v 43.361576378825504 22.916030844302242 -5.0491298884153366
v 31.649755993399822 23.983689534286974 10.076353815197947
v 43.319504996478486 22.972720861191295 -2.6694484919309609
v 31.010096728411838 24.079433105701824 9.1806995183229461
v 42.515265318290176 23.081415236108217 3.7128726750612273
v 42.899595351413353 23.055493197547705 1.5869632512331009
v 31.604448228812828 24.186531605863976 9.9239780217409148
v 31.837479212380345 24.170256129470673 10.016003778576852
v 43.039184613540186 23.209530926889943 3.8011737614870071
v 43.800691510512593 23.219986783146638 2.197180536389352
v 31.103061031505121 24.329145068511338 9.0804950505495086
v 45.078092135777666 23.19363280104206 -9.3735593050718311
v 31.989261793214126 24.379495694819781 9.914972284436228
v 45.323325876729115 23.226557462386872 -9.1782110422849659
v 31.260984199978708 24.464038732298746 9.1761203557252884
v 31.152752564264972 24.489494285936086 9.001642206311228
v 45.44468539719233 23.278594168679575 -9.4082045763730999
v 45.175268340502669 23.304131122130535 -9.5711993902921684
v 31.871283924633445 24.47754774388045 9.7951434880495079
v 31.712392759373245 24.569052628911273 -9.271340391039848
v 46.204653268709933 23.319010319145463 -5.6653286188840868
v 46.224372774061123 23.332961744583741 -5.1331367701292034
v 45.600509004410668 23.417084944991501 0.055838373303414457
v 45.600466706615634 23.429742107037413 -9.518660852313042
v 46.241140362436397 23.376408664830763 -8.9785832613706589
v 46.354328344859653 23.366747126993957 -4.6071678370237343
v 31.26161672650943 24.685385128628376 8.9568942815065391
v 31.952356459632767 24.632742821566282 -9.361495324969292
v 31.212106826296662 24.738732651514901 8.7101184636354461
v 45.965352838043543 23.465967645592059 -9.3991714686155312
v 46.435125524931806 23.442494575917543 -9.1870444506406788
v 46.642021789110117 23.438413781870423 -8.7032427042722702
v 32.247976674300645 24.721913789187795 9.7233783513307586
v 45.88732919009621 23.56070717845763 2.1350818425416946
v 45.375641266018334 23.607877206295214 -9.5889794558286674
v 31.322143357363586 24.854388650550938 8.7709354192018516
v 46.699041612380427 23.515543049442854 -8.9721728533506386
v 46.830234021089069 23.557727099860841 -8.7028373926877975
v 31.593857976859141 24.920743583780226 -9.1446925371885293
v 32.305459373407388 24.865795112516938 9.6242023259401321
v 45.736754678222155 23.714441685759645 -9.5314371317625053
v 46.565841439315875 23.645627026054623 -9.2773127764463421
v 31.318150094915467 24.979634064059287 8.5149509221315398
v 31.393367959294409 24.98499349764948 8.6365268498659127
v 32.245613802366876 24.926311320157271 9.517561700940135
v 31.486559760639921 25.022407554988369 -8.9572418421506885
v 32.663688151347486 24.91994243129891 9.5843875676393537
v 46.788988696404772 23.700599241688678 1.7342624455690387
v 46.855860741482161 23.722468315944607 1.4696750432252887
v 31.983567289547835 25.028086470611377 -9.2944877833127979
v 46.684412828773162 23.791121675546712 -9.1863530367612842
v 46.247161321297199 23.834643086347864 -9.4089525431394581
v 46.645277832541694 23.814777775956706 1.9958675175905238
v 46.934297015126759 23.814478604693946 1.7468791753053665
v 46.798433163668761 23.830988757978638 -8.9469511240720756
v 46.870908989539259 23.912589159787466 1.9141032963991176
v 46.975840263071291 23.958375545612714 1.7513858586549773
v 31.634211717313065 25.303880628884972 -9.0393919199705124
v 32.767766015400042 25.229113330139757 9.472711542248728
v 33.080878513519224 25.281039044843659 9.3664706975221641
v 46.947145652298133 24.103323744227559 1.832689264416695
v 46.979235178181597 24.173932958222668 1.6521945744752884
v 31.908508989529764 25.51865246612757 -9.1326791971921928
v 33.480350251115766 25.439716758920909 9.1970599919557579
v 31.569091694902113 25.680830883377755 -8.7584217280149463
v 31.740344672753423 25.674862578760436 -9.0037364214658737
v 31.483304950287675 25.846484718611027 -8.4306797236204147
v 31.421671316939694 25.91510250880911 -8.1827184885740287
v 31.528374359000821 26.03113834826641 -8.2860819071531289
v 31.438156076156616 26.078655301458838 -7.9716316431760781
v 31.482921855229989 26.079979318787029 -8.1436594218015674
v 31.689074554253665 26.090649220736669 -8.4660251826047901
v 31.568946207528114 26.147692645455525 1.9207042485475547
v 46.815851716261733 24.94828840988265 -9.1358948916196816
v 31.528151327740005 26.285866359668045 -7.6962553232908242
v 31.895969576228339 26.628870107895931 4.7392856389284148
v 46.318566748678535 25.389693594168108 2.56233403980732
v 31.638737223425778 26.71048521079063 -5.5992210596799845
v 33.204243697149622 26.609896556332803 -9.4663220137357715
v 32.053460406548226 26.789841767074059 4.8752460271120075
v 32.000433239237964 26.804537603245311 4.6074008733034137
v 34.213265129078081 26.635207964833352 -9.7144114226102829
v 31.71489710319014 26.860990966380676 -5.6767372339963913
v 33.536301952242468 26.716006070185443 -9.5951634138822559
v 31.839251458522369 26.90284197738594 -6.6303871363401417
v 46.762108061006586 25.609740121468835 -9.4590383261442188
v 31.783076802408289 26.935345988942039 -5.8117267817258833
v 31.823717019272891 26.932180637367473 -6.3477035731077187
v 31.946426564955686 26.966874157811414 2.2084323674440398
v 31.893071908319342 27.005811117069523 -6.0173240870237352
v 31.976639474411854 27.024451472872698 -6.8319133967161179
v 32.011611620937231 27.042983469077033 -6.5278290003538135
v 32.192498953717831 27.068529002825368 -7.0024334162473671
v 32.034031825512102 27.094618051602779 2.5433887273073204
v 33.301996001120983 27.005650595886955 -9.3275683611631397
v 32.559837367114568 27.072593611832009 -8.1273128718137748
v 33.654205100119611 26.991900341485064 -9.5542180269956596
v 33.078078668049017 27.048859241329613 -9.0553987711668018
v 32.182927451546533 27.144140140527387 -3.7382694453001015
v 32.168899494391439 27.162621551818809 3.7995487004518509
v 32.113883343117834 27.187330965128933 2.1873920232057582
v 32.499575542803939 27.18534958729127 5.0148669987916961
v 32.184725857293728 27.223436234405689 2.4569888859987259
v 32.242104224114854 27.223627961994513 3.5590320378541946
v 32.78579234144263 27.177958608707822 5.9804202824831023
v 33.522293897008353 27.159971518599974 -9.3149233072996136
v 33.814403875349825 27.209996032894733 -9.4277787417173382
v 33.143097747193991 27.275761167954581 6.7581622868776314
v 32.562081056593684 27.336123886758525 4.3937106877565384
v 34.166417834452432 27.197560828783146 -9.6428113192319866
v 32.700704665223753 27.359142760397432 5.0583652287721641
v 32.685628695617339 27.402016081448295 3.7025745183229457
v 33.058042220137224 27.418479993614795 5.9919437199831016
v 32.829923947683824 27.444198120826908 3.6768329411745082
v 33.332333149436238 27.40668846284953 6.8104541569948189
v 33.409554588918439 27.416631067614347 6.9776263982057571
v 34.415796331284014 27.335278202875394 -9.4676452368497852
v 32.912056962317052 27.467374252757185 3.1798343449831012
v 33.611963813441463 27.420930887720385 7.1181628972291939
v 33.280853909620276 27.469431546319875 6.4047641545534155
v 46.331326899301416 26.345702386723488 -9.814752838015556
v 33.99260955174347 27.48134934061579 -6.5070148676633828
v 34.06707122430123 27.487873569777154 7.3034290105104454
v 33.582543882874404 27.541890758273841 6.9194629460573189
v 33.632004790211425 27.56831570797954 6.7098666936159148
v 33.400327230603949 27.592179297839653 5.0621280461549762
v 33.491169646332708 27.600613801262828 5.651842096447945
v 34.349274531960447 27.545323067664036 -6.5986927241086963
v 34.414142804832125 27.540059994329358 -6.9265178889036179
v 33.625894773342594 27.624348549065598 5.767480829358103
v 37.4778897397251 27.313705573144976 7.3343387395143509
v 34.334949017884668 27.630451566057623 7.2214755803346655
v 46.646213174285236 26.67011823140065 -9.773178598284721
v 34.999340159583085 27.691942792225692 7.4916309148073204
v 35.633912524963733 27.670078391879638 -8.5760463923215866
v 34.577353895745489 27.787645936080299 2.8513950139284141
v 34.752332716504668 27.792242353208049 6.6281528264284155
v 35.29977770167531 27.781665555530836 7.521417596936228
v 34.730843490081469 27.836989302253151 5.7182315617799766
v 35.039616271943288 27.847013514073346 6.5402362614870064
v 35.051820964320996 27.86048527048229 6.2993961125612259
v 35.412919058780091 27.841968835819042 7.3624835759401321
v 37.47771439003094 27.724788103129168 7.3150562077760704
v 46.50316021918303 26.985614609404784 -9.8425196141004569
v 35.999407310117647 27.90267304344562 7.3701358586549759
v 36.34853983239563 27.982291624800812 7.1977527409791939
v 37.266756874913767 27.978566845695195 7.3089465886354468
v 37.532293280978763 27.97583485457519 7.2415317326784141
v 37.421822441011614 28.085806497877087 7.1400470525026343
v 37.237208088465877 28.10204576494985 7.1097232609987273
v 37.428313304991946 28.14945000490723 6.9061084538698196
v 46.713916054867127 27.437631108399781 -9.7204732149839401
v 39.789819644870505 28.122605998064859 -9.6801804751157761
v 38.617837371773476 28.289130914831098 -2.60148431956768
v 38.652776916620951 28.342317491808313 -0.53926965892314804
v 46.85919130646792 27.628070226697837 2.2641452580690391
v 40.122547037733057 28.244023282692503 -9.5460045069456108
v 46.480237324071652 27.750613036095576 2.8829303532838821
v 40.543240796509366 28.304182938209671 -9.5728504389524467
v 46.673923758835684 27.782928781177457 2.7224124699831016
v 46.841551866657824 27.808795238688749 2.4888316899538054
v 40.685878845917131 28.404772769776113 -8.6626965731382377
v 40.972131125437812 28.429676170683742 -8.9658696383237846
v 46.537376547672778 27.96003489598947 2.8784885197877887
v 39.833685493311123 28.590981180227754 3.4987506657838825
v 46.721373206780981 28.01586285364796 2.6844501286745075
v 40.026453296683457 28.631294953770869 3.0911533147096648
v 45.607894948154609 28.15488496261186 -10.149406000971794
v 46.847928663292208 28.050326791706201 -9.5457452028989795
v 41.27849493570065 28.598723841618146 -5.6574279993772505
v 46.516354353033392 28.212348102556948 -9.9256859749555595
v 43.263634844607907 28.556659413697698 -9.9602536886930473
v 46.547514460847793 28.29248373913893 2.8382800847291954
v 46.471403822972746 28.322310403972907 2.8808933049440384
v 44.047642246092039 28.623040036681985 -10.069932159781455
v 44.461700748516392 28.603671420969569 -10.164721408486367
v 46.688448429565483 28.42263393798704 2.6449771672487259
v 46.13363202684377 28.483431448984408 -10.084150847792625
v 46.840250167303083 28.432875696416154 -9.4265001505613331
v 43.589679708515689 28.915626913581544 -5.836560842394829
v 45.643166742204556 28.745762409525987 -10.204981356859207
v 46.668265433899592 28.65672527838305 -9.8054008692502972
v 45.238124937643477 28.837086487437471 -10.026826092600823
v 46.477263188379254 28.740827786712465 -9.9473612040281303
v 46.739372795129498 28.740470125594559 -9.5410394400358207
v 46.599792973355164 28.767731417025825 2.6546222478151336
v 45.518355218852605 28.863232250139369 3.3593082219362262
v 43.972530618829211 29.025148648110992 -4.6597271174192425
v 46.915048552487235 28.783092765362646 -8.8972885340452201
v 46.835270104916845 28.791112343368336 -9.2348682612180717
v 46.6624048282427 28.815245509159475 2.5611858159303669
v 45.985569930823743 28.885532383511986 -9.9999354571104053
v 46.82747714431207 28.812373837972871 2.0449039250612273
v 45.347908799134757 28.976879922093417 3.4265353947877895
v 46.284243821552536 28.915645205170769 -9.9334226578474052
v 44.422972062045403 29.07960634145541 3.357947137951852
v 44.884252622497314 29.048747319708028 -6.0837475031614305
v 45.566265654288657 29.013740508853854 3.2593677312135707
v 46.690006753025017 28.954089921163281 -9.3368369311094277
v 46.556034210072255 28.969015345333123 2.6169437199831016
v 46.839547919881568 28.94519108026434 -8.9859921663999565
v 44.919611395283766 29.116759487414857 3.407263544201852
v 46.405187375025434 28.992858362739366 -9.5753806322813038
v 46.806099551710076 28.97455230237032 -8.6853165835142132
v 45.186725245574252 29.118232446794522 3.3654483586549766
v 46.795675984193451 28.98666894207976 2.226752069592477
v 46.364144082833946 29.043275420704781 2.7255191594362262
v 46.7027640692489 29.015120167027355 -8.9068252772092826
v 45.407462713456937 29.166843219116323 3.2390888005495082
v 45.653176203899079 29.197615039796023 2.6936496526002891
v 46.597670264358555 29.117956491485586 2.3548312932252884
v 46.394782841452724 29.144716794130566 2.5503093510866179
v 46.193391693703688 29.202987046843212 -0.43432810008525813
v 45.963454698025316 29.229330400725601 2.0817699223756794
v 46.68834458726775 29.169626483336828 2.1324710637331012
v 46.151431489338279 29.224288187506033 2.516425684094429
v 46.531335436622726 29.21120156475661 2.2034587651491169
v 46.404364778774635 29.224799014028797 2.3390865117311481
v 46.398522772016037 29.231657429032214 2.1383922368288051
v 46.545944827836536 29.232667485411305 2.06660650074482
vn -0.06271672248840332 -0.99802839756011963 -0.0024376895744353533
vn -0.18041184544563293 -0.98358935117721558 -0.0018778921803459525
vn -0.20384198427200317 -0.97898721694946289 -0.0056986226700246334
vn -0.18277856707572937 -0.98011064529418945 -0.077298574149608612
vn -0.034727022051811218 -0.99608141183853149 -0.081338196992874146
vn -0.20266436040401459 -0.84717786312103271 -0.49113824963569641
vn -0.046306166797876358 -0.99885368347167969 0.012128341943025589
vn -0.69141125679016113 -0.72080546617507935 -0.048887442797422409
vn -0.50653362274169922 -0.8235282301902771 -0.25539180636405945
vn -0.014726640656590462 -0.99961626529693604 0.023462237790226936
vn -0.093869522213935852 -0.99551916122436523 0.011405495926737785
vn 0.038902521133422852 -0.99887973070144653 0.02694205567240715
vn 0.021453974768519402 -0.99969720840454102 0.012048199772834778
vn -0.48479118943214417 -0.58930414915084839 -0.64629566669464111
vn -0.22846835851669312 -0.97346264123916626 0.013140513561666012
vn 0.045146428048610687 -0.99897748231887817 0.0023998674005270004
vn -0.15923109650611877 -0.98092949390411377 0.11145740747451782
vn -0.056018438190221786 -0.99668037891387939 0.059077270328998566
vn -0.63431078195571899 -0.76450592279434204 0.11480655521154404
vn 0.028593201190233231 -0.99943596124649048 0.017611473798751831
vn -0.1316259503364563 -0.96972948312759399 0.20566792786121368
vn -0.040884934365749359 -0.9924161434173584 0.11592515558004379
vn 0.014294445514678955 -0.98109620809555054 -0.19299198687076569
vn 0.04184453934431076 -0.98935991525650024 0.13934127986431122
vn -0.54153615236282349 -0.74995052814483643 0.37988525629043579
vn -0.46514919400215149 -0.7556990385055542 0.46103706955909729
vn -0.020975982770323753 -0.95812690258026123 0.28557467460632324
vn -0.064380906522274017 -0.78663980960845947 -0.61404633522033691
vn -0.9206346869468689 -0.38614171743392944 -0.057674180716276169
vn -0.29846945405006409 -0.42367321252822876 -0.85522919893264771
vn -0.96855664253234863 -0.24508374929428101 -0.042802266776561737
vn -0.25869151949882507 -0.76214432716369629 0.59347677230834961
vn 0.10580979287624359 -0.93677359819412231 0.33355578780174255
vn -0.64019376039505005 -0.40461441874504089 0.65302306413650513
vn -0.026894945651292801 -0.84348756074905396 0.53647494316101074
vn -0.84671670198440552 -0.37757760286331177 -0.37484130263328552
vn -0.90406417846679688 -0.17345726490020752 0.39061558246612549
vn 0.056667119264602661 -0.99624592065811157 0.065443664789199829
vn -0.99605131149291992 -0.083495408296585083 -0.030170336365699768
vn -0.083089247345924377 -0.70198529958724976 0.70732790231704712
vn -0.037710130214691162 -0.69986146688461304 -0.71328246593475342
vn 0.097078941762447357 -0.74651849269866943 0.65824449062347412
vn 0.22762542963027954 -0.87419426441192627 0.42891848087310791
vn -0.65644007921218872 -0.21403948962688446 0.72337651252746582
vn -0.50253623723983765 -0.28379800915718079 -0.81664925813674927
vn 0.13321435451507568 -0.9638068675994873 0.2309335470199585
vn -0.1402791291475296 -0.40771344304084778 -0.90227019786834717
vn -0.28318247199058533 -0.45709902048110962 0.84312999248504639
vn -0.99134957790374756 0.073410540819168091 0.10879737883806229
vn -0.01008603535592556 -0.50542372465133667 0.862812340259552
vn 0.051356367766857147 -0.99839675426483154 0.023799113929271698
vn 0.21542474627494812 -0.89888912439346313 0.38156327605247498
vn -0.9995688796043396 0.01719704270362854 -0.023797629401087761
vn -0.063344240188598633 -0.47740250825881958 -0.87639850378036499
vn 0.28863832354545593 -0.24271821975708008 0.92616188526153564
vn 0.3791038990020752 -0.55162942409515381 0.74295711517333984
vn 0.085110381245613098 -0.99259006977081299 0.086724869906902313
vn 0.056140203028917313 -0.97975045442581177 -0.19219088554382324
vn 0.25551056861877441 -0.85214543342590332 0.45668643712997437
vn -0.26761835813522339 -0.19213196635246277 -0.94417464733123779
vn 0.19922332465648651 -0.93252843618392944 0.30116567015647888
vn 0.059909377247095108 -0.99820375442504883 -0.00042086539906449616
vn 0.057082295417785645 -0.99827516078948975 0.013722779229283333
vn 0.029651593416929245 -0.81049871444702148 -0.58498936891555786
vn 0.32965698838233948 -0.74553757905960083 0.5792236328125
vn -0.084336221218109131 -0.3385254442691803 -0.93717014789581299
vn -0.60600703954696655 0.032855600118637085 0.794780433177948
vn -0.24695026874542236 -0.14348025619983673 0.95834702253341675
vn 0.068938426673412323 -0.8585507869720459 -0.50807285308837891
vn -0.97123771905899048 -0.084253937005996704 -0.22270745038986206
vn 0.45517444610595703 -0.30006882548332214 0.83831673860549927
vn -0.950386643409729 0.20871999859809875 0.23065389692783356
vn 0.44825217127799988 -0.09331357479095459 0.88902336359024048
vn 0.40938341617584229 -0.55462795495986938 0.7244260311126709
vn -0.066956117749214172 -0.2415764331817627 -0.96806907653808594
vn -0.3859635591506958 -0.012536307796835899 -0.92242884635925293
vn 0.0882863849401474 -0.9950796365737915 0.044967152178287506
vn -0.021682675927877426 -0.46369028091430664 -0.88573199510574341
vn -0.055495411157608032 0.061528436839580536 0.99656134843826294
vn 0.10427300631999969 -0.9273301362991333 -0.35942453145980835
vn 0.12292031198740005 -0.98617923259735107 0.1110907644033432
vn 0.099845722317695618 -0.99442881345748901 0.033795952796936035
vn 0.063598677515983582 -0.75982528924942017 -0.64700907468795776
vn 0.094717584550380707 -0.99406886100769043 -0.053438354283571243
vn -0.96838212013244629 0.24946749210357666 0.0014400696381926537
vn 0.44057288765907288 -0.44746407866477966 0.77824896574020386
vn -0.95338881015777588 0.29158264398574829 0.07764887809753418
vn 0.063441962003707886 -0.99795711040496826 -0.0075314226560294628
vn 0.088062770664691925 -0.99597853422164917 0.01648489385843277
vn 0.10065092146396637 -0.80521184206008911 -0.58438283205032349
vn -0.73153179883956909 -0.015065719373524189 -0.6816408634185791
vn 0.099089927971363068 -0.99501776695251465 -0.010990087874233723
vn 0.072132758796215057 -0.31184977293014526 -0.94738936424255371
vn 0.27883076667785645 0.077299565076828003 0.95722419023513794
vn 0.11152880638837814 -0.9931376576423645 0.035197731107473373
vn -0.98778563737869263 -0.00013492994185071439 -0.15581881999969482
vn -0.60329622030258179 0.1739494800567627 0.77831560373306274
vn -0.3684212863445282 0.11549129337072372 -0.92245733737945557
vn 0.19745920598506927 -0.94588857889175415 0.25749698281288147
vn -0.28363198041915894 0.10689371079206467 -0.95295679569244385
vn 0.47655901312828064 -0.17303529381752014 0.86194562911987305
vn 0.39725738763809204 -0.64755958318710327 0.65027165412902832
vn 0.31200176477432251 -0.83078968524932861 0.46091586351394653
vn -0.82895523309707642 0.30810534954071045 0.46680226922035217
vn -0.091263510286808014 -0.060476332902908325 -0.9939887523651123
vn -0.18366357684135437 0.014689831994473934 -0.9828794002532959
vn -0.77182233333587646 0.32095545530319214 0.54888784885406494
vn 0.19489525258541107 -0.96140366792678833 0.19421327114105225
vn -0.8957674503326416 0.38904306292533875 0.21504919230937958
vn 0.34190270304679871 -0.82002812623977661 0.458973228931427
vn 0.47199982404708862 -0.36242079734802246 0.80365872383117676
vn -0.041835147887468338 -0.016443407163023949 -0.99898922443389893
vn 0.12732595205307007 -0.99178886413574219 -0.011958166025578976
vn 0.12581771612167358 -0.86678308248519897 -0.48255261778831482
vn 0.12923564016819 -0.99095094203948975 0.036254391074180603
vn 0.48601663112640381 -0.18151357769966125 0.85489219427108765
vn 0.40363320708274841 -0.70940613746643066 0.57777434587478638
vn 0.098253533244132996 -0.12840671837329865 -0.98684239387512207
vn 0.13307082653045654 -0.99107325077056885 0.0081197135150432587
vn -0.3415953516960144 0.29723915457725525 0.89160615205764771
vn 0.13846738636493683 -0.9899405837059021 0.029059680178761482
vn -0.75983405113220215 0.44835960865020752 0.47077158093452454
vn 0.16815157234668732 -0.98232239484786987 0.082266442477703094
vn 0.14975988864898682 -0.98804557323455811 0.036578141152858734
vn -0.57790088653564453 0.52552098035812378 0.62438631057739258
vn 0.15102140605449677 0.28923022747039795 0.94527161121368408
vn 0.26213061809539795 -0.92906332015991211 0.26101511716842651
vn 0.15801572799682617 -0.98650360107421875 0.042914722114801407
vn -0.72217893600463867 0.47207751870155334 0.50556939840316772
vn 0.1494956761598587 -0.98019903898239136 -0.1298496276140213
vn -0.16528625786304474 0.54757136106491089 0.82027190923690796
vn 0.16013701260089874 -0.98682880401611328 -0.022914959117770195
vn -0.69916695356369019 0.50349116325378418 0.50760442018508911
vn -0.77055209875106812 0.48443585634231567 0.4142116904258728
vn 0.21100403368473053 -0.89527779817581177 -0.39237096905708313
vn 0.16751408576965332 -0.61479640007019043 -0.77069085836410522
vn -0.36028757691383362 0.66004377603530884 0.65919274091720581
vn -0.4311462938785553 0.15581262111663818 -0.88872677087783813
vn 0.17508825659751892 -0.98455131053924561 0.0016743623418733478
vn 0.15339815616607666 -0.98788875341415405 0.023341072723269463
vn 0.16394287347793579 -0.98563140630722046 0.040662441402673721
vn 0.26275384426116943 -0.33670496940612793 -0.90420693159103394
vn 0.18831832706928253 -0.97930973768234253 -0.074085123836994171
vn 0.24191297590732574 -0.96998393535614014 0.024684479460120201
vn -0.65712618827819824 0.61409485340118408 0.43711861968040466
vn -0.36457955837249756 0.16024497151374817 -0.91728037595748901
vn -0.85985463857650757 0.48052772879600525 0.17246191203594208
vn 0.31224104762077332 -0.55451285839080811 -0.77137601375579834
vn 0.32534238696098328 -0.82926779985427856 -0.45438671112060547
vn 0.3472900390625 -0.93633025884628296 -0.051722630858421326
vn -0.2345733642578125 0.60686212778091431 0.7594035267829895
vn 0.19040438532829285 -0.97641420364379883 0.10179159790277481
vn 0.14947384595870972 -0.14249545335769653 -0.97844398021697998
vn -0.56889289617538452 0.70460492372512817 0.4241376519203186
vn 0.68427920341491699 -0.63110882043838501 -0.36532679200172424
vn 0.93880516290664673 -0.32027450203895569 -0.12676414847373962
vn -0.55678671598434448 0.21045747399330139 -0.80355221033096313
vn -0.31043484807014465 0.66242992877960205 0.68177473545074463
vn 0.25741788744926453 -0.16342288255691528 -0.9523807168006897
vn 0.52644747495651245 -0.3464796245098114 -0.77640515565872192
vn -0.7237478494644165 0.64731025695800781 0.23912034928798676
vn -0.58285790681838989 0.72101545333862305 0.37471765279769897
vn -0.4177156388759613 0.72342729568481445 0.54969680309295654
vn -0.90850281715393066 0.1511165052652359 -0.38959777355194092
vn 0.29732736945152283 0.21316428482532501 0.93067580461502075
vn 0.3655904233455658 -0.89670562744140625 0.24952489137649536
vn 0.55223846435546875 -0.83314907550811768 0.029921302571892738
vn -0.39042097330093384 0.19161896407604218 -0.90047413110733032
vn 0.84793686866760254 -0.21779622137546539 -0.48328864574432373
vn 0.27925217151641846 -0.16915836930274963 -0.94520032405853271
vn 0.46601927280426025 -0.64061963558197021 0.61027246713638306
vn 0.74263268709182739 -0.59629690647125244 0.30483880639076233
vn 0.94083541631698608 -0.11339728534221649 -0.31932708621025085
vn 0.63662773370742798 -0.26764166355133057 0.72323793172836304
vn 0.96051937341690063 -0.12134460359811783 0.25035583972930908
vn -0.76331913471221924 0.26118239760398865 -0.59087026119232178
vn -0.068501695990562439 0.57003730535507202 0.81875818967819214
vn 0.28872701525688171 0.24112646281719208 0.92654991149902344
vn 0.8507658839225769 -0.081107050180435181 0.51924848556518555
vn 0.99966305494308472 0.01143651083111763 0.023302875459194183
vn -0.43227720260620117 0.24621817469596863 -0.86747509241104126
vn 0.32677122950553894 0.18510532379150391 0.92679911851882935
vn -0.77898520231246948 0.40179836750030518 -0.481393963098526
vn -0.60786670446395874 0.4013097882270813 -0.68516314029693604
vn -0.85032075643539429 0.37278091907501221 -0.37146878242492676
vn -0.96789777278900146 0.18458272516727448 -0.17059634625911713
vn -0.71788829565048218 0.54115283489227295 -0.43793836236000061
vn -0.94056046009063721 0.33137848973274231 -0.074393272399902344
vn -0.73799014091491699 0.59286719560623169 -0.32230269908905029
vn -0.66873633861541748 0.58901447057723999 -0.45371094346046448
vn -0.91851043701171875 0.39455977082252502 0.025713887065649033
vn 0.97701483964920044 -0.044538818299770355 -0.20846666395664215
vn -0.79568696022033691 0.58972841501235962 -0.13821226358413696
vn -0.87115037441253662 0.48705720901489258 0.062227476388216019
vn 0.51358604431152344 -0.16252714395523071 0.84250479936599731
vn -0.92837852239608765 0.37159830331802368 0.0052947346121072769
vn -0.44957542419433594 0.30386921763420105 -0.83996748924255371
vn -0.69593000411987305 0.69167286157608032 0.19305457174777985
vn -0.75117075443267822 0.64385139942169189 0.14559507369995117
vn -0.094480335712432861 0.10908906161785126 -0.9895317554473877
vn -0.83342134952545166 0.55222296714782715 -0.021416526287794113
vn -0.32664605975151062 0.18556459248065948 -0.92675137519836426
vn -0.77111434936523438 0.62555027008056641 -0.11861491203308105
vn 0.86951637268066406 -0.089606225490570068 -0.48570773005485535
vn -0.66343289613723755 0.74759203195571899 -0.031031066551804543
vn -0.76554328203201294 0.63812482357025146 -0.082098595798015594
vn -0.89221650362014771 0.45061945915222168 0.029862312600016594
vn -0.44071879982948303 0.89750403165817261 -0.015921901911497116
vn -0.5613555908203125 0.81959956884384155 -0.11461444944143295
vn -0.26652064919471741 0.96356558799743652 -0.022541049867868423
vn -0.22716742753982544 0.97245562076568604 -0.052201651036739349
vn -0.80372452735900879 0.59402114152908325 0.034143224358558655
vn -0.49931913614273071 0.54785412549972534 -0.67121994495391846
vn -0.33311992883682251 0.93062096834182739 -0.15157726407051086
vn -0.39965614676475525 0.45624393224716187 -0.79505747556686401
vn -0.56185698509216309 0.70287269353866577 -0.43621864914894104
vn -0.3094196617603302 0.95082199573516846 -0.014037294313311577
vn -0.66978734731674194 0.73750090599060059 0.086471453309059143
vn -0.61145377159118652 0.79114800691604614 0.014462272636592388
vn -0.6762312650680542 0.71307927370071411 0.18501126766204834
vn -0.40248563885688782 0.91542142629623413 0.0029863708186894655
vn -0.47386610507965088 0.87992703914642334 0.034340523183345795
vn -0.66914689540863037 0.71319961547851563 0.20877912640571594
vn -0.35715645551681519 0.82772153615951538 -0.43280050158500671
vn -0.27001276612281799 0.87860757112503052 -0.39388048648834229
vn -0.629355788230896 0.74130767583847046 0.23318269848823547
vn -0.42150649428367615 0.905467689037323 0.049604475498199463
vn -0.21915626525878906 0.56875830888748169 -0.7927701473236084
vn -0.45535886287689209 0.88482469320297241 0.098658844828605652
vn -0.3207242488861084 0.94710123538970947 0.011626840569078922
vn -0.56652265787124634 0.80398422479629517 0.18072468042373657
vn -0.27217072248458862 0.96223914623260498 0.0043509239330887794
vn -0.56050926446914673 0.80225598812103271 0.20546212792396545
vn -0.52075791358947754 0.76075845956802368 0.38737288117408752
vn -0.17843776941299438 0.94125133752822876 -0.28671577572822571
vn -0.23924122750759125 0.97087359428405762 -0.012966074980795383
vn -0.36550816893577576 0.75553339719772339 0.5436663031578064
vn -0.45029300451278687 0.88234031200408936 0.1367911696434021
vn 0.22081544995307922 -0.13370987772941589 -0.96610671281814575
vn -0.20069529116153717 0.97885137796401978 -0.039641238749027252
vn -0.30320596694946289 0.78074240684509277 0.54635828733444214
vn -0.3285260796546936 0.91128528118133545 0.24825337529182434
vn -0.21353088319301605 0.97476732730865479 0.065063394606113434
vn -0.24685207009315491 0.96899294853210449 0.010802906937897205
vn -0.25092199444770813 0.96705031394958496 0.043033003807067871
vn -0.1627953052520752 0.98611986637115479 -0.032639533281326294
vn -0.19127485156059265 0.97968012094497681 -0.06033855676651001
vn -0.19716730713844299 0.97922825813293457 0.047298096120357513
vn 0.43352025747299194 0.018346335738897324 0.90095704793930054
vn -0.27808684110641479 0.84551012516021729 0.45582935214042664
vn 0.55210238695144653 -0.088606752455234528 -0.82905477285385132
vn -0.28383293747901917 0.74833601713180542 0.59952652454376221
vn -0.16452616453170776 0.98366159200668335 -0.073082245886325836
vn -0.17155152559280396 0.98503744602203369 -0.016470996662974358
vn -0.18116107583045959 0.98092371225357056 0.070493824779987335
vn -0.18208514153957367 0.84177529811859131 0.50819224119186401
vn -0.16933965682983398 0.98523527383804321 0.025209775194525719
vn -0.14943866431713104 0.98692703247070313 0.060358576476573944
vn -0.13650776445865631 0.9898141622543335 0.040417276322841644
vn -0.14480574429035187 0.97460329532623291 0.17082057893276215
vn 0.39536988735198975 0.11101753264665604 0.9117882251739502
vn 0.24308855831623077 -0.098268203437328339 -0.96501362323760986
vn -0.064080037176609039 0.90932661294937134 0.4111190140247345
vn -0.12647721171379089 0.98577708005905151 0.1106661781668663
vn 0.06423620879650116 0.72552567720413208 0.68519061803817749
vn 0.28102347254753113 0.46640285849571228 0.8387455940246582
vn 0.097243338823318481 0.84067684412002563 0.53273463249206543
vn -0.05164526030421257 0.95355051755905151 0.29677283763885498
vn -0.10627917945384979 0.99047112464904785 0.087588466703891754
vn 0.80481326580047607 -0.023274511098861694 -0.5930715799331665
vn -0.14653803408145905 0.87713444232940674 -0.45734202861785889
vn -0.1471952497959137 0.98879516124725342 -0.024852953851222992
vn -0.15062583982944489 0.98834198713302612 -0.022179983556270599
vn 0.99859517812728882 0.030331430956721306 0.043446838855743408
vn -0.15198881924152374 0.97462654113769531 -0.16432425379753113
vn 0.51012039184570313 -0.13579848408699036 0.84931498765945435
vn -0.14495745301246643 0.93936312198638916 -0.31078013777732849
vn 0.77300703525543213 -0.077186226844787598 0.62968438863754272
vn 0.95161330699920654 0.021291770040988922 0.30655959248542786
vn -0.14136217534542084 0.98903930187225342 -0.042637977749109268
vn -0.12999787926673889 0.98876011371612549 -0.073851168155670166
vn 0.5592808723449707 -0.024633796885609627 0.82861214876174927
vn -0.11704375594854355 0.99213534593582153 0.044364210218191147
vn 0.79116672277450562 0.038465399295091629 0.61038976907730103
vn -0.13316985964775085 0.99108004570007324 0.0051098163239657879
vn 0.12639443576335907 -0.11539313197135925 -0.98524558544158936
vn 0.94482111930847168 0.0025486759841442108 -0.32757684588432312
vn -0.14534401893615723 0.98887604475021362 -0.031612195074558258
vn 0.49992430210113525 -0.020750474184751511 -0.86582046747207642
vn -0.14420300722122192 0.87342607975006104 -0.46511545777320862
vn 0.6617358922958374 0.14035871624946594 0.73648154735565186
vn 0.52377676963806152 0.16803421080112457 0.83511817455291748
vn -0.12869204580783844 0.78800958395004272 -0.60206252336502075
vn -0.089083611965179443 0.37399798631668091 -0.92314118146896362
vn 0.834381103515625 0.14555840194225311 0.53162103891372681
vn 0.2698701024055481 -0.051698446273803711 -0.96150785684585571
vn 0.95387578010559082 0.13069690763950348 -0.27025789022445679
vn -0.11554147303104401 0.99172431230545044 -0.055974151939153671
vn 0.067267894744873047 0.38787409663200378 -0.91925442218780518
vn 0.81568348407745361 0.20191080868244171 -0.54211848974227905
vn -0.10650241374969482 0.94196581840515137 -0.3183671236038208
vn 0.49631345272064209 0.329140305519104 -0.80333030223846436
vn 0.82926398515701294 0.43738105893135071 -0.34787794947624207
vn 0.63749539852142334 0.23855386674404144 0.73259240388870239
vn 0.48958596587181091 0.15555942058563232 0.85796672105789185
vn -0.11025499552488327 0.99352937936782837 -0.027262851595878601
vn 0.98577225208282471 0.14227372407913208 -0.089505486190319061
vn 0.89992940425872803 0.32197529077529907 -0.29403918981552124
vn 0.80065357685089111 0.24486725032329559 0.54680329561233521
vn -0.022142684087157249 0.91896736621856689 -0.39371144771575928
vn 0.99695158004760742 0.067025437951087952 0.039938699454069138
vn 0.41447070240974426 0.43122419714927673 0.80141109228134155
vn 0.27178645133972168 0.79905998706817627 -0.5363163948059082
vn -0.093935251235961914 0.99495714902877808 0.035162448883056641
vn -0.076064832508563995 0.99615198373794556 -0.043535947799682617
vn 0.45084312558174133 0.54539930820465088 0.70659750699996948
vn 0.59679955244064331 0.73206990957260132 -0.32848739624023438
vn 0.65773320198059082 0.49141502380371094 0.57087498903274536
vn 0.74596238136291504 0.6569753885269165 -0.1091945469379425
vn -0.057120375335216522 0.98838812112808228 0.14080534875392914
vn 0.067080862820148468 0.98502111434936523 -0.15885093808174133
vn 0.46690627932548523 0.88412535190582275 -0.017913816496729851
vn 0.2705763578414917 0.63861197233200073 0.72039097547531128
vn 0.89667528867721558 0.35065764188766479 0.27020862698554993
vn 0.50584125518798828 0.49701893329620361 0.70505094528198242
vn 0.21499776840209961 0.97484672069549561 -0.058735225349664688
vn 0.18531955778598785 0.88274133205413818 0.43176889419555664
vn -0.065492212772369385 0.99759787321090698 0.022567449137568474
vn 0.59694737195968628 0.6763424277305603 0.4315260648727417
vn 0.43995299935340881 0.78882229328155518 0.42918610572814941
vn -0.01477518118917942 0.99974930286407471 -0.016823003068566322
vn -0.043435029685497284 0.99905025959014893 0.0034614051692187786
vn 0.53670763969421387 0.81995296478271484 0.19905291497707367
vn 0.021073754876852036 0.99737775325775146 0.069235526025295258
vn 0.32168087363243103 0.9260561466217041 0.19733589887619019
vn 0.25797751545906067 0.93627405166625977 0.23840822279453278
vn -0.0030198916792869568 0.99991005659103394 0.01306617446243763
vn 0.1685708612203598 0.98478764295578003 0.042156565934419632
f 180//180 175//175 156//156
f 180//180 156//156 307//307
f 180//180 307//307 311//311
f 279//279 175//175 180//180
f 130//130 80//80 136//136
f 84//84 80//80 130//130
f 84//84 130//130 92//92
f 324//324 279//279 311//311
f 324//324 311//311 307//307
f 274//274 311//311 279//279
f 274//274 279//279 180//180
f 274//274 180//180 311//311
f 174//174 278//278 282//282
f 65//65 61//61 103//103
f 18//18 15//15 10//10
f 18//18 10//10 24//24
f 13//13 1//1 16//16
f 13//13 16//16 20//20
f 13//13 20//20 1//1
f 135//135 149//149 130//130
f 135//135 130//130 136//136
f 135//135 136//136 149//149
f 167//167 166//166 144//144
f 167//167 144//144 150//150
f 167//167 150//150 156//156
f 139//139 150//150 144//144
f 143//143 149//149 150//150
f 143//143 130//130 149//149
f 37//37 44//44 97//97
f 284//284 282//282 278//278
f 284//284 278//278 279//279
f 116//116 174//174 195//195
f 277//277 281//281 301//301
f 315//315 301//301 281//281
f 253//253 246//246 288//288
f 319//319 333//333 324//324
f 319//319 324//324 307//307
f 172//172 175//175 174//174
f 172//172 166//166 167//167
f 172//172 167//167 156//156
f 172//172 156//156 175//175
f 179//179 279//279 278//278
f 179//179 278//278 174//174
f 179//179 174//174 175//175
f 179//179 175//175 279//279
f 141//141 144//144 166//166
f 55//55 249//249 94//94
f 55//55 42//42 56//56
f 2//2 15//15 3//3
f 2//2 3//3 1//1
f 2//2 1//1 15//15
f 57//57 51//51 77//77
f 57//57 77//77 81//81
f 57//57 81//81 61//61
f 63//63 16//16 62//62
f 63//63 51//51 20//20
f 63//63 20//20 16//16
f 11//11 10//10 15//15
f 11//11 15//15 1//1
f 7//7 20//20 10//10
f 7//7 10//10 11//11
f 7//7 11//11 1//1
f 7//7 1//1 20//20
f 12//12 10//10 20//20
f 12//12 20//20 51//51
f 22//22 18//18 24//24
f 22//22 24//24 27//27
f 4//4 1//1 3//3
f 4//4 9//9 6//6
f 5//5 1//1 4//4
f 5//5 4//4 6//6
f 106//106 60//60 76//76
f 106//106 76//76 100//100
f 47//47 60//60 106//106
f 58//58 80//80 84//84
f 58//58 84//84 92//92
f 58//58 62//62 16//16
f 308//308 297//297 300//300
f 308//308 300//300 303//303
f 308//308 319//319 307//307
f 308//308 307//307 297//297
f 287//287 300//300 297//297
f 287//287 297//297 307//307
f 287//287 307//307 156//156
f 287//287 204//204 251//251
f 289//289 302//302 300//300
f 289//289 300//300 251//251
f 90//90 93//93 136//136
f 142//142 149//149 136//136
f 132//132 139//139 130//130
f 132//132 130//130 143//143
f 132//132 143//143 150//150
f 132//132 150//150 139//139
f 328//328 327//327 334//334
f 328//328 334//334 332//332
f 329//329 333//333 330//330
f 329//329 330//330 318//318
f 329//329 318//318 324//324
f 329//329 324//324 333//333
f 291//291 282//282 284//284
f 316//316 327//327 312//312
f 323//323 266//266 312//312
f 323//323 312//312 327//327
f 323//323 327//327 266//266
f 261//261 312//312 266//266
f 261//261 266//266 182//182
f 261//261 94//94 249//249
f 272//272 285//285 306//306
f 272//272 306//306 288//288
f 272//272 288//288 246//246
f 126//126 94//94 261//261
f 126//126 261//261 182//182
f 178//178 182//182 266//266
f 178//178 266//266 177//177
f 107//107 37//37 97//97
f 31//31 70//70 36//36
f 31//31 53//53 70//70
f 32//32 44//44 26//26
f 43//43 65//65 56//56
f 43//43 56//56 42//42
f 309//309 324//324 318//318
f 295//295 324//324 309//309
f 295//295 291//291 284//284
f 295//295 284//284 279//279
f 295//295 279//279 324//324
f 276//276 116//116 195//195
f 276//276 195//195 174//174
f 276//276 174//174 282//282
f 290//290 277//277 301//301
f 290//290 301//301 293//293
f 290//290 293//293 228//228
f 299//299 93//93 112//112
f 299//299 293//293 301//301
f 299//299 313//313 302//302
f 298//298 306//306 315//315
f 298//298 315//315 281//281
f 298//298 281//281 306//306
f 331//331 332//332 338//338
f 331//331 338//338 326//326
f 331//331 326//326 315//315
f 331//331 315//315 306//306
f 331//331 306//306 332//332
f 280//280 281//281 253//253
f 280//280 253//253 288//288
f 280//280 288//288 306//306
f 280//280 306//306 281//281
f 247//247 246//246 253//253
f 247//247 253//253 214//214
f 235//235 214//214 253//253
f 235//235 290//290 228//228
f 275//275 277//277 235//235
f 275//275 235//235 253//253
f 275//275 253//253 281//281
f 275//275 281//281 277//277
f 322//322 333//333 319//319
f 322//322 319//319 326//326
f 322//322 326//326 338//338
f 322//322 338//338 333//333
f 317//317 326//326 319//319
f 317//317 319//319 308//308
f 317//317 308//308 303//303
f 317//317 303//303 300//300
f 317//317 300//300 302//302
f 317//317 302//302 313//313
f 171//171 174//174 117//117
f 171//171 117//117 166//166
f 171//171 166//166 172//172
f 171//171 172//172 174//174
f 108//108 61//61 81//81
f 108//108 81//81 77//77
f 152//152 141//141 166//166
f 82//82 95//95 108//108
f 82//82 108//108 77//77
f 119//119 130//130 139//139
f 115//115 123//123 108//108
f 115//115 108//108 95//95
f 124//124 123//123 115//115
f 124//124 115//115 121//121
f 124//124 121//121 144//144
f 124//124 144//144 141//141
f 46//46 57//57 61//61
f 38//38 51//51 57//57
f 38//38 57//57 46//46
f 38//38 46//46 24//24
f 38//38 24//24 10//10
f 38//38 10//10 12//12
f 38//38 12//12 51//51
f 89//89 92//92 119//119
f 89//89 119//119 121//121
f 89//89 121//121 115//115
f 89//89 115//115 95//95
f 89//89 95//95 82//82
f 89//89 82//82 77//77
f 89//89 77//77 51//51
f 89//89 51//51 63//63
f 89//89 63//63 62//62
f 8//8 9//9 4//4
f 8//8 4//4 3//3
f 8//8 3//3 15//15
f 8//8 36//36 9//9
f 45//45 76//76 60//60
f 200//200 106//106 228//228
f 28//28 6//6 47//47
f 105//105 112//112 75//75
f 105//105 106//106 200//200
f 105//105 200//200 112//112
f 78//78 75//75 112//112
f 78//78 112//112 93//93
f 270//270 300//300 287//287
f 270//270 287//287 251//251
f 270//270 251//251 300//300
f 192//192 204//204 287//287
f 192//192 287//287 156//156
f 114//114 80//80 90//90
f 114//114 90//90 136//136
f 114//114 136//136 80//80
f 160//160 170//170 251//251
f 160//160 251//251 204//204
f 160//160 204//204 169//169
f 160//160 142//142 170//170
f 239//239 251//251 170//170
f 337//337 334//334 338//338
f 337//337 338//338 332//332
f 337//337 332//332 334//334
f 336//336 327//327 330//330
f 336//336 330//330 333//333
f 336//336 338//338 334//334
f 336//336 334//334 327//327
f 325//325 318//318 330//330
f 325//325 330//330 327//327
f 325//325 327//327 316//316
f 325//325 316//316 312//312
f 314//314 327//327 328//328
f 314//314 328//328 332//332
f 314//314 332//332 306//306
f 314//314 306//306 285//285
f 273//273 285//285 272//272
f 273//273 272//272 246//246
f 273//273 246//246 254//254
f 273//273 254//254 285//285
f 165//165 126//126 182//182
f 165//165 182//182 178//178
f 165//165 178//178 177//177
f 165//165 177//177 126//126
f 21//21 22//22 27//27
f 21//21 27//27 32//32
f 21//21 32//32 26//26
f 21//21 18//18 22//22
f 25//25 26//26 37//37
f 34//34 37//37 26//26
f 34//34 26//26 44//44
f 34//34 44//44 37//37
f 39//39 53//53 31//31
f 39//39 31//31 37//37
f 39//39 37//37 53//53
f 35//35 32//32 27//27
f 33//33 27//27 24//24
f 33//33 24//24 46//46
f 33//33 46//46 43//43
f 33//33 43//43 42//42
f 33//33 42//42 35//35
f 33//33 35//35 27//27
f 59//59 65//65 43//43
f 59//59 61//61 65//65
f 73//73 282//282 249//249
f 73//73 249//249 55//55
f 73//73 55//55 56//56
f 102//102 103//103 117//117
f 102//102 86//86 65//65
f 102//102 65//65 103//103
f 71//71 276//276 282//282
f 71//71 282//282 73//73
f 71//71 73//73 56//56
f 71//71 56//56 65//65
f 296//296 289//289 251//251
f 296//296 299//299 302//302
f 296//296 302//302 289//289
f 310//310 313//313 299//299
f 310//310 299//299 301//301
f 118//118 136//136 93//93
f 321//321 315//315 326//326
f 321//321 326//326 317//317
f 321//321 317//317 313//313
f 321//321 313//313 310//310
f 321//321 310//310 301//301
f 321//321 301//301 315//315
f 224//224 214//214 235//235
f 224//224 228//228 215//215
f 271//271 290//290 235//235
f 271//271 235//235 277//277
f 271//271 277//277 290//290
f 240//240 246//246 247//247
f 240//240 247//247 214//214
f 240//240 254//254 246//246
f 207//207 201//201 196//196
f 110//110 103//103 108//108
f 110//110 108//108 117//117
f 110//110 117//117 103//103
f 99//99 61//61 108//108
f 99//99 108//108 103//103
f 99//99 103//103 61//61
f 128//128 141//141 152//152
f 128//128 152//152 123//123
f 128//128 123//123 124//124
f 128//128 124//124 141//141
f 127//127 108//108 123//123
f 127//127 123//123 152//152
f 127//127 152//152 166//166
f 127//127 166//166 117//117
f 127//127 117//117 108//108
f 113//113 130//130 119//119
f 113//113 119//119 92//92
f 113//113 92//92 130//130
f 140//140 144//144 121//121
f 140//140 121//121 119//119
f 140//140 119//119 139//139
f 140//140 139//139 144//144
f 67//67 68//68 97//97
f 67//67 97//97 44//44
f 48//48 68//68 67//67
f 48//48 67//67 44//44
f 48//48 44//44 32//32
f 79//79 97//97 68//68
f 79//79 68//68 55//55
f 79//79 55//55 94//94
f 202//202 106//106 100//100
f 202//202 215//215 228//228
f 202//202 228//228 106//106
f 52//52 43//43 46//46
f 52//52 46//46 61//61
f 52//52 61//61 59//59
f 52//52 59//59 43//43
f 88//88 92//92 89//89
f 88//88 89//89 62//62
f 88//88 62//62 58//58
f 88//88 58//58 92//92
f 19//19 31//31 8//8
f 19//19 8//8 15//15
f 19//19 26//26 25//25
f 19//19 25//25 37//37
f 19//19 37//37 31//31
f 29//29 36//36 8//8
f 29//29 8//8 31//31
f 29//29 31//31 36//36
f 14//14 36//36 45//45
f 14//14 6//6 9//9
f 14//14 9//9 36//36
f 30//30 6//6 14//14
f 30//30 14//14 45//45
f 30//30 45//45 60//60
f 30//30 60//60 47//47
f 30//30 47//47 6//6
f 294//294 299//299 112//112
f 294//294 112//112 200//200
f 294//294 200//200 228//228
f 294//294 228//228 293//293
f 294//294 293//293 299//299
f 41//41 28//28 47//47
f 23//23 58//58 16//16
f 23//23 16//16 1//1
f 23//23 1//1 5//5
f 23//23 5//5 6//6
f 23//23 6//6 28//28
f 23//23 28//28 41//41
f 23//23 41//41 58//58
f 66//66 47//47 106//106
f 66//66 106//106 105//105
f 66//66 105//105 75//75
f 66//66 75//75 78//78
f 66//66 41//41 47//47
f 83//83 78//78 93//93
f 83//83 93//93 90//90
f 173//173 169//169 204//204
f 173//173 204//204 192//192
f 173//173 192//192 156//156
f 173//173 156//156 169//169
f 155//155 156//156 150//150
f 155//155 150//150 149//149
f 155//155 149//149 160//160
f 155//155 160//160 169//169
f 155//155 169//169 156//156
f 148//148 142//142 160//160
f 148//148 160//160 149//149
f 148//148 149//149 142//142
f 159//159 142//142 239//239
f 159//159 239//239 170//170
f 159//159 170//170 142//142
f 153//153 239//239 142//142
f 153//153 142//142 136//136
f 335//335 338//338 336//336
f 335//335 336//336 333//333
f 335//335 333//333 338//338
f 305//305 325//325 312//312
f 305//305 312//312 261//261
f 305//305 261//261 249//249
f 305//305 249//249 282//282
f 120//120 97//97 79//79
f 120//120 79//79 94//94
f 120//120 94//94 126//126
f 120//120 126//126 125//125
f 120//120 125//125 107//107
f 120//120 107//107 97//97
f 131//131 125//125 126//126
f 131//131 126//126 177//177
f 111//111 86//86 102//102
f 111//111 102//102 117//117
f 111//111 117//117 174//174
f 111//111 174//174 116//116
f 74//74 86//86 71//71
f 74//74 71//71 65//65
f 74//74 65//65 86//86
f 262//262 239//239 296//296
f 262//262 296//296 251//251
f 262//262 251//251 239//239
f 225//225 228//228 224//224
f 225//225 224//224 235//235
f 225//225 235//235 228//228
f 213//213 224//224 215//215
f 267//267 327//327 268//268
f 267//267 266//266 327//327
f 252//252 256//256 241//241
f 252//252 241//241 177//177
f 252//252 177//177 256//256
f 237//237 177//177 241//241
f 237//237 241//241 242//242
f 237//237 163//163 177//177
f 250//250 242//242 241//241
f 250//250 241//241 256//256
f 250//250 256//256 242//242
f 206//206 193//193 201//201
f 211//211 209//209 210//210
f 211//211 210//210 240//240
f 211//211 240//240 214//214
f 211//211 214//214 209//209
f 236//236 244//244 254//254
f 236//236 254//254 240//240
f 236//236 240//240 210//210
f 222//222 218//218 227//227
f 40//40 35//35 42//42
f 40//40 42//42 48//48
f 40//40 48//48 32//32
f 40//40 32//32 35//35
f 50//50 55//55 68//68
f 50//50 68//68 48//48
f 50//50 48//48 42//42
f 50//50 42//42 55//55
f 98//98 202//202 100//100
f 98//98 100//100 76//76
f 197//197 184//184 213//213
f 197//197 213//213 215//215
f 197//197 215//215 202//202
f 197//197 202//202 157//157
f 183//183 187//187 190//190
f 183//183 190//190 184//184
f 91//91 164//164 157//157
f 91//91 98//98 76//76
f 91//91 76//76 45//45
f 91//91 45//45 36//36
f 91//91 36//36 70//70
f 176//176 157//157 164//164
f 176//176 164//164 183//183
f 176//176 183//183 184//184
f 176//176 184//184 157//157
f 189//189 193//193 209//209
f 189//189 209//209 214//214
f 189//189 190//190 187//187
f 72//72 37//37 107//107
f 87//87 85//85 72//72
f 87//87 72//72 109//109
f 87//87 109//109 196//196
f 87//87 196//196 85//85
f 122//122 109//109 107//107
f 122//122 107//107 125//125
f 191//191 196//196 109//109
f 191//191 109//109 207//207
f 191//191 207//207 196//196
f 17//17 21//21 26//26
f 17//17 26//26 19//19
f 17//17 19//19 15//15
f 17//17 15//15 18//18
f 17//17 18//18 21//21
f 64//64 58//58 41//41
f 64//64 41//41 78//78
f 64//64 78//78 83//83
f 54//54 41//41 66//66
f 54//54 66//66 78//78
f 54//54 78//78 41//41
f 286//286 118//118 93//93
f 286//286 93//93 299//299
f 286//286 299//299 296//296
f 286//286 296//296 239//239
f 286//286 239//239 153//153
f 286//286 153//153 136//136
f 286//286 136//136 118//118
f 304//304 325//325 305//305
f 304//304 291//291 295//295
f 304//304 295//295 309//309
f 304//304 309//309 318//318
f 304//304 318//318 325//325
f 194//194 207//207 109//109
f 137//137 125//125 131//131
f 101//101 86//86 111//111
f 101//101 111//111 116//116
f 101//101 116//116 276//276
f 101//101 276//276 71//71
f 101//101 71//71 86//86
f 216//216 190//190 189//189
f 216//216 189//189 214//214
f 216//216 214//214 224//224
f 216//216 224//224 213//213
f 216//216 213//213 184//184
f 216//216 184//184 190//190
f 265//265 256//256 177//177
f 265//265 177//177 266//266
f 265//265 266//266 267//267
f 265//265 267//267 268//268
f 320//320 327//327 314//314
f 320//320 314//314 269//269
f 320//320 269//269 268//268
f 320//320 268//268 327//327
f 283//283 269//269 314//314
f 283//283 314//314 285//285
f 259//259 258//258 269//269
f 259//259 269//269 283//283
f 259//259 283//283 285//285
f 203//203 193//193 206//206
f 203//203 206//206 209//209
f 203//203 209//209 193//193
f 230//230 222//222 227//227
f 146//146 202//202 98//98
f 181//181 184//184 197//197
f 181//181 197//197 157//157
f 181//181 157//157 184//184
f 185//185 186//186 189//189
f 185//185 189//189 187//187
f 185//185 187//187 183//183
f 185//185 183//183 164//164
f 185//185 164//164 186//186
f 96//96 164//164 91//91
f 96//96 91//91 70//70
f 96//96 70//70 53//53
f 96//96 53//53 186//186
f 96//96 186//186 164//164
f 188//188 193//193 189//189
f 188//188 189//189 186//186
f 188//188 186//186 53//53
f 188//188 53//53 72//72
f 188//188 72//72 85//85
f 188//188 85//85 196//196
f 188//188 196//196 201//201
f 188//188 201//201 193//193
f 49//49 37//37 72//72
f 49//49 72//72 53//53
f 49//49 53//53 37//37
f 104//104 109//109 72//72
f 104//104 72//72 107//107
f 104//104 107//107 109//109
f 145//145 133//133 125//125
f 145//145 125//125 137//137
f 145//145 137//137 163//163
f 69//69 90//90 80//80
f 69//69 80//80 58//58
f 69//69 58//58 64//64
f 69//69 64//64 83//83
f 69//69 83//83 90//90
f 292//292 291//291 304//304
f 292//292 304//304 305//305
f 292//292 305//305 282//282
f 292//292 282//282 291//291
f 147//147 194//194 109//109
f 158//158 177//177 163//163
f 158//158 163//163 137//137
f 260//260 242//242 256//256
f 257//257 254//254 244//244
f 257//257 258//258 259//259
f 257//257 259//259 285//285
f 257//257 285//285 254//254
f 208//208 210//210 209//209
f 212//212 201//201 207//207
f 212//212 207//207 194//194
f 212//212 194//194 218//218
f 221//221 222//222 230//230
f 232//232 236//236 230//230
f 232//232 230//230 244//244
f 232//232 244//244 236//236
f 217//217 210//210 208//208
f 217//217 208//208 221//221
f 217//217 221//221 230//230
f 217//217 230//230 236//236
f 217//217 236//236 210//210
f 168//168 202//202 146//146
f 168//168 157//157 202//202
f 138//138 157//157 168//168
f 138//138 168//168 146//146
f 138//138 146//146 98//98
f 138//138 98//98 91//91
f 138//138 91//91 157//157
f 154//154 145//145 163//163
f 129//129 122//122 125//125
f 231//231 223//223 226//226
f 161//161 194//194 147//147
f 161//161 147//147 145//145
f 161//161 145//145 154//154
f 161//161 154//154 162//162
f 161//161 226//226 223//223
f 161//161 223//223 198//198
f 229//229 223//223 231//231
f 229//229 244//244 230//230
f 229//229 230//230 227//227
f 229//229 227//227 218//218
f 199//199 194//194 161//161
f 199//199 161//161 198//198
f 199//199 218//218 194//194
f 151//151 131//131 177//177
f 151//151 177//177 158//158
f 151//151 158//158 137//137
f 151//151 137//137 131//131
f 263//263 268//268 260//260
f 263//263 260//260 256//256
f 263//263 256//256 265//265
f 263//263 265//265 268//268
f 264//264 269//269 258//258
f 264//264 258//258 260//260
f 264//264 260//260 268//268
f 264//264 268//268 269//269
f 255//255 258//258 257//257
f 255//255 257//257 248//248
f 255//255 242//242 260//260
f 255//255 260//260 258//258
f 245//245 244//244 229//229
f 245//245 229//229 242//242
f 245//245 248//248 257//257
f 245//245 257//257 244//244
f 205//205 206//206 201//201
f 205//205 208//208 209//209
f 205//205 209//209 206//206
f 134//134 133//133 145//145
f 134//134 145//145 147//147
f 134//134 147//147 109//109
f 134//134 109//109 122//122
f 134//134 122//122 129//129
f 134//134 129//129 125//125
f 134//134 125//125 133//133
f 233//233 231//231 226//226
f 220//220 198//198 223//223
f 220//220 223//223 229//229
f 220//220 229//229 218//218
f 220//220 218//218 199//199
f 220//220 199//199 198//198
f 243//243 242//242 255//255
f 243//243 255//255 248//248
f 243//243 248//248 245//245
f 243//243 245//245 242//242
f 219//219 212//212 218//218
f 219//219 218//218 222//222
f 219//219 222//222 221//221
f 219//219 221//221 208//208
f 219//219 208//208 205//205
f 219//219 205//205 201//201
f 219//219 201//201 212//212
f 238//238 231//231 233//233
f 238//238 233//233 242//242
f 238//238 242//242 229//229
f 238//238 229//229 231//231
f 234//234 161//161 162//162
f 234//234 162//162 154//154
f 234//234 154//154 163//163
f 234//234 163//163 237//237
f 234//234 237//237 242//242
f 234//234 242//242 233//233
f 234//234 233//233 226//226
f 234//234 226//226 161//161
