# Rhino

mtllib 19.06_sbe_b_06.mtl
usemtl diffuse_0_0_0_255
v 14.915920362281838 24.78998154394483 3.0567599058151256
v 14.916458365072117 24.647078083591115 3.0270739316940318
v 14.863086350659387 25.093893317534139 1.9320505857467651
v 14.863929299290021 24.737138462842715 3.2589274168014537
v 14.849914754528641 24.651890962203353 1.1895884275436401
v 14.822981066573107 25.832401923696292 2.3127032041549693
v 14.818252224392609 25.900806565120771 2.062402606010437
v 14.806595506412918 25.798701179644603 1.3421816587448117
v 14.794588280984613 24.217945406461784 3.381820178031921
v 14.781161589885357 26.043001073115612 2.2440539121627818
v 14.769533308077996 26.240397070878622 2.0501330137252811
v 14.771318445531222 24.363975649558274 3.5154299497604367
v 14.73303151643529 23.939915649102858 3.4916033506393429
v 14.731300428982991 24.170591527553686 3.6144716978073124
v 14.706119019123719 26.633243413233348 0.77733561992645228
v 14.696956090083745 26.745713596388995 0.91536815166473318
v 14.699220392860298 23.744767753186981 -2.9715729951858521
v 14.684164104607419 24.243617689689106 3.8187670469284054
v 14.664099974877217 26.966501294313343 0.93919475078582693
v 14.660139361132508 23.626841575959705 2.6959765195846561
v 14.642190009525905 23.868359907322308 3.7501139402389523
v 14.632511197938641 23.39270629168842 -3.4420087099075314
v 14.629300593249184 24.077888437609861 -4.8879040956497199
v 14.61457526317389 23.624242300512634 -4.9203500032424934
v 14.587662492692004 23.366294067626409 -5.1557584047317508
v 14.583128116742103 23.557068520456077 -5.4375422716140749
v 14.573462268168953 23.313483034588611 -4.9061013460159302
v 14.551518524151334 23.182627869360328 -3.3089741945266722
v 14.550146419846044 23.186067643327373 -3.6004319429397587
v 14.531675137085927 23.151336393500141 -2.1438672304153439
v 14.512950495932785 26.268262793652646 -4.5318734407424923
v 14.515578406246277 24.191717536072513 -6.2249585390090942
v 14.49788266427737 23.615792422178068 -5.9011979341506962
v 14.465990372517183 24.927391759786094 -6.6403849840164186
v 14.453700680265968 27.944791475553981 -3.6137208223342894
v 14.429348382934563 26.94633499808949 2.2532541990280155
v 14.424716085306216 26.667914586654799 2.6878489255905151
v 14.438342427466978 23.022108388250242 -3.539098477363587
v 14.432971010485517 24.114728462439814 -6.4052029848098755
v 14.431436155013728 23.172403245004766 2.2751284360885631
v 14.424056262914178 23.044904887831613 -5.0326478242874142
v 14.419027798061677 23.267372842452616 -5.9068543672561642
v 14.399903687535698 27.935174796253229 -4.7096741914749147
v 14.404053950598893 26.841287612664836 2.5386049985885624
v 14.395111661288695 23.091176994778763 -5.6152745485305786
v 14.378566762863102 25.272534589984541 -6.8300171136856083
v 14.370615476079479 25.089177092222378 -6.8688674211502079
v 14.360551468746223 27.520150003649768 -5.8694018602371223
v 14.372061477849854 23.362436188255764 4.0548670530319217
v 14.352401642730626 28.103583662995042 -5.437387394905091
v 14.365679156380395 23.009082455952768 -2.0355744600296024
v 14.342146799874001 28.138635773117976 -5.0455315828323366
v 14.337065778903138 27.853830827643481 -5.7056916475296022
v 14.339316877431372 23.484030622857901 4.4034708738327026
v 14.326096620582405 26.602505577417173 -6.4690394639968876
v 14.3134035468874 28.251033019762865 -2.9962670564651486
v 14.313434764043961 27.533834343623322 1.4271723508834846
v 14.312095743483496 25.852945713425129 -6.7825569391250617
v 14.285903508320871 27.748732044918565 -5.9932959794998171
v 14.296100995510756 23.436373637325111 4.4564921140670783
v 14.282849177687922 26.162125169197253 -6.7060871362686161
v 14.278739442253709 23.309973476958415 4.3337122678756721
v 14.27269154073889 23.503371187143397 4.5676867246627815
v 14.268051905008235 23.901538140451464 -6.6683694124221802
v 14.27121279329549 23.01411964118109 2.0646143674850475
v 14.223249510830897 28.371864376988306 -2.6152177095413212
v 14.230188179878041 23.271421069105664 -6.5177870988845825
v 14.217338497857043 22.979504812682499 -4.9567326784133918
v 14.214287822695951 22.992835021449295 -5.5613353013992306
v 14.188840937148825 28.198045259415352 -5.8231158494949344
v 14.181957166739153 28.316767720649779 -5.5198920488357546
v 14.167694363631199 25.387996535753665 -6.9597823381423956
v 14.148815051317115 27.971570840449697 0.83933665752410924
v 14.113372361808672 28.587176995147402 -2.6725068330764774
v 14.085560058978444 28.598596613787372 -2.4977429628372194
v 14.100183431900405 22.980262657309183 -1.9109769105911258
v 14.080696452247025 27.811678513338148 -6.1777932405471798
v 14.053089576523291 25.763656606754314 -6.945557713508606
v 14.05132390899189 23.026967034327665 -6.5123749971389771
v 14.027707177985178 28.745090727401681 -3.8781834840774536
v 14.022641758244106 28.165871648821817 0.76144206523895264
v 13.983078108675727 23.406732265224093 -7.0424719095230106
v 13.937481397866406 22.9698465521173 -5.959437680244446
v 13.913175078008635 28.701655673475102 -1.9733441591262819
v 13.896492817257979 23.050487787186128 -6.8001194238662723
v 13.821933063452605 23.043133123426053 4.9563006162643433
v 13.789792802266788 23.382267302241637 5.4369402647018443
v 13.757055423958775 28.296156034847733 -6.19211323261261
v 13.745063966498776 28.95887221381895 -3.9218228578567507
v 13.743061987939655 28.709443111121647 -5.8584435701370241
v 13.722775615798412 28.923266748582307 -3.2659810304641725
v 13.717653328789083 23.160550047615402 5.4723849058151242
v 13.675272421513739 28.822807586929972 -5.5455489397048954
v 13.666226072114227 23.34273592728287 5.6339693784713756
v 13.649632322410412 22.996727642800987 5.0274508237838749
v 13.599227628093445 28.893490462841129 -5.3155583620071418
v 13.597125345019776 23.050882573292199 5.3246340513229367
v 13.557401820678024 23.409249128271387 -7.4148191690444953
v 13.554277855384612 23.23541907028762 5.7021746397018429
v 13.493915757549473 28.859419205453811 -5.8035058259963996
v 13.473276139655923 28.798947339604329 -6.0715600252151489
v 13.449210927591764 28.908768182298957 -5.4129613161087038
v 13.42104073136187 23.175480053115152 5.7572054624557492
v 13.395642715811903 23.113109893306682 -7.3440774202346804
v 13.374706476819313 27.78637315501987 -6.6623790025711065
v 13.392378520588977 23.023206693489676 5.4042208433151249
v 13.361953540408479 26.787738934193019 5.4436693906784068
v 13.323423313883268 23.103875988644099 5.691420245170594
v 13.249705943473941 28.485280409576887 3.9807932615280155
v 13.240618060278109 28.653968782745505 3.1892496824264533
v 13.149534384576384 28.607161473309784 -6.3604308366775513
v 13.168480556977784 23.177196410368669 -7.5688018083572395
v 13.157523718734865 24.010935991217504 -7.5545056104660038
v 13.112437981959602 28.891202626896817 -6.0778392076492311
v 13.084772533259866 27.822905499929782 5.6620287656784054
v 13.077706341237956 24.706483924952696 -7.4537410020828254
v 12.963566756235366 29.107538275807176 -3.0986233949661255
v 12.939689100123758 27.964165252962278 5.6784975767135624
v 12.935780415480849 28.880768520089486 3.6010729551315315
v 12.875745167181719 28.930608023245519 -5.9638484239578249
v 12.751741734215329 28.603932253688754 5.0310030698776256
v 12.748812109998426 23.024698797634855 -7.5162245035171509
v 12.738383580184063 23.306943608225435 -7.8116042852401737
v 12.717337526885103 28.699826472495072 4.8324389219284054
v 12.648229636239137 24.498393776738229 -7.6158953905105591
v 12.540130135485754 29.001559263853302 -5.3683175325393684
v 12.395823255421305 23.041589429013669 -7.7718062639236454
v 12.390651477882159 23.837235780744599 -7.8012509584426883
v 12.371596950812318 28.516541642937948 5.5196718931198117
v 12.058368863838268 23.426919033182386 -7.9008622407913212
v 12.008733943251514 29.250430936375338 4.3088274717330943
v 12.002293098317807 28.55410003778265 -6.641276097297669
v 11.983390758021869 22.998418933647368 -7.7865107297897342
v 11.888058434489039 25.7062142122561 7.6188158750534054
v 11.862259188831842 29.03369861637751 5.2155474424362183
v 11.849074744751192 27.397440811823238 7.4913424253463745
v 11.84378066622827 26.885158930181571 7.6637545347213756
v 11.828096667520867 28.883312403181655 5.5625658750534068
v 11.832294925730707 27.176026667608166 7.6237398862838752
v 11.765576144944134 25.76626071883878 7.7377840757369984
v 11.747798570487532 28.95135067948647 -6.535579037666321
v 11.724020252723221 29.295253551086791 4.7828448057174686
v 11.728826889600214 27.404908126599121 7.6306353330612193
v 11.711352861772468 27.11702288466978 7.7698549985885617
v 11.692588640186443 29.226429962189766 4.9874148130416867
v 11.679925564917369 25.645755793099372 7.7826372861862172
v 11.662377837904955 25.753325205597303 7.8088991880416874
v 11.635192812301568 29.306335417522302 4.4142855405807495
v 11.625454422850851 29.007511849746709 5.5704699277877818
v 11.600465217207216 29.083803021106032 5.4375490903854367
v 11.605451632725533 24.953650173398863 7.7422732114791888
v 11.554229413527082 27.024064521016367 7.8869387388229359
v 11.541731515270499 24.771457037129686 7.7592745542526256
v 11.476823143512831 23.496905905009648 7.5705218076705929
v 11.461944875689426 25.962358294445792 7.9141817808151256
v 11.439877201393131 24.680236530771996 7.8167299985885617
v 11.410968106208998 28.997453437853057 -6.3294692277908329
v 11.409395686167443 27.2276246228551 7.8194521665573138
v 11.369258167841906 26.907922666571274 7.9555285215377811
v 11.367781348181609 23.251804378970924 7.561598467826844
v 11.271993780293371 29.337327380907738 4.9665682554244999
v 11.242774013478879 23.352349505409673 7.7373110532760609
v 11.160856742010139 23.205591956251624 7.6268481016159058
v 10.962126248461914 27.655125074703697 7.6087252378463752
v 10.94048072426034 23.145176801910829 7.556726336479187
v 10.921232722086813 28.018086306466902 7.3724428892135627
v 10.871750293183936 27.941890113165069 7.4426256895065315
v 10.774500584996474 22.771729562582379 -3.1744733095169071
v 10.76287558400918 24.395800492781301 8.1214083433151263
v 10.683915933040794 27.638001158411143 7.6135241270065315
v 10.689527033854574 23.888501897675372 8.0760470151901256
v 10.582915097288833 27.586967987024543 7.6209627866745002
v 10.565821398696983 22.764070748802503 6.2431444883346554
v 10.551233151543556 22.797006384518951 6.7447375059127808
v 10.508791983229173 24.840267298054044 8.2936449766159068
v 10.489386100603951 22.834586078990359 6.912195086479187
v 10.486822548785199 22.762388204464216 6.504907488822937
v 10.479201836772518 23.357128658591407 7.7937166929244999
v 10.475110901829396 24.191011896735866 8.1753512144088756
v 10.393895017026068 22.75279309195934 -3.2374989748001095
v 10.349075617485425 22.747864753826406 6.253869891166687
v 10.324092564879322 24.847267726133762 8.2853213071823131
v 10.312871473862685 24.65325106836243 8.2970125913619999
v 10.28860384578303 27.931301642024913 7.3855440855026249
v 10.298588195173636 22.757769425415052 6.7554674863815318
v 10.213245165903061 23.017964258497297 7.5187075376510624
v 9.9032116879116074 23.206992236816276 -8.2215978145599369
v 9.7364346814528062 24.745867572194864 8.1638613462448131
v 9.7132914533016219 28.781467379428403 6.5536547422409068
v 9.6303892871262633 28.510371139320174 6.8766665220260617
v 9.6433730431878075 23.791503794671407 -8.1396324872970585
v 9.5837204911076128 28.868747749699935 6.4240710020065315
v 9.55600366955548 29.157912199167718 5.7235110044479374
v 9.5134698400244702 28.748939613687551 -7.0231391191482544
v 9.3489232900296884 28.275575085343071 -7.2099072694778448
v 9.1775528065705885 23.020532035202173 -8.1969214916229252
v 9.1651931252564509 22.832833692607807 7.2377337217330933
v 8.9603815682219192 22.891683554061384 7.5091555356979374
v 8.9125705870987986 22.851050405092984 7.3111498594284061
v 8.7865442434421652 23.683561555205547 -8.207242035865784
v 8.521897769114787 23.064142710263994 -8.2970125913619999
v 8.4994579906621652 23.428728859517811 7.9362704038619984
v 8.432316455120997 28.78548830038801 6.377466082572937
v 8.3378758041217225 29.36448483837372 -2.3815167665481569
v 8.3298264422568309 23.368675072984402 7.8504839658737193
v 8.2835886940405317 29.45884448306429 0.4739657163619988
v 8.2819493489899401 23.517958172650097 7.9687380552291867
v 8.2042391733103273 29.299294260263579 -3.827519726753235
v 8.1696066241226504 23.683178295800356 7.9801790952682499
v 8.152270293884385 22.89648238921054 -8.1185264825820926
v 8.1054682444124637 28.741785421775703 6.3648562192916867
v 8.1230384517046446 23.536188912152326 7.9367113828659068
v 8.0821392588626964 23.812258894328853 7.9520754575729367
v 7.9768943111350268 23.673211887568712 7.9194018125534047
v 7.9291800037121334 23.322917984537817 7.7248446226119984
v 7.9072553542509354 28.376252906807025 6.6303026914596561
v 7.909596276454181 23.611982842651098 -8.204062128067017
v 7.8705157603902762 28.225184956826897 6.6863558530807499
v 7.7772564491197613 29.474550397739613 -0.036553692817687278
v 7.7972242455825835 23.782562923685482 7.8188677549362193
v 7.7387562889572337 24.817201212578972 7.5592653989791874
v 7.741527661809755 23.389930943056051 7.6707049131393443
v 7.6994182350652522 22.843017225516061 -8.071814322471619
v 7.586517858781292 23.213499483108013 7.4954592466354377
v 7.5436433983211373 29.433062517355136 5.084009051322937
v 7.5390349002706216 29.210104305258763 5.5333666563034054
v 7.5133229423765897 28.021292475515438 6.6029864072799693
v 7.4815590916554129 29.50410998187305 4.835371661186219
v 7.4827279116752266 28.498492418174468 6.3729723691940308
v 7.4672795162233001 29.124562229436755 5.639784502983094
v 7.4461744946363524 27.625024583413236 -7.5411541700363163
v 7.4056331877033585 27.72332808299161 6.6498034238815311
v 7.3910287388602569 22.756043561358243 6.7676592588424693
v 7.3581449996541437 24.006913018372728 7.5479052305221561
v 7.3304531355232712 23.751464233434419 7.4904665708541867
v 7.2833305193606748 28.502379280628443 6.2876894712448124
v 7.272177375648937 24.592484188328534 7.4515505552291881
v 7.1983779887323749 22.891820896784829 6.9448702573776249
v 7.1583530088653902 24.723417931383935 7.3656512022018443
v 7.1307354306113666 29.515930821451526 4.8355623960495002
v 7.116230414062386 27.767120426476513 6.4758074522018436
v 7.1312420199357121 23.028583994214806 7.073114275932312
v 7.1105629837380206 22.777420319447717 6.6901247739791874
v 7.0824995161335096 29.536760607922062 4.6880953550338749
v 7.0902997964487895 23.839758364716065 7.3328097105026249
v 7.0564187216924665 23.190529274729041 7.0977495908737183
v 7.0212942097388691 27.987958694754873 -7.4975682497024536
v 6.9848166722318865 22.878944117768686 6.7928683042526252
v 6.9595875196482666 23.718676384703059 7.2044390439987183
v 6.8870503725552226 22.685562749676041 6.2053942441940304
v 6.8577826983920431 22.983329704101767 6.8681353330612183
v 6.774931082439366 22.832261335671959 -8.0535961627960209
v 6.6903968486983558 22.720546420927771 6.3319674253463756
v 6.6162486220230221 22.653913654085407 5.9109972715377808
v 6.5539083888160121 22.703539490215817 6.1774660825729377
v 6.4973091113164969 22.822976785903066 6.3802523374557492
v 6.4112545776523575 29.56484935294085 1.6768114805221561
v 6.3200386742260548 28.455453100581504 -7.4507965326309211
v 6.1731550206353063 29.58734931235605 4.3107409238815304
v 6.0649959504651179 29.557294539124491 4.4758600950241085
v 5.9544530879999229 29.595312723457766 4.2702456235885631
v 5.8457214376939532 28.619328580905396 -7.4449135065078735
v 5.7303410620232853 29.086961075963433 -7.2584195375442508
v 5.7086199144235934 22.880397033097047 -8.0647481918334964
v 5.4962880701374388 28.343430248438871 -7.5162811517715458
v 5.3180549944622726 28.909567636091438 -7.4137105226516731
v 5.208782159921725 29.323580879754513 -5.83132050037384
v 5.0799042879680769 29.614658692395182 0.88882319927215647
v 5.0331453306444587 29.583172364068631 -0.49332249164581299
v 4.8537311697542123 29.603590924608579 -0.093738293647765758
v 4.8446097558136785 29.552980406186048 -1.3982877016067503
v 4.844602028186614 27.980835514438365 -7.5576080560684211
v 4.6099334223349615 29.194849390682194 -7.110743069648743
v 4.5789611863526716 22.718033862026342 -7.8745855569839485
v 4.5518921656831708 29.530076143031302 4.0908503293991085
v 4.4820536830317792 29.280449332517087 -6.8302256822586065
v 4.4537059807028641 29.324873986689944 -6.2854899644851692
v 4.2064760379332711 28.921285561567263 -7.1922642946243291
v 4.160743677570224 29.203153646800885 -6.9978190660476685
v 4.1731327342936879 22.917143822830244 -7.9857213735580448
v 3.9334172653240103 29.638188803911287 3.6913859128952033
v 3.9594001393996905 22.635051646772144 3.6190317869186401
v 3.920115828897849 23.651988817238873 -7.9246146917343143
v 3.8728739238480898 29.670211477915444 3.4796519041061398
v 3.84649892035128 29.698822374590542 2.907301592826844
v 3.7737237628573439 29.656719216166188 0.21374690532684326
v 3.6892971855619408 29.691702095469321 3.1113909482955933
v 3.6812912735614418 28.910339295339057 -7.0845170259475712
v 3.6900220999687008 22.784048672629076 -7.7054543733596805
v 3.5928789495814613 23.087159325329264 -7.8717394113540653
v 3.5530084646948126 29.619283421107482 -0.85382282733917236
v 3.5524325746721956 29.678844132112634 3.2389925718307495
v 3.5442830706826953 29.655092468580406 3.4348238706588745
v 3.4619983697397174 29.272143035794315 -6.6541058778762823
v 3.3889203252103925 29.587314859828297 3.4516466856002808
v 3.2580694670064076 29.347464671711272 3.7027613401412971
v 3.1899623352514368 29.070941201474731 -6.8738712549209602
v 3.0477901738192372 29.625552577770499 -0.92401325702667236
v 3.0637746564036092 22.630603602081962 2.7403071165084842
v 3.0180747827660639 29.258758810683833 -6.5730376482009891
v 3.0297223263654587 22.964245575663849 -7.6277209520339966
v 3.022909272656932 23.844348951131508 -7.7478213548660282
v 2.9815007895745111 22.668530807969123 3.2605578184127815
v 2.920768426870552 22.828871161677171 3.2846468687057495
v 2.8938407876402152 22.637126674205156 2.9946764707565308
v 2.792031395341553 29.698298397326191 2.6425799131393433
v 2.8025397876808142 22.814758487792197 3.1370867490768433
v 2.7040168397077196 28.52762179720234 3.7867708921432506
v 2.7228452783032822 22.63250092041843 2.4512606382370006
v 2.7133412925001608 22.729978866348642 2.9623194456100475
v 2.7019655912960161 22.857901005763054 3.0389620542526252
v 2.6948849918190945 22.822107143077478 -7.3830200433731079
v 2.6090759928768534 29.629332252572794 2.6338083982467655
v 2.5673945891688277 22.655353226645538 2.2600817441940304
v 2.4504649311763842 28.008052519702566 3.7178118467330936
v 2.4178722720573091 29.095869419937596 3.2457995176315304
v 2.401220034250116 29.630106974815849 2.3815378904342648
v 2.372332297073001 29.572376906888358 2.5313425779342662
v 2.3310372798228514 28.967110189015489 3.2882975339889526
v 2.2679760277337664 22.998906813040364 -7.3835088014602661
v 2.2495169064211495 22.563695398489934 -2.082596707344055
v 2.2278627972798972 23.507009766324892 -7.4643088579177856
v 2.1971963738224076 22.741900209973519 -6.7621244668960578
v 2.1688956407926412 29.40099144876983 2.6920122861862179
v 2.0834435761221357 29.363476649798628 -5.6329711198806764
v 2.054896175129727 29.333751990350905 -5.8309121370315555
v 2.0517368993842524 29.634470249151267 1.782699084281921
v 2.0368293015883978 29.716668400328292 1.1656267881393436
v 2.0303707826540744 22.689607268824684 0.8325625181198113
v 1.94941240683346 22.565674642468537 -1.9241704225540159
v 1.9088103181618976 29.131922065013672 -6.0821099519729618
v 1.9257747564488454 22.700278932014292 0.46032207012176585
v 1.9028170528728197 22.740514875309614 0.93766582012176514
v 1.867040119711362 29.64768258688666 1.3076586484909054
v 1.8421548934255156 28.513659805295777 3.1001940488815318
v 1.7606872390564945 29.260275100827009 2.4607523679733276
v 1.7193923732660323 28.815600137056187 2.8345125913619995
v 1.6485915283905683 22.886540829179907 -6.8762077569961555
v 1.5819769332661053 29.115908812240413 2.5212572813034058
v 1.5783314425856929 29.325317440930085 -5.6574298143386841
v 1.5570772091434151 22.731781028133124 -6.3417746782302862
v 1.4797033115224849 29.504477715675758 1.3513163328170776
v 1.4020472547357485 23.539147431376058 -7.0570512056350712
v 1.3643366334473512 29.05658227633981 -5.7955308198928837
v 1.3491530392139452 27.702525092064679 3.0038103818893429
v 1.3605107270947769 24.026437460109186 1.3325320005416881
v 1.3102866940398599 23.893068916376649 1.0087534666061408
v 1.2147242116191137 27.670800686833829 2.892653918266296
v 1.2030628452771452 29.162393417418311 -5.5538815736770637
v 1.1979062682291897 27.304240514056215 2.9239222288131721
v 1.2080564916181515 24.080176215880474 0.99863612651824951
v 1.1666253955765455 29.365636362959251 -4.3811394929885861
v 1.1115587581534214 27.917077609887599 2.7357355833053596
v 1.0778413147690458 28.906871402513453 1.7785357236862183
v 1.0517058224200468 27.142113021802245 2.8070673704147335
v 1.0395960804402193 28.923924898815933 1.6296908140182502
v 1.0489537020989701 22.848734855849091 -6.3637358903884893
v 1.0109498352813375 29.190115574386176 -5.1106913805007936
v 1.0228560999910314 22.704165713500906 -5.251033520698547
v 0.99494647267715663 22.73858756155532 -5.9072299242019657
v 0.96163535619893992 29.3363392380565 -4.5423909425735474
v 0.96386190863671573 24.973578537949106 1.515455889701844
v 0.95053260825130792 23.216278152582031 -6.5887791872024541
v 0.89731719896150253 27.9098941586842 2.5375773191452033
v 0.90151566527185878 22.71721864099446 -5.4802163362503054
v 0.87875173768287596 27.357738075761787 2.5571451902389537
v 0.83236682132957185 26.818851535092218 2.4722773313522346
v 0.7975724094361567 26.997714411696521 2.4423556089401242
v 0.76617061330745173 27.125519523845458 2.4112124204635617
v 0.71291367407684447 25.091666285366706 1.0600908994674683
v 0.69011235301297802 22.832162210993811 -6.0289157152175905
v 0.66874871842043149 26.623670556650797 -7.1619076967239383
v 0.67464128943942114 22.727393132771866 -5.5265916109085085
v 0.6543157357903624 23.053176054601998 -6.2335385560989387
v 0.62901602614016383 29.270340435326684 -4.1574372529983519
v 0.62468035068633299 23.249998602716186 -6.3092721223831179
v 0.60066998724823861 28.230865412577955 1.3234987974166881
v 0.56600252457400302 22.888011758122818 -5.6339068651199344
v 0.54183353576689797 28.089284703756206 1.2675898313522342
v 0.53305714136752158 29.34518762611286 -3.4675820589065554
v 0.52124008257072774 23.049548354786438 -5.9466584444046022
v 0.50508836583247785 25.428074051439346 0.90729167461395299
v 0.46497285559092916 23.327599417307432 -6.0749543428421022
v 0.44153818795695088 29.230501501427998 -3.8706345796585087
v 0.41609993561246483 29.252440631170003 -3.4285886049270626
v 0.37618722113330705 26.984861192579142 -6.9871320009231574
v 0.36205641098018759 26.20349178303448 -7.1375979661941535
v 0.28955964641431819 25.899644580646715 0.72990520000457693
v 0.26892004034169759 29.051196232625617 -3.2631798982620239
v 0.2689057871916134 27.287942581453361 -6.7110343217849735
v 0.23520958734383157 27.04600023149289 1.1072893857955926
v 0.22853310591398213 27.257135643319209 1.0004984617233283
v 0.20329732171649084 23.980343595359521 -5.8916314363479616
v 0.16984843966338303 27.098594666404495 -6.8143172502517704
v 0.13936782729689412 27.178170054644067 0.78045604228973353
v 0.13657525925111713 26.509449571551805 0.87834498882293666
v 0.1114069958808841 28.735845479401288 -4.649318432807922
v 0.11349867431619032 24.379356239223831 -6.1967028856277473
v 0.10247762543417593 26.674839551735346 0.83095881938934291
v 0.093790656111309545 26.599279736094768 -7.0847703218460083
v 0.092164263804249913 26.501939956951279 0.75990703105926549
v 0.085070106903458509 25.767731073949047 -6.9911075830459595
v 0.062486770589543994 25.436249091779978 -6.8204803705215458
v 0.061117728048827757 25.583543712494329 -6.9148494005203247
v 0.035189818833032405 26.95304575192317 -6.829751896858216
v 0.023403864529200291 26.797342397424554 -6.9267107248306274
v 0.0090053615798524334 28.58091102368569 -4.6690091371536262
v 0.016292900173880298 26.336646092759477 -6.9667263269424442
v -0.013475131490508829 26.752286091483835 -6.7578507661819458
v -0.018058621306693112 25.738303721135878 -6.7756367921829224
v -0.034973656181932711 26.290390410934499 -6.753296971321106
v -0.059486388827224346 28.509443312635138 -2.4879021883010868
v -0.081688602976726088 28.454321375774967 -4.5668675661087033
v -0.15068530491458887 27.055545916876802 -2.3278100252151486
v -0.16151026280840597 27.937907548668075 -1.7615895509719852
v -0.23565036040179166 27.847761320411067 -1.9429696321487429
vn 0.9865727424621582 0.11964749544858932 0.11116960644721985
vn 0.98953372240066528 -0.1125967875123024 0.090249307453632355
vn 0.99839073419570923 0.042269397526979446 -0.037804681807756424
vn 0.95244354009628296 0.055091343820095062 0.29969355463981628
vn 0.9991689920425415 0.016542265191674232 -0.037251293659210205
vn 0.97366172075271606 0.19156791269779205 0.12363105267286301
vn 0.9940561056137085 0.10832029581069946 -0.010917500592768192
vn 0.99736142158508301 0.063749909400939941 -0.034729998558759689
vn 0.96999198198318481 -0.10614688694477081 0.21874289214611053
vn 0.91960197687149048 0.29030090570449829 0.26468396186828613
vn 0.95297330617904663 0.26608660817146301 0.14505112171173096
vn 0.96616876125335693 -0.070864632725715637 0.24798408150672913
vn 0.9501957893371582 -0.24879279732704163 0.18769681453704834
vn 0.96280407905578613 -0.10024354606866837 0.25091740489006042
vn 0.99364358186721802 0.1099461242556572 -0.024172542616724968
vn 0.99121749401092529 0.13170282542705536 -0.011927033774554729
vn 0.99696916341781616 -0.071312405169010162 -0.031097954139113426
vn 0.92553496360778809 -0.031657755374908447 0.37733656167984009
vn 0.93105101585388184 0.35709613561630249 0.075008988380432129
vn 0.92401868104934692 -0.38046467304229736 0.037896502763032913
vn 0.93324726819992065 -0.21852254867553711 0.28512704372406006
vn 0.95584481954574585 -0.29377877712249756 -0.0073948027566075325
vn 0.99809432029724121 0.02905639261007309 -0.054437950253486633
vn 0.99782800674438477 -0.045348413288593292 -0.047778595238924026
vn 0.95743417739868164 -0.27836686372756958 -0.076365597546100616
vn 0.98489147424697876 -0.11427803337574005 -0.13011282682418823
vn 0.91069060564041138 -0.4120481014251709 -0.029308829456567764
vn 0.88333362340927124 -0.46873083710670471 -0.0036259549669921398
vn 0.88316339254379272 -0.46875619888305664 -0.017030619084835052
vn 0.86718845367431641 -0.49785366654396057 0.011219380423426628
vn 0.996867835521698 0.061600111424922943 -0.049598123878240585
vn 0.9671822190284729 -0.10639823228120804 -0.2307334691286087
vn 0.95041763782501221 -0.18915285170078278 -0.24683496356010437
vn 0.94685280323028564 -0.04495515301823616 -0.31851032376289368
vn 0.98384708166122437 0.17724081873893738 -0.02511114813387394
vn 0.89204096794128418 0.40731188654899597 0.19585691392421722
vn 0.90393334627151489 0.32816094160079956 0.27425339818000793
vn 0.61584728956222534 -0.78786545991897583 0.00037169692222960293
vn 0.91243875026702881 -0.15863785147666931 -0.37721282243728638
vn 0.75207209587097168 -0.65656101703643799 0.057578094303607941
vn 0.68477332592010498 -0.72722887992858887 -0.04715588316321373
vn 0.92239415645599365 -0.31827104091644287 -0.21884365379810333
vn 0.99670904874801636 0.063894614577293396 -0.049885295331478119
vn 0.89417469501495361 0.37393489480018616 0.2462199479341507
vn 0.74313575029373169 -0.64854371547698975 -0.16474303603172302
vn 0.88724380731582642 0.10625000298023224 -0.44889792799949646
vn 0.71420961618423462 0.02362152561545372 -0.69953316450119019
vn 0.97576940059661865 0.12272362411022186 -0.18114359676837921
vn 0.85770195722579956 -0.49335429072380066 0.14473737776279449
vn 0.9516221284866333 0.28216511011123657 -0.1216476634144783
vn 0.22467699646949768 -0.97442197799682617 0.0046943845227360725
vn 0.88909453153610229 0.45747396349906921 -0.01511654444038868
vn 0.95459979772567749 0.18665288388729095 -0.23216357827186584
vn 0.90255320072174072 -0.30841934680938721 0.3004584014415741
vn 0.87715190649032593 0.19181208312511444 -0.44024151563644409
vn 0.8922727108001709 0.45086953043937683 0.023792723193764687
vn 0.87363648414611816 0.46163716912269592 0.15378686785697937
vn 0.66565698385238647 0.18086735904216766 -0.72400814294815063
vn 0.87618851661682129 0.26230469346046448 -0.40433883666992188
vn 0.84652209281921387 -0.39205393195152283 0.36013051867485046
vn 0.59097760915756226 0.27464652061462402 -0.758495032787323
vn 0.76560127735137939 -0.60636109113693237 0.21489734947681427
vn 0.88171482086181641 -0.20541803538799286 0.42471453547477722
vn 0.87804090976715088 -0.15861046314239502 -0.45153835415840149
vn 0.31259873509407043 -0.94933128356933594 0.032436341047286987
vn 0.88440936803817749 0.46164578199386597 0.068580463528633118
vn 0.86748594045639038 -0.32688122987747192 -0.37498906254768372
vn 0.14469315111637115 -0.98945611715316772 -0.0063671451061964035
vn 0.30105826258659363 -0.95151251554489136 -0.06314946711063385
vn 0.73789495229721069 0.48542997241020203 -0.46890163421630859
vn 0.76452988386154175 0.62494575977325439 -0.15791414678096771
vn 0.46138685941696167 0.11784745752811432 -0.87933731079101563
vn 0.85325092077255249 0.51096600294113159 0.10429100692272186
vn 0.82448452711105347 0.56234055757522583 0.063233077526092529
vn 0.71272140741348267 0.69673913717269897 0.081134162843227386
vn 0.080804616212844849 -0.99672150611877441 0.0041108988225460052
vn 0.62620776891708374 0.34166842699050903 -0.70080417394638062
vn 0.38104051351547241 0.20597392320632935 -0.90132284164428711
vn 0.41315922141075134 -0.88938480615615845 -0.19568867981433868
vn 0.73988199234008789 0.67218631505966187 -0.027206834405660629
vn 0.79032456874847412 0.6028522253036499 0.10934477299451828
vn 0.76226097345352173 -0.30462786555290222 -0.57110422849655151
vn 0.071604184806346893 -0.99633234739303589 -0.046847842633724213
vn 0.61774551868438721 0.78301709890365601 0.072627365589141846
vn 0.50604397058486938 -0.7544446587562561 -0.418010413646698
vn 0.49299657344818115 -0.84779095649719238 0.19546057283878326
vn 0.86240363121032715 -0.03876890242099762 0.50473451614379883
vn 0.53908622264862061 0.42128157615661621 -0.72932016849517822
vn 0.41327768564224243 0.91057568788528442 -0.0073114354163408279
vn 0.63418310880661011 0.73055648803710938 -0.25317782163619995
vn 0.52853947877883911 0.84644001722335815 0.064693838357925415
vn 0.68857812881469727 -0.56947785615921021 0.44894891977310181
vn 0.53888404369354248 0.83196830749511719 -0.13203321397304535
vn 0.75219911336898804 -0.09039141982793808 0.6527065634727478
vn 0.17795857787132263 -0.97706758975982666 0.11691752076148987
vn 0.30770441889762878 0.94584912061691284 -0.10338006168603897
vn 0.31408914923667908 -0.90612542629241943 0.28334563970565796
vn 0.5268363356590271 -0.14406797289848328 -0.83766812086105347
vn 0.60243326425552368 -0.45483595132827759 0.65589511394500732
vn 0.32026195526123047 0.93134009838104248 -0.17331431806087494
vn 0.43334066867828369 0.70972377061843872 -0.5554349422454834
vn 0.13584999740123749 0.98745757341384888 -0.080450713634490967
vn 0.43805330991744995 -0.73873335123062134 0.51223272085189819
vn 0.42219451069831848 -0.72321748733520508 -0.54654204845428467
vn 0.30608582496643066 0.31285423040390015 -0.89912939071655273
vn 0.21350371837615967 -0.93986296653747559 0.26659661531448364
vn 0.83989435434341431 0.10880129784345627 0.53173279762268066
vn 0.30390974879264832 -0.87687808275222778 0.37245628237724304
vn 0.79223424196243286 0.57640331983566284 0.20031014084815979
vn 0.72192060947418213 0.68280023336410522 0.11231400817632675
vn 0.33741188049316406 0.47933489084243774 -0.81017976999282837
vn 0.41204008460044861 -0.51060777902603149 -0.75465399026870728
vn 0.36132502555847168 0.12686830759048462 -0.92376869916915894
vn 0.17004464566707611 0.95899462699890137 -0.22674676775932312
vn 0.83605092763900757 0.32534533739089966 0.44177970290184021
vn 0.27472630143165588 0.19052119553089142 -0.94245803356170654
vn 0.097664825618267059 0.99467241764068604 -0.032990396022796631
vn 0.60013276338577271 0.62580686807632446 0.49820324778556824
vn 0.57349812984466553 0.80993586778640747 0.12289723008871078
vn 0.091365210711956024 0.99157392978668213 -0.091834492981433868
vn 0.54961806535720825 0.73340767621994019 0.40004152059555054
vn 0.13086114823818207 -0.97109490633010864 -0.19962464272975922
vn 0.27820661664009094 -0.026357715949416161 -0.9601595401763916
vn 0.55813300609588623 0.79409408569335938 0.24062862992286682
vn 0.2109127938747406 0.20655947923660278 -0.95543128252029419
vn 0.061106998473405838 0.99606984853744507 -0.064115382730960846
vn 0.19203317165374756 -0.72400915622711182 -0.66252094507217407
vn 0.1479315459728241 0.17365773022174835 -0.97363197803497314
vn 0.50644838809967041 0.68979305028915405 0.51739305257797241
vn 0.14109654724597931 0.10353974252939224 -0.98456656932830811
vn 0.35547661781311035 0.9293670654296875 0.099565185606479645
vn 0.17562386393547058 0.34790325164794922 -0.92093408107757568
vn 0.075751431286334991 -0.93553584814071655 -0.34501358866691589
vn 0.69246286153793335 -0.062786929309368134 0.71871626377105713
vn 0.46214523911476135 0.8138192892074585 0.35230666399002075
vn 0.72750282287597656 0.35158747434616089 0.58917391300201416
vn 0.74839305877685547 0.057307105511426926 0.66077512502670288
vn 0.48869004845619202 0.71363216638565063 0.50190752744674683
vn 0.75009405612945557 0.22461996972560883 0.62201666831970215
vn 0.61665058135986328 -0.047525245696306229 0.78580111265182495
vn 0.14615245163440704 0.81036704778671265 -0.56740176677703857
vn 0.32473722100257874 0.92030489444732666 0.21813896298408508
vn 0.48675858974456787 0.56746119260787964 0.66411888599395752
vn 0.62177580595016479 0.16297410428524017 0.76605111360549927
vn 0.41882321238517761 0.83839714527130127 0.34882283210754395
vn 0.57109302282333374 -0.10752528160810471 0.81381267309188843
vn 0.51178532838821411 -0.06840389221906662 0.85638582706451416
vn 0.088933899998664856 0.99601703882217407 -0.0063902023248374462
vn 0.3548426628112793 0.7966809868812561 0.48927092552185059
vn 0.29419448971748352 0.87008887529373169 0.39546802639961243
vn 0.60871374607086182 -0.12599433958530426 0.7833217978477478
vn 0.39877888560295105 0.15597403049468994 0.90368551015853882
vn 0.58481937646865845 -0.13247345387935638 0.80027312040328979
vn 0.64202302694320679 -0.15882834792137146 0.75005334615707397
vn 0.41770657896995544 -0.025829046964645386 0.9082147479057312
vn 0.50589478015899658 -0.11087664216756821 0.85543954372406006
vn 0.054687641561031342 0.99445700645446777 -0.089802518486976624
vn 0.096605837345123291 0.46119004487991333 0.88202667236328125
vn 0.013136893510818481 0.26490017771720886 0.96418637037277222
vn 0.4299827516078949 -0.70522743463516235 0.56371015310287476
vn 0.072849482297897339 0.98547768592834473 0.15338395535945892
vn 0.47769305109977722 -0.31694772839546204 0.81936162710189819
vn 0.18180054426193237 -0.83158296346664429 0.52480316162109375
vn 0.024467905983328819 0.48526358604431152 0.87402552366256714
vn 0.14409668743610382 -0.92713057994842529 0.34592628479003906
vn 0.15780691802501678 0.73472326993942261 0.65975654125213623
vn 0.036606565117835999 0.57383865118026733 0.81814980506896973
vn 0.054699745029211044 -0.99849194288253784 -0.0046691326424479485
vn 0.42150136828422546 -0.1226876825094223 0.89849001169204712
vn -0.071133837103843689 0.44392704963684082 0.89323502779006958
vn 0.16383685171604156 -0.2882918119430542 0.94342213869094849
vn -0.19717122614383698 0.34000736474990845 0.9195207953453064
vn 0.078044787049293518 -0.99686384201049805 0.013093855232000351
vn 0.17247124016284943 -0.95828783512115479 0.2278992235660553
vn 0.28649759292602539 -0.035272207111120224 0.95743143558502197
vn 0.16227389872074127 -0.93611538410186768 0.31201782822608948
vn 0.079167731106281281 -0.99642902612686157 0.029354671016335487
vn 0.049188457429409027 -0.56673812866210938 0.82242834568023682
vn 0.056588388979434967 -0.2543620765209198 0.96545207500457764
vn 0.034069273620843887 -0.99935537576675415 -0.011316923424601555
vn 0.056531351059675217 -0.99836277961730957 0.0087187578901648521
vn -0.15804938971996307 0.15601611137390137 0.97502785921096802
vn 0.0082894423976540565 -0.10702680796384811 0.99422156810760498
vn -0.14152494072914124 0.51367020606994629 0.84623497724533081
vn 0.067855507135391235 -0.98347151279449463 0.16786712408065796
vn 0.11235804110765457 -0.9049493670463562 0.41041728854179382
vn 0.1110454648733139 -0.092348195612430573 -0.98951542377471924
vn -0.24782013893127441 0.23799991607666016 0.93911725282669067
vn 0.053537644445896149 0.82480794191360474 0.56287258863449097
vn -0.08508678525686264 0.67809945344924927 0.73002833127975464
vn 0.083704814314842224 0.1901126503944397 -0.9781874418258667
vn 0.015049125999212265 0.88718909025192261 0.46116054058074951
vn 0.036549143493175507 0.93433284759521484 0.35452267527580261
vn 0.13583365082740784 0.41999033093452454 -0.89730560779571533
vn 0.11651765555143356 0.25210145115852356 -0.96066045761108398
vn 0.085834063589572906 -0.68892794847488403 -0.71972966194152832
vn 0.0038864405360072851 -0.97965282201766968 0.20066188275814056
vn -0.046388532966375351 -0.83304613828659058 0.55125510692596436
vn -0.011515862308442593 -0.9789929986000061 0.20356827974319458
vn 0.040563266724348068 0.1602795273065567 -0.98623782396316528
vn -0.0081365108489990234 -0.27622342109680176 -0.96105903387069702
vn -0.037986874580383301 -0.55547714233398438 0.83066368103027344
vn -0.10065186023712158 0.79278314113616943 0.60113567113876343
vn 0.044381082057952881 0.99807864427566528 -0.043235890567302704
vn -0.14487560093402863 -0.6656985878944397 0.73202216625213623
vn 0.056077968329191208 0.99830549955368042 -0.015537092462182045
vn -0.10803059488534927 -0.39806991815567017 0.91097187995910645
vn 0.046172965317964554 0.9975164532661438 -0.053188037127256393
vn -0.2111697793006897 -0.061976220458745956 0.97548258304595947
vn 0.04858861118555069 -0.82668203115463257 -0.56056749820709229
vn -0.1833227276802063 0.73695230484008789 0.65061050653457642
vn -0.31641918420791626 -0.36269894242286682 0.87654346227645874
vn -0.31395280361175537 0.15983365476131439 0.93588829040527344
vn -0.43725365400314331 -0.14258833229541779 0.88796275854110718
vn -0.25258326530456543 -0.60235542058944702 0.75721174478530884
vn -0.24292770028114319 0.51553678512573242 0.82171040773391724
vn -0.062992654740810394 0.1003941223025322 -0.99295163154602051
vn -0.32066673040390015 0.29763197898864746 0.8992152214050293
vn 0.047696162015199661 0.99853396415710449 -0.025593902915716171
vn -0.50203061103820801 0.0031431554816663265 0.86484414339065552
vn -0.32700935006141663 0.24571935832500458 0.91251677274703979
vn -0.4901755154132843 -0.34027650952339172 0.80245864391326904
vn 0.026429388672113419 -0.90305227041244507 -0.4287167489528656
vn -0.38940754532814026 -0.56610137224197388 0.72656106948852539
vn -0.0043060746975243092 0.9359171986579895 0.35219374299049377
vn -0.11529674381017685 0.85846054553985596 0.49975207448005676
vn -0.42731904983520508 0.31130805611610413 0.84881430864334106
vn 0.034848455339670181 0.98030763864517212 0.19437739253044128
vn -0.27825736999511719 0.64755678176879883 0.70939624309539795
vn -0.17540715634822845 0.80607444047927856 0.56522232294082642
vn 0.077350370585918427 0.20187565684318542 -0.97635197639465332
vn -0.40519797801971436 0.26066836714744568 0.87628000974655151
vn -0.075322836637496948 -0.95928728580474854 0.27220281958580017
vn -0.57430672645568848 -0.019484380260109901 0.8184083104133606
vn -0.57125562429428101 -0.1966603547334671 0.79686367511749268
vn -0.37209606170654297 0.48693278431892395 0.79021579027175903
vn -0.41389423608779907 0.17704899609088898 0.89294189214706421
vn -0.25429180264472961 -0.80169296264648438 0.54094743728637695
vn -0.52339082956314087 0.14313480257987976 0.83998477458953857
vn -0.02855694480240345 0.96100294589996338 0.27505967020988464
vn -0.46640133857727051 0.269471675157547 0.8425288200378418
vn -0.35822656750679016 -0.66674673557281494 0.65354615449905396
vn -0.23383386433124542 -0.86867779493331909 0.43671569228172302
vn 0.027959829196333885 0.99482983350753784 0.097631260752677917
vn -0.60410642623901367 -0.11860992759466171 0.78802734613418579
vn -0.57598143815994263 -0.27389419078826904 0.77021253108978271
vn 0.080920994281768799 0.2151162326335907 -0.97323006391525269
vn -0.31245586276054382 -0.81155961751937866 0.49370267987251282
vn -0.61873811483383179 -0.21508549153804779 0.75558012723922729
vn -0.037880115211009979 -0.98827946186065674 0.14788089692592621
vn -0.50338464975357056 -0.53593909740447998 0.67777073383331299
vn -0.012926184572279453 -0.72224408388137817 -0.69151747226715088
vn -0.21678236126899719 -0.91249442100524902 0.34692844748497009
vn -0.02527838759124279 -0.99749058485031128 0.066132329404354095
vn -0.12883536517620087 -0.9699445366859436 0.20641951262950897
vn -0.37092435359954834 -0.78223103284835815 0.50052940845489502
vn 0.048078950494527817 0.99877864122390747 -0.011388118378818035
vn 0.065943703055381775 0.2084660530090332 -0.97580397129058838
vn 0.036878302693367004 0.99877870082855225 0.0328807532787323
vn -0.090760238468647003 0.92957788705825806 0.35727787017822266
vn -0.00029636902036145329 0.99358654022216797 0.11307370662689209
vn 0.055098868906497955 0.20075222849845886 -0.97809135913848877
vn 0.060175921767950058 0.73348748683929443 -0.67703390121459961
vn -0.039701871573925018 -0.56513988971710205 -0.82403922080993652
vn 0.017556346952915192 0.16923998296260834 -0.98541849851608276
vn -0.017049640417098999 0.35015580058097839 -0.93653631210327148
vn 0.042288884520530701 0.99750036001205444 -0.056609619408845901
vn 0.044105514883995056 0.99886924028396606 -0.01774551160633564
vn 0.041468847543001175 0.9984697699546814 -0.036585006862878799
vn 0.04299081489443779 0.99871826171875 -0.026713352650403976
vn 0.035520847886800766 0.99834626913070679 -0.045199409127235413
vn -0.085282124578952789 0.14261205494403839 -0.98609775304794312
vn -0.091933034360408783 0.75776082277297974 -0.64602386951446533
vn -0.045583326369524002 -0.94902759790420532 -0.31187939643859863
vn -0.22364076972007751 0.77362936735153198 0.59285950660705566
vn -0.0014536397065967321 0.98150205612182617 -0.19144620001316071
vn 0.024111136794090271 0.99773454666137695 -0.062804676592350006
vn -0.18344692885875702 0.40385311841964722 -0.89624208211898804
vn -0.12042179703712463 0.8643033504486084 -0.48834237456321716
vn -0.16571567952632904 -0.38967821002006531 -0.90591895580291748
vn -0.17208486795425415 0.9024968147277832 0.39482435584068298
vn -0.012503516860306263 -0.99971544742584229 0.020313886925578117
vn -0.1301356703042984 0.067305140197277069 -0.98920911550521851
vn -0.032754302024841309 0.99307125806808472 0.11285644024610519
vn 0.027590813115239143 0.99959278106689453 0.0072827846743166447
vn 0.031302466988563538 0.99903911352157593 -0.030675545334815979
vn -0.0057809976860880852 0.9985426664352417 0.053657889366149902
vn -0.20508332550525665 0.43755769729614258 -0.87549078464508057
vn -0.21044057607650757 -0.76110422611236572 -0.61354303359985352
vn -0.26917815208435059 -0.13928130269050598 -0.95296579599380493
vn 0.025347137823700905 0.99865847826004028 -0.045152336359024048
vn -0.046082060784101486 0.99449926614761353 0.094062067568302155
vn -0.1705038845539093 0.95003366470336914 0.26146605610847473
vn -0.058985404670238495 0.97096258401870728 -0.23184552788734436
vn -0.35552278161048889 0.82110399007797241 0.44653311371803284
vn -0.4300704300403595 0.62486618757247925 0.65159928798675537
vn -0.29302725195884705 0.57916843891143799 -0.76072263717651367
vn 0.0070234006270766258 0.99887990951538086 -0.046793051064014435
vn -0.012156254611909389 -0.99978089332580566 0.017041213810443878
vn -0.19771167635917664 0.8707231879234314 -0.45027905702590942
vn -0.2757774293422699 -0.53983205556869507 -0.79531639814376831
vn -0.20523631572723389 0.011738665401935577 -0.9786420464515686
vn -0.46334871649742126 -0.76150244474411011 0.45323505997657776
vn -0.68904364109039307 -0.27788347005844116 0.66932773590087891
vn -0.18096421658992767 -0.97842532396316528 0.099678412079811096
vn -0.2038397490978241 0.96029472351074219 0.19048203527927399
vn -0.72120529413223267 -0.36823689937591553 0.58674055337905884
vn -0.52647626399993896 0.28935438394546509 0.7994353175163269
vn -0.1773902028799057 -0.98263794183731079 0.054363157600164413
vn -0.70400583744049072 -0.59899240732192993 0.38155454397201538
vn -0.76726418733596802 -0.32607740163803101 0.55224919319152832
vn -0.20920529961585999 -0.87794452905654907 -0.430635005235672
vn -0.35550016164779663 0.86179715394973755 0.36183595657348633
vn -0.34985041618347168 -0.92847955226898193 0.12462098896503448
vn -0.55610001087188721 0.14315807819366455 0.81869322061538696
vn -0.52113717794418335 0.57874536514282227 0.62727171182632446
vn -0.3517049252986908 0.9065125584602356 0.23353506624698639
vn -0.39753711223602295 0.8583909273147583 0.32423651218414307
vn -0.56434077024459839 0.44853326678276062 0.69306379556655884
vn -0.4009782075881958 -0.41465416550636292 -0.81687110662460327
vn -0.00082690268754959106 -0.99987667798995972 -0.015681197866797447
vn -0.33827000856399536 -0.14031036198139191 -0.93053019046783447
vn -0.10751144587993622 -0.9748997688293457 -0.19496601819992065
vn -0.45220139622688293 0.77774596214294434 0.43660634756088257
vn -0.037910796701908112 0.99535071849822998 -0.088542245328426361
vn -0.067732922732830048 0.98267936706542969 -0.17249210178852081
vn -0.29917857050895691 0.94013392925262451 0.1632186621427536
vn -0.13685104250907898 0.9904559850692749 0.016391752287745476
vn -0.27062812447547913 -0.96064656972885132 0.062598437070846558
vn -0.068189442157745361 -0.9975820779800415 0.013425217941403389
vn -0.39322909712791443 0.65544039011001587 -0.64480137825012207
vn -0.32237499952316284 -0.94449496269226074 0.063273876905441284
vn -0.67753517627716064 -0.70963865518569946 0.19328492879867554
vn -0.31523764133453369 0.94243365526199341 0.1115526407957077
vn -0.6092991828918457 0.33289983868598938 0.71967506408691406
vn -0.48716884851455688 0.80923342704772949 0.32834097743034363
vn -0.62902462482452393 0.37708273530006409 0.67980635166168213
vn -0.42937463521957397 -0.67219561338424683 -0.60315042734146118
vn -0.60409688949584961 0.60790467262268066 0.5152851939201355
vn -0.26364967226982117 0.9037824273109436 -0.33714422583580017
vn -0.11250113695859909 -0.98100244998931885 -0.15804314613342285
vn -0.55563843250274658 0.81024676561355591 0.18645671010017395
vn -0.51827055215835571 -0.30679947137832642 -0.79829174280166626
vn -0.45159631967544556 0.63935685157775879 -0.62232112884521484
vn -0.60414838790893555 0.14998964965343475 0.78262883424758911
vn -0.83714407682418823 -0.4355318546295166 0.33091050386428833
vn -0.84530383348464966 -0.44937592744827271 0.28900286555290222
vn -0.672740638256073 0.13270832598209381 0.72787946462631226
vn -0.53411144018173218 0.73882156610488892 -0.41093513369560242
vn -0.62214899063110352 0.052972238510847092 0.78110474348068237
vn -0.86258554458618164 -0.44713369011878967 0.2366805374622345
vn -0.087695397436618805 0.99473404884338379 -0.053044281899929047
vn -0.63484328985214233 0.27303242683410645 0.72279131412506104
vn -0.79160547256469727 0.52643048763275146 0.31021246314048767
vn -0.72040486335754395 -0.041959125548601151 0.69228339195251465
vn -0.80513274669647217 0.55304068326950073 0.21425990760326385
vn -0.3412041962146759 -0.832111656665802 -0.43722972273826599
vn -0.53908401727676392 0.79327338933944702 -0.28302952647209167
vn -0.030304647982120514 -0.99890357255935669 -0.035682443529367447
vn -0.16920170187950134 -0.96783214807510376 -0.18620355427265167
vn -0.29805171489715576 0.94151270389556885 -0.15722280740737915
vn -0.83785068988800049 -0.35716211795806885 0.41284555196762085
vn -0.56694948673248291 -0.39524602890014648 -0.72273707389831543
vn -0.82805204391479492 0.23385664820671082 0.50954973697662354
vn -0.034648235887289047 -0.99857532978057861 -0.04058152437210083
vn -0.81312155723571777 0.040677107870578766 0.58067089319229126
vn -0.82167989015579224 -0.20281107723712921 0.53264415264129639
vn -0.81527882814407349 -0.061147801578044891 0.57583099603652954
vn -0.87437903881072998 -0.010985974222421646 0.48511913418769836
vn -0.85395699739456177 -0.41274765133857727 0.31685462594032288
vn -0.53642737865447998 -0.78640329837799072 -0.30629321932792664
vn -0.13451223075389862 0.11715666204690933 -0.98396176099777222
vn -0.31663993000984192 -0.9482007622718811 -0.025583211332559586
vn -0.72085833549499512 -0.43068453669548035 -0.54302310943603516
vn -0.48360532522201538 0.8439217209815979 -0.23221109807491302
vn -0.67829442024230957 -0.34231504797935486 -0.65018236637115479
vn -0.89612632989883423 0.37621566653251648 0.2354130744934082
vn -0.89812880754470825 -0.43641486763954163 0.053913779556751251
vn -0.9262128472328186 0.27735453844070435 0.25535127520561218
vn -0.37676087021827698 0.924896240234375 -0.051167808473110199
vn -0.88337051868438721 -0.39963674545288086 -0.24484066665172577
vn -0.88684868812561035 -0.35085967183113098 0.30066081881523132
vn -0.85659003257751465 -0.33977976441383362 -0.38833391666412354
vn -0.6080971360206604 0.7807653546333313 -0.14360836148262024
vn -0.72211819887161255 0.69173115491867065 0.007297217845916748
vn -0.3429093062877655 0.47824442386627197 -0.80851435661315918
vn -0.31144484877586365 -0.092924423515796661 -0.94570988416671753
vn -0.92685329914093018 -0.33294415473937988 0.17346794903278351
vn -0.80521374940872192 0.59173732995986938 0.038442336022853851
vn -0.49595335125923157 0.60977804660797119 -0.61822408437728882
vn -0.93184089660644531 0.10601293295621872 0.34703579545021057
vn -0.9289708137512207 0.19820396602153778 0.31261551380157471
vn -0.96032512187957764 -0.27885371446609497 -0.0040349280461668968
vn -0.43376874923706055 0.53438544273376465 -0.72544944286346436
vn -0.94917374849319458 0.17835791409015656 0.25934088230133057
vn -0.90345025062561035 -0.17076975107192993 0.3932114839553833
vn -0.71482878923416138 0.6643599271774292 -0.21827884018421173
vn -0.95573657751083374 -0.23536153137683868 -0.17655748128890991
vn -0.95657169818878174 0.014647524803876877 0.29112887382507324
vn -0.33949139714241028 0.18964779376983643 -0.92129218578338623
vn -0.96581387519836426 -0.19997629523277283 0.16496388614177704
vn -0.54247653484344482 -0.15815360844135284 -0.82504951953887939
vn -0.88151609897613525 -0.26585054397583008 -0.39019593596458435
vn -0.77170664072036743 -0.25103640556335449 -0.58433681726455688
vn -0.72577464580535889 0.50821471214294434 -0.46364748477935791
vn -0.87489986419677734 0.22774958610534668 -0.42741122841835022
vn -0.8261992335319519 0.50048649311065674 -0.25866603851318359
vn -0.90805596113204956 -0.027747215703129768 -0.4179287850856781
vn -0.98546385765075684 0.088133707642555237 -0.14523570239543915
vn -0.97043347358703613 -0.10853209346532822 -0.21559154987335205
vn -0.99046474695205688 0.017580579966306686 -0.13663995265960693
vn -0.86956781148910522 0.47943815588951111 0.11828295886516571
vn -0.94652694463729858 0.30822077393531799 -0.095324225723743439
vn -0.98994630575180054 -0.13654923439025879 0.036886822432279587
vn -0.90521854162216187 0.38296335935592651 0.18416959047317505
vn -0.9891236424446106 0.11767921596765518 0.088238440454006195
f 26//26 33//33 32//32
f 20//20 2//2 13//13
f 104//104 98//98 82//82
f 88//88 77//77 105//105
f 70//70 77//77 88//88
f 121//121 115//115 109//109
f 44//44 109//109 115//115
f 161//161 193//193 192//192
f 130//130 123//123 187//187
f 116//116 105//105 78//78
f 116//116 123//123 125//125
f 116//116 125//125 105//105
f 113//113 123//123 116//116
f 113//113 116//116 78//78
f 113//113 98//98 123//123
f 128//128 125//125 123//123
f 128//128 123//123 130//130
f 128//128 130//130 187//187
f 413//413 411//411 416//416
f 410//410 411//411 408//408
f 410//410 408//408 404//404
f 410//410 398//398 416//416
f 410//410 416//416 411//411
f 414//414 416//416 398//398
f 378//378 333//333 351//351
f 254//254 321//321 180//180
f 254//254 330//330 321//321
f 280//280 290//290 283//283
f 280//280 283//283 201//201
f 23//23 26//26 32//32
f 9//9 13//13 2//2
f 49//49 62//62 40//40
f 49//49 40//40 20//20
f 49//49 20//20 13//13
f 86//86 97//97 95//95
f 112//112 98//98 104//104
f 112//112 123//123 98//98
f 30//30 20//20 40//40
f 30//30 40//40 38//38
f 51//51 68//68 38//38
f 65//65 40//40 62//62
f 65//65 62//62 86//86
f 65//65 86//86 95//95
f 65//65 68//68 51//51
f 65//65 51//51 38//38
f 65//65 38//38 40//40
f 110//110 119//119 109//109
f 131//131 117//117 142//142
f 66//66 73//73 19//19
f 66//66 19//19 56//56
f 57//57 19//19 73//73
f 57//57 73//73 109//109
f 47//47 82//82 98//98
f 47//47 58//58 46//46
f 61//61 58//58 78//78
f 61//61 78//78 105//105
f 61//61 105//105 77//77
f 101//101 70//70 88//88
f 124//124 119//119 131//131
f 124//124 131//131 142//142
f 124//124 142//142 121//121
f 124//124 121//121 109//109
f 124//124 109//109 119//119
f 10//10 115//115 1//1
f 225//225 192//192 193//193
f 225//225 193//193 161//161
f 225//225 161//161 228//228
f 286//286 328//328 285//285
f 167//167 166//166 190//190
f 257//257 285//285 161//161
f 384//384 397//397 385//385
f 380//380 384//384 385//385
f 302//302 400//400 283//283
f 302//302 283//283 290//290
f 302//302 290//290 400//400
f 272//272 265//265 201//201
f 200//200 201//201 265//265
f 200//200 265//265 258//258
f 200//200 187//187 201//201
f 412//412 413//413 416//416
f 403//403 404//404 374//374
f 403//403 374//374 398//398
f 403//403 398//398 410//410
f 403//403 410//410 404//404
f 383//383 398//398 374//374
f 402//402 404//404 408//408
f 402//402 408//408 400//400
f 320//320 402//402 322//322
f 320//320 322//322 290//290
f 379//379 364//364 377//377
f 379//379 377//377 416//416
f 379//379 416//416 395//395
f 373//373 330//330 329//329
f 373//373 333//333 378//378
f 373//373 378//378 371//371
f 399//399 391//391 395//395
f 399//399 395//395 416//416
f 369//369 364//364 391//391
f 369//369 391//391 399//399
f 369//369 399//399 396//396
f 224//224 238//238 198//198
f 282//282 330//330 254//254
f 282//282 254//254 305//305
f 255//255 254//254 250//250
f 255//255 250//250 253//253
f 202//202 171//171 207//207
f 233//233 253//253 250//250
f 233//233 198//198 238//238
f 274//274 289//289 280//280
f 274//274 180//180 321//321
f 24//24 25//25 26//26
f 24//24 26//26 23//23
f 24//24 23//23 17//17
f 24//24 17//17 25//25
f 163//163 198//198 186//186
f 92//92 97//97 86//86
f 92//92 86//86 62//62
f 67//67 39//39 32//32
f 67//67 32//32 33//33
f 41//41 38//38 68//68
f 41//41 68//68 69//69
f 41//41 25//25 27//27
f 22//22 27//27 25//25
f 22//22 25//25 17//17
f 22//22 17//17 2//2
f 22//22 2//2 20//20
f 22//22 20//20 30//30
f 29//29 27//27 22//22
f 29//29 38//38 41//41
f 29//29 41//41 27//27
f 206//206 117//117 219//219
f 206//206 219//219 257//257
f 206//206 257//257 161//161
f 148//148 142//142 117//117
f 148//148 117//117 206//206
f 148//148 206//206 161//161
f 148//148 161//161 142//142
f 81//81 110//110 109//109
f 81//81 109//109 73//73
f 84//84 119//119 110//110
f 36//36 19//19 57//57
f 36//36 57//57 109//109
f 36//36 109//109 44//44
f 72//72 113//113 78//78
f 72//72 78//78 58//58
f 72//72 58//58 47//47
f 72//72 47//47 98//98
f 72//72 98//98 113//113
f 111//111 101//101 88//88
f 111//111 88//88 105//105
f 34//34 32//32 39//39
f 34//34 39//39 67//67
f 34//34 82//82 47//47
f 34//34 47//47 46//46
f 34//34 23//23 32//32
f 35//35 56//56 19//19
f 90//90 71//71 70//70
f 90//90 70//70 101//101
f 90//90 101//101 100//100
f 90//90 100//100 93//93
f 90//90 93//93 80//80
f 90//90 80//80 71//71
f 179//179 207//207 171//171
f 143//143 149//149 166//166
f 143//143 166//166 167//167
f 135//135 121//121 142//142
f 189//189 166//166 149//149
f 189//189 190//190 166//166
f 21//21 13//13 18//18
f 12//12 9//9 2//2
f 14//14 9//9 12//12
f 14//14 12//12 18//18
f 14//14 18//18 13//13
f 14//14 13//13 9//9
f 37//37 115//115 10//10
f 37//37 44//44 115//115
f 298//298 328//328 286//286
f 297//297 300//300 279//279
f 297//297 288//288 400//400
f 204//204 267//267 271//271
f 204//204 219//219 117//117
f 306//306 285//285 328//328
f 203//203 190//190 189//189
f 203//203 189//189 192//192
f 354//354 364//364 339//339
f 354//354 377//377 364//364
f 337//337 339//339 364//364
f 184//184 167//167 190//190
f 268//268 286//286 285//285
f 268//268 285//285 257//257
f 268//268 257//257 219//219
f 409//409 411//411 413//413
f 407//407 397//397 405//405
f 407//407 405//405 413//413
f 407//407 413//413 397//397
f 352//352 340//340 361//361
f 352//352 361//361 380//380
f 352//352 380//380 328//328
f 349//349 405//405 397//397
f 349//349 397//397 358//358
f 349//349 361//361 340//340
f 375//375 384//384 380//380
f 375//375 380//380 361//361
f 375//375 361//361 349//349
f 375//375 349//349 358//358
f 375//375 358//358 397//397
f 375//375 397//397 384//384
f 266//266 263//263 194//194
f 266//266 265//265 272//272
f 266//266 272//272 400//400
f 217//217 283//283 272//272
f 217//217 272//272 201//201
f 217//217 201//201 283//283
f 372//372 400//400 272//272
f 372//372 272//272 283//283
f 372//372 283//283 400//400
f 304//304 249//249 355//355
f 309//309 329//329 330//330
f 309//309 330//330 305//305
f 359//359 330//330 373//373
f 359//359 341//341 274//274
f 359//359 274//274 321//321
f 359//359 321//321 330//330
f 346//346 333//333 310//310
f 389//389 413//413 412//412
f 389//389 385//385 397//397
f 389//389 397//397 413//413
f 415//415 377//377 412//412
f 415//415 412//412 416//416
f 415//415 416//416 377//377
f 381//381 371//371 378//378
f 381//381 398//398 383//383
f 381//381 383//383 374//374
f 381//381 374//374 371//371
f 387//387 322//322 402//402
f 387//387 402//402 400//400
f 387//387 400//400 290//290
f 387//387 290//290 322//322
f 301//301 280//280 289//289
f 301//301 320//320 290//290
f 301//301 290//290 280//280
f 312//312 320//320 301//301
f 312//312 301//301 289//289
f 312//312 289//289 274//274
f 360//360 341//341 373//373
f 360//360 373//373 371//371
f 360//360 371//371 341//341
f 332//332 333//333 373//373
f 332//332 373//373 329//329
f 332//332 329//329 333//333
f 392//392 395//395 391//391
f 392//392 391//391 364//364
f 392//392 364//364 379//379
f 392//392 379//379 395//395
f 401//401 414//414 398//398
f 401//401 378//378 388//388
f 401//401 396//396 399//399
f 401//401 399//399 416//416
f 401//401 416//416 414//414
f 366//366 364//364 369//369
f 366//366 369//369 355//355
f 366//366 355//355 364//364
f 299//299 330//330 282//282
f 299//299 282//282 305//305
f 299//299 305//305 330//330
f 185//185 176//176 186//186
f 185//185 186//186 198//198
f 185//185 198//198 197//197
f 185//185 197//197 233//233
f 185//185 233//233 250//250
f 185//185 250//250 254//254
f 178//178 162//162 171//171
f 178//178 171//171 202//202
f 178//178 202//202 198//198
f 178//178 198//198 163//163
f 178//178 163//163 162//162
f 215//215 224//224 198//198
f 243//243 253//253 233//233
f 243//243 233//233 238//238
f 199//199 198//198 233//233
f 199//199 233//233 197//197
f 199//199 197//197 198//198
f 83//83 69//69 68//68
f 83//83 68//68 168//168
f 83//83 168//168 180//180
f 83//83 180//180 274//274
f 83//83 79//79 69//69
f 264//264 274//274 280//280
f 264//264 280//280 201//201
f 11//11 19//19 36//36
f 11//11 36//36 44//44
f 11//11 44//44 37//37
f 11//11 37//37 10//10
f 8//8 23//23 35//35
f 8//8 35//35 7//7
f 8//8 7//7 1//1
f 160//160 162//162 163//163
f 165//165 176//176 163//163
f 165//165 163//163 186//186
f 165//165 186//186 176//176
f 106//106 163//163 176//176
f 106//106 95//95 97//97
f 108//108 97//97 92//92
f 108//108 92//92 103//103
f 108//108 103//103 160//160
f 108//108 160//160 163//163
f 108//108 163//163 106//106
f 108//108 106//106 97//97
f 154//154 151//151 162//162
f 153//153 162//162 151//151
f 99//99 162//162 160//160
f 99//99 160//160 103//103
f 99//99 103//103 92//92
f 94//94 115//115 137//137
f 94//94 137//137 134//134
f 94//94 134//134 151//151
f 94//94 151//151 154//154
f 94//94 154//154 162//162
f 94//94 162//162 99//99
f 94//94 99//99 92//92
f 45//45 79//79 67//67
f 45//45 25//25 41//41
f 45//45 41//41 69//69
f 45//45 69//69 79//79
f 28//28 30//30 38//38
f 28//28 38//38 29//29
f 28//28 29//29 22//22
f 28//28 22//22 30//30
f 89//89 117//117 131//131
f 89//89 131//131 119//119
f 89//89 84//84 80//80
f 89//89 80//80 93//93
f 89//89 102//102 117//117
f 120//120 117//117 102//102
f 75//75 80//80 84//84
f 75//75 84//84 110//110
f 75//75 110//110 81//81
f 55//55 58//58 61//61
f 55//55 61//61 77//77
f 55//55 34//34 46//46
f 55//55 46//46 58//58
f 64//64 82//82 34//34
f 64//64 34//34 67//67
f 64//64 67//67 82//82
f 50//50 70//70 71//71
f 50//50 71//71 80//80
f 16//16 35//35 19//19
f 16//16 19//19 11//11
f 16//16 11//11 7//7
f 222//222 224//224 215//215
f 183//183 207//207 179//179
f 183//183 179//179 171//171
f 139//139 143//143 144//144
f 139//139 144//144 137//137
f 139//139 137//137 115//115
f 138//138 149//149 143//143
f 138//138 121//121 149//149
f 118//118 121//121 143//143
f 118//118 143//143 115//115
f 118//118 115//115 121//121
f 158//158 143//143 167//167
f 150//150 149//149 121//121
f 150//150 121//121 135//135
f 150//150 142//142 161//161
f 150//150 161//161 192//192
f 150//150 192//192 189//189
f 150//150 189//189 149//149
f 4//4 18//18 12//12
f 4//4 12//12 2//2
f 4//4 2//2 1//1
f 4//4 1//1 115//115
f 4//4 115//115 18//18
f 132//132 105//105 194//194
f 195//195 105//105 125//125
f 195//195 125//125 128//128
f 195//195 258//258 266//266
f 195//195 266//266 194//194
f 195//195 194//194 105//105
f 277//277 271//271 267//267
f 291//291 271//271 277//277
f 291//291 277//277 298//298
f 291//291 298//298 286//286
f 291//291 286//286 271//271
f 325//325 340//340 352//352
f 325//325 352//352 328//328
f 325//325 328//328 298//298
f 325//325 298//298 277//277
f 273//273 263//263 266//266
f 273//273 288//288 297//297
f 273//273 297//297 279//279
f 294//294 279//279 300//300
f 386//386 297//297 400//400
f 331//331 340//340 300//300
f 331//331 300//300 297//297
f 208//208 267//267 204//204
f 208//208 204//204 117//117
f 284//284 281//281 261//261
f 259//259 161//161 285//285
f 259//259 285//285 261//261
f 244//244 228//228 161//161
f 244//244 161//161 259//259
f 244//244 259//259 261//261
f 240//240 225//225 228//228
f 240//240 228//228 244//244
f 240//240 244//244 261//261
f 295//295 296//296 281//281
f 226//226 225//225 240//240
f 226//226 203//203 192//192
f 226//226 192//192 225//225
f 269//269 219//219 204//204
f 269//269 204//204 271//271
f 269//269 271//271 286//286
f 172//172 182//182 159//159
f 270//270 219//219 269//269
f 270//270 269//269 286//286
f 270//270 286//286 268//268
f 270//270 268//268 219//219
f 390//390 405//405 349//349
f 390//390 331//331 297//297
f 327//327 306//306 328//328
f 342//342 385//385 389//389
f 342//342 389//389 412//412
f 342//342 354//354 339//339
f 342//342 328//328 380//380
f 342//342 380//380 385//385
f 191//191 200//200 258//258
f 191//191 258//258 231//231
f 191//191 231//231 195//195
f 191//191 195//195 128//128
f 191//191 128//128 187//187
f 191//191 187//187 200//200
f 262//262 265//265 266//266
f 262//262 266//266 258//258
f 262//262 258//258 265//265
f 278//278 288//288 273//273
f 278//278 273//273 266//266
f 278//278 266//266 400//400
f 278//278 400//400 288//288
f 303//303 305//305 254//254
f 303//303 254//254 255//255
f 303//303 255//255 253//253
f 303//303 310//310 305//305
f 314//314 333//333 329//329
f 314//314 329//329 309//309
f 314//314 309//309 305//305
f 314//314 305//305 310//310
f 314//314 310//310 333//333
f 365//365 341//341 359//359
f 365//365 359//359 373//373
f 365//365 373//373 341//341
f 347//347 333//333 346//346
f 347//347 346//346 351//351
f 347//347 351//351 333//333
f 382//382 388//388 378//378
f 382//382 378//378 351//351
f 382//382 396//396 401//401
f 382//382 401//401 388//388
f 357//357 371//371 374//374
f 357//357 312//312 341//341
f 357//357 341//341 371//371
f 323//323 341//341 312//312
f 323//323 312//312 274//274
f 323//323 274//274 341//341
f 376//376 404//404 363//363
f 376//376 363//363 374//374
f 376//376 374//374 404//404
f 343//343 320//320 363//363
f 343//343 363//363 404//404
f 343//343 404//404 402//402
f 343//343 402//402 320//320
f 393//393 398//398 381//381
f 393//393 381//381 378//378
f 393//393 378//378 401//401
f 393//393 401//401 398//398
f 181//181 180//180 168//168
f 181//181 168//168 68//68
f 181//181 185//185 254//254
f 181//181 254//254 180//180
f 205//205 202//202 207//207
f 205//205 207//207 215//215
f 205//205 215//215 198//198
f 205//205 198//198 202//202
f 122//122 79//79 83//83
f 122//122 83//83 133//133
f 223//223 201//201 210//210
f 223//223 210//210 133//133
f 223//223 133//133 83//83
f 223//223 83//83 274//274
f 6//6 1//1 7//7
f 6//6 7//7 11//11
f 6//6 11//11 10//10
f 6//6 10//10 1//1
f 3//3 23//23 8//8
f 3//3 8//8 1//1
f 174//174 185//185 95//95
f 174//174 95//95 106//106
f 174//174 106//106 176//176
f 174//174 176//176 185//185
f 175//175 159//159 182//182
f 175//175 182//182 183//183
f 175//175 183//183 171//171
f 140//140 134//134 137//137
f 140//140 137//137 144//144
f 140//140 151//151 134//134
f 60//60 63//63 92//92
f 60//60 92//92 62//62
f 107//107 115//115 94//94
f 107//107 18//18 115//115
f 87//87 63//63 18//18
f 87//87 18//18 107//107
f 87//87 107//107 94//94
f 87//87 94//94 92//92
f 87//87 92//92 63//63
f 42//42 33//33 26//26
f 42//42 26//26 25//25
f 42//42 25//25 45//45
f 42//42 45//45 67//67
f 42//42 67//67 33//33
f 96//96 100//100 102//102
f 96//96 102//102 89//89
f 96//96 89//89 93//93
f 96//96 93//93 100//100
f 91//91 84//84 89//89
f 91//91 89//89 119//119
f 91//91 119//119 84//84
f 114//114 100//100 101//101
f 114//114 120//120 102//102
f 114//114 102//102 100//100
f 141//141 120//120 114//114
f 141//141 114//114 101//101
f 141//141 101//101 111//111
f 141//141 111//111 105//105
f 141//141 105//105 132//132
f 141//141 132//132 194//194
f 141//141 194//194 263//263
f 141//141 263//263 273//273
f 74//74 73//73 66//66
f 74//74 66//66 56//56
f 74//74 56//56 80//80
f 74//74 80//80 75//75
f 74//74 75//75 81//81
f 74//74 81//81 73//73
f 59//59 70//70 50//50
f 59//59 55//55 77//77
f 59//59 77//77 70//70
f 48//48 55//55 59//59
f 48//48 50//50 23//23
f 48//48 23//23 34//34
f 48//48 34//34 55//55
f 31//31 23//23 50//50
f 31//31 35//35 23//23
f 52//52 56//56 35//35
f 52//52 35//35 50//50
f 52//52 50//50 80//80
f 52//52 80//80 56//56
f 15//15 35//35 16//16
f 15//15 16//16 7//7
f 15//15 7//7 35//35
f 212//212 222//222 215//215
f 212//212 215//215 207//207
f 136//136 143//143 139//139
f 136//136 139//139 115//115
f 136//136 115//115 143//143
f 129//129 121//121 138//138
f 129//129 138//138 143//143
f 129//129 143//143 121//121
f 145//145 142//142 150//150
f 145//145 150//150 135//135
f 145//145 135//135 142//142
f 247//247 258//258 195//195
f 247//247 195//195 231//231
f 247//247 231//231 258//258
f 326//326 340//340 325//325
f 326//326 325//325 294//294
f 326//326 294//294 300//300
f 326//326 300//300 340//340
f 406//406 400//400 408//408
f 406//406 408//408 411//411
f 406//406 411//411 409//409
f 406//406 409//409 413//413
f 406//406 413//413 405//405
f 287//287 285//285 306//306
f 287//287 306//306 292//292
f 287//287 292//292 284//284
f 287//287 284//284 261//261
f 287//287 261//261 285//285
f 260//260 226//226 240//240
f 260//260 240//240 261//261
f 260//260 261//261 281//281
f 293//293 306//306 295//295
f 293//293 295//295 281//281
f 293//293 281//281 284//284
f 293//293 284//284 292//292
f 293//293 292//292 306//306
f 211//211 203//203 226//226
f 211//211 190//190 203//203
f 216//216 172//172 184//184
f 216//216 184//184 190//190
f 216//216 190//190 211//211
f 170//170 167//167 184//184
f 170//170 184//184 172//172
f 170//170 172//172 159//159
f 170//170 159//159 158//158
f 188//188 182//182 172//172
f 188//188 213//213 182//182
f 394//394 386//386 400//400
f 394//394 400//400 406//406
f 394//394 406//406 405//405
f 394//394 405//405 390//390
f 394//394 390//390 297//297
f 394//394 297//297 386//386
f 344//344 331//331 390//390
f 344//344 390//390 349//349
f 344//344 349//349 340//340
f 344//344 340//340 331//331
f 356//356 412//412 377//377
f 356//356 377//377 354//354
f 356//356 354//354 342//342
f 356//356 342//342 412//412
f 334//334 328//328 342//342
f 334//334 342//342 327//327
f 334//334 327//327 328//328
f 251//251 249//249 304//304
f 251//251 304//304 303//303
f 307//307 303//303 304//304
f 307//307 304//304 311//311
f 307//307 311//311 310//310
f 307//307 310//310 303//303
f 368//368 355//355 369//369
f 367//367 355//355 368//368
f 367//367 368//368 369//369
f 367//367 369//369 396//396
f 367//367 396//396 382//382
f 367//367 311//311 304//304
f 367//367 304//304 355//355
f 316//316 296//296 339//339
f 370//370 382//382 351//351
f 370//370 351//351 346//346
f 338//338 363//363 320//320
f 338//338 320//320 312//312
f 338//338 312//312 357//357
f 338//338 357//357 374//374
f 338//338 374//374 363//363
f 177//177 185//185 181//181
f 177//177 95//95 185//185
f 173//173 95//95 177//177
f 173//173 177//177 181//181
f 173//173 181//181 65//65
f 173//173 65//65 95//95
f 76//76 65//65 181//181
f 76//76 181//181 68//68
f 76//76 68//68 65//65
f 196//196 133//133 210//210
f 196//196 210//210 201//201
f 196//196 201//201 187//187
f 85//85 79//79 122//122
f 85//85 122//122 104//104
f 85//85 104//104 82//82
f 85//85 82//82 67//67
f 85//85 67//67 79//79
f 127//127 112//112 104//104
f 127//127 104//104 122//122
f 127//127 122//122 133//133
f 127//127 133//133 196//196
f 127//127 196//196 187//187
f 127//127 187//187 123//123
f 127//127 123//123 112//112
f 252//252 264//264 201//201
f 252//252 201//201 223//223
f 252//252 223//223 274//274
f 252//252 274//274 264//264
f 5//5 23//23 3//3
f 5//5 3//3 1//1
f 5//5 1//1 2//2
f 5//5 2//2 17//17
f 5//5 17//17 23//23
f 156//156 153//153 151//151
f 156//156 151//151 147//147
f 156//156 147//147 175//175
f 156//156 162//162 153//153
f 155//155 175//175 147//147
f 169//169 162//162 156//156
f 169//169 156//156 175//175
f 169//169 175//175 171//171
f 169//169 171//171 162//162
f 146//146 151//151 140//140
f 146//146 140//140 147//147
f 146//146 147//147 151//151
f 54//54 62//62 49//49
f 54//54 49//49 13//13
f 54//54 13//13 21//21
f 54//54 21//21 18//18
f 54//54 18//18 63//63
f 54//54 63//63 60//60
f 54//54 60//60 62//62
f 276//276 141//141 273//273
f 276//276 273//273 279//279
f 276//276 279//279 294//294
f 276//276 294//294 325//325
f 276//276 325//325 277//277
f 126//126 117//117 120//120
f 126//126 267//267 208//208
f 126//126 208//208 117//117
f 53//53 50//50 48//48
f 53//53 48//48 59//59
f 53//53 59//59 50//50
f 43//43 35//35 31//31
f 43//43 31//31 50//50
f 43//43 50//50 35//35
f 220//220 213//213 237//237
f 209//209 212//212 207//207
f 209//209 207//207 183//183
f 209//209 183//183 182//182
f 209//209 182//182 213//213
f 275//275 226//226 260//260
f 275//275 260//260 281//281
f 275//275 281//281 296//296
f 275//275 296//296 236//236
f 229//229 236//236 216//216
f 229//229 216//216 211//211
f 229//229 211//211 275//275
f 229//229 275//275 236//236
f 164//164 167//167 170//170
f 164//164 170//170 158//158
f 164//164 158//158 167//167
f 317//317 327//327 342//342
f 317//317 342//342 318//318
f 317//317 318//318 306//306
f 317//317 306//306 327//327
f 313//313 306//306 318//318
f 313//313 318//318 295//295
f 313//313 295//295 306//306
f 336//336 318//318 342//342
f 336//336 342//342 339//339
f 242//242 224//224 251//251
f 242//242 251//251 238//238
f 242//242 238//238 224//224
f 248//248 238//238 251//251
f 248//248 253//253 243//243
f 248//248 243//243 238//238
f 256//256 253//253 248//248
f 256//256 248//248 251//251
f 256//256 251//251 303//303
f 256//256 303//303 253//253
f 246//246 249//249 251//251
f 246//246 251//251 224//224
f 246//246 224//224 222//222
f 319//319 337//337 335//335
f 319//319 296//296 316//316
f 319//319 316//316 339//339
f 319//319 339//339 337//337
f 353//353 335//335 337//337
f 353//353 337//337 364//364
f 308//308 227//227 236//236
f 308//308 236//236 296//296
f 308//308 296//296 319//319
f 308//308 319//319 335//335
f 308//308 335//335 353//353
f 308//308 353//353 345//345
f 308//308 345//345 315//315
f 221//221 237//237 213//213
f 362//362 310//310 311//311
f 362//362 311//311 367//367
f 362//362 367//367 382//382
f 362//362 382//382 370//370
f 362//362 370//370 346//346
f 362//362 346//346 310//310
f 152//152 175//175 155//155
f 152//152 155//155 147//147
f 152//152 147//147 140//140
f 152//152 140//140 144//144
f 152//152 144//144 143//143
f 152//152 143//143 158//158
f 152//152 158//158 159//159
f 152//152 159//159 175//175
f 157//157 141//141 276//276
f 157//157 276//276 277//277
f 157//157 277//277 267//267
f 157//157 267//267 126//126
f 157//157 126//126 120//120
f 157//157 120//120 141//141
f 214//214 212//212 209//209
f 214//214 209//209 213//213
f 214//214 213//213 220//220
f 214//214 222//222 212//212
f 245//245 355//355 249//249
f 234//234 350//350 355//355
f 234//234 355//355 245//245
f 234//234 220//220 237//237
f 230//230 226//226 275//275
f 230//230 275//275 211//211
f 230//230 211//211 226//226
f 218//218 213//213 188//188
f 218//218 188//188 172//172
f 218//218 172//172 216//216
f 218//218 216//216 236//236
f 218//218 236//236 227//227
f 218//218 227//227 232//232
f 218//218 232//232 237//237
f 218//218 237//237 221//221
f 218//218 221//221 213//213
f 324//324 339//339 296//296
f 324//324 296//296 295//295
f 324//324 295//295 318//318
f 324//324 318//318 336//336
f 324//324 336//336 339//339
f 348//348 364//364 355//355
f 348//348 355//355 350//350
f 348//348 350//350 345//345
f 348//348 345//345 353//353
f 348//348 353//353 364//364
f 241//241 232//232 227//227
f 241//241 227//227 308//308
f 239//239 237//237 232//232
f 239//239 232//232 241//241
f 239//239 241//241 308//308
f 239//239 308//308 315//315
f 239//239 315//315 345//345
f 239//239 345//345 350//350
f 239//239 350//350 234//234
f 239//239 234//234 237//237
f 235//235 222//222 214//214
f 235//235 214//214 220//220
f 235//235 220//220 234//234
f 235//235 234//234 245//245
f 235//235 245//245 249//249
f 235//235 249//249 246//246
f 235//235 246//246 222//222
