# OBJ
# COMPAS
# version: 2.1.0
# precision: 3
# V F E: 436 868 1302

o Mesh 0
v 10.428 2.334 32.739
v 10.416 2.634 32.725
v 10.362 -4.094 32.421
v 10.418 2.915 32.768
v 10.356 -4.691 32.458
v 10.348 -5.330 32.413
v 10.322 -5.202 32.320
v 10.322 -4.507 32.333
v 10.408 3.101 32.874
v 10.334 -5.944 32.463
v 10.386 3.441 32.892
v 10.303 -7.017 32.380
v 10.370 1.834 32.922
v 10.266 -7.183 32.352
v 10.252 -4.734 32.279
v 10.367 3.554 33.006
v 10.284 -6.953 32.514
v 10.332 -0.356 32.868
v 10.306 4.324 32.840
v 10.246 -7.138 32.514
v 10.226 -7.310 32.403
v 10.331 4.244 33.093
v 10.162 -7.293 32.232
v 10.271 3.612 33.206
v 10.235 4.538 33.042
v 10.245 4.125 33.277
v 10.126 -7.340 32.561
v 10.063 -7.471 32.334
v 10.219 4.606 33.337
v 10.115 -7.049 32.864
v 9.977 -5.181 32.095
v 9.969 -7.399 32.139
v 10.074 -7.198 32.837
v 10.108 4.858 33.147
v 10.142 3.183 33.454
v 10.053 -6.916 33.007
v 9.955 4.869 32.452
v 9.934 4.690 32.390
v 10.049 -4.488 33.204
v 10.098 4.671 33.576
v 9.998 -7.082 33.051
v 10.053 4.391 33.654
v 9.724 -4.631 31.982
v 9.906 -7.241 33.100
v 9.782 5.187 32.491
v 9.749 5.037 32.305
v 9.890 -6.793 33.329
v 9.961 3.803 33.794
v 9.875 -4.371 33.545
v 9.843 -6.993 33.376
v 9.852 5.029 34.025
v 9.761 -6.822 33.568
v 9.764 -5.555 33.669
v 9.805 1.770 33.960
v 9.819 5.286 34.073
v 9.761 -3.891 33.787
v 9.443 -7.483 32.115
v 9.693 5.689 34.205
v 9.627 -4.009 33.993
v 9.279 -7.413 31.901
v 9.536 -6.801 33.940
v 9.598 5.735 34.427
v 9.151 -7.128 31.767
v 9.027 -7.243 31.719
v 9.048 6.036 32.093
v 9.430 1.386 34.481
v 9.445 5.680 34.633
v 9.395 6.377 34.644
v 9.329 -6.495 34.256
v 8.902 4.913 31.697
v 9.300 -1.451 34.530
v 9.240 -6.681 34.343
v 9.306 6.325 34.803
v 9.238 6.598 34.459
v 8.796 6.072 31.790
v 9.212 -6.243 34.419
v 9.162 6.627 34.194
v 9.252 2.877 34.766
v 9.236 6.656 34.806
v 8.683 5.909 31.641
v 9.158 -4.800 34.570
v 9.191 6.506 34.948
v 8.709 6.309 32.100
v 9.096 -6.474 34.548
v 9.119 4.564 34.971
v 9.073 6.849 34.716
v 8.588 6.248 31.750
v 8.893 -7.482 33.638
v 8.523 6.066 31.564
v 9.008 -4.675 34.750
v 9.051 6.794 35.025
v 9.036 2.717 35.004
v 8.974 -6.816 34.666
v 8.943 -6.388 34.732
v 8.847 6.868 34.178
v 8.390 4.995 31.379
v 8.420 6.252 31.597
v 8.963 -1.201 34.954
v 8.964 4.920 35.146
v 8.890 -6.084 34.811
v 8.915 5.897 35.226
v 8.271 6.421 31.755
v 8.849 6.762 35.315
v 8.684 -5.083 35.079
v 8.030 5.833 31.272
v 8.622 -7.291 34.989
v 8.597 7.064 34.918
v 8.003 6.284 31.349
v 8.631 -0.844 35.293
v 8.570 -7.201 35.110
v 7.900 6.135 31.246
v 8.568 6.662 35.578
v 7.835 5.995 31.193
v 8.421 -7.455 35.039
v 8.429 -7.430 35.114
v 7.829 6.526 31.441
v 8.454 -4.984 35.311
v 7.776 6.249 31.242
v 7.771 -7.294 31.269
v 8.398 6.951 35.484
v 7.797 6.656 31.795
v 8.339 -5.314 35.405
v 8.282 -7.482 35.124
v 8.363 6.012 35.739
v 8.268 -7.328 35.349
v 8.327 6.778 35.769
v 8.256 -7.165 35.404
v 7.532 5.154 31.037
v 8.280 3.709 35.738
v 7.532 6.416 31.218
v 8.195 -7.443 35.339
v 8.196 -5.122 35.541
v 8.168 -7.318 35.449
v 7.469 6.694 31.413
v 8.116 -5.370 35.596
v 8.057 -7.481 35.261
v 8.119 6.240 35.933
v 8.082 0.363 35.791
v 8.100 6.448 35.943
v 7.239 -7.262 31.065
v 7.159 5.334 30.902
v 7.902 -7.173 35.697
v 7.100 -7.171 30.993
v 7.077 -7.319 31.031
v 7.832 -7.299 35.742
v 7.876 6.801 36.091
v 7.052 6.688 31.196
v 7.774 5.878 36.170
v 7.684 -7.443 35.744
v 7.717 -2.722 35.975
v 7.691 -7.344 35.833
v 7.714 3.692 36.154
v 7.648 6.977 36.034
v 7.677 6.625 36.254
v 7.628 -3.388 36.021
v 7.633 6.797 36.249
v 7.546 -5.944 35.995
v 7.393 -7.461 35.783
v 6.641 6.884 31.195
v 7.473 6.900 36.301
v 7.472 6.518 36.390
v 7.447 6.713 36.393
v 7.360 -7.381 35.999
v 7.358 -7.252 36.056
v 7.349 6.628 36.465
v 7.257 7.039 36.120
v 7.248 6.879 36.457
v 6.256 -6.254 30.582
v 7.118 -6.504 36.261
v 7.091 5.517 36.574
v 7.066 6.807 36.601
v 6.217 7.032 31.528
v 6.111 6.928 30.949
v 6.946 -7.174 36.309
v 6.941 -6.564 36.349
v 5.977 -7.293 30.627
v 6.922 7.002 36.447
v 6.802 -7.447 36.140
v 5.880 -7.192 30.550
v 6.807 -7.409 36.246
v 6.855 6.829 36.684
v 6.716 -2.568 36.559
v 5.702 -7.116 30.476
v 5.691 -6.836 30.434
v 6.645 -6.763 36.491
v 5.667 6.642 30.576
v 5.636 6.073 30.414
v 5.787 -7.365 31.380
v 6.661 6.409 36.803
v 5.566 -6.497 30.368
v 6.552 -7.334 36.462
v 5.577 6.503 30.511
v 6.556 -4.363 36.590
v 5.701 7.054 31.358
v 6.538 6.999 36.649
v 5.560 6.785 30.648
v 6.511 -7.206 36.530
v 6.526 0.506 36.724
v 6.515 6.733 36.860
v 5.517 6.942 30.874
v 5.427 -7.302 30.468
v 6.349 -7.333 36.559
v 5.330 -7.258 30.421
v 5.263 -7.303 30.536
v 5.231 -7.248 30.419
v 5.245 6.522 30.538
v 5.173 -7.268 30.460
v 5.121 -6.874 30.254
v 6.142 -7.133 36.702
v 6.159 6.936 36.911
v 6.087 -7.378 36.662
v 4.931 -6.329 30.147
v 6.002 -7.286 36.728
v 5.949 -7.411 36.640
v 4.893 -6.796 30.207
v 4.848 -6.533 30.164
v 5.936 6.802 37.063
v 4.855 -7.156 30.479
v 4.879 -7.272 30.657
v 5.796 -7.436 36.434
v 5.855 -6.631 36.847
v 4.735 -6.819 30.322
v 5.833 6.661 37.121
v 4.691 -6.595 30.228
v 4.792 -7.320 30.872
v 5.611 -7.429 36.627
v 5.583 6.833 37.157
v 4.318 0.893 29.652
v 5.455 -7.419 36.793
v 4.283 0.415 29.650
v 5.428 -7.406 36.868
v 4.250 0.126 29.660
v 5.433 -7.313 36.941
v 4.236 1.105 29.623
v 4.140 0.953 29.636
v 4.058 1.191 29.636
v 4.228 6.821 30.967
v 5.170 -7.415 36.850
v 5.225 4.283 37.222
v 5.188 -6.540 37.052
v 5.183 6.670 37.271
v 3.951 5.344 30.131
v 5.083 7.030 37.132
v 3.872 2.645 29.723
v 3.868 -2.310 29.781
v 3.753 4.829 30.029
v 3.703 2.892 29.754
v 3.780 5.540 30.239
v 3.701 2.686 29.758
v 3.731 4.964 30.054
v 3.884 6.759 31.021
v 4.903 6.788 37.331
v 3.696 4.694 30.008
v 4.825 -7.322 37.044
v 3.787 6.624 30.947
v 3.604 2.855 29.881
v 3.646 5.755 30.405
v 4.700 -5.521 37.173
v 3.666 6.628 30.997
v 4.615 6.940 37.356
v 3.432 5.850 30.521
v 3.422 6.058 30.659
v 3.558 7.217 32.004
v 4.368 7.176 37.106
v 4.399 6.506 37.383
v 4.331 -7.395 36.982
v 4.385 5.814 37.382
v 3.317 -5.346 30.856
v 4.290 -5.489 37.233
v 3.230 5.977 30.748
v 4.218 -7.384 37.103
v 3.314 7.082 31.588
v 4.190 -7.235 37.200
v 3.146 5.801 30.822
v 4.190 6.970 37.383
v 3.157 6.692 31.258
v 3.176 6.893 31.430
v 3.063 4.817 30.745
v 3.082 6.502 31.192
v 4.067 -4.660 37.285
v 3.013 4.695 30.821
v 2.995 -2.700 30.783
v 4.009 -0.430 37.356
v 3.004 6.766 31.428
v 2.952 6.405 31.314
v 3.924 7.145 37.305
v 2.993 7.076 31.759
v 2.855 -4.111 31.025
v 2.809 0.987 30.973
v 2.965 7.179 32.006
v 2.868 -6.494 31.461
v 2.835 -6.271 31.399
v 2.892 -7.211 31.800
v 2.934 -7.260 32.080
v 2.842 -6.696 31.556
v 3.266 -7.347 34.499
v 3.741 6.934 37.417
v 2.763 -6.534 31.557
v 2.809 -7.239 31.978
v 3.649 -6.371 37.277
v 2.810 7.211 32.370
v 2.742 7.040 32.062
v 2.695 -7.181 31.926
v 3.562 6.562 37.416
v 3.501 -7.356 37.140
v 3.464 -7.298 37.207
v 3.405 -7.328 37.184
v 3.423 -5.685 37.298
v 2.540 -7.200 32.065
v 2.481 -6.334 31.801
v 3.194 -7.383 36.298
v 3.313 -7.273 37.213
v 3.322 6.955 37.404
v 2.577 7.258 32.925
v 3.295 6.549 37.402
v 2.363 -3.316 31.708
v 3.136 -7.218 37.226
v 3.107 -7.327 37.190
v 3.115 -6.529 37.293
v 2.296 -7.115 32.422
v 3.089 6.981 37.388
v 2.213 -5.641 32.243
v 3.043 4.744 37.376
v 2.238 -7.161 32.560
v 2.960 -7.234 37.213
v 2.199 -7.240 32.739
v 2.934 -6.664 37.277
v 2.931 7.082 37.337
v 2.761 -7.372 36.829
v 2.811 -7.242 37.201
v 2.737 -7.356 37.050
v 2.004 -5.172 32.600
v 2.661 6.785 37.340
v 2.616 7.134 37.205
v 2.527 -6.266 37.247
v 1.819 -7.256 33.495
v 1.794 -7.143 33.354
v 2.378 6.518 37.298
v 2.346 -7.229 37.150
v 2.308 -1.612 37.251
v 1.692 -7.136 33.541
v 2.205 -7.178 37.140
v 2.189 6.713 37.247
v 1.603 -7.239 33.836
v 2.076 -7.356 36.962
v 2.054 -7.258 37.112
v 2.046 6.062 37.227
v 2.028 6.508 37.221
v 1.965 -7.314 37.074
v 1.974 -6.642 37.161
v 1.875 -7.327 37.011
v 1.874 6.267 37.185
v 1.436 -7.272 34.636
v 1.828 -3.153 37.148
v 1.579 6.630 37.098
v 1.522 -7.250 36.976
v 1.485 6.998 37.062
v 1.382 -5.778 37.011
v 1.127 7.430 35.695
v 1.188 7.483 36.213
v 1.307 -7.041 36.968
v 1.297 6.860 37.010
v 0.941 -7.197 34.974
v 1.246 0.666 36.986
v 0.893 -6.988 35.033
v 1.201 7.091 36.931
v 1.142 -7.142 36.904
v 0.852 -7.214 35.156
v 0.845 -7.238 35.280
v 1.100 6.368 36.940
v 1.063 6.870 36.921
v 1.002 7.203 36.689
v 1.027 -6.894 36.889
v 0.995 -7.226 36.791
v 0.938 6.997 36.861
v 0.871 -7.282 36.495
v 0.730 -7.261 35.772
v 0.661 7.135 35.394
v 0.616 7.216 35.641
v 0.566 6.992 35.405
v 0.614 -7.246 35.885
v 0.717 -7.268 36.573
v 0.621 7.292 36.028
v 0.694 -7.178 36.703
v 0.678 -7.016 36.773
v 0.665 6.955 36.727
v 0.590 7.144 36.448
v 0.553 -7.249 36.220
v 0.560 -7.234 36.469
v 0.596 -6.775 36.752
v 0.393 6.988 35.707
v 0.540 -7.088 36.644
v 0.452 -7.215 36.116
v 0.462 -7.225 36.309
v 0.522 6.567 36.690
v 0.479 -7.139 36.488
v 0.339 7.092 35.923
v 0.380 -7.097 36.200
v 0.391 -7.079 36.357
v 0.263 3.266 35.615
v 0.414 6.855 36.602
v 0.392 -6.547 36.643
v 0.314 7.046 36.210
v 0.374 -6.228 36.652
v 0.364 -2.376 36.665
v 0.232 6.875 35.915
v 0.350 -4.506 36.654
v 0.172 2.870 35.781
v 0.194 6.939 36.081
v 0.228 6.868 36.438
v 0.244 5.296 36.566
v 0.209 -6.538 36.447
v 0.225 -6.039 36.576
v 0.168 -5.680 36.264
v 0.209 -6.248 36.551
v 0.141 6.703 36.140
v 0.206 -5.836 36.575
v 0.146 6.823 36.227
v 0.110 6.609 36.233
v 0.143 6.653 36.493
v 0.122 -5.649 36.381
v 0.116 -5.780 36.413
v 0.130 -5.672 36.503
v 0.101 6.691 36.375
v 0.105 -5.518 36.431
v 0.069 6.364 36.238
v 0.068 6.466 36.414
v 0.071 5.567 36.464
v 0.021 4.067 36.455
v -0.005 2.750 36.409
v -0.044 3.979 36.193
v -0.009 5.144 36.413
v -0.033 5.364 36.378
v -0.059 3.893 36.349
v -0.068 4.908 36.338
v -0.077 4.064 36.322
f 19 37 34
f 188 296 225
f 188 225 57
f 353 225 296
f 353 296 345
f 38 37 19
f 268 224 292
f 268 292 245
f 268 245 224
f 406 281 431
f 311 345 296
f 311 296 188
f 311 188 57
f 298 292 295
f 298 295 309
f 298 309 310
f 298 310 292
f 263 360 107
f 263 200 272
f 22 19 29
f 25 29 19
f 25 19 34
f 25 34 29
f 69 59 81
f 377 353 345
f 70 96 80
f 70 80 38
f 8 70 38
f 8 38 2
f 408 316 414
f 408 414 431
f 289 282 316
f 289 431 281
f 332 414 316
f 398 414 368
f 398 368 393
f 398 393 394
f 365 368 414
f 365 414 310
f 320 310 309
f 329 345 311
f 220 226 345
f 220 345 329
f 220 329 311
f 136 226 220
f 136 220 311
f 136 311 57
f 136 57 123
f 291 224 295
f 291 295 292
f 291 292 224
f 303 309 295
f 293 222 218
f 293 219 225
f 293 309 303
f 293 303 295
f 293 295 224
f 293 224 222
f 261 270 262
f 253 270 261
f 253 261 250
f 264 107 360
f 237 251 272
f 237 272 200
f 237 200 196
f 172 263 107
f 290 263 272
f 290 272 287
f 46 37 38
f 46 38 80
f 98 81 78
f 390 370 405
f 435 426 406
f 435 406 431
f 417 413 390
f 417 390 404
f 422 414 398
f 422 398 412
f 254 233 273
f 231 233 254
f 185 197 174
f 185 174 169
f 4 2 38
f 4 38 19
f 53 56 59
f 54 59 56
f 54 51 59
f 101 109 98
f 100 110 94
f 100 94 81
f 84 94 110
f 84 110 93
f 84 93 69
f 84 81 94
f 106 110 115
f 114 115 123
f 215 222 224
f 215 218 222
f 201 57 225
f 336 294 225
f 336 225 353
f 336 353 377
f 3 8 2
f 15 70 8
f 15 31 96
f 15 96 70
f 89 80 96
f 186 111 187
f 249 247 236
f 249 236 245
f 249 245 282
f 234 187 141
f 234 141 128
f 234 128 96
f 288 245 292
f 288 292 310
f 288 310 316
f 288 316 282
f 288 282 245
f 400 408 431
f 400 431 289
f 400 289 316
f 400 316 408
f 256 247 249
f 256 249 282
f 256 282 289
f 322 310 414
f 322 414 332
f 322 332 316
f 322 316 310
f 387 360 383
f 363 368 365
f 363 365 310
f 276 262 270
f 276 270 279
f 276 279 284
f 248 242 250
f 248 250 261
f 278 281 406
f 278 406 274
f 278 274 270
f 278 270 253
f 278 253 247
f 278 247 256
f 278 256 289
f 278 289 281
f 244 247 253
f 244 187 234
f 244 234 236
f 244 236 247
f 246 242 187
f 246 187 244
f 246 244 253
f 246 253 250
f 246 250 242
f 334 366 328
f 357 328 366
f 166 107 264
f 75 37 46
f 75 46 80
f 75 80 89
f 75 89 97
f 87 75 97
f 116 87 97
f 194 263 172
f 194 200 263
f 159 172 107
f 102 134 121
f 102 83 87
f 102 87 116
f 102 116 134
f 91 107 120
f 45 74 34
f 45 34 37
f 95 83 102
f 95 102 121
f 95 121 134
f 95 134 159
f 95 159 107
f 359 383 360
f 104 110 98
f 117 110 104
f 117 104 98
f 117 98 109
f 407 404 390
f 407 390 405
f 407 405 417
f 407 417 404
f 402 390 413
f 364 390 358
f 395 405 370
f 429 435 434
f 429 417 405
f 421 431 414
f 421 414 422
f 421 422 425
f 421 425 431
f 415 413 417
f 415 402 413
f 209 197 185
f 209 185 221
f 209 221 233
f 238 266 345
f 238 345 226
f 182 189 185
f 198 185 189
f 198 189 221
f 170 189 182
f 170 182 185
f 124 129 132
f 124 132 109
f 137 129 124
f 11 4 19
f 11 19 22
f 26 22 29
f 16 22 26
f 16 26 24
f 62 66 59
f 62 59 51
f 71 81 59
f 71 59 66
f 71 66 78
f 71 78 81
f 90 98 110
f 90 110 100
f 90 100 81
f 90 81 98
f 76 81 84
f 76 84 69
f 76 69 81
f 191 174 197
f 33 27 21
f 33 21 20
f 216 245 212
f 216 212 215
f 216 215 224
f 216 224 245
f 190 184 212
f 208 215 212
f 208 212 184
f 168 184 190
f 168 190 212
f 207 225 219
f 207 219 293
f 207 293 218
f 6 3 5
f 369 368 336
f 369 336 377
f 369 377 381
f 369 381 393
f 369 393 368
f 344 336 368
f 326 294 336
f 326 336 344
f 326 344 368
f 376 345 382
f 376 377 345
f 388 381 377
f 388 377 376
f 388 376 382
f 388 382 394
f 388 394 393
f 388 393 381
f 28 21 27
f 28 27 115
f 28 115 114
f 28 114 123
f 28 23 21
f 12 17 20
f 12 20 21
f 105 111 89
f 105 89 96
f 192 196 186
f 192 186 187
f 192 187 242
f 232 245 234
f 232 212 245
f 228 234 96
f 235 236 234
f 235 234 245
f 235 245 236
f 409 418 410
f 302 287 284
f 302 284 380
f 302 380 378
f 302 378 290
f 302 290 287
f 337 310 320
f 259 262 276
f 259 276 251
f 277 251 276
f 277 276 284
f 277 284 287
f 277 287 272
f 277 272 251
f 257 248 261
f 257 261 262
f 257 262 237
f 280 258 252
f 280 252 283
f 372 366 334
f 372 334 360
f 372 360 387
f 286 264 360
f 286 360 334
f 286 334 328
f 195 210 167
f 304 319 283
f 260 286 275
f 108 116 97
f 108 97 89
f 108 89 111
f 173 186 196
f 173 196 200
f 173 200 194
f 173 194 172
f 173 172 159
f 173 159 134
f 103 91 120
f 103 120 126
f 65 45 37
f 65 37 75
f 65 75 87
f 65 87 83
f 86 95 107
f 86 107 91
f 314 359 360
f 314 360 263
f 164 174 191
f 164 169 174
f 155 137 152
f 155 152 161
f 155 161 169
f 155 169 157
f 155 157 142
f 122 110 117
f 122 117 109
f 122 109 132
f 389 396 394
f 389 394 382
f 384 389 382
f 399 394 396
f 399 396 412
f 399 412 398
f 399 398 394
f 392 396 389
f 392 389 384
f 392 402 415
f 392 415 412
f 392 412 396
f 424 426 427
f 424 410 418
f 371 395 370
f 436 431 425
f 436 434 435
f 436 435 431
f 432 435 429
f 430 429 434
f 411 429 405
f 411 405 395
f 423 425 422
f 423 422 412
f 423 412 415
f 423 415 417
f 423 417 429
f 423 429 430
f 423 430 434
f 423 434 436
f 423 436 425
f 213 197 209
f 213 209 233
f 271 231 254
f 271 254 273
f 271 345 266
f 271 266 238
f 271 238 231
f 229 231 238
f 229 238 226
f 193 185 198
f 193 198 221
f 193 221 185
f 175 169 170
f 175 170 185
f 175 185 169
f 148 161 152
f 148 152 137
f 148 137 154
f 148 154 161
f 112 109 101
f 112 101 103
f 112 103 126
f 112 126 137
f 112 137 124
f 112 124 109
f 139 154 137
f 139 137 126
f 139 126 154
f 223 221 189
f 9 4 11
f 9 11 22
f 9 22 16
f 9 16 13
f 49 56 53
f 39 36 17
f 39 49 53
f 18 13 39
f 18 39 17
f 30 33 20
f 30 20 17
f 30 17 36
f 61 93 110
f 61 110 106
f 61 53 59
f 61 59 69
f 55 62 51
f 68 29 34
f 68 34 74
f 92 98 78
f 92 78 85
f 92 101 98
f 82 91 103
f 82 103 101
f 82 101 85
f 88 57 28
f 88 28 123
f 88 123 57
f 131 123 115
f 143 179 184
f 143 184 168
f 183 208 184
f 183 184 179
f 230 212 232
f 230 232 234
f 230 234 228
f 230 228 168
f 230 168 212
f 204 225 207
f 204 207 201
f 204 201 225
f 205 201 207
f 205 207 218
f 205 218 215
f 7 3 6
f 7 6 12
f 7 12 23
f 7 23 31
f 7 31 15
f 7 15 8
f 7 8 3
f 299 294 326
f 299 326 309
f 299 309 293
f 299 293 225
f 299 225 294
f 60 57 201
f 14 23 12
f 14 12 21
f 14 21 23
f 113 128 141
f 113 141 187
f 113 187 111
f 113 111 105
f 113 105 96
f 113 96 128
f 43 63 228
f 43 228 96
f 43 96 31
f 43 31 63
f 416 418 409
f 416 409 406
f 416 406 426
f 403 409 410
f 403 410 387
f 403 387 383
f 397 406 409
f 397 409 403
f 397 403 383
f 285 279 270
f 285 270 274
f 285 274 406
f 285 406 380
f 285 380 284
f 285 284 279
f 341 310 337
f 341 337 363
f 341 363 310
f 324 309 326
f 324 326 368
f 324 368 363
f 324 363 337
f 324 337 320
f 324 320 309
f 255 262 259
f 255 259 251
f 255 251 237
f 255 237 262
f 206 196 192
f 206 192 242
f 206 242 248
f 206 248 257
f 206 257 237
f 206 237 196
f 318 305 271
f 350 335 340
f 350 358 361
f 373 361 358
f 373 358 390
f 269 258 280
f 269 280 273
f 269 273 258
f 308 283 319
f 354 358 350
f 354 350 340
f 333 328 357
f 160 126 120
f 243 286 260
f 243 260 210
f 243 210 195
f 243 195 264
f 243 264 286
f 118 108 111
f 118 111 186
f 147 173 134
f 147 134 116
f 77 45 65
f 77 65 83
f 77 83 95
f 77 95 86
f 77 86 74
f 77 74 45
f 301 290 359
f 301 359 314
f 301 314 263
f 301 263 290
f 163 164 191
f 138 129 137
f 349 345 318
f 385 390 402
f 385 402 392
f 385 392 384
f 385 361 373
f 385 373 390
f 362 371 370
f 362 370 390
f 362 390 364
f 362 364 355
f 362 355 357
f 386 372 387
f 386 387 410
f 375 366 372
f 375 372 386
f 375 386 395
f 375 395 371
f 375 371 362
f 375 362 357
f 375 357 366
f 433 435 432
f 433 427 426
f 433 426 435
f 428 432 429
f 211 180 163
f 211 163 191
f 211 197 213
f 211 213 233
f 211 233 231
f 199 223 189
f 227 260 252
f 227 252 223
f 227 210 260
f 241 223 252
f 241 252 258
f 40 29 55
f 40 55 51
f 40 51 42
f 40 26 29
f 48 42 51
f 48 51 56
f 1 5 3
f 1 3 2
f 1 2 4
f 1 4 9
f 10 17 12
f 10 12 6
f 10 6 5
f 10 5 1
f 10 1 9
f 10 9 13
f 10 13 18
f 10 18 17
f 72 93 61
f 72 61 69
f 72 69 93
f 50 61 106
f 79 86 91
f 79 91 82
f 79 82 68
f 79 68 74
f 79 74 86
f 58 55 29
f 58 29 68
f 58 68 62
f 58 62 55
f 99 101 92
f 99 92 85
f 99 85 101
f 67 82 85
f 67 85 78
f 67 78 66
f 67 66 62
f 125 110 133
f 125 133 131
f 125 131 115
f 125 115 110
f 127 133 110
f 127 110 122
f 127 122 132
f 127 132 142
f 178 231 229
f 178 229 226
f 178 226 136
f 178 136 158
f 203 208 183
f 203 183 179
f 203 179 201
f 203 201 205
f 203 205 215
f 203 215 208
f 419 418 416
f 419 416 426
f 419 426 424
f 419 424 418
f 379 378 397
f 379 397 383
f 379 383 359
f 379 359 290
f 379 290 378
f 391 380 406
f 391 406 397
f 391 397 378
f 391 378 380
f 331 305 318
f 331 318 345
f 331 345 271
f 331 271 305
f 317 273 319
f 306 273 317
f 306 271 273
f 327 319 335
f 327 335 350
f 327 350 342
f 327 342 339
f 327 317 319
f 300 319 273
f 300 273 280
f 300 280 283
f 300 283 308
f 300 308 319
f 323 335 319
f 323 319 304
f 323 333 340
f 323 340 335
f 348 357 355
f 153 160 120
f 153 120 107
f 153 107 166
f 146 156 162
f 146 162 154
f 146 154 126
f 146 126 160
f 146 160 167
f 146 167 156
f 297 304 283
f 297 260 275
f 297 275 286
f 297 286 328
f 297 328 313
f 297 313 304
f 265 252 260
f 265 260 297
f 321 333 323
f 321 313 328
f 321 328 333
f 130 108 118
f 130 118 186
f 130 186 173
f 130 173 147
f 130 147 116
f 130 116 108
f 135 132 129
f 135 129 138
f 135 155 142
f 135 142 132
f 150 155 135
f 150 135 138
f 150 138 137
f 150 137 155
f 346 339 342
f 346 342 350
f 346 350 361
f 346 349 318
f 351 345 349
f 351 382 345
f 367 346 361
f 367 361 385
f 367 385 384
f 420 410 424
f 420 424 427
f 420 427 433
f 420 433 432
f 420 432 428
f 420 428 429
f 420 429 411
f 420 411 395
f 420 395 386
f 202 197 211
f 202 211 191
f 202 191 197
f 181 167 210
f 165 189 170
f 165 170 169
f 165 169 161
f 165 161 154
f 165 154 162
f 217 199 181
f 217 181 210
f 217 210 227
f 217 227 223
f 217 223 199
f 240 258 273
f 240 273 233
f 240 233 221
f 240 221 223
f 240 241 258
f 35 26 40
f 35 40 42
f 35 42 48
f 35 48 56
f 35 56 49
f 35 49 39
f 35 39 13
f 35 13 16
f 35 16 24
f 35 24 26
f 52 53 61
f 52 61 50
f 52 50 30
f 52 30 36
f 41 30 50
f 41 33 30
f 44 33 41
f 44 41 50
f 44 50 106
f 44 106 115
f 44 115 27
f 44 27 33
f 73 82 67
f 73 67 62
f 73 62 68
f 73 68 82
f 151 131 133
f 151 169 164
f 151 164 163
f 214 211 231
f 214 231 178
f 214 180 211
f 176 201 179
f 176 179 144
f 176 144 60
f 176 60 201
f 32 23 28
f 32 28 57
f 32 57 60
f 32 60 144
f 32 144 119
f 32 63 31
f 32 31 23
f 307 271 306
f 307 306 318
f 307 318 271
f 312 318 306
f 312 306 317
f 312 317 318
f 330 327 339
f 330 339 346
f 330 346 318
f 315 313 321
f 315 321 323
f 315 323 304
f 315 304 313
f 352 347 348
f 352 348 355
f 352 355 364
f 352 364 358
f 352 358 354
f 352 354 347
f 343 357 348
f 343 333 357
f 338 333 343
f 338 343 348
f 338 348 347
f 338 347 354
f 338 354 340
f 338 340 333
f 177 195 167
f 177 167 160
f 177 160 153
f 177 153 166
f 177 166 264
f 177 264 195
f 267 283 252
f 267 252 265
f 267 265 297
f 267 297 283
f 374 367 384
f 374 384 382
f 374 382 351
f 374 351 349
f 356 346 367
f 356 367 374
f 356 374 349
f 356 349 346
f 401 410 420
f 401 420 386
f 401 386 410
f 171 181 199
f 171 199 189
f 171 189 165
f 171 165 162
f 171 162 156
f 171 156 167
f 171 167 181
f 239 241 240
f 239 240 223
f 239 223 241
f 47 53 52
f 47 52 36
f 47 36 39
f 47 39 53
f 145 142 157
f 145 157 169
f 145 169 151
f 145 151 133
f 145 133 127
f 145 127 142
f 149 163 180
f 149 180 214
f 149 214 178
f 149 178 158
f 149 158 136
f 149 136 123
f 149 123 131
f 149 131 151
f 149 151 163
f 64 63 32
f 64 32 119
f 64 143 168
f 64 168 228
f 64 228 63
f 140 179 143
f 140 143 64
f 140 64 119
f 140 119 144
f 140 144 179
f 325 327 330
f 325 330 318
f 325 318 317
f 325 317 327
f 54 56 51
