# OBJ
# COMPAS
# version: 2.1.0
# precision: 3
# V F E: 328 652 978

o Mesh 0
v 80.625 13.095 24.611
v 80.604 13.369 24.401
v 80.550 13.191 24.132
v 80.588 13.479 25.350
v 80.437 13.288 23.814
v 80.520 13.523 25.071
v 80.544 13.392 25.733
v 80.499 13.578 25.478
v 80.454 12.651 25.463
v 80.495 13.246 26.009
v 80.277 13.492 23.949
v 80.431 13.596 25.885
v 80.469 13.331 26.310
v 80.227 13.611 24.443
v 80.370 13.293 26.630
v 79.854 11.385 21.630
v 79.902 8.166 22.209
v 79.835 10.610 21.632
v 79.840 8.659 21.771
v 79.832 8.251 21.787
v 79.840 8.018 22.018
v 79.760 11.636 21.594
v 79.838 7.848 22.716
v 79.734 8.433 21.614
v 80.217 13.039 27.122
v 79.706 7.686 21.623
v 79.700 8.115 21.591
v 79.756 13.245 22.434
v 80.108 13.646 26.327
v 79.672 12.570 21.706
v 80.148 13.419 26.924
v 79.636 11.381 21.570
v 79.673 12.938 22.006
v 79.832 13.601 23.823
v 79.591 7.801 21.546
v 79.578 9.120 21.508
v 80.098 12.996 27.441
v 79.869 13.789 25.165
v 79.737 13.703 24.243
v 80.027 11.981 27.695
v 79.979 13.320 27.244
v 80.018 12.633 27.701
v 79.440 8.933 21.495
v 79.432 13.147 21.996
v 79.329 12.846 21.688
v 79.215 9.087 21.505
v 79.216 12.463 21.611
v 79.757 12.189 27.867
v 79.699 13.210 27.556
v 79.227 13.400 22.442
v 79.530 13.724 26.037
v 79.644 12.632 27.860
v 79.596 11.308 27.870
v 79.534 13.025 27.838
v 79.488 11.547 27.947
v 78.901 13.140 21.843
v 79.310 13.547 26.856
v 78.779 12.737 21.670
v 79.245 12.033 27.989
v 78.579 13.375 22.240
v 78.690 13.619 23.472
v 78.984 12.192 28.019
v 78.836 13.322 27.663
v 78.589 3.133 27.135
v 78.598 3.431 27.455
v 78.056 12.992 21.761
v 78.544 3.065 27.401
v 78.538 3.738 27.658
v 77.880 13.423 22.252
v 77.600 -3.296 21.744
v 77.554 -3.192 21.490
v 78.148 12.972 28.098
v 77.503 -3.584 21.514
v 78.069 13.271 27.911
v 77.405 -2.694 21.384
v 77.392 -3.914 21.480
v 77.347 -3.772 21.388
v 77.350 13.262 21.884
v 77.821 1.738 27.692
v 77.168 -4.151 21.378
v 77.777 13.057 28.136
v 77.617 13.275 27.896
v 76.917 11.898 21.684
v 77.409 13.161 28.042
v 76.775 -4.414 21.394
v 76.496 -5.211 21.410
v 76.988 13.105 28.107
v 76.386 13.450 22.064
v 76.796 -0.461 27.762
v 76.204 -5.468 21.411
v 76.166 -5.683 21.439
v 76.034 13.286 21.904
v 76.008 13.560 22.365
v 75.852 -2.979 21.474
v 76.449 12.414 28.197
v 76.324 -1.699 27.779
v 76.270 -1.216 27.817
v 76.233 13.238 27.905
v 75.399 13.224 21.914
v 75.280 13.612 22.430
v 75.183 -4.306 21.492
v 75.355 -13.024 23.965
v 75.215 -11.974 22.516
v 75.186 -11.329 22.262
v 75.117 -12.161 22.492
v 75.246 -13.321 23.930
v 75.092 -11.860 22.347
v 75.453 -13.281 26.343
v 75.418 -13.439 26.390
v 75.149 -13.200 23.486
v 75.426 -12.717 26.988
v 74.987 -11.151 22.214
v 75.082 -13.231 23.317
v 75.377 -13.544 26.597
v 75.453 -9.109 27.494
v 75.119 -13.468 23.914
v 75.425 -11.479 27.288
v 75.429 -10.960 27.370
v 74.972 -12.260 22.561
v 74.979 -12.424 22.661
v 75.020 -13.109 23.115
v 74.985 -12.575 22.759
v 75.053 -13.393 23.545
v 75.348 -12.949 27.007
v 75.322 -13.394 26.793
v 75.316 -11.253 27.372
v 75.288 -12.711 27.150
v 75.334 0.152 27.975
v 74.896 -13.317 23.307
v 74.851 -12.907 22.982
v 75.236 -12.417 27.258
v 75.220 -12.958 27.137
v 74.883 -13.433 23.799
v 75.114 -13.716 26.608
v 75.148 -11.075 27.426
v 74.715 -13.146 23.187
v 74.593 13.524 22.120
v 75.067 -8.854 27.553
v 74.619 -13.288 23.477
v 74.906 -13.749 26.757
v 74.522 13.672 22.785
v 74.881 -12.972 27.332
v 74.863 -13.712 27.167
v 74.811 -13.509 27.280
v 74.743 -13.230 27.332
v 74.642 -13.705 27.252
v 74.641 -12.760 27.399
v 74.404 -13.779 27.147
v 74.382 -13.676 27.255
v 73.857 13.537 22.135
v 74.257 -13.789 27.031
v 74.098 -13.732 27.209
v 73.795 -13.219 24.202
v 73.944 -13.700 26.927
v 73.797 -13.658 27.131
v 73.707 -13.618 26.649
v 73.776 -12.123 27.492
v 73.634 -13.547 26.316
v 73.681 -13.198 27.386
v 73.608 -13.362 27.324
v 73.530 -13.578 26.974
v 73.237 -13.446 26.487
v 72.883 -13.048 24.799
v 72.509 -1.353 21.716
v 72.930 -12.613 27.494
v 72.758 -12.712 27.464
v 72.748 -2.052 28.082
v 72.080 13.047 22.111
v 72.411 -11.675 27.596
v 72.158 -12.034 27.580
v 72.021 13.201 27.504
v 71.303 -8.548 22.325
v 71.521 13.309 26.861
v 71.402 12.982 28.146
v 71.300 -11.224 27.670
v 71.113 12.745 28.486
v 70.868 13.174 27.380
v 70.315 -8.884 22.521
v 70.231 13.762 22.615
v 70.564 -11.282 27.656
v 70.091 -9.178 22.601
v 70.479 -10.972 27.695
v 70.461 -11.191 27.663
v 70.205 -11.841 27.464
v 69.749 -9.264 22.667
v 70.177 -12.052 27.387
v 70.177 -2.039 28.235
v 69.628 13.696 22.480
v 69.979 -11.976 27.358
v 69.856 12.759 27.986
v 69.371 -9.104 22.725
v 69.252 13.469 22.373
v 69.159 -9.381 22.847
v 69.031 13.771 23.154
v 69.345 12.381 28.417
v 69.127 -11.779 27.142
v 69.044 -9.219 27.848
v 68.528 13.628 22.493
v 68.554 -9.147 23.014
v 68.897 -9.514 27.817
v 68.848 12.097 28.484
v 68.729 -9.206 27.849
v 68.735 -1.581 28.262
v 68.206 -9.376 23.219
v 68.489 12.243 28.341
v 68.271 -11.669 26.729
v 68.252 -11.508 26.888
v 67.829 -9.523 23.414
v 68.030 -11.449 26.797
v 68.062 12.452 27.772
v 67.929 -11.558 26.628
v 67.755 -11.389 26.675
v 67.445 -10.038 23.875
v 67.422 -9.805 23.752
v 67.554 -11.513 26.355
v 67.314 -11.461 26.146
v 67.301 -11.377 26.343
v 66.894 12.723 22.458
v 67.370 -0.699 28.282
v 67.037 -11.245 26.209
v 66.848 -10.016 24.174
v 66.847 -11.231 25.932
v 66.691 -10.183 24.336
v 66.675 -10.749 24.883
v 66.595 -9.997 24.312
v 66.673 -11.041 25.447
v 66.549 -10.987 25.615
v 66.497 -10.921 25.374
v 66.289 13.672 23.798
v 66.268 -10.468 24.844
v 66.137 -10.498 25.062
v 66.046 -10.418 25.039
v 66.033 -10.241 24.908
v 65.984 -10.417 25.274
v 66.212 10.892 28.504
v 65.980 12.100 27.359
v 65.518 13.569 22.867
v 65.418 3.800 22.361
v 65.971 11.234 28.456
v 65.941 -1.723 28.220
v 65.856 10.874 28.459
v 65.787 -5.801 28.076
v 65.762 11.418 28.251
v 65.414 -9.735 25.452
v 65.279 -9.645 25.596
v 65.294 -9.676 25.886
v 65.203 -9.574 25.738
v 65.131 -9.497 26.024
v 65.090 11.712 27.477
v 64.642 13.288 22.677
v 65.056 11.203 28.075
v 65.021 11.409 27.892
v 65.024 10.607 28.333
v 64.542 13.594 23.149
v 64.854 10.697 28.258
v 64.664 -8.633 26.212
v 64.652 -8.639 26.084
v 64.589 -8.484 26.140
v 64.731 10.864 28.086
v 64.701 11.158 27.891
v 64.515 -8.329 26.305
v 64.670 10.306 28.235
v 64.561 10.839 27.880
v 64.082 13.028 22.680
v 64.430 -8.057 26.563
v 64.123 13.600 23.714
v 64.326 -7.836 26.577
v 63.947 12.540 22.661
v 64.272 -7.674 26.608
v 63.802 13.290 22.846
v 63.826 13.430 24.101
v 63.654 12.956 22.729
v 63.581 13.463 23.218
v 63.446 12.219 22.702
v 63.897 -6.003 27.947
v 63.866 -6.306 27.742
v 63.798 -6.417 27.530
v 63.357 13.017 22.831
v 63.335 12.669 22.732
v 63.345 13.231 22.979
v 63.340 13.367 23.965
v 63.287 13.429 23.583
v 63.297 12.994 24.222
v 63.167 12.856 22.832
v 63.163 13.238 23.143
v 63.164 13.276 23.341
v 63.587 -0.976 28.162
v 63.109 13.013 22.962
v 63.159 13.093 23.695
v 63.173 12.971 23.939
v 63.123 13.117 23.479
v 63.448 -1.399 28.134
v 62.280 8.469 22.781
v 62.140 7.012 22.685
v 62.018 8.642 23.360
v 62.036 8.653 23.631
v 62.421 4.402 28.096
v 62.391 5.046 27.911
v 61.880 4.723 22.666
v 62.251 4.490 27.943
v 62.267 3.030 28.146
v 61.740 5.228 22.717
v 62.200 3.306 28.097
v 62.117 1.520 28.187
v 61.603 4.157 22.885
v 61.573 5.612 22.833
v 61.934 4.707 27.274
v 61.488 4.751 22.846
v 61.410 4.131 23.002
v 61.399 5.211 22.926
v 61.867 1.916 28.063
v 61.347 4.415 22.939
v 61.672 4.387 26.819
v 61.316 5.105 23.294
v 61.284 4.881 23.071
v 61.714 1.916 27.967
v 61.223 4.585 23.062
v 61.239 4.726 23.334
v 61.208 4.309 23.119
v 61.181 4.431 23.327
v 61.562 2.122 27.670
v 61.413 4.182 26.077
v 61.167 4.394 23.568
v 61.308 2.534 26.952
v 61.195 3.172 26.146
v 61.149 3.133 25.645
v 61.197 2.879 26.244
v 61.137 3.079 25.929
f 299 191 193
f 172 299 90
f 305 312 299
f 305 208 312
f 319 317 312
f 76 77 73
f 76 107 77
f 102 70 109
f 102 76 73
f 102 73 70
f 225 312 208
f 225 223 233
f 185 191 299
f 185 112 107
f 185 107 193
f 185 193 191
f 80 77 107
f 80 75 77
f 104 80 107
f 104 107 112
f 91 112 172
f 91 172 90
f 91 104 112
f 204 193 208
f 199 193 204
f 199 204 208
f 199 208 305
f 199 305 299
f 199 299 193
f 322 296 328
f 248 217 276
f 248 276 277
f 323 328 296
f 323 296 295
f 323 295 318
f 309 233 319
f 309 319 312
f 309 312 225
f 309 225 233
f 275 276 207
f 201 235 176
f 239 235 201
f 26 70 73
f 268 218 83
f 268 83 164
f 46 75 83
f 46 83 47
f 101 90 299
f 101 299 164
f 51 29 38
f 270 272 278
f 130 208 193
f 212 276 217
f 121 105 113
f 121 113 129
f 103 105 107
f 103 107 76
f 103 113 105
f 106 102 109
f 221 223 225
f 213 208 130
f 181 112 185
f 181 172 112
f 178 172 181
f 178 181 185
f 178 185 299
f 178 299 172
f 85 75 80
f 85 80 90
f 85 90 101
f 85 101 75
f 86 80 104
f 86 104 91
f 86 91 90
f 86 90 80
f 310 312 317
f 308 312 310
f 308 310 306
f 308 299 312
f 284 306 310
f 284 278 272
f 284 272 279
f 294 284 279
f 290 322 313
f 290 313 307
f 290 307 283
f 290 296 322
f 281 290 283
f 281 283 260
f 326 328 323
f 326 323 319
f 326 261 269
f 326 269 277
f 326 277 328
f 245 257 319
f 324 307 313
f 314 318 295
f 314 295 317
f 320 319 323
f 320 323 318
f 320 318 314
f 320 314 317
f 320 317 319
f 174 190 176
f 173 171 51
f 173 51 229
f 173 229 266
f 9 1 10
f 9 10 64
f 9 64 1
f 7 10 1
f 7 1 4
f 7 4 13
f 7 13 10
f 12 13 4
f 12 38 29
f 108 109 70
f 108 64 109
f 17 20 3
f 17 3 1
f 219 235 304
f 203 235 219
f 203 219 242
f 203 242 187
f 203 187 176
f 203 176 235
f 159 145 147
f 292 242 304
f 292 304 275
f 292 275 242
f 241 253 304
f 241 304 235
f 241 235 239
f 241 239 253
f 251 260 259
f 251 239 243
f 263 259 260
f 263 260 283
f 205 243 239
f 205 176 190
f 205 190 210
f 262 297 253
f 316 277 276
f 316 276 275
f 316 275 304
f 316 304 311
f 301 304 253
f 301 253 297
f 301 311 304
f 71 77 26
f 71 26 73
f 71 73 77
f 250 272 270
f 250 270 237
f 264 218 268
f 264 268 279
f 264 279 272
f 264 272 250
f 264 250 168
f 264 168 83
f 264 83 218
f 99 47 83
f 99 83 168
f 94 83 75
f 94 75 101
f 94 101 164
f 94 164 83
f 57 29 51
f 57 51 171
f 194 38 179
f 194 266 229
f 194 229 51
f 194 51 38
f 44 45 56
f 44 56 50
f 196 207 206
f 196 275 207
f 216 163 158
f 119 130 193
f 119 193 107
f 119 107 105
f 67 64 10
f 67 10 13
f 67 13 40
f 209 276 212
f 209 212 207
f 209 207 276
f 211 206 207
f 211 207 212
f 211 212 217
f 124 143 125
f 84 74 176
f 84 176 87
f 139 129 133
f 153 163 216
f 153 139 133
f 153 133 158
f 153 158 163
f 123 133 129
f 123 129 113
f 123 113 106
f 110 102 106
f 110 106 113
f 110 113 103
f 110 103 76
f 110 76 102
f 116 151 133
f 116 133 123
f 116 123 106
f 214 208 213
f 214 213 223
f 214 223 221
f 214 221 225
f 214 225 208
f 136 129 224
f 136 224 223
f 136 223 213
f 136 213 130
f 136 130 121
f 136 121 129
f 315 295 310
f 315 310 317
f 315 317 295
f 288 295 286
f 288 286 285
f 288 278 284
f 288 284 310
f 288 310 295
f 302 306 294
f 302 294 299
f 302 299 308
f 302 308 306
f 293 284 294
f 293 294 306
f 293 306 284
f 274 268 294
f 274 294 279
f 274 279 268
f 238 164 299
f 238 299 294
f 238 294 268
f 238 268 164
f 291 296 290
f 291 286 295
f 291 295 296
f 282 286 281
f 282 281 266
f 282 285 286
f 271 190 174
f 271 174 266
f 271 266 281
f 271 205 210
f 271 210 190
f 267 269 261
f 267 261 277
f 267 277 269
f 258 257 261
f 258 261 326
f 258 326 319
f 258 319 257
f 265 277 261
f 265 248 277
f 256 248 265
f 256 265 261
f 256 261 257
f 256 257 248
f 244 233 232
f 244 232 245
f 244 245 319
f 244 319 233
f 327 277 324
f 327 324 328
f 327 328 277
f 325 322 328
f 325 328 324
f 325 324 313
f 325 313 322
f 177 266 174
f 177 174 171
f 177 171 173
f 177 173 266
f 98 171 174
f 98 57 171
f 82 74 57
f 82 57 98
f 82 98 174
f 82 174 176
f 82 176 74
f 15 13 12
f 63 29 57
f 63 57 74
f 63 74 54
f 42 54 52
f 42 52 48
f 42 48 40
f 2 4 1
f 2 1 3
f 2 3 5
f 39 38 14
f 39 179 38
f 8 14 38
f 8 38 12
f 8 12 4
f 23 1 64
f 23 64 108
f 23 108 70
f 23 70 17
f 23 17 1
f 21 26 20
f 21 20 17
f 21 17 70
f 21 70 26
f 240 242 219
f 240 219 304
f 167 147 128
f 95 176 187
f 197 175 187
f 197 187 242
f 157 147 167
f 165 159 147
f 252 281 260
f 252 260 251
f 252 251 243
f 298 297 262
f 298 262 259
f 298 259 263
f 298 263 283
f 298 283 307
f 195 201 176
f 195 176 205
f 195 205 239
f 195 239 201
f 255 259 262
f 255 262 253
f 255 253 239
f 255 239 251
f 255 251 259
f 321 324 277
f 321 277 316
f 321 307 324
f 303 311 301
f 303 301 297
f 303 297 316
f 303 316 311
f 198 250 237
f 58 47 99
f 58 45 47
f 30 45 44
f 30 22 47
f 30 47 45
f 24 26 27
f 16 5 3
f 16 22 30
f 16 30 5
f 36 22 16
f 36 16 27
f 36 77 75
f 254 237 270
f 254 266 194
f 254 194 179
f 92 99 150
f 92 58 99
f 28 44 50
f 189 275 196
f 189 196 186
f 189 186 275
f 226 224 129
f 226 129 139
f 226 139 153
f 226 153 216
f 222 226 216
f 222 216 217
f 156 158 133
f 156 133 151
f 140 134 143
f 140 151 116
f 140 116 134
f 142 118 126
f 142 147 145
f 155 196 206
f 120 130 119
f 120 119 105
f 114 109 64
f 114 64 67
f 114 124 125
f 114 125 143
f 114 143 134
f 114 134 116
f 114 116 106
f 114 106 109
f 65 67 40
f 65 40 68
f 59 128 55
f 59 55 48
f 59 48 52
f 59 62 128
f 53 48 55
f 53 55 68
f 53 68 40
f 53 40 48
f 97 55 128
f 289 281 286
f 289 286 291
f 289 291 290
f 289 290 281
f 230 233 223
f 230 223 224
f 230 232 233
f 247 248 257
f 247 257 245
f 247 246 248
f 234 246 247
f 234 247 245
f 234 245 232
f 31 15 12
f 31 12 29
f 31 29 63
f 31 63 41
f 49 41 63
f 49 63 54
f 25 42 40
f 25 40 13
f 25 13 15
f 11 14 2
f 11 2 5
f 11 5 28
f 61 100 39
f 61 39 50
f 61 50 100
f 141 179 39
f 141 39 100
f 141 100 179
f 6 2 14
f 6 14 8
f 6 8 4
f 6 4 2
f 287 242 240
f 287 240 304
f 287 304 242
f 81 167 128
f 81 128 62
f 81 54 74
f 81 74 84
f 81 84 87
f 81 87 176
f 81 176 95
f 81 95 187
f 81 187 167
f 202 197 242
f 202 242 275
f 169 157 167
f 169 167 187
f 169 187 175
f 169 147 157
f 170 165 147
f 170 147 169
f 170 169 175
f 166 159 165
f 166 165 170
f 166 170 180
f 236 205 271
f 236 271 281
f 236 252 243
f 236 243 205
f 300 298 307
f 300 307 321
f 300 321 316
f 300 316 297
f 300 297 298
f 188 150 198
f 188 198 237
f 188 237 254
f 188 254 179
f 188 179 150
f 192 99 168
f 192 168 250
f 192 250 198
f 192 198 150
f 192 150 99
f 19 20 26
f 19 26 24
f 19 16 3
f 19 3 20
f 35 77 36
f 35 36 27
f 35 27 26
f 35 26 77
f 43 46 47
f 43 36 75
f 43 75 46
f 273 285 282
f 273 282 266
f 273 266 254
f 273 254 270
f 93 88 100
f 93 100 50
f 60 56 88
f 60 50 56
f 137 92 150
f 137 150 179
f 137 179 100
f 137 100 88
f 66 58 92
f 66 45 58
f 33 30 44
f 33 44 28
f 33 28 5
f 33 5 30
f 220 248 222
f 220 222 217
f 220 217 248
f 227 246 234
f 227 222 248
f 227 248 246
f 162 158 156
f 162 156 216
f 162 216 158
f 144 145 159
f 144 159 146
f 144 146 143
f 144 142 145
f 215 216 155
f 215 155 206
f 215 206 211
f 215 211 217
f 215 217 216
f 161 155 216
f 161 216 156
f 160 159 166
f 160 166 186
f 152 160 186
f 152 186 196
f 152 196 155
f 152 155 151
f 122 121 130
f 122 130 120
f 122 120 105
f 122 105 121
f 111 124 114
f 111 114 67
f 111 67 65
f 111 65 68
f 111 68 127
f 111 127 124
f 138 147 97
f 138 97 128
f 138 128 147
f 231 232 230
f 37 31 41
f 37 41 49
f 37 49 54
f 37 54 42
f 37 42 25
f 37 25 15
f 37 15 31
f 34 50 39
f 34 39 14
f 34 14 11
f 34 11 28
f 34 28 50
f 72 54 81
f 72 81 62
f 72 62 59
f 72 59 52
f 72 52 54
f 200 202 275
f 182 175 197
f 182 197 202
f 182 202 200
f 182 180 170
f 182 170 175
f 184 186 166
f 184 166 180
f 184 275 186
f 249 252 236
f 249 236 281
f 249 281 252
f 18 16 19
f 18 19 24
f 18 24 27
f 18 27 16
f 32 22 36
f 32 36 43
f 32 43 47
f 32 47 22
f 280 285 273
f 280 273 270
f 280 270 278
f 280 278 288
f 280 288 285
f 69 88 93
f 69 93 50
f 69 50 60
f 69 60 88
f 78 92 137
f 78 137 88
f 78 88 56
f 78 56 45
f 78 45 66
f 78 66 92
f 228 232 231
f 228 231 230
f 228 230 224
f 228 224 226
f 228 226 222
f 228 222 227
f 228 227 234
f 228 234 232
f 132 144 143
f 132 143 124
f 132 124 127
f 131 118 142
f 131 142 144
f 131 144 132
f 131 132 127
f 154 151 155
f 154 155 161
f 154 161 156
f 154 156 151
f 148 146 152
f 148 152 151
f 148 151 140
f 148 140 143
f 148 143 146
f 149 160 152
f 149 152 146
f 149 146 159
f 149 159 160
f 89 55 97
f 135 118 115
f 135 115 97
f 135 97 147
f 135 147 142
f 135 142 126
f 135 126 118
f 79 68 55
f 79 55 89
f 79 89 115
f 79 115 118
f 79 118 68
f 183 180 182
f 183 182 200
f 183 200 275
f 183 275 184
f 183 184 180
f 117 68 118
f 117 118 131
f 117 131 127
f 117 127 68
f 96 115 89
f 96 89 97
f 96 97 115
