# OBJ
# COMPAS
# version: 2.1.0
# precision: 3
# V F E: 305 606 909

o Mesh 0
v 77.143 7.718 32.038
v 77.126 7.260 31.918
v 77.134 7.380 32.283
v 77.113 2.502 32.050
v 77.131 13.052 32.416
v 77.112 12.250 32.217
v 77.104 1.816 32.214
v 77.121 10.035 32.461
v 77.072 -4.531 31.854
v 77.065 -5.063 31.890
v 77.079 13.302 32.123
v 76.985 -3.533 31.187
v 77.082 10.169 32.540
v 77.060 2.050 32.333
v 76.992 13.448 31.661
v 76.992 -10.851 31.690
v 76.945 13.445 31.201
v 76.905 -5.630 30.706
v 76.980 -12.118 31.711
v 76.925 -12.545 31.083
v 77.037 12.103 32.605
v 76.979 -9.098 31.955
v 76.944 -12.370 31.577
v 77.018 8.498 32.665
v 77.012 8.233 32.668
v 77.000 4.265 32.568
v 76.936 -12.281 31.830
v 76.770 9.399 29.793
v 76.760 -12.704 29.909
v 76.789 13.590 30.411
v 76.952 13.358 32.489
v 76.964 12.854 32.688
v 76.872 13.716 32.067
v 76.602 6.376 28.685
v 76.601 7.234 28.676
v 76.635 12.968 29.112
v 76.599 9.095 28.747
v 76.583 -6.846 28.768
v 76.898 12.421 32.733
v 76.561 6.259 28.569
v 76.563 -5.586 28.644
v 76.570 12.741 28.813
v 76.560 12.376 28.770
v 76.877 8.410 32.794
v 76.797 -12.240 31.890
v 76.739 13.895 31.338
v 76.521 9.133 28.620
v 76.531 -13.940 28.823
v 76.460 -8.504 28.191
v 76.458 -7.338 28.176
v 76.481 5.612 28.497
v 76.521 13.242 29.197
v 76.438 -5.324 28.180
v 76.415 -13.575 28.040
v 76.455 12.091 28.711
v 76.397 -13.810 28.050
v 76.449 -14.130 28.728
v 76.391 -13.670 28.002
v 76.439 11.289 28.673
v 76.689 -12.295 31.880
v 76.502 13.468 29.621
v 76.409 6.298 28.486
v 76.681 -11.902 32.041
v 76.361 -9.700 28.021
v 76.553 13.873 30.567
v 76.343 -13.552 27.950
v 76.419 -14.099 28.960
v 76.392 13.038 28.820
v 76.309 -13.354 27.924
v 76.311 -8.095 28.050
v 76.674 13.305 32.824
v 76.347 12.641 28.709
v 76.602 -11.381 32.089
v 76.276 -9.533 28.008
v 76.582 -12.234 31.912
v 76.264 -12.841 27.908
v 76.279 10.963 28.647
v 76.219 -13.743 27.898
v 76.230 -13.950 28.051
v 76.610 12.625 32.898
v 76.197 -11.379 27.959
v 76.539 -7.305 32.283
v 76.537 12.906 32.926
v 76.192 -14.224 28.767
v 76.472 1.709 32.675
v 76.127 -14.134 28.406
v 76.149 13.458 29.155
v 76.411 13.703 32.545
v 76.068 12.417 28.723
v 76.367 13.273 32.908
v 76.022 13.199 28.811
v 75.921 -13.873 27.943
v 75.944 -14.116 28.304
v 76.051 13.823 29.884
v 76.289 6.267 32.881
v 76.236 -2.167 32.575
v 75.907 -14.261 28.569
v 76.145 14.051 31.993
v 75.764 -13.988 28.042
v 76.105 13.593 32.886
v 75.744 6.624 28.571
v 75.661 -13.920 27.972
v 75.730 13.433 28.911
v 75.689 -14.239 28.638
v 76.002 13.363 32.973
v 75.719 14.158 31.007
v 75.477 12.608 28.798
v 75.506 13.714 29.238
v 75.721 -10.312 32.304
v 75.365 13.592 28.986
v 75.605 13.602 32.993
v 75.170 -13.863 28.053
v 75.073 -14.140 28.211
v 75.450 6.399 33.103
v 75.041 -14.228 28.384
v 75.292 14.154 31.912
v 74.973 13.689 29.037
v 75.246 13.402 33.085
v 74.873 -14.198 28.463
v 74.836 -14.187 28.334
v 75.207 6.451 33.151
v 74.682 -14.067 28.513
v 74.646 14.029 29.810
v 74.574 13.513 28.971
v 74.864 13.664 33.117
v 74.470 13.784 29.117
v 74.729 13.824 33.106
v 74.496 12.454 33.233
v 74.086 -13.644 28.200
v 74.141 13.904 29.207
v 74.242 -11.979 32.052
v 74.228 -12.071 31.889
v 74.173 14.022 33.099
v 74.024 -11.886 31.974
v 73.962 -11.535 32.321
v 73.671 14.022 29.424
v 73.624 13.750 29.155
v 73.524 6.831 28.878
v 73.672 -10.430 32.550
v 73.590 -10.900 32.513
v 73.479 -10.465 32.568
v 73.487 13.941 33.259
v 73.289 13.310 33.389
v 73.154 14.185 33.082
v 72.843 13.838 29.254
v 72.887 14.100 30.012
v 72.452 13.267 29.249
v 72.373 14.041 29.520
v 71.822 -10.891 28.574
v 71.799 13.712 29.375
v 71.552 -8.873 32.921
v 70.472 -8.852 33.035
v 70.212 -8.738 32.946
v 70.218 -8.579 33.094
v 69.983 -8.475 33.044
v 69.870 -8.558 32.740
v 69.876 -8.501 32.884
v 69.422 -8.392 29.062
v 69.621 -8.520 31.997
v 69.696 -7.834 33.220
v 69.496 -8.427 31.865
v 69.527 -8.064 33.072
v 69.205 -8.184 31.192
v 68.704 8.639 29.607
v 69.047 13.586 33.968
v 66.642 13.328 34.350
v 66.076 12.890 34.440
v 65.141 -3.446 29.827
v 65.122 -3.569 29.895
v 65.048 -3.552 30.035
v 64.995 -3.109 29.833
v 65.017 13.218 30.310
v 64.691 -3.217 30.633
v 64.916 13.503 34.575
v 64.688 14.254 34.297
v 64.199 14.261 33.932
v 63.880 -1.554 30.051
v 64.205 11.844 34.717
v 63.561 -2.006 32.037
v 63.741 10.558 34.767
v 63.368 -1.241 30.310
v 63.463 -1.833 31.603
v 63.327 -1.335 30.468
v 63.393 -1.787 32.557
v 63.211 -1.109 30.419
v 63.308 -1.685 32.485
v 63.424 -1.341 34.316
v 63.103 -0.798 30.327
v 63.350 -1.518 34.200
v 63.290 -1.469 34.056
v 63.237 -1.373 34.165
v 62.949 13.965 30.705
v 62.768 14.168 31.043
v 62.886 -0.942 33.743
v 62.916 10.040 34.850
v 62.590 14.244 31.724
v 62.734 -0.099 34.474
v 62.535 -0.072 34.290
v 62.450 0.349 34.485
v 62.074 0.137 31.342
v 62.091 -0.073 31.647
v 62.094 -0.142 31.814
v 62.016 0.116 31.536
v 62.023 -0.048 31.956
v 61.999 0.054 31.775
v 61.128 2.849 30.621
v 61.026 3.116 30.623
v 61.005 2.949 30.684
v 60.876 5.862 30.613
v 60.863 3.767 30.605
v 60.844 3.045 30.973
v 60.658 13.576 30.951
v 60.614 5.884 30.650
v 60.651 4.922 34.942
v 60.356 3.929 31.227
v 60.110 13.797 31.074
v 60.004 14.107 31.318
v 59.984 4.669 31.383
v 59.991 5.352 35.012
v 59.712 14.167 32.047
v 59.898 14.156 34.549
v 59.891 5.249 34.960
v 59.882 6.434 35.077
v 59.844 13.812 35.183
v 59.792 5.387 34.914
v 59.620 5.118 33.220
v 59.301 13.857 31.210
v 59.604 7.103 35.129
v 59.248 13.414 31.161
v 59.326 5.673 32.882
v 59.388 5.863 33.873
v 59.394 13.995 35.045
v 59.236 5.838 33.071
v 59.399 7.291 35.147
v 59.406 13.514 35.354
v 59.316 7.147 35.067
v 59.295 12.881 35.376
v 59.261 13.750 35.286
v 59.193 6.916 34.880
v 59.092 14.115 34.700
v 58.847 7.125 33.693
v 58.641 13.603 31.276
v 58.926 13.918 35.140
v 58.709 7.137 32.904
v 58.763 14.114 33.736
v 58.541 13.950 31.537
v 58.832 13.586 35.394
v 58.527 7.572 32.499
v 58.492 7.661 32.669
v 58.695 12.804 35.445
v 58.656 13.429 35.452
v 58.584 14.019 34.780
v 58.605 11.421 35.403
v 58.585 12.267 35.418
v 58.254 13.541 31.337
v 58.322 14.028 32.328
v 58.554 13.275 35.405
v 58.553 11.702 35.401
v 58.506 13.746 35.239
v 58.179 13.223 31.329
v 58.444 11.329 35.358
v 58.085 9.356 31.187
v 58.415 12.764 35.352
v 58.404 11.297 35.246
v 58.380 11.111 35.079
v 58.005 13.419 31.400
v 58.027 13.907 31.744
v 58.268 13.862 34.986
v 58.230 13.972 34.581
v 57.979 13.745 31.434
v 57.945 9.259 31.326
v 58.236 13.611 35.123
v 58.158 14.016 34.233
v 58.047 9.591 33.065
v 57.905 9.539 31.331
v 57.906 10.540 31.345
v 58.161 13.412 35.041
v 58.094 11.022 34.214
v 58.047 14.025 33.976
v 57.985 14.036 33.252
v 58.112 13.668 34.888
v 57.833 9.432 31.473
v 57.868 13.866 32.009
v 58.013 11.392 34.091
v 57.808 13.497 31.543
v 57.784 9.698 31.453
v 57.806 13.689 31.743
v 58.046 13.416 34.797
v 58.017 13.853 34.469
v 57.926 14.024 33.616
v 57.724 9.666 31.595
v 57.741 9.646 32.020
v 57.706 9.737 31.814
v 57.706 9.832 32.078
v 57.659 10.426 31.506
v 57.662 12.431 31.922
v 57.814 13.820 33.867
v 57.599 10.365 31.776
v 57.576 10.629 31.662
v 57.680 13.632 32.997
v 57.736 13.409 33.852
v 57.684 13.849 33.214
v 57.670 13.607 33.240
v 57.644 12.843 33.089
v 57.698 13.619 33.781
f 38 29 54
f 2 1 9
f 2 35 1
f 48 54 29
f 60 67 27
f 81 149 138
f 124 91 72
f 266 270 260
f 266 260 262
f 213 149 171
f 232 175 240
f 285 287 270
f 285 270 266
f 285 266 295
f 285 295 299
f 28 35 36
f 28 36 1
f 28 1 35
f 37 42 36
f 37 36 35
f 37 35 42
f 17 6 1
f 17 1 36
f 68 36 42
f 68 42 72
f 68 72 91
f 34 29 38
f 34 35 2
f 12 2 9
f 119 104 131
f 135 131 60
f 135 63 140
f 139 140 63
f 139 63 109
f 84 57 67
f 84 67 60
f 84 60 131
f 84 131 104
f 76 149 81
f 76 69 78
f 163 129 161
f 179 173 129
f 179 129 163
f 160 109 121
f 160 121 197
f 201 183 202
f 291 299 295
f 107 147 124
f 107 124 72
f 150 212 216
f 150 216 192
f 150 192 145
f 150 145 124
f 150 124 147
f 150 147 212
f 276 295 266
f 276 266 262
f 276 262 295
f 229 242 212
f 229 212 213
f 229 213 262
f 229 262 260
f 255 270 242
f 255 242 229
f 255 229 260
f 255 260 270
f 168 169 188
f 168 171 149
f 172 147 213
f 172 213 212
f 172 212 147
f 210 262 213
f 210 213 171
f 296 287 285
f 296 285 299
f 30 17 36
f 30 65 46
f 30 46 17
f 137 124 145
f 66 78 69
f 83 128 121
f 45 27 63
f 45 63 60
f 45 60 27
f 20 57 48
f 20 48 29
f 20 29 12
f 20 12 9
f 26 44 63
f 41 34 38
f 41 38 54
f 18 2 12
f 18 12 29
f 18 29 34
f 18 34 2
f 58 78 66
f 58 50 54
f 132 119 131
f 132 131 134
f 115 104 119
f 115 119 120
f 152 134 131
f 152 131 135
f 152 135 140
f 152 140 154
f 75 63 135
f 75 135 60
f 75 60 63
f 141 140 139
f 141 139 160
f 141 160 154
f 141 154 140
f 97 93 79
f 97 57 84
f 97 84 104
f 97 104 115
f 74 70 76
f 74 76 81
f 74 81 62
f 74 62 70
f 184 179 163
f 184 163 161
f 182 173 179
f 182 179 202
f 182 202 173
f 189 184 161
f 189 156 157
f 189 157 162
f 151 109 160
f 151 160 139
f 151 139 109
f 214 197 121
f 200 183 201
f 200 211 208
f 271 262 208
f 271 208 211
f 298 299 291
f 298 305 304
f 298 304 299
f 288 281 305
f 221 240 175
f 246 256 220
f 77 72 62
f 164 213 147
f 164 147 107
f 164 107 138
f 133 100 88
f 133 144 175
f 170 202 183
f 170 183 169
f 170 129 173
f 170 173 202
f 181 188 169
f 158 169 168
f 158 168 149
f 158 149 129
f 158 129 170
f 158 170 169
f 224 175 232
f 303 299 304
f 303 304 305
f 303 305 302
f 300 287 296
f 300 296 299
f 300 299 303
f 300 303 302
f 300 302 287
f 15 11 17
f 15 17 46
f 33 31 11
f 33 11 15
f 33 15 46
f 33 88 31
f 59 47 62
f 59 62 72
f 43 72 42
f 43 42 35
f 51 62 47
f 64 62 51
f 64 53 50
f 64 50 58
f 64 58 66
f 64 66 69
f 64 69 76
f 64 76 70
f 64 70 62
f 96 121 109
f 95 85 44
f 10 19 9
f 16 19 20
f 16 20 9
f 16 9 19
f 23 27 67
f 23 67 57
f 23 57 20
f 23 20 19
f 23 19 27
f 24 26 8
f 4 9 1
f 32 44 24
f 32 24 21
f 49 34 41
f 49 41 54
f 49 54 50
f 49 50 35
f 49 35 34
f 122 119 132
f 122 156 129
f 122 129 120
f 122 120 119
f 56 58 54
f 56 54 48
f 56 48 57
f 56 57 79
f 56 79 78
f 56 78 58
f 113 115 120
f 113 120 129
f 113 129 112
f 113 93 97
f 113 97 115
f 155 162 157
f 155 152 154
f 155 154 189
f 155 189 162
f 86 57 97
f 86 97 79
f 86 79 57
f 187 154 160
f 187 160 197
f 187 197 189
f 187 189 154
f 159 156 189
f 159 189 161
f 159 161 129
f 159 129 156
f 180 195 214
f 180 214 121
f 237 195 180
f 237 235 251
f 203 211 200
f 203 200 201
f 286 291 295
f 275 262 271
f 275 271 286
f 275 286 295
f 275 295 262
f 293 298 291
f 293 291 292
f 301 284 288
f 301 288 305
f 247 251 235
f 243 232 240
f 196 220 221
f 227 216 212
f 227 212 242
f 227 242 270
f 227 192 216
f 267 256 246
f 267 246 270
f 89 72 77
f 89 77 107
f 89 107 72
f 101 81 138
f 101 138 107
f 101 107 77
f 101 77 62
f 101 62 81
f 209 213 164
f 209 164 138
f 209 138 149
f 209 149 213
f 142 175 224
f 142 224 235
f 142 133 175
f 98 116 144
f 98 144 133
f 98 133 88
f 98 88 33
f 98 33 46
f 185 183 200
f 185 200 208
f 185 208 188
f 185 188 181
f 185 181 169
f 185 169 183
f 177 168 188
f 177 210 171
f 177 171 168
f 143 128 83
f 94 108 123
f 94 65 87
f 94 87 108
f 106 65 94
f 106 94 123
f 106 144 116
f 106 116 98
f 106 98 46
f 106 46 65
f 126 117 124
f 126 124 137
f 126 137 145
f 103 91 124
f 103 108 87
f 103 87 68
f 103 68 91
f 40 47 43
f 40 43 35
f 40 35 50
f 40 50 53
f 40 53 51
f 40 51 47
f 55 59 72
f 55 72 43
f 55 43 47
f 55 47 59
f 111 105 100
f 90 100 105
f 90 105 83
f 82 85 96
f 82 63 44
f 82 44 85
f 114 121 96
f 114 96 85
f 114 85 95
f 114 95 44
f 114 44 83
f 114 83 121
f 25 26 24
f 25 24 44
f 25 44 26
f 13 21 24
f 13 24 8
f 7 3 8
f 7 8 26
f 7 26 14
f 7 10 9
f 7 9 4
f 7 4 1
f 7 1 3
f 5 11 31
f 5 31 32
f 5 32 21
f 5 21 13
f 5 13 8
f 5 8 3
f 5 3 1
f 5 1 6
f 5 6 17
f 5 17 11
f 80 32 83
f 80 83 44
f 102 113 112
f 102 112 129
f 102 129 149
f 102 149 76
f 102 76 78
f 153 152 155
f 153 155 157
f 153 157 156
f 153 156 122
f 153 122 132
f 153 132 134
f 153 134 152
f 226 233 204
f 194 198 204
f 190 184 189
f 186 184 190
f 186 190 204
f 186 204 202
f 186 202 179
f 186 179 184
f 230 204 233
f 230 233 248
f 282 230 248
f 282 248 291
f 282 291 286
f 282 286 271
f 205 202 204
f 205 204 230
f 205 230 282
f 205 203 201
f 205 201 202
f 215 211 203
f 215 271 211
f 294 298 293
f 294 293 292
f 294 284 301
f 294 301 305
f 294 305 298
f 249 292 291
f 249 291 248
f 249 248 233
f 249 233 244
f 259 251 247
f 259 247 243
f 259 243 268
f 263 261 251
f 253 223 214
f 264 261 288
f 264 288 284
f 234 253 261
f 199 198 189
f 199 189 197
f 238 224 232
f 238 232 243
f 238 243 247
f 238 247 235
f 238 235 224
f 289 305 281
f 289 281 268
f 269 289 268
f 245 240 221
f 245 221 220
f 252 268 243
f 252 243 240
f 252 269 268
f 176 175 144
f 176 144 106
f 176 106 196
f 176 196 221
f 176 221 175
f 217 246 220
f 217 220 196
f 217 196 193
f 217 192 227
f 217 227 270
f 217 270 246
f 283 287 302
f 283 267 270
f 283 270 287
f 127 125 105
f 127 105 111
f 127 111 100
f 127 100 133
f 127 133 142
f 127 142 165
f 127 165 125
f 206 177 188
f 206 188 208
f 166 235 167
f 166 167 128
f 166 128 143
f 166 143 125
f 166 125 165
f 118 105 125
f 118 125 143
f 118 143 83
f 118 83 105
f 61 65 30
f 61 87 65
f 146 196 106
f 146 193 196
f 136 146 106
f 136 106 123
f 110 117 108
f 110 108 103
f 110 103 124
f 110 124 117
f 71 32 31
f 71 31 88
f 71 88 100
f 71 100 90
f 71 90 83
f 71 83 32
f 73 109 63
f 73 63 82
f 73 82 96
f 73 96 109
f 22 27 19
f 22 19 10
f 22 10 7
f 22 7 14
f 22 14 26
f 22 26 63
f 22 63 27
f 39 32 80
f 39 80 44
f 39 44 32
f 92 102 78
f 92 78 79
f 99 113 102
f 99 102 92
f 99 92 79
f 99 79 93
f 99 93 113
f 191 194 204
f 191 204 190
f 191 190 189
f 191 189 198
f 191 198 194
f 178 237 180
f 178 180 121
f 178 121 128
f 178 128 167
f 178 167 235
f 178 235 237
f 218 205 282
f 218 282 271
f 218 271 215
f 218 215 203
f 218 203 205
f 239 261 264
f 239 294 292
f 272 251 259
f 272 259 268
f 272 268 281
f 258 261 253
f 250 237 251
f 250 253 214
f 250 214 195
f 250 195 237
f 228 253 234
f 228 223 253
f 297 302 305
f 297 305 289
f 297 289 290
f 297 290 302
f 280 290 245
f 280 245 220
f 280 220 256
f 280 256 267
f 280 267 283
f 280 283 302
f 280 302 290
f 279 290 289
f 279 289 269
f 279 240 245
f 279 245 290
f 207 262 210
f 207 210 177
f 207 177 206
f 207 206 208
f 207 208 262
f 174 235 166
f 174 166 165
f 174 165 142
f 174 142 235
f 52 36 68
f 52 68 87
f 52 87 61
f 52 61 30
f 52 30 36
f 148 145 192
f 148 192 217
f 148 217 193
f 148 193 146
f 148 146 136
f 130 108 117
f 130 117 126
f 130 126 145
f 130 145 148
f 130 148 136
f 130 136 123
f 130 123 108
f 241 244 233
f 241 239 292
f 241 292 249
f 241 249 244
f 278 284 294
f 278 264 284
f 257 251 272
f 257 272 263
f 257 263 251
f 277 288 261
f 277 261 263
f 277 263 272
f 277 272 281
f 277 281 288
f 254 258 253
f 254 253 250
f 254 250 251
f 254 251 261
f 254 261 258
f 222 198 199
f 222 199 197
f 273 252 240
f 273 240 279
f 273 279 269
f 273 269 252
f 231 241 233
f 265 264 278
f 265 278 239
f 265 239 264
f 274 239 278
f 274 278 294
f 274 294 239
f 219 197 214
f 219 214 223
f 219 223 228
f 219 228 234
f 219 234 222
f 219 222 197
f 236 239 222
f 236 222 234
f 236 234 261
f 236 261 239
f 225 241 231
f 225 231 233
f 225 233 226
f 225 226 204
f 225 204 198
f 225 198 222
f 225 222 239
f 225 239 241
f 53 64 51
