# OBJ
# COMPAS
# version: 2.1.0
# precision: 3
# V F E: 333 662 993

o Mesh 0
v 32.387 5.840 29.126
v 32.117 6.349 29.128
v 32.336 6.459 29.140
v 32.601 6.548 29.145
v 33.291 6.310 29.155
v 31.881 6.314 29.172
v 34.746 1.948 29.181
v 32.227 6.613 29.194
v 31.186 -1.664 29.231
v 31.100 -1.466 29.237
v 31.927 6.518 29.259
v 34.291 7.358 29.250
v 30.922 -1.544 29.282
v 34.912 7.619 29.283
v 34.369 7.587 29.296
v 31.074 -2.407 29.318
v 35.101 7.740 29.302
v 30.745 -1.312 29.330
v 37.605 2.342 29.310
v 36.512 7.909 29.331
v 31.027 -2.570 29.380
v 30.583 -1.178 29.385
v 30.481 -1.078 29.427
v 34.215 7.644 29.415
v 31.026 -2.659 29.484
v 31.493 -3.347 29.490
v 38.558 8.911 29.459
v 38.921 8.830 29.468
v 41.706 -5.141 29.469
v 42.273 -4.674 29.475
v 30.805 -2.151 29.540
v 38.856 9.102 29.508
v 42.484 -4.516 29.503
v 40.175 8.975 29.521
v 40.932 -5.589 29.538
v 42.627 -4.584 29.532
v 40.510 9.211 29.554
v 41.062 -5.657 29.561
v 38.609 9.198 29.574
v 41.306 8.426 29.570
v 31.734 -3.824 29.618
v 42.701 -1.645 29.568
v 41.653 8.645 29.610
v 31.622 -3.932 29.661
v 41.891 8.020 29.620
v 42.848 -4.430 29.621
v 40.914 -5.751 29.642
v 43.002 -3.806 29.645
v 42.313 6.990 29.649
v 41.583 9.045 29.662
v 38.858 9.282 29.692
v 42.015 8.687 29.682
v 42.767 4.584 29.679
v 42.900 3.147 29.689
v 42.805 5.032 29.714
v 41.137 9.332 29.724
v 43.060 -4.272 29.720
v 38.624 9.300 29.758
v 43.002 3.861 29.743
v 31.755 -4.253 29.799
v 40.730 9.433 29.774
v 42.342 8.255 29.776
v 42.677 6.317 29.783
v 31.612 -4.342 29.876
v 41.531 9.339 29.839
v 42.017 9.073 29.861
v 42.378 8.700 29.886
v 38.757 9.312 29.907
v 29.362 1.462 29.959
v 43.213 -3.540 29.905
v 41.114 9.468 29.995
v 41.404 9.422 30.000
v 43.056 4.694 30.006
v 43.270 -3.869 30.010
v 42.123 9.139 30.151
v 28.925 5.437 30.247
v 42.429 8.854 30.211
v 42.662 8.214 30.245
v 28.804 5.759 30.343
v 32.015 -5.507 30.366
v 28.332 5.027 30.456
v 28.201 4.875 30.505
v 31.967 -5.644 30.496
v 43.251 3.989 30.469
v 43.018 6.054 30.484
v 31.860 -5.467 30.555
v 28.115 4.741 30.573
v 28.380 5.828 30.579
v 28.730 6.028 30.582
v 28.229 5.726 30.599
v 28.178 5.582 30.608
v 42.121 9.165 30.555
v 31.965 -5.738 30.605
v 42.350 9.022 30.569
v 28.558 5.980 30.641
v 32.080 -5.911 30.653
v 28.749 6.050 30.674
v 41.029 9.435 30.626
v 43.334 -3.943 30.623
v 32.350 -6.114 30.680
v 28.236 5.824 30.701
v 27.927 5.222 30.708
v 27.973 5.611 30.732
v 41.301 9.408 30.672
v 28.086 5.768 30.790
v 27.781 4.925 30.815
v 27.750 5.290 30.862
v 27.776 5.564 30.866
v 28.271 5.883 30.865
v 41.816 9.271 30.876
v 41.532 9.372 30.892
v 27.613 5.174 30.988
v 27.572 5.457 31.028
v 27.531 5.276 31.122
v 27.640 5.611 31.201
v 27.453 5.300 31.286
v 32.808 -7.129 31.271
v 38.790 9.291 31.285
v 27.522 5.489 31.374
v 33.114 -7.460 31.405
v 31.631 -5.889 31.623
v 33.145 -7.724 31.684
v 38.766 9.275 31.663
v 31.496 -5.716 31.784
v 33.266 -7.821 31.779
v 32.624 -7.810 31.990
v 32.520 -7.859 32.105
v 27.320 5.283 32.142
v 32.684 -8.098 32.215
v 38.198 9.175 32.206
v 43.000 -7.769 32.213
v 42.865 -7.959 32.292
v 32.679 -8.184 32.362
v 31.400 -5.683 32.386
v 32.821 -8.368 32.412
v 43.160 -7.440 32.388
v 27.317 5.052 32.494
v 38.081 9.140 32.493
v 33.108 -8.496 32.542
v 31.370 -5.677 32.613
v 43.097 -8.099 32.660
v 38.060 9.133 32.710
v 39.071 9.200 32.791
v 42.882 -8.575 32.842
v 42.935 8.587 32.856
v 38.049 9.111 32.916
v 33.184 -8.865 33.103
v 43.174 -7.751 33.072
v 43.067 -8.436 33.125
v 33.011 -8.818 33.198
v 42.938 -8.738 33.152
v 27.197 5.118 33.328
v 41.921 9.094 33.323
v 27.224 5.003 33.402
v 42.084 9.019 33.347
v 42.993 -8.700 33.376
v 42.822 -8.875 33.380
v 27.321 5.370 33.523
v 41.646 9.110 33.464
v 38.800 9.135 33.497
v 41.791 9.103 33.510
v 27.462 5.436 33.582
v 42.976 -8.750 33.512
v 27.187 5.218 33.607
v 31.941 -7.363 33.611
v 42.810 -8.927 33.583
v 42.936 -8.803 33.594
v 38.689 9.100 33.660
v 27.335 5.383 33.743
v 27.191 4.990 33.758
v 43.043 -8.375 33.719
v 27.219 5.257 33.816
v 42.844 -8.879 33.783
v 27.181 5.084 33.949
v 32.508 -8.741 33.939
v 37.045 8.669 33.970
v 32.572 -8.870 34.013
v 27.355 5.270 34.161
v 43.236 -6.028 34.096
v 27.259 5.123 34.191
v 42.857 -8.726 34.123
v 33.091 -9.200 34.199
v 27.227 4.886 34.237
v 36.965 8.580 34.202
v 32.526 -8.885 34.240
v 42.841 8.591 34.239
v 27.306 4.471 34.316
v 32.826 -9.156 34.293
v 43.095 -7.898 34.244
v 27.371 5.191 34.326
v 42.643 -8.886 34.285
v 37.063 8.559 34.321
v 27.501 5.232 34.372
v 32.955 -9.226 34.356
v 27.295 4.666 34.392
v 27.330 4.965 34.421
v 27.295 4.808 34.428
v 28.179 5.568 34.432
v 36.902 -9.391 34.406
v 27.829 5.303 34.459
v 43.218 7.755 34.400
v 31.725 -7.095 34.456
v 42.926 -8.344 34.403
v 42.797 -8.679 34.404
v 32.889 -9.170 34.457
v 27.471 4.907 34.485
v 41.990 -9.024 34.422
v 32.263 -8.355 34.471
v 27.444 4.450 34.500
v 27.689 5.048 34.506
v 41.643 -9.057 34.442
v 27.547 4.099 34.515
v 33.059 -9.240 34.495
v 32.556 -8.893 34.511
v 37.234 -9.411 34.489
v 36.908 8.459 34.514
v 27.819 4.950 34.560
v 27.634 4.200 34.563
v 42.463 -8.917 34.501
v 28.320 5.316 34.579
v 28.888 5.653 34.585
v 27.745 4.080 34.598
v 28.311 5.174 34.608
v 28.260 5.004 34.611
v 32.241 -8.305 34.604
v 42.175 -8.954 34.567
v 42.641 -8.769 34.569
v 42.748 -8.540 34.573
v 41.848 -9.015 34.578
v 40.898 -9.104 34.588
v 32.927 -9.091 34.635
v 31.721 -7.143 34.646
v 37.003 -9.455 34.629
v 28.327 3.267 34.692
v 32.753 -8.888 34.683
v 43.133 -6.269 34.641
v 36.698 -9.468 34.674
v 32.880 -8.948 34.697
v 33.126 -9.065 34.702
v 42.588 -8.552 34.676
v 42.686 -8.260 34.676
v 43.274 6.720 34.675
v 32.270 -8.205 34.731
v 33.013 -8.932 34.730
v 33.349 -8.986 34.747
v 42.398 -8.746 34.716
v 29.128 0.783 34.804
v 36.430 -9.387 34.774
v 29.827 -1.624 34.813
v 42.397 -8.364 34.753
v 33.148 -8.793 34.810
v 42.886 -6.811 34.769
v 38.745 -9.020 34.795
v 30.923 -4.910 34.835
v 31.510 -6.624 34.834
v 29.388 2.374 34.854
v 43.356 4.375 34.789
v 33.400 -8.668 34.838
v 42.987 -5.933 34.803
v 36.308 -9.159 34.844
v 32.669 6.602 34.868
v 32.342 -7.818 34.875
v 43.064 8.143 34.832
v 29.921 -1.515 34.898
v 41.762 -7.702 34.855
v 35.001 7.666 34.891
v 31.061 -4.922 34.912
v 33.244 -8.126 34.903
v 32.959 6.074 34.913
v 42.567 -6.802 34.874
v 42.433 -7.019 34.882
v 42.636 -6.470 34.884
v 36.136 7.987 34.943
v 37.046 8.290 34.947
v 42.856 8.448 34.951
v 30.900 -2.354 35.044
v 31.814 -6.090 35.041
v 40.626 -6.465 35.012
v 31.975 -6.162 35.056
v 31.233 -1.978 35.066
v 37.340 8.206 35.057
v 36.449 -7.496 35.071
v 42.815 -3.976 35.043
v 32.290 -0.541 35.093
v 32.331 -4.734 35.098
v 33.202 -1.276 35.150
v 34.823 3.258 35.146
v 38.088 8.217 35.136
v 36.658 -5.990 35.155
v 42.661 -3.708 35.128
v 42.543 -3.881 35.138
v 42.295 8.624 35.154
v 40.295 8.662 35.168
v 42.614 8.570 35.168
v 42.916 8.059 35.191
v 43.336 3.736 35.196
v 43.163 7.261 35.199
v 40.364 8.557 35.224
v 43.191 0.389 35.215
v 43.272 6.840 35.229
v 43.335 4.605 35.249
v 42.766 8.312 35.252
v 43.264 6.502 35.280
v 43.093 0.154 35.281
v 41.602 8.677 35.298
v 42.615 -1.630 35.298
v 42.423 8.503 35.304
v 41.458 8.599 35.313
v 41.726 8.649 35.322
v 42.222 -1.247 35.331
v 43.060 0.616 35.329
v 40.338 -1.907 35.344
v 41.631 8.508 35.342
v 43.188 2.622 35.342
v 42.554 8.347 35.347
v 43.244 4.180 35.351
v 42.710 8.022 35.360
v 42.908 0.451 35.360
v 42.903 7.590 35.362
v 43.076 2.352 35.371
v 42.370 8.344 35.376
v 43.100 6.865 35.375
v 43.130 4.580 35.379
v 43.069 3.589 35.388
v 42.819 0.742 35.400
v 42.708 0.445 35.403
v 42.865 4.838 35.420
v 42.547 0.514 35.426
v 42.543 0.812 35.429
v 42.555 7.900 35.430
v 42.457 7.796 35.437
v 42.011 4.182 35.450
v 41.892 4.214 35.453
f 144 157 147
f 199 147 157
f 199 237 147
f 182 237 194
f 182 194 147
f 182 147 237
f 233 237 199
f 226 246 229
f 187 255 212
f 104 71 98
f 159 161 98
f 159 98 160
f 159 160 161
f 145 78 77
f 146 160 142
f 146 142 169
f 146 169 176
f 23 69 82
f 75 77 66
f 65 75 66
f 188 147 194
f 213 194 237
f 29 9 7
f 29 7 30
f 29 16 9
f 40 37 43
f 131 141 144
f 64 44 80
f 60 80 44
f 35 26 16
f 35 16 29
f 35 29 38
f 35 38 80
f 35 80 60
f 35 60 44
f 242 84 201
f 242 201 300
f 280 256 276
f 303 301 300
f 215 233 199
f 215 199 157
f 230 237 233
f 228 203 236
f 47 144 125
f 47 125 120
f 47 120 38
f 47 38 144
f 122 120 125
f 139 125 144
f 139 144 147
f 285 280 276
f 285 276 279
f 248 239 213
f 248 213 237
f 248 237 229
f 248 229 246
f 312 333 285
f 312 285 279
f 253 246 282
f 253 282 260
f 253 260 248
f 253 248 246
f 281 288 293
f 281 293 274
f 198 176 169
f 261 223 256
f 261 288 281
f 197 206 196
f 152 174 164
f 152 164 128
f 222 212 264
f 235 243 214
f 298 293 288
f 111 71 104
f 111 104 98
f 111 98 161
f 123 98 71
f 123 71 118
f 123 142 160
f 85 78 145
f 85 145 201
f 85 201 84
f 76 79 6
f 76 6 23
f 68 71 58
f 68 58 118
f 68 118 71
f 130 118 58
f 130 142 123
f 130 123 118
f 162 142 109
f 162 109 169
f 162 169 142
f 115 169 109
f 105 115 109
f 97 109 142
f 81 79 76
f 81 76 23
f 81 23 82
f 172 164 174
f 168 160 146
f 168 146 176
f 168 192 216
f 168 216 274
f 168 274 293
f 168 161 160
f 102 82 106
f 87 69 106
f 87 106 82
f 87 82 69
f 61 71 65
f 61 58 71
f 135 120 122
f 135 122 125
f 135 125 139
f 135 139 147
f 185 188 214
f 185 208 165
f 225 243 255
f 225 208 185
f 225 185 214
f 225 214 243
f 50 65 66
f 50 43 37
f 34 37 40
f 34 5 20
f 19 5 34
f 19 34 40
f 19 40 30
f 19 30 7
f 19 7 5
f 132 38 29
f 132 29 131
f 132 131 144
f 132 144 38
f 257 179 99
f 257 99 84
f 257 84 242
f 257 242 300
f 257 300 301
f 21 44 64
f 21 23 16
f 21 16 26
f 21 26 44
f 41 26 35
f 41 35 44
f 41 44 26
f 74 99 136
f 74 136 141
f 74 59 84
f 74 84 99
f 321 313 330
f 321 330 315
f 284 287 256
f 284 256 280
f 269 261 256
f 259 236 304
f 316 301 303
f 299 301 316
f 299 304 236
f 283 259 304
f 322 330 327
f 322 327 323
f 322 323 316
f 322 316 303
f 322 303 300
f 211 207 229
f 211 229 230
f 211 230 233
f 151 144 141
f 151 157 144
f 254 212 255
f 277 279 276
f 277 276 264
f 247 222 264
f 247 264 276
f 247 276 256
f 286 280 285
f 286 285 333
f 286 284 280
f 251 248 260
f 289 282 312
f 289 312 279
f 289 279 282
f 305 161 168
f 305 168 293
f 305 293 298
f 302 294 315
f 266 274 216
f 266 216 198
f 266 261 281
f 184 176 198
f 184 198 216
f 184 216 192
f 184 192 168
f 184 168 176
f 195 187 212
f 183 187 195
f 183 195 197
f 137 128 116
f 137 116 124
f 137 152 128
f 170 174 152
f 170 187 183
f 170 183 174
f 232 187 140
f 232 165 208
f 232 208 225
f 232 225 255
f 232 255 187
f 217 206 222
f 217 222 223
f 224 223 222
f 224 222 256
f 224 256 223
f 209 197 195
f 209 195 212
f 209 206 197
f 231 213 239
f 231 235 214
f 143 98 123
f 143 123 160
f 143 160 98
f 153 294 186
f 153 110 111
f 153 111 161
f 153 161 294
f 92 111 110
f 92 110 153
f 92 186 145
f 73 78 85
f 73 85 84
f 73 84 59
f 8 2 6
f 119 128 164
f 119 115 113
f 119 113 116
f 119 116 128
f 158 169 115
f 158 115 119
f 158 119 164
f 158 164 172
f 158 172 169
f 90 79 81
f 90 81 82
f 108 115 105
f 108 113 115
f 138 58 97
f 138 97 142
f 138 142 130
f 138 130 58
f 180 172 174
f 180 174 183
f 180 183 197
f 180 197 196
f 107 113 108
f 107 108 102
f 107 102 106
f 107 106 113
f 10 18 6
f 10 6 2
f 10 2 9
f 22 23 6
f 22 6 18
f 22 18 16
f 22 16 23
f 114 116 113
f 39 61 37
f 39 37 32
f 72 65 71
f 72 71 111
f 72 111 92
f 72 92 75
f 72 75 65
f 1 7 9
f 1 9 2
f 1 2 5
f 1 5 7
f 4 5 2
f 4 20 5
f 150 188 135
f 150 135 147
f 150 147 188
f 175 124 127
f 175 185 165
f 175 165 124
f 177 188 185
f 177 185 175
f 177 175 127
f 177 135 188
f 100 120 117
f 100 80 38
f 100 38 120
f 129 117 120
f 129 120 135
f 129 135 127
f 96 100 117
f 86 64 93
f 121 64 86
f 121 86 93
f 121 93 127
f 121 127 124
f 56 65 50
f 56 50 37
f 56 37 61
f 56 61 65
f 28 34 20
f 296 179 257
f 296 257 301
f 296 301 299
f 296 299 236
f 296 236 179
f 189 179 236
f 189 236 203
f 189 203 163
f 31 23 21
f 31 124 116
f 57 141 131
f 57 131 46
f 57 46 48
f 57 74 141
f 67 77 78
f 67 78 73
f 67 66 77
f 324 323 327
f 324 316 323
f 331 327 330
f 331 330 313
f 331 313 288
f 331 288 261
f 331 261 269
f 331 269 256
f 331 256 287
f 331 287 284
f 331 284 286
f 331 286 333
f 314 304 299
f 314 299 316
f 252 259 283
f 252 241 228
f 252 228 236
f 252 236 259
f 204 203 228
f 166 157 151
f 166 207 211
f 166 211 233
f 166 233 215
f 166 215 157
f 249 212 254
f 249 254 264
f 249 264 212
f 267 254 255
f 267 255 277
f 267 277 264
f 267 264 254
f 234 222 247
f 234 247 256
f 234 256 222
f 262 277 255
f 262 255 243
f 262 243 235
f 262 235 251
f 262 279 277
f 258 251 260
f 258 260 282
f 245 248 251
f 245 251 239
f 245 239 248
f 238 251 235
f 238 235 231
f 238 231 239
f 278 291 282
f 310 328 312
f 306 328 310
f 306 310 312
f 306 312 282
f 306 282 291
f 290 283 304
f 290 306 291
f 290 272 252
f 290 252 283
f 271 291 278
f 308 288 313
f 309 288 308
f 309 308 313
f 309 313 321
f 309 294 305
f 309 305 298
f 309 298 288
f 292 161 305
f 292 305 294
f 292 294 161
f 319 322 300
f 319 330 322
f 263 300 201
f 263 201 145
f 263 145 186
f 273 274 266
f 273 266 281
f 273 281 274
f 221 261 266
f 221 266 198
f 221 198 200
f 221 223 261
f 154 152 137
f 154 137 187
f 154 187 170
f 154 170 152
f 134 140 187
f 134 187 137
f 134 137 124
f 134 124 165
f 134 232 140
f 220 217 223
f 220 223 221
f 220 221 200
f 218 222 206
f 218 206 209
f 218 209 212
f 218 212 222
f 205 214 188
f 205 188 194
f 205 194 213
f 205 213 231
f 205 231 214
f 94 75 92
f 94 92 145
f 94 145 77
f 94 77 75
f 155 186 92
f 155 92 153
f 155 153 186
f 11 89 8
f 11 8 6
f 91 90 82
f 91 82 102
f 103 102 108
f 103 108 90
f 103 90 91
f 103 91 102
f 95 105 109
f 95 109 97
f 95 97 58
f 95 58 89
f 15 39 32
f 190 180 196
f 13 16 18
f 13 18 10
f 13 10 9
f 13 9 16
f 51 61 39
f 51 39 58
f 51 58 61
f 3 8 15
f 3 15 4
f 3 4 2
f 3 2 8
f 133 135 177
f 133 177 127
f 133 127 135
f 126 117 129
f 126 129 127
f 126 127 96
f 126 96 117
f 83 93 64
f 83 64 80
f 83 80 100
f 83 100 96
f 83 96 127
f 83 127 93
f 25 21 64
f 25 64 121
f 25 121 124
f 25 124 31
f 25 31 21
f 149 151 141
f 112 106 69
f 112 69 23
f 112 23 31
f 112 31 116
f 112 116 114
f 112 114 113
f 112 113 106
f 70 74 57
f 70 57 48
f 70 48 59
f 70 59 74
f 36 48 46
f 36 46 131
f 36 131 29
f 36 29 30
f 63 62 67
f 63 67 73
f 63 73 59
f 52 62 49
f 52 43 50
f 52 50 66
f 52 66 67
f 52 67 62
f 45 40 43
f 45 43 52
f 45 52 49
f 45 49 30
f 45 30 40
f 325 324 327
f 332 331 333
f 240 228 241
f 320 324 325
f 320 314 316
f 320 316 324
f 227 191 204
f 227 204 228
f 227 228 240
f 227 240 246
f 167 166 151
f 167 151 163
f 268 279 262
f 268 262 251
f 268 251 258
f 268 258 282
f 268 282 279
f 244 251 238
f 244 238 239
f 244 239 251
f 270 290 291
f 270 291 271
f 270 271 246
f 270 246 240
f 270 240 241
f 270 241 252
f 270 252 272
f 270 272 290
f 265 271 278
f 265 278 282
f 265 282 246
f 307 315 294
f 307 294 309
f 307 309 321
f 307 321 315
f 317 315 330
f 317 330 319
f 317 319 302
f 317 302 315
f 275 294 302
f 275 302 263
f 275 263 186
f 275 186 294
f 295 263 302
f 295 302 319
f 295 319 300
f 202 232 134
f 202 134 165
f 202 165 232
f 210 206 217
f 210 217 220
f 210 220 200
f 210 200 196
f 210 196 206
f 88 89 11
f 88 11 6
f 88 6 79
f 88 79 90
f 88 95 89
f 24 89 58
f 24 58 39
f 24 39 15
f 24 15 8
f 24 8 89
f 27 20 4
f 27 15 32
f 27 32 37
f 27 37 34
f 27 34 28
f 27 28 20
f 193 198 190
f 193 190 196
f 193 196 200
f 193 200 198
f 178 169 172
f 178 172 180
f 178 180 190
f 178 190 198
f 178 198 169
f 156 151 149
f 156 149 163
f 156 163 151
f 148 136 99
f 148 99 179
f 148 179 189
f 148 189 149
f 148 149 141
f 148 141 136
f 171 163 149
f 171 149 189
f 171 189 163
f 42 48 36
f 42 30 49
f 42 49 53
f 55 53 49
f 55 49 62
f 55 62 63
f 55 63 59
f 55 59 53
f 329 328 325
f 329 325 327
f 329 327 331
f 329 331 332
f 329 332 333
f 329 333 312
f 329 312 328
f 311 304 314
f 311 314 320
f 311 320 325
f 311 306 290
f 311 290 304
f 326 306 325
f 326 325 328
f 326 328 306
f 219 226 229
f 219 229 207
f 219 207 166
f 219 166 191
f 219 191 227
f 219 227 246
f 219 246 226
f 181 167 163
f 181 163 203
f 181 203 204
f 250 271 265
f 250 265 246
f 250 246 271
f 297 263 295
f 297 295 300
f 297 300 263
f 101 105 95
f 101 95 88
f 101 88 90
f 101 90 108
f 101 108 105
f 14 27 4
f 33 30 42
f 33 42 36
f 33 36 30
f 54 59 48
f 54 48 42
f 54 42 53
f 54 53 59
f 318 306 311
f 318 311 325
f 318 325 306
f 173 191 166
f 173 166 167
f 173 167 181
f 173 181 204
f 173 204 191
f 12 14 4
f 12 4 15
f 17 27 14
f 17 14 12
f 17 12 15
f 17 15 27
f 230 229 237
