# Rhino

mtllib 19.06_sbe_l_14.mtl
usemtl diffuse_0_0_0_255
v 62.662547735854105 32.827731313120744 8.1444311499595639
v 62.649303946216918 32.886073524599311 7.6546453833580035
v 62.66998740036334 32.657612781498543 8.2002050757408167
v 62.630566499960423 32.927645763390309 6.7410650610923764
v 62.61630739521064 32.996100925662688 7.2264852881431576
v 62.609322076127143 32.924721353467781 8.2633489966392535
v 62.791245300986247 31.082782722018305 7.9271978735923785
v 62.791443910323778 31.060231988160279 7.6526861548423764
v 62.568837411354053 33.015551163815445 6.0758520483970653
v 62.560822586791716 33.07857468169744 6.8954687476158139
v 62.555708998465548 33.091271972448062 6.0577490210533149
v 62.553060625351407 33.115540213966 6.199033200740816
v 62.531906430717044 33.019563765531927 8.1213934302330042
v 62.767222430313353 30.776086549116094 7.7896215796470667
v 62.501512066927745 33.1684060791235 6.0157568335533149
v 62.535535412809566 32.82260419806407 8.4141867041587854
v 62.698627342446798 30.858185812579631 8.0318975806236264
v 62.664314924553167 31.122365100819348 8.143837583065034
v 62.707647272701593 30.641873517889564 7.9669058203697229
v 62.696846044607753 30.583289793956759 7.8161276221275333
v 62.400745174762335 33.264702625001945 6.1667410254478465
v 62.339181333364024 33.095697524254689 8.2740682959556597
v 62.564057859044567 30.682204509056483 8.0731161475181583
v 62.54064684505795 30.896842858845616 8.1479238867759722
v 62.512621541171228 30.53880439570375 7.8973196387290958
v 62.246313042251387 31.935612805600758 8.4818930029869097
v 62.383385406802972 30.647682829341385 8.0757437109947201
v 61.960695859203412 32.832006062584647 8.6560476660728458
v 61.897063161194382 32.949438908896539 8.6345571875572222
v 61.857203890865378 32.709736088372182 8.7055761694908167
v 61.783234598701512 32.883626937168387 8.7134008765220639
v 61.638573406061766 32.850980093393446 8.7731054663658146
v 61.759971683946986 30.488613661394201 8.0130728125572208
v 61.408684869101563 32.603441992572336 8.8613958716392514
v 61.646771886798291 30.147962554672361 4.0257192969322215
v 61.290107589975463 33.486898977564969 -1.9994737267494198
v 61.192808382203452 34.238847972379844 -2.0750909447669974
v 61.544400629366066 30.154641632697111 4.4514700293540965
v 61.201295539169962 32.770129750128106 8.9442892432212826
v 61.208326405695601 30.118988379705023 4.3343054175376903
v 60.932347061101922 32.535195812673834 9.0234579443931597
v 60.547119249650194 32.947914035275254 9.1251409888267521
v 60.814592328748631 30.093448859097983 4.460701596736909
v 60.747679019428716 29.800574863409871 -3.4371705651283255
v 60.740450582950217 29.819250462204188 -4.119426500797271
v 60.636715265485037 29.768772025248495 -3.9111379265785207
v 60.174986615525768 33.643588708900324 -9.1697693943977345
v 60.201265188049661 33.288905176301668 -9.2380256772041314
v 60.317722611576016 31.956406772605643 -9.3721987128257744
v 60.254903231608182 31.943501475880243 9.1569387793540979
v 60.403127296548149 30.494924001234359 -9.245294439792632
v 60.082909850605517 33.488888350576708 -9.4361574769020073
v 60.109047713517839 33.03221754846259 -9.4913871407508843
v 60.392243611897499 30.144939317720961 -9.3420596241950982
v 60.362458615890375 29.880818352939716 -9.181970465183257
v 60.285576909807389 30.45471463241941 -9.5457257151603692
v 60.296573159352988 29.914552611923245 -9.4237448096275322
v 60.247125935319701 30.103454023448634 -9.5778705000877373
v 60.247205650891885 29.690234072489435 -5.999818575382232
v 59.889874320438309 32.833027815938252 9.4041433691978451
v 59.787081352710317 33.673020451216928 -9.5151097893714898
v 59.904835292451196 32.421741751091695 -9.5889033257961263
v 60.177355930221239 29.759965741109454 -9.3719364523887627
v 59.508061412472955 35.709057335753712 -8.7847770333290089
v 60.147112634623511 29.711059921527813 -9.2073501229286183
v 59.798460651581905 32.955696390775458 9.2863211035728472
v 60.120234959664202 29.904132954340565 -9.5689089417457573
v 59.479129660053076 35.647085971660573 -9.0451658844947804
v 60.079519650051168 29.671709096017274 -8.7732762932777408
v 59.759166534012877 32.602985933205673 9.4180639624595646
v 59.39210206034241 35.863798540870825 -8.9384944558143609
v 60.038346559537302 29.670988681006271 -6.3776406884193415
v 59.351621090578476 35.950692459946005 -8.8593901276588429
v 59.674735605459119 32.852981099413199 9.4410833716392535
v 59.656374252300992 32.935686130055046 9.3265951514244083
v 59.76219077712534 31.703782869272416 9.2385092139244076
v 59.696299768969226 32.158222035595038 9.3684316992759715
v 59.351061316788645 35.316509914341069 -9.3760819554328911
v 59.259042448213563 36.006714836669026 -9.1075928330421441
v 59.245209651816424 35.757574257305514 -9.3162716746330254
v 59.794157743554507 30.317773026776969 -9.755912560224532
v 59.278445409666574 35.029571045498194 -9.4899447083473198
v 59.798264723618757 29.723870279472852 -9.4616861462593072
v 58.96232523714778 36.330733380518026 -9.2499793648719777
v 58.887016194945659 36.588270304090976 -9.1655076622962941
v 58.787085513503712 36.707472081350367 -9.0834141850471486
v 58.838566749294159 36.083305340833746 -9.4569714188575738
v 59.19062910909679 31.81191973746634 9.4360082983970646
v 58.655296283243501 36.697047532405286 -9.2113853573799123
v 59.135057281971939 31.637456268703911 9.4048223853111264
v 59.196353341343382 31.024505151944005 9.0531500220298771
v 59.177425256658211 31.138209081545639 9.1501119971275333
v 58.478312356790724 36.817567023956627 -9.1067166447639458
v 58.473980424272071 36.560345688588917 -9.4196201682090752
v 59.195153145769183 29.650400536907398 -9.3727768778800957
v 58.354496362321157 36.84458235225447 -9.2090250134468068
v 58.911253731663351 31.183229064959008 9.2291433691978479
v 58.742675279499764 32.736262019925235 9.564034116268159
v 58.699682401640871 32.607269409696514 9.6321905493736271
v 58.326001017152606 36.042833062865363 -9.5922888696193684
v 58.788626703686845 31.049195310224722 9.1411978125572215
v 58.71191452379307 31.521860572428785 9.4217596411705014
v 58.134216128927648 36.913407864960064 -9.0962560296058648
v 58.869761528202758 29.613230773841074 -9.2616380333900441
v 58.548848227182646 32.52803316146084 9.6429098486900333
v 58.03445544804697 36.934879919132797 -9.3199999451637261
v 58.547981597958767 32.102130647450331 9.5952795386314396
v 58.533449536164369 31.228787574454273 9.312264096736909
v 57.863345351192606 36.977176493045519 -8.9719684243202202
v 58.597814809839463 29.624048685066374 -9.4875784039497368
v 57.840186979420508 36.515230169855556 -9.5278771042823784
v 58.316572954413914 31.834997718932073 9.5621466040611285
v 58.4673959520251 29.738579236656175 -9.7231180816888809
v 57.551941084248909 37.027081906249911 -9.2754901528358449
v 58.217772721486 30.08464510592292 -9.782898557186126
v 58.083627398249035 30.942639156985294 9.167000424861909
v 58.155138865819652 29.70521701665605 -9.7295494228601456
v 57.788397140324037 29.59057062103934 -9.541770946979522
v 57.754597523645288 29.540224993998407 -9.4153882384300225
v 56.667992000014664 37.151768314521647 -9.3336672902107232
v 57.260681231276664 31.299186360416179 9.5097891211509715
v 57.117518263895278 31.040011734804004 9.3843283057212847
v 56.209888076507809 37.279659245599305 -9.2136533379554741
v 56.458924226788099 31.5860012255194 9.6920202612876896
v 55.840224497589105 37.281242469548232 -9.0712369561195363
v 55.750938035377914 37.250162317551705 -9.2726023316383355
v 55.426760795483432 37.156426260332751 -9.3733252406120293
v 55.7846724869691 32.758107212890444 9.1890020728111264
v 55.738242824267843 32.173212782434398 9.6820593237876924
v 55.829315936591286 30.048498502447345 -9.7434253871440877
v 55.84009062519479 29.585728056085177 -9.717750683426857
v 54.891814195669383 36.907059443335704 -9.4985128760337822
v 54.581036758635605 35.925497244952382 -9.6746356636285782
v 54.927964434803528 31.774375787134058 9.7828985571861278
v 54.400427699257136 36.387076490943471 -9.6552879959344864
v 55.10871134528972 29.622499547031062 4.4882101416587847
v 54.70451806077179 32.72652314112311 9.1002188086509701
v 54.877836559221095 29.980173527922908 8.0816748023033167
v 54.900490423686307 29.316490734242549 -9.3140901446342461
v 54.680798575172219 30.544599857856262 9.3220983862876903
v 54.590240968064649 31.309021111624684 9.7256414771080042
v 54.518592537872763 31.923671576334954 9.7137915015220653
v 54.406304498826842 32.752045216129822 8.9072195410728465
v 54.407203400006409 32.656866365037374 9.2287496924400347
v 54.600453144883176 30.498863756045601 9.2455877661705035
v 54.432910044159257 31.718337590581015 9.7669210791587862
v 54.53610850141186 30.593263355886123 9.3725546240806583
v 54.407418176037993 31.492182084987579 9.779385983943941
v 54.386706662194285 31.056930805221519 9.5952764868736278
v 54.437384588940603 30.51382039026069 9.2866888403892514
v 54.189605724846984 32.568099494716662 9.3586965918540965
v 54.331834488027596 30.617379898499273 9.3385916113853451
v 53.582536499475736 37.071944112255295 -9.4117255330085747
v 54.272097776151554 30.494295757590791 9.2223074316978479
v 54.079937202165979 32.245709254571409 9.5345495581626896
v 54.044056706060019 32.41840530209052 9.4550238013267514
v 54.183568803702684 30.596433260383169 9.2818121314048785
v 53.981252765144404 32.099230692116791 9.5151663184165951
v 53.414558823518462 37.179649538019326 -9.2235238671302788
v 53.78224436627508 32.607378937610157 9.0710775732994104
v 53.838997959815174 29.920703254160365 8.190224301815034
v 53.838974841814121 29.530926999647448 4.5717306494712844
v 53.470768483718729 32.290840293749056 9.1035330176353479
v 53.580079514952757 29.890965728437376 8.0728857398033167
v 53.426677998316734 29.937732617979471 8.2198233008384722
v 53.217800057862917 29.868974067264766 8.0484152197837826
v 52.995470090925323 29.85395999315492 7.904691159725191
v 52.973694655941046 29.227692160877147 -4.0826116204261771
v 52.89117125874165 29.920430832596161 8.044125974178316
v 52.805066912126421 30.000474928523939 8.1906790137290972
v 52.81267835045 29.80443458164768 7.4922689795494097
v 52.748474052604337 29.889711548644847 7.8712072730064389
v 52.008561546859653 36.571921907276831 -9.5866383492946614
v 52.60767937242062 30.046449732551505 8.1866690039634715
v 52.530746278150474 30.02477809536834 8.0946142554283167
v 52.466807320121916 30.067419339624607 8.1312979102134708
v 51.618901419193065 36.995718183115194 -9.4353319525718682
v 52.344784101634872 30.1108212852156 8.0466650366783146
v 52.406695792494816 29.434846908071652 4.4592001318931587
v 52.262058466694128 29.20247817707839 -9.4386996150016778
v 52.182517706129602 29.399105429682042 4.2053701758384712
v 52.095167292482301 29.179166225290931 -9.3499602198600762
v 51.712658747791238 30.672331432406345 8.2227087378501889
v 51.496407359429412 31.075851693989037 8.2691748023033167
v 51.41075695984344 31.241413275681406 8.1460836768150333
v 51.426268620313579 30.920742688042107 8.2009024024009722
v 51.573011775597109 29.146998657753585 -4.1765782952308648
v 51.348167410776426 31.07046170179607 8.1465444922447201
v 51.348256913723588 29.143610484563172 -3.8015012383460993
v 51.174462461230718 29.122045641502908 -5.5351915001869196
v 50.645572133846684 29.187516578626123 -0.81393600702285696
v 50.565585139765744 29.334059108938554 -9.5514805436134331
v 50.321241580055784 29.099109731802429 -3.7148328423500052
v 49.719256130513969 32.513278340735965 3.8503301978111271
v 49.662722093603747 29.083158445914748 -9.4520063519477837
v 49.408152537011318 29.056225479926397 -9.404221308231353
v 49.192382651751586 29.023507216648117 -4.9786035180091854
v 48.818806659147981 31.987001480885496 3.4944876074790958
v 48.199355474256777 36.804131299751177 -9.4530553936958306
v 48.131365701049191 36.986531264065839 -9.2548848271369923
v 48.10839546014401 36.962509823103986 -8.5321397423744205
v 48.926923754706621 29.005055077757323 -9.2535824894905083
v 48.82586777491116 29.233590119804365 -9.4755263447761529
v 48.53854900913359 31.581792838561384 3.6733145117759722
v 47.897924712337669 36.931060919810278 -8.4359915375709527
v 48.470261065909796 31.37262938682246 3.6881933569908156
v 47.860831217840115 36.925371128224619 -9.3324126124382012
v 47.839781016139199 36.993319237245316 -9.0539069294929497
v 47.879052154833232 36.603398480504055 -9.5181317448616021
v 48.407382665405777 31.499687068543508 3.5939474463462844
v 47.739044686127869 36.982082451442409 -8.7462128281593312
v 47.676705312525854 36.922789176896352 -8.4798605561256402
v 48.368886046176669 29.374593728679841 -9.491068255901336
v 47.554348125114473 36.948497160661965 -8.9075656056404107
v 47.503091376019853 36.832272567388493 -8.2149655938148491
v 47.387937324793597 36.772846720196682 -9.2353881478309621
v 47.330049425234591 36.870479678778707 -8.6501301407814015
v 47.308421159894948 36.888778619988877 -8.8362367272377007
v 47.398707606633508 35.873010195261536 -9.5966102063655843
v 48.015057823624943 29.0103443029872 -9.3851716637611382
v 47.114148866891384 36.695948355358311 -8.0565185189247117
v 46.97736765002864 36.748811724477122 -8.8512004494667043
v 47.696072064897095 29.924874066374361 -9.5780671954154961
v 47.622903196780982 28.978220944152568 -9.2997284054756157
v 46.793684262472937 36.524348822908145 -7.9660148262977595
v 47.545117251972329 29.296356499008425 -9.4315738797187798
v 46.932738048467826 34.929557400578112 -9.6429379135370255
v 46.781566886986326 36.341984527577281 -9.1173799157142632
v 46.677324104673318 36.565992180079157 -8.216467630863189
v 46.668095966893446 36.571099708082528 -8.7438405632972707
v 46.553661087681263 36.550673418667621 -8.4848286271095272
v 46.532788354726108 36.442019959055813 -8.0651582360267629
v 47.284316342098322 29.093834226615101 -9.2801869988441457
v 46.54039573681905 35.636441311167339 -9.2879654049873341
v 46.481253607405876 36.063043343509143 -8.9903862595558159
v 46.423201333697136 36.414191536060457 -8.3025963425636284
v 46.418835392675618 36.265492271252057 -8.6920947670936588
v 46.590490695786201 34.297680771662712 -3.862783586978912
v 46.614198171715572 33.977407200709855 -3.2477563500404347
v 46.555657567635905 34.48794577634353 -9.5635951876640313
v 47.058964609805656 29.770575230515171 -9.4061554789543145
v 46.359529821067298 36.255714267665518 -8.0874026894569386
v 46.327724048186866 35.878145565067477 -8.8812739968299859
v 47.012685318201989 29.439337417082363 -0.96637512445449758
v 46.549474911305253 33.540194936793448 -2.7364076256752004
v 46.272007630108703 36.113871315414187 -8.3362819314002987
v 46.386785964950064 34.914453647322944 -9.3014539599418633
v 46.505449258845147 33.784860580519648 -3.2058656334877007
v 46.252639142174274 35.9862004440158 -8.0934614777564988
v 46.299976442544533 35.523494686817997 -8.9966983914375298
v 46.981577772907826 29.063250000726487 -1.4770288109779344
v 46.231177885705335 35.965568291103843 -8.5905076622962948
v 46.299147056787177 35.291036832936676 -9.005498993396758
v 46.247454041370673 35.671783071667754 -8.7045044541358951
v 46.92849226344569 29.153863829369474 -9.1816009163856496
v 46.936960292178213 29.037418789699576 -1.7280404686927788
v 46.481614307614905 33.243161732259594 -2.7911935448646537
v 46.7241959411636 30.730555379014856 -0.77633453607559133
v 46.694845193675405 30.915626057398875 -9.4075442671775811
v 46.886518460585336 28.932462181902828 -8.9214028000831593
v 46.667366900675376 30.977838249562634 -0.84942489862442017
v 46.864351102452986 29.123808862118942 -1.8649789452552792
v 46.625257035274302 31.353076439483495 -1.0130471825599656
v 46.514834182038214 32.281264168823512 -1.8305589318275448
v 46.856061133734954 28.9750684209612 -2.4179284691810601
v 46.446495993720873 32.342438132545972 -2.0982713341712946
v 46.590085968392032 30.978988766837332 -1.1947442650794979
v 46.792423366319042 28.883275863057197 -7.646018373966216
v 46.43848169978375 32.10581116932341 -1.9592424035072318
v 46.401916740976333 32.11564837305076 -2.3890054345130913
v 46.677644818123184 29.457782048473668 -9.1820926785469048
v 46.571713410496784 30.10339055356836 -9.2768402218818657
v 46.395490753341903 31.509771133151819 -8.5376472115516666
v 46.486576249002667 30.629892977827751 -9.2476279854774468
v 46.647861580806563 28.989344440616605 -3.3285829186439511
v 46.458934578411345 30.727392216263461 -9.0979040741920461
v 46.650670218514961 28.916938779137141 -6.2396440148353571
v 46.631462081162056 29.066181918542242 -8.9381755471229543
v 46.637066722291706 28.956754960052795 -4.8243436455726618
v 46.451146668019561 30.652187147349281 -9.0082318902015679
v 46.63831553584285 28.886829954118248 -8.3510012269020066
v 46.635986103264315 28.899069498006902 -8.6587966561317433
v 46.611304650234189 28.91233663133448 -8.4891171097755436
v 46.491102832940499 29.998531814936495 -9.0830505967140187
v 46.587358474998041 28.901618718150356 -8.0870868325233456
v 46.540487293078996 29.335066806013963 -9.039300787448882
v 46.575868954437084 28.998992377563635 -4.0681394219398488
v 46.537264698261765 29.296443118260697 -8.8609368920326226
v 46.499853591422152 29.640665406499412 -8.9822740674018853
v 46.560581013639222 29.030052296135011 -8.5928709626197808
v 46.558188349285757 28.984390756371365 -8.2952917695045461
v 46.511458385949055 29.138508267940683 -3.252524721622466
v 46.473009632320782 29.087666986148161 -3.517416536808013
v 46.475102561040501 29.064548794640007 -3.8194867730140682
v 46.40149731680944 29.103758293815037 -4.1886155724525445
v 46.332778820117568 29.376331375937788 -3.6710981011390675
v 46.321167720544253 29.380912273736243 -4.1361901879310601
v 46.28519038784637 29.557307258882211 -3.9140702843666073
v 46.279887692460363 29.514743062645838 -3.6905828118324271
vn 0.98222076892852783 0.17920458316802979 0.055929627269506454
vn 0.97303920984268188 0.23061886429786682 -0.0031019023153930902
vn 0.91974693536758423 0.05009213462471962 0.38930234313011169
vn 0.98298615217208862 0.18007192015647888 -0.036225743591785431
vn 0.87125283479690552 0.49034363031387329 0.021946625784039497
vn 0.79857146739959717 0.50820094347000122 0.32251429557800293
vn 0.9626384973526001 -0.052317503839731216 0.26568782329559326
vn 0.99803954362869263 -0.0054826452396810055 -0.062346193939447403
vn 0.98883062601089478 0.074622035026550293 -0.12901768088340759
vn 0.71396976709365845 0.6990731954574585 0.039291255176067352
vn 0.95711725950241089 0.27803495526313782 -0.081382781267166138
vn 0.83266109228134155 0.55356192588806152 -0.015642741695046425
vn 0.60247248411178589 0.79206818342208862 0.098259270191192627
vn 0.97661757469177246 -0.21429495513439178 -0.01719801127910614
vn 0.74346703290939331 0.66839814186096191 -0.022376015782356262
vn 0.54171645641326904 0.22580307722091675 0.80966430902481079
vn 0.8369293212890625 -0.12172365188598633 0.53360342979431152
vn 0.67766749858856201 -0.13910804688930511 0.72209125757217407
vn 0.75384604930877686 -0.43292292952537537 0.49426093697547913
vn 0.62204146385192871 -0.78227508068084717 0.033318858593702316
vn 0.65096491575241089 0.7583804726600647 0.0332220159471035
vn 0.27636384963989258 0.90241605043411255 0.33055755496025085
vn 0.28248792886734009 -0.50783795118331909 0.81381887197494507
vn 0.34448876976966858 -0.24056212604045868 0.90744549036026001
vn 0.17786653339862823 -0.94265085458755493 0.28244099020957947
vn 0.37100374698638916 -0.1312127411365509 0.9193146824836731
vn 0.13742077350616455 -0.74547547101974487 0.65221303701400757
vn 0.36153700947761536 0.14203652739524841 0.92147523164749146
vn 0.31663814187049866 0.57702696323394775 0.75284802913665771
vn 0.36553406715393066 -0.015161529183387756 0.93067449331283569
vn 0.34017461538314819 0.31856796145439148 0.884757399559021
vn 0.33855372667312622 0.16300751268863678 0.92671996355056763
vn 0.096292391419410706 -0.92125046253204346 0.37686243653297424
vn 0.33714720606803894 -0.078529812395572662 0.93817102909088135
vn 0.20011284947395325 -0.97923964262008667 0.032319914549589157
vn 0.98306971788406372 0.10499860346317291 -0.15016408264636993
vn 0.90934735536575317 0.40173929929733276 -0.10813365131616592
vn 0.11042295396327972 -0.99199503660202026 0.061258204281330109
vn 0.33820202946662903 0.031834155321121216 0.94053494930267334
vn 0.086406037211418152 -0.99522274732589722 0.045449748635292053
vn 0.32137924432754517 -0.10683389753103256 0.94090485572814941
vn 0.21360346674919128 0.69425499439239502 0.6873016357421875
vn 0.083322569727897644 -0.99384903907775879 0.07294810563325882
vn 0.37743288278579712 -0.92591989040374756 -0.014725036919116974
vn 0.55312621593475342 -0.83197593688964844 -0.043213337659835815
vn 0.13876305520534515 -0.99012404680252075 0.019979825243353844
vn 0.93997460603713989 0.22618064284324646 -0.25551918148994446
vn 0.95237237215042114 0.11788030713796616 -0.28123140335083008
vn 0.93424129486083984 0.077298000454902649 -0.34816402196884155
vn 0.29587095975875854 -0.19743342697620392 0.93460172414779663
vn 0.98393386602401733 0.029765116050839424 -0.17603474855422974
vn 0.69638770818710327 0.20378121733665466 -0.68812596797943115
vn 0.48748248815536499 0.085864819586277008 -0.86890047788619995
vn 0.95499008893966675 -0.086431257426738739 -0.28376674652099609
vn 0.81057071685791016 -0.56455790996551514 -0.15572229027748108
vn 0.68190205097198486 0.028591368347406387 -0.73088443279266357
vn 0.75103539228439331 -0.44146126508712769 -0.49097636342048645
vn 0.62828171253204346 -0.17138543725013733 -0.7588735818862915
vn 0.1164998859167099 -0.99315923452377319 0.0079040611162781715
vn 0.2815977931022644 0.16258028149604797 0.94565868377685547
vn 0.25586321949958801 0.10511158406734467 -0.96098154783248901
vn 0.20914402604103088 0.071140199899673462 -0.97529369592666626
vn 0.47122502326965332 -0.78883063793182373 -0.39457976818084717
vn 0.88907760381698608 0.43060630559921265 -0.15530373156070709
vn 0.31537550687789917 -0.94285428524017334 -0.10753629356622696
vn 0.018313558772206306 0.93553841114044189 0.35274994373321533
vn 0.32568100094795227 -0.52224910259246826 -0.78815466165542603
vn 0.84746688604354858 0.38329076766967773 -0.36727115511894226
vn 0.18687611818313599 -0.98196285963058472 -0.028745677322149277
vn 0.25664395093917847 -0.12005466222763062 0.95902073383331299
vn 0.84658193588256836 0.49494937062263489 -0.195765420794487
vn 0.072457179427146912 -0.99735522270202637 0.005703857634216547
vn 0.83939361572265625 0.53090435266494751 -0.11644257605075836
vn 0.10365249216556549 0.63008689880371094 0.76957565546035767
vn -0.035803090780973434 0.88732695579528809 0.45974880456924438
vn 0.27606964111328125 -0.27049106359481812 0.92229068279266357
vn 0.26593014597892761 -0.16745500266551971 0.94933658838272095
vn 0.48590180277824402 0.22660492360591888 -0.84412658214569092
vn 0.80367845296859741 0.44944831728935242 -0.38999640941619873
vn 0.65384423732757568 0.34017866849899292 -0.67584478855133057
vn 0.18832473456859589 -0.045896802097558975 -0.9810338020324707
vn 0.34879684448242188 0.16356468200683594 -0.92281490564346313
vn 0.12728367745876312 -0.88842147588729858 -0.44102844595909119
vn 0.57228583097457886 0.3875744640827179 -0.72268593311309814
vn 0.70048069953918457 0.56365269422531128 -0.43774697184562683
vn 0.50824570655822754 0.85340380668640137 -0.11570768058300018
vn 0.42289742827415466 0.28975582122802734 -0.85860311985015869
vn 0.22430138289928436 -0.18877552449703217 0.95606100559234619
vn 0.40116247534751892 0.70652759075164795 -0.58299869298934937
vn 0.18768376111984253 -0.32189801335334778 0.92798519134521484
vn 0.1348918080329895 -0.66114473342895508 0.73803240060806274
vn 0.16504645347595215 -0.55169498920440674 0.81755262613296509
vn 0.30097702145576477 0.95360273122787476 0.0073900735005736351
vn 0.29311114549636841 0.42557230591773987 -0.85613906383514404
vn 0.083760745823383331 -0.98377782106399536 -0.15863579511642456
vn 0.3620641827583313 0.87851840257644653 -0.3116326630115509
vn 0.13838541507720947 -0.52769660949707031 0.83808457851409912
vn -0.026363786309957504 0.65350168943405151 0.75646579265594482
vn 0.085783019661903381 0.15023928880691528 0.98492103815078735
vn 0.13725505769252777 0.12813872098922729 -0.98221254348754883
vn 0.1245771199464798 -0.62860816717147827 0.76767981052398682
vn 0.12356149405241013 -0.3567919135093689 0.92597627639770508
vn 0.2548409104347229 0.96675920486450195 0.020802447572350502
vn 0.077796868979930878 -0.99346929788589478 -0.083464682102203369
vn 0.067865632474422455 -0.045747991651296616 0.99664503335952759
vn 0.25035715103149414 0.88021671772003174 -0.40316233038902283
vn 0.12553359568119049 -0.16714005172252655 0.97790873050689697
vn 0.12210684269666672 -0.46704092621803284 0.87576407194137573
vn 0.21664880216121674 0.9744376540184021 0.059452533721923828
vn 0.076013378798961639 -0.94048166275024414 -0.33123442530632019
vn 0.073575489223003387 0.31319621205329895 -0.94683408737182617
vn 0.11148113012313843 -0.25259637832641602 0.96112799644470215
vn 0.090974681079387665 -0.44867366552352905 -0.88905316591262817
vn 0.18357589840888977 0.98223680257797241 -0.038868904113769531
vn 0.0073337424546480179 -0.064669474959373474 -0.99787980318069458
vn 0.11907961219549179 -0.67243260145187378 0.73051655292510986
vn 0.056658774614334106 -0.72889888286590576 -0.68227285146713257
vn 0.060263395309448242 -0.91848969459533691 -0.39082598686218262
vn 0.072060748934745789 -0.97336173057556152 -0.21765601634979248
vn 0.061436977237462997 0.60992932319641113 -0.79007071256637573
vn 0.09211461991071701 -0.41664963960647583 0.9043881893157959
vn 0.10374143719673157 -0.552112877368927 0.82729017734527588
vn 0.093490086495876312 0.98536789417266846 -0.14251230657100677
vn 0.075783737003803253 -0.21266700327396393 0.97418147325515747
vn -0.010079376399517059 0.99755585193634033 0.069142729043960571
vn -0.011738884262740612 0.84386491775512695 -0.53642725944519043
vn 0.0083338441327214241 0.58673930168151855 -0.80973297357559204
vn -0.056226152926683426 0.92880439758300781 0.3662799596786499
vn -0.04584449902176857 0.37488332390785217 0.92593777179718018
vn -0.01789582334458828 -0.03422972559928894 -0.99925374984741211
vn -0.0058247954584658146 -0.26465752720832825 -0.96432489156723022
vn 0.010359226725995541 0.36074444651603699 -0.93260717391967773
vn 0.0078547913581132889 0.032713774591684341 -0.99943387508392334
vn -0.0078752199187874794 0.12965843081474304 0.99152743816375732
vn 0.0022780948784202337 0.14528053998947144 -0.9893878698348999
vn 0.079860381782054901 -0.9945671558380127 0.066771581768989563
vn -0.071165092289447784 0.95316904783248901 0.2939460277557373
vn 0.072218403220176697 -0.98910707235336304 0.12826433777809143
vn 0.060560353100299835 -0.99331855773925781 -0.098237805068492889
vn 0.072951644659042358 -0.75191104412078857 0.65521585941314697
vn 0.010615699924528599 -0.37881401181221008 0.92541193962097168
vn -0.079797931015491486 0.34602227807044983 0.93482667207717896
vn -0.10531003028154373 0.95597195625305176 0.27391138672828674
vn -0.10278844833374023 0.92963552474975586 0.35385352373123169
vn 0.056534081697463989 -0.88730138540267944 0.45771187543869019
vn -0.21749682724475861 0.17938125133514404 0.95943605899810791
vn -0.027917968109250069 -0.53933048248291016 0.84163129329681396
vn -0.22891522943973541 -0.13520093262195587 0.96401166915893555
vn -0.25128889083862305 -0.41517052054405212 0.87434965372085571
vn -0.090216986835002899 -0.774821937084198 0.62570911645889282
vn -0.13981218636035919 0.81020832061767578 0.56922316551208496
vn -0.21768637001514435 -0.53500890731811523 0.81631988286972046
vn -0.013239557854831219 0.6174808144569397 -0.78647446632385254
vn -0.20139096677303314 -0.71541416645050049 0.66904723644256592
vn -0.33763983845710754 0.27706640958786011 0.89957410097122192
vn -0.2873251736164093 0.4787178635597229 0.82962244749069214
vn -0.28075507283210754 -0.55064541101455688 0.78610825538635254
vn -0.44840121269226074 0.13312250375747681 0.88386356830596924
vn -0.034895062446594238 0.98611563444137573 -0.16235241293907166
vn -0.39114424586296082 0.81004494428634644 0.43684473633766174
vn 0.044949900358915329 -0.95610517263412476 0.28955551981925964
vn 0.068832561373710632 -0.99409747123718262 0.083858788013458252
vn -0.5472760796546936 0.52926146984100342 0.64836037158966064
vn 0.056846659630537033 -0.99172955751419067 0.11506924778223038
vn -0.058310654014348984 -0.8779827356338501 0.47512754797935486
vn -0.035317666828632355 -0.96771293878555298 0.24956817924976349
vn -0.12787076830863953 -0.96205127239227295 0.24105265736579895
vn 0.06298007071018219 -0.99784970283508301 0.018150992691516876
vn -0.18075445294380188 -0.9181286096572876 0.35265806317329407
vn -0.15911805629730225 -0.85789030790328979 0.48857516050338745
vn -0.090040720999240875 -0.98396521806716919 0.15396453440189362
vn -0.20586036145687103 -0.94331377744674683 0.2603471577167511
vn -0.010619335807859898 0.28014948964118958 -0.95989763736724854
vn -0.28843903541564941 -0.72380489110946655 0.62682485580444336
vn -0.27407678961753845 -0.89291226863861084 0.35719689726829529
vn -0.43778076767921448 -0.76899242401123047 0.46583110094070435
vn -0.020536283031105995 0.58667582273483276 -0.80956149101257324
vn -0.54156231880187988 -0.74338340759277344 0.39254477620124817
vn 0.050268914550542831 -0.99333149194717407 0.10375723242759705
vn 0.050018351525068283 -0.94606173038482666 -0.32010221481323242
vn 0.016845444217324257 -0.99713253974914551 0.073775820434093475
vn 0.049858886748552322 -0.9864920973777771 -0.15603673458099365
vn -0.47036466002464294 -0.597359299659729 0.64955288171768188
vn -0.54148000478744507 0.12455961108207703 0.83143508434295654
vn -0.6276053786277771 0.50954008102416992 0.58862584829330444
vn -0.62580353021621704 -0.38209053874015808 0.67998296022415161
vn 0.052547138184309006 -0.99856752157211304 0.010083175264298916
vn -0.76595389842987061 0.044057216495275497 0.64138412475585938
vn 0.049768213182687759 -0.99848687648773193 0.023389669135212898
vn 0.053746864199638367 -0.99855214357376099 0.0022202786058187485
vn 0.046285480260848999 -0.99857676029205322 0.026496309787034988
vn -0.024903662502765656 -0.23466680943965912 -0.97175681591033936
vn 0.044786959886550903 -0.99873638153076172 0.022798597812652588
vn -0.55746793746948242 0.72364002466201782 0.40690857172012329
vn 0.012811645865440369 -0.67812478542327881 -0.73483508825302124
vn 0.036943178623914719 -0.960460364818573 -0.27595490217208862
vn 0.044501014053821564 -0.99886703491210938 0.016860717907547951
vn -0.61820977926254272 0.66351306438446045 0.42138710618019104
vn -0.060205843299627304 0.49833434820175171 -0.86489200592041016
vn -0.05340849980711937 0.95314556360244751 -0.29776006937026978
vn -0.037118051201105118 0.97854346036911011 0.20266945660114288
vn 0.040316764265298843 -0.99155288934707642 -0.12327804416418076
vn -0.030811257660388947 -0.25793680548667908 -0.96567034721374512
vn -0.64455121755599976 0.62145042419433594 0.44536849856376648
vn -0.062239259481430054 0.97122925519943237 0.22986955940723419
vn -0.8554452657699585 -0.23900957405567169 0.45944300293922424
vn -0.21032609045505524 0.81373840570449829 -0.54184198379516602
vn -0.13246704638004303 0.98443800210952759 -0.11547436565160751
vn -0.12937316298484802 0.32577881217002869 -0.93655258417129517
vn -0.85236108303070068 0.28479444980621338 0.43860313296318054
vn -0.13161908090114594 0.98515254259109497 0.1102309376001358
vn -0.13418444991111755 0.96557790040969849 0.22283153235912323
vn -0.040102966129779816 -0.21852067112922668 -0.97500795125961304
vn -0.2423103004693985 0.96257108449935913 -0.12141899764537811
vn -0.17864251136779785 0.95162558555603027 0.24999108910560608
vn -0.43682441115379333 0.59189790487289429 -0.67737823724746704
vn -0.27128583192825317 0.94992691278457642 0.15505768358707428
vn -0.3270430862903595 0.94323921203613281 -0.057814836502075195
vn -0.24474489688873291 0.2228512167930603 -0.94362986087799072
vn -0.031560536473989487 -0.65591812133789063 -0.75417196750640869
vn -0.30843770503997803 0.91419190168380737 0.26290547847747803
vn -0.47438472509384155 0.84131735563278198 -0.2591221034526825
vn -0.10999639332294464 -0.10928922891616821 -0.98790520429611206
vn -0.10998055338859558 -0.83775109052658081 -0.53486204147338867
vn -0.38438877463340759 0.85901367664337158 0.33814314007759094
vn -0.18448734283447266 -0.28959059715270996 -0.93920272588729858
vn -0.13253729045391083 0.061883315443992615 -0.98924434185028076
vn -0.58339077234268188 0.47330260276794434 -0.66003018617630005
vn -0.39039984345436096 0.89708322286605835 0.20695316791534424
vn -0.64799237251281738 0.62306517362594604 -0.43805894255638123
vn -0.59256303310394287 0.8052869439125061 -0.019543347880244255
vn -0.55525654554367065 0.77325975894927979 0.30620166659355164
vn -0.275715172290802 -0.54661393165588379 -0.79069232940673828
vn -0.60419708490371704 0.27155113220214844 -0.74913674592971802
vn -0.72667896747589111 0.4202251136302948 -0.54345977306365967
vn -0.81853914260864258 0.57445025444030762 0.00074920890619978309
vn -0.80840092897415161 0.48459893465042114 -0.33414334058761597
vn -0.69932663440704346 0.62778764963150024 0.34179669618606567
vn -0.69036024808883667 0.61796760559082031 0.37618988752365112
vn -0.5215422511100769 0.020807992666959763 -0.85297173261642456
vn -0.29796266555786133 -0.18052893877029419 -0.93735134601593018
vn -0.84476494789123535 0.49217265844345093 0.21009093523025513
vn -0.82777929306030273 0.30661365389823914 -0.46986120939254761
vn -0.86134642362594604 -0.36255821585655212 0.35585653781890869
vn -0.89354169368743896 0.33482110500335693 0.29912891983985901
vn -0.92773634195327759 0.37258285284042358 0.022074950858950615
vn -0.87361729145050049 0.061927072703838348 -0.48265707492828369
vn -0.89675146341323853 0.3714657723903656 0.24052019417285919
vn -0.9817320704460144 0.16572387516498566 0.093476183712482452
vn -0.92237240076065063 0.11150068044662476 -0.36986041069030762
vn -0.62202566862106323 -0.7249903678894043 0.29575836658477783
vn -0.97621393203735352 0.17192645370960236 -0.13208951056003571
vn -0.97844529151916504 -0.012797086499631405 -0.20610922574996948
vn -0.99282348155975342 -0.018760446459054947 -0.1181081160902977
vn -0.36691367626190186 -0.44818991422653198 -0.81516879796981812
vn -0.42686432600021362 -0.89169979095458984 0.15052685141563416
vn -0.97695684432983398 0.1539696604013443 0.14781276881694794
vn -0.93528556823730469 -0.18229936063289642 0.30332794785499573
vn -0.32835420966148376 -0.07305607944726944 -0.94172519445419312
vn -0.26809099316596985 -0.80871772766113281 -0.52354836463928223
vn -0.95441991090774536 -0.055841181427240372 0.29319685697555542
vn -0.92599296569824219 -0.29689443111419678 0.23321814835071564
vn -0.95370632410049438 0.081500880420207977 0.2894853949546814
vn -0.92260593175888062 0.21624819934368134 0.31942915916442871
vn -0.1517217755317688 -0.98678296804428101 0.056919492781162262
vn -0.97279173135757446 0.15221475064754486 0.17466214299201965
vn -0.97754037380218506 -0.07406238466501236 0.19730578362941742
vn 0.018287884071469307 -0.99981951713562012 0.005150004755705595
vn -0.97979837656021118 0.070908829569816589 0.18699471652507782
vn -0.99593222141265869 0.05014503002166748 0.074862800538539886
vn -0.44791129231452942 -0.26845109462738037 -0.85282444953918457
vn -0.56677305698394775 -0.12620590627193451 -0.81415009498596191
vn -0.99827629327774048 -0.038533169776201248 -0.044268433004617691
vn -0.91688305139541626 -0.05743071436882019 -0.39500272274017334
vn -0.41991838812828064 -0.90627163648605347 0.048376481980085373
vn -0.98991340398788452 -0.037941072136163712 -0.13649891316890717
vn -0.23563763499259949 -0.97163397073745728 0.020059265196323395
vn -0.64009594917297363 -0.58551126718521118 -0.49744725227355957
vn -0.35843920707702637 -0.93327313661575317 0.022859754040837288
vn -0.99604880809783936 -0.043118197470903397 -0.077637270092964172
vn -0.13118685781955719 -0.99128812551498413 -0.011739913374185562
vn -0.4659292995929718 -0.87012851238250732 -0.16058097779750824
vn -0.85907697677612305 -0.50641310214996338 -0.074381180107593536
vn -0.98070794343948364 -0.064604461193084717 -0.18449443578720093
vn -0.6133420467376709 -0.78968244791030884 -0.014598546549677849
vn -0.86646723747253418 -0.23837848007678986 -0.4386458694934845
vn -0.4230659008026123 -0.90577065944671631 0.024387108162045479
vn -0.99078047275543213 -0.12783472239971161 -0.044859424233436584
vn -0.99251598119735718 -0.090178780257701874 -0.0823393315076828
vn -0.95031929016113281 -0.29498985409736633 -0.099369250237941742
vn -0.93277907371520996 -0.35742321610450745 -0.046602487564086914
vn -0.913918137550354 -0.34281191229820251 0.21733306348323822
vn -0.7675517201423645 -0.62578099966049194 0.13878929615020752
vn -0.54812872409820557 -0.83556067943572998 0.037326674908399582
vn -0.87409031391143799 -0.48518645763397217 0.023669557645916939
vn -0.92503786087036133 -0.35333019495010376 0.13950890302658081
vn -0.97293919324874878 -0.22937911748886108 -0.027831085026264191
vn -0.99781578779220581 -0.052950337529182434 -0.039496421813964844
vn -0.98216724395751953 -0.16367365419864655 0.092511959373950958
f 8//8 54//54 9//9
f 37//37 47//47 64//64
f 37//37 85//85 15//15
f 51//51 9//9 54//54
f 160//160 144//144 215//215
f 46//46 181//181 168//168
f 86//86 15//15 85//85
f 68//68 64//64 47//47
f 68//68 47//47 52//52
f 55//55 63//63 57//57
f 55//55 57//57 54//54
f 12//12 37//37 15//15
f 7//7 8//8 1//1
f 4//4 1//1 8//8
f 4//4 8//8 9//9
f 36//36 47//47 37//37
f 36//36 37//37 9//9
f 73//73 85//85 37//37
f 73//73 37//37 64//64
f 49//49 9//9 51//51
f 49//49 51//51 54//54
f 49//49 36//36 9//9
f 221//221 160//160 215//215
f 194//194 239//239 198//198
f 194//194 198//198 185//185
f 194//194 185//185 160//160
f 210//210 198//198 239//239
f 251//251 244//244 299//299
f 40//40 136//136 46//46
f 40//40 46//46 35//35
f 162//162 46//46 136//136
f 162//162 136//136 33//33
f 162//162 33//33 138//138
f 162//162 181//181 46//46
f 170//170 166//166 165//165
f 232//232 194//194 160//160
f 81//81 113//113 115//115
f 81//81 100//100 62//62
f 133//133 100//100 81//81
f 133//133 81//81 115//115
f 133//133 115//115 227//227
f 252//252 298//298 299//299
f 66//66 74//74 42//42
f 66//66 125//125 201//201
f 93//93 103//103 109//109
f 61//61 62//62 100//100
f 45//45 55//55 20//20
f 14//14 8//8 7//7
f 14//14 20//20 55//55
f 14//14 55//55 54//54
f 14//14 54//54 8//8
f 11//11 37//37 12//12
f 11//11 12//12 4//4
f 11//11 4//4 9//9
f 11//11 9//9 37//37
f 2//2 1//1 4//4
f 71//71 85//85 73//73
f 71//71 73//73 64//64
f 71//71 64//64 68//68
f 48//48 47//47 36//36
f 48//48 36//36 49//49
f 48//48 49//49 52//52
f 48//48 52//52 47//47
f 184//184 156//156 185//185
f 151//151 144//144 160//160
f 151//151 160//160 156//156
f 163//163 185//185 156//156
f 163//163 156//156 160//160
f 163//163 160//160 185//185
f 204//204 198//198 210//210
f 204//204 210//210 185//185
f 204//204 185//185 198//198
f 19//19 20//20 14//14
f 19//19 14//14 7//7
f 211//211 201//201 125//125
f 137//137 144//144 128//128
f 297//297 291//291 295//295
f 297//297 295//295 299//299
f 202//202 139//139 268//268
f 187//187 139//139 168//168
f 43//43 136//136 40//40
f 25//25 20//20 19//19
f 25//25 19//19 23//23
f 25//25 33//33 136//136
f 25//25 136//136 43//43
f 25//25 35//35 20//20
f 179//179 181//181 162//162
f 179//179 166//166 181//181
f 164//164 166//166 179//179
f 164//164 179//179 162//162
f 116//116 140//140 33//33
f 145//145 33//33 140//140
f 238//238 239//239 194//194
f 238//238 194//194 232//232
f 238//238 232//232 242//242
f 238//238 242//242 248//248
f 238//238 248//248 239//239
f 225//225 221//221 229//229
f 225//225 229//229 232//232
f 225//225 232//232 160//160
f 225//225 160//160 221//221
f 130//130 223//223 227//227
f 130//130 227//227 115//115
f 67//67 113//113 81//81
f 67//67 57//57 63//63
f 56//56 49//49 54//54
f 219//219 227//227 234//234
f 135//135 100//100 133//133
f 135//135 133//133 227//227
f 135//135 227//227 219//219
f 135//135 111//111 100//100
f 249//249 270//270 266//266
f 249//249 248//248 242//242
f 249//249 252//252 299//299
f 249//249 299//299 270//270
f 273//273 298//298 252//252
f 273//273 280//280 298//298
f 231//231 232//232 229//229
f 60//60 42//42 74//74
f 22//22 13//13 86//86
f 22//22 86//86 93//93
f 22//22 93//93 109//109
f 22//22 125//125 66//66
f 22//22 66//66 42//42
f 21//21 86//86 13//13
f 21//21 12//12 15//15
f 21//21 15//15 86//86
f 106//106 109//109 103//103
f 106//106 103//103 93//93
f 80//80 68//68 52//52
f 82//82 52//52 61//61
f 82//82 61//61 100//100
f 82//82 100//100 87//87
f 44//44 46//46 69//69
f 44//44 45//45 20//20
f 44//44 20//20 35//35
f 44//44 35//35 46//46
f 5//5 1//1 2//2
f 5//5 2//2 4//4
f 5//5 4//4 12//12
f 158//158 184//184 148//148
f 188//188 184//184 185//185
f 188//188 185//185 210//210
f 188//188 210//210 206//206
f 75//75 66//66 137//137
f 75//75 137//137 128//128
f 75//75 128//128 144//144
f 75//75 144//144 151//151
f 75//75 74//74 66//66
f 98//98 151//151 156//156
f 98//98 74//74 75//75
f 98//98 75//75 151//151
f 263//263 261//261 210//210
f 263//263 210//210 264//264
f 258//258 206//206 210//210
f 258//258 210//210 261//261
f 258//258 299//299 244//244
f 258//258 244//244 206//206
f 207//207 177//177 199//199
f 208//208 211//211 125//125
f 143//143 144//144 137//137
f 143//143 137//137 212//212
f 143//143 212//212 215//215
f 143//143 215//215 144//144
f 285//285 295//295 291//291
f 292//292 293//293 251//251
f 294//294 287//287 275//275
f 294//294 275//275 293//293
f 294//294 293//293 295//295
f 294//294 295//295 285//285
f 294//294 285//285 287//287
f 265//265 293//293 275//275
f 265//265 191//191 181//181
f 72//72 168//168 139//139
f 72//72 139//139 69//69
f 190//190 139//139 187//187
f 190//190 187//187 268//268
f 190//190 268//268 139//139
f 189//189 181//181 191//191
f 189//189 187//187 168//168
f 189//189 168//168 181//181
f 38//38 40//40 35//35
f 38//38 35//35 25//25
f 38//38 25//25 43//43
f 38//38 43//43 40//40
f 161//161 138//138 33//33
f 161//161 33//33 145//145
f 161//161 165//165 166//166
f 161//161 166//166 164//164
f 161//161 164//164 162//162
f 161//161 162//162 138//138
f 124//124 148//148 141//141
f 149//149 141//141 148//148
f 150//150 170//170 165//165
f 150//150 165//165 161//161
f 150//150 161//161 145//145
f 150//150 145//145 140//140
f 171//171 172//172 251//251
f 171//171 251//251 181//181
f 171//171 181//181 166//166
f 169//169 166//166 170//170
f 245//245 210//210 239//239
f 245//245 239//239 248//248
f 245//245 266//266 264//264
f 245//245 264//264 210//210
f 65//65 63//63 55//55
f 65//65 55//55 45//45
f 65//65 45//45 44//44
f 65//65 44//44 69//69
f 83//83 63//63 65//65
f 83//83 113//113 67//67
f 83//83 67//67 63//63
f 118//118 110//110 119//119
f 118//118 119//119 139//139
f 118//118 139//139 180//180
f 182//182 202//202 180//180
f 182//182 180//180 139//139
f 182//182 139//139 202//202
f 117//117 113//113 83//83
f 117//117 83//83 110//110
f 117//117 110//110 118//118
f 117//117 118//118 180//180
f 117//117 180//180 195//195
f 117//117 115//115 113//113
f 131//131 130//130 115//115
f 131//131 115//115 117//117
f 131//131 117//117 195//195
f 131//131 223//223 130//130
f 53//53 49//49 56//56
f 53//53 56//56 81//81
f 53//53 81//81 62//62
f 53//53 62//62 61//61
f 53//53 61//61 52//52
f 53//53 52//52 49//49
f 58//58 57//57 67//67
f 58//58 67//67 81//81
f 58//58 81//81 56//56
f 58//58 56//56 54//54
f 58//58 54//54 57//57
f 209//209 199//199 177//177
f 209//209 135//135 219//219
f 209//209 207//207 199//199
f 241//241 272//272 259//259
f 241//241 259//259 223//223
f 241//241 223//223 226//226
f 241//241 271//271 272//272
f 240//240 247//247 234//234
f 240//240 234//234 227//227
f 240//240 227//227 223//223
f 240//240 223//223 259//259
f 240//240 259//259 272//272
f 255//255 271//271 241//241
f 255//255 241//241 226//226
f 286//286 272//272 271//271
f 286//286 271//271 255//255
f 286//286 255//255 278//278
f 246//246 252//252 249//249
f 246//246 249//249 242//242
f 250//250 234//234 247//247
f 250//250 247//247 253//253
f 254//254 252//252 250//250
f 254//254 250//250 253//253
f 254//254 280//280 273//273
f 254//254 273//273 252//252
f 217//217 229//229 221//221
f 217//217 221//221 215//215
f 217//217 215//215 212//212
f 217//217 212//212 211//211
f 3//3 7//7 1//1
f 6//6 13//13 22//22
f 6//6 22//22 16//16
f 6//6 16//16 3//3
f 6//6 3//3 1//1
f 6//6 1//1 5//5
f 6//6 5//5 13//13
f 18//18 7//7 3//3
f 18//18 3//3 16//16
f 18//18 24//24 23//23
f 18//18 23//23 19//19
f 89//89 86//86 85//85
f 96//96 86//86 89//89
f 96//96 89//89 106//106
f 96//96 106//106 93//93
f 96//96 93//93 86//86
f 120//120 127//127 126//126
f 120//120 106//106 111//111
f 79//79 68//68 80//80
f 79//79 80//80 85//85
f 79//79 85//85 71//71
f 79//79 71//71 68//68
f 84//84 85//85 80//80
f 84//84 80//80 87//87
f 84//84 87//87 85//85
f 78//78 80//80 52//52
f 78//78 52//52 82//82
f 78//78 82//82 87//87
f 78//78 87//87 80//80
f 10//10 21//21 13//13
f 10//10 13//13 5//5
f 10//10 5//5 12//12
f 10//10 12//12 21//21
f 155//155 184//184 158//158
f 155//155 142//142 156//156
f 155//155 156//156 184//184
f 183//183 176//176 174//174
f 183//183 174//174 157//157
f 183//183 157//157 149//149
f 186//186 206//206 244//244
f 186//186 244//244 251//251
f 186//186 251//251 183//183
f 186//186 183//183 149//149
f 186//186 149//149 148//148
f 186//186 148//148 184//184
f 186//186 184//184 188//188
f 186//186 188//188 206//206
f 134//134 148//148 124//124
f 99//99 60//60 74//74
f 99//99 74//74 98//98
f 99//99 98//98 156//156
f 269//269 266//266 270//270
f 269//269 270//270 299//299
f 269//269 263//263 264//264
f 269//269 264//264 266//266
f 76//76 24//24 50//50
f 76//76 50//50 88//88
f 76//76 88//88 90//90
f 76//76 90//90 23//23
f 76//76 23//23 24//24
f 132//132 127//127 120//120
f 132//132 120//120 111//111
f 132//132 111//111 135//135
f 205//205 211//211 212//212
f 205//205 212//212 137//137
f 205//205 137//137 66//66
f 205//205 66//66 201//201
f 205//205 201//201 211//211
f 262//262 299//299 292//292
f 262//262 292//292 251//251
f 262//262 251//251 299//299
f 296//296 293//293 292//292
f 296//296 292//292 299//299
f 296//296 299//299 295//295
f 296//296 295//295 293//293
f 256//256 251//251 293//293
f 256//256 293//293 265//265
f 256//256 265//265 181//181
f 256//256 181//181 251//251
f 277//277 268//268 265//265
f 277//277 265//265 275//275
f 277//277 287//287 285//285
f 59//59 46//46 168//168
f 59//59 168//168 72//72
f 59//59 72//72 69//69
f 59//59 69//69 46//46
f 224//224 220//220 202//202
f 224//224 202//202 282//282
f 224//224 226//226 220//220
f 283//283 282//282 285//285
f 283//283 285//285 291//291
f 281//281 268//268 277//277
f 281//281 277//277 285//285
f 281//281 285//285 282//282
f 281//281 282//282 202//202
f 281//281 202//202 268//268
f 197//197 268//268 187//187
f 197//197 187//187 189//189
f 197//197 265//265 268//268
f 193//193 265//265 197//197
f 193//193 197//197 189//189
f 193//193 189//189 191//191
f 193//193 191//191 265//265
f 175//175 172//172 169//169
f 175//175 169//169 170//170
f 175//175 170//170 174//174
f 175//175 174//174 176//176
f 175//175 176//176 251//251
f 175//175 251//251 172//172
f 121//121 124//124 141//141
f 101//101 116//116 91//91
f 101//101 97//97 116//116
f 27//27 33//33 25//25
f 27//27 25//25 23//23
f 27//27 23//23 91//91
f 27//27 91//91 116//116
f 27//27 116//116 33//33
f 147//147 150//150 140//140
f 147//147 121//121 141//141
f 147//147 141//141 149//149
f 154//154 174//174 170//170
f 154//154 170//170 150//150
f 154//154 150//150 157//157
f 154//154 157//157 174//174
f 167//167 172//172 171//171
f 167//167 171//171 166//166
f 167//167 166//166 169//169
f 167//167 169//169 172//172
f 257//257 266//266 245//245
f 257//257 245//245 248//248
f 257//257 248//248 249//249
f 257//257 249//249 266//266
f 104//104 65//65 69//69
f 104//104 69//69 139//139
f 104//104 139//139 119//119
f 95//95 110//110 83//83
f 95//95 83//83 65//65
f 95//95 65//65 104//104
f 95//95 104//104 119//119
f 95//95 119//119 110//110
f 196//196 202//202 220//220
f 196//196 220//220 195//195
f 196//196 195//195 180//180
f 196//196 180//180 202//202
f 192//192 223//223 131//131
f 192//192 131//131 195//195
f 216//216 207//207 209//209
f 216//216 209//209 219//219
f 216//216 219//219 234//234
f 274//274 253//253 247//247
f 274//274 247//247 240//240
f 274//274 240//240 272//272
f 274//274 272//272 286//286
f 274//274 286//286 284//284
f 289//289 299//299 298//298
f 289//289 298//298 280//280
f 289//289 280//280 284//284
f 289//289 284//284 286//286
f 289//289 286//286 288//288
f 289//289 288//288 299//299
f 290//290 282//282 283//283
f 290//290 283//283 291//291
f 290//290 291//291 297//297
f 290//290 297//297 299//299
f 290//290 299//299 288//288
f 290//290 288//288 286//286
f 290//290 286//286 278//278
f 290//290 278//278 282//282
f 236//236 231//231 237//237
f 236//236 237//237 252//252
f 236//236 252//252 246//246
f 236//236 246//246 242//242
f 236//236 242//242 232//232
f 236//236 232//232 231//231
f 243//243 235//235 234//234
f 243//243 234//234 250//250
f 243//243 250//250 252//252
f 243//243 252//252 237//237
f 243//243 237//237 235//235
f 214//214 208//208 207//207
f 214//214 211//211 208//208
f 28//28 30//30 16//16
f 17//17 7//7 18//18
f 17//17 18//18 19//19
f 17//17 19//19 7//7
f 26//26 16//16 30//30
f 26//26 50//50 24//24
f 26//26 24//24 18//18
f 26//26 18//18 16//16
f 94//94 87//87 100//100
f 94//94 100//100 111//111
f 94//94 111//111 106//106
f 94//94 106//106 89//89
f 94//94 89//89 85//85
f 94//94 85//85 87//87
f 114//114 109//109 106//106
f 178//178 176//176 183//183
f 178//178 183//183 251//251
f 178//178 251//251 176//176
f 146//146 148//148 134//134
f 146//146 134//134 142//142
f 146//146 142//142 155//155
f 146//146 155//155 158//158
f 146//146 158//158 148//148
f 105//105 99//99 134//134
f 105//105 134//134 124//124
f 129//129 142//142 134//134
f 129//129 134//134 99//99
f 129//129 99//99 156//156
f 129//129 156//156 142//142
f 267//267 299//299 258//258
f 267//267 258//258 261//261
f 267//267 261//261 263//263
f 267//267 263//263 269//269
f 267//267 269//269 299//299
f 77//77 88//88 50//50
f 153//153 127//127 132//132
f 153//153 132//132 177//177
f 153//153 177//177 126//126
f 153//153 126//126 127//127
f 173//173 209//209 177//177
f 173//173 177//177 132//132
f 173//173 132//132 135//135
f 173//173 135//135 209//209
f 123//123 126//126 159//159
f 123//123 159//159 125//125
f 123//123 125//125 22//22
f 123//123 22//22 109//109
f 123//123 109//109 114//114
f 123//123 114//114 106//106
f 123//123 106//106 120//120
f 123//123 120//120 126//126
f 200//200 207//207 208//208
f 200//200 208//208 125//125
f 200//200 125//125 159//159
f 200//200 159//159 126//126
f 200//200 126//126 177//177
f 200//200 177//177 207//207
f 279//279 287//287 277//277
f 279//279 277//277 275//275
f 279//279 275//275 287//287
f 260//260 278//278 255//255
f 260//260 224//224 282//282
f 260//260 282//282 278//278
f 102//102 90//90 112//112
f 102//102 112//112 124//124
f 102//102 124//124 121//121
f 102//102 97//97 90//90
f 92//92 97//97 101//101
f 92//92 101//101 91//91
f 92//92 91//91 23//23
f 92//92 23//23 90//90
f 92//92 90//90 97//97
f 152//152 157//157 150//150
f 152//152 150//150 147//147
f 152//152 147//147 149//149
f 152//152 149//149 157//157
f 122//122 121//121 147//147
f 122//122 147//147 140//140
f 122//122 140//140 116//116
f 122//122 116//116 97//97
f 213//213 223//223 192//192
f 213//213 220//220 226//226
f 213//213 226//226 223//223
f 203//203 220//220 213//213
f 203//203 213//213 192//192
f 203//203 192//192 195//195
f 203//203 195//195 220//220
f 228//228 216//216 234//234
f 228//228 234//234 235//235
f 276//276 280//280 254//254
f 276//276 254//254 253//253
f 276//276 253//253 274//274
f 276//276 274//274 284//284
f 276//276 284//284 280//280
f 218//218 231//231 229//229
f 218//218 229//229 217//217
f 218//218 217//217 211//211
f 218//218 211//211 214//214
f 218//218 214//214 207//207
f 218//218 207//207 216//216
f 29//29 22//22 42//42
f 29//29 16//16 22//22
f 41//41 50//50 26//26
f 107//107 112//112 90//90
f 107//107 90//90 88//88
f 107//107 88//88 99//99
f 107//107 99//99 105//105
f 107//107 105//105 124//124
f 107//107 124//124 112//112
f 70//70 60//60 99//99
f 70//70 99//99 88//88
f 70//70 88//88 77//77
f 70//70 77//77 50//50
f 70//70 50//50 41//41
f 70//70 41//41 60//60
f 233//233 224//224 260//260
f 233//233 260//260 255//255
f 233//233 255//255 226//226
f 233//233 226//226 224//224
f 108//108 97//97 102//102
f 108//108 102//102 121//121
f 108//108 121//121 122//122
f 108//108 122//122 97//97
f 222//222 231//231 218//218
f 222//222 218//218 216//216
f 230//230 237//237 231//231
f 230//230 231//231 222//222
f 230//230 222//222 216//216
f 230//230 216//216 228//228
f 230//230 228//228 235//235
f 230//230 235//235 237//237
f 31//31 32//32 28//28
f 31//31 28//28 16//16
f 31//31 16//16 29//29
f 31//31 29//29 42//42
f 31//31 42//42 60//60
f 31//31 60//60 32//32
f 39//39 60//60 41//41
f 39//39 30//30 28//28
f 39//39 28//28 32//32
f 39//39 32//32 60//60
f 34//34 30//30 39//39
f 34//34 39//39 41//41
f 34//34 41//41 26//26
f 34//34 26//26 30//30
