# Rhino

mtllib 19.06_sbe_b_00.mtl
usemtl diffuse_0_0_0_255
v 13.77659505902102 -0.064146340252998257 -2.8079821109771732
v 13.991732470072634 -0.061687920108619565 -2.7003656864166263
v 14.38369834059381 -0.057107596761712287 -3.3313349246978774
v 14.144688676954274 -0.053570171082482076 -3.9130167484283458
v 14.708593676780936 -0.015252648328232254 -6.8225576877594003
v 13.992691428796604 0.011931595953216245 -7.1978998661041267
v 15.057689365985652 0.057889922852902842 -6.0543848514556897
v 14.853879516368409 0.063280230501892021 -3.643454217910767
v 13.11762544345919 0.084200581085989157 -7.6844286441802989
v 14.943921280958648 0.0919530860802098 -3.8956896305084232
v 15.199683312174272 0.094433522068671394 -6.39703392982483
v 13.795965650969777 0.11682545222076612 -7.9613222599029552
v 13.855959015301266 0.14592652568970088 5.8121076107025154
v 15.051605021393016 0.15617245624742004 -7.2219862461090099
v 14.461182116577504 0.16652015307043477 -7.642282342910768
v 13.499659070416385 0.19629923536373184 8.5929257869720459
v 13.239065946122253 0.23529492182668399 9.0309430599212632
v 12.576078316765631 0.26303099285320108 9.6090451717376695
v 13.516584059648608 0.29458804158208629 8.8731931209564223
v 12.906442912423074 0.2993177957619455 9.5375760555267348
v 13.883297754571913 0.31666476694634049 8.0039136409759521
v 15.334971951677062 0.31245465557391761 -5.7594313144683849
v 10.68817613521486 0.3568612821926056 10.498528814315797
v 15.34195779035332 0.32558211686848537 -6.8762732028961189
v 10.009270607451413 0.37603911258166889 10.596973943710328
v 10.876452644277379 0.37334597018594273 10.787882757186889
v 13.120750596662788 0.36279729908855174 -8.6457205295562751
v 13.739802046327213 0.36397617972267327 8.6394650936126709
v 7.0235618705200409 0.41743092497796397 -9.6145582675933845
v 7.7566561737771167 0.41705131424278541 -9.6064222812652602
v 10.607199709215422 0.4084325101803632 10.812275457382203
v 12.456532784514309 0.39731398398924789 10.115479803085329
v 12.222942412495172 0.40674629567194387 10.248382329940796
v 6.5201888299548614 0.45088982380854326 -9.792382860183718
v 13.489466409300519 0.40268425823675891 9.1698453426361084
v 7.4202121236835978 0.4493992222535983 -9.7519291400909438
v 15.013892049879644 0.39874084370577201 1.8084638118743896
v 15.342829870148933 0.44020665955747695 -7.4993624210357677
v 14.142046556865978 0.45087574526148266 7.583730840682982
v 5.0142904828344967 0.51541919045446427 -9.8359060764312751
v 14.11242306071864 0.47809455554038749 -8.6499643802642829
v 10.268403336681899 0.52833943269892458 10.90119299888611
v 15.421517280282671 0.50086272744247573 -6.7554369449615486
v 3.7261740137215611 0.59491397765953202 -9.565956735610964
v 1.620188637606077 0.61377353588822636 -3.5550669193267836
v 15.166346511843813 0.52124782770092004 1.6015882015228264
v 15.463463809750181 0.51950922965893831 -6.2571894168853772
v 5.9079268887725789 0.60717160976684603 -10.411281633377076
v 6.3049810973699891 0.60579963014435201 10.129006719589235
v 10.657373608660407 0.58285722547621077 11.014236211776733
v 1.4909574095555627 0.65200065806873475 -3.1625757694244392
v 3.2041888685374715 0.66290550181867225 -9.4318880558013927
v 1.3260270994665575 0.69739350047787418 -3.7912142276763934
v 2.0297346011741979 0.7028483823924585 -8.7099684238433852
v 2.5195709483519977 0.71612448394500383 -9.123284959793093
v 1.7032870852788733 0.72928369039619234 -8.1210031986236579
v 6.314233277234905 0.70928363709607645 10.490850591659544
v 3.3372107850249222 0.73541508927861621 -9.6715464115142833
v 11.721206604819656 0.6925535832835763 11.119048833847046
v 1.2179632348430118 0.77599033357398461 -5.3650393009185802
v 12.327201835964047 0.70782781108100146 10.930811834335326
v 1.3316139738574293 0.78523196558572117 -7.8900587558746347
v 6.8517114915815682 0.75032803617291144 10.643143987655641
v 3.8998378891026846 0.79382717799423297 -10.100258684158327
v 2.3535306978168364 0.80476954822410462 8.5282849788665764
v 4.0390181484472123 0.80778857204026977 10.112629461288453
v 1.6753698133248349 0.83890225637895988 -8.7919485569000262
v 2.4417310428008818 0.84533834590793155 9.2561536312103279
v 1.102357669317314 0.87502077589748417 -3.3721758365631107
v 1.0834615124884408 0.88353927869741078 -5.67938256263733
v 1.3507200140575719 0.89472940459266326 -8.5282221317291267
v 3.1499026580594887 0.90161547295992506 10.05280432701111
v 1.4229239647793293 0.93575867484261188 8.3461865901947014
v 11.858639584592595 0.86579697878143413 11.368514776229858
v 1.2501335537503451 0.93998153813411101 8.090322637557982
v 2.5583989981834634 0.93608477660295542 9.7557767391204848
v 11.437276745779968 0.88318549380357148 11.359597539901735
v 12.347775476725417 0.8839769297740947 11.271207952499388
v 12.613959815814439 0.90735061122801675 11.109621953964233
v 15.20365670709981 0.91063738680317918 3.6756024837493886
v 12.112300838288149 0.93907400794798157 11.388062810897829
v 3.8142294153101375 1.0024391616558948 10.403989934921263
v 2.0634991973110459 1.0735519379907217 9.8697446346282973
v 0.9868554732123016 1.0916734551357372 -7.9013956546783461
v 1.7917002316210642 1.0972798044658578 -9.1223551273345969
v 2.2945222067056079 1.1281428867779937 10.064469671249391
v 15.342996995718863 1.0433414071910381 2.9300916194915771
v 15.587280795763093 1.0786932415304289 -7.7552210330963147
v 12.058874004714653 1.1235705636879469 -10.447837305068971
v 4.5878948496767293 1.207611404833445 -10.527308130264284
v 0.77013131268756752 1.2414728852895536 -6.1064913272857675
v 2.0910953814058075 1.2534522695157744 10.168501043319701
v 0.80025064851457728 1.3673442533195743 -8.4923876285552993
v 0.71275091806751334 1.370745174208631 -7.4759912967681901
v 11.444450397222454 1.4015676651838742 -11.044205522537233
v 0.55051484919800941 1.4944421745645418 -5.8497797489166272
v 1.2173594451118106 1.493700070339619 -9.1335905551910415
v 0.57256638305995011 1.5818474126679636 -8.0156996250152588
v 14.484594829221408 1.5462684552696917 -10.914231634140016
v 5.5705988397753572 1.6090680367886367 -10.85019841194153
v 14.777425759491507 1.5942440272608387 9.6589231014251702
v 0.31160900617288689 1.8138530595627511 -5.7516466617584241
v 15.098453311869775 1.7169392916175052 -10.952783918380739
v 15.021186297709789 1.7687977883751245 9.1097348690032973
v 0.23116756842682662 1.8954391343806396 -7.1282934665679942
v 14.735748756284067 1.8023048220112674 10.739739751815797
v 10.710378587901062 1.885751934365258 -11.411739683151247
v 15.685149729312911 1.8550255763638059 -8.5813833713531515
v 11.890456994495253 1.9122615432763546 -11.504168605804445
v 15.548491434189771 1.9051987423029804 -10.109557008743288
v 14.564103721341269 1.9307811378215245 -11.351121759414674
v 0.40527493027548189 2.0332504071027504 -8.6919081211090106
v 13.190416269175387 1.9839282186704867 11.966158819198608
v 9.7591193328903501 2.0285430220279856 12.066673040390015
v 13.420694421116366 2.0031746177967751 11.961649847030639
v 14.911611473375501 2.0259430962596294 10.64801917076111
v 14.153631431496365 2.0748117202185714 11.75641303062439
v 15.022561399343317 2.0732912352319257 9.9912427425384536
v 15.502786221655469 2.0771017330697585 -10.645909357070924
v 0.9192206080709866 2.2212768284729751 -9.4520939350128188
v 0.61896637930573206 2.2471910780150566 9.7578565120697007
v 0.84799705120252611 2.2528403643663086 10.933472967147829
v 13.530810962533906 2.1713880089742563 12.041969060897827
v 15.316738493932291 2.1731087932596918 -11.063416147232058
v 1.1969067535800377 2.3039023210029352 11.082165288925172
v 0.56956530545710393 2.3328415473065593 9.4998975276947029
v 14.081860504972553 2.2547908332361661 12.034304571151733
v 15.104735722997361 2.2732680717264806 -11.478592252731325
v -0.011207139390876364 2.380931709816215 -7.19659447669983
v 13.168860870803087 2.2892151847575288 12.098975896835327
v 1.0095281864991534 2.398892503962136 11.099650335311889
v 14.300888037870777 2.3356545376594635 11.955953741073607
v 5.0817047548089818 2.4240999521426403 12.013023138046265
v 15.843135765645172 2.3567855421135206 3.2608136653900139
v 15.772991445597086 2.3608990771441025 -8.4191992282867449
v 15.888092128962057 2.4071935532638573 2.8812451839447011
v 0.69121410211124612 2.5242727892656038 11.035044622421264
v 0.58516226670701599 2.5715552045346914 10.681654119491576
v 0.32699094965681752 2.6701251875487824 -9.2554283618927009
v 0.85988190553985078 2.6737030205150827 11.261984014511107
v 0.55813086357284192 2.7002880716885489 10.963891363143922
v 14.676852102826956 2.6252203714957094 11.898641729354857
v 2.4151559793228898 2.7795423403150661 11.794640874862672
v 0.10166721539673063 2.8940076777007988 -8.7919962406158465
v 14.531556451371955 2.7959780124568177 12.117229986190797
v 0.88869714930478949 2.9214820794959113 11.431788396835326
v 2.2177412900688864 2.9350392473503479 11.83867621421814
v 0.73047635007964118 2.9521460443835323 11.237879705429076
v 0.0053812364542977775 3.0241443193751323 -6.72357201576233
v 15.489787669551333 2.975732135189963 -11.450947618484498
v 6.4945202504505914 3.0547712730732908 12.195588445663454
v 0.019760099524830821 3.1349676296688695 -7.4205530643463149
v 0.69960187483343361 3.1549935792119381 -9.892947816848757
v 15.063582745507858 3.0728141830176003 11.84868140220642
v 2.3396704457757664 3.1747714063250445 11.964877080917358
v 15.093974638661621 3.0957701371711916 -11.771215295791627
v 14.723873382616659 3.1116238974656785 12.129528570175172
v 14.967159634297047 3.1765072743564158 12.032781744003294
v 1.9439253266914989 3.2677380363037898 11.953664922714232
v 1.6404957450522488 3.2769615003968369 11.893411016464235
v 0.066652676403975875 3.3458213495525886 -9.2814577579498305
v 1.3968491606803468 3.3560340478260269 11.878509283065796
v 15.136051492396007 3.3791183145841135 11.908387517929079
v 1.6874413927433807 3.531105091210387 12.000013494491576
v 14.845859464998625 3.4588400494118954 12.112145757675172
v 15.565002843662228 3.5008777025256297 -11.631931161880495
v 0.15954486075139584 3.6185853934472352 10.298783636093141
v 1.3791673296974523 3.6744248312392305 12.005534124374389
v 0.028064738166335701 3.6860029877049225 9.5279263973236077
v 15.035305997989667 3.5869758574576487 12.027285528182983
v 0.12832807813930458 3.7002985578578702 -9.6657646656036391
v 14.150950458363297 3.6437755602734878 -11.927903985977174
v 14.939512168552881 3.8045585523971273 12.086819219589234
v 0.11039919432442957 3.9122755813937804 10.394891119003297
v 0.69209544730125572 3.963941835799055 11.307888555526734
v 1.0838764868510111 3.9723149711644403 11.879227972030641
v 0.30980776939441057 4.1142746910215795 -10.050727319717408
v 15.170766884453883 4.0472052243190131 -11.951412057876588
v 1.08142364573024 4.1466592631937669 11.914169073104858
v 0.10262319047973278 4.1786442638253245 -9.6587790012359633
v 1.1862512868685258 4.1899241142162236 11.988575506210328
v 0.015256596704148251 4.2399565877888623 9.7969281673431396
v 1.1831965268024192 4.5162321197252222 -10.662348413467409
v 0.1061788581959604 4.5367416388718578 -9.3812479496002208
v 15.525848003083638 4.5332627493106177 -11.817402935028078
v 14.774873097355112 4.6171235525448306 12.132053899765015
v 14.128965006367935 4.6589904022939042 -12.107218599319459
v 16.600058432333128 4.6466517761505663 4.0493421077728264
v 0.22266084129699948 4.7828551023241275 -10.293002176284791
v 16.64976514830613 4.9346250865286585 4.0674085140228264
v 1.2780637286011256 5.0821696047277971 12.006432867050172
v 0.038548669678277747 5.1453209020108837 9.1264951229095459
v 0.43530440936302739 5.2304666406822928 -10.662187433242799
v 16.720282993979708 5.1295797741650997 3.617440557479858
v 15.364530763468679 5.26044916903024 -11.927373504638673
v 1.2276971260085929 5.4414380883652012 11.973579168319702
v 15.959317517181773 5.4318201778403488 -11.312486028671266
v 0.29438352441286497 5.5954760234648102 10.809185552597047
v 0.2024278218444806 5.8284056894643381 10.295046758651733
v 0.52720953398863912 5.8921014887451442 11.171798467636108
v 15.085796916320703 5.9339775868071261 12.113871526718139
v 0.27916803463926954 6.1644633713396928 10.63701605796814
v 0.25892157987806286 6.2371898475338003 -10.50002694129944
v 0.54175001938824607 6.5561484883791845 -11.105282449722292
v 14.967125683379606 6.5059451154247085 12.123455572128297
v 0.28187626508872654 6.6422340701665856 -10.508574342727663
v 16.104864341257894 6.7678170747861248 -11.394496059417726
v 0.42806470227964155 6.9111510136527219 -10.887248659133913
v 0.68438990664492394 7.4099598831345173 -11.394239759445192
v 16.366216321780826 7.3392782099393568 -10.86506371498108
v 1.5109919197807358 7.51981453959581 -11.588640308380128
v 0.89777743142690269 7.8158812796201502 -11.555780267715456
v 0.61552294341333891 8.0290160475705239 -11.290164041519166
v 1.4113272387829738 8.2558724763385474 -11.62932643890381
v 16.417480508016865 8.1570619053341922 -10.964490270614625
v 0.79868884509943427 8.2848244578519115 11.308915472030641
v 1.0589890072355388 8.5550368694034802 11.631606817245483
v 16.5486892143619 8.895518779881721 -10.589630746841433
v 15.202488875871666 8.9453396135413712 12.111611700057985
v 1.3573556605496719 9.2191438047871657 11.903269720077514
v 15.387388358323847 9.1343598801490131 12.091615056991579
v 0.92042755942878784 9.3202933578556006 -11.333997392654421
v 16.457696956774498 9.219029824035518 -11.085308885574342
v 16.561164990759323 9.2297616308672872 -10.642303323745729
v 1.4880361453943465 9.5504928924553845 12.012241888046265
v 16.637752155825353 9.4599744440642297 8.3160443782806404
v 16.355563047285955 9.5473190371962247 -11.533100700378419
v 16.629061293551047 9.6238281720672969 8.4885221004486091
v 16.592362269418572 9.6360577672109713 8.7321271419525139
v 15.782577213312834 9.8854371649550359 -11.804659461975099
v 0.61030648599233928 10.099616614431739 -10.72951092720032
v 0.57879791446049467 10.282148527568522 10.42316107749939
v 1.6214593207844246 10.383646857647543 12.00372748374939
v 0.43555822762988328 10.511988625158489 -4.7121477603912361
v 0.48395675872291122 10.606019312599075 -10.387147760391237
v 0.44126552948824838 10.753730726083097 1.4960156917572007
v 0.56208078892518643 10.783762675283192 9.9674954891204841
v 0.56025698086762077 10.923225467900537 9.6769376277923591
v 0.7387132334878288 10.957881306632682 -10.664756441116335
v 0.89843836490484819 11.065059430096191 10.881625127792358
v 1.7371929115674334 11.096554181393728 11.982156133651735
v 1.5333912217739112 11.144212119284928 11.932240056991578
v 1.1338486467653297 11.1655368222505 11.471630620956422
v 0.59630687882417988 11.204558642689458 9.9252027034759536
v 16.405396360985094 11.097216890322617 -11.070944166183473
v 16.69277961639699 11.116078289747879 8.8879926204681396
v 15.491783569920869 11.179164845794688 12.011118841171264
v 1.4351742630653348 11.453277644831733 11.708881902694703
v 16.643263119741675 11.347322187104318 9.1793164730072014
v 15.975504268514101 11.428048144102952 11.581843328475951
v 16.736944763033705 11.459149964115442 -10.251225328445436
v 16.735981390840493 11.525883867078525 8.7924771785736091
v 1.9375872294969554 11.668181665112122 11.988662481307983
v 15.727990213443547 11.620645748228752 11.856361150741577
v 1.7460137825582365 11.909322517905663 11.855126714706422
v 0.98982081292200519 11.952110083179262 10.434370183944701
v 2.0068448255033218 11.970685056824532 11.950678777694701
v 17.267079534052129 12.008382639867207 -1.1280367374420166
v 0.53415143483039174 12.158824562263462 5.18765387535095
v 16.073570594255386 12.085361452579779 11.353797674179077
v 0.80238271697385244 12.235077532673913 -9.9548054218292243
v 16.481262851189285 12.14041750939815 9.9030835628509521
v 17.365034345449999 12.18797815122829 1.9239469051361073
v 1.1856503330243982 12.304097434013647 10.670150518417358
v 15.171873807232771 12.220817446126436 12.079220342636109
v 16.021589514025209 12.234918156643655 11.462243413925172
v 16.74043361323038 12.242922722681943 8.864187383651732
v 17.363873481790847 12.277107017290202 0.90993475914001465
v 16.793980272068495 12.312019245772627 -10.044677400588991
v 17.152956246367182 12.389470615957134 -5.5499987125396739
v 16.022978556430701 12.471432322007061 11.417646551132201
v 1.1714163321633464 12.633735299945194 10.334046697616579
v 17.384502344448151 12.551872279026215 2.045541143417358
v 16.182716151898774 12.626679197443416 11.007200384140013
v 0.62079799048018458 12.736038419537298 -7.6530527591705333
v 1.5891119950513826 12.735005149659969 11.234650945663454
v 16.489986681125913 12.650017498749285 -10.465837717056276
v 0.66581023049724308 12.793458769413988 -8.4285452365875262
v 17.382541561347011 12.684836389036676 2.2533582210540768
v 16.339577700206974 12.717017296290322 10.315458440780638
v 16.791328227883923 12.740486431876962 -9.8726286411285411
v 15.262397331786019 12.776034447209028 12.062560796737671
v 15.704098790763624 12.803958155589662 11.73920569419861
v 1.050630597525867 12.936837920864876 9.414480352401732
v 0.62676384200841539 12.953532859124598 -6.8170023441314704
v 1.8509855152341288 12.953712115454962 11.384223699569702
v 1.1680540333410363 12.974880030441239 9.8709989070892341
v 1.3043876662456455 13.000735999565102 10.159658575057982
v 0.86244621656834397 13.016417404651049 -9.2570555210113543
v 1.6251165591113477 13.0122535729564 10.869102239608765
v 16.231736175290905 12.939319164397894 10.541494512557982
v 16.34591738794154 12.975773711218991 10.144628667831419
v 16.059836140558218 13.028035320256858 10.920844793319702
v 17.312169977224585 13.019511496111699 -2.3145807743072524
v 0.67422681122593531 13.1521172782635 -7.74566674232483
v 16.124239695398671 13.104118666207636 10.648090887069703
v 15.859056879021466 13.111003387859588 11.181129217147827
v 17.311690132928504 13.155864996898035 -2.4609522342681895
v 15.917486344903807 13.185103596672986 10.988279485702513
v 16.833576454284355 13.190376480492795 -8.8296606540679949
v 0.72368111640912502 13.33269188732158 -8.1658854007720958
v 14.127890892940343 13.350184982046475 -12.017537450790407
v 14.673896551367136 13.359088157198482 -11.944313144683839
v 0.71542514508769273 13.46237807564831 -7.4926092624664316
v 0.67611396765801146 13.513173240346237 -6.7025316715240493
v 15.40305435852207 13.441111499307794 -11.643768644332887
v 15.433255409508433 13.478462373067757 11.421110296249388
v 13.867780880814394 13.489579524378133 12.084563970565796
v 15.604445851620426 13.491044162600897 11.148588323593138
v 2.6769676352460579 13.592630036603769 11.655589056015014
v 14.33391797944671 13.516466110231237 11.912365484237672
v 2.2321487195878831 13.629111479098558 11.143778753280639
v 1.6433637854138397 13.639881469620441 9.8290906429290779
v 17.287416947586678 13.556979038202247 5.82669196128845
v 15.247902854492281 13.638347055224461 11.460165166854857
v 14.983300224344703 13.649100878613096 -11.8459774017334
v 1.5716207032895113 13.751796515622877 9.3492078304290764
v 16.761094536161124 13.659324071489301 -8.8583662509918231
v 16.40750177379914 13.691659842160439 8.8281384944915757
v 17.204982926140303 13.711305730182012 5.9813489437103264
v 3.5795584166099843 13.822844831834519 11.86145453453064
v 2.4526190968080641 13.844914455359092 10.989674139022828
v 2.8843071562262708 13.844025225776708 11.662705755233766
v 10.97367897591414 13.820934572805674 -12.098122930526735
v 16.265044720817514 13.817225565846611 9.1143659114837661
v 17.153358509967973 13.859167700441315 -3.1697878360748302
v 15.719756916496351 13.873098237285632 -11.366428232192995
v 17.168450892800934 13.888467767069814 5.7808988094329834
v 2.3717480777039555 14.019393679647175 -11.487556791305543
v 2.829241576387858 14.018327526062304 11.200665044784547
v 14.312667458718408 13.9706631974888 -11.876196956634523
v 3.1584391828304206 14.060229845658146 11.538268804550171
v 2.8721861702993579 14.092227343959278 11.092236089706422
v 16.105188995496462 14.000295350134435 9.3476880550384536
v 17.031627601127809 14.005966652210835 -3.1503687381744392
v 0.71085001004377091 14.137820224120386 -0.63633446693420481
v 5.4931902318780885 14.134532718452466 -12.195588445663454
v 0.90870601583179678 14.172041968296536 -7.1517839908599861
v 0.70584684812240539 14.187753413658211 -1.0180010318756114
v 1.9511458566503279 14.212037125188862 -11.097825860977174
v 0.7719901332463337 14.224346097178941 -2.8418550968170173
v 16.89649276046805 14.11233438540715 -3.4186136722564715
v 15.229476144951548 14.143702109076541 -11.53961548805237
v 0.86502051271634173 14.280980315762442 -5.2875948429107673
v 11.966543943501506 14.248603713082097 -11.999983882904054
v 15.271137118023432 14.233711602860591 10.170046758651733
v 16.873998229306039 14.229214652699309 5.9749417781829841
v 15.967637400243177 14.242614309258416 9.2677106380462639
v 15.105583299847069 14.274058401986697 10.270106267929076
v 1.0121504973058109 14.386269071598013 -6.8223192691802987
v 12.167829425886225 14.316226682019566 12.049140691757202
v 2.959620655284084 14.391426356259139 -11.639500951766969
v 14.661917186246797 14.320306043460159 -11.646069383621217
v 15.442590123430591 14.331783681292649 -10.950668001174929
v 0.84026617121992331 14.437388069063356 -0.8779299259185791
v 15.848817591716227 14.383250339441002 -10.145784616470339
v 4.7866502443190484 14.469067560354389 -12.123031711578371
v 11.827541583687832 14.420566713339419 12.028794622421266
v 15.203389070921219 14.412134012963806 9.8696012020111077
v 15.577020448717235 14.414334635050583 -10.473562479019167
v 16.620573405362563 14.443080206311972 6.2535993099212632
v 1.8212957139956529 14.548586329434983 -10.627861070632935
v 5.2477538675051392 14.534072378677161 11.987183904647829
v 15.736894809843648 14.463174986511252 9.0952863216400139
v 11.446213745035436 14.505133884103213 12.022579717636109
v 14.882089525879849 14.498269144591298 -11.200864458084109
v 16.09518624895594 14.492025370155158 -8.1930651187896739
v 3.9169242055625091 14.579817162974095 -11.890060997009279
v 12.525151993616817 14.561779193050237 -11.832840538024904
v 12.078349036586019 14.589804904526265 11.901806402206422
v 15.5152665460771 14.566388901092397 -10.05101342201233
v 15.720525969043138 14.570652852287385 8.8845304012298598
v 14.298784707331322 14.60731065377146 10.310496282577514
v 2.3969856786440573 14.698295765808986 -11.370469427108766
v 16.632469539996123 14.612952080309935 5.2240659236907945
v 11.816239904036934 14.664986844241152 11.902926397323608
v 10.612334965869422 14.67421210487149 -12.011875009536745
v 11.136965818158217 14.671985861712425 -11.971200799942018
v 14.983540700480489 14.645294716339155 -10.65601830482483
v 15.507429140858903 14.656951869585964 -9.5982742786407478
v 14.467439642859802 14.674282372324253 -10.840661668777468
v 5.3841980976980608 14.740316807130576 11.926748418807982
v 15.133139853590876 14.691723453889839 9.2561597347259514
v 15.467061357362638 14.713436549382418 8.7406980037689195
v 16.422731747486921 14.709692354024103 5.7225812435150125
v 6.0480268756647888 14.785909625565751 11.994244146347047
v 11.298568021053768 14.752856087853099 11.87864966392517
v 16.32502748549831 14.732747440824802 5.9634320735931396
v 2.0818073419308121 14.841741200881408 -10.978086137771609
v 12.705378046916053 14.775098481616642 -11.357970333099367
v 11.81152784621554 14.784462391792312 -11.697436666488649
v 6.7153223873460206 14.830062164373491 12.018279790878296
v 16.34993969984879 14.773589953116399 5.4716931819915757
v 1.865072239932374 14.882885557483332 -10.458309793472292
v 1.1383202199625089 14.901973588055789 -2.7276590824127211
v 9.9191012776614116 14.840692920897887 -11.912114715576173
v 15.696396211887702 14.811404308627417 -8.3907438755035422
v 1.2208593294092793 14.926865016205422 -1.9754602909088135
v 11.0174645277948 14.868599930458331 -11.659230089187623
v 5.8570103437946273 14.908601539298363 11.956985235214233
v 16.157417961031456 14.850012112330631 5.7492536067962625
v 5.4067538403922981 14.932503947864564 -12.179274654388429
v 3.3654892010665094 14.954277336171035 -11.702526903152467
v 2.5214751733057028 14.985874968804152 -11.097140359878541
v 1.2270121320581211 15.019916633370624 -3.2364740848541267
v 11.796114191877166 14.95192039827638 -11.23125081062317
v 14.127664802043682 14.947158548476191 -9.8462713718414321
v 6.1474673922879788 15.018782034814759 11.910658025741576
v 1.4597582140221448 15.065600974020246 -6.3964560031890878
v 5.9159585469056424 15.069066885422089 11.841262578964233
v 4.7367398600276829 15.085794206273377 -12.076218223571779
v 9.1589923150214076 15.060098319509679 11.687908697128297
v 5.8898428696163592 15.112486245808798 11.687298345565797
v 15.011946510335065 15.055439458491929 -7.6939833164215097
v 13.418111958001816 15.071562601797449 -9.6584570407867449
v 14.717854787322949 15.064282938958861 -8.2849157810211196
v 11.301338642954647 15.089071589562479 -10.941095399856568
v 15.418374875885263 15.064093608375615 -4.0874193668365493
v 1.480483632038613 15.174825400377374 -1.8765703678131107
v 15.38011833288374 15.089376857700469 -1.4086260318756114
v 6.5307662539064495 15.161455021127068 11.738871526718139
v 6.0377924560800693 15.176373837909045 -11.854864454269411
v 13.526562438308531 15.129827828924416 -9.2457605838775656
v 11.202673045513734 15.159284205019684 -10.628278398513796
v 13.597791727487049 15.147061907765341 -8.8658049106597918
v 15.183917159084558 15.142810102237679 -3.8875231266021739
v 14.170786142613338 15.162497353042923 -7.2653246402740486
v 15.151152952311634 15.155729377071957 -3.542764520645143
v 14.505481200820896 15.1689153620101 -6.3253237247467053
v 6.4911452803285101 15.225535832798652 -11.718149280548097
v 10.960752561780907 15.197434494428062 -10.520441675186159
v 3.7437108508916026 15.248426884302127 -11.653704738616945
v 14.904249833616518 15.180296451822166 -4.2321100711822517
v 4.9705806271323922 15.250771600246141 -11.807460880279542
v 1.4740873136758523 15.284908498049148 -3.0332216739654552
v 11.881177591030166 15.218178863381056 -9.838922166824343
v 11.208966299766985 15.2270740612541 -10.232622766494753
v 4.1387550162177149 15.292107894896608 -11.686749553680421
v 12.790718493930797 15.240157473175962 -8.525807809829713
v 14.255823231169188 15.245635379777298 -4.3621195316314711
v 4.620338369399235 15.318308965750052 8.5135983943939202
v 12.190881231042397 15.267175987880368 -9.1378880023956306
v 11.454129149971948 15.28438531512689 -9.6255552768707293
v 1.5685552724237937 15.3658008400451 -3.4616663455963153
v 4.7376503265390966 15.375278555724858 8.1953397274017341
v 2.3745035837507089 15.417737735916447 -9.116734361648561
v 1.8751049839074199 15.43348501436644 -6.413228464126588
v 6.1199738034372331 15.441543867919613 -11.085970544815066
v 5.2578989545420427 15.45143415822897 -10.977740335464478
v 1.7171002811867879 15.481859159436921 -2.828032922744752
v 6.5460705542420214 15.458015917068501 -10.772807741165163
v 2.7291647512572013 15.496950414702839 -9.5047903537750251
v 2.2536922693055317 15.517847525549005 -7.8735186100006116
v 6.3668039926941447 15.555223019345723 9.5967694759368882
v 2.5247185423140763 15.586935095991185 -8.5338186740875255
v 2.6717619803485491 15.620947004841888 -8.8918043613433859
v 3.0746388305208256 15.678077629998709 -9.092171335220339
v 4.7525454541303702 15.709359249428616 -9.1782404422760031
v 3.934190120130495 15.730645466976387 -9.4362629413604751
v 4.2523096743747146 15.746308117640448 -9.0868605136871352
v 2.0674170540661976 15.76306331097406 -3.9959742069244388
v 2.1615338592387161 15.792293637415099 -4.3694750308990491
v 3.0035027891232744 15.793119231830016 -7.5085772037506118
v 4.0809358774305338 15.788054803128787 -8.6971476078033465
v 2.3570693424922524 15.821768834144716 -3.5716127872467052
v 4.2676727957037883 15.818766449539385 -8.2981600284576427
v 8.9136049827198462 15.7969486553434 10.237254095077514
v 2.4717217061842689 15.848074652874665 -4.4211992740631114
v 10.947973613828481 15.807035764455943 10.585357427597046
v 2.9219921073287196 15.867124398591107 -3.0801249027252204
v 10.825520767321223 15.817218001758661 5.8916379451751695
v 11.463787771977536 15.818516647614363 9.0314786434173584
v 2.6841811277924421 15.882462511791527 -3.9981737613677986
v 4.3533057705962506 15.872432581364025 -7.5394526004791276
v 11.310859866569274 15.839555907033047 8.9482419490814209
v 11.056651012167606 15.849572550581204 10.422823858261108
v 3.1885377111050843 15.910311865512611 -3.5146547794342045
v 9.0072704595679625 15.87095785741551 9.8036130428314223
v 9.4286358720727321 15.880464359925227 10.040949773788451
v 4.5708158959881189 15.934263838761767 -3.7052584171295173
v 4.368347421262456 15.94512586227652 -3.4148409366607684
v 9.432823644777443 15.9220544547168 9.6737851619720452
v 9.9423744388240607 15.957148414498169 9.7895459651947014
vn -0.02649848535656929 -0.99964702129364014 -0.0019129229476675391
vn 0.021178407594561577 -0.99964869022369385 0.015934677794575691
vn 0.10866573452949524 -0.99400025606155396 0.012458561919629574
vn -0.0031378837302327156 -0.99991869926452637 -0.012359216809272766
vn 0.11570362746715546 -0.99057769775390625 -0.073270104825496674
vn -0.018114874139428139 -0.99669539928436279 -0.079184494912624359
vn 0.24902942776679993 -0.9684181809425354 0.012271701358258724
vn 0.33873218297958374 -0.94015955924987793 0.036884542554616928
vn -0.0114886574447155 -0.991424560546875 -0.13017448782920837
vn 0.41601470112800598 -0.90836429595947266 0.042497877031564713
vn 0.58415478467941284 -0.81131452322006226 -0.023064116016030312
vn 0.09012218564748764 -0.95427447557449341 -0.28502309322357178
vn 0.30404818058013916 -0.95141470432281494 0.048628918826580048
vn 0.33621343970298767 -0.89713799953460693 -0.286537766456604
vn 0.2406885176897049 -0.90107005834579468 -0.36075162887573242
vn 0.19835954904556274 -0.97398263216018677 0.10959596186876297
vn 0.27128607034683228 -0.92298215627670288 0.27296110987663269
vn 0.066811300814151764 -0.98508763313293457 0.15855167806148529
vn 0.45779034495353699 -0.83543103933334351 0.30411016941070557
vn 0.29171204566955566 -0.89329540729522705 0.34194651246070862
vn 0.54536855220794678 -0.82754093408584595 0.1332256942987442
vn 0.84604287147521973 -0.53261888027191162 0.02299213781952858
vn -0.018112162128090858 -0.99755507707595825 0.067496456205844879
vn 0.8762323260307312 -0.47735702991485596 -0.065932869911193848
vn -0.059939511120319366 -0.98741263151168823 0.14636768400669098
vn 0.058186724781990051 -0.9175906777381897 0.39324504137039185
vn 0.076638668775558472 -0.90659487247467041 -0.41498464345932007
vn 0.56281942129135132 -0.79364979267120361 0.23098556697368622
vn -0.018209788948297501 -0.9921146035194397 -0.1240042969584465
vn 0.010084232315421104 -0.97485995292663574 -0.22259016335010529
vn -0.084976881742477417 -0.82518154382705688 0.55843919515609741
vn 0.18882697820663452 -0.92207300662994385 0.33782500028610229
vn 0.17164565622806549 -0.91354340314865112 0.36874952912330627
vn -0.011208961717784405 -0.98108798265457153 -0.19323743879795074
vn 0.41006320714950562 -0.834786057472229 0.36739674210548401
vn 0.021764686331152916 -0.96202582120895386 -0.27208936214447021
vn 0.5172194242477417 -0.85338377952575684 0.064962767064571381
vn 0.75698864459991455 -0.62144440412521362 -0.20192831754684448
vn 0.69206911325454712 -0.70956975221633911 0.13248047232627869
vn -0.060792539268732071 -0.99262702465057373 -0.10486099869012833
vn 0.22534605860710144 -0.89880996942520142 -0.37597844004631042
vn -0.095153413712978363 -0.73998564481735229 0.66585814952850342
vn 0.9245648980140686 -0.37564632296562195 -0.063793689012527466
vn -0.15504790842533112 -0.95202326774597168 -0.26384055614471436
vn -0.13686755299568176 -0.99057859182357788 -0.0046206279657781124
vn 0.80462908744812012 -0.59017926454544067 0.065272398293018341
vn 0.92216640710830688 -0.38678500056266785 -0.0025404170155525208
vn -0.03059551864862442 -0.82109242677688599 -0.56997466087341309
vn -0.080348007380962372 -0.99036026000976563 0.11283062398433685
vn -0.067640230059623718 -0.71627551317214966 0.69453161954879761
vn -0.27640724182128906 -0.96094715595245361 0.013400581665337086
vn -0.21977308392524719 -0.90981107950210571 -0.35205614566802979
vn -0.41618296504020691 -0.90928035974502563 -0.00097600015578791499
vn -0.21171148121356964 -0.9651566743850708 -0.15378846228122711
vn -0.24293239414691925 -0.90352267026901245 -0.35303065180778503
vn -0.15975561738014221 -0.98643600940704346 -0.037711974233388901
vn -0.10466323047876358 -0.87028855085372925 0.48129355907440186
vn -0.26719170808792114 -0.85234916210174561 -0.44956594705581665
vn 0.1421680748462677 -0.86443060636520386 0.48223227262496948
vn -0.55511593818664551 -0.83169901371002197 -0.011092554777860641
vn 0.23565398156642914 -0.8829425573348999 0.40605369210243225
vn -0.43885424733161926 -0.89545047283172607 -0.074668340384960175
vn -0.10415736585855484 -0.74587225914001465 0.65789502859115601
vn -0.32462820410728455 -0.63150256872177124 -0.70414561033248901
vn -0.097134485840797424 -0.99427282810211182 0.044569481164216995
vn -0.10600104928016663 -0.94655007123947144 0.30464199185371399
vn -0.37835222482681274 -0.78148722648620605 -0.4961121678352356
vn -0.15622520446777344 -0.97679626941680908 0.14650164544582367
vn -0.67951279878616333 -0.73362970352172852 0.0070568444207310677
vn -0.68849056959152222 -0.72507590055465698 -0.015674244612455368
vn -0.49577844142913818 -0.80801326036453247 -0.3183053731918335
vn -0.17624650895595551 -0.89644551277160645 0.40659886598587036
vn -0.27311569452285767 -0.94483345746994019 0.18082468211650848
vn 0.054397497326135635 -0.68129676580429077 0.72998332977294922
vn -0.51091700792312622 -0.85498738288879395 0.089220993220806122
vn -0.19088026881217957 -0.95202279090881348 0.23920133709907532
vn -0.056359272450208664 -0.62896496057510376 0.77538812160491943
vn 0.24609354138374329 -0.79379844665527344 0.55616724491119385
vn 0.37959563732147217 -0.82036852836608887 0.42767122387886047
vn 0.80647027492523193 -0.58107888698577881 0.10932987183332443
vn 0.1518331915140152 -0.6411060094833374 0.75228303670883179
vn -0.15034003555774689 -0.76180261373519897 0.63012272119522095
vn -0.29773843288421631 -0.88831746578216553 0.34963402152061462
vn -0.72333908081054688 -0.68776988983154297 -0.061263270676136017
vn -0.40832456946372986 -0.63079136610031128 -0.65982824563980103
vn -0.22087728977203369 -0.82186996936798096 0.5251123309135437
vn 0.91304212808609009 -0.40257146954536438 0.065500326454639435
vn 0.94748485088348389 -0.31170746684074402 -0.071490399539470673
vn 0.073813550174236298 -0.90069741010665894 -0.42813050746917725
vn -0.21209226548671722 -0.36082488298416138 -0.90819728374481201
vn -0.74668514728546143 -0.66483616828918457 -0.02130938321352005
vn -0.23323933780193329 -0.78960424661636353 0.56756013631820679
vn -0.69998049736022949 -0.64667415618896484 -0.30305099487304688
vn -0.74611568450927734 -0.66460305452346802 -0.040175963193178177
vn 0.04661860316991806 -0.74783796072006226 -0.66224247217178345
vn -0.77369821071624756 -0.63352906703948975 0.0056635672226548195
vn -0.51992875337600708 -0.59090447425842285 -0.61685168743133545
vn -0.79804754257202148 -0.59330368041992188 -0.10540821403264999
vn 0.11644716560840607 -0.86528623104095459 -0.48756521940231323
vn -0.13234677910804749 -0.30885100364685059 -0.94185739755630493
vn 0.74737697839736938 -0.64932781457901001 0.14071615040302277
vn -0.85885763168334961 -0.51170450448989868 0.022849356755614281
vn 0.47864159941673279 -0.73511970043182373 -0.48010542988777161
vn 0.87838935852050781 -0.46258792281150818 0.12018526345491409
vn -0.80978792905807495 -0.58454149961471558 -0.050544753670692444
vn 0.63592082262039185 -0.70243555307388306 0.31967014074325562
vn -0.07685600221157074 -0.28100800514221191 -0.95662307739257813
vn 0.98290634155273438 -0.17155832052230835 -0.066804833710193634
vn -0.0014023749390617013 -0.40747532248497009 -0.91321516036987305
vn 0.94078701734542847 -0.30533725023269653 -0.14727163314819336
vn 0.1200869083404541 -0.66820359230041504 -0.73422276973724365
vn -0.8589482307434082 -0.45133626461029053 -0.24187496304512024
vn 0.039290521293878555 -0.47124606370925903 0.88112622499465942
vn -0.0098389843478798866 -0.40258580446243286 0.91532939672470093
vn 0.08848164975643158 -0.52573949098587036 0.8460313081741333
vn 0.87802952527999878 -0.43943160772323608 0.18964165449142456
vn 0.42674428224563599 -0.74066787958145142 0.51894158124923706
vn 0.93925440311431885 -0.31893903017044067 0.12680310010910034
vn 0.89375430345535278 -0.35135728120803833 -0.27883923053741455
vn -0.49556353688240051 -0.48787268996238708 -0.71860766410827637
vn -0.88178020715713501 -0.46351051330566406 0.087301813066005707
vn -0.53346669673919678 -0.68692344427108765 0.49350735545158386
vn 0.047839634120464325 -0.40368953347206116 0.91364443302154541
vn 0.76868265867233276 -0.43446436524391174 -0.46943339705467224
vn -0.19953174889087677 -0.64930343627929688 0.73388838768005371
vn -0.91942387819290161 -0.39138302206993103 0.038459260016679764
vn 0.2333252876996994 -0.54000520706176758 0.80867403745651245
vn 0.45863154530525208 -0.44489505887031555 -0.76923692226409912
vn -0.97847706079483032 -0.20400442183017731 -0.031062541529536247
vn 0.029639916494488716 -0.21235598623752594 0.97674274444580078
vn -0.23551121354103088 -0.59182298183441162 0.77089560031890869
vn 0.50847184658050537 -0.60821378231048584 0.60953456163406372
vn -0.095604375004768372 -0.47098660469055176 0.87694436311721802
vn 0.93153542280197144 -0.3549116849899292 0.079242676496505737
vn 0.98744767904281616 -0.14947783946990967 -0.05102422833442688
vn 0.93698322772979736 -0.34640738368034363 0.045435599982738495
vn -0.67145389318466187 -0.46125352382659912 0.57999551296234131
vn -0.83554065227508545 -0.52648645639419556 0.15711094439029694
vn -0.70292431116104126 -0.45732992887496948 -0.54474461078643799
vn -0.34294772148132324 -0.53776836395263672 0.77018964290618896
vn -0.88027215003967285 -0.29689562320709229 0.37009990215301514
vn 0.59595054388046265 -0.53552925586700439 0.59837394952774048
vn -0.19430641829967499 -0.57695299386978149 0.79332858324050903
vn -0.93177336454391479 -0.308073490858078 -0.19206555187702179
vn 0.29683589935302734 -0.30556049942970276 0.90472161769866943
vn -0.62417006492614746 -0.28356412053108215 0.72801309823989868
vn -0.17728735506534576 -0.46194159984588623 0.86901044845581055
vn -0.78437387943267822 -0.1195651963353157 0.60865575075149536
vn -0.99913442134857178 0.040628235787153244 -0.0089311515912413597
vn 0.80577445030212402 -0.34375858306884766 -0.48224228620529175
vn -0.014314324595034122 -0.047177787870168686 0.99878394603729248
vn -0.9991496205329895 0.038089457899332047 -0.01578812301158905
vn -0.50064367055892944 -0.3996749222278595 -0.76786446571350098
vn 0.85183387994766235 -0.39318516850471497 0.34609892964363098
vn -0.087600521743297577 -0.2576603889465332 0.96225637197494507
vn 0.21210435032844543 -0.25978979468345642 -0.94208335876464844
vn 0.18663910031318665 -0.076523557305335999 0.97944372892379761
vn 0.56827223300933838 -0.26099893450737 0.78035002946853638
vn -0.1404293030500412 -0.35266852378845215 0.92515105009078979
vn -0.19592569768428802 -0.45440712571144104 0.86898058652877808
vn -0.96216166019439697 -0.18393367528915405 -0.20103059709072113
vn -0.25063773989677429 -0.46326729655265808 0.85003775358200073
vn 0.90735667943954468 -0.14621970057487488 0.39411115646362305
vn -0.079378381371498108 -0.22059658169746399 0.97212976217269897
vn 0.3729223906993866 -0.05289372056722641 0.92635369300842285
vn 0.76353234052658081 -0.1948542445898056 -0.61567050218582153
vn -0.95182627439498901 -0.25300437211990356 0.17324984073638916
vn -0.29326927661895752 -0.20089776813983917 0.93468350172042847
vn -0.96452867984771729 -0.25059860944747925 0.082974262535572052
vn 0.54371708631515503 -0.059493549168109894 0.83715724945068359
vn -0.8208153247833252 -0.26503804326057434 -0.50598126649856567
vn 0.015252557583153248 -0.19811704754829407 -0.98005968332290649
vn 0.4283718466758728 -0.044682852923870087 0.90249711275100708
vn -0.95327603816986084 -0.07614898681640625 0.29234585165977478
vn -0.83736538887023926 -0.049190741032361984 0.5444258451461792
vn -0.61823326349258423 -0.18337380886077881 0.76430469751358032
vn -0.6055646538734436 -0.34835907816886902 -0.71549797058105469
vn 0.27118769288063049 -0.12767751514911652 -0.95402079820632935
vn -0.71980613470077515 -0.0512651726603508 0.69227957725524902
vn -0.99186092615127563 0.0059985793195664883 -0.12718476355075836
vn -0.43286740779876709 -0.021541383117437363 0.90120017528533936
vn -0.9952089786529541 0.029119478538632393 0.093333527445793152
vn -0.29058906435966492 -0.32426118850708008 -0.90022921562194824
vn -0.99873906373977661 0.046228963881731033 -0.019573837518692017
vn 0.54346549510955811 -0.075519904494285583 -0.83602750301361084
vn 0.040038939565420151 -0.0012052601668983698 0.99919736385345459
vn 0.018318666145205498 -0.068174891173839569 -0.99750518798828125
vn 0.95812690258026123 -0.27262625098228455 0.087565489113330841
vn -0.8482367992401123 -0.15898990631103516 -0.50518965721130371
vn 0.98067003488540649 -0.15021191537380219 0.12539000809192657
vn -0.12617166340351105 0.00055238872300833464 0.9920082688331604
vn -0.99794411659240723 0.062308371067047119 0.015006220899522305
vn -0.51629471778869629 -0.30546605587005615 -0.80008143186569214
vn 0.99014550447463989 -0.13991262018680573 0.0060328817926347256
vn 0.29493346810340881 -0.012101389467716217 -0.9554411768913269
vn -0.5853002667427063 0.029318084940314293 0.81028640270233154
vn 0.95221346616744995 -0.14566375315189362 -0.26846152544021606
vn -0.88832592964172363 0.032968588173389435 0.45802846550941467
vn -0.98785614967346191 0.076632149517536163 0.13515833020210266
vn -0.8152012825012207 0.034273602068424225 0.5781627893447876
vn 0.23981426656246185 -0.019808704033493996 0.97061669826507568
vn -0.97338676452636719 0.066993296146392822 0.21915777027606964
vn -0.96099376678466797 0.016478795558214188 -0.27607870101928711
vn -0.74440276622772217 -0.12252951413393021 -0.65639245510101318
vn 0.038371220231056213 0.00089770788326859474 0.99926316738128662
vn -0.96790403127670288 0.053115665912628174 -0.24564309418201447
vn 0.91070353984832764 -0.11272621154785156 -0.39738121628761292
vn -0.9099230170249939 -0.0028046222869306803 -0.41476762294769287
vn -0.47465464472770691 -0.16725632548332214 -0.86413443088531494
vn 0.97769564390182495 -0.12929065525531769 -0.16551466286182404
vn -0.095484688878059387 -0.14115363359451294 -0.98537218570709229
vn -0.31571832299232483 -0.020956842228770256 -0.94862151145935059
vn -0.84663623571395874 0.075437083840370178 -0.52679818868637085
vn -0.089000120759010315 -0.041910074651241302 -0.99514949321746826
vn 0.96628379821777344 -0.076597824692726135 -0.24582193791866302
vn -0.83634459972381592 0.065131321549415588 0.54432123899459839
vn -0.76227200031280518 0.052384361624717712 0.64513355493545532
vn 0.98911672830581665 -0.07623271644115448 -0.12584392726421356
vn 0.0507199726998806 0.0044593401253223419 0.99870294332504272
vn -0.71898621320724487 0.048233885318040848 0.69334864616394043
vn 0.45732763409614563 -0.016470927745103836 0.88914573192596436
vn -0.65388727188110352 0.15666362643241882 -0.74019449949264526
vn 0.96928924322128296 -0.049182634800672531 -0.2409551739692688
vn 0.97907572984695435 -0.056265674531459808 -0.19556307792663574
vn -0.42396765947341919 0.030958676710724831 0.90514802932739258
vn 0.98419058322906494 -0.11248248815536499 0.13680864870548248
vn 0.81133204698562622 -0.0056348810903728008 -0.58455848693847656
vn 0.98619204759597778 -0.087430834770202637 0.14064513146877289
vn 0.97568106651306152 -0.10419010370969772 0.19284947216510773
vn 0.3600824773311615 0.044949565082788467 -0.93183696269989014
vn -0.81626015901565552 0.15476930141448975 -0.55656605958938599
vn -0.95733410120010376 0.11500977724790573 0.26511168479919434
vn -0.13105392456054688 0.038741312921047211 0.99061799049377441
vn -0.99767696857452393 0.067977204918861389 -0.0044523454271256924
vn -0.96422278881072998 0.14599414169788361 -0.22126927971839905
vn -0.99755311012268066 0.069892607629299164 -0.0016808476066216826
vn -0.99217253923416138 0.08440004289150238 0.092034272849559784
vn -0.99524211883544922 0.089150182902812958 0.039311490952968597
vn -0.79533469676971436 0.18705512583255768 -0.57658743858337402
vn -0.92253857851028442 0.20359088480472565 0.3278312087059021
vn -0.22033233940601349 0.065680533647537231 0.97321105003356934
vn -0.55027604103088379 0.12208070605993271 0.82601004838943481
vn -0.86224043369293213 0.1929914653301239 0.46829017996788025
vn -0.95549744367599487 0.21607229113578796 0.20084170997142792
vn 0.84918880462646484 0.13833451271057129 -0.50964885950088501
vn 0.98208588361740112 -0.075632579624652863 0.17258904874324799
vn 0.46089652180671692 0.022531474009156227 0.88716781139373779
vn -0.72992628812789917 0.27809366583824158 0.6243969202041626
vn 0.96742266416549683 -0.059600446373224258 0.24605120718479156
vn 0.86597180366516113 -0.028158064931631088 0.49929949641227722
vn 0.98391121625900269 -0.037922251969575882 -0.17458687722682953
vn 0.98211801052093506 -0.044596042484045029 0.18290829658508301
vn -0.19891594350337982 0.10567303001880646 0.97430264949798584
vn 0.64669424295425415 0.04016045480966568 0.76169133186340332
vn -0.54126077890396118 0.30309435725212097 0.78432810306549072
vn -0.90717065334320068 0.27740898728370667 0.31636309623718262
vn -0.26345095038414001 0.22282063961029053 0.93858647346496582
vn 0.99426466226577759 -0.1013495996594429 -0.034146647900342941
vn -0.99018716812133789 0.13744379580020905 0.025269705802202225
vn 0.94698864221572876 -0.01159757561981678 0.32105767726898193
vn -0.9209139347076416 0.27321842312812805 -0.27797338366508484
vn 0.96656608581542969 -0.013299512676894665 0.25607258081436157
vn 0.99714422225952148 -0.073067337274551392 0.019092286005616188
vn -0.88594514131546021 0.30258029699325562 0.35149163007736206
vn 0.062585316598415375 0.014463051222264767 0.99793481826782227
vn 0.84598982334136963 0.063988663256168365 0.52934551239013672
vn 0.97434252500534058 0.032181307673454285 0.22275781631469727
vn 0.99771130084991455 -0.063937842845916748 -0.022001262754201889
vn 0.94406783580780029 0.076478518545627594 -0.32075989246368408
vn 0.9976421594619751 -0.039755396544933319 -0.055942762643098831
vn 0.84365993738174438 0.2233995646238327 0.48819103837013245
vn -0.8908686637878418 0.33311671018600464 0.30884662270545959
vn 0.99959081411361694 -0.027043635025620461 0.009317643940448761
vn 0.93683856725692749 0.15157622098922729 0.31521126627922058
vn -0.99432617425918579 0.10258744657039642 -0.028128700330853462
vn -0.78624260425567627 0.42931634187698364 0.44442108273506165
vn 0.8560943603515625 0.1732553243637085 -0.4869137704372406
vn -0.98915946483612061 0.13466723263263702 -0.058551106601953506
vn 0.99929708242416382 0.03672327846288681 0.0075290454551577568
vn 0.96541547775268555 0.12135564535856247 0.23075047135353088
vn 0.9491041898727417 0.17859455943107605 -0.25943243503570557
vn 0.34629529714584351 0.23033963143825531 0.90940815210342407
vn 0.70456039905548096 0.33820590376853943 0.62386810779571533
vn -0.90800231695175171 0.40238538384437561 0.11669524013996124
vn -0.99667483568191528 0.081072792410850525 -0.0081544788554310799
vn -0.63200259208679199 0.4669819176197052 0.61846637725830078
vn -0.84397083520889282 0.46600937843322754 0.26560956239700317
vn -0.77195155620574951 0.54414492845535278 0.32862922549247742
vn -0.9254496693611145 0.30293425917625427 -0.2275385707616806
vn -0.75045955181121826 0.56608623266220093 0.34111121296882629
vn 0.88813257217407227 0.3461967408657074 0.30227202177047729
vn 0.91249167919158936 0.31472223997116089 0.26135966181755066
vn 0.81705856323242188 0.42527204751968384 0.38930577039718628
vn 0.99845540523529053 -0.045574851334095001 -0.031777169555425644
vn -0.99004495143890381 0.13161174952983856 -0.049893151968717575
vn 0.85757994651794434 0.41733711957931519 0.30064323544502258
vn 0.73842352628707886 0.50078868865966797 0.45159873366355896
vn 0.9963870644569397 0.077020339667797089 -0.035787239670753479
vn 0.75016313791275024 0.53678160905838013 0.38616156578063965
vn 0.98969978094100952 0.1176036149263382 -0.08163134753704071
vn -0.96097171306610107 0.24942974746227264 -0.11965840309858322
vn 0.077975600957870483 0.1149938702583313 -0.99030107259750366
vn 0.16035950183868408 0.075067989528179169 -0.98420000076293945
vn -0.95530796051025391 0.28800371289253235 -0.066637665033340454
vn -0.97633922100067139 0.21283119916915894 -0.038269832730293274
vn 0.50009006261825562 0.11857450753450394 -0.85781699419021606
vn 0.66585230827331543 0.55111312866210938 0.50290656089782715
vn 0.10538738965988159 0.21912455558776855 0.96998864412307739
vn 0.69240885972976685 0.58724093437194824 0.41918736696243286
vn -0.52459537982940674 0.39826568961143494 0.75245207548141479
vn 0.28272762894630432 0.5549933910369873 0.78233456611633301
vn -0.63868838548660278 0.67694640159606934 0.36581513285636902
vn -0.72835546731948853 0.61563152074813843 0.30082589387893677
vn 0.99172919988632202 0.067290812730789185 0.10929360240697861
vn 0.44664099812507629 0.73587554693222046 0.50891947746276855
vn 0.33858573436737061 0.22765490412712097 -0.91298025846481323
vn -0.63995236158370972 0.74732184410095215 0.1788046807050705
vn 0.89065665006637573 0.42954251170158386 -0.14907708764076233
vn 0.87882733345031738 0.40466475486755371 0.25280219316482544
vn 0.89320385456085205 0.38737368583679199 0.22831679880619049
vn -0.21604055166244507 0.28226378560066223 0.93469440937042236
vn -0.54701179265975952 0.78651225566864014 0.28666463494300842
vn -0.43076598644256592 0.57603520154953003 0.69471156597137451
vn 0.029050357639789581 0.055045444518327713 -0.99806118011474609
vn 0.87022912502288818 0.42132109403610229 0.25532296299934387
vn 0.89730995893478394 0.44042414426803589 -0.029350178316235542
vn 0.73119896650314331 0.35960909724235535 -0.57968044281005859
vn 0.85579454898834229 0.50093293190002441 0.12915825843811035
vn -0.42262661457061768 0.13552157580852509 -0.89611417055130005
vn -0.52161377668380737 0.78321850299835205 0.33836051821708679
vn 0.12753739953041077 0.29586964845657349 -0.94667595624923706
vn -0.38416892290115356 0.83905452489852905 0.38522946834564209
vn -0.45283243060112 0.84809249639511108 0.27510339021682739
vn 0.82745468616485596 0.48185676336288452 0.28832751512527466
vn 0.72460192441940308 0.687458336353302 -0.048508446663618088
vn -0.93584799766540527 0.34633651375770569 0.065111622214317322
vn -0.045131448656320572 -0.0075531238690018654 -0.99895250797271729
vn -0.91391593217849731 0.39676597714424133 -0.085641436278820038
vn -0.95433753728866577 0.29869884252548218 0.0043470961973071098
vn -0.76630949974060059 0.23219957947731018 -0.59904348850250244
vn -0.92240947484970093 0.38534128665924072 -0.025940271094441414
vn 0.64082974195480347 0.76668524742126465 -0.039126981049776077
vn 0.4329954981803894 0.63506931066513062 -0.63968884944915771
vn -0.89793312549591064 0.43862006068229675 -0.036448370665311813
vn 0.072253324091434479 0.19936980307102203 -0.97725695371627808
vn 0.46144875884056091 0.80351072549819946 0.376079261302948
vn 0.76214224100112915 0.62874072790145874 0.15435120463371277
vn 0.68902891874313354 0.6575857400894165 0.30466404557228088
vn 0.38737142086029053 0.83493149280548096 0.39093831181526184
vn -0.82971245050430298 0.55337685346603394 -0.073153115808963776
vn 0.096867822110652924 0.36834937334060669 0.92462712526321411
vn -0.28474202752113342 0.08938714861869812 -0.95442754030227661
vn 0.22219359874725342 0.65041553974151611 -0.72635364532470703
vn 0.47522038221359253 0.8103143572807312 -0.3428647518157959
vn -0.79812705516815186 0.59885895252227783 0.066038995981216431
vn 0.57559269666671753 0.78216999769210815 -0.23854371905326843
vn -0.14426958560943604 0.02134506031870842 -0.98930817842483521
vn 0.087248533964157104 0.4576566219329834 0.88483786582946777
vn 0.40908125042915344 0.83392351865768433 0.37043774127960205
vn 0.42088302969932556 0.86674809455871582 -0.26759147644042969
vn 0.67955601215362549 0.71508097648620605 0.16389881074428558
vn -0.87723803520202637 0.28645774722099304 -0.38522124290466309
vn -0.13914716243743896 0.23755691945552826 0.96135568618774414
vn 0.47581478953361511 0.79654675722122192 0.37297928333282471
vn 0.0543476901948452 0.43158251047134399 0.90043485164642334
vn 0.23927198350429535 0.90052080154418945 -0.36305814981460571
vn 0.69166558980941772 0.71700805425643921 -0.086591951549053192
vn -0.26460951566696167 0.073087319731712341 -0.96158206462860107
vn 0.13251963257789612 0.63343071937561035 -0.76236742734909058
vn 0.25091534852981567 0.64749586582183838 0.71957665681838989
vn 0.39138007164001465 0.89933085441589355 -0.19500160217285156
vn 0.49414244294166565 0.83091747760772705 0.25573313236236572
vn 0.35552117228507996 0.85274040699005127 0.38267290592193604
vn -0.53905588388442993 0.36375975608825684 -0.75966936349868774
vn 0.65378355979919434 0.75615620613098145 0.028192613273859024
vn 0.12123413383960724 0.60323923826217651 0.7882922887802124
vn 0.057930566370487213 0.34278473258018494 -0.93762606382369995
vn 0.095650315284729004 0.55146318674087524 -0.82869738340377808
vn 0.29006847739219666 0.93016529083251953 -0.22506184875965118
vn 0.34650036692619324 0.92166006565093994 -0.17458599805831909
vn 0.14100897312164307 0.95574718713760376 -0.25819340348243713
vn -0.25931927561759949 0.53659123182296753 0.80300891399383545
vn 0.35691756010055542 0.88035863637924194 0.31237557530403137
vn 0.35040098428726196 0.91655850410461426 0.19271652400493622
vn 0.55763858556747437 0.82127475738525391 0.12061081081628799
vn -0.053779903799295425 0.17287428677082062 0.98347455263137817
vn 0.054183002561330795 0.65776222944259644 0.75127428770065308
vn 0.5055239200592041 0.85152560472488403 0.13910345733165741
vn -0.65438860654830933 0.59485405683517456 -0.46682348847389221
vn 0.14008013904094696 0.93442559242248535 -0.3274543285369873
vn 0.11418688297271729 0.88443166017532349 -0.45248422026634216
vn -0.009723530150949955 0.20084452629089355 0.97957485914230347
vn 0.46325573325157166 0.8857160210609436 0.030020583420991898
vn -0.74179518222808838 0.63766348361968994 -0.20766590535640717
vn -0.83249068260192871 0.55403250455856323 -0.0026877820491790771
vn 0.066055096685886383 0.77989476919174194 -0.62241530418395996
vn 0.43446046113967896 0.89462637901306152 -0.10434442013502121
vn -0.70393401384353638 0.70671939849853516 0.070883989334106445
vn 0.079737007617950439 0.93139266967773438 -0.35517564415931702
vn -0.12169567495584488 0.42223718762397766 0.89827942848205566
vn 0.36141172051429749 0.92974585294723511 0.070385865867137909
vn -0.011554373428225517 0.28431582450866699 -0.95866107940673828
vn -0.3343958854675293 0.30859926342964172 -0.89047509431838989
vn -0.35655638575553894 0.87472498416900635 -0.32821288704872131
vn -0.78848999738693237 0.61436456441879272 -0.028977448120713234
vn 0.1132570281624794 0.94559872150421143 -0.30498501658439636
vn 0.14898772537708282 0.97371393442153931 -0.17228998243808746
vn -0.0043770461343228817 0.64879000186920166 0.76095491647720337
vn -0.737293541431427 0.67183321714401245 -0.070981606841087341
vn -0.22043348848819733 0.78067177534103394 0.58477401733398438
vn -0.14605733752250671 0.47815576195716858 -0.86604523658752441
vn 0.045522343367338181 0.75501418113708496 0.65412640571594238
vn -0.2327427864074707 0.94221830368041992 0.24094696342945099
vn 0.20900747179985046 0.97680717706680298 -0.046514376997947693
vn 0.11844940483570099 0.97729307413101196 -0.1756928563117981
vn 0.15663990378379822 0.9834827184677124 -0.090695835649967194
vn 0.10801585018634796 0.96730422973632813 -0.22946701943874359
vn 0.36066022515296936 0.93254768848419189 -0.016703326255083084
vn -0.67220687866210938 0.73557376861572266 0.084078006446361542
vn 0.26532253623008728 0.96415656805038452 0.0024659577757120132
vn -0.030544018372893333 0.88089841604232788 0.47231873869895935
vn 0.049687854945659637 0.83751142024993896 -0.54415595531463623
vn 0.11356174200773239 0.98650830984115601 -0.11791959404945374
vn 0.09443645179271698 0.9792669415473938 -0.17921483516693115
vn 0.098182536661624908 0.99375689029693604 -0.052985001355409622
vn 0.2339860200881958 0.97196066379547119 -0.023301620036363602
vn 0.096089720726013184 0.99446505308151245 -0.042497932910919189
vn 0.21243193745613098 0.97714424133300781 -0.0078605040907859802
vn 0.10070836544036865 0.99433672428131104 -0.033946100622415543
vn 0.065697759389877319 0.92146164178848267 -0.38287368416786194
vn 0.072989292442798615 0.98234164714813232 -0.17227153480052948
vn -0.28081771731376648 0.83507019281387329 -0.47307416796684265
vn 0.13498793542385101 0.99055969715118408 -0.02386823482811451
vn 0.017785549163818359 0.90777671337127686 -0.41907656192779541
vn -0.70090532302856445 0.71217441558837891 0.039234597235918045
vn 0.10453751683235168 0.98302763700485229 -0.15075989067554474
vn 0.079478152096271515 0.98577624559402466 -0.14808247983455658
vn -0.053366325795650482 0.93992239236831665 -0.33719125390052795
vn 0.087315171957015991 0.99544864892959595 -0.038185041397809982
vn 0.096877284348011017 0.99499315023422241 -0.024564964696764946
vn -0.32300910353660583 0.9378122091293335 0.12717483937740326
vn 0.082508735358715057 0.99498295783996582 -0.056579679250717163
vn 0.072224244475364685 0.99242836236953735 -0.099345684051513672
vn -0.6708253026008606 0.74110287427902222 -0.027566751465201378
vn -0.20178946852684021 0.97560697793960571 0.0864410400390625
vn -0.50475966930389404 0.85303729772567749 -0.1324576735496521
vn -0.60477256774902344 0.79266011714935303 -0.077072322368621826
vn 0.041266929358243942 0.97792047262191772 -0.20486238598823547
vn -0.014546231366693974 0.98103141784667969 -0.19330228865146637
vn -0.55942142009735107 0.82586842775344849 0.070632807910442352
vn 0.056987330317497253 0.99239802360534668 -0.1090804785490036
vn -0.32142385840415955 0.9185677170753479 -0.23004366457462311
vn -0.5170137882232666 0.84990775585174561 -0.10175244510173798
vn -0.15897023677825928 0.98127996921539307 0.10871080309152603
vn -0.45950710773468018 0.88245761394500732 -0.1006070151925087
vn -0.34887322783470154 0.92718130350112915 -0.136463463306427
vn -0.17735663056373596 0.9713282585144043 -0.15832242369651794
vn 0.056664884090423584 0.9940829873085022 -0.092672154307365417
vn -0.029609376564621925 0.99099910259246826 -0.13055308163166046
vn 0.055163007229566574 0.99411565065383911 -0.093225844204425812
vn -0.46825745701789856 0.88338905572891235 0.018940990790724754
vn -0.34203538298606873 0.93832015991210938 -0.050666026771068573
vn -0.12170825153589249 0.99092233180999756 -0.057096265256404877
vn -0.035261217504739761 0.99710625410079956 -0.067348062992095947
vn -0.19773334264755249 0.97896802425384521 0.05023111030459404
vn 0.035142078995704651 0.99588829278945923 -0.083495929837226868
vn -0.095697648823261261 0.97135305404663086 0.21752059459686279
vn -0.15710355341434479 0.98742979764938354 -0.017345646396279335
vn 0.10659879446029663 0.87645971775054932 0.46952638030052185
vn -0.11110129952430725 0.99256235361099243 0.049764454364776611
vn 0.076137065887451172 0.99675649404525757 -0.026069816201925278
vn 0.1834937185049057 0.98292165994644165 0.013966159895062447
vn -0.096521660685539246 0.99532902240753174 0.001940225251019001
vn 0.010999593883752823 0.9991951584815979 -0.038575883954763412
vn 0.11028650403022766 0.99386006593704224 -0.0088930083438754082
vn 0.20635645091533661 0.95444071292877197 0.21554568409919739
vn -0.059607744216918945 0.99809974431991577 0.015615255571901798
vn -0.10660183429718018 0.9891427755355835 0.10115661472082138
vn -0.063184835016727448 0.97788500785827637 0.19937039911746979
vn 0.034340396523475647 0.99926626682281494 -0.016962228342890739
vn 0.00056787970243021846 0.99995481967926025 -0.0094865085557103157
vn -0.090712480247020721 0.99432379007339478 0.055600453168153763
vn -0.0024976315908133984 0.99909806251525879 0.042388826608657837
f 121//121 141//141 169//169
f 102//102 75//75 121//121
f 102//102 121//121 129//129
f 126//126 129//129 121//121
f 126//126 121//121 169//169
f 126//126 169//169 129//129
f 138//138 141//141 121//121
f 298//298 273//273 268//268
f 149//149 129//129 192//192
f 419//419 317//317 450//450
f 419//419 355//355 317//317
f 441//441 461//461 450//450
f 441//441 450//450 317//317
f 65//65 75//75 45//45
f 194//194 188//188 47//47
f 413//413 467//467 454//454
f 413//413 454//454 441//441
f 478//478 454//454 467//467
f 478//478 470//470 454//454
f 418//418 375//375 397//397
f 367//367 318//318 356//356
f 367//367 356//356 397//397
f 367//367 335//335 318//318
f 414//414 418//418 397//397
f 414//414 397//397 416//416
f 300//300 318//318 298//298
f 300//300 298//298 270//270
f 251//251 269//269 270//270
f 294//294 270//270 298//298
f 294//294 298//298 268//268
f 294//294 268//268 270//270
f 326//326 298//298 318//318
f 326//326 318//318 335//335
f 326//326 335//335 375//375
f 279//279 273//273 298//298
f 152//152 129//129 149//149
f 284//284 317//317 355//355
f 321//321 363//363 323//323
f 382//382 410//410 323//323
f 382//382 323//323 363//363
f 333//333 413//413 441//441
f 333//333 441//441 317//317
f 136//136 47//47 188//188
f 136//136 188//188 134//134
f 1//1 45//45 40//40
f 69//69 53//53 75//75
f 60//60 53//53 69//69
f 60//60 69//69 70//70
f 51//51 75//75 53//53
f 51//51 53//53 45//45
f 51//51 45//45 75//75
f 22//22 47//47 46//46
f 22//22 46//46 11//11
f 22//22 11//11 47//47
f 226//226 229//229 163//163
f 258//258 268//268 194//194
f 258//258 194//194 270//270
f 258//258 270//270 268//268
f 263//263 194//194 268//268
f 263//263 268//268 273//273
f 342//342 397//397 375//375
f 342//342 375//375 335//335
f 342//342 335//335 367//367
f 342//342 367//367 397//397
f 392//392 363//363 253//253
f 104//104 134//134 188//188
f 250//250 221//221 163//163
f 445//445 441//441 454//454
f 465//465 461//461 441//441
f 465//465 441//441 445//445
f 465//465 445//445 454//454
f 465//465 454//454 470//470
f 481//481 474//474 477//477
f 481//481 477//477 483//483
f 459//459 457//457 463//463
f 482//482 477//477 470//470
f 482//482 470//470 478//478
f 482//482 478//478 483//483
f 482//482 483//483 477//477
f 105//105 102//102 129//129
f 84//84 105//105 98//98
f 175//175 141//141 179//179
f 217//217 200//200 179//179
f 182//182 192//192 129//129
f 182//182 129//129 169//169
f 76//76 72//72 83//83
f 420//420 401//401 418//418
f 420//420 418//418 428//428
f 420//420 428//428 472//472
f 420//420 472//472 401//401
f 426//426 418//418 414//414
f 426//426 414//414 433//433
f 426//426 433//433 428//428
f 426//426 428//428 418//418
f 281//281 318//318 300//300
f 281//281 300//300 270//270
f 281//281 270//270 269//269
f 227//227 230//230 306//306
f 227//227 269//269 251//251
f 184//184 161//161 129//129
f 184//184 129//129 152//152
f 184//184 152//152 149//149
f 184//184 149//149 192//192
f 184//184 192//192 234//234
f 184//184 234//234 235//235
f 236//236 192//192 259//259
f 236//236 259//259 234//234
f 236//236 234//234 192//192
f 238//238 259//259 192//192
f 285//285 235//235 234//234
f 285//285 234//234 259//259
f 285//285 259//259 339//339
f 336//336 339//339 259//259
f 336//336 259//259 284//284
f 336//336 284//284 355//355
f 336//336 355//355 339//339
f 456//456 463//463 457//457
f 389//389 374//374 340//340
f 389//389 340//340 235//235
f 447//447 394//394 409//409
f 278//278 235//235 295//295
f 261//261 289//289 394//394
f 151//151 308//308 392//392
f 151//151 191//191 168//168
f 151//151 133//133 114//114
f 151//151 114//114 130//130
f 257//257 253//253 363//363
f 257//257 363//363 321//321
f 257//257 321//321 323//323
f 257//257 323//323 255//255
f 257//257 255//255 253//253
f 248//248 255//255 276//276
f 248//248 276//276 243//243
f 313//313 312//312 317//317
f 286//286 323//323 312//312
f 286//286 312//312 276//276
f 286//286 276//276 255//255
f 170//170 163//163 221//221
f 170//170 158//158 163//163
f 435//435 419//419 450//450
f 350//350 338//338 344//344
f 350//350 344//344 405//405
f 350//350 405//405 409//409
f 350//350 409//409 394//394
f 350//350 394//394 338//338
f 332//332 410//410 413//413
f 332//332 413//413 333//333
f 332//332 333//333 323//323
f 332//332 323//323 410//410
f 330//330 323//323 333//333
f 330//330 312//312 323//323
f 322//322 312//312 330//330
f 322//322 330//330 333//333
f 322//322 333//333 317//317
f 322//322 317//317 312//312
f 25//25 65//65 45//45
f 25//25 45//45 1//1
f 37//37 11//11 46//46
f 62//62 45//45 53//53
f 62//62 53//53 60//60
f 62//62 60//60 70//70
f 62//62 70//70 84//84
f 62//62 71//71 54//54
f 68//68 72//72 76//76
f 68//68 76//76 83//83
f 68//68 75//75 65//65
f 77//77 74//74 114//114
f 77//77 114//114 133//133
f 190//190 188//188 194//194
f 190//190 194//194 226//226
f 190//190 226//226 163//163
f 190//190 163//163 188//188
f 400//400 382//382 363//363
f 400//400 410//410 382//382
f 351//351 392//392 308//308
f 408//408 410//410 400//400
f 408//408 400//400 392//392
f 475//475 472//472 428//428
f 475//475 428//428 433//433
f 479//479 467//467 469//469
f 479//479 483//483 478//478
f 479//479 478//478 467//467
f 334//334 296//296 292//292
f 280//280 292//292 274//274
f 280//280 274//274 267//267
f 393//393 375//375 418//418
f 393//393 418//418 401//401
f 385//385 375//375 393//393
f 385//385 393//393 401//401
f 364//364 348//348 372//372
f 383//383 359//359 372//372
f 361//361 347//347 375//375
f 361//361 375//375 385//385
f 361//361 385//385 372//372
f 361//361 372//372 348//348
f 361//361 348//348 347//347
f 291//291 292//292 296//296
f 291//291 274//274 292//292
f 39//39 21//21 37//37
f 39//39 37//37 46//46
f 118//118 104//104 188//188
f 87//87 134//134 104//104
f 87//87 46//46 47//47
f 87//87 47//47 136//136
f 87//87 136//136 134//134
f 249//249 252//252 267//267
f 249//249 250//250 163//163
f 249//249 163//163 229//229
f 473//473 477//477 474//474
f 473//473 474//474 463//463
f 473//473 463//463 468//468
f 473//473 468//468 465//465
f 473//473 465//465 470//470
f 473//473 470//470 477//477
f 480//480 474//474 481//481
f 480//480 481//481 483//483
f 480//480 483//483 474//474
f 451//451 448//448 459//459
f 451//451 443//443 437//437
f 451//451 437//437 448//448
f 466//466 474//474 443//443
f 48//48 89//89 27//27
f 96//96 69//69 75//75
f 96//96 75//75 102//102
f 96//96 102//102 105//105
f 96//96 70//70 69//69
f 93//93 71//71 62//62
f 93//93 62//62 84//84
f 93//93 84//84 98//98
f 91//91 84//84 70//70
f 91//91 70//70 96//96
f 91//91 96//96 105//105
f 144//144 129//129 161//161
f 148//148 141//141 146//146
f 148//148 146//146 179//179
f 148//148 179//179 141//141
f 176//176 179//179 146//146
f 176//176 146//146 168//168
f 176//176 168//168 179//179
f 122//122 141//141 138//138
f 122//122 138//138 121//121
f 122//122 121//121 75//75
f 122//122 75//75 83//83
f 181//181 168//168 191//191
f 181//181 179//179 168//168
f 225//225 191//191 151//151
f 225//225 181//181 191//191
f 198//198 243//243 232//232
f 198//198 175//175 179//179
f 198//198 179//179 200//200
f 174//174 141//141 175//175
f 174//174 175//175 198//198
f 174//174 182//182 169//169
f 430//430 434//434 448//448
f 430//430 448//448 417//417
f 432//432 457//457 459//459
f 432//432 403//403 374//374
f 432//432 374//374 389//389
f 432//432 389//389 404//404
f 245//245 269//269 227//227
f 223//223 227//227 251//251
f 223//223 251//251 224//224
f 327//327 356//356 318//318
f 327//327 318//318 281//281
f 327//327 245//245 227//227
f 327//327 227//227 306//306
f 328//328 326//326 375//375
f 328//328 375//375 347//347
f 328//328 347//347 348//348
f 328//328 348//348 334//334
f 328//328 334//334 320//320
f 314//314 326//326 328//328
f 314//314 328//328 320//320
f 314//314 320//320 292//292
f 314//314 292//292 280//280
f 314//314 280//280 267//267
f 314//314 267//267 252//252
f 314//314 226//226 194//194
f 314//314 194//194 263//263
f 314//314 263//263 273//273
f 314//314 273//273 279//279
f 314//314 279//279 298//298
f 314//314 298//298 326//326
f 237//237 238//238 192//192
f 237//237 192//192 182//182
f 275//275 235//235 285//285
f 275//275 295//295 235//235
f 305//305 339//339 341//341
f 305//305 341//341 344//344
f 305//305 344//344 338//338
f 305//305 338//338 304//304
f 305//305 295//295 275//275
f 305//305 275//275 285//285
f 305//305 285//285 339//339
f 329//329 374//374 403//403
f 239//239 235//235 340//340
f 222//222 239//239 340//340
f 222//222 340//340 374//374
f 222//222 374//374 329//329
f 222//222 329//329 212//212
f 446//446 455//455 456//456
f 446//446 456//456 394//394
f 453//453 455//455 446//446
f 453//453 446//446 394//394
f 453//453 394//394 447//447
f 362//362 389//389 235//235
f 362//362 235//235 261//261
f 362//362 261//261 394//394
f 362//362 394//394 389//389
f 310//310 323//323 286//286
f 310//310 286//286 255//255
f 310//310 255//255 323//323
f 254//254 247//247 221//221
f 254//254 221//221 250//250
f 282//282 221//221 247//247
f 282//282 247//247 254//254
f 165//165 170//170 173//173
f 165//165 158//158 170//170
f 201//201 165//165 173//173
f 201//201 173//173 170//170
f 201//201 170//170 221//221
f 398//398 419//419 435//435
f 398//398 435//435 355//355
f 398//398 355//355 419//419
f 395//395 355//355 435//435
f 395//395 435//435 405//405
f 395//395 405//405 344//344
f 395//395 344//344 341//341
f 395//395 341//341 339//339
f 395//395 339//339 355//355
f 444//444 461//461 447//447
f 444//444 447//447 409//409
f 444//444 409//409 405//405
f 444//444 405//405 435//435
f 444//444 435//435 450//450
f 444//444 450//450 461//461
f 24//24 11//11 38//38
f 24//24 47//47 11//11
f 103//103 111//111 128//128
f 103//103 119//119 38//38
f 14//14 103//103 38//38
f 14//14 38//38 11//11
f 18//18 32//32 26//26
f 49//49 68//68 65//65
f 49//49 65//65 25//25
f 16//16 17//17 18//18
f 16//16 18//18 25//25
f 16//16 25//25 1//1
f 10//10 11//11 37//37
f 10//10 37//37 8//8
f 10//10 8//8 11//11
f 56//56 45//45 62//62
f 56//56 62//62 54//54
f 56//56 54//54 45//45
f 73//73 75//75 68//68
f 73//73 68//68 83//83
f 73//73 83//83 75//75
f 113//113 114//114 74//74
f 59//59 74//74 26//26
f 50//50 74//74 77//77
f 50//50 77//77 133//133
f 50//50 133//133 63//63
f 50//50 26//26 74//74
f 210//210 119//119 197//197
f 210//210 197//197 207//207
f 210//210 207//207 227//227
f 210//210 270//270 194//194
f 293//293 296//296 334//334
f 293//293 274//274 291//291
f 293//293 291//291 296//296
f 260//260 250//250 249//249
f 311//311 308//308 282//282
f 386//386 392//392 400//400
f 386//386 400//400 363//363
f 386//386 363//363 392//392
f 365//365 392//392 351//351
f 421//421 412//412 469//469
f 421//421 469//469 467//467
f 421//421 467//467 413//413
f 421//421 413//413 410//410
f 421//421 410//410 408//408
f 421//421 408//408 412//412
f 387//387 376//376 469//469
f 387//387 469//469 412//412
f 387//387 412//412 408//408
f 387//387 408//408 392//392
f 387//387 392//392 365//365
f 387//387 365//365 376//376
f 471//471 474//474 483//483
f 471//471 483//483 475//475
f 373//373 359//359 383//383
f 476//476 472//472 475//475
f 476//476 475//475 483//483
f 476//476 483//483 479//479
f 476//476 479//479 469//469
f 476//476 373//373 383//383
f 476//476 401//401 472//472
f 319//319 292//292 320//320
f 388//388 372//372 385//385
f 388//388 385//385 401//401
f 388//388 401//401 372//372
f 80//80 104//104 101//101
f 80//80 101//101 39//39
f 80//80 39//39 46//46
f 80//80 46//46 87//87
f 80//80 87//87 104//104
f 116//116 104//104 118//118
f 228//228 226//226 314//314
f 228//228 229//229 226//226
f 246//246 252//252 249//249
f 246//246 249//249 229//229
f 246//246 229//229 228//228
f 246//246 228//228 314//314
f 246//246 314//314 252//252
f 262//262 274//274 260//260
f 262//262 260//260 249//249
f 262//262 249//249 267//267
f 262//262 267//267 274//274
f 431//431 448//448 437//437
f 436//436 437//437 443//443
f 464//464 474//474 466//466
f 464//464 466//466 459//459
f 464//464 459//459 463//463
f 464//464 463//463 474//474
f 458//458 466//466 443//443
f 458//458 443//443 451//451
f 109//109 128//128 111//111
f 12//12 48//48 27//27
f 189//189 193//193 177//177
f 171//171 189//189 177//177
f 94//94 84//84 91//91
f 94//94 91//91 105//105
f 94//94 105//105 84//84
f 112//112 93//93 98//98
f 112//112 98//98 105//105
f 112//112 105//105 129//129
f 112//112 129//129 144//144
f 112//112 144//144 161//161
f 92//92 122//122 83//83
f 137//137 141//141 122//122
f 137//137 146//146 141//141
f 162//162 168//168 146//146
f 220//220 217//217 179//179
f 220//220 179//179 225//225
f 242//242 255//255 248//248
f 242//242 248//248 243//243
f 242//242 243//243 217//217
f 242//242 217//217 220//220
f 242//242 220//220 225//225
f 242//242 253//253 255//255
f 196//196 181//181 225//225
f 196//196 225//225 179//179
f 196//196 179//179 181//181
f 233//233 242//242 225//225
f 233//233 225//225 151//151
f 233//233 151//151 392//392
f 233//233 392//392 253//253
f 202//202 182//182 174//174
f 202//202 174//174 198//198
f 202//202 198//198 232//232
f 216//216 243//243 198//198
f 216//216 198//198 200//200
f 216//216 200//200 217//217
f 216//216 217//217 243//243
f 167//167 141//141 174//174
f 167//167 174//174 169//169
f 167//167 169//169 141//141
f 240//240 232//232 243//243
f 316//316 306//306 230//230
f 316//316 343//343 327//327
f 316//316 327//327 306//306
f 324//324 302//302 187//187
f 438//438 448//448 434//434
f 438//438 432//432 459//459
f 452//452 456//456 457//457
f 452//452 457//457 432//432
f 452//452 432//432 404//404
f 452//452 404//404 389//389
f 452//452 389//389 394//394
f 452//452 394//394 456//456
f 371//371 380//380 397//397
f 371//371 397//397 356//356
f 277//277 269//269 245//245
f 277//277 245//245 327//327
f 277//277 327//327 281//281
f 277//277 281//281 269//269
f 354//354 356//356 327//327
f 354//354 327//327 343//343
f 354//354 343//343 366//366
f 166//166 207//207 197//197
f 166//166 197//197 119//119
f 166//166 178//178 185//185
f 166//166 185//185 227//227
f 166//166 227//227 207//207
f 195//195 230//230 227//227
f 195//195 227//227 185//185
f 195//195 185//185 178//178
f 195//195 178//178 187//187
f 213//213 239//239 222//222
f 213//213 222//222 212//212
f 244//244 232//232 240//240
f 244//244 240//240 243//243
f 244//244 284//284 259//259
f 244//244 259//259 238//238
f 244//244 238//238 237//237
f 244//244 237//237 232//232
f 301//301 289//289 261//261
f 301//301 261//261 235//235
f 301//301 235//235 278//278
f 301//301 278//278 295//295
f 301//301 295//295 305//305
f 301//301 305//305 304//304
f 301//301 304//304 338//338
f 301//301 338//338 394//394
f 301//301 394//394 289//289
f 290//290 313//313 288//288
f 290//290 288//288 276//276
f 290//290 276//276 312//312
f 290//290 312//312 313//313
f 411//411 403//403 432//432
f 411//411 432//432 438//438
f 411//411 438//438 434//434
f 411//411 357//357 212//212
f 214//214 212//212 357//357
f 352//352 212//212 329//329
f 352//352 329//329 403//403
f 352//352 403//403 411//411
f 462//462 461//461 465//465
f 462//462 465//465 468//468
f 462//462 468//468 463//463
f 462//462 463//463 456//456
f 462//462 456//456 455//455
f 462//462 455//455 453//453
f 462//462 453//453 447//447
f 462//462 447//447 461//461
f 265//265 221//221 282//282
f 265//265 282//282 308//308
f 145//145 151//151 130//130
f 145//145 130//130 127//127
f 157//157 165//165 201//201
f 157//157 201//201 186//186
f 157//157 186//186 151//151
f 157//157 151//151 145//145
f 157//157 145//145 158//158
f 157//157 158//158 165//165
f 43//43 47//47 24//24
f 6//6 1//1 40//40
f 23//23 25//25 18//18
f 23//23 18//18 26//26
f 23//23 26//26 25//25
f 66//66 49//49 25//25
f 66//66 25//25 57//57
f 66//66 72//72 68//68
f 66//66 68//68 49//49
f 82//82 63//63 133//133
f 82//82 133//133 143//143
f 82//82 143//143 125//125
f 82//82 125//125 122//122
f 82//82 122//122 92//92
f 82//82 92//92 72//72
f 82//82 72//72 66//66
f 82//82 66//66 57//57
f 82//82 57//57 63//63
f 2//2 16//16 1//1
f 123//123 130//130 114//114
f 123//123 114//114 113//113
f 123//123 127//127 130//130
f 115//115 127//127 123//123
f 115//115 123//123 113//113
f 115//115 113//113 74//74
f 78//78 74//74 59//59
f 20//20 32//32 18//18
f 20//20 18//18 17//17
f 31//31 26//26 50//50
f 31//31 63//63 57//57
f 31//31 57//57 25//25
f 31//31 25//25 26//26
f 88//88 194//194 47//47
f 88//88 47//47 43//43
f 88//88 43//43 24//24
f 88//88 24//24 38//38
f 88//88 108//108 194//194
f 218//218 224//224 251//251
f 218//218 251//251 270//270
f 218//218 270//270 210//210
f 135//135 194//194 108//108
f 135//135 108//108 210//210
f 135//135 210//210 194//194
f 110//110 119//119 210//210
f 110//110 210//210 108//108
f 110//110 108//108 88//88
f 110//110 88//88 38//38
f 110//110 38//38 119//119
f 215//215 223//223 224//224
f 215//215 224//224 218//218
f 215//215 218//218 210//210
f 215//215 210//210 227//227
f 215//215 227//227 223//223
f 299//299 293//293 334//334
f 299//299 334//334 348//348
f 271//271 274//274 293//293
f 358//358 376//376 365//365
f 358//358 365//365 351//351
f 358//358 351//351 376//376
f 442//442 474//474 471//471
f 442//442 443//443 474//474
f 370//370 469//469 376//376
f 370//370 376//376 351//351
f 370//370 351//351 308//308
f 370//370 308//308 311//311
f 384//384 372//372 401//401
f 384//384 401//401 476//476
f 384//384 476//476 383//383
f 384//384 383//383 372//372
f 325//325 334//334 292//292
f 325//325 292//292 319//319
f 325//325 319//319 320//320
f 325//325 320//320 334//334
f 142//142 158//158 145//145
f 424//424 417//417 448//448
f 424//424 448//448 431//431
f 424//424 431//431 437//437
f 424//424 437//437 436//436
f 423//423 436//436 443//443
f 423//423 443//443 442//442
f 423//423 442//442 425//425
f 423//423 425//425 416//416
f 423//423 416//416 407//407
f 460//460 459//459 466//466
f 460//460 466//466 458//458
f 460//460 458//458 451//451
f 460//460 451//451 459//459
f 107//107 187//187 109//109
f 107//107 109//109 48//48
f 107//107 48//48 100//100
f 172//172 109//109 187//187
f 172//172 187//187 178//178
f 67//67 54//54 71//71
f 44//44 40//40 45//45
f 44//44 45//45 54//54
f 44//44 64//64 48//48
f 44//44 48//48 40//40
f 90//90 100//100 48//48
f 90//90 48//48 64//64
f 90//90 212//212 100//100
f 183//183 90//90 64//64
f 95//95 48//48 109//109
f 95//95 109//109 111//111
f 15//15 14//14 12//12
f 99//99 12//12 27//27
f 99//99 27//27 89//89
f 99//99 89//89 48//48
f 99//99 48//48 95//95
f 99//99 95//95 111//111
f 99//99 111//111 103//103
f 180//180 203//203 189//189
f 180//180 189//189 171//171
f 180//180 171//171 161//161
f 180//180 161//161 184//184
f 180//180 184//184 235//235
f 180//180 235//235 203//203
f 86//86 72//72 92//92
f 86//86 92//92 83//83
f 86//86 83//83 72//72
f 159//159 168//168 162//162
f 159//159 133//133 155//155
f 140//140 146//146 137//137
f 140//140 137//137 122//122
f 140//140 143//143 162//162
f 140//140 162//162 146//146
f 241//241 242//242 233//233
f 241//241 233//233 253//253
f 241//241 253//253 242//242
f 199//199 182//182 202//202
f 199//199 202//202 232//232
f 199//199 232//232 237//237
f 199//199 237//237 182//182
f 264//264 276//276 272//272
f 264//264 243//243 276//276
f 287//287 288//288 313//313
f 287//287 313//313 317//317
f 287//287 317//317 284//284
f 287//287 284//284 244//244
f 287//287 244//244 272//272
f 287//287 272//272 276//276
f 287//287 276//276 288//288
f 303//303 302//302 331//331
f 303//303 331//331 316//316
f 303//303 316//316 230//230
f 303//303 230//230 195//195
f 303//303 195//195 187//187
f 303//303 187//187 302//302
f 337//337 324//324 187//187
f 337//337 187//187 214//214
f 337//337 214//214 357//357
f 449//449 448//448 438//438
f 449//449 438//438 459//459
f 449//449 459//459 448//448
f 406//406 381//381 366//366
f 406//406 430//430 417//417
f 406//406 417//417 381//381
f 379//379 371//371 356//356
f 379//379 354//354 366//366
f 379//379 366//366 381//381
f 379//379 381//381 417//417
f 379//379 417//417 407//407
f 379//379 407//407 416//416
f 379//379 416//416 397//397
f 379//379 397//397 380//380
f 379//379 380//380 371//371
f 150//150 128//128 166//166
f 150//150 166//166 119//119
f 156//156 178//178 166//166
f 156//156 166//166 128//128
f 156//156 128//128 109//109
f 156//156 109//109 172//172
f 156//156 172//172 178//178
f 209//209 213//213 212//212
f 209//209 212//212 90//90
f 209//209 90//90 183//183
f 231//231 239//239 213//213
f 231//231 213//213 235//235
f 231//231 235//235 239//239
f 206//206 235//235 213//213
f 206//206 213//213 203//203
f 206//206 203//203 235//235
f 422//422 411//411 434//434
f 422//422 434//434 430//430
f 211//211 212//212 214//214
f 211//211 214//214 187//187
f 211//211 187//187 107//107
f 211//211 107//107 100//100
f 211//211 100//100 212//212
f 368//368 212//212 352//352
f 368//368 352//352 411//411
f 368//368 411//411 212//212
f 219//219 201//201 221//221
f 219//219 221//221 265//265
f 219//219 265//265 308//308
f 219//219 308//308 151//151
f 3//3 16//16 2//2
f 3//3 2//2 1//1
f 9//9 12//12 6//6
f 5//5 14//14 11//11
f 5//5 1//1 6//6
f 5//5 6//6 12//12
f 5//5 12//12 14//14
f 81//81 74//74 78//78
f 81//81 78//78 127//127
f 81//81 127//127 115//115
f 81//81 115//115 74//74
f 61//61 32//32 20//20
f 61//61 20//20 79//79
f 61//61 79//79 78//78
f 61//61 78//78 59//59
f 61//61 59//59 26//26
f 42//42 63//63 31//31
f 42//42 31//31 50//50
f 42//42 50//50 63//63
f 283//283 282//282 254//254
f 283//283 271//271 293//293
f 315//315 373//373 476//476
f 315//315 476//476 469//469
f 315//315 469//469 370//370
f 315//315 370//370 311//311
f 315//315 311//311 282//282
f 315//315 282//282 283//283
f 315//315 348//348 364//364
f 266//266 250//250 260//260
f 266//266 260//260 274//274
f 266//266 274//274 271//271
f 266//266 271//271 283//283
f 266//266 283//283 254//254
f 266//266 254//254 250//250
f 429//429 433//433 414//414
f 429//429 414//414 416//416
f 106//106 21//21 39//39
f 106//106 39//39 101//101
f 106//106 101//101 104//104
f 106//106 104//104 116//116
f 415//415 424//424 436//436
f 415//415 436//436 423//423
f 415//415 423//423 407//407
f 415//415 407//407 417//417
f 415//415 417//417 424//424
f 97//97 120//120 64//64
f 97//97 67//67 71//71
f 97//97 71//71 93//93
f 55//55 44//44 54//54
f 55//55 54//54 67//67
f 34//34 40//40 48//48
f 41//41 12//12 99//99
f 41//41 99//99 103//103
f 41//41 103//103 14//14
f 41//41 14//14 15//15
f 41//41 15//15 12//12
f 164//164 168//168 159//159
f 164//164 159//159 155//155
f 164//164 155//155 133//133
f 164//164 133//133 151//151
f 164//164 151//151 168//168
f 147//147 143//143 133//133
f 147//147 133//133 159//159
f 147//147 162//162 143//143
f 131//131 125//125 143//143
f 131//131 143//143 140//140
f 131//131 140//140 122//122
f 131//131 122//122 125//125
f 256//256 244//244 243//243
f 256//256 243//243 264//264
f 256//256 264//264 272//272
f 256//256 272//272 244//244
f 353//353 343//343 316//316
f 353//353 316//316 331//331
f 353//353 331//331 369//369
f 353//353 366//366 343//343
f 345//345 331//331 302//302
f 391//391 366//366 353//353
f 391//391 353//353 369//369
f 360//360 354//354 379//379
f 360//360 379//379 356//356
f 360//360 356//356 354//354
f 124//124 128//128 150//150
f 124//124 150//150 119//119
f 124//124 119//119 103//103
f 124//124 103//103 128//128
f 204//204 189//189 203//203
f 204//204 213//213 209//209
f 204//204 209//209 183//183
f 204//204 183//183 193//193
f 204//204 193//193 189//189
f 205//205 201//201 219//219
f 205//205 219//219 151//151
f 205//205 151//151 186//186
f 205//205 186//186 201//201
f 7//7 8//8 3//3
f 7//7 3//3 5//5
f 7//7 5//5 11//11
f 7//7 11//11 8//8
f 13//13 16//16 3//3
f 13//13 3//3 8//8
f 13//13 8//8 37//37
f 13//13 37//37 21//21
f 13//13 21//21 16//16
f 4//4 1//1 5//5
f 4//4 5//5 3//3
f 4//4 3//3 1//1
f 33//33 32//32 61//61
f 33//33 61//61 26//26
f 33//33 26//26 32//32
f 307//307 315//315 283//283
f 349//349 373//373 315//315
f 349//349 315//315 359//359
f 349//349 359//359 373//373
f 346//346 359//359 315//315
f 346//346 315//315 364//364
f 346//346 364//364 372//372
f 346//346 372//372 359//359
f 427//427 429//429 416//416
f 427//427 416//416 425//425
f 440//440 433//433 429//429
f 440//440 429//429 471//471
f 440//440 471//471 475//475
f 440//440 475//475 433//433
f 132//132 106//106 142//142
f 132//132 142//142 145//145
f 132//132 145//145 127//127
f 154//154 158//158 142//142
f 154//154 142//142 106//106
f 154//154 106//106 116//116
f 154//154 116//116 118//118
f 154//154 118//118 188//188
f 154//154 188//188 163//163
f 154//154 163//163 158//158
f 19//19 17//17 16//16
f 35//35 20//20 17//17
f 35//35 17//17 19//19
f 35//35 19//19 106//106
f 35//35 106//106 79//79
f 35//35 79//79 20//20
f 28//28 21//21 106//106
f 28//28 106//106 19//19
f 28//28 19//19 16//16
f 28//28 16//16 21//21
f 139//139 120//120 97//97
f 139//139 97//97 93//93
f 139//139 93//93 112//112
f 139//139 112//112 161//161
f 139//139 161//161 171//171
f 85//85 67//67 97//97
f 85//85 97//97 64//64
f 85//85 64//64 67//67
f 58//58 64//64 44//44
f 58//58 55//55 67//67
f 58//58 67//67 64//64
f 29//29 9//9 6//6
f 29//29 6//6 40//40
f 29//29 40//40 34//34
f 29//29 34//34 30//30
f 29//29 30//30 12//12
f 29//29 12//12 9//9
f 160//160 162//162 147//147
f 160//160 147//147 159//159
f 160//160 159//159 162//162
f 402//402 324//324 337//337
f 402//402 337//337 357//357
f 402//402 357//357 411//411
f 390//390 366//366 391//391
f 390//390 391//391 406//406
f 390//390 406//406 366//366
f 399//399 406//406 391//391
f 399//399 391//391 430//430
f 399//399 430//430 406//406
f 208//208 213//213 204//204
f 208//208 204//204 203//203
f 208//208 203//203 213//213
f 309//309 348//348 315//315
f 309//309 315//315 307//307
f 309//309 299//299 348//348
f 439//439 442//442 471//471
f 439//439 471//471 429//429
f 439//439 429//429 427//427
f 439//439 427//427 425//425
f 439//439 425//425 442//442
f 117//117 106//106 132//132
f 117//117 132//132 127//127
f 117//117 127//127 78//78
f 117//117 78//78 79//79
f 117//117 79//79 106//106
f 153//153 177//177 193//193
f 153//153 193//193 183//183
f 153//153 183//183 64//64
f 153//153 64//64 120//120
f 153//153 120//120 139//139
f 153//153 139//139 171//171
f 153//153 171//171 177//177
f 52//52 55//55 58//58
f 52//52 58//58 44//44
f 52//52 44//44 55//55
f 36//36 48//48 12//12
f 36//36 12//12 30//30
f 36//36 30//30 34//34
f 36//36 34//34 48//48
f 396//396 422//422 430//430
f 396//396 430//430 391//391
f 396//396 402//402 411//411
f 396//396 411//411 422//422
f 297//297 283//283 293//293
f 297//297 293//293 299//299
f 297//297 299//299 309//309
f 297//297 309//309 307//307
f 297//297 307//307 283//283
f 378//378 369//369 331//331
f 378//378 331//331 345//345
f 378//378 396//396 391//391
f 378//378 391//391 369//369
f 377//377 402//402 396//396
f 377//377 396//396 378//378
f 377//377 378//378 345//345
f 377//377 345//345 302//302
f 377//377 302//302 324//324
f 377//377 324//324 402//402
