# Rhino

mtllib 19.06_sbe_l_04.mtl
usemtl diffuse_0_0_0_255
v 72.098241016988794 38.121469539903842 -3.2664211034774784
v 72.099857130450502 38.364173627373681 -4.721096396446228
v 72.088534835868359 38.295981278019092 -7.5653224706649773
v 72.090982951058308 38.393370639962775 -8.41233937740326
v 72.091389715822828 38.485009642206798 2.9004841089248661
v 72.077593837751081 38.278916665499992 -8.7369762182235711
v 72.084870365678313 38.423017885272799 -8.13237111568451
v 72.08624215140955 38.472649318034129 -1.7949847936630245
v 72.075360397809405 38.407044062588135 4.117861580848694
v 72.053539749073778 38.044809079357456 -9.0156337499618537
v 72.074351300179742 38.553231701184608 1.3382465600967404
v 71.990256009988045 37.271870633794499 -9.1169978857040412
v 71.993368987467377 37.365858553887101 -9.2748729467391975
v 72.042556992169835 38.247425921970652 -9.1835948705673225
v 72.05407049255642 38.57221257496753 4.7113151788711551
v 72.046204237465091 38.496872662124233 5.5776985406875612
v 72.026994970885539 38.322661501408795 6.482622361183167
v 72.01023402978214 38.071211277210516 -9.3540691137313843
v 72.025556905314772 38.360784224772573 -8.998795676231385
v 72.037942719390657 38.640300027051538 1.5342922449111942
v 71.99119996448681 37.880769525826686 -9.434536337852478
v 72.011534819489881 38.444517812578205 7.1767898797988892
v 72.016051424336538 38.673071294171443 5.3483936548233038
v 71.997147760042381 38.480400492643589 -8.2269817113876336
v 72.003055561526892 38.659233571586739 7.4130388498306274
v 71.904156379284231 37.110285506606189 -9.6417629003524787
v 71.976884044632044 38.731231577902136 7.1298988580703746
v 71.93186799654724 38.354393187719914 -9.1738429784774773
v 71.83752066946461 36.798179281585462 -9.6813411474227919
v 71.946762748903197 38.705498277195765 1.3677570581436154
v 71.77374469149396 35.958299395886002 -9.2376201391220079
v 71.926578827995613 38.523640465216154 -7.6316920995712287
v 71.708055722505591 34.978914316065584 -8.53746144771576
v 71.902023379695478 38.282988712712125 8.7299797296524062
v 71.822911452777845 37.031348419428568 -9.7550243139266968
v 71.893464794603375 38.234800565619473 -9.3036922216415405
v 71.904093264132911 38.456536739835038 -9.0702434301376336
v 71.861285593493037 37.926481941765758 -9.4798534154891954
v 71.674391845484024 34.808829682876045 -8.3757076025009169
v 71.666790189406726 34.753586080775577 -6.2427486181259155
v 71.660659575418535 34.689109644939585 -7.33915822505951
v 71.662758832476996 34.778069837918991 -8.6869212865829475
v 71.887353236704683 38.673920785007546 8.6839052438735962
v 71.796852084821268 37.163534928609252 -9.7684703588485711
v 71.891593643811632 38.80664051481898 5.4915462732315072
v 71.639100714228931 34.620682722438097 -5.7353343725204464
v 71.632918963628882 34.693642899809646 -0.24281423091888499
v 71.618639867597778 34.549336623655009 -8.2181239843368523
v 71.842078132089341 38.401105547783153 -9.1508586645126329
v 71.84018903567835 38.489346166611462 -8.9523753881454482
v 71.599971512491251 34.56984761329575 -8.4554042577743544
v 71.850704775894485 38.76607832461022 8.8840934514999397
v 71.59151178038384 34.481719057238529 -7.9776546239852912
v 71.620234173256591 34.962831147417482 4.9888584375381475
v 71.715587025701524 36.718277992094123 -9.7207271337509162
v 71.578599924128667 34.467317797828059 -7.388821005821228
v 71.792890037285844 38.074582993281361 -9.40977590084076
v 71.577464783802384 34.493225006465664 -4.4374492406845096
v 71.72311328123503 36.988511732476049 -9.7862575292587302
v 71.610954544457528 35.1486308666938 8.3147022485733046
v 71.572421008286241 34.657321883027663 1.5239811182022098
v 71.817036000377939 38.845575880098096 7.4102852106094366
v 71.575280072002201 34.884140818910076 8.4730121850967421
v 71.584346625253758 35.057833588676068 -8.8869243383407586
v 71.541201729536169 34.430911625463587 -8.3276118993759169
v 71.560213142533641 34.957583932165093 8.8968369245529182
v 71.762508520777914 38.473446533909389 -9.0822246313095079
v 71.76761494421136 38.575055154735296 9.0610298395156867
v 71.762477954524726 38.835620650804991 8.7266418695449843
v 71.516023634064908 34.716601453603104 5.7985576868057258
v 71.498777309500113 34.577519668037418 -8.591213583946228
v 71.747652313892075 38.865318836401023 6.1106952905654914
v 71.473733258510705 34.371542754084061 -8.0068080663681016
v 71.631756233127049 37.055797521033703 -9.8191234350204475
v 71.706186190738251 38.500197505697628 -8.9558635473251336
v 71.475352829866424 34.652178661464134 -8.6893459081649773
v 71.595832134838034 36.88357523221034 -9.7816249608993537
v 71.440905185136046 34.484733978623751 -0.85932881832122732
v 71.445528967527423 34.57717155396562 2.3982258081436161
v 71.489193726535078 35.318216301545604 9.1879698514938362
v 71.427133605745411 34.370428123241751 -8.270534873008728
v 71.425088153868543 34.417694110648078 -8.4544872045516968
v 71.654494673066722 38.550185147007511 -8.2085643529891961
v 71.395751287372349 34.78337224544282 -8.7695857763290412
v 71.39225372132573 34.779663374318261 8.6311313867568984
v 71.634822516076127 38.897496930124262 8.8184746980667121
v 71.38151331760875 34.711794880299053 7.6320383310317998
v 71.358075026646688 34.359523762058679 -7.9685115575790419
v 71.374040078434689 34.641021006148002 5.9262962579727176
v 71.371547197089114 34.745866077404891 8.2888815164566054
v 71.608250676396466 38.873617684929869 9.0402039766311653
v 71.4964962712736 37.113268627435261 -9.7936351537704489
v 71.331152963960918 35.033325766119269 9.1900083303451545
v 71.292132648807609 34.494007782042573 0.68205301761627268
v 71.306297598220056 34.77485026962237 8.9646074056625373
v 71.501944606557274 38.104185514997319 -9.3662166357040419
v 71.275709683130458 34.379867723807799 -8.50645558834076
v 71.28446075177942 34.539630653152194 2.6643665552139284
v 71.237155519055634 34.354844826251089 -8.3116435766220107
v 71.218263118433129 34.547966396890011 3.1155796289443973
v 71.449235854207302 38.633063323641068 9.2394086599349983
v 71.36445904016874 37.321041397733431 -9.7485149145126364
v 71.174569439845996 34.35638417167786 -8.0528758764266968
v 71.179447687948169 34.52741939741388 -8.6006786108016975
v 71.429141530124411 38.984767667447365 8.9769038438797004
v 71.264286231226222 37.071014057016953 -9.7413982152938843
v 71.093528275849934 34.431660554906962 -8.4931346654891975
v 71.119097074922308 35.460135402570899 9.3583974123001106
v 71.323703681700309 38.916623814974244 9.1969582319259651
v 71.208464770424953 37.293504771510108 -9.7404918432235732
v 71.055447443958101 34.743800525637681 8.9259359121322639
v 70.998344951995534 34.706681472247361 8.7063106775283821
v 71.006594641130718 34.924118236493413 9.2275115728378303
v 71.23799113596283 39.001180703390766 9.0697261571884162
v 70.896969888782778 34.362857410204917 -8.2490352392196655
v 71.121416434668959 38.229239308241894 9.3563350915908821
v 70.899450212610802 34.672601121598539 8.3229932069778449
v 70.892596069290605 34.782109158006456 9.0555760145187385
v 71.048424287133585 39.037353711085835 8.9939030885696418
v 70.964669916842126 38.687529861030214 9.399357724189759
v 70.700802323495367 34.499278684905001 -8.3638042211532593
v 70.680694276517983 34.394591167584892 -8.2716426610946669
v 70.847317696705517 38.916682595386533 1.6569408655166633
v 70.576575131790278 35.216586662245284 9.4426724195480354
v 70.728355364569325 37.810804125555968 -9.5156047582626329
v 70.69682625722416 38.357322686286132 -9.0619716405868544
v 70.715521886081817 38.950039067291556 9.3584808588027961
v 70.638398828686206 37.676722573232617 -9.5770625829696669
v 70.685038446930307 38.460783068523021 -8.9349300146102912
v 70.424812842091157 34.899314034410352 9.2686983823776252
v 70.377353887497179 34.393268743128232 -7.9894801855087287
v 70.651549130206618 39.076943434816123 7.8815672159194952
v 70.543232435611017 37.548067247367953 -9.5500499486923225
v 70.631839477816058 39.067065554264545 9.2476639032363899
v 70.563304521609425 38.632454395479826 -8.5836848974227919
v 70.318737400018534 34.552896485352335 -8.1752559423446662
v 70.472719728008698 37.646815215221132 -9.5436839818954482
v 70.506149318270275 38.720832504183782 9.496936488151551
v 70.416612104833291 37.552427181802415 -9.4595882177352912
v 70.3525232042157 37.958676676926331 -9.3617351293563829
v 70.389647864560587 38.719930834888508 -7.590511679649353
v 70.323325058574838 37.826554074572506 -9.4338496923446655
v 70.120231534556183 34.965417065638761 9.3357416868209846
v 70.326814794219672 38.704966183060371 -8.2993358373641968
v 70.065471751084232 34.560719124576579 -7.9996852636337294
v 70.255268955014841 38.953008586028204 -0.69484975337982213
v 70.193881507352287 38.065963412519501 9.5925184965133674
v 70.201066678971841 38.703026893481173 -8.3240886449813836
v 69.948132606835188 34.852308444330255 9.0210828065872199
v 70.133542333138536 38.143510379807111 -9.1705653905868516
v 69.963073265231557 35.441989791641554 9.5531436681747444
v 70.156559366902428 38.778262075578667 9.5347556352615364
v 70.054813863093813 39.033657724881515 1.5039592981338501
v 69.944040708609165 37.770423657086369 -9.044887900352478
v 69.960181682689054 38.073742528340475 -9.1066798925399794
v 69.925079232342227 38.589752244322952 -8.6292644262313836
v 69.883399773740535 37.992419456833645 -9.0235316991806016
v 69.851002248393016 37.638095353423417 -8.9213100194931023
v 69.829778016155146 38.764531099004834 9.5954629659652717
v 69.820278696822911 38.751253479568618 -8.012345480918885
v 69.799338330673351 38.656280616400146 -8.5112483739852891
v 69.765931364598771 38.680629489714995 -8.4080074071884141
v 69.749462249644253 38.499895109478295 -8.7243343114852898
v 69.691905376464035 37.840104855138556 -8.805569052696228
v 69.676057271160673 38.399479341353853 -8.7343486547470093
v 69.651298510173703 38.086990857883642 -8.7835933446884162
v 69.67947962243413 38.649734594020778 -8.4771236181259155
v 69.59908753037368 38.295841472334416 -8.6980434179306023
v 69.568070530604714 37.849743648665118 -8.6702251195907607
v 69.406965572655565 35.277910398252509 9.5673474550247199
v 69.458756828657187 39.013282879758279 9.5113131284713752
v 69.426554122290256 38.65489269582293 9.6246334791183479
v 69.257116191340486 36.316340192777076 9.6573027849197395
v 69.366712179194039 38.852677357710014 -7.1941524267196648
v 69.072209067735258 35.049352766133936 9.3679460763931282
v 69.02661035063602 35.39198143367625 9.5820638418197639
v 68.776032218518623 35.152112294079018 9.4756337881088264
v 68.719403639182829 34.566159881729355 -5.9545009374618534
v 68.947880680056485 39.292042719108863 8.265629696846009
v 68.941978563854676 39.287796058609679 9.2021557569503791
v 68.833822650870957 39.295569296421753 7.7954265832901006
v 68.710087019653059 38.035487521847209 9.6696349859237678
v 68.772663424551084 39.315328169240125 8.8129076242446907
v 68.399757099207477 35.199451196550733 9.5072480916976936
v 68.309894412493875 35.140111536144531 9.4014856100082405
v 68.483077660922802 39.308839393426261 9.3100044012069709
v 68.139576057476503 35.237580907767409 9.5161768674850471
v 67.907986833582086 35.084059706543115 9.0118858098983772
v 67.950520265355721 39.068089292335316 -5.5653835058212273
v 67.585527876202946 34.757907899344758 -5.6555888891220096
v 67.544084434860778 34.807395886650667 -5.76854054927826
v 67.652130187365188 39.098446595172639 -5.4011134862899777
v 67.377878247478876 34.94046132346692 -5.7293269872665409
v 67.196015885936859 34.938446170804141 -5.5382213354110714
v 66.734237801385333 35.223297808009846 9.0499493360519416
v 66.964921170127184 39.232031888760176 -3.291836142539978
v 66.660372903606131 35.282951725115474 9.2368635416030891
v 66.565389470975987 39.543890921574373 9.1782304525375373
v 65.760289628332657 35.081086404991673 -3.9819209814071659
v 65.668793942850371 35.028465918927857 -3.7014751195907589
v 65.564497709831855 35.149502457220102 -3.8730647802352909
v 65.651259069126326 39.551511406788819 3.8621219873428352
v 64.528670439944335 39.46926684488416 9.8191234350204475
v 64.16928390897597 39.733589014513591 9.524026799201966
v 63.841246297038097 39.681228705001246 9.7326370954513557
v 63.007436080791194 35.664206141841291 9.0689691781997688
v 62.825303056381244 35.492638344640739 4.8769626855850223
v 62.181467284505075 36.416113924997887 9.6773716688156135
v 62.032748890928303 36.057015431433079 9.6001061677932746
v 61.45337888335311 36.215669963004103 9.6539053201675422
v 61.379706919258695 36.867850254383804 9.6906038999557502
v 60.897296966036436 35.678998632786787 3.2888324975967409
v 60.725139908495819 36.079485773900267 9.488919663429261
v 60.708576173242946 36.379915318481963 9.6313390016555793
v 60.385238400505187 35.96726142548799 9.0444657087326057
v 60.558622142363603 40.175420441982112 9.4653579473495491
v 60.308913416106833 36.064741578562987 9.3962940454483039
v 60.035716673408274 35.823596646222249 5.5451725244522097
v 59.706341487867533 35.851718412292811 2.8342045068740847
v 59.666698920309415 35.967453707385701 2.6785999536514282
v 59.643725646791296 36.039043034850522 8.9028867959976203
v 59.606668225305853 36.16513023325016 9.4410988569259651
v 59.593848027743817 36.156806000421589 2.7842556238174438
v 59.51076648599053 35.948134885956783 2.9067188501358032
v 58.971282187243332 35.962455258752016 4.3069393396377569
v 58.910641388399924 36.070511807016636 8.4737333536148078
v 58.839954549906381 36.001545237144242 6.9624218225479133
v 58.68369781160645 40.341936580567044 9.5109972238540657
v 58.328791269000021 36.358485796957098 9.4555708646774299
v 58.401171888877855 40.412275594654801 9.442922759056092
v 58.09468414309255 36.582798473168282 9.4980153322219856
v 58.279729496997419 39.93880367762808 4.8179302453994755
v 58.047573253136747 36.105365132807947 5.5728111505508426
v 57.993347512498687 36.342872678265678 9.3807491540908821
v 57.864254880520747 36.13099146875696 5.9340687036514286
v 57.839947765591504 36.152842576315656 5.7288501977920543
v 57.811249915301801 36.182583384065197 8.0193969964981093
v 57.768945382008951 36.197167502671583 5.6522224664688121
v 57.729790089323004 36.27540642632674 5.6234333276748663
v 57.69253371702203 36.180905387411677 5.9146793603897105
v 57.900200300995863 40.147895331642097 5.318871331214905
v 57.641375573147073 36.275335302356311 5.8666141748428355
v 57.843555064666646 39.688784434787479 9.6330973386764533
v 57.627533149599287 36.165916235908917 6.4525757074356083
v 57.622872679650982 36.33479383190727 9.23661916255951
v 57.626415488879815 36.476183480119033 9.3202265977859504
v 57.798486788147812 40.08475393856601 5.4169330835342411
v 57.55120199641172 36.244573525689816 8.4958585977554328
v 57.482107417035209 36.195563787557042 6.8351539850234992
v 57.526625522624983 37.820307317516892 9.5336946725845344
v 57.634227252039139 40.384640887412928 9.5107945680618293
v 57.338771541735994 36.212950981155174 7.3703201532363902
v 57.330932666940853 36.257979846752917 8.2307252168655403
v 57.430079518127258 40.05021141713614 9.6001240491867073
v 57.159980768224557 36.34453417351763 7.4011358499526985
v 57.140247534998835 36.310537952779391 8.0471130609512329
v 57.130411331822259 36.380156524316185 8.8557931661605842
v 57.119945510942685 36.322159292710587 7.634213852882386
v 57.120009695566679 36.34585741840916 8.4357175111770637
v 57.068909565108441 36.737193639307598 9.2528673887252815
v 57.048318448593278 36.470758237958911 9.0588065862655647
v 57.049312522803831 36.511235089096182 7.623497033119202
v 57.268292103588763 40.391704563477511 9.4544920206069953
v 57.058655481327918 37.175840771121813 9.3894871950149543
v 57.147416797288983 40.341710188185409 6.2969299554824829
v 56.898944586110403 36.525552856946746 8.7529572725296028
v 56.812578969720505 36.666179781934872 9.0447160482406623
v 56.774688606128237 37.567535819224972 9.3226823091506965
v 56.728319155201063 37.044457947460216 9.1190370798110969
v 56.915987248384639 40.534767513241292 9.2414173364639289
v 56.915067150922113 40.56096051470989 9.1201397657394416
v 56.731676073023621 38.213261468424527 9.3933078527450569
v 56.805461452314631 40.162609350928228 9.4557139158248908
v 56.773366860511544 40.488366263801808 9.2971357583999641
v 56.581108892546709 38.612637591737219 9.3618366003036506
v 56.612644986673288 40.554006073735948 7.2985740900039673
v 56.506039034476871 40.469726760168278 9.2481168985366828
v 56.359783990821867 39.019322499385304 9.3001636743545539
v 56.384358962172143 39.82461425495066 9.3514653921127326
v 56.42055849341088 40.618163903218374 8.9552315950393684
v 56.416601108877458 40.568775923174471 7.4250671625137334
v 56.370377685129753 40.212418503345347 9.279045748710633
v 56.291941185423781 40.384941421609007 7.304761147499085
v 56.286617783220791 40.576240861683381 7.5495155572891246
v 56.202616162013058 39.363131649576253 9.2204901456832893
v 56.168838629179248 39.074712141070599 9.12523000240326
v 56.242409038437629 40.553258555532544 7.4570926904678352
v 56.220551110996666 40.451657785816877 7.4147316217422485
v 56.214975679719572 40.559952081734778 8.843174862861634
v 56.205180228268389 40.402024016507013 9.0202185392379768
v 56.191163012796721 40.636389123952085 8.232221245765686
v 56.146735016303083 40.549024036291115 7.5817438364028931
v 56.117895875997604 40.068924939517437 9.0692731618881233
v 56.141095708029411 40.616560965216863 8.5143241167068489
v 56.047917418825051 39.756018613982945 9.1172966241836555
v 56.053912437012258 40.461254295557374 8.6621197938919074
v 55.979287643531762 40.260075750978622 7.71445963382721
v 55.974335476816023 40.223974264836343 8.7827059030532837
v 55.921662270722734 39.914978037300692 8.852550673484803
v 55.942911089395949 40.534020235557101 8.3014103174209595
v 55.931669757261858 40.401225186937609 7.8396709680557262
v 55.863479262857311 39.573068228088147 8.8673445463180549
v 55.879920645598176 40.260406723831558 7.930961632728577
v 55.87697042997037 40.427113473706889 8.044216370582582
v 55.844789224583408 40.311748671879158 8.1650170564651496
v 55.770318608800821 39.792197555817864 8.6233112573623671
v 55.753575534736385 39.60936759883716 8.303472733497621
v 55.734063245217186 39.587668972070446 8.572635293006897
v 55.722278824825679 39.727641200516729 8.4479305505752578
vn -0.99662429094314575 0.082093335688114166 -0.00081259483704343438
vn -0.99913722276687622 -0.041520670056343079 0.00089862220920622349
vn -0.99674928188323975 0.080348797142505646 0.0059136068448424339
vn -0.96048504114151001 -0.27507123351097107 0.04247642308473587
vn -0.99348264932632446 -0.11386936157941818 -0.0051021836698055267
vn -0.99873530864715576 0.010228604078292847 0.049226190894842148
vn -0.76844429969787598 -0.63950347900390625 0.022993676364421844
vn -0.97866594791412354 -0.20545096695423126 0.0017054998315870762
vn -0.99627584218978882 0.085350692272186279 -0.012233104556798935
vn -0.99678683280944824 0.052698224782943726 0.060323059558868408
vn -0.9546540379524231 -0.29771733283996582 2.5968845875468105E-05
vn -0.99521142244338989 0.095842517912387848 0.019193258136510849
vn -0.98929339647293091 0.094415552914142609 0.11128448694944382
vn -0.89943337440490723 -0.30395326018333435 0.31405732035636902
vn -0.94694715738296509 -0.32134652137756348 -0.0052397246472537518
vn -0.99938499927520752 -0.029165834188461304 -0.019468577578663826
vn -0.99803847074508667 0.057499542832374573 -0.024759314954280853
vn -0.60640579462051392 -0.36385837197303772 0.70702123641967773
vn -0.78287965059280396 -0.59124457836151123 0.19372494518756866
vn -0.78138256072998047 -0.6240265965461731 0.0056609325110912323
vn -0.83395808935165405 -0.10102958977222443 0.54250061511993408
vn -0.99710440635681152 0.061080135405063629 -0.04529864713549614
vn -0.91986483335494995 -0.39221027493476868 -0.0044535440392792225
vn -0.4617149829864502 -0.88557404279708862 0.050773140043020248
vn -0.98059386014938354 -0.19092513620853424 -0.044533979147672653
vn -0.94410496950149536 0.10171347111463547 0.31356051564216614
vn -0.7694777250289917 -0.63848650455474854 -0.015458656474947929
vn -0.37408736348152161 -0.67252808809280396 0.63856452703475952
vn -0.79018926620483398 0.2499365359544754 0.55958259105682373
vn -0.46345105767250061 -0.88595587015151978 0.017184393480420113
vn -0.95882010459899902 0.18789005279541016 0.21298204362392426
vn -0.21952816843986511 -0.9752463698387146 0.02649342454969883
vn -0.9876781702041626 0.15493173897266388 0.022089624777436256
vn -0.9750446081161499 0.02907717227935791 -0.22009651362895966
vn -0.57556933164596558 0.074243940412998199 0.81437569856643677
vn -0.10989991575479507 -0.60894584655761719 0.78556156158447266
vn -0.44609057903289795 -0.82744640111923218 0.34108006954193115
vn -0.18819651007652283 -0.39669325947761536 0.8984522819519043
vn -0.97716456651687622 0.21206247806549072 0.013374690897762775
vn -0.98876810073852539 0.14940966665744781 -0.0037903098855167627
vn -0.97849565744400024 0.20625899732112885 0.0018569567473605275
vn -0.80705404281616211 0.43197864294052124 0.40256455540657043
vn -0.98864442110061646 -0.10142145305871964 -0.11088702827692032
vn -0.34737476706504822 -0.21505579352378845 0.91273313760757446
vn -0.51866155862808228 -0.85495275259017944 0.0067788572050631046
vn -0.94384783506393433 0.33036014437675476 -0.0036624688655138016
vn -0.96599209308624268 0.25843292474746704 -0.0084651224315166473
vn -0.93373662233352661 0.35555979609489441 0.041390493512153625
vn -0.12786726653575897 -0.71675330400466919 0.68550324440002441
vn -0.17200309038162231 -0.97998881340026855 0.10018386691808701
vn -0.83004093170166016 0.51563715934753418 0.2124861478805542
vn -0.780048668384552 -0.59079766273498535 -0.20611193776130676
vn -0.86108332872390747 0.50840926170349121 0.0074499291367828846
vn -0.99114125967025757 0.13247105479240417 -0.0095104454085230827
vn -0.27054926753044128 0.34320273995399475 0.89945262670516968
vn -0.72290545701980591 0.69093930721282959 -0.0032548897434026003
vn -0.014624356292188168 -0.47884407639503479 0.87777817249298096
vn -0.766845703125 0.64171391725540161 -0.012284727767109871
vn -0.2896803617477417 0.16903728246688843 0.94207841157913208
vn -0.99298429489135742 0.11436598002910614 -0.030043080449104309
vn -0.80398446321487427 0.59437859058380127 -0.017972933128476143
vn -0.47920879721641541 -0.87758022546768188 -0.014557257294654846
vn -0.87046253681182861 0.48919352889060974 -0.054631646722555161
vn -0.2606084942817688 0.46195709705352783 0.84774929285049438
vn -0.6686326265335083 0.72307944297790527 0.17345485091209412
vn -0.87005555629730225 0.36524751782417297 -0.33105525374412537
vn -0.007654240820556879 -0.88417840003967285 0.46708664298057556
vn -0.72675323486328125 -0.12794016301631927 -0.67487853765487671
vn -0.51118779182434082 -0.85779422521591187 -0.053629118949174881
vn -0.6135019063949585 0.78926116228103638 -0.026119273155927658
vn -0.4385133683681488 0.68245160579681396 0.58477842807769775
vn -0.29096525907516479 -0.95663183927536011 0.013955960050225258
vn -0.4204978346824646 0.90725994110107422 0.0078089754097163677
vn -0.038391638547182083 0.033310286700725555 0.99870741367340088
vn -0.075618267059326172 -0.98396331071853638 0.16154901683330536
vn -0.21256262063980103 0.5786469578742981 0.78739112615585327
vn 0.14490126073360443 0.32917618751525879 0.93308448791503906
vn -0.33950898051261902 0.94036531448364258 -0.021134911105036736
vn -0.48842704296112061 0.87225812673568726 -0.024593429639935493
vn -0.67417484521865845 0.12827560305595398 -0.72734695672988892
vn -0.23750820755958557 0.96443557739257813 0.11599099636077881
vn -0.44507527351379395 0.79198193550109863 0.41793856024742126
vn -0.13582724332809448 -0.99010598659515381 0.035229042172431946
vn 0.026216274127364159 0.45989981293678284 0.88758373260498047
vn -0.4946858286857605 0.86547911167144775 -0.078941971063613892
vn -0.4580514132976532 -0.88580942153930664 -0.074368089437484741
vn -0.37382200360298157 0.92632603645324707 -0.046660259366035461
vn -0.070467203855514526 0.99750357866287231 -0.0045791817829012871
vn -0.31120234727859497 0.9498630166053772 -0.030221156775951385
vn -0.3018706738948822 0.95146363973617554 -0.059925351291894913
vn -0.52647805213928223 -0.58531641960144043 -0.61662429571151733
vn 0.20425644516944885 0.042289596050977707 0.97800350189208984
vn -0.41192418336868286 0.41002318263053894 -0.81375640630722046
vn -0.014080441556870937 0.99972075223922729 -0.018978498876094818
vn -0.33500188589096069 0.88183414936065674 -0.33187681436538696
vn 0.076679527759552002 -0.6068422794342041 0.79111480712890625
vn -0.061376746743917465 0.86518210172653198 0.49768748879432678
vn -0.11345162242650986 0.99321401119232178 -0.025585385039448738
vn -0.026172511279582977 0.99839508533477783 0.050222359597682953
vn -0.012861033901572227 0.9996340274810791 -0.023798108100891113
vn -0.41894957423210144 -0.13769681751728058 -0.89750814437866211
vn 0.0063726664520800114 -0.30827847123146057 0.9512748122215271
vn 0.0088511370122432709 0.99990785121917725 -0.010295171290636063
vn 0.2251708060503006 0.49417039752006531 0.83969861268997192
vn -0.26514735817909241 -0.95893782377243042 -0.10067354887723923
vn 0.31210604310035706 0.20841334760189056 0.92690545320510864
vn 0.29656144976615906 0.63087946176528931 0.71696752309799194
vn -0.27697652578353882 0.062854990363121033 -0.95881867408752441
vn -0.32492387294769287 -0.65659099817276001 -0.68067079782485962
vn 0.18249945342540741 -0.068188175559043884 0.9808385968208313
vn -0.00046861229930073023 0.97580498456954956 -0.21864219009876251
vn -0.067220032215118408 0.99259829521179199 -0.10114404559135437
vn -0.16322451829910278 0.63636493682861328 -0.75392138957977295
vn -0.21358384191989899 -0.92288404703140259 -0.32041692733764648
vn 0.06748693436384201 0.99443888664245605 0.080850213766098022
vn -0.30576035380363464 -0.0065650008618831635 -0.95208585262298584
vn 0.040228128433227539 0.99811369180679321 -0.046375714242458344
vn -0.0020802365615963936 0.91324758529663086 -0.4073997437953949
vn -0.12823964655399323 -0.99117481708526611 -0.03357107937335968
vn -0.266926109790802 -0.15559658408164978 -0.95107316970825195
vn 0.40572288632392883 0.45860216021537781 0.79061555862426758
vn 0.31993210315704346 0.78909426927566528 0.52437931299209595
vn -0.15539847314357758 -0.98759651184082031 0.022459452971816063
vn -0.13992221653461456 0.34224531054496765 -0.92913395166397095
vn 0.089127220213413239 -0.5354917049407959 0.839824378490448
vn 0.10366189479827881 -0.70157855749130249 0.70501190423965454
vn -0.18098273873329163 -0.51279258728027344 -0.83921927213668823
vn 0.10850649327039719 -0.35708430409431458 0.92774844169616699
vn 0.097647450864315033 -0.79127341508865356 0.60361522436141968
vn -0.023236814886331558 0.73835772275924683 -0.67400884628295898
vn 0.21866866946220398 0.96220618486404419 0.16230595111846924
vn -0.13168890774250031 -0.99117577075958252 0.0151210967451334
vn 0.45264789462089539 0.30705496668815613 0.83715420961380005
vn -0.14930391311645508 -0.90390950441360474 -0.40081915259361267
vn -0.019000332802534103 -0.96828198432922363 0.24913641810417175
vn 0.48687365651130676 0.44133639335632324 0.75377464294433594
vn 0.52820849418640137 0.141469806432724 0.83724671602249146
vn -0.18200640380382538 -0.24501162767410278 -0.95228302478790283
vn 0.64336889982223511 0.2639661431312561 0.71860861778259277
vn 0.13203389942646027 -0.59241044521331787 0.79474329948425293
vn -0.11729445308446884 -0.99260354042053223 0.03130793571472168
vn 0.4897770881652832 -0.21221251785755157 0.84562653303146362
vn -0.011537207290530205 0.64776718616485596 -0.76175099611282349
vn -0.064815729856491089 -0.9904513955116272 0.12167567014694214
vn 0.54586678743362427 0.54703539609909058 0.6346508264541626
vn -0.13017863035202026 -0.99111157655715942 0.027410563081502914
vn -0.13193459808826447 -0.013965634629130363 -0.99116003513336182
vn -0.0048874062485992908 -0.97883689403533936 0.20458370447158813
vn 0.097665689885616302 0.97482669353485107 -0.20043525099754333
vn 0.29394295811653137 -0.55505073070526123 0.77814918756484985
vn -0.11823248863220215 0.078267447650432587 -0.98989659547805786
vn -0.15575054287910461 -0.39318257570266724 -0.90617287158966064
vn -0.12214698642492294 -0.99226021766662598 0.02235674113035202
vn 0.69935864210128784 0.14858497679233551 0.69915658235549927
vn 0.61790013313293457 -0.22452373802661896 0.75351744890213013
vn 0.09383082389831543 -0.81742101907730103 0.5683472752571106
vn 0.71272337436676025 0.070112608373165131 0.69793236255645752
vn 0.70028418302536011 0.16709855198860168 0.69403177499771118
vn -0.11584758758544922 -0.27541768550872803 -0.9543188214302063
vn 0.0053679374977946281 -0.98908877372741699 0.14722274243831635
vn 0.075265027582645416 -0.91491591930389404 0.39656531810760498
vn 0.080547027289867401 -0.97240287065505981 0.21896302700042725
vn 0.37510648369789124 -0.66824936866760254 0.64244681596755981
vn 0.71716076135635376 0.12099860608577728 0.68632334470748901
vn 0.62845075130462646 -0.3780389130115509 0.67980599403381348
vn 0.7408408522605896 -0.0072383172810077667 0.67164158821105957
vn 0.26682764291763306 -0.87041270732879639 0.41374468803405762
vn 0.72738015651702881 -0.16869701445102692 0.66517627239227295
vn 0.74263590574264526 0.070039518177509308 0.66602283716201782
vn -0.017940973863005638 0.33067771792411804 -0.94357317686080933
vn -0.11474017053842545 -0.61816644668579102 -0.77762776613235474
vn -0.052792210131883621 -0.034670654684305191 -0.99800348281860352
vn -0.038681920617818832 0.043522700667381287 -0.99830329418182373
vn -0.088626280426979065 -0.994526207447052 0.055343959480524063
vn 0.068646460771560669 0.87419873476028442 -0.48069137334823608
vn -0.0013884109212085605 0.10628440231084824 -0.99433481693267822
vn 0.023285342380404472 0.68982028961181641 -0.72360610961914063
vn 0.1324046403169632 0.99119216203689575 0.0026727891527116299
vn -0.11459039151668549 -0.99333101511001587 0.012748013250529766
vn -0.11399011313915253 -0.98600560426712036 -0.12165187299251556
vn -0.10678038746118546 -0.99408859014511108 0.019641699269413948
vn -0.04601944237947464 -0.012303359806537628 -0.99886476993560791
vn -0.10987623035907745 -0.9939313530921936 -0.0052581056952476501
vn 0.057101897895336151 0.71158665418624878 -0.70027410984039307
vn 0.10184438526630402 0.92388367652893066 -0.36887210607528687
vn -0.11142061650753021 -0.92707628011703491 -0.35793164372444153
vn 0.060320004820823669 0.56432271003723145 -0.82334762811660767
vn 0.11338277161121368 0.98781412839889526 -0.10661880671977997
vn -0.092298448085784912 -0.9948773980140686 0.041230764240026474
vn 0.25497519969940186 0.95766609907150269 0.13365358114242554
vn 0.48452228307723999 0.77377283573150635 0.40806099772453308
vn 0.0049781561829149723 -0.99197661876678467 0.12632356584072113
vn 0.66848737001419067 0.30995681881904602 0.67605578899383545
vn 0.67080396413803101 0.40333947539329529 0.62236589193344116
vn 0.11255910247564316 0.97303193807601929 -0.20134378969669342
vn -0.10222062468528748 -0.99440652132034302 0.0265816580504179
vn 0.11036752164363861 0.95712614059448242 -0.26782187819480896
vn -0.10668279975652695 -0.99395817518234253 -0.025806214660406113
vn 0.45649710297584534 0.83016878366470337 0.32004725933074951
vn 0.36503645777702332 0.90299028158187866 0.22662079334259033
vn 0.64872252941131592 0.54009848833084106 0.53614616394042969
vn -0.10400133579969406 -0.99431115388870239 0.023001564666628838
vn -0.026702422648668289 -0.1724751740694046 -0.98465186357498169
vn -0.10790115594863892 -0.91939133405685425 -0.37825509905815125
vn -0.087402597069740295 -0.76961898803710938 -0.63249301910400391
vn 0.11394967138767242 0.97096621990203857 -0.21033330261707306
vn 0.11173205822706223 0.99343365430831909 -0.02460809051990509
vn 0.0042846575379371643 0.067375600337982178 -0.9977184534072876
vn 0.071855038404464722 0.57117420434951782 -0.81767773628234863
vn 0.04112846776843071 0.24420441687107086 -0.96885120868682861
vn 0.033203057944774628 0.044747054576873779 -0.99844640493392944
vn 0.13731245696544647 0.99049991369247437 -0.0074300626292824745
vn 0.079912260174751282 0.63489741086959839 -0.76845258474349976
vn 0.053259767591953278 0.07678685337305069 -0.99562400579452515
vn 0.11736408621072769 0.98038715124130249 -0.15832449495792389
vn -0.10530427843332291 -0.94022828340530396 -0.32385456562042236
vn 0.11081831157207489 0.94668668508529663 -0.30249562859535217
vn 0.1177922785282135 0.99279552698135376 -0.021954292431473732
vn 0.29932865500450134 0.94590067863464355 0.12519703805446625
vn 0.77671128511428833 0.09899507462978363 0.62202858924865723
vn 0.12122662365436554 0.98332738876342773 -0.13554114103317261
vn 0.10078366845846176 0.82119095325469971 -0.5616832971572876
vn 0.76836347579956055 -0.06810171902179718 0.63638019561767578
vn 0.71908789873123169 0.5154646635055542 0.46605661511421204
vn 0.14685656130313873 0.98915672302246094 -0.0014696132857352495
vn 0.11929617077112198 0.98807895183563232 -0.097305580973625183
vn 0.12427410483360291 0.99168306589126587 -0.033476371318101883
vn -0.046312719583511353 -0.70198726654052734 -0.71068209409713745
vn 0.10247702896595001 0.52913898229598999 -0.84232443571090698
vn -0.07891324907541275 -0.95947259664535522 -0.27052733302116394
vn 0.15405978262424469 0.22343382239341736 -0.96246707439422607
vn 0.75322294235229492 -0.13849680125713348 0.64301925897598267
vn 0.25998333096504211 0.96338140964508057 0.065611511468887329
vn 0.22221919894218445 0.56820642948150635 -0.7923130989074707
vn 0.23076881468296051 0.97199732065200806 0.044350627809762955
vn 0.28443872928619385 0.95513290166854858 0.082557559013366699
vn 0.12759082019329071 0.99040251970291138 -0.053136065602302551
vn 0.66953462362289429 0.68472409248352051 0.28788232803344727
vn 0.85119682550430298 0.31222438812255859 0.42187666893005371
vn 0.48685881495475769 0.86327433586120605 0.13313855230808258
vn 0.70226508378982544 -0.34511232376098633 0.6226726770401001
vn 0.85004192590713501 0.44645750522613525 0.27947163581848145
vn 0.053792614489793777 0.0080574424937367439 -0.99851959943771362
vn 0.23272112011909485 0.97211998701095581 0.028698498383164406
vn 0.19823841750621796 0.90502709150314331 -0.37633422017097473
vn 0.30461543798446655 0.44294324517250061 -0.84321451187133789
vn 0.75903588533401489 -0.14016400277614594 0.63578188419342041
vn 0.15668664872646332 0.98234915733337402 -0.10217323154211044
vn 0.37820747494697571 0.92295527458190918 0.071502901613712311
vn 0.11855302751064301 0.055829212069511414 -0.99137693643569946
vn 0.028015065938234329 -0.59967172145843506 -0.79975557327270508
vn 0.29386377334594727 0.95577800273895264 0.011508799158036709
vn 0.23682856559753418 0.96885466575622559 -0.072338759899139404
vn 0.1376882791519165 -0.11036023497581482 -0.98430818319320679
vn 0.86602681875228882 0.44958111643791199 0.21880203485488892
vn 0.4707362949848175 0.88163876533508301 -0.033473704010248184
vn 0.36282429099082947 0.92086714506149292 -0.14269636571407318
vn 0.76905328035354614 0.62914139032363892 0.11286347359418869
vn 0.45141902565956116 0.88955873250961304 -0.070043571293354034
vn 0.40652850270271301 0.37206241488456726 -0.83444839715957642
vn 0.49532938003540039 0.74589669704437256 -0.44529417157173157
vn 0.91953867673873901 0.34880971908569336 0.18105365335941315
vn 0.15879407525062561 -0.44264966249465942 -0.8825223445892334
vn 0.31837940216064453 0.17273858189582825 -0.93209224939346313
vn 0.6213613748550415 -0.52533054351806641 0.58132421970367432
vn 0.71961265802383423 0.69359028339385986 -0.033018231391906738
vn 0.81474912166595459 0.46651425957679749 -0.34430843591690063
vn 0.56973838806152344 0.1955542117357254 -0.79822099208831787
vn 0.75569432973861694 0.25682893395423889 -0.60246568918228149
vn 0.010284836404025555 -0.92163848876953125 -0.38791334629058838
vn -0.054961264133453369 -0.98124200105667114 -0.18477927148342133
vn 0.3183777928352356 0.072341546416282654 -0.94519960880279541
vn 0.25841370224952698 -0.2348814457654953 -0.93704485893249512
vn 0.12212242186069489 -0.75931906700134277 -0.63915622234344482
vn 0.35342520475387573 0.056481968611478806 -0.93375605344772339
vn -0.030654476955533028 -0.99613088369369507 0.08236248791217804
vn 0.37767475843429565 -0.56560587882995605 -0.73311102390289307
vn 0.53131371736526489 0.10690248757600784 -0.84040325880050659
vn 0.39862996339797974 -0.013887408189475536 -0.91700667142868042
vn 0.10340099781751633 -0.96542626619338989 -0.23929131031036377
vn 0.050122078508138657 -0.98919898271560669 0.13774286210536957
vn 0.55936127901077271 -0.25780221819877625 -0.78781533241271973
vn 0.7785804271697998 -0.11595235764980316 0.61673951148986816
vn 0.14710575342178345 -0.98021847009658813 0.13240690529346466
vn 0.63885903358459473 0.082170017063617706 -0.76492303609848022
vn 0.7388116717338562 0.1700175404548645 -0.65211302042007446
vn 0.43495291471481323 -0.79457384347915649 0.42363706231117249
vn 0.77229714393615723 -0.26973801851272583 0.57515084743499756
vn 0.60026335716247559 -0.69711637496948242 -0.39206209778785706
vn 0.71166700124740601 -0.43772691488265991 -0.549477219581604
vn 0.024579275399446487 -0.99890685081481934 0.039761822670698166
vn 0.58344048261642456 -0.75932985544204712 0.2881239652633667
vn 0.74879670143127441 -0.27263358235359192 -0.60413116216659546
vn 0.3738366961479187 -0.91645103693008423 -0.14270095527172089
vn 0.74301213026046753 -0.1040397435426712 -0.66114193201065063
vn 0.77920812368392944 -0.50111281871795654 -0.37645801901817322
vn 0.85322684049606323 -0.0077830408699810505 0.52148193120956421
vn 0.83126461505889893 -0.33213016390800476 -0.44574514031410217
vn 0.84559214115142822 -0.20995302498340607 -0.49080914258956909
vn 0.75475633144378662 -0.63907331228256226 -0.1480814516544342
vn 0.86915773153305054 -0.26904463768005371 0.4149455726146698
vn 0.86482161283493042 0.03809332475066185 -0.50063210725784302
vn 0.94830965995788574 -0.065724603831768036 0.31046593189239502
vn 0.91175675392150879 -0.37731388211250305 0.16227699816226959
vn 0.95901024341583252 -0.2719581127166748 -0.079612806439399719
vn 0.92508018016815186 -0.21611820161342621 -0.31228122115135193
vn 0.941211998462677 0.24673923850059509 0.23073722422122955
vn 0.96674853563308716 0.15163783729076385 -0.20592045783996582
vn 0.99482029676437378 -0.091660447418689728 0.043942626565694809
f 192//192 189//189 291//291
f 9//9 1//1 47//47
f 43//43 25//25 34//34
f 227//227 117//117 218//218
f 178//178 117//117 131//131
f 201//201 169//169 220//220
f 292//292 284//284 291//291
f 196//196 189//189 153//153
f 196//196 291//291 189//189
f 276//276 192//192 291//291
f 17//17 9//9 60//60
f 54//54 9//9 47//47
f 5//5 1//1 9//9
f 80//80 66//66 93//93
f 80//80 34//34 66//66
f 3//3 12//12 1//1
f 3//3 4//4 12//12
f 3//3 1//1 4//4
f 305//305 309//309 304//304
f 228//228 230//230 205//205
f 212//212 218//218 178//178
f 212//212 227//227 218//218
f 207//207 178//178 218//218
f 207//207 117//117 178//178
f 207//207 218//218 117//117
f 33//33 1//1 12//12
f 33//33 47//47 1//1
f 224//224 201//201 220//220
f 190//190 191//191 200//200
f 190//190 131//131 191//191
f 190//190 178//178 131//131
f 199//199 191//191 201//201
f 199//199 200//200 191//191
f 287//287 284//284 292//292
f 307//307 262//262 255//255
f 181//181 179//179 291//291
f 181//181 153//153 179//179
f 132//132 179//179 153//153
f 132//132 153//153 105//105
f 202//202 196//196 153//153
f 202//202 291//291 196//196
f 202//202 181//181 291//291
f 202//202 153//153 181//181
f 281//281 291//291 284//284
f 281//281 276//276 291//291
f 281//281 192//192 276//276
f 281//281 287//287 192//192
f 281//281 284//284 287//287
f 65//65 73//73 56//56
f 65//65 81//81 73//73
f 53//53 65//65 56//56
f 53//53 48//48 65//65
f 94//94 131//131 117//117
f 16//16 9//9 17//17
f 16//16 5//5 9//9
f 16//16 25//25 5//5
f 2//2 5//5 4//4
f 2//2 1//1 5//5
f 2//2 4//4 1//1
f 11//11 23//23 20//20
f 68//68 80//80 101//101
f 68//68 34//34 80//80
f 68//68 101//101 91//91
f 108//108 80//80 93//93
f 108//108 101//101 80//80
f 27//27 23//23 25//25
f 27//27 20//20 23//23
f 86//86 62//62 69//69
f 86//86 105//105 62//62
f 46//46 41//41 48//48
f 46//46 47//47 41//41
f 46//46 48//48 53//53
f 146//146 153//153 189//189
f 160//160 144//144 192//192
f 72//72 62//62 105//105
f 72//72 105//105 32//32
f 15//15 11//11 5//5
f 15//15 23//23 11//11
f 15//15 25//25 23//23
f 182//182 147//147 173//173
f 95//95 93//93 66//66
f 95//95 113//113 93//93
f 95//95 118//118 113//113
f 231//231 264//264 250//250
f 216//216 230//230 180//180
f 216//216 205//205 230//230
f 216//216 204//204 205//205
f 119//119 134//134 180//180
f 119//119 105//105 134//134
f 119//119 132//132 105//105
f 119//119 179//179 132//132
f 198//198 180//180 230//230
f 120//120 108//108 147//147
f 203//203 173//173 208//208
f 203//203 182//182 173//173
f 248//248 237//237 253//253
f 226//226 237//237 248//248
f 226//226 227//227 237//237
f 226//226 117//117 227//227
f 39//39 41//41 33//33
f 39//39 48//48 41//41
f 40//40 33//33 41//41
f 40//40 47//47 33//33
f 40//40 41//41 47//47
f 107//107 97//97 104//104
f 76//76 104//104 97//97
f 164//164 193//193 158//158
f 164//164 169//169 201//201
f 163//163 167//167 287//287
f 163//163 126//126 129//129
f 163//163 150//150 126//126
f 241//241 165//165 163//163
f 82//82 81//81 65//65
f 82//82 97//97 81//81
f 63//63 54//54 47//47
f 63//63 9//9 54//54
f 63//63 60//60 9//9
f 63//63 95//95 66//66
f 63//63 85//85 95//95
f 100//100 94//94 117//117
f 100//100 98//98 94//94
f 100//100 117//117 98//98
f 115//115 94//94 103//103
f 115//115 131//131 94//94
f 88//88 103//103 94//94
f 88//88 73//73 81//81
f 78//78 94//94 98//98
f 78//78 88//88 94//94
f 78//78 73//73 88//88
f 90//90 95//95 85//85
f 90//90 112//112 95//95
f 89//89 78//78 98//98
f 89//89 98//98 117//117
f 22//22 16//16 17//17
f 22//22 25//25 16//16
f 22//22 34//34 25//25
f 22//22 66//66 34//34
f 22//22 63//63 66//66
f 22//22 60//60 63//63
f 22//22 17//17 60//60
f 8//8 5//5 11//11
f 52//52 25//25 43//43
f 52//52 27//27 25//25
f 52//52 62//62 27//27
f 52//52 69//69 62//62
f 52//52 86//86 69//69
f 52//52 105//105 86//86
f 52//52 91//91 105//105
f 52//52 68//68 91//91
f 52//52 34//34 68//68
f 52//52 43//43 34//34
f 151//151 170//170 173//173
f 151//151 147//147 108//108
f 151//151 173//173 147//147
f 174//174 146//146 189//189
f 174//174 192//192 144//144
f 174//174 189//189 192//192
f 141//141 174//174 144//144
f 141//141 146//146 174//174
f 123//123 32//32 105//105
f 123//123 146//146 32//32
f 123//123 153//153 146//146
f 123//123 105//105 153//153
f 161//161 167//167 163//163
f 14//14 4//4 19//19
f 7//7 11//11 20//20
f 7//7 4//4 11//11
f 36//36 28//28 49//49
f 36//36 14//14 28//28
f 36//36 18//18 14//14
f 36//36 125//125 57//57
f 128//128 125//125 142//142
f 128//128 57//57 125//125
f 45//45 62//62 72//72
f 45//45 27//27 62//62
f 45//45 20//20 27//27
f 254//254 243//243 250//250
f 254//254 203//203 243//243
f 275//275 278//278 279//279
f 176//176 208//208 173//173
f 176//176 173//173 170//170
f 172//172 203//203 159//159
f 172//172 182//182 203//203
f 172//172 147//147 182//182
f 172//172 159//159 147//147
f 188//188 226//226 195//195
f 188//188 117//117 226//226
f 111//111 95//95 112//112
f 111//111 118//118 95//95
f 210//210 176//176 170//170
f 210//210 208//208 176//176
f 280//280 230//230 271//271
f 270//270 280//280 271//271
f 270//270 271//271 230//230
f 308//308 302//302 269//269
f 308//308 307//307 309//309
f 114//114 134//134 105//105
f 186//186 216//216 180//180
f 186//186 204//204 216//216
f 186//186 205//205 204//204
f 186//186 134//134 205//205
f 186//186 180//180 134//134
f 183//183 119//119 180//180
f 183//183 179//179 119//119
f 183//183 291//291 179//179
f 183//183 280//280 291//291
f 183//183 230//230 280//280
f 183//183 198//198 230//230
f 183//183 180//180 198//198
f 138//138 147//147 159//159
f 138//138 120//120 147//147
f 109//109 105//105 91//91
f 109//109 114//114 105//105
f 109//109 134//134 114//114
f 109//109 101//101 120//120
f 109//109 91//91 101//101
f 116//116 120//120 101//101
f 116//116 108//108 120//120
f 116//116 101//101 108//108
f 171//171 205//205 134//134
f 171//171 203//203 205//205
f 171//171 159//159 203//203
f 219//219 201//201 224//224
f 219//219 199//199 201//201
f 219//219 200//200 199//199
f 219//219 190//190 200//200
f 219//219 178//178 190//190
f 219//219 212//212 178//178
f 13//13 10//10 14//14
f 13//13 12//12 10//10
f 13//13 33//33 12//12
f 59//59 35//35 74//74
f 59//59 55//55 35//35
f 59//59 74//74 55//55
f 44//44 74//74 35//35
f 84//84 64//64 55//55
f 84//84 76//76 64//64
f 84//84 104//104 76//76
f 286//286 269//269 302//302
f 285//285 278//278 286//286
f 285//285 279//279 278//278
f 268//268 286//286 278//278
f 268//268 269//269 286//286
f 242//242 255//255 240//240
f 242//242 307//307 255//255
f 242//242 239//239 307//307
f 238//238 219//219 224//224
f 238//238 240//240 219//219
f 238//238 242//242 240//240
f 238//238 239//239 242//242
f 238//238 224//224 239//239
f 252//252 227//227 212//212
f 252//252 237//237 227//227
f 252//252 253//253 237//237
f 303//303 309//309 307//307
f 303//303 304//304 309//309
f 301//301 304//304 303//303
f 301//301 292//292 304//304
f 122//122 97//97 107//107
f 122//122 115//115 97//97
f 122//122 131//131 115//115
f 145//145 193//193 191//191
f 145//145 122//122 136//136
f 145//145 131//131 122//122
f 145//145 191//191 131//131
f 77//77 106//106 104//104
f 77//77 74//74 106//106
f 77//77 55//55 74//74
f 77//77 84//84 55//55
f 77//77 104//104 84//84
f 121//121 133//133 136//136
f 121//121 106//106 133//133
f 121//121 104//104 106//106
f 121//121 107//107 104//104
f 121//121 122//122 107//107
f 121//121 136//136 122//122
f 154//154 164//164 158//158
f 154//154 142//142 164//164
f 194//194 164//164 201//201
f 194//194 193//193 164//164
f 194//194 191//191 193//193
f 194//194 201//201 191//191
f 166//166 169//169 164//164
f 166//166 220//220 169//169
f 166//166 223//223 220//220
f 140//140 142//142 125//125
f 140//140 150//150 142//142
f 140//140 126//126 150//150
f 140//140 36//36 126//126
f 265//265 241//241 163//163
f 265//265 163//163 287//287
f 61//61 63//63 47//47
f 61//61 70//70 63//63
f 99//99 88//88 81//81
f 99//99 103//103 88//88
f 99//99 115//115 103//103
f 99//99 97//97 115//115
f 99//99 81//81 97//97
f 58//58 56//56 73//73
f 58//58 53//53 56//56
f 58//58 46//46 53//53
f 58//58 47//47 46//46
f 58//58 61//61 47//47
f 58//58 70//70 61//61
f 58//58 78//78 70//70
f 58//58 73//73 78//78
f 87//87 112//112 90//90
f 87//87 117//117 112//112
f 87//87 89//89 117//117
f 87//87 70//70 89//89
f 87//87 63//63 70//70
f 87//87 85//85 63//63
f 87//87 90//90 85//85
f 79//79 89//89 70//70
f 79//79 78//78 89//89
f 79//79 70//70 78//78
f 124//124 93//93 113//113
f 124//124 108//108 93//93
f 124//124 151//151 108//108
f 124//124 170//170 151//151
f 162//162 160//160 192//192
f 162//162 167//167 161//161
f 162//162 287//287 167//167
f 162//162 192//192 287//287
f 148//148 161//161 135//135
f 148//148 162//162 161//161
f 148//148 160//160 162//162
f 148//148 144//144 160//160
f 148//148 135//135 144//144
f 156//156 161//161 163//163
f 156//156 163//163 129//129
f 6//6 14//14 10//10
f 6//6 4//4 14//14
f 6//6 12//12 4//4
f 6//6 10//10 12//12
f 24//24 4//4 7//7
f 24//24 32//32 50//50
f 67//67 36//36 49//49
f 67//67 126//126 36//36
f 67//67 129//129 126//126
f 67//67 156//156 129//129
f 67//67 161//161 156//156
f 67//67 135//135 161//161
f 67//67 144//144 135//135
f 83//83 50//50 32//32
f 83//83 144//144 50//50
f 83//83 141//141 144//144
f 83//83 146//146 141//141
f 83//83 32//32 146//146
f 92//92 106//106 74//74
f 102//102 74//74 44//44
f 273//273 254//254 279//279
f 273//273 263//263 254//254
f 272//272 254//254 250//250
f 272//272 279//279 254//254
f 272//272 275//275 279//279
f 272//272 278//278 275//275
f 272//272 268//268 278//278
f 272//272 264//264 268//268
f 272//272 250//250 264//264
f 130//130 124//124 113//113
f 130//130 118//118 175//175
f 130//130 113//113 118//118
f 149//149 175//175 118//118
f 149//149 188//188 195//195
f 149//149 117//117 188//188
f 149//149 112//112 117//117
f 149//149 111//111 112//112
f 149//149 118//118 111//111
f 257//257 253//253 259//259
f 257//257 248//248 253//253
f 267//267 308//308 269//269
f 267//267 307//307 308//308
f 260//260 268//268 264//264
f 260//260 269//269 268//268
f 260//260 267//267 269//269
f 260//260 261//261 267//267
f 260//260 264//264 231//231
f 214//214 231//231 250//250
f 214//214 210//210 231//231
f 211//211 243//243 203//203
f 211//211 250//250 243//243
f 211//211 214//214 250//250
f 211//211 210//210 214//214
f 211//211 208//208 210//210
f 211//211 203//203 208//208
f 298//298 290//290 293//293
f 300//300 305//305 304//304
f 300//300 292//292 291//291
f 300//300 304//304 292//292
f 274//274 280//280 270//270
f 251//251 270//270 230//230
f 251//251 274//274 270//270
f 251//251 263//263 274//274
f 251//251 254//254 263//263
f 251//251 203//203 254//254
f 251//251 205//205 203//203
f 251//251 228//228 205//205
f 251//251 230//230 228//228
f 127//127 120//120 138//138
f 127//127 109//109 120//120
f 127//127 134//134 109//109
f 127//127 171//171 134//134
f 127//127 159//159 171//171
f 225//225 212//212 219//219
f 233//233 235//235 219//219
f 233//233 240//240 235//235
f 42//42 33//33 13//13
f 42//42 39//39 33//33
f 42//42 48//48 39//39
f 42//42 82//82 65//65
f 42//42 64//64 76//76
f 42//42 55//55 64//64
f 21//21 14//14 18//18
f 21//21 13//13 14//14
f 21//21 44//44 35//35
f 258//258 240//240 255//255
f 258//258 252//252 240//240
f 258//258 262//262 307//307
f 258//258 255//255 262//262
f 256//256 252//252 258//258
f 256//256 253//253 252//252
f 256//256 259//259 253//253
f 244//244 219//219 235//235
f 244//244 225//225 219//219
f 244//244 212//212 225//225
f 244//244 252//252 212//212
f 244//244 235//235 240//240
f 139//139 193//193 145//145
f 155//155 163//163 165//165
f 155//155 150//150 163//163
f 155//155 142//142 150//150
f 96//96 140//140 125//125
f 96//96 36//36 140//140
f 96//96 125//125 36//36
f 288//288 292//292 301//301
f 288//288 287//287 292//292
f 288//288 241//241 287//287
f 247//247 232//232 241//241
f 247//247 223//223 232//232
f 37//37 14//14 19//19
f 37//37 28//28 14//14
f 37//37 49//49 28//28
f 37//37 67//67 49//49
f 37//37 50//50 67//67
f 37//37 24//24 50//50
f 37//37 4//4 24//24
f 37//37 19//19 4//4
f 30//30 20//20 45//45
f 30//30 7//7 20//20
f 30//30 24//24 7//7
f 30//30 32//32 24//24
f 30//30 72//72 32//32
f 30//30 45//45 72//72
f 75//75 67//67 50//50
f 75//75 144//144 67//67
f 75//75 50//50 144//144
f 110//110 106//106 92//92
f 110//110 102//102 128//128
f 110//110 74//74 102//102
f 110//110 92//92 74//74
f 38//38 36//36 57//57
f 38//38 18//18 36//36
f 38//38 21//21 18//18
f 38//38 44//44 21//21
f 38//38 102//102 44//44
f 38//38 128//128 102//102
f 38//38 57//57 128//128
f 143//143 130//130 175//175
f 143//143 124//124 130//130
f 143//143 170//170 124//124
f 185//185 149//149 195//195
f 185//185 175//175 149//149
f 185//185 184//184 175//175
f 245//245 260//260 246//246
f 245//245 261//261 260//260
f 245//245 257//257 261//261
f 245//245 248//248 257//257
f 245//245 226//226 248//248
f 295//295 279//279 285//285
f 295//295 298//298 293//293
f 295//295 286//286 302//302
f 295//295 285//285 286//286
f 299//299 295//295 302//302
f 299//299 298//298 295//295
f 296//296 298//298 300//300
f 296//296 290//290 298//298
f 306//306 308//308 309//309
f 306//306 302//302 308//308
f 306//306 299//299 302//302
f 306//306 298//298 299//299
f 306//306 300//300 298//298
f 306//306 305//305 300//300
f 306//306 309//309 305//305
f 277//277 263//263 273//273
f 277//277 274//274 263//263
f 277//277 280//280 274//274
f 152//152 127//127 138//138
f 152//152 159//159 127//127
f 152//152 138//138 159//159
f 236//236 233//233 219//219
f 236//236 240//240 233//233
f 236//236 219//219 240//240
f 29//29 55//55 42//42
f 29//29 35//35 55//55
f 51//51 42//42 65//65
f 51//51 48//48 42//42
f 51//51 65//65 48//48
f 71//71 42//42 76//76
f 71//71 82//82 42//42
f 71//71 97//97 82//82
f 71//71 76//76 97//97
f 266//266 307//307 267//267
f 266//266 258//258 307//307
f 266//266 256//256 258//258
f 266//266 259//259 256//256
f 266//266 257//257 259//259
f 266//266 261//261 257//257
f 266//266 267//267 261//261
f 249//249 244//244 240//240
f 249//249 252//252 244//244
f 249//249 240//240 252//252
f 137//137 139//139 145//145
f 137//137 193//193 139//139
f 137//137 158//158 193//193
f 137//137 154//154 158//158
f 137//137 142//142 154//154
f 137//137 128//128 142//142
f 137//137 110//110 128//128
f 137//137 106//106 110//110
f 137//137 133//133 106//106
f 137//137 136//136 133//133
f 137//137 145//145 136//136
f 168//168 155//155 165//165
f 168//168 166//166 155//155
f 168//168 223//223 166//166
f 168//168 232//232 223//223
f 168//168 241//241 232//232
f 168//168 165//165 241//241
f 157//157 166//166 164//164
f 157//157 155//155 166//166
f 157//157 142//142 155//155
f 157//157 164//164 142//142
f 297//297 224//224 220//220
f 297//297 239//239 224//224
f 297//297 307//307 239//239
f 297//297 303//303 307//307
f 297//297 301//301 303//303
f 297//297 288//288 301//301
f 283//283 241//241 288//288
f 283//283 247//247 241//241
f 283//283 223//223 247//247
f 283//283 220//220 223//223
f 283//283 297//297 220//220
f 283//283 288//288 297//297
f 177//177 175//175 184//184
f 177//177 143//143 175//175
f 177//177 170//170 143//143
f 177//177 184//184 170//170
f 187//187 170//170 184//184
f 187//187 210//210 170//170
f 187//187 209//209 210//210
f 222//222 187//187 184//184
f 222//222 184//184 185//185
f 217//217 222//222 185//185
f 217//217 245//245 222//222
f 217//217 195//195 245//245
f 215//215 195//195 226//226
f 289//289 296//296 300//300
f 289//289 290//290 296//296
f 289//289 277//277 290//290
f 289//289 280//280 277//277
f 282//282 295//295 293//293
f 282//282 279//279 295//295
f 282//282 273//273 279//279
f 282//282 277//277 273//273
f 282//282 290//290 277//277
f 282//282 293//293 290//290
f 31//31 29//29 42//42
f 26//26 13//13 21//21
f 26//26 42//42 13//13
f 26//26 31//31 42//42
f 26//26 29//29 31//31
f 26//26 35//35 29//29
f 26//26 21//21 35//35
f 213//213 187//187 222//222
f 213//213 209//209 187//187
f 229//229 231//231 210//210
f 229//229 213//213 222//222
f 229//229 209//209 213//213
f 229//229 210//210 209//209
f 197//197 217//217 185//185
f 197//197 195//195 217//217
f 197//197 185//185 195//195
f 221//221 215//215 226//226
f 221//221 245//245 215//215
f 221//221 226//226 245//245
f 206//206 215//215 245//245
f 206//206 245//245 195//195
f 294//294 300//300 291//291
f 294//294 289//289 300//300
f 294//294 280//280 289//289
f 294//294 291//291 280//280
f 234//234 245//245 246//246
f 234//234 222//222 245//245
f 234//234 229//229 222//222
f 234//234 231//231 229//229
f 234//234 260//260 231//231
f 234//234 246//246 260//260
f 8//8 11//11 4//4
f 5//5 8//8 4//4
f 206//206 195//195 215//215
f 265//265 287//287 241//241
