# OBJ
# COMPAS
# version: 2.1.0
# precision: 3
# V F E: 155 306 459

o Mesh 0
v 33.608 -7.539 14.500
v 33.500 -7.759 12.512
v 33.577 -7.775 14.372
v 33.536 -7.536 14.751
v 33.481 -7.842 14.045
v 33.393 -7.843 12.369
v 33.443 -7.745 14.631
v 33.297 -7.858 11.984
v 33.356 -7.840 14.388
v 32.880 -7.770 3.683
v 33.328 -7.443 14.863
v 32.794 -7.705 2.312
v 32.731 -7.652 1.334
v 33.255 -7.650 14.798
v 32.642 -7.647 0.189
v 32.608 -7.759 0.257
v 32.568 -7.790 0.097
v 32.538 -7.580 -0.012
v 33.124 -7.486 14.925
v 33.020 -7.848 13.557
v 33.051 7.182 14.716
v 33.058 6.993 14.962
v 32.335 -7.496 -0.044
v 32.335 -7.789 -0.026
v 32.944 7.296 14.906
v 32.855 7.320 14.058
v 32.868 7.073 15.079
v 32.859 -7.475 14.963
v 32.793 7.406 14.385
v 32.805 7.276 15.029
v 32.739 -7.625 14.978
v 32.625 7.436 13.885
v 32.676 7.206 15.141
v 32.002 -7.770 -0.086
v 32.541 7.424 14.859
v 32.507 -7.702 15.005
v 31.810 -7.563 -0.123
v 32.405 -7.828 14.778
v 32.369 7.194 15.203
v 32.092 -7.629 15.070
v 31.951 7.502 14.035
v 31.947 -7.770 15.012
v 31.827 7.307 15.292
v 31.436 7.385 15.294
v 31.385 7.510 14.771
v 30.795 7.382 0.984
v 30.751 7.287 0.642
v 31.280 7.538 13.677
v 31.185 -7.846 14.920
v 30.563 7.625 0.821
v 30.521 7.085 0.167
v 30.478 7.568 0.348
v 30.420 7.371 0.120
v 30.678 7.452 15.170
v 29.962 7.731 0.704
v 29.793 7.594 0.267
v 29.711 -7.672 0.014
v 28.863 7.570 0.316
v 27.349 7.717 0.588
v 26.816 -7.738 0.307
v 27.137 -7.861 15.201
v 26.817 -7.847 15.304
v 25.563 -7.729 0.425
v 25.286 -7.720 0.438
v 24.246 -7.800 15.495
v 23.445 -7.632 0.486
v 23.736 7.420 15.943
v 23.390 -7.755 15.609
v 23.080 -7.556 15.653
v 23.061 -7.775 15.521
v 22.000 -7.648 0.684
v 22.602 -7.690 15.636
v 21.855 -7.678 0.905
v 22.433 -7.372 15.657
v 21.750 -7.563 0.669
v 21.667 7.518 16.070
v 20.854 -7.600 0.783
v 20.604 -7.617 0.838
v 21.174 7.709 15.839
v 21.071 -7.682 15.626
v 20.189 -7.659 1.374
v 20.142 7.686 1.067
v 20.661 7.560 16.070
v 20.593 7.646 15.860
v 20.399 -7.762 15.390
v 19.605 -7.706 2.177
v 19.362 7.861 1.700
v 19.916 7.558 16.012
v 19.205 7.479 0.970
v 19.154 7.756 1.210
v 19.747 7.443 16.195
v 19.535 7.517 16.020
v 19.386 7.340 16.194
v 18.729 7.592 1.084
v 19.329 7.512 15.854
v 19.163 -7.779 15.080
v 19.160 -7.610 15.199
v 19.164 7.398 16.147
v 19.105 7.059 16.169
v 19.062 7.461 15.777
v 18.409 7.809 1.588
v 18.367 7.456 1.124
v 18.912 6.818 16.080
v 18.852 -7.665 15.071
v 18.864 7.168 16.051
v 18.788 -7.752 14.829
v 18.656 7.500 13.332
v 18.746 6.934 15.875
v 18.729 7.210 15.731
v 18.611 -7.697 14.896
v 18.043 7.550 1.296
v 18.031 7.243 1.150
v 18.282 7.654 7.522
v 18.579 -7.485 14.837
v 18.487 -7.744 12.680
v 18.556 -7.706 14.610
v 18.383 -7.745 10.903
v 18.442 7.373 12.352
v 17.955 7.652 2.136
v 18.379 -7.729 13.015
v 17.879 7.560 1.615
v 18.394 -7.620 14.337
v 18.365 -7.637 13.889
v 18.384 -6.939 14.421
v 17.814 7.074 1.306
v 17.919 7.689 3.985
v 18.324 -7.284 13.906
v 18.300 -5.862 13.866
v 17.780 7.350 1.346
v 18.270 -7.574 13.221
v 17.884 -7.663 3.951
v 17.823 7.614 2.669
v 18.011 -7.699 7.714
v 17.751 7.371 1.895
v 18.205 0.350 13.324
v 17.703 7.231 1.582
v 18.179 -1.410 13.197
v 17.915 7.481 6.880
v 17.704 7.336 2.647
v 18.012 4.244 11.903
v 17.593 -7.635 2.690
v 17.859 6.220 9.602
v 17.827 6.289 9.162
v 17.522 -7.611 2.433
v 17.574 -7.626 3.756
v 17.665 7.282 6.381
v 17.681 7.135 6.777
v 17.685 6.957 6.991
v 17.644 7.004 6.461
v 17.621 7.020 6.096
v 17.451 -7.350 2.251
v 17.376 -7.517 2.324
v 17.365 -7.535 2.555
v 17.373 -7.575 2.911
v 17.345 3.377 2.467
f 55 87 79
f 155 129 152
f 108 109 140
f 101 113 79
f 101 79 87
f 69 67 91
f 125 129 112
f 125 152 129
f 102 94 89
f 102 89 112
f 142 140 109
f 92 98 91
f 23 18 37
f 24 61 86
f 111 101 94
f 111 94 102
f 111 102 112
f 111 112 129
f 32 50 55
f 44 67 43
f 136 129 155
f 126 113 101
f 138 126 146
f 77 78 112
f 77 112 89
f 144 152 78
f 151 112 78
f 151 78 152
f 151 152 125
f 151 125 112
f 46 50 26
f 147 146 149
f 147 142 109
f 147 109 146
f 143 155 140
f 143 140 142
f 143 142 149
f 143 149 155
f 88 79 92
f 88 92 91
f 88 91 83
f 88 83 79
f 95 98 92
f 95 79 113
f 105 98 109
f 105 109 108
f 135 124 108
f 135 108 140
f 63 24 86
f 34 18 24
f 34 37 18
f 17 24 18
f 52 50 46
f 52 56 55
f 52 55 50
f 90 101 87
f 90 94 101
f 41 32 55
f 54 79 44
f 54 44 45
f 54 45 79
f 118 146 109
f 150 136 155
f 150 155 149
f 150 149 146
f 139 136 150
f 139 150 146
f 132 136 139
f 132 139 146
f 132 146 126
f 154 122 130
f 154 140 155
f 75 66 77
f 75 77 89
f 75 89 66
f 131 86 117
f 76 67 44
f 76 44 79
f 76 79 83
f 76 83 91
f 76 91 67
f 40 43 67
f 40 67 69
f 36 14 31
f 36 31 40
f 36 40 42
f 4 1 22
f 3 2 1
f 3 1 4
f 99 98 105
f 99 105 103
f 74 80 69
f 39 33 43
f 47 52 46
f 47 18 51
f 148 142 147
f 148 147 149
f 148 149 142
f 84 79 95
f 84 95 92
f 84 92 79
f 127 124 128
f 127 128 154
f 127 154 130
f 127 130 122
f 127 122 124
f 137 128 124
f 137 124 135
f 137 135 140
f 137 140 154
f 137 154 128
f 71 78 77
f 71 77 66
f 57 37 34
f 57 34 66
f 60 66 34
f 60 34 24
f 60 24 63
f 20 9 49
f 53 56 52
f 53 52 47
f 53 47 51
f 53 51 18
f 53 18 23
f 53 23 37
f 53 37 57
f 53 57 66
f 53 66 89
f 82 94 90
f 82 90 56
f 82 56 94
f 59 55 56
f 59 56 90
f 59 90 87
f 59 87 55
f 48 45 41
f 48 41 55
f 48 55 79
f 48 79 45
f 107 118 109
f 107 95 113
f 107 113 126
f 107 126 138
f 107 138 146
f 107 146 118
f 121 129 132
f 121 101 111
f 121 111 129
f 134 136 132
f 134 132 129
f 134 129 136
f 133 131 117
f 153 152 144
f 153 144 154
f 153 154 155
f 153 155 152
f 38 42 49
f 38 49 9
f 38 36 42
f 27 4 22
f 27 22 25
f 19 31 14
f 19 14 4
f 19 33 39
f 19 39 43
f 21 2 13
f 21 46 26
f 21 25 22
f 21 22 1
f 21 1 2
f 10 2 6
f 10 6 17
f 10 17 16
f 110 105 108
f 110 124 122
f 110 122 116
f 110 104 103
f 110 103 105
f 97 80 99
f 97 99 103
f 97 103 104
f 93 91 98
f 93 98 99
f 93 99 80
f 93 80 74
f 93 74 69
f 93 69 91
f 68 40 69
f 68 80 85
f 68 42 40
f 62 42 68
f 62 68 65
f 62 65 61
f 62 61 49
f 62 49 42
f 29 25 21
f 29 21 26
f 29 26 50
f 29 50 32
f 30 43 33
f 30 33 27
f 30 27 25
f 30 44 43
f 64 63 71
f 64 71 66
f 64 66 60
f 64 60 63
f 73 78 71
f 73 71 63
f 73 63 86
f 58 56 53
f 58 53 89
f 58 89 94
f 58 94 56
f 100 98 95
f 100 95 107
f 100 107 109
f 100 109 98
f 119 101 121
f 119 121 132
f 119 132 126
f 119 126 101
f 141 144 86
f 141 86 131
f 141 131 133
f 141 154 144
f 7 36 38
f 7 38 9
f 7 9 3
f 7 3 4
f 7 4 14
f 7 14 36
f 28 31 19
f 28 19 43
f 28 43 40
f 28 40 31
f 11 27 33
f 11 33 19
f 11 19 4
f 11 4 27
f 8 20 49
f 8 49 61
f 8 61 24
f 8 24 17
f 8 17 6
f 5 3 9
f 5 9 20
f 5 20 8
f 5 8 6
f 5 6 2
f 5 2 3
f 15 16 17
f 15 17 18
f 15 18 47
f 15 47 46
f 15 46 21
f 15 21 13
f 120 133 117
f 120 116 122
f 114 124 110
f 114 110 108
f 114 108 124
f 72 80 68
f 72 68 69
f 72 69 80
f 70 65 68
f 70 68 85
f 70 85 65
f 35 41 45
f 35 45 44
f 35 44 30
f 35 30 25
f 35 25 29
f 35 29 32
f 35 32 41
f 81 78 73
f 81 73 86
f 81 86 144
f 81 144 78
f 145 154 141
f 145 141 133
f 145 133 120
f 145 120 154
f 12 10 16
f 12 16 15
f 12 15 13
f 12 13 2
f 12 2 10
f 123 154 120
f 123 120 122
f 123 122 154
f 96 85 80
f 96 80 97
f 96 97 104
f 96 104 110
f 96 117 86
f 96 86 61
f 96 61 65
f 96 65 85
f 106 116 120
f 106 96 110
f 106 110 116
f 115 117 96
f 115 96 106
f 115 106 120
f 115 120 117
