# Rhino

mtllib 19.06_sbe_l_27.mtl
usemtl diffuse_0_0_0_255
v 96.699025459122083 13.018417029280869 -6.3813439726829522
v 96.670034341345342 12.963696974073422 -4.166655957698822
v 96.670676723546308 12.976803335809951 -4.0105745673179616
v 96.692900372339977 13.15862108920715 -6.6005034804344174
v 96.657751141661436 12.919314779394783 -5.6887230277061462
v 96.702020261044595 13.388198401861056 -6.765143477916717
v 96.642428271671861 12.958795047571613 -1.3240290045738217
v 96.631626609579655 12.926925419813172 -6.1746119856834412
v 96.66214002475931 13.194386128536586 -6.8749784350395196
v 96.617369588527538 12.915732171013445 -1.5732405066490163
v 96.641430230111212 13.144727501642652 0.99978538751602208
v 96.612026215970161 12.965847822703831 -6.7242040038108826
v 96.595586289283403 12.852448677734065 -4.2598642706871033
v 96.655866833061168 13.471571552449168 -6.9243884444236752
v 96.683191022770302 13.685841555557763 -5.4296276450157155
v 96.580009360566123 12.904337284830074 -6.0491442084312439
v 96.552821912418608 12.834484619906419 -4.0210901618003838
v 96.651289921138357 13.619567743958491 -1.3551576972007746
v 96.668997984918121 13.799679579245856 -4.073171079158783
v 96.659115987895802 13.79798759588915 -6.8947396159172056
v 96.591246391599896 13.368503824428606 -7.0071331381797783
v 96.673493891855173 14.048456747424078 -5.5952175498008723
v 96.558641625498751 13.297123239494276 7.1542195916175846
v 96.56155445177717 13.41062377695663 7.294014513492586
v 96.532300461753778 13.215677170478548 7.3459676384925849
v 96.647225229793264 14.259308857980578 -6.6096207976341246
v 96.64208351773101 14.260552555947987 -3.9350912451744073
v 96.487773599095135 13.113250485459503 7.0765660881996162
v 96.5183712025094 13.384203106597223 7.5107564568519596
v 96.49177460298597 13.258835606791802 -7.0194019675254822
v 96.477853553612533 13.226717770324623 7.4947911858558669
v 96.512700544168865 13.593290886687811 7.5636006951332106
v 96.406116759358724 12.888771304044875 -5.8486139655113218
v 96.423302512264513 13.029158630641902 -6.9061218619346612
v 96.546357484559394 14.05145203843351 7.4655507683753974
v 96.470766618271 13.597596882494084 -7.0706664443016045
v 96.570661120960551 14.386879848888453 -6.908278834819793
v 96.507059882167482 13.946329723903991 7.596657335758211
v 96.597487722838423 14.753422907984726 -5.4781986594200127
v 96.3944818343017 13.212685862097441 7.6164266228675856
v 96.506202631642793 14.150655716799918 7.5981877923011787
v 96.367544750853597 13.084580643921651 7.4426183342933658
v 96.32016590115353 12.837035233528933 -4.0354563117027276
v 96.539229249770074 14.666290230410462 -6.8811423182487488
v 96.511764476104418 14.510726749656607 7.4511525750160228
v 96.320655903931254 13.070387141123325 7.2715367913246158
v 96.263899195096599 13.123095151440038 7.6371282219886787
v 96.277129327538717 13.253587034577793 7.6702169060707099
v 96.243611856772475 13.013335826896322 -6.9732456564903256
v 96.500606646999813 15.13773685616099 -4.006581723690033
v 96.456878359273389 14.800059175806231 7.4968251824378971
v 96.484434281887616 15.05256825488194 -6.8470894217491143
v 96.413259108967225 14.574418582113029 7.6154927849769596
v 96.44591761848983 14.926710116231686 6.4861745476722721
v 96.194665686919905 13.249492551715615 -7.1126132130622857
v 96.131694638097258 13.0538905896682 7.337512743473054
v 96.405799427181648 15.313310321276838 -7.0101535677909848
v 96.372090266810005 15.083627424400859 7.5463674187660228
v 96.384150209283348 15.208457900722118 7.3514516472816478
v 96.425507072735797 15.540781844304739 -6.6357403159141537
v 96.092141869570696 13.061725700823928 7.560199511051179
v 96.36497360644023 15.242158201879349 -7.1147090792655945
v 96.256110006585004 14.561715972480577 7.6443486809730548
v 96.052987987601057 12.995565354298147 -6.9780438303947445
v 96.360263821246861 15.464010966729813 -7.080258309841156
v 96.366133552619544 15.546876945834349 -6.949287545680999
v 96.319245295581311 15.475319841543307 7.2890477776527423
v 96.338135671295163 15.813813712526811 -6.5475127577781675
v 95.970788170755384 13.088863042516591 -7.1023686766624445
v 96.230670045962597 15.299945229027212 -7.1714243769645689
v 96.259833183688443 15.738506659086083 7.1467717766761787
v 96.268093844154123 15.984270741796397 -6.4815557837486262
v 96.176976544880688 15.460761114806772 -7.1814364790916443
v 95.865085067799043 13.055962914608831 7.4517751336097735
v 95.86679743387441 13.119801054842151 7.6536504387855544
v 96.235916615911492 16.040245438508808 -6.6707438826560974
v 96.206373858991583 16.029181534620527 1.5241315484046947
v 95.949765689422065 14.045198188692972 -7.2317658782005303
v 95.763866911044317 12.993210905120238 -7.007646453380584
v 95.757272949048854 13.023015699196671 6.595070421695711
v 96.145403953864786 16.316569651112367 -4.9253172278404236
v 95.729886497043879 13.232134007392716 -7.2155943989753721
v 96.111554315716717 16.355360633570982 -6.7029147505760189
v 96.060798187211276 16.230275396242565 7.2973699212074283
v 95.997425886691019 15.846629646278823 -7.2113192677497864
v 96.05543251982084 16.359527959485781 4.5558766961097721
v 96.061183089947065 16.491561182070932 -3.56216949224472
v 95.925151652644558 15.583912884378678 7.6544866204261783
v 95.994067044382518 16.523856723625908 -6.9802395224571221
v 95.935510913037547 16.727126350796514 -1.6779772162437432
v 95.936138279360193 16.754036562438795 -6.6819197058677666
v 95.893536852677869 16.704338913034718 6.9004735589027408
v 95.887400054578563 16.864002084727673 -5.8200268149375916
v 95.391752839759079 13.140882764847291 -7.182703816890716
v 95.845434770299221 16.748483137475102 7.4365666985511787
v 95.740613554220886 15.963135791309181 7.6543233513832103
v 95.856349308069525 16.905126623152611 -3.095449292659759
v 95.825152945331922 16.927745074270472 -6.9418593287467951
v 95.79400105983882 17.046735524615727 -4.4874204993247986
v 95.719218274599427 16.76035400274619 7.5760152459144603
v 95.732954070404674 16.932811748238077 7.4811757683753974
v 95.685696331199892 16.748371664568587 -7.171104753017425
v 95.695694099699722 17.198640580600049 -6.7495143771171566
v 95.696706348375585 17.225879758304846 -6.5138435721397396
v 95.605748700269601 16.650077220042014 7.6303456902503974
v 95.649714756879234 17.307228530995346 -3.3010721564292904
v 95.613541581758909 17.2764675695514 7.4317235589027408
v 95.602671279356059 17.240240999708277 -7.1040666699409485
v 95.018483694958036 12.946193941317063 -6.97610296010971
v 95.519321745954528 17.307841977034954 7.5241536736488346
v 95.472777202409702 16.974344093468655 7.6245092034339912
v 95.505556762708522 17.462120702900879 5.7560536980628978
v 94.88438006337617 12.875224284914156 -6.8713611960411072
v 95.262193437222891 16.050327359456567 -7.3717570781707762
v 95.382003217654699 17.235552957175948 7.6073018670082106
v 95.322728362593352 17.804447363445277 -6.9271153807640076
v 95.230570460567264 17.181241233683238 7.6331517815589915
v 95.311719012055732 17.856357799633358 -6.7159003615379333
v 95.191223316545461 16.968664263818361 -7.3162286520004267
v 95.286440827245258 17.823640467081582 -7.0723256945610045
v 95.230136423157433 17.886546484652985 6.887775194644929
v 95.207241095874565 17.886577201892656 7.3758748650550849
v 95.000412441699552 16.377118159191745 7.6500447869300849
v 95.186053910495843 17.830293035392955 7.5276662468910231
v 95.070510675554829 17.728964767263449 7.6054051995277412
v 95.110617231975823 18.109793116298892 -5.5074392676353447
v 95.077341871191265 18.087805204392406 6.9215047478675853
v 95.045216146526172 18.181555489821573 -2.9781893134117121
v 94.325632179323748 13.072118144568098 7.5916005730628981
v 94.982511226933923 18.278073218337834 -6.990886390209198
v 94.832469484417004 18.442766091427956 -3.2415834784507744
v 94.778459409116124 18.285736335294253 -7.2927771925926201
v 94.801207481430708 18.477187100878872 -7.058254516124725
v 94.783897301093987 18.464649122351997 7.0668431878089919
v 94.496308364729998 16.364994363891611 -7.5087345153093334
v 94.651456378691819 18.626189601416957 -7.1449442744255061
v 94.602683031040954 18.702449061767091 -1.574605023860931
v 94.586579180915692 18.719259486782288 -6.9919428706169127
v 94.558412113266627 18.708845963039185 6.8833577752113353
v 94.424093463121437 18.555927505277928 -7.3090358614921564
v 94.458166975268739 18.838027636368068 1.8046376824378978
v 94.443624232955131 18.860581710352406 -6.7248008131980894
v 94.432566658833196 18.788219199625264 7.3680089592933662
v 94.35385537642037 18.943958931210762 -5.1084160208702087
v 94.310728876402777 18.962054386388981 7.2569310784339915
v 94.308848821171694 18.985212751871021 -6.2106399893760678
v 94.247576530161723 19.029626126433016 6.0244786858558665
v 94.229441623713683 18.918633573504842 -7.2290278077125549
v 94.155423659210214 19.129332092047598 2.9850705742836006
v 94.116557003073012 19.111525612110551 -7.1252695202827452
v 94.045162779618749 19.22922355701327 -1.7279631018638604
v 94.041861193377031 19.213040848709028 7.409595263004304
v 93.980494996359369 19.285040696584701 2.7385060906410228
v 93.888347808525964 19.359787918909827 7.1584951043128981
v 93.868518491290104 19.375792926955913 -7.0000319838523861
v 93.8480497700412 19.330510270609672 7.5175069451332099
v 93.817916615289562 19.280755928304679 -7.2081341385841364
v 93.771623491208743 19.251211545811216 7.5800679802894599
v 93.708281914609586 19.500462170745916 -4.6163833975791926
v 93.584102696743741 19.586341491867017 -6.8502410292625422
v 93.529962389838772 19.641177732954326 7.0928411126136783
v 92.869450779475301 14.70346912946896 -7.4861279636621472
v 93.484629703442238 19.645869796345512 7.3764470696449287
v 93.467334882726732 19.524164784025206 7.5609182000160224
v 93.377493473391098 19.758004940857525 5.9455464959144599
v 92.517999971960933 13.646412118717638 -7.4151067972183222
v 93.271194656207228 19.546345730760422 7.5966664910316481
v 93.24919794676066 19.823458795492719 -6.921334445476532
v 92.25540966672537 13.267775184962577 7.640216600894929
v 92.273072002973322 13.581208888380027 -7.4045463442802424
v 93.084151201564282 19.946874896369035 7.0817311882972724
v 93.043285274668506 19.862243195366393 -7.198911798000335
v 92.945229903118616 20.0293585945766 5.1835477471351634
v 92.934632875128955 20.023270107821844 7.385608446598054
v 92.039375823260514 13.340074842318307 -7.3145798325538633
v 92.853569084359435 20.054028160942849 -6.9250791430473324
v 92.816580355186773 20.098145787226386 1.0600339531898513
v 92.77028946779393 20.064141912059537 7.5168172478675856
v 92.725453120091402 20.157708651407212 4.7666761040687575
v 92.672314554760874 20.161334242540629 -6.3280685782432551
v 92.655125661362092 20.198503663515851 7.3704625725746169
v 92.615143116335219 20.149301890902908 7.5059651970863346
v 92.617849742892474 20.208404421692897 1.6751638054847717
v 92.52558565635826 20.233629826271848 -7.0732212424278256
v 92.511904367993054 20.270200378313461 7.2026113152503974
v 92.424695380323044 20.114041787055832 -7.3027520418167109
v 92.276337432939044 20.390864881376864 5.9712422966957099
v 92.260655114442386 20.383150493166426 -4.5008926749229428
v 92.23229655716284 20.409637817089578 6.3250646233558658
v 92.214475213257685 20.350088100974773 -7.1572019696235651
v 92.144269782104743 20.45222100444947 3.8971044182777419
v 92.084647200832421 20.300271511797032 7.5530385613441471
v 91.909319650555972 20.559981611419794 -5.5933704733848568
v 91.875471067244746 20.458134602690684 -7.2799458146095271
v 91.849678884724085 20.575672433849395 7.344165575504304
v 91.832130210986691 20.512522522995365 7.523731005191804
v 91.794315998160187 20.320517575299395 7.5810033440589919
v 91.793396996840897 20.603720915473197 7.1379369378089912
v 91.72048514461585 20.621577488942322 -5.6750669836997982
v 91.681416921047514 20.527665966130503 -7.3139256715774534
v 91.617655947245339 20.64951834392896 7.4397298455238356
v 91.480036495842853 20.344185064218379 -7.4121124029159544
v 91.514271431567352 20.700825849814915 7.2559972405433673
v 91.44106518306188 20.587663121802265 7.5516881585121158
v 91.428789069745505 20.73760131456509 4.9258969902992256
v 91.40774398875476 20.711087848389138 -7.1622542023658751
v 91.344805546654584 20.760314767957301 7.0036290764808662
v 91.287788754954875 20.7833404803931 5.4534886956214912
v 91.119945260926272 20.828858068552833 7.3543447136878974
v 91.081848791104392 20.797851872934608 7.5000218987464908
v 91.05150924092851 20.598479767677478 7.5734410881996173
v 91.072843711131497 20.789814991546265 -7.1246071696281428
v 91.023805854960528 20.866980461538095 7.1794057488441485
v 90.938159495149023 20.885566701283334 7.2618703484535221
v 90.902883599606128 20.611040475774246 -7.4227302312850947
v 90.641555780361273 20.78398005247967 -7.2790510058403015
v 90.624503524047896 20.895939834542737 -5.9674239516258236
v 90.588956728546918 20.891952871828622 7.5326345086097728
v 90.578983537456054 20.9605641622726 7.253700792789461
v 90.535428144145101 20.976577249179137 6.5070562005043033
v 90.461822502721873 20.90713132750663 -7.0356583952903744
v 90.462216058311242 20.94488706781981 -3.6113016486167901
v 90.347571037498824 20.991506532381145 7.4501653313636798
v 90.318099476328541 21.00639607454406 7.285632860660554
v 90.302590903821738 21.019456073039589 6.5677907586097728
v 90.231934271851856 20.9441366730867 7.5511388421058658
v 90.187170266118358 21.039325974400146 5.4913076043128974
v 90.147038239003223 21.012324991541263 7.4957540154457103
v 90.140835036247438 21.019860541536605 -0.47495521306991506
v 90.104229592829711 20.964050783636793 -6.7425808787345884
v 90.070068419127324 20.853765063187446 7.5703893303871173
v 89.996983533202865 20.974411519774002 -7.0693067431449883
v 89.935892683103077 21.047029469987478 7.4465047478675856
v 89.917349540016914 21.078838297260098 7.2575505852699287
v 89.839774445745491 20.956488495770998 -7.2081326365470879
v 89.774774798192652 21.084575270002563 7.3190953850746165
v 89.725205917124811 21.051385023214184 -3.5812807440757748
v 88.684512096104186 13.087407817887595 -7.1019044995307921
v 89.660929830880377 21.003456000913609 -6.943606507778167
v 89.527495806076672 21.115646115827417 6.6622624993324298
v 89.465658759674341 21.016692018403813 -6.5268478751182553
v 89.445544861500082 21.079057049627878 7.4758000969886798
v 89.297549349039002 20.958523010844079 7.5701924920082106
v 89.297043027155098 21.015697111735861 -6.8511515021324154
v 89.240408090016444 21.130487048441985 7.2560582756996173
v 89.203225881417211 21.065383285348176 -4.1142469763755791
v 89.095547218827335 21.041283515224713 7.5325749993324287
v 89.044595277199676 20.910531635148295 7.5736074090003971
v 89.068724513885854 21.127705471545358 6.9388021111488349
v 88.994552651034098 21.01252019921057 -7.0342420458793633
v 88.867422906242666 21.12243884624425 7.1406499505043044
v 88.804383228027405 20.85104630750919 -7.3733038187026976
v 88.827580959319675 21.082535119051286 -2.9629774451255795
v 88.815252816685813 21.053504096410464 -4.8956446051597595
v 88.799932293455072 21.123603724721733 6.660999071598054
v 88.742374883801517 21.018350824927488 -6.8896993041038508
v 88.55717631382106 21.039886368253367 7.5071111321449298
v 88.501120820031133 20.940085880241249 7.5686086297035224
v 88.493409868710103 20.983628515034276 -7.2580336451530449
v 88.488396361532125 21.111393249668232 7.3810720086097721
v 88.353753328488665 20.990968290234811 -6.8282223105430599
v 88.252724448850927 20.407526415658143 -7.4773102015256878
v 88.322711719319159 21.096978300984421 7.1898366570472731
v 88.308908657721759 21.045450310452935 -3.0733518958091732
v 88.268797007609749 21.017414071230128 7.5221898674964915
v 88.154497690399694 21.076860477233147 7.3658147454261798
v 88.104732729002706 20.835467076779704 -7.3956816434860224
v 88.121871057610917 21.008572354902185 -4.900782430171966
v 88.052979066315856 20.948172349530399 -7.1847631573677058
v 87.995805326573475 20.869521232948117 7.5738057732582096
v 87.852465575780911 21.031032230072249 6.8776052117347728
v 87.821382434937448 20.995453317849616 -2.2515848517417902
v 87.760256975523134 20.904655982410681 -7.1582092881202692
v 87.747335060370631 20.952804690631414 -6.5747297644615168
v 87.728631122976196 20.946768686150477 7.5322270989418048
v 87.662035333303834 21.001170772351529 5.9963735222816474
v 86.692669784758834 13.499083330906378 -7.3631598591804499
v 87.630922041514168 20.95787033589205 7.4650701165199287
v 87.581181213646971 20.98759023832352 7.3259587883949298
v 86.571175496842386 13.319456098098392 -7.2624302506446838
v 87.542800528206158 20.940684746279025 -2.98486350774765
v 87.547004221606699 20.984044036551005 6.9145925164222728
v 87.344426025856478 20.915674667747744 -0.092456281185149258
v 87.263046571488985 20.925922299617078 7.2505056023597731
v 87.186906647255341 20.834762219279824 -6.0617967009544369
v 87.166468531055102 20.714421218030385 7.564014208316804
v 87.153862221321276 20.83874994892831 7.5376851677894603
v 87.103697453917903 20.877428809251352 7.3853734612464912
v 87.018371296009434 20.770402780237891 -7.0751412749290461
v 87.015052091578752 20.863048758165526 7.1866445183753971
v 86.999441743854845 20.831962428726893 -0.20343574285507149
v 86.923262913824374 20.761055199180603 -6.8411081194877621
v 86.759295174080421 20.660692610299257 -7.155269277095794
v 86.758829807845643 20.784892419735122 7.1891744256019603
v 85.760629764786529 13.22660932215412 7.463600695133211
v 86.67305403002905 20.40109564901439 -7.3536752700805659
v 86.705729736981482 20.767352180436379 7.3583501458168037
v 86.657177078811685 20.718790755484697 -1.1143530249595637
v 86.648261032277048 20.667469175828117 -6.9566256403923035
v 86.655767867850557 20.733103946992504 0.86519905328750646
v 86.622818008547199 20.743275395442431 6.4502919793128974
v 86.537040055053865 20.717326459833163 7.0491307854652412
v 86.452217012783194 20.468957767363534 -7.2753689169883726
v 86.44677099495749 20.599067882019558 7.534961473941804
v 86.437523808671301 20.550665955438674 -7.1362606167793272
v 86.34635163454567 20.594169599242999 -2.9098657965660086
v 86.344723706492971 20.608912371311032 -0.60302680730819613
v 86.338710141124977 20.64566293449408 7.4188375115394596
v 86.29471705378279 20.54675509057444 -6.6480843901634215
v 86.226050757151938 20.429866188250596 7.5649831414222728
v 86.182004713333981 20.490692737070059 -7.027839791774749
v 86.184937656617365 20.594344058106262 6.9458715081214919
v 86.160692665877036 20.519077002430368 -3.3730909705162047
v 86.088547918205791 20.447423744758972 7.5373265862464915
v 86.091297941736173 20.54357620900808 5.1734311699867259
v 85.143897955672827 13.294859224301508 -7.1081086039543147
v 85.126429433037771 13.25176151351315 -6.9542086482048031
v 85.957406284736351 20.338317247048153 -7.1265972256660461
v 85.945666248208454 20.473813322697382 4.3202535271644606
v 85.930721681600517 20.392908612445797 -6.083308064937591
v 85.875476923722829 20.231480374354337 -7.216302216053009
v 85.819909339936771 20.430582136296842 6.5560155510902423
v 84.879291309001701 13.282434688909913 -7.0003165602684021
v 85.784472914285686 20.342221086835586 -4.3012863516807549
v 85.782900080869922 20.374692464092885 0.29375969171524119
v 85.755512529163639 20.273361046912591 7.5611867547035221
v 85.749388426647954 20.392934255475069 5.5453282952308669
v 85.734853972169844 20.297300335082365 -6.5340436339378352
v 85.669949820027625 20.011535415223403 -7.2593144059181212
v 85.626159644156587 20.262516018658111 -4.2845083594322197
v 85.610617979062113 20.173740996572953 -7.0604211688041687
v 85.589657409902486 20.22207399988682 -6.8027763724327084
v 85.57819266621982 20.296948862358501 3.416278612613679
v 85.576239829044141 20.308475787153803 7.4709752678871162
v 85.545614429694638 20.305658277018161 7.2981206536293044
v 85.504939228752107 20.268710741522209 4.7394788384437572
v 85.378925288094479 20.166620595811391 7.5078466057777415
v 84.684747913973439 14.761212629952135 -7.6702169060707091
v 85.373126705664134 20.130864994155488 -3.887396085262298
v 85.287311968291135 19.777578465720779 -7.2414508938789366
v 85.272203863735115 20.029731195335096 7.5518529534339915
v 85.267531447958902 20.150394242345754 7.3609365105628974
v 85.245901916328165 20.031675452610109 -6.8690619349479674
v 85.246306524359426 20.105009002035739 7.4873326897621162
v 85.201266115006064 20.123334053372727 6.8149419426918048
v 84.260567591255693 13.266756951376815 7.4539022088050846
v 85.111043167637945 20.04422091995491 2.7224897027015693
v 85.044187003112683 19.891994948254979 7.5534719109535224
v 85.041320433183387 19.913360555269648 -6.5413220763206477
v 84.990236840494362 19.727461524503966 -7.0966011881828308
v 84.180081121626898 13.469826760946264 -7.0943622946739193
v 84.177990549015192 13.652435710783809 -7.2551361203193663
v 84.095193020956401 13.321430773345966 7.5229772210121162
v 84.934484388774081 19.950946779299684 5.5136388421058662
v 84.84368710282962 19.765855196268689 7.5445363640785228
v 84.797838171872286 19.850552482292837 7.3175313591957103
v 83.909976118451453 13.56712235729964 -7.1550293803215022
v 84.706267887056697 19.784160448388665 7.4545964837074283
v 84.678760780321937 19.677247912307276 -5.2395849585533139
v 84.637663905596327 19.572352408364061 7.5700231194496173
v 84.657033589074842 19.771194555438868 4.9465222954750079
v 84.624748401453985 19.739310271633236 7.1667638421058673
v 83.796490692888369 13.284467549817627 7.4880406975746165
v 84.603611955703684 19.60625718327568 -6.5524964690208432
v 84.549252219999715 19.627263804738782 -1.0848329901695246
v 84.439622684108883 19.462657157099283 -6.8534641623497006
v 84.437915813394284 19.483007669355864 -5.9580585837364195
v 84.429220104030321 19.471685868918293 -6.2825574278831482
v 84.425167190869843 19.599527540708994 7.2554326653480548
v 84.378802575778337 19.372827903332521 7.5680989861488346
v 83.590629622903862 13.346677263761707 7.5241902947425849
v 84.355810431413005 19.534610273388985 4.2080388665199298
v 84.279295484215282 19.35651178006901 -5.8001308798789974
v 84.287524526681807 19.500749285798697 7.361397325992586
v 84.244000020654823 19.395022997923185 7.5062200188636794
v 84.247634860219051 19.464966288198454 5.9915471673011798
v 84.192108047497101 19.403719933200918 4.1481160759925846
v 84.059979113448151 19.181276599922825 -4.9212433218955987
v 84.067598991746678 19.261446542927615 7.4993871331214912
v 84.049074076593428 19.1366168209412 -6.8782060503959652
v 84.046520290430237 19.148648711988191 -6.4433924078941338
v 84.02616595417706 19.051544674563878 -7.1054807782173155
v 84.032398831707525 19.286075247820644 6.2489873528480544
v 84.007269249042082 19.104806666867297 7.5534261345863349
v 84.012669150878736 19.277946725132843 7.4412099480628981
v 83.241365942824217 13.474801469431975 7.5396489739418033
v 83.879739514096769 18.923099313091051 7.5731099724769599
v 83.873214272757394 19.111008928795396 7.4902471184730537
v 83.87147091399433 19.132136200261492 4.9587888360023502
v 83.802382555855473 18.922059455762877 -6.936463630199432
v 83.793126132631841 19.077239944144036 7.1016072869300846
v 83.777356674927319 19.051239935609289 5.3225118279457106
v 83.715081890789406 18.823549721032759 -7.0781200289726254
v 83.689166774951048 18.850775227919915 7.5324742913246165
v 83.63489791977716 18.621431623347657 -7.2163297772407526
v 83.661922250421838 18.947234567556777 7.3821843743324287
v 83.638628679513886 18.916979012647648 5.4398976922035231
v 83.539003590252037 18.644341101238734 -6.9371096014976494
v 83.551203058733336 18.838268768579901 6.8539968132972735
v 83.547151430188478 18.832238339882995 7.1335668206214908
v 83.48467209884646 18.714677655594304 1.9871694207191481
v 83.451550957079462 18.671094951225065 7.4923940300941485
v 83.403092077294758 18.489954879706282 -6.6681674361228938
v 83.352075666498678 18.361201270250543 -7.1042089581489556
v 83.345116345438043 18.457615945590451 -5.1019079566001881
v 83.331294434185622 18.506073095778966 7.5218724846839908
v 83.3414473849123 18.604865099634257 5.3740956902503978
v 83.321468522330576 18.595438900549457 7.3551381707191474
v 83.282183403998431 18.352428052041635 7.5529988884925849
v 83.19454709443994 18.447594538011266 7.1873082756996158
v 83.187247191327828 18.402856235682911 7.4696859002113349
v 83.142212678449482 18.17753380179709 -6.6750965476036068
v 83.140430648664989 18.357427670633431 4.4225675225257888
v 83.090845540312813 18.139736769029668 -5.8550133109092712
v 83.080375705145542 18.309392626226177 6.7512944817543037
v 83.029889661401995 18.135243323848059 7.5252080559730548
v 83.03449525203871 18.258718103837968 7.323402941226961
v 82.969036771466762 17.962613466341931 -6.8410656332969664
v 82.797315967756134 16.673624989878544 -7.4377178192138667
v 82.976495009901214 18.084515239645118 -0.10454658269882167
v 82.804408954123147 16.91353744238446 -7.4199817061424254
v 82.925001850435166 17.88175489380189 7.5530965447425853
v 82.702843706627561 16.666700960050118 7.5542211174964908
v 82.864381208335971 17.933087853276561 7.5193242669105533
v 82.824606658755471 17.978672849634421 7.4177587151527415
v 82.816642378662891 17.971795926980903 7.1731679558753978
v 82.748997862232244 17.62941432458242 -6.5715550780296326
v 82.76978255045384 17.914033565104656 6.5493795037269606
v 82.137555606456459 13.512479066315354 7.4329732537269599
v 82.682476901942124 17.779771501071806 5.2711125969886794
v 82.674179985739613 17.779978234927956 7.3791402459144599
v 82.615496075099458 17.516933424912796 -2.1380369544029225
v 82.619201864586046 17.557945249477207 7.508217394351961
v 82.536500082900204 16.976562063800905 -7.3594233870506285
v 82.104758887182072 13.627174616660646 -6.3660076498985285
v 82.555796293088235 17.358806668864592 -5.1708011984825131
v 82.553286491681632 17.58859780601416 7.3582296013832096
v 82.489222450209212 17.101742612583593 -7.2095825314521784
v 82.462934703378181 17.165443335446788 -6.8960821986198422
v 82.009782852908927 13.684423731057073 7.5315801262855544
v 82.482534552215384 17.369994302103066 7.4899343132972724
v 82.335696508619577 16.396133228428479 -7.4121295452117915
v 82.443612210438971 17.295152987717604 1.0142652153968825
v 82.396186936088725 17.113942487820388 7.5506856560707103
v 82.029239056267613 14.338713152173176 -7.1896700978279107
v 82.401288620131425 17.299929077660039 4.9384786248207106
v 82.307056173630087 16.579915000430631 -7.3613523483276362
v 81.86752163432547 13.209713127616874 -4.0400431036949147
v 82.356908602334244 17.040151462132577 -4.0585462927818288
v 82.360503619159743 17.245180272128202 7.3987584710121173
v 82.35558214043624 17.23537069844058 6.4742757439613356
v 82.27221711847622 16.765101276918017 -7.2433575034141535
v 82.262718508888412 16.798477863747372 -6.78713458776474
v 82.273750685672269 16.961101204343194 -0.19629081487655586
v 82.250628713329206 16.903259207582401 -0.82243827581405604
v 82.244779510063182 17.026518791737061 5.7325734734535221
v 81.867913998658651 14.099307496114481 -6.965894877910614
v 81.90762647438217 14.662376371109003 -7.2811714291572569
v 82.113037521723243 16.299191864347684 -7.3065823793411253
v 81.932957760509566 14.984195105201888 -7.3214120149612425
v 82.122043335604928 16.566836957961062 -3.5345903754234307
v 82.114148123419909 16.676817496146636 7.494861376285554
v 81.667035301049481 13.257753144123491 -5.4074585318565358
v 81.71021758048434 13.600030080304325 7.476967394351961
v 82.11371980261012 16.804930150098972 7.3936711907386794
v 82.017961339595558 16.227782504036909 -7.0874034285545342
v 82.000344249952576 16.206209729306099 7.5265599846839919
v 82.022245078298482 16.432531829678386 7.4956288933753985
v 81.739829783321909 14.245569144937708 -7.0462591052055359
v 81.616080344161702 13.339925502257646 -5.4932213187217709
v 82.011181729400619 16.498011225120425 3.62936226129532
v 81.588418816426184 13.219249412017984 -4.8976814627647389
v 81.576456146759028 13.233252860193552 -4.3107956290245051
v 82.000445785084878 16.558416551758476 7.3843129754066474
v 81.815711989959851 15.12987920553277 -7.3161541461944575
v 81.912394229348962 15.890540147663248 -7.1880764365196228
v 81.719602142318649 14.416791156063486 -7.1489079833030695
v 81.831416890840245 15.438221233836499 -7.3312318801879881
v 81.559281157472356 13.462020772680972 -5.6448116660118099
v 81.6473585687487 14.149523191067146 -6.8362384200096127
v 81.539963826380671 13.31311312808716 -5.225458562374115
v 81.864147131939262 15.854297378019304 -4.8961168646812432
v 81.881724371805205 15.998965034486986 7.5000814080238349
v 81.825796089265594 15.608764688162736 -7.2085580706596373
v 81.586122043742222 13.846325075481431 7.5173940300941471
v 81.763117955505379 15.230877105739369 -7.2962089419364924
v 81.778463323856101 15.514840107010022 -7.018396174907684
v 81.528538706782484 13.575947013265827 7.2878972649574294
v 81.541349877718687 13.681236957744339 -5.8777763724327086
v 81.718208152474801 15.095891334304275 -7.2483888745307921
v 81.700125957252737 14.961358742563078 7.5203710198402423
v 81.50962198357314 13.479664248526571 -5.4265512824058533
v 81.491101822333007 13.38674813011268 -4.8663429617881775
v 81.737012526289078 15.321862192393182 -7.1957184910774226
v 81.848276268930903 16.20939911063153 7.4075902581214912
v 81.667084926020607 14.858256449281637 -7.2165570139884947
v 81.463149757098677 13.339898796090999 -4.3219185233116146
v 81.496882957634739 13.624367476247476 -5.566376340389251
v 81.732024948396855 15.457898581501965 7.5093587517738349
v 81.588031124592845 14.361517319687369 -6.9515398859977715
v 81.5985420768572 14.59222455493537 -7.0479809165000908
v 81.658900274130616 15.073223430039535 -7.1114338040351868
v 81.557161688672636 14.284501468992987 -6.7291102290153502
v 81.51595862713674 13.971655688123489 -6.0073709845542904
v 81.518239424866636 14.011524947350836 7.5136739373207106
v 81.490951398346596 13.839527282042141 -4.6033970236778252
v 81.746785313302581 15.855095930938369 6.0740682244300856
v 81.469994891085037 13.698551107842084 7.4498937249183665
v 81.661615151915441 15.194149965317449 7.5066091179847731
v 81.456269339220711 13.616254287507683 7.0996694207191471
v 81.710204847329067 15.606540825560717 1.9863362908363342
v 81.557052674037749 14.445972200541133 -6.801389825344085
v 81.450804393650344 13.745344572756395 -1.3154154181480404
v 81.6975475286456 15.670106178711634 7.4196797966957106
v 81.426122531374318 13.690638337917976 7.2829518914222735
v 81.563865488314065 14.835379852226927 7.5014211297035231
v 81.619854972030083 15.29650696543117 7.4370870232582096
v 81.416651355810075 13.809168936438017 7.3542882561683669
v 81.510550403720345 14.55313125840936 -0.58058494329452426
v 81.426692607006828 13.912737827780958 7.4613637566566471
v 81.516527093359628 14.637376451542949 7.4846471428871162
v 81.522871640302981 14.70968060484592 0.69375587701797592
v 81.437717126188772 14.09289144058525 7.4668202996253985
v 81.383869476978447 13.699201611230157 6.8904515862464919
v 81.610314274241375 15.469489791323131 7.3707204461097735
v 81.566790673472582 15.141015399466436 3.9718885064125065
v 81.536630086467113 15.035897275748663 7.4046727776527419
v 81.37781396893908 13.805715309067462 6.3642263054847721
v 81.385038136575702 13.917279494332981 7.3037862420082096
v 81.451471265483661 14.439895919976939 7.4212056756019606
v 81.525584714325191 15.029742087385841 6.7335240960121165
v 81.422362474278572 14.249881981412249 7.4044286370277419
v 81.395732651907707 14.085892165534194 7.3334615349769603
v 81.45969215734948 14.589612473632764 5.3617620110511783
v 81.487759040741167 14.808717909409522 7.3990651726722731
v 81.468383803245388 14.666984844900689 5.8251622796058662
v 81.404861025502356 14.184024604761889 7.1074437737464908
v 81.424105252070291 14.352008776210853 7.3301076531410221
v 81.432163878569838 14.426233868178741 7.1794026970863349
v 81.463542035849969 14.674763008417406 7.244464647769929
v 81.408089693599237 14.268817747526985 5.7525563836097735
vn 0.9580046534538269 -0.28205603361129761 -0.051686607301235199
vn 0.95435202121734619 -0.29859355092048645 0.0073579782620072365
vn 0.98876821994781494 -0.14916720986366272 0.0093062892556190491
vn 0.98390859365463257 -0.13372255861759186 -0.11849971860647202
vn 0.72958123683929443 -0.68376743793487549 -0.013166011311113834
vn 0.99628710746765137 -0.0035371123813092709 -0.086019992828369141
vn 0.94040429592132568 -0.33972296118736267 0.01510335598140955
vn 0.52652490139007568 -0.84797388315200806 -0.060924600809812546
vn 0.82995802164077759 -0.29365488886833191 -0.47427466511726379
vn 0.60764819383621216 -0.79397487640380859 0.019173584878444672
vn 0.99889874458312988 -0.045438516885042191 0.011689955368638039
vn 0.39646682143211365 -0.86264312267303467 -0.31410333514213562
vn 0.4756072461605072 -0.879608154296875 -0.0093414746224880219
vn 0.89269030094146729 -0.010943683795630932 -0.45053777098655701
vn 0.99956977367401123 0.028232220560312271 0.0079505415633320808
vn 0.18424138426780701 -0.98169165849685669 -0.048338025808334351
vn 0.13803237676620483 -0.99042493104934692 0.0023424020037055016
vn 0.9994819164276123 0.030900876969099045 0.009001757949590683
vn 0.99948185682296753 0.031079914420843124 0.0083676604554057121
vn 0.92307853698730469 0.094790175557136536 -0.37274765968322754
vn 0.58405357599258423 -0.093226037919521332 -0.80634379386901855
vn 0.99809461832046509 0.061562560498714447 0.0041496800258755684
vn 0.98542302846908569 -0.16668795049190521 0.034009184688329697
vn 0.99373209476470947 -0.055370565503835678 0.097111605107784271
vn 0.90757536888122559 -0.38493430614471436 0.16772748529911041
vn 0.98853433132171631 0.12563967704772949 -0.083752900362014771
vn 0.99565374851226807 0.092755645513534546 0.0083671929314732552
vn 0.6958014965057373 -0.71547186374664307 0.062930554151535034
vn 0.92226439714431763 -0.14088919758796692 0.3599703311920166
vn 0.38064509630203247 -0.40229153633117676 -0.83262884616851807
vn 0.78722411394119263 -0.47008007764816284 0.39912763237953186
vn 0.85685479640960693 -0.064931020140647888 0.51145267486572266
vn 0.039830662310123444 -0.9985344409942627 -0.036639988422393799
vn 0.38929229974746704 -0.59086549282073975 -0.70663249492645264
vn 0.99162262678146362 0.026144394651055336 0.12649501860141754
vn 0.33639103174209595 -0.039067696779966354 -0.94091171026229858
vn 0.94468158483505249 0.13510556519031525 -0.29886975884437561
vn 0.70478451251983643 -0.026068761944770813 0.70894229412078857
vn 0.98667025566101074 0.16272257268428802 0.0017940269317477942
vn 0.62591683864593506 -0.32670128345489502 0.70816266536712646
vn 0.78453958034515381 0.07947251945734024 0.61496484279632568
vn 0.39626502990722656 -0.89935213327407837 0.18476948142051697
vn -0.018589945510029793 -0.99980276823043823 0.0069912848994135857
vn 0.96235525608062744 0.14344164729118347 -0.23086103796958923
vn 0.98656350374221802 0.13549681007862091 0.091285645961761475
vn 0.13561718165874481 -0.99018853902816772 0.033684995025396347
vn 0.25649335980415344 -0.65908926725387573 0.70697420835494995
vn 0.13637833297252655 -0.048941351473331451 0.98944717645645142
vn 0.23743222653865814 -0.67445743083953857 -0.69909453392028809
vn 0.97421884536743164 0.22546558082103729 0.0079315463081002235
vn 0.94065207242965698 0.17891483008861542 0.28838014602661133
vn 0.97245168685913086 0.1660802811384201 -0.16356956958770752
vn 0.36238223314285278 0.091580629348754883 0.92751932144165039
vn 0.98327428102493286 0.18184219300746918 0.010251513682305813
vn 0.26351171731948853 -0.24281057715415955 -0.93359768390655518
vn 0.071256384253501892 -0.99675142765045166 0.037538435310125351
vn 0.95559221506118774 0.15947237610816956 -0.24781470000743866
vn 0.82844597101211548 0.23206497728824615 0.50972843170166016
vn 0.97237151861190796 0.22223645448684692 0.071446597576141357
vn 0.96600800752639771 0.2401425689458847 -0.095708191394805908
vn 0.052406199276447296 -0.97037065029144287 0.23586931824684143
vn 0.57824468612670898 0.066198036074638367 -0.81317335367202759
vn 0.15063431859016418 0.030359288677573204 0.98812329769134521
vn 0.077153220772743225 -0.88118118047714233 -0.4664408266544342
vn 0.81243675947189331 0.21496430039405823 -0.54197496175765991
vn 0.93058627843856812 0.30937406420707703 -0.1956959068775177
vn 0.93339180946350098 0.29348665475845337 0.20650747418403625
vn 0.93737101554870605 0.34635964035987854 -0.037020638585090637
vn 0.1276983767747879 -0.61925256252288818 -0.77473831176757813
vn 0.30190426111221313 0.015480328351259232 -0.95321255922317505
vn 0.95240211486816406 0.30240157246589661 0.038516923785209656
vn 0.92349821329116821 0.38348561525344849 -0.0094768041744828224
vn 0.3635200560092926 0.084480464458465576 -0.92774790525436401
vn -0.00140311976429075 -0.99891269207000732 0.046598631888628006
vn 0.0029238287825137377 -0.48162254691123962 0.87637388706207275
vn 0.92508256435394287 0.34535002708435059 -0.15797363221645355
vn 0.94042456150054932 0.3399217426776886 0.0074074314907193184
vn 0.20443600416183472 -0.037584912031888962 -0.97815811634063721
vn 0.040381554514169693 -0.804046630859375 -0.59319335222244263
vn 0.0002447046572342515 -0.99962890148162842 0.027240203693509102
vn 0.92139172554016113 0.38863515853881836 -0.00013333301467355341
vn 0.087603062391281128 -0.24783886969089508 -0.96483242511749268
vn 0.92023646831512451 0.38214021921157837 -0.084461100399494171
vn 0.92952269315719604 0.34178972244262695 0.13844625651836395
vn 0.37663498520851135 0.13803935050964355 -0.9160192608833313
vn 0.93202060461044312 0.3622986376285553 0.0087910676375031471
vn 0.90307378768920898 0.42946207523345947 0.0044816164299845695
vn 0.14547918736934662 0.050566181540489197 0.98806822299957275
vn 0.88659822940826416 0.35864034295082092 -0.29209709167480469
vn 0.89867889881134033 0.43857595324516296 0.005227173212915659
vn 0.89825057983398438 0.43737521767616272 -0.042998455464839935
vn 0.92188417911529541 0.38665589690208435 0.02503567561507225
vn 0.89731401205062866 0.44138985872268677 -0.0015803955029696226
vn 0.020247515290975571 -0.63174998760223389 -0.77490776777267456
vn 0.8696281909942627 0.33887675404548645 0.35903948545455933
vn 0.04938875138759613 0.03211701288819313 0.99826312065124512
vn 0.89758080244064331 0.44082257151603699 0.0049218274652957916
vn 0.87618392705917358 0.44765236973762512 -0.17863118648529053
vn 0.88984692096710205 0.45625150203704834 0.0026524364948272705
vn 0.50752133131027222 0.21863062679767609 0.83344030380249023
vn 0.72442376613616943 0.32104480266571045 0.61003315448760986
vn 0.44706490635871887 0.19385406374931335 -0.87324315309524536
vn 0.86918622255325317 0.48854026198387146 -0.076443880796432495
vn 0.8753732442855835 0.48296648263931274 -0.021565727889537811
vn 0.23168545961380005 0.098489314317703247 0.96779215335845947
vn 0.85776913166046143 0.51402753591537476 0.0027832221239805222
vn 0.8655400276184082 0.47106888890266418 0.17010155320167542
vn 0.67195528745651245 0.32247021794319153 -0.66670012474060059
vn 0.009995531290769577 -0.78747260570526123 -0.61626863479614258
vn 0.59433352947235107 0.32186943292617798 0.73699915409088135
vn 0.18792180716991425 0.10747320950031281 0.97628629207611084
vn 0.84514743089675903 0.53451436758041382 0.0045001273974776268
vn 0.017108982428908348 -0.98164874315261841 -0.18992908298969269
vn 0.20738989114761353 0.02988738939166069 -0.97780168056488037
vn 0.3502640426158905 0.20976939797401428 0.91285920143127441
vn 0.84190863370895386 0.52728193998336792 -0.11473271995782852
vn 0.051694449037313461 0.047941584140062332 0.99751156568527222
vn 0.82346677780151367 0.5668109655380249 -0.025054538622498512
vn 0.22568789124488831 0.082899495959281921 -0.97066611051559448
vn 0.78454440832138062 0.50776517391204834 -0.35589969158172607
vn 0.82649558782577515 0.56273061037063599 0.015467996709048748
vn 0.77891695499420166 0.60597312450408936 0.16150838136672974
vn -0.00054978893604129553 0.013019033707678318 0.99991512298583984
vn 0.59143775701522827 0.4618261456489563 0.66099774837493896
vn 0.20033018290996552 0.15605294704437256 0.96722036600112915
vn 0.78741878271102905 0.6164131760597229 0.0025323654990643263
vn 0.79460853338241577 0.60687017440795898 0.017488768324255943
vn 0.78749543428421021 0.61631321907043457 0.0029946702998131514
vn -0.01331671979278326 -0.90853285789489746 0.41760116815567017
vn 0.77853232622146606 0.62241256237030029 -0.080560468137264252
vn 0.75751191377639771 0.65281867980957031 0.0018687210977077484
vn 0.41608428955078125 0.27677220106124878 -0.86618185043334961
vn 0.74817752838134766 0.64813899993896484 -0.14193741977214813
vn 0.76354897022247314 0.64499038457870483 0.031311091035604477
vn 0.096062757074832916 0.027209600433707237 -0.99500328302383423
vn 0.67735779285430908 0.62869858741760254 -0.3820006251335144
vn 0.72571152448654175 0.68799763917922974 0.0014387726550921798
vn 0.71246665716171265 0.69967764616012573 -0.053314585238695145
vn 0.72566699981689453 0.68801027536392212 0.0070156245492398739
vn 0.19250252842903137 0.22348706424236298 -0.95550841093063354
vn 0.70775330066680908 0.70645499229431152 0.0025826042983680964
vn 0.68309026956558228 0.7303122878074646 -0.0056231115013360977
vn 0.72539287805557251 0.63210904598236084 0.27247613668441772
vn 0.67856484651565552 0.73454046249389648 -0.00019405344210099429
vn 0.72088313102722168 0.68869107961654663 0.077666938304901123
vn 0.67352390289306641 0.73916405439376831 -0.0014347644755616784
vn 0.69234937429428101 0.72155475616455078 0.0033365122508257627
vn 0.41090407967567444 0.47997364401817322 -0.77510201930999756
vn 0.68145668506622314 0.73185795545578003 0.00089459324954077601
vn 0.56589925289154053 0.67772507667541504 -0.46951752901077271
vn 0.66255593299865723 0.749012291431427 -0.00043413313687779009
vn 0.67159014940261841 0.70146435499191284 0.23856751620769501
vn 0.65051025152206421 0.75949746370315552 0.00030486210016533732
vn 0.64810383319854736 0.76117950677871704 0.023816980421543121
vn 0.62411785125732422 0.77181011438369751 -0.12159799039363861
vn 0.49731850624084473 0.6220935583114624 0.60470974445343018
vn 0.45122653245925903 0.59204429388046265 -0.66774111986160278
vn 0.26138144731521606 0.28566905856132507 0.92199397087097168
vn 0.60055351257324219 0.79958391189575195 -0.00098724290728569031
vn 0.5852503776550293 0.81078910827636719 -0.010152569971978664
vn 0.59187579154968262 0.80530476570129395 0.034164745360612869
vn 0.038294345140457153 -0.065965913236141205 -0.99708676338195801
vn 0.58441048860549927 0.79486888647079468 0.16324178874492645
vn 0.26749962568283081 0.38972175121307373 0.88122695684432983
vn 0.57565361261367798 0.81769317388534546 0.00090061442460864782
vn 0.02653835155069828 -0.1498226672410965 -0.98835664987564087
vn 0.09298793226480484 0.15427945554256439 0.98364174365997314
vn 0.53667259216308594 0.84045672416687012 -0.074933283030986786
vn -0.011220631189644337 -0.084357179701328278 0.99637240171432495
vn 0.0083968481048941612 -0.27890756726264954 -0.96028125286102295
vn 0.53796529769897461 0.84271347522735596 0.020672651007771492
vn 0.46482595801353455 0.71581220626831055 -0.52110427618026733
vn 0.51081162691116333 0.85969233512878418 -0.00078470271546393633
vn 0.53820180892944336 0.81360363960266113 0.21997262537479401
vn 0.0016046662349253893 -0.46801319718360901 -0.8837200403213501
vn 0.49864089488983154 0.86655491590499878 -0.020970867946743965
vn 0.50284874439239502 0.86437207460403442 -0.0020091456826776266
vn 0.34819421172142029 0.60275214910507202 0.71794891357421875
vn 0.48617139458656311 0.87386238574981689 -0.0013633641647174954
vn 0.4763312041759491 0.8792572021484375 -0.0039169858209788799
vn 0.45893996953964233 0.87559372186660767 0.15069751441478729
vn 0.38363873958587646 0.78103417158126831 0.49275442957878113
vn 0.46492379903793335 0.88534903526306152 -0.0017318945610895753
vn 0.45878902077674866 0.86452198028564453 -0.20521791279315948
vn 0.43019646406173706 0.90266752243041992 0.011060255579650402
vn 0.27976563572883606 0.42159843444824219 -0.86254620552062988
vn 0.43214079737663269 0.90180522203445435 0.0012974903220310807
vn 0.45934581756591797 0.88825511932373047 -0.0020675053820014
vn 0.41974103450775146 0.90761774778366089 0.0068927290849387646
vn 0.40379685163497925 0.84743714332580566 -0.34467145800590515
vn 0.41007506847381592 0.91205161809921265 0.00049361266428604722
vn 0.12998761236667633 0.27295511960983276 0.9532044529914856
vn 0.39649847149848938 0.91801249980926514 -0.0064817429520189762
vn 0.39190283417701721 0.76057571172714233 -0.51762604713439941
vn 0.39109668135643005 0.91725784540176392 0.07537543773651123
vn 0.27744567394256592 0.63767546415328979 0.71860551834106445
vn 0.050294559448957443 0.13234397768974304 0.98992705345153809
vn 0.37871053814888 0.92548692226409912 0.007234412245452404
vn 0.30324268341064453 0.95290547609329224 -0.0038831450510770082
vn 0.25892972946166992 0.59832054376602173 -0.7582663893699646
vn 0.34058824181556702 0.89740574359893799 0.28046843409538269
vn 0.13033036887645721 0.19867439568042755 -0.97136116027832031
vn 0.32740813493728638 0.94426953792572021 0.034043580293655396
vn 0.1076868399977684 0.31519046425819397 0.94289898872375488
vn 0.32187747955322266 0.94678109884262085 0.000678371696267277
vn 0.29746666550636292 0.92064577341079712 -0.25283384323120117
vn 0.32008826732635498 0.94737875461578369 0.0041267983615398407
vn 0.30150929093360901 0.95346307754516602 -0.00055822968715801835
vn 0.27592435479164124 0.95034396648406982 0.14391705393791199
vn 0.22258827090263367 0.79479610919952393 0.5645827054977417
vn 0.042186930775642395 0.15076594054698944 0.98766893148422241
vn 0.19056415557861328 0.96788787841796875 -0.16394616663455963
vn 0.27209353446960449 0.96219348907470703 0.012198600918054581
vn 0.22264428436756134 0.97288686037063599 0.062615111470222473
vn 0.086984448134899139 0.45542126893997192 -0.88601648807525635
vn 0.14192263782024384 0.8158257007598877 -0.56061255931854248
vn 0.17410126328468323 0.9846605658531189 -0.011503123678267002
vn 0.15099497139453888 0.61997860670089722 0.76995259523391724
vn 0.18697306513786316 0.98179984092712402 0.033319003880023956
vn 0.20278219878673553 0.97922325134277344 0.001102389651350677
vn 0.15877996385097504 0.98523014783859253 -0.064113438129425049
vn 0.17761765420436859 0.98407477140426636 -0.0069868252612650394
vn 0.19302168488502502 0.96515458822250366 0.17668980360031128
vn 0.17641933262348175 0.98319846391677856 0.046871807426214218
vn 0.17393726110458374 0.98473799228668213 0.0060779284685850143
vn 0.062816575169563293 0.39898940920829773 0.91480135917663574
vn 0.16567353904247284 0.98617726564407349 -0.0025757129769772291
vn 0.12463808804750443 0.86834162473678589 0.48005023598670959
vn 0.13843587040901184 0.9903557300567627 -0.0055722091346979141
vn 0.1421930342912674 0.98976486921310425 -0.012111660093069077
vn 0.016343241557478905 0.091609068214893341 0.99566090106964111
vn 0.10392084717750549 0.98710983991622925 -0.12171556055545807
vn 0.097271032631397247 0.97381699085235596 0.20547226071357727
vn 0.12751536071300507 0.99042916297912598 0.052819661796092987
vn 0.080942355096340179 0.87176996469497681 -0.48318266868591309
vn 0.080549836158752441 0.98536133766174316 0.15024907886981964
vn 0.091310985386371613 0.99578088521957397 -0.0090957554057240486
vn -0.029375255107879639 -0.88614475727081299 -0.46247655153274536
vn 0.039516057819128036 0.99828976392745972 -0.043080992996692657
vn 0.072306066751480103 0.99738228321075439 0.00068516284227371216
vn 0.029458377510309219 0.99941551685333252 -0.017343899235129356
vn 0.044302422553300858 0.9318002462387085 0.36025762557983398
vn 0.0058852406218647957 0.21294862031936646 0.97704565525054932
vn 0.017916051670908928 0.99948489665985107 -0.026626190170645714
vn 0.023612868040800095 0.99878835678100586 0.043177247047424316
vn 0.02163151279091835 0.99966907501220703 -0.013920828700065613
vn 0.00057781446957960725 0.67060482501983643 0.74181455373764038
vn 0.0016179968370124698 0.037596002221107483 0.99929171800613403
vn -0.01100592315196991 0.99993407726287842 -0.0032726682256907225
vn 0.016077350825071335 0.99396330118179321 -0.10852882266044617
vn -0.024240151047706604 0.99968457221984863 0.0065721971914172173
vn 0.031999919563531876 0.60685354471206665 -0.79416924715042114
vn -0.030538013204932213 0.99949878454208374 -0.0083396919071674347
vn -0.031065383926033974 0.99939453601837158 -0.015669779852032661
vn -0.024577563628554344 0.99969786405563354 0.00036916800308972597
vn -0.036467485129833221 0.99885845184326172 -0.030853426083922386
vn -0.032381083816289902 0.8412405252456665 0.53969049453735352
vn -0.024087011814117432 0.3515523374080658 0.93585830926895142
vn -0.045346606522798538 0.94976335763931274 -0.30966642498970032
vn -0.055518891662359238 0.97391057014465332 0.22003605961799622
vn -0.077460587024688721 0.99626970291137695 -0.038032762706279755
vn -0.03330741822719574 0.094614855945110321 -0.9949566125869751
vn -0.10444109886884689 0.99453103542327881 0.00021391225163824856
vn -0.092111065983772278 0.99572068452835083 -0.0074716112576425076
vn -0.050817571580410004 0.71732890605926514 0.69487893581390381
vn -0.14015145599842072 0.98302984237670898 0.11836325377225876
vn -0.11140063405036926 0.60544741153717041 -0.78805029392242432
vn -0.075284451246261597 0.99706578254699707 -0.013857568614184856
vn -0.14514534175395966 0.94610893726348877 -0.28950074315071106
vn -0.020672857761383057 0.12676584720611572 0.99171721935272217
vn -0.15046368539333344 0.98861545324325562 -0.00036587007343769073
vn -0.14698112010955811 0.98912638425827026 -0.0050493483431637287
vn -0.18902616202831268 0.91909313201904297 -0.34574121236801147
vn -0.1420881599187851 0.98926776647567749 -0.034062165766954422
vn -0.10208199173212051 0.73100554943084717 0.67469263076782227
vn -0.15543113648891449 0.98784363269805908 -0.0024704905226826668
vn -0.02778160572052002 -0.37287420034408569 -0.92746591567993164
vn -0.16967970132827759 0.93327099084854126 0.31656602025032043
vn -0.18315140902996063 0.97455376386642456 0.1292303204536438
vn -0.041609153151512146 -0.59318941831588745 -0.80398690700531006
vn -0.19705523550510406 0.98037248849868774 -0.0062478911131620407
vn -0.17529402673244476 0.98451602458953857 -0.00048618076834827662
vn -0.21725192666053772 0.97610169649124146 -0.0052051483653485775
vn -0.22428521513938904 0.97424399852752686 0.023340344429016113
vn -0.22903530299663544 0.97337085008621216 -0.0095909573137760162
vn -0.047222793102264404 0.17132987082004547 0.98408132791519165
vn -0.16066804528236389 0.63673508167266846 0.75415796041488647
vn -0.23684383928775787 0.95336681604385376 0.1870739609003067
vn -0.26004549860954285 0.94679868221282959 -0.18960125744342804
vn -0.2760683000087738 0.961040198802948 0.013710842467844486
vn -0.26154217123985291 0.96517854928970337 -0.0051004849374294281
vn -0.27059948444366455 0.96237087249755859 -0.024863032624125481
vn -0.26595082879066467 0.85278809070587158 -0.44946929812431335
vn -0.29285645484924316 0.95614397525787354 0.0048773386515676975
vn -0.023511346429586411 -0.99484974145889282 0.098596438765525818
vn -0.14776937663555145 0.25233674049377441 -0.95628988742828369
vn -0.2894875705242157 0.95525610446929932 0.060685265809297562
vn -0.32499361038208008 0.94568711519241333 -0.0074199731461703777
vn -0.32286468148231506 0.9441564679145813 -0.065779969096183777
vn -0.31978124380111694 0.94747567176818848 -0.0054598706774413586
vn -0.29409068822860718 0.95577377080917358 -0.0026852476876229048
vn -0.30901366472244263 0.95105278491973877 0.0030217941384762526
vn -0.27878400683403015 0.63617557287216187 -0.71941649913787842
vn -0.21932865679264069 0.5761684775352478 0.7873530387878418
vn -0.34299889206886292 0.83677911758422852 -0.42679324746131897
vn -0.34787803888320923 0.93751561641693115 -0.0067353933118283749
vn -0.35502630472183228 0.93483716249465942 -0.0059866323135793209
vn -0.32733210921287537 0.91636687517166138 0.230489581823349
vn -0.36398610472679138 0.93131142854690552 -0.013158436864614487
vn -0.058832857757806778 0.17056319117546082 0.98358875513076782
vn -0.39499607682228088 0.90245425701141357 -0.17191395163536072
vn -0.37224084138870239 0.9281352162361145 0.0013414687709882855
vn -0.39010310173034668 0.92074733972549438 -0.0066283727064728737
vn -0.25025913119316101 0.59451496601104736 0.76414811611175537
vn -0.40130981802940369 0.91592627763748169 -0.0054297926835715771
vn -0.098610758781433105 -0.81917423009872437 -0.56500399112701416
vn -0.065111242234706879 -0.97492349147796631 -0.21280215680599213
vn -0.40253478288650513 0.79673886299133301 -0.45074713230133057
vn -0.40786287188529968 0.9130256175994873 -0.0056668012402951717
vn -0.41016682982444763 0.91194665431976318 -0.010791934095323086
vn -0.39664134383201599 0.62516611814498901 -0.67219263315200806
vn -0.4112497866153717 0.91151559352874756 -0.0035880464129149914
vn -0.12713491916656494 -0.93113434314727783 -0.34179747104644775
vn -0.43335306644439697 0.90119332075119019 -0.0074656880460679531
vn -0.42075109481811523 0.90715521574020386 -0.0061550629325211048
vn -0.18078109622001648 0.38558116555213928 0.90479022264480591
vn -0.42240238189697266 0.90639245510101318 -0.0053843106143176556
vn -0.42561471462249756 0.90478813648223877 -0.014510132372379303
vn -0.24578182399272919 0.35763978958129883 -0.90093564987182617
vn -0.46248441934585571 0.88659870624542236 -0.0071313050575554371
vn -0.47352513670921326 0.78652220964431763 -0.39643001556396484
vn -0.45567730069160461 0.88944375514984131 -0.035326510667800903
vn -0.4451943039894104 0.89541220664978027 -0.0062466436065733433
vn -0.38265416026115417 0.78402072191238403 0.48876097798347473
vn -0.43785861134529114 0.89888560771942139 0.016865639016032219
vn -0.46258783340454102 0.88655078411102295 -0.0063449828885495663
vn -0.32809585332870483 0.57732993364334106 0.74769192934036255
vn -0.060032974928617477 -0.098271533846855164 -0.99334722757339478
vn -0.47875320911407471 0.87791538238525391 -0.0077428668737411499
vn -0.3428046703338623 0.4783664345741272 -0.80848658084869385
vn -0.23191374540328979 0.40797984600067139 0.8830450177192688
vn -0.51080834865570068 0.85411643981933594 0.097774624824523926
vn -0.52052944898605347 0.8352627158164978 -0.1771589070558548
vn -0.45749011635780334 0.73933219909667969 0.4940553605556488
vn -0.51632630825042725 0.85637742280960083 0.0049868300557136536
vn -0.030530162155628204 -0.99802827835083008 0.054840710014104843
vn -0.50194674730300903 0.86487084627151489 -0.0069205742329359055
vn -0.29909566044807434 0.46008440852165222 0.83598095178604126
vn -0.55387586355209351 0.83236712217330933 -0.019659833982586861
vn -0.49169281125068665 0.71532827615737915 -0.49653157591819763
vn -0.18065518140792847 -0.85805875062942505 -0.4807274341583252
vn -0.10602415353059769 -0.43501785397529602 -0.89415788650512695
vn -0.020445184782147408 -0.51764672994613647 0.85535013675689697
vn -0.53533798456192017 0.8446313738822937 -0.0033337881322950125
vn -0.36526286602020264 0.51847392320632935 0.77315443754196167
vn -0.54676753282546997 0.8368191123008728 0.027911173179745674
vn -0.20169460773468018 -0.7168847918510437 -0.66737955808639526
vn -0.52809178829193115 0.77575904130935669 0.34542283415794373
vn -0.58286887407302856 0.81251084804534912 -0.0094864834100008011
vn -0.16238923370838165 0.22716517746448517 0.96022170782089233
vn -0.57362717390060425 0.81910908222198486 -0.0034908049274235964
vn -0.55931556224822998 0.82879793643951416 0.01612512581050396
vn -0.081079445779323578 -0.92630457878112793 0.36794832348823547
vn -0.59953254461288452 0.79983633756637573 -0.028679471462965012
vn -0.60680192708969116 0.79480421543121338 -0.0088154049590229988
vn -0.61157560348510742 0.77979093790054321 -0.13379590213298798
vn -0.62359380722045898 0.78169023990631104 -0.0095469960942864418
vn -0.63292056322097778 0.77403217554092407 -0.016901955008506775
vn -0.5711018443107605 0.82068967819213867 0.017638292163610458
vn -0.24857175350189209 0.30550315976142883 0.9191734790802002
vn -0.045700725167989731 -0.40461206436157227 0.9133458137512207
vn -0.61612582206726074 0.78760844469070435 -0.0078683523461222649
vn -0.63924449682235718 0.7689240574836731 -0.011055628769099712
vn -0.59439122676849365 0.80277401208877563 0.047465432435274124
vn -0.39385280013084412 0.51362556219100952 0.76227867603302002
vn -0.62548816204071045 0.78021788597106934 -0.0049659083597362041
vn -0.64031535387039185 0.76806831359863281 -0.0082059502601623535
vn -0.66163980960845947 0.74976164102554321 -0.0094987228512763977
vn -0.42935988306999207 0.51948320865631104 0.73877418041229248
vn -0.63895851373672485 0.76455414295196533 -0.084788106381893158
vn -0.64864188432693481 0.76087218523025513 -0.01836325041949749
vn -0.49611559510231018 0.67810887098312378 -0.54225242137908936
vn -0.65507638454437256 0.75553667545318604 -0.0062640788964927197
vn -0.32770657539367676 0.37330907583236694 0.86789900064468384
vn -0.62853735685348511 0.7379605770111084 0.24567252397537231
vn -0.025242341682314873 -0.14737397432327271 0.98875868320465088
vn -0.11594627797603607 0.11186006665229797 0.98693656921386719
vn -0.52662026882171631 0.54445040225982666 0.65287429094314575
vn -0.66355210542678833 0.74808758497238159 -0.007973906584084034
vn -0.68744432926177979 0.72558486461639404 -0.030771750956773758
vn -0.69194561243057251 0.72194939851760864 0.00059556384803727269
vn -0.6776505708694458 0.73535144329071045 -0.0069266888312995434
vn -0.67769151926040649 0.68920421600341797 -0.25638189911842346
vn -0.36186602711677551 0.36367875337600708 0.85836517810821533
vn -0.43211635947227478 0.43343323469161987 -0.7908293604850769
vn -0.70470201969146729 0.69036507606506348 0.16368000209331512
vn -0.70984929800033569 0.70432114601135254 -0.0067604966461658478
vn -0.75258582830429077 0.65722769498825073 -0.040820352733135223
vn -0.71557855606079102 0.69853198528289795 -0.00068507250398397446
vn -0.7179151177406311 0.69609969854354858 0.0065673356875777245
vn -0.72923260927200317 0.68420219421386719 -0.0093381712213158607
vn -0.63337582349777222 0.59770184755325317 0.49151554703712463
vn -0.76525557041168213 0.64350175857543945 -0.017012082040309906
vn -0.73794221878051758 0.56870639324188232 -0.36333772540092468
vn -0.75621557235717773 0.65422272682189941 -0.01142850611358881
vn -0.45293071866035461 0.41237017512321472 0.79044586420059204
vn -0.74526369571685791 0.66673529148101807 -0.0067831459455192089
vn -0.73978137969970703 0.66953521966934204 0.066679060459136963
vn -0.26822510361671448 0.22397078573703766 0.93695908784866333
vn -0.76103776693344116 0.64870303869247437 -0.0024402893614023924
vn -0.68979901075363159 0.58831816911697388 0.4219704270362854
vn -0.76862806081771851 0.63936161994934082 -0.020677780732512474
vn -0.77494049072265625 0.63197869062423706 -0.0083734709769487381
vn -0.77479392290115356 0.63206690549850464 -0.013632217422127724
vn -0.76783639192581177 0.64061915874481201 -0.0058574522845447063
vn -0.44495606422424316 0.35329094529151917 0.82292139530181885
vn -0.78021037578582764 0.62427037954330444 0.039474666118621826
vn -0.8023027777671814 0.58787357807159424 -0.10351260006427765
vn -0.073460623621940613 0.065384343266487122 -0.99515247344970703
vn -0.79233705997467041 0.61001008749008179 -0.0094717219471931458
vn -0.12511856853961945 0.1334369033575058 -0.9831276535987854
vn -0.22785213589668274 0.16458992660045624 0.95968407392501831
vn -0.012818179093301296 -0.0032967969309538603 0.99991238117218018
vn -0.57530194520950317 0.39759042859077454 0.71480733156204224
vn -0.76175737380981445 0.55255603790283203 0.33824184536933899
vn -0.79879069328308105 0.60158252716064453 0.0056474823504686356
vn -0.84217965602874756 0.53899729251861572 -0.014675273559987545
vn -0.79845267534255981 0.60204827785491943 -0.0033495188690721989
vn -0.14819534122943878 -0.94406110048294067 0.29459604620933533
vn -0.83737027645111084 0.5465661883354187 -0.0087421024218201637
vn -0.8193238377571106 0.55461412668228149 0.1452983170747757
vn -0.84161883592605591 0.53994816541671753 -0.0115633774548769
vn -0.60747522115707397 0.3752281665802002 0.70012688636779785
vn -0.44868430495262146 0.32315409183502197 -0.83321893215179443
vn -0.28568783402442932 -0.82728278636932373 -0.48372060060501099
vn -0.85026437044143677 0.52622872591018677 -0.011567948386073112
vn -0.85988014936447144 0.50818520784378052 0.048517182469367981
vn -0.72193300724029541 0.5215875506401062 -0.4547078013420105
vn -0.85992264747619629 0.5087587833404541 -0.041201040148735046
vn -0.04458647221326828 -0.12428587675094604 0.99124419689178467
vn -0.72240382432937622 0.42782080173492432 0.54323297739028931
vn -0.21765689551830292 0.10486267507076263 -0.97037583589553833
vn -0.86310774087905884 0.50491726398468018 -0.010176095180213451
vn -0.27904173731803894 0.14062477648258209 0.94992649555206299
vn -0.19434811174869537 -0.44288530945777893 -0.87526077032089233
vn -0.86865693330764771 0.49535349011421204 -0.0077515398152172565
vn -0.51902115345001221 0.24844060838222504 -0.81785959005355835
vn -0.049286104738712311 -0.99872606992721558 0.010823039337992668
vn -0.87945431470870972 0.4758765697479248 -0.010078360326588154
vn -0.84431666135787964 0.48581749200820923 0.22607682645320892
vn -0.87255847454071045 0.48849853873252869 -0.0032996207010000944
vn -0.82473564147949219 0.44116300344467163 -0.35381677746772766
vn -0.89936321973800659 0.43671965599060059 -0.020535940304398537
vn -0.88712692260742188 0.46142727136611938 -0.0095225488767027855
vn -0.89045149087905884 0.45497727394104004 -0.0095842024311423302
vn -0.88236498832702637 0.47049719095230103 -0.0080260895192623138
vn -0.37275812029838562 -0.75060617923736572 -0.54556554555892944
vn -0.2198864221572876 -0.21589069068431854 -0.95133650302886963
vn -0.77430105209350586 0.29642713069915771 -0.55909645557403564
vn -0.14782680571079254 -0.096895135939121246 -0.98425531387329102
vn -0.91613304615020752 0.40073373913764954 -0.010619122534990311
vn -0.69105452299118042 0.32277056574821472 0.6467323899269104
vn -0.31833967566490173 -0.89147096872329712 -0.32239624857902527
vn -0.18731604516506195 -0.65947163105010986 0.72801780700683594
vn -0.88112819194793701 0.44357645511627197 0.16386894881725311
vn -0.92981427907943726 0.36450952291488647 -0.050776373594999313
vn -0.32616758346557617 0.10492683947086334 0.93947064876556396
vn -0.53857380151748657 0.19544640183448792 0.81959682703018188
vn -0.43949422240257263 -0.57202309370040894 -0.69255644083023071
vn -0.63744217157363892 -0.70374834537506104 -0.31369698047637939
vn -0.91440904140472412 0.40467184782028198 -0.0098369121551513672
vn -0.34590590000152588 -0.93711584806442261 -0.046507623046636581
vn -0.38977918028831482 -0.9206809401512146 0.020463509485125542
vn -0.91066896915435791 0.40860024094581604 0.061056520789861679
vn -0.27976968884468079 -0.076367080211639404 -0.95702505111694336
vn -0.91773140430450439 0.32463186979293823 -0.22887380421161652
vn -0.5420689582824707 -0.32723647356033325 -0.77400100231170654
vn -0.57858055830001831 0.14199574291706085 -0.80316978693008423
vn -0.74982082843780518 -0.57124835252761841 -0.3338322639465332
vn -0.64101165533065796 -0.60601514577865601 -0.47100928425788879
vn -0.82475036382675171 -0.54368090629577637 -0.15555675327777863
vn -0.94953078031539917 0.31348896026611328 -0.010768039152026176
vn -0.58576375246047974 0.18531447649002075 0.78901165723800659
vn -0.91055119037628174 0.28985068202018738 -0.29475939273834229
vn -0.15850161015987396 -0.12368154525756836 0.97958159446716309
vn -0.75012564659118652 0.088464625179767609 -0.65535145998001099
vn -0.95448118448257446 0.29491379857063293 -0.044626504182815552
vn -0.42489522695541382 -0.88300979137420654 0.19939336180686951
vn -0.93509727716445923 -0.28543901443481445 -0.21004210412502289
vn -0.90452951192855835 0.15031389892101288 -0.39903897047042847
vn -0.13316763937473297 0.023831941187381744 0.9908069372177124
vn -0.95728814601898193 -0.26001167297363281 -0.12646463513374329
vn -0.96388828754425049 -0.25617003440856934 -0.072775453329086304
vn -0.92739343643188477 0.23065283894538879 -0.29451775550842285
vn -0.89046895503997803 0.33071261644363403 0.31256082653999329
vn -0.73275351524353027 -0.033616311848163605 -0.67966330051422119
vn -0.95796495676040649 -0.28584775328636169 -0.024375777691602707
vn -0.98614376783370972 -0.1293339878320694 -0.10389021039009094
vn -0.46520030498504639 0.12492351979017258 0.87634629011154175
vn -0.8824724555015564 -0.29563221335411072 -0.3658469021320343
vn -0.93238985538482666 -0.047018725425004959 -0.35838308930397034
vn -0.97623914480209351 0.17796187102794647 -0.12363958358764648
vn -0.97996842861175537 -0.13652785122394562 -0.14498978853225708
vn -0.99916970729827881 0.014597240835428238 -0.038036789745092392
vn -0.28970646858215332 -0.026992911472916603 0.95673483610153198
vn -0.9982026219367981 0.058842994272708893 -0.011361465789377689
vn -0.95160156488418579 0.30717700719833374 -0.0098363300785422325
vn -0.64617425203323364 -0.39164033532142639 0.65503948926925659
vn -0.31112223863601685 0.072128161787986755 0.94762885570526123
vn -0.72309219837188721 -0.68845546245574951 0.056273523718118668
vn -0.95304036140441895 0.30267226696014404 -0.01017733383923769
vn -0.99622666835784912 0.050743486732244492 -0.070409715175628662
vn -0.99864470958709717 0.051027409732341766 -0.010244719684123993
vn -0.73207342624664307 0.20033168792724609 0.6511034369468689
vn -0.89150601625442505 -0.4194970428943634 0.17099480330944061
vn -0.59497165679931641 0.11790119856595993 0.79505223035812378
vn -0.76896500587463379 0.18224282562732697 0.61276453733444214
vn -0.94893980026245117 -0.19772523641586304 0.24580074846744537
vn -0.98851454257965088 0.15081426501274109 -0.0096964174881577492
vn -0.86830151081085205 -0.060478594154119492 0.49233609437942505
vn -0.76314520835876465 0.10379931330680847 0.63783621788024902
vn -0.98650997877120972 0.16343508660793304 -0.0093285217881202698
vn -0.71888935565948486 0.05773770809173584 0.69272249937057495
vn -0.95276534557342529 -0.30086672306060791 0.041441038250923157
vn -0.95100605487823486 0.24323070049285889 0.19085662066936493
vn -0.98213464021682739 0.18799135088920593 -0.0084145115688443184
vn -0.82624560594558716 0.17646956443786621 0.53495484590530396
vn -0.99975436925888062 0.022015202790498734 -0.0025508769322186708
vn -0.98751157522201538 -0.079957231879234314 0.13574884831905365
vn -0.87898921966552734 0.10679520666599274 0.46472862362861633
vn -0.98377126455307007 0.17941242456436157 -0.0023075859062373638
vn -0.95497721433639526 0.086095541715621948 0.28391200304031372
vn -0.99281555414199829 0.07107766717672348 0.096255876123905182
vn -0.98794877529144287 0.15454043447971344 -0.0086317062377929688
vn -0.94382333755493164 0.15150962769985199 0.2936704158782959
vn -0.98664337396621704 0.16275210678577423 -0.0068242554552853107
vn -0.99442923069000244 0.10529856383800507 0.0047642998397350311
vn -0.99221122264862061 0.11566077172756195 0.046253856271505356
vn -0.99261307716369629 0.12122489511966705 0.0048784883692860603
vn -0.98935538530349731 0.14532306790351868 0.0075619951821863651
vn -0.99424082040786743 0.107099749147892 -0.0038502749521285295
f 265//265 258//258 247//247
f 17//17 80//80 43//43
f 242//242 260//260 247//247
f 463//463 238//238 472//472
f 492//492 497//497 498//498
f 473//473 497//497 472//472
f 391//391 385//385 392//392
f 257//257 260//260 265//265
f 257//257 265//265 247//247
f 257//257 247//247 260//260
f 256//256 250//250 259//259
f 267//267 259//259 252//252
f 273//273 289//289 274//274
f 292//292 274//274 289//289
f 7//7 1//1 11//11
f 25//25 28//28 7//7
f 113//113 33//33 17//17
f 113//113 17//17 43//43
f 113//113 472//472 238//238
f 16//16 13//13 17//17
f 16//16 17//17 33//33
f 16//16 33//33 113//113
f 448//448 363//363 473//473
f 448//448 473//473 472//472
f 448//448 472//472 113//113
f 448//448 113//113 43//43
f 488//488 473//473 363//363
f 74//74 80//80 61//61
f 74//74 61//61 129//129
f 74//74 129//129 80//80
f 56//56 17//17 46//46
f 56//56 61//61 80//80
f 56//56 80//80 17//17
f 26//26 39//39 22//22
f 26//26 60//60 39//39
f 76//76 68//68 60//60
f 50//50 39//39 60//60
f 103//103 118//118 104//104
f 229//229 234//234 227//227
f 232//232 230//230 221//221
f 232//232 221//221 212//212
f 75//75 47//47 48//48
f 75//75 48//48 169//169
f 75//75 169//169 371//371
f 75//75 129//129 61//61
f 75//75 61//61 47//47
f 137//137 134//134 131//131
f 248//248 197//197 231//231
f 251//251 255//255 260//260
f 228//228 242//242 247//247
f 228//228 247//247 226//226
f 228//228 226//226 218//218
f 220//220 213//213 212//212
f 135//135 338//338 262//262
f 457//457 435//435 463//463
f 317//317 238//238 463//463
f 317//317 463//463 323//323
f 82//82 135//135 78//78
f 528//528 497//497 524//524
f 528//528 524//524 529//529
f 528//528 529//529 533//533
f 528//528 533//533 541//541
f 512//512 506//506 541//541
f 512//512 541//541 519//519
f 512//512 519//519 502//502
f 481//481 463//463 472//472
f 481//481 472//472 497//497
f 479//479 481//481 492//492
f 479//479 457//457 463//463
f 272//272 264//264 274//274
f 378//378 390//390 392//392
f 378//378 392//392 389//389
f 501//501 500//500 512//512
f 501//501 512//512 502//502
f 522//522 502//502 519//519
f 170//170 166//166 82//82
f 170//170 277//277 338//338
f 170//170 338//338 166//166
f 253//253 264//264 260//260
f 253//253 260//260 255//255
f 253//253 255//255 249//249
f 268//268 264//264 253//253
f 268//268 256//256 274//274
f 268//268 274//274 264//264
f 261//261 274//274 256//256
f 261//261 256//256 259//259
f 261//261 259//259 274//274
f 293//293 289//289 273//273
f 293//293 273//273 267//267
f 293//293 267//267 303//303
f 269//269 267//267 273//273
f 269//269 273//273 274//274
f 269//269 274//274 259//259
f 269//269 259//259 267//267
f 307//307 313//313 312//312
f 5//5 13//13 16//16
f 5//5 16//16 8//8
f 5//5 8//8 1//1
f 10//10 17//17 13//13
f 10//10 13//13 5//5
f 10//10 5//5 7//7
f 10//10 7//7 28//28
f 6//6 26//26 22//22
f 6//6 11//11 1//1
f 18//18 11//11 6//6
f 18//18 22//22 35//35
f 18//18 35//35 11//11
f 24//24 35//35 29//29
f 24//24 29//29 25//25
f 24//24 11//11 35//35
f 42//42 28//28 25//25
f 42//42 47//47 61//61
f 42//42 61//61 56//56
f 42//42 56//56 46//46
f 42//42 46//46 17//17
f 42//42 17//17 10//10
f 42//42 10//10 28//28
f 27//27 22//22 39//39
f 27//27 35//35 22//22
f 109//109 113//113 238//238
f 109//109 238//238 94//94
f 295//295 448//448 43//43
f 295//295 43//43 80//80
f 295//295 80//80 129//129
f 295//295 129//129 363//363
f 353//353 129//129 75//75
f 353//353 75//75 371//371
f 353//353 371//371 363//363
f 353//353 363//363 129//129
f 386//386 440//440 371//371
f 386//386 371//371 169//169
f 386//386 169//169 440//440
f 464//464 363//363 371//371
f 464//464 371//371 440//440
f 91//91 98//98 103//103
f 91//91 103//103 104//104
f 87//87 107//107 92//92
f 87//87 92//92 81//81
f 116//116 118//118 103//103
f 116//116 103//103 98//98
f 77//77 68//68 81//81
f 205//205 198//198 193//193
f 222//222 229//229 227//227
f 222//222 227//227 220//220
f 222//222 220//220 212//212
f 235//235 252//252 259//259
f 235//235 259//259 250//250
f 235//235 250//250 232//232
f 235//235 232//232 212//212
f 215//215 252//252 235//235
f 215//215 200//200 202//202
f 215//215 202//202 135//135
f 215//215 135//135 262//262
f 215//215 262//262 267//267
f 215//215 267//267 252//252
f 239//239 232//232 250//250
f 96//96 123//123 48//48
f 203//203 198//198 205//205
f 196//196 181//181 201//201
f 195//195 198//198 203//203
f 195//195 203//203 201//201
f 195//195 201//201 181//181
f 173//173 181//181 171//171
f 173//173 171//171 168//168
f 154//154 145//145 147//147
f 154//154 153//153 155//155
f 154//154 155//155 161//161
f 154//154 161//161 163//163
f 139//139 145//145 134//134
f 139//139 134//134 137//137
f 211//211 226//226 231//231
f 211//211 231//231 197//197
f 243//243 248//248 231//231
f 243//243 231//231 226//226
f 243//243 226//226 247//247
f 243//243 247//247 258//258
f 245//245 234//234 240//240
f 245//245 253//253 249//249
f 245//245 249//249 255//255
f 245//245 255//255 251//251
f 245//245 251//251 260//260
f 245//245 260//260 242//242
f 245//245 242//242 236//236
f 245//245 236//236 234//234
f 233//233 236//236 242//242
f 233//233 242//242 228//228
f 233//233 228//228 234//234
f 233//233 234//234 236//236
f 225//225 234//234 219//219
f 225//225 219//219 220//220
f 225//225 220//220 227//227
f 225//225 227//227 234//234
f 162//162 338//338 135//135
f 162//162 135//135 82//82
f 162//162 82//82 166//166
f 162//162 166//166 338//338
f 114//114 78//78 135//135
f 114//114 135//135 119//119
f 537//537 541//541 533//533
f 537//537 533//533 538//538
f 537//537 538//538 541//541
f 513//513 506//506 497//497
f 513//513 497//497 528//528
f 513//513 528//528 541//541
f 513//513 541//541 506//506
f 520//520 533//533 529//529
f 504//504 506//506 512//512
f 504//504 498//498 497//497
f 504//504 497//497 506//506
f 503//503 498//498 504//504
f 503//503 504//504 512//512
f 503//503 512//512 500//500
f 493//493 492//492 481//481
f 493//493 481//481 497//497
f 493//493 497//497 492//492
f 510//510 473//473 488//488
f 510//510 524//524 497//497
f 510//510 497//497 473//473
f 470//470 481//481 479//479
f 470//470 479//479 463//463
f 470//470 463//463 481//481
f 489//489 498//498 503//503
f 489//489 503//503 500//500
f 489//489 500//500 479//479
f 489//489 479//479 492//492
f 489//489 492//492 498//498
f 480//480 469//469 457//457
f 480//480 457//457 479//479
f 480//480 479//479 500//500
f 480//480 500//500 469//469
f 452//452 466//466 453//453
f 452//452 453//453 439//439
f 452//452 439//439 418//418
f 397//397 391//391 392//392
f 397//397 392//392 390//390
f 420//420 418//418 430//430
f 263//263 260//260 264//264
f 263//263 264//264 272//272
f 281//281 282//282 272//272
f 281//281 272//272 274//274
f 437//437 430//430 446//446
f 384//384 388//388 394//394
f 381//381 390//390 378//378
f 359//359 361//361 349//349
f 354//354 361//361 345//345
f 377//377 378//378 389//389
f 347//347 349//349 361//361
f 347//347 361//361 354//354
f 347//347 354//354 345//345
f 320//320 313//313 309//309
f 336//336 345//345 335//335
f 336//336 330//330 347//347
f 336//336 347//347 345//345
f 350//350 331//331 321//321
f 350//350 321//321 382//382
f 352//352 338//338 277//277
f 352//352 277//277 280//280
f 175//175 94//94 238//238
f 175//175 238//238 280//280
f 175//175 280//280 277//277
f 175//175 277//277 170//170
f 175//175 170//170 82//82
f 175//175 82//82 94//94
f 311//311 320//320 309//309
f 311//311 289//289 293//293
f 306//306 309//309 313//313
f 306//306 313//313 307//307
f 300//300 307//307 312//312
f 300//300 306//306 307//307
f 308//308 312//312 335//335
f 458//458 338//338 352//352
f 458//458 352//352 445//445
f 419//419 421//421 262//262
f 419//419 262//262 338//338
f 2//2 7//7 5//5
f 2//2 5//5 1//1
f 19//19 22//22 18//18
f 40//40 48//48 47//47
f 40//40 47//47 42//42
f 23//23 25//25 7//7
f 23//23 7//7 11//11
f 23//23 11//11 24//24
f 23//23 24//24 25//25
f 12//12 8//8 16//16
f 12//12 16//16 113//113
f 12//12 113//113 64//64
f 12//12 1//1 8//8
f 79//79 64//64 113//113
f 79//79 113//113 109//109
f 79//79 109//109 94//94
f 387//387 169//169 48//48
f 387//387 48//48 123//123
f 387//387 384//384 394//394
f 423//423 440//440 169//169
f 423//423 169//169 387//387
f 482//482 466//466 487//487
f 444//444 440//440 423//423
f 444//444 423//423 387//387
f 346//346 448//448 295//295
f 346//346 295//295 363//363
f 346//346 363//363 448//448
f 429//429 363//363 464//464
f 429//429 464//464 488//488
f 429//429 488//488 363//363
f 270//270 248//248 243//243
f 270//270 243//243 258//258
f 270//270 286//286 310//310
f 270//270 310//310 360//360
f 270//270 360//360 387//387
f 270//270 387//387 123//123
f 270//270 123//123 248//248
f 326//326 360//360 310//310
f 70//70 78//78 114//114
f 83//83 68//68 76//76
f 83//83 98//98 91//91
f 83//83 91//91 81//81
f 127//127 121//121 118//118
f 122//122 107//107 121//121
f 122//122 121//121 127//127
f 122//122 127//127 134//134
f 122//122 134//134 145//145
f 93//93 91//91 104//104
f 93//93 104//104 99//99
f 93//93 99//99 87//87
f 93//93 87//87 81//81
f 93//93 81//81 91//91
f 45//45 35//35 27//27
f 45//45 27//27 39//39
f 45//45 39//39 54//54
f 45//45 41//41 35//35
f 128//128 134//134 127//127
f 128//128 127//127 118//118
f 128//128 118//118 126//126
f 130//130 138//138 137//137
f 130//130 137//137 131//131
f 130//130 131//131 134//134
f 130//130 134//134 128//128
f 130//130 128//128 126//126
f 130//130 126//126 118//118
f 130//130 118//118 116//116
f 86//86 81//81 92//92
f 86//86 77//77 81//81
f 71//71 50//50 60//60
f 71//71 60//60 68//68
f 71//71 68//68 77//77
f 71//71 77//77 86//86
f 71//71 86//86 92//92
f 71//71 92//92 84//84
f 191//191 198//198 187//187
f 191//191 187//187 193//193
f 191//191 193//193 198//198
f 184//184 193//193 180//180
f 188//188 180//180 193//193
f 188//188 193//193 187//187
f 188//188 187//187 181//181
f 217//217 221//221 230//230
f 217//217 230//230 222//222
f 217//217 222//222 212//212
f 217//217 212//212 221//221
f 132//132 119//119 135//135
f 216//216 215//215 235//235
f 216//216 235//235 212//212
f 246//246 253//253 245//245
f 117//117 123//123 96//96
f 100//100 110//110 115//115
f 209//209 201//201 203//203
f 209//209 203//203 213//213
f 207//207 213//213 203//203
f 207//207 203//203 205//205
f 207//207 205//205 208//208
f 207//207 208//208 213//213
f 210//210 196//196 201//201
f 210//210 201//201 209//209
f 210//210 228//228 218//218
f 185//185 195//195 181//181
f 185//185 181//181 187//187
f 149//149 153//153 154//154
f 149//149 154//154 147//147
f 160//160 155//155 168//168
f 165//165 160//160 168//168
f 165//165 168//168 171//171
f 165//165 171//171 161//161
f 177//177 173//173 168//168
f 152//152 145//145 154//154
f 152//152 154//154 163//163
f 174//174 163//163 161//161
f 174//174 161//161 171//171
f 174//174 171//171 181//181
f 182//182 181//181 196//196
f 204//204 196//196 210//210
f 204//204 210//210 218//218
f 204//204 218//218 226//226
f 204//204 226//226 211//211
f 204//204 211//211 197//197
f 223//223 228//228 210//210
f 223//223 210//210 209//209
f 223//223 234//234 228//228
f 55//55 82//82 78//78
f 532//532 533//533 520//520
f 532//532 538//538 533//533
f 485//485 464//464 440//440
f 485//485 440//440 444//444
f 485//485 444//444 505//505
f 508//508 488//488 464//464
f 508//508 464//464 485//485
f 508//508 485//485 505//505
f 508//508 505//505 520//520
f 427//427 439//439 436//436
f 427//427 430//430 418//418
f 427//427 418//418 439//439
f 449//449 456//456 446//446
f 449//449 439//439 453//453
f 443//443 436//436 439//439
f 443//443 439//439 449//449
f 443//443 449//449 446//446
f 443//443 446//446 430//430
f 443//443 430//430 436//436
f 438//438 404//404 395//395
f 438//438 452//452 418//418
f 438//438 418//418 404//404
f 442//442 421//421 419//419
f 442//442 419//419 338//338
f 442//442 338//338 478//478
f 329//329 321//321 303//303
f 340//340 321//321 329//329
f 340//340 329//329 395//395
f 340//340 395//395 382//382
f 340//340 382//382 321//321
f 401//401 407//407 397//397
f 401//401 397//397 390//390
f 401//401 405//405 407//407
f 414//414 405//405 403//403
f 414//414 418//418 420//420
f 276//276 272//272 282//282
f 291//291 292//292 300//300
f 451//451 437//437 446//446
f 451//451 446//446 456//456
f 451//451 456//456 465//465
f 379//379 388//388 384//384
f 379//379 385//385 388//388
f 380//380 390//390 381//381
f 380//380 381//381 366//366
f 368//368 366//366 381//381
f 362//362 361//361 369//369
f 362//362 345//345 361//361
f 383//383 377//377 389//389
f 383//383 389//389 392//392
f 383//383 392//392 385//385
f 376//376 377//377 383//383
f 376//376 383//383 385//385
f 365//365 361//361 359//359
f 373//373 378//378 377//377
f 373//373 377//377 367//367
f 373//373 367//367 368//368
f 373//373 368//368 381//381
f 373//373 381//381 378//378
f 339//339 347//347 330//330
f 339//339 330//330 332//332
f 324//324 313//313 320//320
f 324//324 332//332 330//330
f 315//315 312//312 313//313
f 322//322 312//312 315//315
f 322//322 327//327 335//335
f 322//322 335//335 312//312
f 358//358 362//362 369//369
f 333//333 324//324 330//330
f 333//333 330//330 336//336
f 333//333 336//336 335//335
f 333//333 335//335 327//327
f 316//316 352//352 280//280
f 316//316 280//280 238//238
f 316//316 238//238 317//317
f 316//316 317//317 323//323
f 305//305 311//311 293//293
f 305//305 293//293 303//303
f 318//318 331//331 311//311
f 318//318 311//311 305//305
f 318//318 305//305 303//303
f 318//318 303//303 321//321
f 318//318 321//321 331//331
f 299//299 292//292 289//289
f 299//299 289//289 311//311
f 299//299 311//311 309//309
f 334//334 337//337 326//326
f 334//334 326//326 314//314
f 334//334 308//308 335//335
f 302//302 300//300 312//312
f 302//302 312//312 308//308
f 476//476 484//484 487//487
f 476//476 487//487 466//466
f 476//476 466//466 452//452
f 494//494 502//502 487//487
f 494//494 487//487 484//484
f 494//494 484//484 478//478
f 477//477 458//458 445//445
f 477//477 445//445 469//469
f 477//477 469//469 500//500
f 477//477 500//500 501//501
f 460//460 338//338 458//458
f 3//3 7//7 2//2
f 3//3 2//2 1//1
f 15//15 6//6 22//22
f 15//15 22//22 19//19
f 15//15 19//19 18//18
f 15//15 18//18 6//6
f 32//32 40//40 29//29
f 32//32 29//29 35//35
f 31//31 25//25 29//29
f 31//31 29//29 40//40
f 31//31 40//40 42//42
f 31//31 42//42 25//25
f 4//4 6//6 1//1
f 69//69 64//64 79//79
f 69//69 79//79 94//94
f 69//69 94//94 82//82
f 69//69 82//82 55//55
f 471//471 465//465 453//453
f 534//534 522//522 519//519
f 534//534 519//519 541//541
f 536//536 522//522 534//534
f 536//536 534//534 541//541
f 536//536 541//541 540//540
f 536//536 540//540 531//531
f 511//511 507//507 482//482
f 511//511 482//482 487//487
f 526//526 502//502 522//522
f 526//526 522//522 536//536
f 526//526 536//536 531//531
f 495//495 462//462 465//465
f 495//495 471//471 466//466
f 495//495 466//466 482//482
f 495//495 482//482 507//507
f 450//450 437//437 451//451
f 450//450 451//451 465//465
f 287//287 286//286 270//270
f 287//287 310//310 286//286
f 275//275 265//265 260//260
f 275//275 278//278 287//287
f 275//275 287//287 270//270
f 275//275 270//270 258//258
f 275//275 258//258 265//265
f 348//348 360//360 326//326
f 85//85 119//119 132//132
f 85//85 114//114 119//119
f 20//20 26//26 6//6
f 20//20 6//6 14//14
f 20//20 14//14 21//21
f 89//89 98//98 83//83
f 89//89 83//83 76//76
f 89//89 108//108 98//98
f 72//72 68//68 83//83
f 72//72 83//83 81//81
f 72//72 81//81 68//68
f 112//112 121//121 107//107
f 106//106 104//104 118//118
f 106//106 118//118 121//121
f 106//106 121//121 112//112
f 106//106 112//112 107//107
f 106//106 107//107 99//99
f 106//106 99//99 104//104
f 97//97 87//87 99//99
f 97//97 99//99 107//107
f 59//59 54//54 39//39
f 59//59 39//39 50//50
f 59//59 50//50 71//71
f 59//59 45//45 54//54
f 95//95 84//84 92//92
f 95//95 92//92 107//107
f 95//95 100//100 58//58
f 199//199 208//208 205//205
f 199//199 205//205 193//193
f 190//190 184//184 194//194
f 176//176 168//168 184//184
f 176//176 184//184 180//180
f 176//176 180//180 177//177
f 176//176 177//177 168//168
f 172//172 155//155 157//157
f 172//172 194//194 184//184
f 172//172 184//184 168//168
f 172//172 168//168 155//155
f 183//183 180//180 188//188
f 183//183 188//188 181//181
f 136//136 155//155 138//138
f 148//148 136//136 132//132
f 140//140 148//148 132//132
f 140//140 132//132 135//135
f 140//140 135//135 202//202
f 206//206 200//200 215//215
f 206//206 215//215 216//216
f 206//206 216//216 212//212
f 206//206 212//212 213//213
f 206//206 213//213 208//208
f 206//206 208//208 199//199
f 206//206 199//199 193//193
f 206//206 193//193 184//184
f 206//206 184//184 190//190
f 206//206 190//190 194//194
f 206//206 194//194 200//200
f 254//254 253//253 246//246
f 254//254 246//246 256//256
f 254//254 256//256 268//268
f 254//254 268//268 253//253
f 244//244 250//250 256//256
f 244//244 256//256 246//246
f 244//244 239//239 250//250
f 237//237 240//240 234//234
f 237//237 234//234 229//229
f 237//237 229//229 222//222
f 237//237 222//222 230//230
f 237//237 230//230 232//232
f 237//237 232//232 239//239
f 237//237 239//239 246//246
f 237//237 246//246 245//245
f 237//237 245//245 240//240
f 111//111 115//115 125//125
f 111//111 125//125 117//117
f 111//111 117//117 96//96
f 111//111 100//100 115//115
f 167//167 117//117 125//125
f 167//167 125//125 158//158
f 167//167 158//158 164//164
f 167//167 197//197 248//248
f 167//167 248//248 123//123
f 167//167 123//123 117//117
f 88//88 96//96 48//48
f 88//88 48//48 63//63
f 214//214 219//219 223//223
f 214//214 223//223 209//209
f 214//214 209//209 213//213
f 214//214 213//213 220//220
f 214//214 220//220 219//219
f 189//189 198//198 195//195
f 189//189 195//195 185//185
f 189//189 185//185 187//187
f 189//189 187//187 198//198
f 141//141 137//137 149//149
f 141//141 149//149 147//147
f 141//141 147//147 145//145
f 141//141 145//145 139//139
f 141//141 139//139 137//137
f 142//142 138//138 155//155
f 142//142 149//149 137//137
f 142//142 137//137 138//138
f 159//159 160//160 165//165
f 159//159 165//165 161//161
f 159//159 161//161 155//155
f 159//159 155//155 160//160
f 143//143 145//145 152//152
f 143//143 122//122 145//145
f 156//156 164//164 158//158
f 156//156 152//152 163//163
f 156//156 163//163 174//174
f 178//178 167//167 164//164
f 178//178 164//164 156//156
f 178//178 156//156 174//174
f 178//178 174//174 181//181
f 178//178 181//181 182//182
f 178//178 182//182 196//196
f 224//224 234//234 223//223
f 224//224 223//223 219//219
f 224//224 219//219 234//234
f 36//36 21//21 55//55
f 36//36 55//55 78//78
f 36//36 78//78 70//70
f 523//523 520//520 505//505
f 523//523 505//505 516//516
f 523//523 530//530 532//532
f 523//523 532//532 520//520
f 518//518 508//508 520//520
f 518//518 520//520 529//529
f 432//432 430//430 427//427
f 432//432 427//427 436//436
f 432//432 436//436 430//430
f 455//455 449//449 453//453
f 455//455 453//453 465//465
f 455//455 465//465 456//456
f 459//459 478//478 484//484
f 459//459 484//484 476//476
f 459//459 476//476 452//452
f 434//434 395//395 421//421
f 434//434 421//421 442//442
f 434//434 452//452 438//438
f 434//434 438//438 395//395
f 296//296 303//303 267//267
f 296//296 267//267 262//262
f 296//296 262//262 421//421
f 296//296 421//421 395//395
f 296//296 395//395 329//329
f 296//296 329//329 303//303
f 398//398 405//405 401//401
f 398//398 401//401 390//390
f 398//398 403//403 405//405
f 428//428 420//420 430//430
f 413//413 415//415 407//407
f 413//413 407//407 405//405
f 413//413 405//405 414//414
f 413//413 414//414 420//420
f 413//413 420//420 428//428
f 412//412 418//418 414//414
f 412//412 414//414 403//403
f 412//412 403//403 398//398
f 412//412 398//398 418//418
f 271//271 276//276 282//282
f 285//285 292//292 291//291
f 285//285 281//281 274//274
f 285//285 274//274 292//292
f 284//284 291//291 290//290
f 284//284 279//279 282//282
f 375//375 358//358 385//385
f 375//375 385//385 379//379
f 375//375 379//379 384//384
f 374//374 369//369 361//361
f 374//374 361//361 376//376
f 374//374 376//376 385//385
f 374//374 385//385 358//358
f 374//374 358//358 369//369
f 364//364 367//367 365//365
f 364//364 365//365 359//359
f 364//364 359//359 349//349
f 364//364 366//366 368//368
f 364//364 368//368 367//367
f 372//372 377//377 376//376
f 372//372 376//376 361//361
f 372//372 361//361 365//365
f 372//372 365//365 367//367
f 372//372 367//367 377//377
f 343//343 349//349 347//347
f 343//343 347//347 339//339
f 343//343 339//339 332//332
f 343//343 332//332 311//311
f 343//343 311//311 331//331
f 343//343 331//331 350//350
f 343//343 350//350 382//382
f 343//343 382//382 366//366
f 343//343 366//366 364//364
f 343//343 364//364 349//349
f 328//328 332//332 324//324
f 328//328 324//324 320//320
f 328//328 320//320 311//311
f 328//328 311//311 332//332
f 319//319 327//327 322//322
f 319//319 322//322 315//315
f 319//319 315//315 313//313
f 356//356 345//345 362//362
f 356//356 362//362 358//358
f 325//325 324//324 333//333
f 325//325 333//333 327//327
f 325//325 327//327 319//319
f 325//325 319//319 313//313
f 325//325 313//313 324//324
f 357//357 352//352 316//316
f 357//357 463//463 435//435
f 357//357 435//435 457//457
f 357//357 457//457 469//469
f 357//357 469//469 445//445
f 357//357 445//445 352//352
f 298//298 300//300 292//292
f 298//298 292//292 299//299
f 298//298 299//299 309//309
f 298//298 309//309 306//306
f 298//298 306//306 300//300
f 344//344 337//337 334//334
f 344//344 358//358 348//348
f 344//344 348//348 337//337
f 342//342 358//358 344//344
f 342//342 344//344 334//334
f 342//342 334//334 335//335
f 342//342 335//335 345//345
f 342//342 345//345 356//356
f 342//342 356//356 358//358
f 294//294 290//290 302//302
f 301//301 300//300 302//302
f 301//301 302//302 290//290
f 301//301 290//290 291//291
f 301//301 291//291 300//300
f 496//496 458//458 477//477
f 496//496 477//477 501//501
f 496//496 501//501 502//502
f 38//38 40//40 32//32
f 38//38 32//32 35//35
f 38//38 35//35 41//41
f 38//38 41//41 48//48
f 38//38 48//48 40//40
f 461//461 466//466 471//471
f 461//461 471//471 453//453
f 461//461 453//453 466//466
f 535//535 531//531 540//540
f 535//535 540//540 538//538
f 535//535 538//538 532//532
f 535//535 532//532 530//530
f 539//539 538//538 540//540
f 539//539 540//540 541//541
f 539//539 541//541 538//538
f 483//483 499//499 467//467
f 474//474 471//471 495//495
f 474//474 495//495 465//465
f 474//474 465//465 471//471
f 525//525 507//507 511//511
f 525//525 511//511 487//487
f 525//525 487//487 502//502
f 525//525 502//502 526//526
f 525//525 526//526 531//531
f 525//525 531//531 535//535
f 525//525 495//495 507//507
f 441//441 450//450 465//465
f 441//441 465//465 462//462
f 441//441 462//462 444//444
f 441//441 444//444 433//433
f 304//304 314//314 326//326
f 304//304 326//326 310//310
f 304//304 310//310 287//287
f 304//304 287//287 308//308
f 304//304 308//308 334//334
f 304//304 334//334 314//314
f 288//288 279//279 284//284
f 288//288 284//284 290//290
f 288//288 308//308 287//287
f 288//288 287//287 278//278
f 288//288 278//278 279//279
f 266//266 278//278 275//275
f 266//266 275//275 260//260
f 266//266 260//260 263//263
f 266//266 263//263 272//272
f 266//266 272//272 276//276
f 266//266 276//276 271//271
f 266//266 271//271 282//282
f 266//266 282//282 279//279
f 266//266 279//279 278//278
f 341//341 337//337 348//348
f 341//341 348//348 326//326
f 341//341 326//326 337//337
f 102//102 108//108 85//85
f 102//102 85//85 132//132
f 102//102 132//132 108//108
f 73//73 70//70 114//114
f 73//73 114//114 85//85
f 44//44 26//26 20//20
f 62//62 20//20 21//21
f 62//62 21//21 36//36
f 62//62 36//36 70//70
f 62//62 70//70 73//73
f 66//66 89//89 76//76
f 66//66 76//76 60//60
f 90//90 87//87 97//97
f 90//90 97//97 107//107
f 90//90 107//107 87//87
f 67//67 84//84 95//95
f 67//67 95//95 58//58
f 67//67 58//58 59//59
f 67//67 59//59 71//71
f 67//67 71//71 84//84
f 51//51 45//45 59//59
f 51//51 59//59 58//58
f 51//51 58//58 41//41
f 51//51 41//41 45//45
f 101//101 100//100 95//95
f 101//101 95//95 107//107
f 101//101 107//107 110//110
f 101//101 110//110 100//100
f 186//186 200//200 194//194
f 186//186 194//194 172//172
f 186//186 172//172 157//157
f 186//186 157//157 148//148
f 186//186 148//148 140//140
f 186//186 140//140 202//202
f 186//186 202//202 200//200
f 179//179 177//177 180//180
f 179//179 180//180 183//183
f 179//179 183//183 181//181
f 179//179 181//181 173//173
f 179//179 173//173 177//177
f 133//133 130//130 136//136
f 133//133 136//136 138//138
f 133//133 138//138 130//130
f 120//120 108//108 132//132
f 120//120 132//132 136//136
f 120//120 136//136 130//130
f 120//120 130//130 116//116
f 120//120 116//116 98//98
f 120//120 98//98 108//108
f 150//150 155//155 136//136
f 150//150 136//136 148//148
f 150//150 148//148 157//157
f 150//150 157//157 155//155
f 241//241 239//239 244//244
f 241//241 244//244 246//246
f 241//241 246//246 239//239
f 124//124 110//110 107//107
f 124//124 107//107 122//122
f 124//124 122//122 143//143
f 124//124 143//143 152//152
f 124//124 152//152 156//156
f 124//124 156//156 158//158
f 124//124 158//158 125//125
f 124//124 125//125 115//115
f 124//124 115//115 110//110
f 53//53 63//63 48//48
f 53//53 48//48 41//41
f 53//53 41//41 58//58
f 53//53 58//58 100//100
f 53//53 88//88 63//63
f 105//105 111//111 96//96
f 105//105 96//96 88//88
f 105//105 88//88 53//53
f 105//105 53//53 100//100
f 105//105 100//100 111//111
f 151//151 155//155 153//153
f 151//151 153//153 149//149
f 192//192 167//167 178//178
f 192//192 178//178 196//196
f 192//192 196//196 204//204
f 192//192 204//204 197//197
f 192//192 197//197 167//167
f 49//49 64//64 69//69
f 49//49 69//69 55//55
f 49//49 34//34 12//12
f 49//49 12//12 64//64
f 9//9 12//12 34//34
f 9//9 21//21 14//14
f 9//9 14//14 6//6
f 9//9 6//6 4//4
f 9//9 4//4 1//1
f 9//9 1//1 12//12
f 521//521 530//530 523//523
f 521//521 523//523 516//516
f 521//521 516//516 535//535
f 521//521 535//535 530//530
f 491//491 505//505 444//444
f 491//491 444//444 467//467
f 491//491 467//467 499//499
f 491//491 499//499 509//509
f 491//491 509//509 516//516
f 491//491 516//516 505//505
f 515//515 524//524 510//510
f 515//515 510//510 488//488
f 515//515 488//488 508//508
f 515//515 508//508 518//518
f 515//515 518//518 529//529
f 515//515 529//529 524//524
f 454//454 449//449 455//455
f 454//454 455//455 456//456
f 454//454 456//456 449//449
f 447//447 459//459 452//452
f 447//447 452//452 434//434
f 447//447 434//434 442//442
f 447//447 442//442 478//478
f 447//447 478//478 459//459
f 393//393 395//395 404//404
f 393//393 404//404 418//418
f 393//393 418//418 398//398
f 393//393 398//398 390//390
f 393//393 390//390 380//380
f 393//393 380//380 366//366
f 393//393 366//366 382//382
f 393//393 382//382 395//395
f 410//410 408//408 407//407
f 410//410 407//407 415//415
f 283//283 281//281 285//285
f 283//283 285//285 291//291
f 283//283 291//291 284//284
f 283//283 284//284 282//282
f 283//283 282//282 281//281
f 370//370 360//360 375//375
f 370//370 375//375 384//384
f 370//370 384//384 387//387
f 370//370 387//387 360//360
f 355//355 348//348 358//358
f 355//355 358//358 375//375
f 355//355 375//375 360//360
f 355//355 360//360 348//348
f 351//351 323//323 463//463
f 351//351 463//463 357//357
f 351//351 357//357 316//316
f 351//351 316//316 323//323
f 475//475 458//458 496//496
f 475//475 478//478 338//338
f 475//475 338//338 460//460
f 475//475 460//460 458//458
f 490//490 496//496 502//502
f 490//490 502//502 494//494
f 468//468 495//495 483//483
f 468//468 483//483 467//467
f 468//468 467//467 444//444
f 468//468 444//444 462//462
f 468//468 462//462 495//495
f 514//514 499//499 483//483
f 514//514 483//483 495//495
f 514//514 495//495 525//525
f 514//514 516//516 499//499
f 527//527 525//525 535//535
f 527//527 535//535 516//516
f 396//396 385//385 391//391
f 396//396 400//400 408//408
f 396//396 402//402 388//388
f 396//396 388//388 385//385
f 424//424 433//433 444//444
f 424//424 425//425 441//441
f 424//424 441//441 433//433
f 431//431 441//441 425//425
f 431//431 428//428 430//430
f 431//431 430//430 437//437
f 431//431 437//437 450//450
f 431//431 450//450 441//441
f 426//426 428//428 431//431
f 422//422 387//387 409//409
f 422//422 424//424 444//444
f 422//422 444//444 387//387
f 416//416 424//424 422//422
f 416//416 422//422 409//409
f 406//406 394//394 388//388
f 406//406 388//388 402//402
f 406//406 416//416 409//409
f 406//406 409//409 387//387
f 406//406 387//387 394//394
f 297//297 308//308 288//288
f 297//297 288//288 290//290
f 297//297 290//290 294//294
f 297//297 294//294 302//302
f 297//297 302//302 308//308
f 52//52 60//60 26//26
f 52//52 26//26 44//44
f 52//52 44//44 57//57
f 52//52 57//57 60//60
f 37//37 57//57 44//44
f 37//37 44//44 20//20
f 37//37 20//20 57//57
f 65//65 20//20 62//62
f 65//65 62//62 73//73
f 65//65 73//73 85//85
f 65//65 85//85 108//108
f 65//65 108//108 89//89
f 65//65 89//89 66//66
f 65//65 66//66 60//60
f 65//65 60//60 57//57
f 65//65 57//57 20//20
f 146//146 142//142 155//155
f 146//146 155//155 151//151
f 146//146 151//151 149//149
f 30//30 21//21 9//9
f 30//30 9//9 34//34
f 30//30 34//34 49//49
f 30//30 49//49 55//55
f 30//30 55//55 21//21
f 399//399 397//397 407//407
f 399//399 407//407 408//408
f 399//399 408//408 400//400
f 399//399 400//400 396//396
f 399//399 396//396 391//391
f 399//399 391//391 397//397
f 486//486 478//478 475//475
f 486//486 475//475 496//496
f 486//486 496//496 490//490
f 486//486 490//490 494//494
f 486//486 494//494 478//478
f 517//517 516//516 514//514
f 517//517 514//514 525//525
f 517//517 525//525 527//527
f 517//517 527//527 516//516
f 417//417 408//408 410//410
f 417//417 410//410 415//415
f 417//417 415//415 413//413
f 417//417 413//413 428//428
f 417//417 428//428 426//426
f 417//417 426//426 431//431
f 417//417 431//431 425//425
f 411//411 425//425 424//424
f 411//411 424//424 416//416
f 411//411 416//416 406//406
f 411//411 406//406 402//402
f 411//411 402//402 396//396
f 411//411 396//396 408//408
f 411//411 408//408 417//417
f 411//411 417//417 425//425
f 144//144 142//142 146//146
f 144//144 146//146 149//149
f 144//144 149//149 142//142
f 7//7 3//3 1//1
f 509//509 499//499 516//516
